<svg xmlns="http://www.w3.org/2000/svg" width="171.9" height="222.612" viewBox="0 0 171.9 222.612">
  <g id="Grupo_61565" data-name="Grupo 61565" transform="translate(-1513.496 -160.479)">
    <g id="Grupo_61564" data-name="Grupo 61564" transform="translate(1513.496 160.48)">
      <g id="Grupo_61382" data-name="Grupo 61382">
        <g id="Grupo_61256" data-name="Grupo 61256" transform="translate(15.368 81.628)">
          <g id="Grupo_61246" data-name="Grupo 61246" transform="translate(36.377)">
            <g id="Grupo_61245" data-name="Grupo 61245">
              <g id="Grupo_61244" data-name="Grupo 61244">
                <g id="Grupo_61243" data-name="Grupo 61243">
                  <g id="Grupo_61242" data-name="Grupo 61242">
                    <g id="Grupo_61241" data-name="Grupo 61241">
                      <g id="Grupo_61240" data-name="Grupo 61240">
                        <g id="Grupo_61239" data-name="Grupo 61239">
                          <g id="Grupo_61238" data-name="Grupo 61238">
                            <path id="Trazado_114376" data-name="Trazado 114376" d="M1569.512,249.756a.628.628,0,0,0-.018.15.836.836,0,0,0,.191.526l.095.386,4.575,18.065.459,1.818.525,2.054,4.05,16.011.459,1.818,4.575,18.065.459,1.818,4.127,16.3.71,2.8a.92.92,0,0,0,.03.128l.292,1.158,14.511,57.322h2.076l-4.575-18.065H1640.7l4.568,18.065h2.076L1620.054,280.4l-8.141-32.162h-2.07l.191.766h-38.643l-.191-.766h-2.076Zm7.372,20.944h38.643l2.94,11.614,21.77,85.983h-38.643l-4.575-18.064-5.94-23.465-1.038-4.092-3.059-12.08-.03-.129-.108-.429-.328-1.286-.023-.091v-.011l-4.575-18.065-.3-1.818a1.355,1.355,0,0,0-.155.011v-.011Zm-5.034-19.883h38.644l4.575,18.065h-38.644l-.095-.365Z" transform="translate(-1569.124 -248.233)" fill="#2e7dfb"/>
                          </g>
                        </g>
                      </g>
                    </g>
                  </g>
                </g>
              </g>
            </g>
          </g>
          <g id="Grupo_61255" data-name="Grupo 61255">
            <g id="Grupo_61254" data-name="Grupo 61254">
              <g id="Grupo_61253" data-name="Grupo 61253">
                <g id="Grupo_61252" data-name="Grupo 61252">
                  <g id="Grupo_61251" data-name="Grupo 61251">
                    <g id="Grupo_61250" data-name="Grupo 61250">
                      <g id="Grupo_61249" data-name="Grupo 61249">
                        <g id="Grupo_61248" data-name="Grupo 61248">
                          <g id="Grupo_61247" data-name="Grupo 61247">
                            <path id="Trazado_114377" data-name="Trazado 114377" d="M1562.029,310.466h22.193l-.108-.429-.328-1.286-.023-.091a.017.017,0,0,0,.005-.011h-21.1C1562.458,309.265,1562.243,309.87,1562.029,310.466Zm-32.012,77.715h2.07l4.575-18.065h38.644l-4.575,18.065h2.07l14.511-57.322,1.038-4.091,4.014-15.862.137-.547.323-1.26,1.336-5.292,1.509-5.958,6.877-27.149.459-1.818,4.575-18.065.095-.386a.824.824,0,0,0,.185-.526,1.168,1.168,0,0,0-.012-.15l.382-1.523h-2.07l-.2.766h-38.643l.2-.766h-2.076l-5.3,20.939a.845.845,0,0,0-.274.617.8.8,0,0,0,.048.268l-4.742,18.72a.944.944,0,0,0-.865.895.889.889,0,0,0,.447.756l-4.67,18.467a.868.868,0,0,0-.322.66.774.774,0,0,0,.072.333l-.818,3.228-1.962,7.743-.162.654ZM1605.5,250.817l-3.3,13.052-1.271,5.014h-38.643l4.575-18.065Zm-48.251,37.948,4.575-18.065h38.643l-1.407,5.572-3.167,12.5a1.453,1.453,0,0,0-.155-.011Zm34.9,14.778-1.294,5.1h-38.637l4.569-18.065h38.643l-1.819,7.175Zm-6.322,24.988h-38.643l.083-.327.274-1.084,1.372-5.421,2.171-8.585.668-2.649H1590.4l-.089.36-3,11.85-1.032,4.092Zm-5.034,19.883h-38.643l4.575-18.065h38.637ZM1537.121,368.3l4.575-18.064h38.643l-4.575,18.064Z" transform="translate(-1530.017 -248.233)" fill="#7adcfb"/>
                          </g>
                        </g>
                      </g>
                    </g>
                  </g>
                </g>
              </g>
            </g>
          </g>
        </g>
        <g id="Grupo_61378" data-name="Grupo 61378" transform="translate(2.53)">
          <g id="Grupo_61259" data-name="Grupo 61259" transform="translate(2.981 53.493)">
            <g id="Grupo_61258" data-name="Grupo 61258">
              <g id="Grupo_61257" data-name="Grupo 61257">
                <path id="Trazado_114378" data-name="Trazado 114378" d="M1520.654,235.922c-.462,1.914-.8,3.749-1.037,5.364-.344,2.335-.4,5.006,1.239,6.717a8.1,8.1,0,0,0,3.416,1.83c4.031,1.33,13.18,5,15.723-.145,1.174-2.376-.079-7.146-.144-9.709-.106-4.226-.073-8.455-.273-12.678-.24-5.075.443-11.11-7.036-8.811C1525.855,220.546,1522.378,228.784,1520.654,235.922Z" transform="translate(-1519.42 -217.987)" fill="#7cdafb"/>
              </g>
            </g>
          </g>
          <g id="Grupo_61268" data-name="Grupo 61268">
            <g id="Grupo_61261" data-name="Grupo 61261" transform="translate(0 53.97)">
              <g id="Grupo_61260" data-name="Grupo 61260">
                <path id="Trazado_114379" data-name="Trazado 114379" d="M1516.766,251.692h0a8.035,8.035,0,0,1,4.537-10.383l56.818-22.26a8.035,8.035,0,0,1,10.382,4.537h0a8.035,8.035,0,0,1-4.536,10.382l-56.818,22.26A8.035,8.035,0,0,1,1516.766,251.692Z" transform="translate(-1516.216 -218.499)" fill="#2300b1"/>
              </g>
            </g>
            <g id="Grupo_61263" data-name="Grupo 61263" transform="translate(53.573 52.088)">
              <g id="Grupo_61262" data-name="Grupo 61262">
                <rect id="Rectángulo_7070" data-name="Rectángulo 7070" width="9.213" height="25.638" transform="matrix(0.365, 0.931, -0.931, 0.365, 23.871, 0)" fill="#2300b1"/>
              </g>
            </g>
            <g id="Grupo_61265" data-name="Grupo 61265" transform="translate(69.986)" opacity="0.53">
              <g id="Grupo_61264" data-name="Grupo 61264">
                <circle id="Elipse_6324" data-name="Elipse 6324" cx="36.854" cy="36.854" r="36.854" transform="translate(0 72.415) rotate(-79.254)" fill="#fff"/>
              </g>
            </g>
            <g id="Grupo_61267" data-name="Grupo 61267" transform="translate(73.54 3.553)">
              <g id="Grupo_61266" data-name="Grupo 61266">
                <path id="Trazado_114380" data-name="Trazado 114380" d="M1598,218.244a39.524,39.524,0,1,1,51.218,22.383A39.569,39.569,0,0,1,1598,218.244Zm68.628-26.888a34.183,34.183,0,1,0-19.357,44.3A34.221,34.221,0,0,0,1666.627,191.356Z" transform="translate(-1595.274 -164.3)" fill="#2e7dfb"/>
              </g>
            </g>
          </g>
          <g id="Grupo_61275" data-name="Grupo 61275" transform="translate(23.601 168.397)">
            <g id="Grupo_61274" data-name="Grupo 61274">
              <g id="Grupo_61273" data-name="Grupo 61273">
                <g id="Grupo_61272" data-name="Grupo 61272">
                  <g id="Grupo_61271" data-name="Grupo 61271">
                    <g id="Grupo_61270" data-name="Grupo 61270">
                      <g id="Grupo_61269" data-name="Grupo 61269">
                        <path id="Trazado_114381" data-name="Trazado 114381" d="M1556.493,354.084v1.093h-14.47l-.009-1.518-.425-12.145h9.12v7.59l3.5,2.414a2.955,2.955,0,0,1,2.246,2.14A2.182,2.182,0,0,1,1556.493,354.084Z" transform="translate(-1541.588 -341.514)" fill="#8769b8"/>
                      </g>
                    </g>
                  </g>
                </g>
              </g>
            </g>
          </g>
          <g id="Grupo_61282" data-name="Grupo 61282" transform="translate(23.668 180.542)">
            <g id="Grupo_61281" data-name="Grupo 61281">
              <g id="Grupo_61280" data-name="Grupo 61280">
                <g id="Grupo_61279" data-name="Grupo 61279">
                  <g id="Grupo_61278" data-name="Grupo 61278">
                    <g id="Grupo_61277" data-name="Grupo 61277">
                      <g id="Grupo_61276" data-name="Grupo 61276">
                        <path id="Trazado_114382" data-name="Trazado 114382" d="M1556.5,356.09h-14.832l-.007-1.519h14.8Z" transform="translate(-1541.66 -354.571)" fill="#150077"/>
                      </g>
                    </g>
                  </g>
                </g>
              </g>
            </g>
          </g>
          <g id="Grupo_61285" data-name="Grupo 61285" transform="translate(19.323 74.702)">
            <g id="Grupo_61284" data-name="Grupo 61284">
              <g id="Grupo_61283" data-name="Grupo 61283">
                <path id="Trazado_114383" data-name="Trazado 114383" d="M1560.612,271.882q-.239,3.741-.486,7.486c-.668,9.9-1.459,19.787-2.859,29.623-.755,5.273-.487,30.994-7.454,30.962-.905,0-2.192,0-3.521-.007-1.681,0-3.428-.006-4.574-.022-2.571-.034-1.115-21.348-1.115-25.728.057-1.487.1-2.972.112-4.457-.028-.654-.063-1.306-.112-1.96v-1.093l.09-.116c-.018-.873-.051-1.75-.09-2.629v-1.5l-.075,0c-.481-8.506-1.744-17.078-2.123-25.578-.367-8.251-2.76-19.774-.358-27.774,1.591-5.295,8.263-7.9,14.093-8.3,6.916,6.309,8.617,14.719,8.726,23.143C1560.9,266.6,1560.781,269.275,1560.612,271.882Z" transform="translate(-1536.989 -240.788)" fill="#2e7dfb"/>
              </g>
            </g>
          </g>
          <g id="Grupo_61288" data-name="Grupo 61288" transform="translate(33.484 96.785)" style="mix-blend-mode: multiply;isolation: isolate">
            <g id="Grupo_61287" data-name="Grupo 61287">
              <g id="Grupo_61286" data-name="Grupo 61286">
                <path id="Trazado_114384" data-name="Trazado 114384" d="M1561.928,265.588l-9.715-1.06V271.9a272.168,272.168,0,0,1,6.231,37.9c1.326-9.554,2.1-19.159,2.744-28.767q.252-3.745.486-7.486C1561.843,270.932,1561.967,268.261,1561.928,265.588Z" transform="translate(-1552.213 -264.528)" fill="#2e7dfb"/>
              </g>
            </g>
          </g>
          <g id="Grupo_61351" data-name="Grupo 61351" transform="translate(20.267 35.981)">
            <g id="Grupo_61291" data-name="Grupo 61291" transform="translate(2.12 8.004)">
              <g id="Grupo_61290" data-name="Grupo 61290">
                <g id="Grupo_61289" data-name="Grupo 61289">
                  <path id="Trazado_114385" data-name="Trazado 114385" d="M1540.315,210.771l.7,4.368a2.47,2.47,0,0,0,2.823,2.043l.947-.152a2.472,2.472,0,0,0,2.044-2.823l-.7-4.367a2.468,2.468,0,0,0-2.8-2.047l-.97.155a2.464,2.464,0,0,0-2.016,1.9A2.418,2.418,0,0,0,1540.315,210.771Z" transform="translate(-1540.283 -207.766)" fill="#f8c208"/>
                </g>
              </g>
            </g>
            <g id="Grupo_61299" data-name="Grupo 61299" transform="translate(2.179 8.397)">
              <g id="Grupo_61298" data-name="Grupo 61298">
                <g id="Grupo_61297" data-name="Grupo 61297">
                  <g id="Grupo_61296" data-name="Grupo 61296">
                    <g id="Grupo_61295" data-name="Grupo 61295">
                      <g id="Grupo_61294" data-name="Grupo 61294">
                        <g id="Grupo_61293" data-name="Grupo 61293">
                          <g id="Grupo_61292" data-name="Grupo 61292">
                            <path id="Trazado_114386" data-name="Trazado 114386" d="M1540.346,209.878l6.345,3.479-.558-3.487a2.455,2.455,0,0,0-.681-1.341,18.166,18.166,0,0,0-3.764-.34Z" transform="translate(-1540.346 -208.188)" fill="#150077"/>
                          </g>
                        </g>
                      </g>
                    </g>
                  </g>
                </g>
              </g>
            </g>
            <g id="Grupo_61307" data-name="Grupo 61307">
              <g id="Grupo_61306" data-name="Grupo 61306">
                <g id="Grupo_61305" data-name="Grupo 61305">
                  <g id="Grupo_61304" data-name="Grupo 61304">
                    <g id="Grupo_61303" data-name="Grupo 61303">
                      <g id="Grupo_61302" data-name="Grupo 61302">
                        <g id="Grupo_61301" data-name="Grupo 61301">
                          <g id="Grupo_61300" data-name="Grupo 61300">
                            <path id="Trazado_114387" data-name="Trazado 114387" d="M1546.182,200.681c-.621-.968-1.406-1.736-2.525-1.465-1,.244-1.233,1.235-2.184,1.634a13.505,13.505,0,0,0-2.455,1.075,2.681,2.681,0,0,0-.979,2.728,17.3,17.3,0,0,0,.927,3.962,2.529,2.529,0,0,0,1.3,1.67,1.967,1.967,0,0,0,2.217-1.155,2.909,2.909,0,0,0,.312-1.01c.044-.4-.006-.81.02-1.215a2.325,2.325,0,0,1,1.1-1.908c.868-.469,2.766.193,3.206-.715C1547.615,203.251,1546.764,201.587,1546.182,200.681Z" transform="translate(-1538.004 -199.161)" fill="#150077"/>
                          </g>
                        </g>
                      </g>
                    </g>
                  </g>
                </g>
              </g>
            </g>
            <g id="Grupo_61310" data-name="Grupo 61310" transform="translate(0.836 2.479)">
              <g id="Grupo_61309" data-name="Grupo 61309">
                <g id="Grupo_61308" data-name="Grupo 61308">
                  <path id="Rectángulo_7071" data-name="Rectángulo 7071" d="M3.188,0H4.516A3.187,3.187,0,0,1,7.7,3.187V5.442A3.852,3.852,0,0,1,3.852,9.294h0A3.852,3.852,0,0,1,0,5.442V3.188A3.188,3.188,0,0,1,3.188,0Z" transform="translate(9.077 9.177) rotate(170.898)" fill="#f8c208"/>
                </g>
              </g>
            </g>
            <g id="Grupo_61318" data-name="Grupo 61318" transform="translate(1.523 6.778)">
              <g id="Grupo_61317" data-name="Grupo 61317">
                <g id="Grupo_61316" data-name="Grupo 61316">
                  <g id="Grupo_61315" data-name="Grupo 61315">
                    <g id="Grupo_61314" data-name="Grupo 61314">
                      <g id="Grupo_61313" data-name="Grupo 61313">
                        <g id="Grupo_61312" data-name="Grupo 61312">
                          <g id="Grupo_61311" data-name="Grupo 61311">
                            <path id="Trazado_114388" data-name="Trazado 114388" d="M1542.094,208.862a1.426,1.426,0,1,1-.039-2.016A1.425,1.425,0,0,1,1542.094,208.862Z" transform="translate(-1539.641 -206.448)" fill="#150077"/>
                          </g>
                        </g>
                      </g>
                    </g>
                  </g>
                </g>
              </g>
            </g>
            <g id="Grupo_61326" data-name="Grupo 61326" transform="translate(0.376 1.474)">
              <g id="Grupo_61325" data-name="Grupo 61325">
                <g id="Grupo_61324" data-name="Grupo 61324">
                  <g id="Grupo_61323" data-name="Grupo 61323">
                    <g id="Grupo_61322" data-name="Grupo 61322">
                      <g id="Grupo_61321" data-name="Grupo 61321">
                        <g id="Grupo_61320" data-name="Grupo 61320">
                          <g id="Grupo_61319" data-name="Grupo 61319">
                            <path id="Trazado_114389" data-name="Trazado 114389" d="M1539,203.506a6.76,6.76,0,0,1,2.865-2.374,4.747,4.747,0,0,1,3.663-.036c.473.2.635.991.61,1.5,0,.014.32-.375.324-.363a36.194,36.194,0,0,1-4.171,1.474c.41,2.346-.644,2.568-1.628,3.221-.917.6-2.094.433-2.26-.893Z" transform="translate(-1538.408 -200.745)" fill="#150077"/>
                          </g>
                        </g>
                      </g>
                    </g>
                  </g>
                </g>
              </g>
            </g>
            <g id="Grupo_61334" data-name="Grupo 61334" transform="translate(0.764 3.78)">
              <g id="Grupo_61333" data-name="Grupo 61333">
                <g id="Grupo_61332" data-name="Grupo 61332">
                  <g id="Grupo_61331" data-name="Grupo 61331">
                    <g id="Grupo_61330" data-name="Grupo 61330">
                      <g id="Grupo_61329" data-name="Grupo 61329">
                        <g id="Grupo_61328" data-name="Grupo 61328">
                          <g id="Grupo_61327" data-name="Grupo 61327">
                            <path id="Trazado_114390" data-name="Trazado 114390" d="M1542.268,209.978l-.115.024a7.039,7.039,0,0,1-1.964.3c-.284-.139-.883-.473-.994-.769-.859-2.307-.006-1.613.365-3.933.17-1.063,2.319-2.661,3.584-2.326,1.307.346,1.18,2.726,1.277,3.791a2.23,2.23,0,0,1-2.154,2.918Z" transform="translate(-1538.825 -203.224)" fill="#150077"/>
                          </g>
                        </g>
                      </g>
                    </g>
                  </g>
                </g>
              </g>
            </g>
            <g id="Grupo_61342" data-name="Grupo 61342" transform="translate(4.419 5.928)">
              <g id="Grupo_61341" data-name="Grupo 61341">
                <g id="Grupo_61340" data-name="Grupo 61340">
                  <g id="Grupo_61339" data-name="Grupo 61339">
                    <g id="Grupo_61338" data-name="Grupo 61338">
                      <g id="Grupo_61337" data-name="Grupo 61337">
                        <g id="Grupo_61336" data-name="Grupo 61336">
                          <g id="Grupo_61335" data-name="Grupo 61335">
                            <path id="Trazado_114391" data-name="Trazado 114391" d="M1545.208,207.947a1.425,1.425,0,1,1-.039-2.016A1.425,1.425,0,0,1,1545.208,207.947Z" transform="translate(-1542.755 -205.534)" fill="#f8c208"/>
                          </g>
                        </g>
                      </g>
                    </g>
                  </g>
                </g>
              </g>
            </g>
            <g id="Grupo_61350" data-name="Grupo 61350" transform="translate(5.264 3.124)">
              <g id="Grupo_61349" data-name="Grupo 61349">
                <g id="Grupo_61348" data-name="Grupo 61348">
                  <g id="Grupo_61347" data-name="Grupo 61347">
                    <g id="Grupo_61346" data-name="Grupo 61346">
                      <g id="Grupo_61345" data-name="Grupo 61345">
                        <g id="Grupo_61344" data-name="Grupo 61344">
                          <g id="Grupo_61343" data-name="Grupo 61343">
                            <path id="Trazado_114392" data-name="Trazado 114392" d="M1545.2,202.519l.6,2.073c.2.7.018,1.37-.412,1.494h0c-.431.125-.943-.342-1.146-1.044l-.574-1.986Z" transform="translate(-1543.663 -202.519)" fill="#150077"/>
                          </g>
                        </g>
                      </g>
                    </g>
                  </g>
                </g>
              </g>
            </g>
          </g>
          <g id="Grupo_61354" data-name="Grupo 61354" transform="translate(26.218 48.302)">
            <g id="Grupo_61353" data-name="Grupo 61353">
              <g id="Grupo_61352" data-name="Grupo 61352">
                <path id="Trazado_114393" data-name="Trazado 114393" d="M1554.18,214.95h0a3.159,3.159,0,0,0-3.832-2.457l-4.279,1.024a2.172,2.172,0,0,0-1.582,2.712l.463,1.618Z" transform="translate(-1544.402 -212.406)" fill="#e7f0f8"/>
              </g>
            </g>
          </g>
          <g id="Grupo_61357" data-name="Grupo 61357" transform="translate(56.201 150.181)">
            <g id="Grupo_61356" data-name="Grupo 61356">
              <g id="Grupo_61355" data-name="Grupo 61355">
                <path id="Trazado_114394" data-name="Trazado 114394" d="M1584.707,321.931a2.021,2.021,0,0,1,.126.7v6.3l4.784,2.39a2.62,2.62,0,0,1,1.8,2.048,2.449,2.449,0,0,1,.034.406v1.046h-14.758l-.007-1.453-.052-11.439Z" transform="translate(-1576.634 -321.931)" fill="#8769b8"/>
              </g>
            </g>
          </g>
          <g id="Grupo_61364" data-name="Grupo 61364" transform="translate(56.253 161.62)">
            <g id="Grupo_61363" data-name="Grupo 61363">
              <g id="Grupo_61362" data-name="Grupo 61362">
                <g id="Grupo_61361" data-name="Grupo 61361">
                  <g id="Grupo_61360" data-name="Grupo 61360">
                    <g id="Grupo_61359" data-name="Grupo 61359">
                      <g id="Grupo_61358" data-name="Grupo 61358">
                        <path id="Trazado_114395" data-name="Trazado 114395" d="M1591.456,334.635v1.046H1576.7l-.007-1.453h14.731A2.449,2.449,0,0,1,1591.456,334.635Z" transform="translate(-1576.69 -334.228)" fill="#150077"/>
                      </g>
                    </g>
                  </g>
                </g>
              </g>
            </g>
          </g>
          <g id="Grupo_61368" data-name="Grupo 61368" transform="translate(33.761 48.377)">
            <g id="Grupo_61367" data-name="Grupo 61367">
              <g id="Grupo_61366" data-name="Grupo 61366">
                <g id="Grupo_61365" data-name="Grupo 61365">
                  <path id="Trazado_114396" data-name="Trazado 114396" d="M1592.547,233.292a39.064,39.064,0,0,0-4.269,2.877c-.634.461-1.28.925-1.963,1.372-3.372,2.213-6.963,4.039-10.454,6.013a5.471,5.471,0,0,1-1.8.748,4.8,4.8,0,0,1-3.44-1.33c-3.84-2.9-27.6-27.186-13.894-30.347.151-.033.3-.061.451-.085,6.923-1.071,14.728,14.258,19.084,19.177a4.5,4.5,0,0,0,1.879,1.476,3.86,3.86,0,0,0,2.043-.067c.53-.127,3.694-1.351,7.235-2.725,5.054-1.968,10.875-4.249,10.88-4.109C1598.492,230.466,1595.457,231.706,1592.547,233.292Z" transform="translate(-1552.51 -212.487)" fill="#7cdafb"/>
                </g>
              </g>
            </g>
          </g>
          <g id="Grupo_61371" data-name="Grupo 61371" transform="translate(27.128 79.499)">
            <g id="Grupo_61370" data-name="Grupo 61370">
              <g id="Grupo_61369" data-name="Grupo 61369">
                <path id="Trazado_114397" data-name="Trazado 114397" d="M1564.344,246.78l2.371,9.037,18.9,21.045a8.494,8.494,0,0,1,2.715,7.108s-2.408,23.449-3.429,33.159c-.257,2.437-2.13,3.312-4.613,3.778-3.3.619-6.669,1.619-7.7-1.627-.54-1.693-.477-5.175-.408-6.945.218-5.658,1.009-11.316,1.227-16.974.32-8.328-2.376-10.476-8.387-15.368-3.573-2.908-7.073-6.454-10.979-8.933a16.625,16.625,0,0,1-7.746-12.783l-.914-12.333Z" transform="translate(-1545.38 -245.945)" fill="#2e7dfb"/>
              </g>
            </g>
          </g>
          <g id="Grupo_61374" data-name="Grupo 61374" transform="translate(10.558 48.248)">
            <g id="Grupo_61373" data-name="Grupo 61373">
              <g id="Grupo_61372" data-name="Grupo 61372">
                <path id="Trazado_114398" data-name="Trazado 114398" d="M1561.761,218.928a8.762,8.762,0,0,0-2.316-4.886c-2.331-2.1-6.13-1.872-9.36-1.291a76.994,76.994,0,0,0-16.39,4.87c-2.237.949-4.571,2.142-5.59,4.179-1.433,2.869.265,6.156,1.908,8.932,3.918,6.618,5.066,11.547,6.562,18.769,1.075,5.189,21.162-.007,24.7-1.041a3.783,3.783,0,0,0,1.406-.637c1.691-1.414.1-10.99.239-13.195A56.925,56.925,0,0,0,1561.761,218.928Z" transform="translate(-1527.566 -212.348)" fill="#7cdafb"/>
              </g>
            </g>
          </g>
          <g id="Grupo_61377" data-name="Grupo 61377" transform="translate(68.668 62.176)">
            <g id="Grupo_61376" data-name="Grupo 61376">
              <g id="Grupo_61375" data-name="Grupo 61375">
                <path id="Trazado_114399" data-name="Trazado 114399" d="M1595.167,234.327a39.064,39.064,0,0,0-4.269,2.877l-.861-5.768c5.054-1.968,10.875-4.249,10.88-4.109C1601.112,231.5,1598.077,232.741,1595.167,234.327Z" transform="translate(-1590.037 -227.321)" fill="#f8c208"/>
              </g>
            </g>
          </g>
        </g>
        <g id="Grupo_61381" data-name="Grupo 61381" transform="translate(0 222.161)">
          <g id="Grupo_61380" data-name="Grupo 61380">
            <g id="Grupo_61379" data-name="Grupo 61379">
              <rect id="Rectángulo_7072" data-name="Rectángulo 7072" width="137.45" height="0.451" fill="#26a4fb"/>
            </g>
          </g>
        </g>
      </g>
      <g id="Grupo_61563" data-name="Grupo 61563" transform="translate(112.781 69.5)">
        <g id="Grupo_61394" data-name="Grupo 61394" transform="translate(27.557 95.855)">
          <g id="Grupo_61393" data-name="Grupo 61393">
            <g id="Grupo_61392" data-name="Grupo 61392">
              <g id="Grupo_61391" data-name="Grupo 61391">
                <g id="Grupo_61390" data-name="Grupo 61390">
                  <g id="Grupo_61389" data-name="Grupo 61389">
                    <g id="Grupo_61388" data-name="Grupo 61388">
                      <g id="Grupo_61387" data-name="Grupo 61387">
                        <g id="Grupo_61386" data-name="Grupo 61386">
                          <g id="Grupo_61385" data-name="Grupo 61385">
                            <g id="Grupo_61384" data-name="Grupo 61384">
                              <g id="Grupo_61383" data-name="Grupo 61383">
                                <path id="Trazado_114400" data-name="Trazado 114400" d="M1683.519,340.441l-.744,6.13-1.747,14.354-3.647,30.014-.127,1.124c.008.351.011.727.011,1.119,0,.159,0,.323,0,.485v.135c0,.515-.011,1.022-.02,1.472v.041h-12.882a.184.184,0,0,1,0-.041,3.413,3.413,0,0,1,.175-.922,4.018,4.018,0,0,1,.234-.55c.027-.046.049-.088.078-.135a3.323,3.323,0,0,1,.348-.485,3.785,3.785,0,0,1,.572-.545c.779-.587,1.746-1.324,2.574-1.957,1.017-.776,1.825-1.4,1.831-1.415l-.2-29.323-.105-15.464-.043-6.232Z" transform="translate(-1664.366 -338.244)" fill="#fdc401"/>
                              </g>
                            </g>
                          </g>
                        </g>
                      </g>
                    </g>
                  </g>
                </g>
              </g>
            </g>
          </g>
        </g>
        <g id="Grupo_61406" data-name="Grupo 61406" transform="translate(4.941 95.855)">
          <g id="Grupo_61405" data-name="Grupo 61405">
            <g id="Grupo_61404" data-name="Grupo 61404">
              <g id="Grupo_61403" data-name="Grupo 61403">
                <g id="Grupo_61402" data-name="Grupo 61402">
                  <g id="Grupo_61401" data-name="Grupo 61401">
                    <g id="Grupo_61400" data-name="Grupo 61400">
                      <g id="Grupo_61399" data-name="Grupo 61399">
                        <g id="Grupo_61398" data-name="Grupo 61398">
                          <g id="Grupo_61397" data-name="Grupo 61397">
                            <g id="Grupo_61396" data-name="Grupo 61396">
                              <g id="Grupo_61395" data-name="Grupo 61395">
                                <path id="Trazado_114401" data-name="Trazado 114401" d="M1665.44,340.441l-.83,3.426-3.742,15.413-7.644,31.509-.281,1.272v.046c.008.338.011.7.011,1.073,0,.162,0,.323,0,.485v.135c0,.367-.006.726-.011,1.065,0,.06,0,.115,0,.172,0,.078,0,.156,0,.234v.041h-12.886a.192.192,0,0,1,0-.041,3.138,3.138,0,0,1,.1-.633,3.275,3.275,0,0,1,.315-.838c.024-.043.048-.088.075-.135a3.614,3.614,0,0,1,.919-1.03c.75-.566,1.785-1.272,2.717-1.892,1.21-.8,2.251-1.461,2.257-1.48l2.407-31.054,1.058-13.673.488-6.294Z" transform="translate(-1640.052 -338.244)" fill="#fdc401"/>
                              </g>
                            </g>
                          </g>
                        </g>
                      </g>
                    </g>
                  </g>
                </g>
              </g>
            </g>
          </g>
        </g>
        <g id="Grupo_61409" data-name="Grupo 61409" transform="translate(4.941 150.793)">
          <g id="Grupo_61408" data-name="Grupo 61408">
            <g id="Grupo_61407" data-name="Grupo 61407">
              <path id="Trazado_114402" data-name="Trazado 114402" d="M1652.955,397.3c0,.162,0,.324,0,.486v.134c0,.366-.006.726-.011,1.063,0,.06,0,.116,0,.174,0,.076,0,.156,0,.233v.041h-12.887a.189.189,0,0,1,0-.041,3.239,3.239,0,0,1,.1-.633,3.387,3.387,0,0,1,.315-.838c.025-.044.05-.09.077-.134a3.328,3.328,0,0,1,.343-.486Z" transform="translate(-1640.052 -397.304)" fill="#2300b1"/>
            </g>
          </g>
        </g>
        <g id="Grupo_61412" data-name="Grupo 61412" transform="translate(27.557 150.793)">
          <g id="Grupo_61411" data-name="Grupo 61411">
            <g id="Grupo_61410" data-name="Grupo 61410">
              <path id="Trazado_114403" data-name="Trazado 114403" d="M1677.267,397.79v.134c0,.514-.01,1.019-.019,1.471v.041h-12.883a.184.184,0,0,1,0-.041,3.426,3.426,0,0,1,.176-.921,3.662,3.662,0,0,1,.236-.55,1.27,1.27,0,0,1,.076-.134,3.289,3.289,0,0,1,.349-.486h12.059C1677.267,397.463,1677.267,397.628,1677.267,397.79Z" transform="translate(-1664.365 -397.304)" fill="#2300b1"/>
            </g>
          </g>
        </g>
        <g id="Grupo_61415" data-name="Grupo 61415" transform="translate(13.732 99.683)">
          <g id="Grupo_61414" data-name="Grupo 61414">
            <g id="Grupo_61413" data-name="Grupo 61413">
              <path id="Trazado_114404" data-name="Trazado 114404" d="M1665.27,344.154l-3.742,15.413L1649.5,358.5l1.058-13.673c2.281-1.318,4.349-2.466,4.349-2.466S1659.6,343.184,1665.27,344.154Z" transform="translate(-1649.503 -342.359)" fill="#150077"/>
            </g>
          </g>
        </g>
        <g id="Grupo_61418" data-name="Grupo 61418" transform="translate(33.067 102.088)">
          <g id="Grupo_61417" data-name="Grupo 61417">
            <g id="Grupo_61416" data-name="Grupo 61416">
              <path id="Trazado_114405" data-name="Trazado 114405" d="M1683.188,347.039l-1.747,14.354-11.047-.984-.105-15.464C1675.118,345.761,1680.091,346.583,1683.188,347.039Z" transform="translate(-1670.289 -344.944)" fill="#150077"/>
            </g>
          </g>
        </g>
        <g id="Grupo_61435" data-name="Grupo 61435" transform="translate(33.534 2.966)">
          <g id="Grupo_61431" data-name="Grupo 61431" transform="translate(0 26.326)">
            <g id="Grupo_61430" data-name="Grupo 61430">
              <g id="Grupo_61429" data-name="Grupo 61429">
                <g id="Grupo_61428" data-name="Grupo 61428">
                  <g id="Grupo_61427" data-name="Grupo 61427">
                    <g id="Grupo_61426" data-name="Grupo 61426">
                      <g id="Grupo_61425" data-name="Grupo 61425">
                        <g id="Grupo_61424" data-name="Grupo 61424">
                          <g id="Grupo_61423" data-name="Grupo 61423">
                            <g id="Grupo_61422" data-name="Grupo 61422">
                              <g id="Grupo_61421" data-name="Grupo 61421">
                                <g id="Grupo_61420" data-name="Grupo 61420">
                                  <g id="Grupo_61419" data-name="Grupo 61419">
                                    <path id="Trazado_114406" data-name="Trazado 114406" d="M1689.972,278.98a33.983,33.983,0,0,1-8.827,6.416,9.376,9.376,0,0,1-3.949,1.2c-2.752.046-9.065-6.52-5.169-8.489,4.338-2.192,14.012-7.85,18.35-10.041,2.125-1.074,1.92-2.22,4.368-.5,2.883,2.028-1.578,7.842-2.975,9.467Q1690.9,278.045,1689.972,278.98Z" transform="translate(-1670.791 -266.686)" fill="#a1dcff"/>
                                  </g>
                                </g>
                              </g>
                            </g>
                          </g>
                        </g>
                      </g>
                    </g>
                  </g>
                </g>
              </g>
            </g>
          </g>
          <g id="Grupo_61434" data-name="Grupo 61434" transform="translate(19.568)">
            <g id="Grupo_61433" data-name="Grupo 61433">
              <g id="Grupo_61432" data-name="Grupo 61432">
                <path id="Trazado_114407" data-name="Trazado 114407" d="M1696.658,247.972c-.027,2.044.551,4.518.61,6.442.06,1.877.412,4.884.535,6.7.126,1.852.016,6.563-1.176,8.657a13.629,13.629,0,0,1-4.789-3.5,51.623,51.623,0,0,1,.652-7.655c.276-2.125.594-4.243.913-6.363.084-.552.165-1.105.25-1.656.619-4.115.88-8.238,2.16-12.215a7.139,7.139,0,0,1,1.5,6.46,19.211,19.211,0,0,0-.588,2.12A7.952,7.952,0,0,0,1696.658,247.972Z" transform="translate(-1691.828 -238.384)" fill="#fdc401"/>
              </g>
            </g>
          </g>
        </g>
        <g id="Grupo_61447" data-name="Grupo 61447" transform="translate(30.755 33.861)">
          <g id="Grupo_61446" data-name="Grupo 61446">
            <g id="Grupo_61445" data-name="Grupo 61445">
              <g id="Grupo_61444" data-name="Grupo 61444">
                <g id="Grupo_61443" data-name="Grupo 61443">
                  <g id="Grupo_61442" data-name="Grupo 61442">
                    <g id="Grupo_61441" data-name="Grupo 61441">
                      <g id="Grupo_61440" data-name="Grupo 61440">
                        <g id="Grupo_61439" data-name="Grupo 61439">
                          <g id="Grupo_61438" data-name="Grupo 61438">
                            <g id="Grupo_61437" data-name="Grupo 61437">
                              <g id="Grupo_61436" data-name="Grupo 61436">
                                <path id="Trazado_114408" data-name="Trazado 114408" d="M1667.8,278.55l2.758-6.952,2.382.285,1.343.162-2.437,8-.064.08Z" transform="translate(-1667.804 -271.597)" fill="#fdc401"/>
                              </g>
                            </g>
                          </g>
                        </g>
                      </g>
                    </g>
                  </g>
                </g>
              </g>
            </g>
          </g>
        </g>
        <g id="Grupo_61450" data-name="Grupo 61450" transform="translate(0 152.839)">
          <g id="Grupo_61449" data-name="Grupo 61449">
            <g id="Grupo_61448" data-name="Grupo 61448">
              <rect id="Rectángulo_7073" data-name="Rectángulo 7073" width="45.287" height="0.273" fill="#26a4fb"/>
            </g>
          </g>
        </g>
        <g id="Grupo_61455" data-name="Grupo 61455" transform="translate(20.658 35.364)">
          <g id="Grupo_61454" data-name="Grupo 61454">
            <g id="Grupo_61453" data-name="Grupo 61453">
              <g id="Grupo_61452" data-name="Grupo 61452">
                <g id="Grupo_61451" data-name="Grupo 61451">
                  <path id="Trazado_114409" data-name="Trazado 114409" d="M1656.956,286.811a22.7,22.7,0,0,0,2.224,10.093c2.684,5.1,10.679,3.111,15.439,3.764a2.415,2.415,0,0,0,2.714-1.533c1.291-4.295,3.738-14.889,3.53-21.6-.047-1.485-.563,3.512-1.331,2.162-3.189-5.605-10.144-1.62-14.806-3.785-3.038-1.411-5.686-5.043-6.6-.448A54.168,54.168,0,0,0,1656.956,286.811Z" transform="translate(-1656.949 -273.213)" fill="#a1dcff"/>
                </g>
              </g>
            </g>
          </g>
        </g>
        <g id="Grupo_61467" data-name="Grupo 61467" transform="translate(36.53 32.669)">
          <g id="Grupo_61466" data-name="Grupo 61466">
            <g id="Grupo_61465" data-name="Grupo 61465">
              <g id="Grupo_61464" data-name="Grupo 61464">
                <g id="Grupo_61463" data-name="Grupo 61463">
                  <g id="Grupo_61462" data-name="Grupo 61462">
                    <g id="Grupo_61461" data-name="Grupo 61461">
                      <g id="Grupo_61460" data-name="Grupo 61460">
                        <g id="Grupo_61459" data-name="Grupo 61459">
                          <g id="Grupo_61458" data-name="Grupo 61458">
                            <g id="Grupo_61457" data-name="Grupo 61457">
                              <g id="Grupo_61456" data-name="Grupo 61456">
                                <path id="Rectángulo_7074" data-name="Rectángulo 7074" d="M2.122,0h0a0,0,0,0,1,0,0V3.523a0,0,0,0,1,0,0H0a0,0,0,0,1,0,0v-1.4A2.122,2.122,0,0,1,2.122,0Z" transform="matrix(-0.93, -0.368, 0.368, -0.93, 1.973, 4.057)" fill="#150077"/>
                              </g>
                            </g>
                          </g>
                        </g>
                      </g>
                    </g>
                  </g>
                </g>
              </g>
            </g>
          </g>
        </g>
        <g id="Grupo_61479" data-name="Grupo 61479" transform="translate(33.085 33.186)">
          <g id="Grupo_61478" data-name="Grupo 61478">
            <g id="Grupo_61477" data-name="Grupo 61477">
              <g id="Grupo_61476" data-name="Grupo 61476">
                <g id="Grupo_61475" data-name="Grupo 61475">
                  <g id="Grupo_61474" data-name="Grupo 61474">
                    <g id="Grupo_61473" data-name="Grupo 61473">
                      <g id="Grupo_61472" data-name="Grupo 61472">
                        <g id="Grupo_61471" data-name="Grupo 61471">
                          <g id="Grupo_61470" data-name="Grupo 61470">
                            <g id="Grupo_61469" data-name="Grupo 61469">
                              <g id="Grupo_61468" data-name="Grupo 61468">
                                <path id="Trazado_114410" data-name="Trazado 114410" d="M1674.318,271.481l-.19.479a3.131,3.131,0,0,1-.521.863,3.477,3.477,0,0,1-3.3,1.125l1.221-3.077,2.135.351Z" transform="translate(-1670.308 -270.871)" fill="#150077"/>
                              </g>
                            </g>
                          </g>
                        </g>
                      </g>
                    </g>
                  </g>
                </g>
              </g>
            </g>
          </g>
        </g>
        <g id="Grupo_61491" data-name="Grupo 61491" transform="translate(31.274 28.08)">
          <g id="Grupo_61490" data-name="Grupo 61490">
            <g id="Grupo_61489" data-name="Grupo 61489">
              <g id="Grupo_61488" data-name="Grupo 61488">
                <g id="Grupo_61487" data-name="Grupo 61487">
                  <g id="Grupo_61486" data-name="Grupo 61486">
                    <g id="Grupo_61485" data-name="Grupo 61485">
                      <g id="Grupo_61484" data-name="Grupo 61484">
                        <g id="Grupo_61483" data-name="Grupo 61483">
                          <g id="Grupo_61482" data-name="Grupo 61482">
                            <g id="Grupo_61481" data-name="Grupo 61481">
                              <g id="Grupo_61480" data-name="Grupo 61480">
                                <path id="Trazado_114411" data-name="Trazado 114411" d="M1669.559,267.595c-.208.459-.391.938-.6,1.379a5.219,5.219,0,0,0-.583,1.695,2.693,2.693,0,0,0,2.122,2.815,4.952,4.952,0,0,0,4.7-1.781,8.128,8.128,0,0,0,.638-.975l.009-.012a3.7,3.7,0,0,0-1.1-4.646,3.613,3.613,0,0,0-3.737-.3A3.68,3.68,0,0,0,1669.559,267.595Z" transform="translate(-1668.362 -265.383)" fill="#fdc401"/>
                              </g>
                            </g>
                          </g>
                        </g>
                      </g>
                    </g>
                  </g>
                </g>
              </g>
            </g>
          </g>
        </g>
        <g id="Grupo_61503" data-name="Grupo 61503" transform="translate(31.79 26.666)">
          <g id="Grupo_61502" data-name="Grupo 61502">
            <g id="Grupo_61501" data-name="Grupo 61501">
              <g id="Grupo_61500" data-name="Grupo 61500">
                <g id="Grupo_61499" data-name="Grupo 61499">
                  <g id="Grupo_61498" data-name="Grupo 61498">
                    <g id="Grupo_61497" data-name="Grupo 61497">
                      <g id="Grupo_61496" data-name="Grupo 61496">
                        <g id="Grupo_61495" data-name="Grupo 61495">
                          <g id="Grupo_61494" data-name="Grupo 61494">
                            <g id="Grupo_61493" data-name="Grupo 61493">
                              <g id="Grupo_61492" data-name="Grupo 61492">
                                <path id="Trazado_114412" data-name="Trazado 114412" d="M1668.949,264.776c.64-2.182,10.477-.425,8.357,4.919l-.657,1.656-.006-.007a6.684,6.684,0,0,0-.976-1.029c-1.933,1.119-5.648-2.692-6.48-4.377a2.148,2.148,0,0,1-.272-.932A.81.81,0,0,1,1668.949,264.776Z" transform="translate(-1668.916 -263.862)" fill="#150077"/>
                              </g>
                            </g>
                          </g>
                        </g>
                      </g>
                    </g>
                  </g>
                </g>
              </g>
            </g>
          </g>
        </g>
        <g id="Grupo_61515" data-name="Grupo 61515" transform="translate(36.41 32.924)">
          <g id="Grupo_61514" data-name="Grupo 61514">
            <g id="Grupo_61513" data-name="Grupo 61513">
              <g id="Grupo_61512" data-name="Grupo 61512">
                <g id="Grupo_61511" data-name="Grupo 61511">
                  <g id="Grupo_61510" data-name="Grupo 61510">
                    <g id="Grupo_61509" data-name="Grupo 61509">
                      <g id="Grupo_61508" data-name="Grupo 61508">
                        <g id="Grupo_61507" data-name="Grupo 61507">
                          <g id="Grupo_61506" data-name="Grupo 61506">
                            <g id="Grupo_61505" data-name="Grupo 61505">
                              <g id="Grupo_61504" data-name="Grupo 61504">
                                <path id="Trazado_114413" data-name="Trazado 114413" d="M1676.61,272.466a1.421,1.421,0,1,1-.823-1.77A1.381,1.381,0,0,1,1676.61,272.466Z" transform="translate(-1673.883 -270.59)" fill="#150077"/>
                              </g>
                            </g>
                          </g>
                        </g>
                      </g>
                    </g>
                  </g>
                </g>
              </g>
            </g>
          </g>
        </g>
        <g id="Grupo_61527" data-name="Grupo 61527" transform="translate(36.213 32.441)">
          <g id="Grupo_61526" data-name="Grupo 61526">
            <g id="Grupo_61525" data-name="Grupo 61525">
              <g id="Grupo_61524" data-name="Grupo 61524">
                <g id="Grupo_61523" data-name="Grupo 61523">
                  <g id="Grupo_61522" data-name="Grupo 61522">
                    <g id="Grupo_61521" data-name="Grupo 61521">
                      <g id="Grupo_61520" data-name="Grupo 61520">
                        <g id="Grupo_61519" data-name="Grupo 61519">
                          <g id="Grupo_61518" data-name="Grupo 61518">
                            <g id="Grupo_61517" data-name="Grupo 61517">
                              <g id="Grupo_61516" data-name="Grupo 61516">
                                <path id="Trazado_114414" data-name="Trazado 114414" d="M1676.4,271.947a1.421,1.421,0,1,1-.824-1.771A1.383,1.383,0,0,1,1676.4,271.947Z" transform="translate(-1673.671 -270.071)" fill="#fdc401"/>
                              </g>
                            </g>
                          </g>
                        </g>
                      </g>
                    </g>
                  </g>
                </g>
              </g>
            </g>
          </g>
        </g>
        <g id="Grupo_61532" data-name="Grupo 61532" transform="translate(32.618 28.167)">
          <g id="Grupo_61531" data-name="Grupo 61531">
            <g id="Grupo_61530" data-name="Grupo 61530">
              <g id="Grupo_61529" data-name="Grupo 61529">
                <g id="Grupo_61528" data-name="Grupo 61528">
                  <path id="Trazado_114415" data-name="Trazado 114415" d="M1670.707,268.157c-.4,1.9.135,4.387-.2,6.014-.905,4.333-1.283,9.17,1.13,12.88,1.616,2.485,4.912,4.187,7.6,2.94,2.5-1.159,3.445-4.4,2.85-7.1a33.024,33.024,0,0,0-2.381-6.205,13.454,13.454,0,0,1-1.357-6.676,4.6,4.6,0,0,0-1.265-3.666,3.993,3.993,0,0,0-2-.806,4.706,4.706,0,0,0-2.751.333A3.039,3.039,0,0,0,1670.707,268.157Z" transform="translate(-1669.806 -265.475)" fill="#150077"/>
                </g>
              </g>
            </g>
          </g>
        </g>
        <g id="Grupo_61535" data-name="Grupo 61535" transform="translate(12.675 59.135)">
          <g id="Grupo_61534" data-name="Grupo 61534">
            <g id="Grupo_61533" data-name="Grupo 61533">
              <path id="Trazado_114416" data-name="Trazado 114416" d="M1683.925,326.393l-2,28.97H1648.38c-.442-28.471,10.607-55.506,10.607-55.506l18.393-1.089,3.181,8.265,1.124,2.925a39.331,39.331,0,0,1,2.24,16.435Z" transform="translate(-1648.367 -298.768)" fill="#2300b1"/>
            </g>
          </g>
        </g>
        <g id="Grupo_61552" data-name="Grupo 61552" transform="translate(6.57)">
          <g id="Grupo_61548" data-name="Grupo 61548" transform="translate(0.186 25.167)">
            <g id="Grupo_61547" data-name="Grupo 61547">
              <g id="Grupo_61546" data-name="Grupo 61546">
                <g id="Grupo_61545" data-name="Grupo 61545">
                  <g id="Grupo_61544" data-name="Grupo 61544">
                    <g id="Grupo_61543" data-name="Grupo 61543">
                      <g id="Grupo_61542" data-name="Grupo 61542">
                        <g id="Grupo_61541" data-name="Grupo 61541">
                          <g id="Grupo_61540" data-name="Grupo 61540">
                            <g id="Grupo_61539" data-name="Grupo 61539">
                              <g id="Grupo_61538" data-name="Grupo 61538">
                                <g id="Grupo_61537" data-name="Grupo 61537">
                                  <g id="Grupo_61536" data-name="Grupo 61536">
                                    <path id="Trazado_114417" data-name="Trazado 114417" d="M1646.5,274.745a37.2,37.2,0,0,0,8.373,7.988,11.23,11.23,0,0,0,4.06,1.959c2.98.6,11.072-4.469,7.214-7.16-4.3-3-13.733-10.422-18.03-13.419-2.105-1.468-1.665-2.534-4.649-1.365-3.512,1.378.235,7.9,1.445,9.753Q1645.667,273.653,1646.5,274.745Z" transform="translate(-1642.004 -262.25)" fill="#a1dcff"/>
                                  </g>
                                </g>
                              </g>
                            </g>
                          </g>
                        </g>
                      </g>
                    </g>
                  </g>
                </g>
              </g>
            </g>
          </g>
          <g id="Grupo_61551" data-name="Grupo 61551">
            <g id="Grupo_61550" data-name="Grupo 61550">
              <g id="Grupo_61549" data-name="Grupo 61549">
                <path id="Trazado_114418" data-name="Trazado 114418" d="M1645.7,243.642a2.967,2.967,0,0,1-.009,1.285c-.4,1.643-.887,3.273-1.266,4.914-.419,1.8-1.369,4.638-1.844,6.367-.486,1.766-1.255,6.341-.356,8.606a15.243,15.243,0,0,0,5.859-2.412,45.346,45.346,0,0,0,.735-7.531c.1-2.109.156-4.22.209-6.336.012-.55.029-1.1.041-1.651.045-1.744.445-3.556.141-5.314-.073-.421-.166-.846-.28-1.273a9.813,9.813,0,0,0-3.095-5.091c-.3-.281-1.227,4.471-1.185,4.947C1644.755,241.373,1645.472,242.493,1645.7,243.642Z" transform="translate(-1641.804 -235.195)" fill="#fdc401"/>
              </g>
            </g>
          </g>
        </g>
        <g id="Grupo_61557" data-name="Grupo 61557" transform="translate(25.141 67.799)" opacity="0.53">
          <g id="Grupo_61556" data-name="Grupo 61556">
            <g id="Grupo_61555" data-name="Grupo 61555">
              <g id="Grupo_61554" data-name="Grupo 61554">
                <g id="Grupo_61553" data-name="Grupo 61553">
                  <path id="Rectángulo_7075" data-name="Rectángulo 7075" d="M0,0H9.33a0,0,0,0,1,0,0V6.565A4.665,4.665,0,0,1,4.665,11.23h0A4.665,4.665,0,0,1,0,6.565V0A0,0,0,0,1,0,0Z" fill="#2e7dfb"/>
                </g>
              </g>
            </g>
          </g>
        </g>
        <g id="Grupo_61562" data-name="Grupo 61562" transform="translate(41.411 67.3)" opacity="0.53">
          <g id="Grupo_61561" data-name="Grupo 61561">
            <g id="Grupo_61560" data-name="Grupo 61560">
              <g id="Grupo_61559" data-name="Grupo 61559">
                <g id="Grupo_61558" data-name="Grupo 61558">
                  <path id="Trazado_114419" data-name="Trazado 114419" d="M1685.609,317.2c-.687.162-1.092.3-1.084.4-2.2-.259-3.984-1.579-4.254-3.3l-1.013-6.478,3.111-.273c.01.03.132.062.348.1l1.124,2.925A39.059,39.059,0,0,1,1685.609,317.2Z" transform="translate(-1679.259 -307.546)" fill="#2e7dfb"/>
                </g>
              </g>
            </g>
          </g>
        </g>
      </g>
    </g>
  </g>
</svg>
