<svg xmlns="http://www.w3.org/2000/svg" width="99" height="99" viewBox="0 0 99 99">
  <g id="Grupo_57944" data-name="Grupo 57944" transform="translate(-305 -4991)">
    <rect id="Rectángulo_6806" data-name="Rectángulo 6806" width="99" height="99" transform="translate(305 4991)" fill="none"/>
    <g id="maquina-de-coser" transform="translate(310.007 4945.196)">
      <path id="Trazado_111943" data-name="Trazado 111943" d="M26,413h79.948v5.214H26Z" transform="translate(-21.481 -290.409)" fill="#497285"/>
      <path id="Trazado_111944" data-name="Trazado 111944" d="M456,413h5.214v5.214H456Z" transform="translate(-376.747 -290.409)" fill="#426778"/>
      <path id="Trazado_111945" data-name="Trazado 111945" d="M91.272,383H10.107a2.607,2.607,0,0,0,0,5.214H91.272a2.607,2.607,0,0,0,0-5.214Z" transform="translate(-6.196 -265.623)" fill="#f1f1f1"/>
      <path id="Trazado_111946" data-name="Trazado 111946" d="M464.714,383H459.5a2.607,2.607,0,1,1,0,5.214h5.214a2.607,2.607,0,0,0,0-5.214Z" transform="translate(-379.639 -265.623)" fill="#e2e2e2"/>
      <g id="Grupo_57941" data-name="Grupo 57941" transform="translate(8.951 62.804)">
        <path id="Trazado_111947" data-name="Trazado 111947" d="M122.584,81.514v42.06H95.819V99.241a3.476,3.476,0,0,0-3.476-3.476H78.4a3.476,3.476,0,0,0-3.323,2.455l-2.656,8.646a3.476,3.476,0,0,1-3.323,2.455H54.976a3.476,3.476,0,0,1-3.476-3.476v-28.5A8.342,8.342,0,0,1,59.842,69h50.228A12.514,12.514,0,0,1,122.584,81.514Z" transform="translate(-51.5 -69)" fill="#ffde5c"/>
      </g>
      <g id="Grupo_57942" data-name="Grupo 57942" transform="translate(21.336 62.804)">
        <path id="Trazado_111948" data-name="Trazado 111948" d="M128.74,225.455l-2.656,8.646a3.476,3.476,0,0,1-3.323,2.455h5.214A3.476,3.476,0,0,0,131.3,234.1l2.656-8.646A3.476,3.476,0,0,1,137.276,223h-5.214A3.476,3.476,0,0,0,128.74,225.455Z" transform="translate(-122.761 -196.235)" fill="#ffc736"/>
        <path id="Trazado_111949" data-name="Trazado 111949" d="M363.714,69H358.5a12.514,12.514,0,0,1,12.514,12.514v42.06h5.214V81.514A12.513,12.513,0,0,0,363.714,69Z" transform="translate(-317.528 -69)" fill="#ffc736"/>
      </g>
      <path id="Trazado_111950" data-name="Trazado 111950" d="M465.023,184.621H460.5V169.5h4.523a1.386,1.386,0,0,1,1.386,1.386v12.349A1.386,1.386,0,0,1,465.023,184.621Z" transform="translate(-380.465 -89.23)" fill="#f1f1f1"/>
      <circle id="Elipse_6204" data-name="Elipse 6204" cx="6.083" cy="6.083" r="6.083" transform="translate(60.222 72.449)" fill="#ff8724"/>
      <path id="Trazado_111951" data-name="Trazado 111951" d="M369.107,124.5a6.056,6.056,0,0,0-2.607.586,6.084,6.084,0,0,1,0,10.994,6.083,6.083,0,1,0,2.607-11.58Z" transform="translate(-302.802 -52.051)" fill="#f86f1b"/>
      <circle id="Elipse_6205" data-name="Elipse 6205" cx="3.128" cy="3.128" r="3.128" transform="translate(63.176 94.001)" fill="#f1f1f1"/>
      <path id="Trazado_111952" data-name="Trazado 111952" d="M201.966,74.8H183.89a1.39,1.39,0,0,1-1.39-1.39V69.5h20.856v3.911A1.39,1.39,0,0,1,201.966,74.8Z" transform="translate(-150.781 -6.61)" fill="#f1f1f1"/>
      <path id="Trazado_111953" data-name="Trazado 111953" d="M265.89,69.5v3.911a1.39,1.39,0,0,1-1.39,1.39h5.214a1.39,1.39,0,0,0,1.39-1.39V69.5Z" transform="translate(-218.53 -6.61)" fill="#e2e2e2"/>
      <path id="Trazado_111954" data-name="Trazado 111954" d="M114.607,96.46A2.607,2.607,0,0,1,112,93.853V69h5.214V93.853A2.607,2.607,0,0,1,114.607,96.46Z" transform="translate(-92.534 -6.197)" fill="#f1f1f1"/>
      <g id="Grupo_57943" data-name="Grupo 57943" transform="translate(0 61.5)">
        <path id="Trazado_111955" data-name="Trazado 111955" d="M88.986,119.984a3.915,3.915,0,0,0-3.911-3.911H81.339V96.695h3.22a2.693,2.693,0,0,0,2.689-2.689V81.657a2.693,2.693,0,0,0-2.689-2.69h-3.22v-3.65A13.833,13.833,0,0,0,67.521,61.5H61.187a1.3,1.3,0,1,0,0,2.607h6.334a11.223,11.223,0,0,1,11.21,11.21v40.756H54.573V93.045a4.785,4.785,0,0,0-4.78-4.78H35.851a4.755,4.755,0,0,0-4.569,3.376l-2.656,8.646a2.161,2.161,0,0,1-2.077,1.535H12.427a2.175,2.175,0,0,1-2.173-2.173V95.739a1.3,1.3,0,1,0-2.607,0v3.911a4.785,4.785,0,0,0,4.78,4.78h2.415v6.083a1.3,1.3,0,1,0,2.607,0v-6.083h9.1a4.755,4.755,0,0,0,4.569-3.376l2.656-8.646a2.161,2.161,0,0,1,2.077-1.535H49.794a2.175,2.175,0,0,1,2.173,2.173v23.029H3.911a3.91,3.91,0,0,0-.7,7.758V127.8a1.3,1.3,0,0,0,1.3,1.3H55.626a1.3,1.3,0,0,0,0-2.607H5.822v-2.607H83.164V126.5H61.22a1.3,1.3,0,0,0,0,2.607H84.467a1.3,1.3,0,0,0,1.3-1.3v-3.974A3.916,3.916,0,0,0,88.986,119.984Zm-4.427-38.41a.083.083,0,0,1,.082.083V94.005a.083.083,0,0,1-.082.082h-3.22V81.574Zm.517,39.713H3.911a1.3,1.3,0,0,1,0-2.607H85.075a1.3,1.3,0,0,1,0,2.607Z" transform="translate(0 -61.5)"/>
        <path id="Trazado_111956" data-name="Trazado 111956" d="M45.3,91.394a1.3,1.3,0,0,0,1.3-1.3V71.146a7.047,7.047,0,0,1,7.039-7.039h.869v23.55a3.911,3.911,0,1,0,7.821,0V64.107h4.432V66.8a2.7,2.7,0,0,0,2.694,2.694H87.537A2.7,2.7,0,0,0,90.231,66.8V64.107h1.715a1.3,1.3,0,1,0,0-2.607h-38.3A9.657,9.657,0,0,0,44,71.146V90.09A1.3,1.3,0,0,0,45.3,91.394ZM87.624,66.8a.087.087,0,0,1-.087.087H69.462a.087.087,0,0,1-.087-.087V64.194H87.624ZM59.729,64.107v23.55a1.3,1.3,0,1,1-2.607,0V64.107Z" transform="translate(-36.353 -61.5)"/>
        <path id="Trazado_111957" data-name="Trazado 111957" d="M353.773,124.387a7.387,7.387,0,1,0-7.387,7.387A7.395,7.395,0,0,0,353.773,124.387Zm-7.387,4.78a4.78,4.78,0,1,1,4.78-4.78A4.785,4.785,0,0,1,346.387,129.166Z" transform="translate(-280.082 -107.354)"/>
        <path id="Trazado_111958" data-name="Trazado 111958" d="M356,245.432A4.432,4.432,0,1,0,360.432,241,4.437,4.437,0,0,0,356,245.432Zm6.257,0a1.825,1.825,0,1,1-1.825-1.825A1.827,1.827,0,0,1,362.257,245.432Z" transform="translate(-294.127 -209.803)"/>
      </g>
    </g>
  </g>
</svg>
