<svg xmlns="http://www.w3.org/2000/svg" width="99" height="99" viewBox="0 0 99 99">
  <g id="Grupo_57940" data-name="Grupo 57940" transform="translate(-305 -4991)">
    <rect id="Rectángulo_6806" data-name="Rectángulo 6806" width="99" height="99" transform="translate(305 4991)" fill="none"/>
    <g id="maquina-de-coser-overlock" transform="translate(298.397 4998)">
      <g id="Grupo_57916" data-name="Grupo 57916" transform="translate(67.109 16.179)">
        <path id="Trazado_111916" data-name="Trazado 111916" d="M328,104.1h-5.7v-6.14a.5.5,0,0,1,.5-.5H327.5a.5.5,0,0,1,.5.5Z" transform="translate(-322.295 -97.457)" fill="#aa7a63"/>
      </g>
      <g id="Grupo_57917" data-name="Grupo 57917" transform="translate(69.908 16.179)">
        <path id="Trazado_111917" data-name="Trazado 111917" d="M341.559,97.456h-2.406a.5.5,0,0,1,.5.5v6.14h2.406v-6.14A.5.5,0,0,0,341.559,97.456Z" transform="translate(-339.153 -97.456)" fill="#845c47"/>
      </g>
      <g id="Grupo_57918" data-name="Grupo 57918" transform="translate(84.044 16.179)">
        <path id="Trazado_111918" data-name="Trazado 111918" d="M430.008,104.1h-5.7v-6.14a.5.5,0,0,1,.5-.5h4.707a.5.5,0,0,1,.5.5Z" transform="translate(-424.305 -97.457)" fill="#aa7a63"/>
      </g>
      <g id="Grupo_57919" data-name="Grupo 57919" transform="translate(86.843 16.179)">
        <path id="Trazado_111919" data-name="Trazado 111919" d="M443.569,97.456h-2.406a.5.5,0,0,1,.5.5v6.14h2.406v-6.14A.5.5,0,0,0,443.569,97.456Z" transform="translate(-441.163 -97.456)" fill="#845c47"/>
      </g>
      <g id="Grupo_57920" data-name="Grupo 57920" transform="translate(43.793 16.179)">
        <path id="Trazado_111920" data-name="Trazado 111920" d="M187.55,104.1h-5.7v-6.14a.5.5,0,0,1,.5-.5h4.707a.5.5,0,0,1,.5.5Z" transform="translate(-181.847 -97.457)" fill="#aa7a63"/>
      </g>
      <g id="Grupo_57921" data-name="Grupo 57921" transform="translate(46.591 16.179)">
        <path id="Trazado_111921" data-name="Trazado 111921" d="M201.111,97.456h-2.406a.5.5,0,0,1,.5.5v6.14h2.406v-6.14A.5.5,0,0,0,201.111,97.456Z" transform="translate(-198.705 -97.456)" fill="#845c47"/>
      </g>
      <g id="Grupo_57922" data-name="Grupo 57922" transform="translate(26.79 16.179)">
        <path id="Trazado_111922" data-name="Trazado 111922" d="M85.133,104.1h-5.7v-6.14a.5.5,0,0,1,.5-.5h4.707a.5.5,0,0,1,.5.5Z" transform="translate(-79.43 -97.457)" fill="#aa7a63"/>
      </g>
      <g id="Grupo_57923" data-name="Grupo 57923" transform="translate(29.589 16.179)">
        <path id="Trazado_111923" data-name="Trazado 111923" d="M98.695,97.456H96.289a.5.5,0,0,1,.5.5v6.14h2.406v-6.14A.5.5,0,0,0,98.695,97.456Z" transform="translate(-96.289 -97.456)" fill="#845c47"/>
      </g>
      <g id="Grupo_57924" data-name="Grupo 57924" transform="translate(75.27 41.303)">
        <path id="Trazado_111924" data-name="Trazado 111924" d="M386.489,255.148l-15.039-.064V248.79l15.039.064a3.147,3.147,0,0,1,0,6.294Z" transform="translate(-371.45 -248.79)" fill="#efecef"/>
      </g>
      <g id="Grupo_57925" data-name="Grupo 57925" transform="translate(75.27 41.439)">
        <path id="Trazado_111925" data-name="Trazado 111925" d="M387.154,249.608a3.144,3.144,0,0,1-3.075,3.812l-12.628-.054v2.4l15.039.064a3.146,3.146,0,0,0,.665-6.222Z" transform="translate(-371.45 -249.608)" fill="#e2dfe2"/>
      </g>
      <g id="Grupo_57926" data-name="Grupo 57926" transform="translate(63.696 21.144)">
        <path id="Trazado_111926" data-name="Trazado 111926" d="M311.994,147.587h-7.983a2.273,2.273,0,0,1-2.273-2.273V129.637a2.273,2.273,0,0,1,2.273-2.273h7.983a2.273,2.273,0,0,1,2.273,2.273v15.676A2.273,2.273,0,0,1,311.994,147.587Z" transform="translate(-301.738 -127.364)" fill="#c8ea73"/>
      </g>
      <g id="Grupo_57927" data-name="Grupo 57927" transform="translate(63.696 21.144)">
        <path id="Trazado_111927" data-name="Trazado 111927" d="M311.992,127.364h-1.631V141.4a2.276,2.276,0,0,1-2.276,2.276h-6.346v1.631a2.276,2.276,0,0,0,2.276,2.276h7.977a2.276,2.276,0,0,0,2.276-2.276V129.64A2.276,2.276,0,0,0,311.992,127.364Z" transform="translate(-301.739 -127.364)" fill="#b7e445"/>
      </g>
      <g id="Grupo_57928" data-name="Grupo 57928" transform="translate(80.661 21.144)">
        <path id="Trazado_111928" data-name="Trazado 111928" d="M414.184,147.587H406.2a2.273,2.273,0,0,1-2.273-2.273V129.637a2.273,2.273,0,0,1,2.273-2.273h7.983a2.273,2.273,0,0,1,2.273,2.273v15.676A2.273,2.273,0,0,1,414.184,147.587Z" transform="translate(-403.928 -127.364)" fill="#ac80dd"/>
      </g>
      <g id="Grupo_57929" data-name="Grupo 57929" transform="translate(80.661 21.144)">
        <path id="Trazado_111929" data-name="Trazado 111929" d="M414.181,127.364H412.55V141.4a2.276,2.276,0,0,1-2.276,2.276h-6.346v1.631a2.276,2.276,0,0,0,2.276,2.276h7.977a2.276,2.276,0,0,0,2.276-2.276V129.64A2.276,2.276,0,0,0,414.181,127.364Z" transform="translate(-403.928 -127.364)" fill="#9d66d5"/>
      </g>
      <g id="Grupo_57930" data-name="Grupo 57930" transform="translate(23.445 21.144)">
        <path id="Trazado_111930" data-name="Trazado 111930" d="M69.536,147.587H61.553a2.273,2.273,0,0,1-2.273-2.273V129.637a2.273,2.273,0,0,1,2.273-2.273h7.983a2.273,2.273,0,0,1,2.273,2.273v15.676a2.273,2.273,0,0,1-2.273,2.273Z" transform="translate(-59.28 -127.364)" fill="#ecbe6b"/>
      </g>
      <g id="Grupo_57931" data-name="Grupo 57931" transform="translate(23.445 21.144)">
        <path id="Trazado_111931" data-name="Trazado 111931" d="M69.533,127.364H67.9V141.4a2.276,2.276,0,0,1-2.276,2.276H59.28v1.631a2.276,2.276,0,0,0,2.276,2.276h7.977a2.276,2.276,0,0,0,2.276-2.276V129.64A2.276,2.276,0,0,0,69.533,127.364Z" transform="translate(-59.28 -127.364)" fill="#eab14d"/>
      </g>
      <g id="Grupo_57932" data-name="Grupo 57932" transform="translate(40.409 21.144)">
        <path id="Trazado_111932" data-name="Trazado 111932" d="M171.725,147.587h-7.983a2.273,2.273,0,0,1-2.273-2.273V129.637a2.273,2.273,0,0,1,2.273-2.273h7.983A2.273,2.273,0,0,1,174,129.637v15.676A2.273,2.273,0,0,1,171.725,147.587Z" transform="translate(-161.469 -127.364)" fill="#cbe2ff"/>
      </g>
      <g id="Grupo_57933" data-name="Grupo 57933" transform="translate(40.41 21.144)">
        <path id="Trazado_111933" data-name="Trazado 111933" d="M171.723,127.364h-1.631V141.4a2.276,2.276,0,0,1-2.276,2.276H161.47v1.631a2.276,2.276,0,0,0,2.276,2.276h7.977A2.276,2.276,0,0,0,174,145.311V129.64A2.276,2.276,0,0,0,171.723,127.364Z" transform="translate(-161.47 -127.364)" fill="#9dc6fb"/>
      </g>
      <g id="Grupo_57934" data-name="Grupo 57934" transform="translate(29.641 35.296)">
        <path id="Trazado_111934" data-name="Trazado 111934" d="M96.607,214.268v14.984a1.662,1.662,0,0,0,1.662,1.662h17.848a.5.5,0,0,1,.5.5v12.733H96.607v15.178a1.662,1.662,0,0,0,1.662,1.662h45.3a1.662,1.662,0,0,0,1.662-1.662V224.971l-.932-1.161.932-1.29v-8.251a1.662,1.662,0,0,0-1.662-1.662h-45.3a1.662,1.662,0,0,0-1.662,1.662Z" transform="translate(-96.607 -212.606)" fill="#efecef"/>
      </g>
      <g id="Grupo_57936" data-name="Grupo 57936" transform="translate(29.641 35.296)">
        <g id="Grupo_57935" data-name="Grupo 57935">
          <path id="Trazado_111935" data-name="Trazado 111935" d="M143.565,212.6h-3.091v41.965a1.662,1.662,0,0,1-1.662,1.662h-42.2v3.091a1.662,1.662,0,0,0,1.662,1.662h45.3a1.662,1.662,0,0,0,1.662-1.662V214.266A1.662,1.662,0,0,0,143.565,212.6Z" transform="translate(-96.607 -212.604)" fill="#e2dfe2"/>
        </g>
      </g>
      <g id="Grupo_57937" data-name="Grupo 57937" transform="translate(16.364 61.468)">
        <path id="Trazado_111936" data-name="Trazado 111936" d="M47.28,378.054H17.3a.664.664,0,0,1-.664-.664v-6.473a.664.664,0,0,1,.664-.664H49.919v5.162A2.639,2.639,0,0,1,47.28,378.054Z" transform="translate(-16.633 -370.253)" fill="#efecef"/>
      </g>
      <g id="Grupo_57938" data-name="Grupo 57938" transform="translate(16.364 61.468)">
        <path id="Trazado_111937" data-name="Trazado 111937" d="M46.286,370.253v1.526a2.642,2.642,0,0,1-2.642,2.642H16.633v2.968a.665.665,0,0,0,.665.665H47.277a2.642,2.642,0,0,0,2.642-2.642v-5.159Z" transform="translate(-16.633 -370.253)" fill="#e2dfe2"/>
      </g>
      <g id="Grupo_57939" data-name="Grupo 57939" transform="translate(16.311 0)">
        <path id="Trazado_111938" data-name="Trazado 111938" d="M94.684,41.565a3.507,3.507,0,0,0,.946-2.4V32.387a1.247,1.247,0,0,0-2.493,0v6.781A1.031,1.031,0,0,1,92.108,40.2l-8.232-.033a1.03,1.03,0,0,1-.774-1V23.5a1.031,1.031,0,0,1,1.029-1.029h7.977A1.031,1.031,0,0,1,93.137,23.5v2.7a1.247,1.247,0,0,0,2.493,0V23.5a3.525,3.525,0,0,0-3.443-3.519V16.755a1.747,1.747,0,0,0-1.745-1.745H89.336V11.017a3.8,3.8,0,0,0,2.543-3.577c0-1.3-1.259-3.508-2.181-4.946h4.785a1.247,1.247,0,0,0,0-2.493H24.471a1.247,1.247,0,1,0,0,2.493h4.792c-.922,1.438-2.181,3.641-2.181,4.946a3.8,3.8,0,0,0,2.542,3.577v3.993H28.482a1.747,1.747,0,0,0-1.745,1.745v3.229A3.524,3.524,0,0,0,23.391,23.5V39.168a3.527,3.527,0,0,0,3.523,3.523h2.674v9.328A2.912,2.912,0,0,0,32.5,54.927h3.589v3.383a1.247,1.247,0,1,0,2.493,0V54.927H49.6V60.3H18.222a1.914,1.914,0,0,0-1.912,1.912V68.68a1.914,1.914,0,0,0,1.912,1.912H29.588v11.5A2.912,2.912,0,0,0,32.5,85H63a1.247,1.247,0,1,0,0-2.493H32.5a.416.416,0,0,1-.416-.416v-11.5H48.2A3.893,3.893,0,0,0,52.09,66.7V54.18a1.747,1.747,0,0,0-1.745-1.745H32.5a.416.416,0,0,1-.416-.416V37.034a.416.416,0,0,1,.416-.416h45.3a.416.416,0,0,1,.416.416V82.091a.416.416,0,0,1-.416.416h-9a1.247,1.247,0,0,0,0,2.493h9A2.912,2.912,0,0,0,80.7,82.091V48.938l10.8.046a4.391,4.391,0,0,0,3.182-7.419ZM49.6,66.7a1.4,1.4,0,0,1-1.4,1.4H18.8V62.791H49.6Zm2.339-46.725V16.754a1.747,1.747,0,0,0-1.745-1.745H49.084V11.017a3.8,3.8,0,0,0,2.543-3.577c0-1.3-1.259-3.508-2.181-4.946h8.867V34.125H55.378V23.5A3.525,3.525,0,0,0,51.936,19.978Zm-4.1-15.334a9.717,9.717,0,0,1,1.3,2.8,1.3,1.3,0,0,1-2.592,0,9.74,9.74,0,0,1,1.3-2.8Zm1.6,12.859v2.472h-3.21V17.5ZM60.807,2.493h8.709c-.922,1.438-2.181,3.641-2.181,4.946a3.8,3.8,0,0,0,2.542,3.577v3.993H68.8a1.747,1.747,0,0,0-1.745,1.745V19.98A3.524,3.524,0,0,0,63.643,23.5V34.126H60.806V2.493ZM72.759,19.974h-3.21V17.5h3.21ZM71.124,8.735a1.3,1.3,0,0,1-1.3-1.295,9.731,9.731,0,0,1,1.3-2.8,9.717,9.717,0,0,1,1.3,2.8A1.3,1.3,0,0,1,71.124,8.735ZM66.136,23.5a1.031,1.031,0,0,1,1.029-1.029h7.977A1.031,1.031,0,0,1,76.172,23.5V34.125H66.136Zm23.558-3.523h-3.21V17.5h3.21ZM88.089,8.735a1.3,1.3,0,0,1-1.3-1.295,9.73,9.73,0,0,1,1.3-2.8,9.717,9.717,0,0,1,1.3,2.8A1.3,1.3,0,0,1,88.089,8.735Zm-1.247,2.282v3.993H85.736a1.747,1.747,0,0,0-1.745,1.745v3.227A3.524,3.524,0,0,0,80.608,23.5V36.316a2.918,2.918,0,0,0-1.943-2.056V23.5a3.524,3.524,0,0,0-3.413-3.517V16.754a1.747,1.747,0,0,0-1.745-1.745H72.371V11.017a3.8,3.8,0,0,0,2.543-3.577c0-1.3-1.259-3.508-2.181-4.946H86.481C85.559,3.931,84.3,6.134,84.3,7.439a3.8,3.8,0,0,0,2.542,3.577ZM30.873,4.644a9.717,9.717,0,0,1,1.3,2.8,1.3,1.3,0,0,1-2.592,0A9.73,9.73,0,0,1,30.873,4.644Zm1.246,6.373a3.8,3.8,0,0,0,2.543-3.577c0-1.3-1.259-3.508-2.181-4.946H46.229c-.922,1.438-2.181,3.641-2.181,4.946a3.8,3.8,0,0,0,2.542,3.577v3.993H45.484a1.747,1.747,0,0,0-1.745,1.745v3.227A3.524,3.524,0,0,0,40.356,23.5v6.183a1.247,1.247,0,0,0,2.493,0V23.5a1.03,1.03,0,0,1,1.029-1.029h7.977A1.031,1.031,0,0,1,52.885,23.5V34.125H38.413V23.5a3.526,3.526,0,0,0-3.48-3.521V16.754a1.747,1.747,0,0,0-1.745-1.745H32.119V11.017ZM32.44,17.5v2.472H29.23V17.5ZM29.588,37.034V40.2H26.914a1.031,1.031,0,0,1-1.029-1.029V23.5a1.031,1.031,0,0,1,1.029-1.029h7.977A1.031,1.031,0,0,1,35.92,23.5V34.126H32.5A2.912,2.912,0,0,0,29.588,37.034Zm61.919,9.456L80.7,46.445v-3.8l10.8.047a1.9,1.9,0,0,1,.005,3.8Z" transform="translate(-16.311 0)"/>
        <path id="Trazado_111939" data-name="Trazado 111939" d="M177.089,246.378v4.889a1.247,1.247,0,1,0,2.493,0v-4.889a1.247,1.247,0,0,0-2.493,0Z" transform="translate(-150.397 -204.435)"/>
        <path id="Trazado_111940" data-name="Trazado 111940" d="M220.775,246.378v4.889a1.247,1.247,0,0,0,2.493,0v-4.889a1.247,1.247,0,0,0-2.493,0Z" transform="translate(-186.831 -204.435)"/>
        <path id="Trazado_111941" data-name="Trazado 111941" d="M264.66,246.378v4.889a1.247,1.247,0,1,0,2.493,0v-4.889a1.247,1.247,0,0,0-2.493,0Z" transform="translate(-223.43 -204.435)"/>
        <path id="Trazado_111942" data-name="Trazado 111942" d="M309.594,245.131a1.247,1.247,0,0,0-1.247,1.247v4.889a1.247,1.247,0,0,0,2.493,0v-4.889A1.247,1.247,0,0,0,309.594,245.131Z" transform="translate(-259.864 -204.435)"/>
      </g>
    </g>
  </g>
</svg>
