<svg xmlns="http://www.w3.org/2000/svg" width="99" height="99" viewBox="0 0 99 99">
  <g id="Grupo_57971" data-name="Grupo 57971" transform="translate(-305 -4991)">
    <rect id="Rectángulo_6806" data-name="Rectángulo 6806" width="99" height="99" transform="translate(305 4991)" fill="none"/>
    <g id="sewing-tools" transform="translate(312.999 4999)">
      <path id="Trazado_112057" data-name="Trazado 112057" d="M339.61,15.138h6.439l-1.577,75.689a1.61,1.61,0,0,1-1.609,1.576H342.8a1.61,1.61,0,0,1-1.609-1.576Zm18.1-.313-6.368,75.437A1.61,1.61,0,0,0,352.778,92l.066.007a1.61,1.61,0,0,0,1.766-1.4l9.5-75.107Z" transform="translate(-284.555 -12.421)" fill="#e08658"/>
      <path id="Trazado_112058" data-name="Trazado 112058" d="M339.61,15.138h2.956l-1.478,70.943Zm18.1-.313-6.3,74.673a1.6,1.6,0,0,0,.416-.89l9.292-73.424Z" transform="translate(-284.555 -12.421)" fill="#efa96b"/>
      <path id="Trazado_112059" data-name="Trazado 112059" d="M334.929,13.388A5.887,5.887,0,1,1,329.043,7.5,5.887,5.887,0,0,1,334.929,13.388Zm12.355-5.854a5.887,5.887,0,1,0,5.237,6.471A5.887,5.887,0,0,0,347.284,7.534Z" transform="translate(-270.769 -6.285)" fill="#e08658"/>
      <path id="Trazado_112060" data-name="Trazado 112060" d="M343.02,19.947a2.739,2.739,0,1,1-2.739-2.739A2.739,2.739,0,0,1,343.02,19.947Zm14.57-2.739a2.739,2.739,0,1,0,2.739,2.739A2.739,2.739,0,0,0,357.59,17.208Z" transform="translate(-282.822 -14.418)" fill="#efa96b"/>
      <path id="Trazado_112061" data-name="Trazado 112061" d="M162.549,191.935h15.736a9.442,9.442,0,0,0-9.442,9.442V242.29H153.107V201.377A9.441,9.441,0,0,1,162.549,191.935Z" transform="translate(-128.286 -160.82)" fill="#bd565a"/>
      <path id="Trazado_112062" data-name="Trazado 112062" d="M243.352,191.935a9.442,9.442,0,0,0-9.442,9.442V242.29h-3.147V201.377a9.442,9.442,0,0,1,9.442-9.442Z" transform="translate(-193.353 -160.82)" fill="#a74d4a"/>
      <path id="Trazado_112063" data-name="Trazado 112063" d="M100.894,211.349V238.1a7.868,7.868,0,0,1-7.868,7.868h0a7.868,7.868,0,0,1-7.868-7.868V211.349h15.736Z" transform="translate(-71.352 -177.087)" fill="#909b91"/>
      <path id="Trazado_112064" data-name="Trazado 112064" d="M133.692,211.349h7.868V238.1a7.868,7.868,0,0,1-7.868,7.868h0Z" transform="translate(-112.018 -177.087)" fill="#afc1a9"/>
      <path id="Trazado_112065" data-name="Trazado 112065" d="M40.547,31.1H35.826V43.694H20.09V31.1H15.369A7.868,7.868,0,0,1,7.5,23.237V15.369A7.868,7.868,0,0,1,15.369,7.5h0a7.868,7.868,0,0,1,7.868,7.868v7.868a4.721,4.721,0,0,0,4.721,4.721h0a4.721,4.721,0,0,0,4.721-4.721V15.369A7.868,7.868,0,0,1,40.547,7.5h0a7.868,7.868,0,0,1,7.868,7.868v7.868A7.868,7.868,0,0,1,40.547,31.1Z" transform="translate(-6.284 -6.285)" fill="#fbca5c"/>
      <path id="Trazado_112066" data-name="Trazado 112066" d="M68.359,31.1V43.694H65.212V34.252A3.147,3.147,0,0,1,68.359,31.1ZM55.771,23.237V15.369A7.868,7.868,0,0,0,47.9,7.5h0a7.9,7.9,0,0,0-1.574.158,7.87,7.87,0,0,1,6.294,7.71v7.868a4.721,4.721,0,0,0,6.294,4.451A4.722,4.722,0,0,1,55.771,23.237ZM73.08,7.5h0a7.9,7.9,0,0,0-1.574.158,7.87,7.87,0,0,1,6.294,7.71v7.868A7.868,7.868,0,0,1,69.933,31.1H73.08a7.868,7.868,0,0,0,7.868-7.868V15.369A7.868,7.868,0,0,0,73.08,7.5Z" transform="translate(-38.818 -6.285)" fill="#f1b95c"/>
      <path id="Trazado_112067" data-name="Trazado 112067" d="M121.491,182.094a2.36,2.36,0,1,1,2.36-2.36A2.36,2.36,0,0,1,121.491,182.094Z" transform="translate(-99.818 -148.619)" fill="#909b91"/>
      <path id="Trazado_112068" data-name="Trazado 112068" d="M111.685,295v27.324a3.242,3.242,0,0,1-3.242,3.242H45.688a3.242,3.242,0,0,1-3.242-3.242V292.567a1.621,1.621,0,0,1,1.621-1.621h63.565A4.053,4.053,0,0,1,111.685,295Z" transform="translate(-35.564 -243.781)" fill="#efa96b"/>
      <path id="Trazado_112069" data-name="Trazado 112069" d="M245.886,292.52v29.9a3.147,3.147,0,0,1-3.147,3.147h-4.091a3.147,3.147,0,0,0,3.147-3.147V290.946h2.518A1.574,1.574,0,0,1,245.886,292.52Zm-40.562,3.851a1.573,1.573,0,0,0,1.407.87h9.07a1.573,1.573,0,0,0,1.407-.87l2.712-5.424h-17.31Z" transform="translate(-169.766 -243.781)" fill="#e08658"/>
      <path id="Trazado_112070" data-name="Trazado 112070" d="M240.47,191.935h15.736a9.442,9.442,0,0,1,9.442,9.442v29.349a.787.787,0,0,1-1.343.556l-6.525-6.525-6.525,6.525a.787.787,0,0,1-1.343-.556V201.377A9.442,9.442,0,0,0,240.47,191.935Z" transform="translate(-201.487 -160.82)" fill="#f26152"/>
      <path id="Trazado_112071" data-name="Trazado 112071" d="M330.715,201.377v29.349a.787.787,0,0,1-1.343.556l-1.8-1.8v-28.1a9.442,9.442,0,0,0-9.442-9.442h3.147A9.442,9.442,0,0,1,330.715,201.377Z" transform="translate(-266.554 -160.82)" fill="#dd5652"/>
      <path id="Trazado_112072" data-name="Trazado 112072" d="M10.3,6.724V19.313a1.216,1.216,0,1,1-2.432,0V6.724a1.216,1.216,0,1,1,2.432,0ZM35.478,19.313V6.724a1.216,1.216,0,0,0-2.432,0V19.313a1.216,1.216,0,0,0,2.432,0ZM25.25,31.115a3.576,3.576,0,1,1-3.576-3.576A3.58,3.58,0,0,1,25.25,31.115Zm-2.432,0a1.145,1.145,0,1,0-1.145,1.145A1.146,1.146,0,0,0,22.818,31.115ZM82.961,7.848a7.056,7.056,0,0,1-2.6,4.776,7.2,7.2,0,0,1-.865.6l-4.156,32.84a2.8,2.8,0,0,1,1.991,2.673v29.9A4.368,4.368,0,0,1,72.973,83H10.029a4.368,4.368,0,0,1-4.363-4.363V73.655a1.216,1.216,0,1,1,2.432,0v4.983a1.934,1.934,0,0,0,1.931,1.931H72.973A1.934,1.934,0,0,0,74.9,78.638v-29.9a.358.358,0,0,0-.358-.358h-9.17V53.2a1.216,1.216,0,1,1-2.432,0V40.556a8.235,8.235,0,0,0-8.226-8.226H45.752a10.64,10.64,0,0,1,3.888,8.226V68.87l5.792-5.792a1.216,1.216,0,0,1,1.719,0l5.792,5.792v-11a1.216,1.216,0,1,1,2.432,0V69.905a2,2,0,0,1-3.419,1.416l-5.665-5.665-5.665,5.665a2,2,0,0,1-3.419-1.416V54.42a2.8,2.8,0,0,1-1.173.256h-9.07a2.775,2.775,0,0,1-2.5-1.542l-2.376-4.753H8.455a.358.358,0,0,0-.358.358V68.934a1.216,1.216,0,1,1-2.432,0V48.739A2.793,2.793,0,0,1,8.455,45.95H12.59V26.036h-3.5A9.094,9.094,0,0,1,0,16.953V9.085a9.084,9.084,0,0,1,18.168,0v7.868a3.5,3.5,0,0,0,7.01,0V9.085a9.084,9.084,0,0,1,18.168,0v7.868a9.094,9.094,0,0,1-9.084,9.084h-3.5v4.454a10.692,10.692,0,0,1,3.5-.592H54.4l-.356-17.09a7.1,7.1,0,1,1,8.449,0l-.42,20.045a10.628,10.628,0,0,1,3.3,7.7V45.95H68.26l1.792-21.226a1.216,1.216,0,0,1,2.423.2L70.7,45.95h2.208l4.026-31.817a7.2,7.2,0,0,1-3.518-.371l-.553,6.556a1.216,1.216,0,0,1-2.423-.2L71.1,12.34a7.218,7.218,0,0,1-.72-.768A7.1,7.1,0,1,1,82.961,7.848Zm-62.5,30.777H15.021V45.95h5.436Zm7.868,0H22.889V45.95h5.436ZM29.542,23.6h4.721a6.66,6.66,0,0,0,6.652-6.652V9.085a6.652,6.652,0,0,0-13.3,0v7.868a5.937,5.937,0,0,1-11.873,0V9.085a6.652,6.652,0,0,0-13.3,0v7.868A6.66,6.66,0,0,0,9.085,23.6h4.721a1.216,1.216,0,0,1,1.216,1.216V36.193h13.3V24.821A1.216,1.216,0,0,1,29.542,23.6ZM47.209,48.381h-12.4l1.832,3.665a.356.356,0,0,0,.32.2h9.07a.356.356,0,0,0,.32-.2l.8-1.6c.017-.034.035-.067.055-.1ZM38.983,32.331H34.262a8.244,8.244,0,0,0-3.5.782V45.95h8.584V40.556a10.682,10.682,0,0,1,1.233-4.98,1.216,1.216,0,1,1,2.149,1.138,8.241,8.241,0,0,0-.95,3.842V45.95h5.436V40.557A8.235,8.235,0,0,0,38.983,32.331ZM60.041,13.983a7.128,7.128,0,0,1-3.536,0l.336,16.129a10.583,10.583,0,0,1,2.841,1.016Zm2.9-6.88a4.671,4.671,0,1,0-4.671,4.671A4.676,4.676,0,0,0,62.945,7.1ZM79.529,4.166a4.641,4.641,0,0,0-3.141-1.707,4.736,4.736,0,0,0-.493-.026,4.671,4.671,0,1,0,3.634,1.733Z" transform="translate(0 0)"/>
    </g>
  </g>
</svg>
