<svg xmlns="http://www.w3.org/2000/svg" width="99" height="99" viewBox="0 0 99 99">
  <g id="Grupo_57951" data-name="Grupo 57951" transform="translate(-305 -4991)">
    <rect id="Rectángulo_6806" data-name="Rectángulo 6806" width="99" height="99" transform="translate(305 4991)" fill="none"/>
    <g id="timer" transform="translate(331.001 4993.333)">
      <g id="Grupo_57949" data-name="Grupo 57949" transform="translate(-17.035 1.389)">
        <path id="Trazado_111981" data-name="Trazado 111981" d="M121.148,81.982a1.474,1.474,0,0,0-2.013-.54l-3.8,2.193a1.474,1.474,0,0,0-.54,2.013l3.6,6.238.6.078,5.7-3.3v-.519Z" transform="translate(-99.133 -68.221)" fill="#3f6d8e"/>
        <path id="Trazado_111982" data-name="Trazado 111982" d="M118.1,87.719a1.848,1.848,0,0,1-.141-1.546l-2.627,1.517a1.474,1.474,0,0,0-.54,2.013l3.6,6.238.6.078,2.919-1.688Z" transform="translate(-99.133 -72.274)" fill="#365e7d"/>
        <path id="Trazado_111983" data-name="Trazado 111983" d="M242.222,47.278h-6.586l-.348.335v9.5l.3.388h6.476l.555-.388v-9.5Z" transform="translate(-198.41 -40.28)" fill="#365e7d"/>
        <path id="Trazado_111984" data-name="Trazado 111984" d="M238.955,47.613l.348-.335h-3.667l-.348.335v9.5l.3.388h3.667l-.3-.388Z" transform="translate(-198.41 -40.28)" fill="#294b64"/>
        <circle id="Elipse_6206" data-name="Elipse 6206" cx="35.752" cy="35.752" r="35.752" transform="translate(4.777 16.652)" fill="#90d8f9"/>
        <path id="Trazado_111985" data-name="Trazado 111985" d="M60.307,137.432a35.765,35.765,0,0,1,32.8-35.64c-.978-.08-1.967-.123-2.966-.123a35.763,35.763,0,1,0,0,71.526c1,0,1.988-.043,2.966-.123A35.765,35.765,0,0,1,60.307,137.432Z" transform="translate(-49.593 -85.021)" fill="#75cef9"/>
        <circle id="Elipse_6207" data-name="Elipse 6207" cx="28.666" cy="28.666" r="28.666" transform="translate(0 52.41) rotate(-45)" fill="#f4fbff"/>
        <path id="Trazado_111986" data-name="Trazado 111986" d="M102.447,170.335a28.709,28.709,0,0,1,24.63-28.381,28.666,28.666,0,1,0,0,56.762A28.709,28.709,0,0,1,102.447,170.335Z" transform="translate(-82.497 -117.925)" fill="#e4f6ff"/>
        <path id="Trazado_111987" data-name="Trazado 111987" d="M221.245,7.833H206.217a1.594,1.594,0,0,0-1.594,1.594v4.147a1.594,1.594,0,0,0,1.594,1.594h15.027a1.593,1.593,0,0,0,1.593-1.594V9.426a1.593,1.593,0,0,0-1.593-1.593Z" transform="translate(-173.186 -7.833)" fill="#3f6d8e"/>
        <path id="Trazado_111988" data-name="Trazado 111988" d="M211.425,13.572V9.426a1.594,1.594,0,0,1,1.594-1.594h-6.8a1.594,1.594,0,0,0-1.594,1.594v4.147a1.594,1.594,0,0,0,1.594,1.594h6.8a1.593,1.593,0,0,1-1.594-1.594Z" transform="translate(-173.186 -7.832)" fill="#365e7d"/>
        <path id="Trazado_111989" data-name="Trazado 111989" d="M255.957,141.669V164.4l.406.548,4.214,3.282h15.3l2.351,1.464.547.638h5.847A28.7,28.7,0,0,0,255.957,141.669Z" transform="translate(-215.412 -117.925)" fill="#dd636e"/>
        <path id="Trazado_111990" data-name="Trazado 111990" d="M261.675,142.243a28.694,28.694,0,0,0-5.718-.574V164.4l.406.548,4.214,3.282h1.1V142.243Z" transform="translate(-215.412 -117.925)" fill="#da4a54"/>
        <path id="Trazado_111991" data-name="Trazado 111991" d="M191.535,288.25h-4.791a2.661,2.661,0,1,0,0,5.322h4.791l.265-.564v-4.288Z" transform="translate(-156.289 -238.501)" fill="#ffaa5b"/>
        <path id="Trazado_111992" data-name="Trazado 111992" d="M298.565,288.25H283.705l-.457.352v4.11l.457.86h14.859a2.661,2.661,0,1,0,0-5.322Z" transform="translate(-237.861 -238.501)" fill="#ffaa5b"/>
        <path id="Trazado_111993" data-name="Trazado 111993" d="M186.744,297.081a2.658,2.658,0,0,1-2.3-1.331,2.658,2.658,0,0,0,2.3,3.992h4.791l.265-.564v-2.661l-.265.564Z" transform="translate(-156.289 -244.67)" fill="#ff9838"/>
        <path id="Trazado_111994" data-name="Trazado 111994" d="M298.565,297.081H283.705l-.457-.86v2.661l.457.86h14.859a2.658,2.658,0,0,0,2.3-3.992A2.658,2.658,0,0,1,298.565,297.081Z" transform="translate(-237.861 -244.67)" fill="#ff9838"/>
        <circle id="Elipse_6208" data-name="Elipse 6208" cx="5.932" cy="5.932" r="5.932" transform="translate(32.812 55.631) rotate(-67.486)" fill="#ffba7e"/>
        <path id="Trazado_111995" data-name="Trazado 111995" d="M226.688,275.745a5.941,5.941,0,0,1,3.848-5.553,5.932,5.932,0,1,0,0,11.106,5.941,5.941,0,0,1-3.848-5.553Z" transform="translate(-187.906 -223.335)" fill="#ffaa5b"/>
      </g>
      <g id="Grupo_57950" data-name="Grupo 57950" transform="translate(-13.576 0)">
        <path id="Trazado_111996" data-name="Trazado 111996" d="M46.918,53.741A37.094,37.094,0,1,0,89.009,16.985V9.995h2.516a2.927,2.927,0,0,0,2.924-2.924V2.924A2.927,2.927,0,0,0,91.525,0H87.116a1.331,1.331,0,1,0,0,2.661h4.409a.263.263,0,0,1,.263.263V7.071a.263.263,0,0,1-.263.263H76.5a.263.263,0,0,1-.263-.263V2.924a.263.263,0,0,1,.263-.263h4.409a1.331,1.331,0,1,0,0-2.661H76.5a2.927,2.927,0,0,0-2.924,2.924V7.071A2.927,2.927,0,0,0,76.5,9.995h2.516v6.991A36.791,36.791,0,0,0,69.6,19.562l-2.965-5.135A2.808,2.808,0,0,0,62.8,13.4L59,15.593a2.8,2.8,0,0,0-1.027,3.831L61,24.666A37.044,37.044,0,0,0,46.918,53.741ZM81.675,9.995h4.673V16.72a38.368,38.368,0,0,0-4.673,0Zm-21.392,8.1a.143.143,0,0,1,.053-.2l3.8-2.193a.144.144,0,0,1,.2.052l2.844,4.926a37.194,37.194,0,0,0-4.02,2.382Zm21.388,1.3a35.206,35.206,0,0,1,4.7,0,34.433,34.433,0,1,1-4.7,0Z" transform="translate(-46.918 0)"/>
        <path id="Trazado_111997" data-name="Trazado 111997" d="M116.915,193.831a30,30,0,1,0,0-59.994h0a30,30,0,1,0,0,59.994ZM92.608,151.336l1.057.61a1.331,1.331,0,1,0,1.331-2.3l-1.053-.608a27.556,27.556,0,0,1,8.173-8.173l.608,1.053a1.331,1.331,0,0,0,2.3-1.331l-.61-1.057a27.141,27.141,0,0,1,11.167-3v9.053a1.331,1.331,0,0,0,2.661,0v-9.053a27.211,27.211,0,0,1,11.166,3l-.61,1.056a1.331,1.331,0,0,0,2.3,1.331l.607-1.052a27.516,27.516,0,0,1,8.173,8.173l-1.052.607a1.331,1.331,0,1,0,1.331,2.3l1.056-.61a27.116,27.116,0,0,1,3,11.166h-3.381a4.015,4.015,0,0,0-3.764-2.661H122.979a7.237,7.237,0,0,0-4.734-3.15v-4.9a1.331,1.331,0,0,0-2.661,0v4.9a7.277,7.277,0,0,0-4.732,3.147h-4.027a3.992,3.992,0,1,0,0,7.984h4.027a7.255,7.255,0,0,0,12.126,0h14.1a4,4,0,0,0,3.763-2.661h3.381a27.144,27.144,0,0,1-3,11.167l-1.057-.61a1.331,1.331,0,1,0-1.331,2.3l1.053.608a27.556,27.556,0,0,1-8.173,8.173l-.608-1.053a1.331,1.331,0,1,0-2.3,1.33l.61,1.057a27.141,27.141,0,0,1-11.167,3v-1.224a1.331,1.331,0,1,0-2.661,0v1.224a27.141,27.141,0,0,1-11.167-3l.61-1.057a1.331,1.331,0,0,0-2.3-1.331l-.608,1.053a27.554,27.554,0,0,1-8.173-8.173L95,178.026a1.331,1.331,0,0,0-1.331-2.3l-1.057.61a27.141,27.141,0,0,1-3-11.167h1.224a1.331,1.331,0,1,0,0-2.661H89.612A27.15,27.15,0,0,1,92.608,151.336ZM124.056,162.5h13.018a1.331,1.331,0,1,1,0,2.661H124.056A7.456,7.456,0,0,0,124.056,162.5Zm-3.034,3.4a4.6,4.6,0,1,1-4.107-6.672A4.606,4.606,0,0,1,121.022,165.9Zm-11.248-.74h-2.949a1.331,1.331,0,1,1,0-2.661h2.949A7.445,7.445,0,0,0,109.774,165.164Z" transform="translate(-79.822 -110.093)"/>
      </g>
    </g>
  </g>
</svg>
