<svg xmlns="http://www.w3.org/2000/svg" width="207.234" height="189.509" viewBox="0 0 207.234 189.509">
  <g id="Grupo_58695" data-name="Grupo 58695" transform="translate(-437.693 -2110.315)">
    <g id="Grupo_57982" data-name="Grupo 57982" transform="translate(416.977 2110.315)">
      <g id="Grupo_57983" data-name="Grupo 57983" transform="translate(0 0)">
        <path id="Trazado_100598" data-name="Trazado 100598" d="M123.468,0c32.157.283,105.341,144.661,77.62,177.259S-7.646,172.151.251,125.582,91.312-.281,123.468,0Z" transform="translate(227.95 189.509) rotate(180)" fill="#bf3976" opacity="0.15" style="isolation: isolate"/>
        <path id="Trazado_100598-2" data-name="Trazado 100598" d="M78.622,0C99.1.181,145.7,92.118,128.049,112.876S-4.869,109.623.16,79.968,58.145-.179,78.622,0Z" transform="matrix(-0.259, -0.966, 0.966, -0.259, 104.871, 182.105)" fill="#bf3976" opacity="0.2" style="isolation: isolate"/>
      </g>
    </g>
    <g id="Grupo_58776" data-name="Grupo 58776" transform="translate(-854.984 733.701)">
      <path id="Trazado_113675" data-name="Trazado 113675" d="M1681.874,1770.872a12.36,12.36,0,0,0-11.15-9.413c-5.73-.6-10.792,2.091-14.892,5.457a21.138,21.138,0,0,0-5.679,7.125c-2.773,2.145-4.574,5.335-6.045,8.229-2.541,5-4.233,10.417-3.3,15.908a15.9,15.9,0,0,0,23.78,11.2c8.957-5.453,14.753-15.01,16.609-24.212C1682.122,1780.578,1682.82,1775.456,1681.874,1770.872Z" transform="translate(-245.47 -280.23)" fill="#339ce9"/>
      <path id="Trazado_113676" data-name="Trazado 113676" d="M1351.171,1859.061a20.708,20.708,0,0,0,9.171,13.369,8.778,8.778,0,0,0,13.131-6.182,14.237,14.237,0,0,0-1.822-8.784,13.012,13.012,0,0,0-3.338-4.544,11.669,11.669,0,0,0-3.135-3.934c-2.264-1.859-5.059-3.344-8.223-3.013a6.825,6.825,0,0,0-6.157,5.2A20.37,20.37,0,0,0,1351.171,1859.061Z" transform="translate(-30.819 -342.814)" fill="#339ce9"/>
      <path id="Trazado_113677" data-name="Trazado 113677" d="M1332.516,1733.075a43,43,0,0,0-2.148-9.044,27.2,27.2,0,0,0-3.979-7.879,9.565,9.565,0,0,0-7.226-3.866,10.592,10.592,0,0,0-7.626,2.894c-2.132,2.053-2.871,5.682-2.556,8.645a21.059,21.059,0,0,0,2.746,7.9c2.861,5.12,8.349,11.188,14.718,11.037a1.889,1.889,0,0,0,.7-.146,5.886,5.886,0,0,0,3.625-1.735C1332.79,1738.834,1332.856,1735.747,1332.516,1733.075Z" transform="translate(0 -243.896)" fill="#339ce9"/>
      <path id="Trazado_113678" data-name="Trazado 113678" d="M1366.71,1765.577c-12.49-10.049-24.473-21.1-33.457-34.486a94.312,94.312,0,0,1-6.739-11.763c-.145-.3-.593-.038-.449.262,6.965,14.511,17.766,26.709,29.666,37.382,3.449,3.093,7,6.069,10.611,8.973C1366.6,1766.152,1366.971,1765.787,1366.71,1765.577Z" transform="translate(-12.676 -249.009)" fill="#464a8a"/>
      <path id="Trazado_113679" data-name="Trazado 113679" d="M1391.919,1877.363a66.524,66.524,0,0,1-31.438-25.117c-.185-.277-.635-.017-.449.262a67.12,67.12,0,0,0,31.748,25.356C1392.094,1877.984,1392.229,1877.481,1391.919,1877.363Z" transform="translate(-37.806 -347.403)" fill="#464a8a"/>
      <path id="Trazado_113680" data-name="Trazado 113680" d="M1681.466,1767.069c-2.869,9.021-7.559,17.368-12.8,25.211-4.774,7.146-10.481,13.979-18.322,17.85-.3.148-.037.6.262.449,7.79-3.845,13.5-10.6,18.275-17.688,5.369-7.974,10.161-16.49,13.085-25.684C1682.068,1766.888,1681.567,1766.751,1681.466,1767.069Z" transform="translate(-252.622 -284.311)" fill="#464a8a"/>
      <path id="Trazado_113681" data-name="Trazado 113681" d="M1420.708,1722.883l-2.593-.171,22.432-117.181,2.593.171Z" transform="translate(-80.83 -164.878)" fill="#1f2144"/>
      <path id="Trazado_113682" data-name="Trazado 113682" d="M1631.052,1719.383l2.593-.171-22.432-117.181-2.593.171Z" transform="translate(-221.837 -162.288)" fill="#1f2144"/>
      <path id="Trazado_113683" data-name="Trazado 113683" d="M1877.734,1437.812c.012-1.627-.746-2.307-2.052-3.013-7.042-3.807-13.364-.326-13.407.674-.177,4.066-.524,9.252,1.364,12.926,1.413,2.75,4.18,5.186,7.34,3.832C1874.276,1450.82,1877.669,1446.841,1877.734,1437.812Z" transform="translate(-409.478 -37.219)" fill="#f79884"/>
      <path id="Trazado_113684" data-name="Trazado 113684" d="M1875.075,1484.516c.185.046.368.094.555.132.17.034,1.11.107.2.044.941.065,1.88.173,2.819.261.786.074,1.574.1,2.364.1.348,0,.7-.016,1.044-.017l.4-.023.049-.01a4.466,4.466,0,0,0,.617-.174c-.024-.266-.046-.508-.047-.7l1.108-13.554c0-.516-1.229,1.164-1.664,1.478a12.121,12.121,0,0,1-6.616,2.359.762.762,0,0,0-.217.057c-.37,0-.339.176-.338.653C1875.357,1477.446,1874.958,1481.432,1875.075,1484.516Z" transform="translate(-419.044 -64.914)" fill="#f79884"/>
      <path id="Trazado_113685" data-name="Trazado 113685" d="M1875.776,1521.6a2.3,2.3,0,0,0-.526-.992A4.9,4.9,0,0,1,1875.776,1521.6Z" transform="translate(-419.189 -102.022)" fill="#f79884"/>
      <path id="Trazado_113686" data-name="Trazado 113686" d="M1876.368,1467.406c.007.483-.218.878-.5.882s-.521-.384-.528-.867.219-.878.5-.882S1876.36,1466.923,1876.368,1467.406Z" transform="translate(-419.253 -62)" fill="#1f2144"/>
      <path id="Trazado_113687" data-name="Trazado 113687" d="M1903.13,1467.963c-.005.483-.24.872-.526.869s-.511-.4-.506-.88.241-.872.526-.869S1903.136,1467.479,1903.13,1467.963Z" transform="translate(-439.062 -62.402)" fill="#1f2144"/>
      <path id="Trazado_113688" data-name="Trazado 113688" d="M1901.265,1459.142a1.823,1.823,0,0,0-.276-.135,3.538,3.538,0,0,0-2.616-.137c-.393.2-.777.681-.223.916a4.915,4.915,0,0,0,1.65.186,2.9,2.9,0,0,0,1.284-.1C1901.549,1459.655,1901.567,1459.385,1901.265,1459.142Z" transform="translate(-435.934 -56.175)" fill="#9e4d4d"/>
      <path id="Trazado_113689" data-name="Trazado 113689" d="M1869.323,1459.131a2.9,2.9,0,0,0,1.265.239,4.931,4.931,0,0,0,1.661,0c.577-.173.248-.7-.12-.935a3.538,3.538,0,0,0-2.615-.153,1.8,1.8,0,0,0-.289.1C1868.9,1458.592,1868.885,1458.862,1869.323,1459.131Z" transform="translate(-414.553 -55.759)" fill="#9e4d4d"/>
      <path id="Trazado_113690" data-name="Trazado 113690" d="M1885.552,1489.248a7.73,7.73,0,0,1-4.857-.129c-.055.018-.113.061-.1.121a2.547,2.547,0,0,0,2.394,1.744,2.8,2.8,0,0,0,2.716-1.569C1885.732,1489.328,1885.653,1489.212,1885.552,1489.248Z" transform="translate(-423.144 -78.712)" fill="#fff"/>
      <path id="Trazado_113691" data-name="Trazado 113691" d="M1888.131,1472.079c-.687.17-1.324-.053-1.4-.821a6.28,6.28,0,0,1,.123-1.172q.13-1.148.288-2.292c.023-.166-.237-.179-.26-.014q-.132.964-.246,1.93a8.158,8.158,0,0,0-.169,1.8c.1.81,1.058.985,1.716.822C1888.348,1472.293,1888.293,1472.039,1888.131,1472.079Z" transform="translate(-427.483 -62.832)" fill="#db745e"/>
      <path id="Trazado_113692" data-name="Trazado 113692" d="M1916.077,1465.585c-.641-.613-1.744-.012-1.958.721a.211.211,0,0,0,.185.28,2.7,2.7,0,0,0-.2.893h0a2.212,2.212,0,0,0-.08,1c0,.132.009.264.019.4a.593.593,0,0,0-.019.446c.388.92,1.6-.358,1.819-.764C1916.244,1467.827,1916.8,1466.277,1916.077,1465.585Z" transform="translate(-447.862 -61.107)" fill="#f79884"/>
      <path id="Trazado_113693" data-name="Trazado 113693" d="M1858.3,1465c.57-.679,1.732-.2,2.025.5a.21.21,0,0,1-.153.3,2.7,2.7,0,0,1,.295.866h0a2.213,2.213,0,0,1,.188.985c.013.131.021.263.025.4a.6.6,0,0,1,.067.442c-.286.957-1.625-.182-1.891-.562C1858.383,1467.25,1857.661,1465.77,1858.3,1465Z" transform="translate(-406.458 -60.621)" fill="#f79884"/>
      <path id="Trazado_113694" data-name="Trazado 113694" d="M1917.642,1469.245a3.383,3.383,0,0,1-.359,1.47c-.074.149.15.281.225.131a3.692,3.692,0,0,0,.394-1.6A.13.13,0,0,0,1917.642,1469.245Z" transform="translate(-450.291 -63.91)" fill="#db745e"/>
      <path id="Trazado_113695" data-name="Trazado 113695" d="M1862.848,1470.3a3.779,3.779,0,0,1-.33-1.386c-.008-.167-.268-.167-.26,0a4.134,4.134,0,0,0,.365,1.517C1862.692,1470.582,1862.916,1470.45,1862.848,1470.3Z" transform="translate(-409.573 -63.664)" fill="#db745e"/>
      <path id="Trazado_113696" data-name="Trazado 113696" d="M1489.833,1532.379l-1.48-147.508a2.025,2.025,0,0,0-2.014-2.034l-78.22-.062a2.025,2.025,0,0,0-1.969,2.078l1.48,147.508a2.025,2.025,0,0,0,2.014,2.034l78.22.063A2.025,2.025,0,0,0,1489.833,1532.379Z" transform="translate(-71.973)" fill="#1f2144"/>
      <path id="Trazado_113697" data-name="Trazado 113697" d="M1499.66,1542.469l-1.308-137.791a1.788,1.788,0,0,0-1.779-1.8l-69.118-.249a1.788,1.788,0,0,0-1.739,1.834l1.307,137.791a1.788,1.788,0,0,0,1.779,1.8l69.118.249A1.788,1.788,0,0,0,1499.66,1542.469Z" transform="translate(-86.456 -14.698)" fill="#fff"/>
      <path id="Trazado_113698" data-name="Trazado 113698" d="M1793.12,1982.344c-.751.033-.482-.119-1.127.346a.751.751,0,0,0-.223.268.72.72,0,0,0-.853.69c-.288,4.261-1.156,8.464-1.284,12.739a.852.852,0,0,0,.929.948,6.038,6.038,0,0,0,1.767-.437c.272-.073.927-1.657.962-1.92.285-2.148,1.034-9.428,1.117-11.614C1794.429,1982.8,1793.7,1982.319,1793.12,1982.344Z" transform="translate(-355.818 -443.785)" fill="#f79884"/>
      <path id="Trazado_113699" data-name="Trazado 113699" d="M1903.287,1992.677c-.751.033-.482-.119-1.127.346a.749.749,0,0,0-.223.268.72.72,0,0,0-.853.69c-.288,4.261-1.156,8.464-1.283,12.739a.853.853,0,0,0,.929.948,6.053,6.053,0,0,0,1.766-.438c.273-.073.927-1.657.962-1.92.285-2.148,1.034-9.428,1.116-11.615C1904.6,1993.129,1903.866,1992.652,1903.287,1992.677Z" transform="translate(-437.361 -451.434)" fill="#f79884"/>
      <path id="Trazado_113700" data-name="Trazado 113700" d="M1765.251,2029.814c-1.017-.123-3.254-.085-4.366-.089-.491.031-.661.35-.639.514.167,1.273-1,1.187-2.557,1.961a26.218,26.218,0,0,1-4.727,1.842c-1.887.552-1.694.248-1.714,1.457-.014.866,1.927.732,3.5.648q.373-.019.742-.034a7.208,7.208,0,0,0,2.173-.431l.382-.141a8.818,8.818,0,0,1,3.456-.518.149.149,0,0,1,.144.107c.021.129.026.2.042.33a.449.449,0,0,0,.463.388c.508-.018,1.017-.039,1.531-.066.967-.051,1.88-.067,2.027-.311.164-.271.091-.321.085-.595C1765.78,2034.135,1765.622,2029.859,1765.251,2029.814Z" transform="translate(-327.406 -478.854)" fill="#1f2144"/>
      <path id="Trazado_113701" data-name="Trazado 113701" d="M1775.045,2036.736c-.073-.15-.3-.016-.223.134q.251.519.522,1.027c.079.148.3.013.223-.134Q1775.3,2037.255,1775.045,2036.736Zm1.1-.555c-.1-.132-.324,0-.223.134a8.542,8.542,0,0,1,.659,1c.082.146.3.012.223-.134A8.5,8.5,0,0,0,1776.147,2036.182Zm2.132.283a8.548,8.548,0,0,0-1-.673c-.143-.083-.3.125-.154.209a8.507,8.507,0,0,1,1,.673C1778.257,2036.777,1778.411,2036.568,1778.279,2036.464Z" transform="translate(-344.844 -483.332)" fill="#464a8a"/>
      <path id="Trazado_113702" data-name="Trazado 113702" d="M1765.811,2047.495c-.011-.22-.035-.466-.067-.723a16.227,16.227,0,0,1-3.579.258,16.724,16.724,0,0,0-3.494.362,29.315,29.315,0,0,1-7.391.756c0,.112.008.244.01.4.012.866,1.948.674,3.519.543q.372-.031.74-.056a7.2,7.2,0,0,0,2.159-.5l.378-.153a8.817,8.817,0,0,1,3.438-.621.149.149,0,0,1,.147.1c.025.129.032.2.052.329a.449.449,0,0,0,.474.375c.507-.033,1.016-.069,1.529-.112.965-.08,1.877-.123,2.016-.372C1765.9,2047.816,1765.824,2047.768,1765.811,2047.495Z" transform="translate(-327.429 -491.473)" fill="#464a8a"/>
      <path id="Trazado_113703" data-name="Trazado 113703" d="M1777.46,1749.036a46,46,0,0,0,8.659.134.529.529,0,0,0,.52-.516,24.766,24.766,0,0,1,1.635-9.75c1.063-2.74,2.832-5.122,3.96-7.828,2.173-5.212.575-11.154,1.158-16.62a20.44,20.44,0,0,1,2.688-8.112c1.187-2.071,2.569-4.034,3.641-6.169a13.377,13.377,0,0,0,1.635-6.073c-.014-1.548-.516-3.1-.15-4.637a6.131,6.131,0,0,1,.487-1.31c.51,8.33,1.016,16.661.863,25.01-.058,3.191-.254,6.382-.166,9.574a63.758,63.758,0,0,0,.922,8.579c.991,6.03,2.342,12.057,1.752,18.2-.029.306.262.482.52.516a40.506,40.506,0,0,0,5.914.356c1.118-.018,3.449.256,4.315-.669a2.014,2.014,0,0,0,.41-1.249c.114-1.009.134-2.04.2-3.053q.2-3.053.4-6.107c.932-14.231,2.125-28.474,2.691-42.725.578-14.542-.118-29.093-.812-43.619-.031-.656-1.052-.662-1.038-.016q-7.029-.164-14.048.272a.483.483,0,0,0-.308-.088l-6.718.2a45.564,45.564,0,0,0-5.718.22,2.927,2.927,0,0,0-2.5,2.336c-.564,1.848-.9,3.8-1.3,5.693-6.042,28.585-5.7,57.988-10.109,86.8A.529.529,0,0,0,1777.46,1749.036Z" transform="translate(-346.43 -199.624)" fill="#f1bf00"/>
      <path id="Trazado_113704" data-name="Trazado 113704" d="M1890.144,2040.041c.855.02,1.708.006,2.562-.054a5.829,5.829,0,0,0,1.862-.235.807.807,0,0,0,.4-.408,2.19,2.19,0,0,1,.776-.944.851.851,0,0,0,.4-.822,58.727,58.727,0,0,0,.118-5.884c0-.094-.157-.266-.521-.272-.432-.007-2.027-.007-2.459,0a2.386,2.386,0,0,0-.991.09,1.062,1.062,0,0,0-.484.906,15.759,15.759,0,0,0-.1,2.136.127.127,0,0,0-.021.065c-.042,1.579-1.707,2.339-2.266,3.695C1889.159,2038.936,1889.142,2040.239,1890.144,2040.041Z" transform="translate(-429.565 -480.104)" fill="#1f2144"/>
      <path id="Trazado_113705" data-name="Trazado 113705" d="M1900.979,2038.8c-.167,0-.149.255.017.259.384.01,1.288.011,1.672.006.167,0,.15-.262-.017-.259C1902.267,2038.814,1901.363,2038.812,1900.979,2038.8Zm.276-2.892c-.165.019-.165.28,0,.26.4-.047,1.317-.035,1.719-.026.167,0,.165-.256,0-.26C1902.573,2035.875,1901.654,2035.864,1901.255,2035.911Zm-.162,1.413c-.165.02-.165.28,0,.26.4-.047,1.317-.036,1.719-.026.167,0,.165-.256,0-.26C1902.41,2037.288,1901.492,2037.276,1901.093,2037.323Z" transform="translate(-438.147 -483.409)" fill="#464a8a"/>
      <path id="Trazado_113706" data-name="Trazado 113706" d="M1889.331,2054.065h.017a10.063,10.063,0,0,0,4.514-.076c.841-.29.981-.8,1.632-1.281a3.839,3.839,0,0,1,.686-.394c-.014.247-.026.493-.042.74a.852.852,0,0,1-.4.823,2.189,2.189,0,0,0-.776.945.805.805,0,0,1-.4.408,5.829,5.829,0,0,1-1.862.236c-.853.06-1.707.074-2.561.054C1889.274,2055.69,1889.173,2054.73,1889.331,2054.065Z" transform="translate(-429.566 -495.576)" fill="#464a8a"/>
      <path id="Trazado_113707" data-name="Trazado 113707" d="M1818.653,1568.2c2.933.048,5.875.037,8.806-.081q1.658-.067,3.314-.2c1.286-.106,1.984-.183,2.837-.319a31.806,31.806,0,0,0,5.968-1.534,16.487,16.487,0,0,0,3.576-2.084c1-6.77,3.983-31.642,3.548-34.552a18.388,18.388,0,0,0-2.854-7.4c-1.925-2.905-6.15-3.9-10.221-4.9a10.13,10.13,0,0,1-4.865,1.464c-2.213.078-3.968-.4-5.05-2.1a25.586,25.586,0,0,0-8.778,3.008c-3.341,2.044-4.417,4.891-5.674,9.171-1.124,3.827-3.592,30.91-1.47,37.839C1807.938,1567,1815.257,1568.142,1818.653,1568.2Z" transform="translate(-368.64 -98.974)" fill="#1f2144"/>
      <g id="Grupo_58772" data-name="Grupo 58772" transform="translate(1344.902 1407.899)">
        <path id="Trazado_113708" data-name="Trazado 113708" d="M1463.321,1480.722c-.023-.233-.146-.413-.312-.422-3.6-.185-14.2-.191-15.026-.234-.685-.035-.542.811-.541.963.034,3.384.548,11.129.645,12.769.043.729.125,1.094.68,1.276,1.051.346,11.616.291,14.217.328.824.012.905-.294.824-2.167C1463.495,1486,1463.928,1486.958,1463.321,1480.722Z" transform="translate(-1447.429 -1479.911)" fill="#78add9"/>
        <path id="Trazado_113709" data-name="Trazado 113709" d="M1476.49,1498.96a.458.458,0,0,0-.625.167l-2.674,4.632-1.105-1.442a.458.458,0,0,0-.727.557l1.533,2a.458.458,0,0,0,.642.085.453.453,0,0,0,.162-.245l2.962-5.13A.458.458,0,0,0,1476.49,1498.96Z" transform="translate(-1465.072 -1493.851)" fill="#1f2144"/>
        <path id="Trazado_113710" data-name="Trazado 113710" d="M1526.964,1493.452c.069.734.461,1.3,1.76,1.32,6.842.079,34.721.035,37.515-.031,1.852-.043,1.959-.355,1.9-1.212-.252-3.511-.032-8.413-.356-12.718-.058-.769.392-1.162-1.409-1.142-2.187.025-29.252-.087-38.727-.2-1.775-.021-1.472,1.659-1.451,1.932C1526.569,1486.431,1526.732,1490.98,1526.964,1493.452Z" transform="translate(-1505.705 -1479.471)" fill="#f5e4d5"/>
        <path id="Trazado_113711" data-name="Trazado 113711" d="M1576.258,1493.177l-31.962-.055a.13.13,0,0,0,0,.26l31.962.055A.13.13,0,0,0,1576.258,1493.177Zm.056,4.213-31.961-.055a.13.13,0,0,0,0,.26l31.961.055A.13.13,0,0,0,1576.313,1497.39Zm-.142,3.923q-4.582-.062-9.163.049c-.167,0-.175.263-.008.26q4.581-.11,9.164-.048A.13.13,0,0,0,1576.172,1501.313Z" transform="translate(-1519.033 -1489.575)" fill="#1f2144"/>
      </g>
      <g id="Grupo_58773" data-name="Grupo 58773" transform="translate(1345.292 1484.03)">
        <path id="Trazado_113712" data-name="Trazado 113712" d="M1464.821,1773.889c-.023-.233-.146-.413-.312-.422-3.6-.186-14.2-.191-15.026-.234-.685-.035-.542.811-.541.963.034,3.384.548,11.13.645,12.769.043.729.125,1.094.68,1.276,1.051.346,11.617.291,14.217.328.824.012.905-.294.824-2.166C1464.995,1779.172,1465.428,1780.125,1464.821,1773.889Z" transform="translate(-1448.929 -1773.036)" fill="#78add9"/>
        <path id="Trazado_113713" data-name="Trazado 113713" d="M1478.324,1790.46a.458.458,0,0,0-.625.168l-2.674,4.632-1.1-1.442a.458.458,0,0,0-.727.557l1.533,2a.456.456,0,0,0,.8-.16l2.962-5.13A.458.458,0,0,0,1478.324,1790.46Z" transform="translate(-1466.818 -1785.742)" fill="#1f2144"/>
        <path id="Trazado_113714" data-name="Trazado 113714" d="M1533.348,1786.456c.066.734.456,1.306,1.755,1.327,6.842.109,34.721.185,37.515.131,1.852-.035,1.961-.346,1.9-1.2-.236-3.512,0-8.413-.3-12.719-.054-.769.4-1.16-1.4-1.148-2.187.015-29.251-.214-38.725-.365-1.775-.028-1.479,1.653-1.46,1.926C1532.984,1779.434,1533.128,1783.984,1533.348,1786.456Z" transform="translate(-1510.861 -1772.479)" fill="#f5e4d5"/>
        <path id="Trazado_113715" data-name="Trazado 113715" d="M1584.173,1784.665l-31.958-.425a.13.13,0,0,0,0,.26l31.958.425A.13.13,0,0,0,1584.173,1784.665Z" transform="translate(-1525.285 -1781.184)" fill="#1f2144"/>
        <path id="Trazado_113716" data-name="Trazado 113716" d="M1583.715,1800.873l-31.958-.425a.13.13,0,0,0,0,.26l31.958.425A.13.13,0,0,0,1583.715,1800.873Z" transform="translate(-1524.947 -1793.181)" fill="#1f2144"/>
        <path id="Trazado_113717" data-name="Trazado 113717" d="M1561.243,1815.74q-4.579-.179-9.162-.186a.13.13,0,0,0,0,.26q4.582.008,9.162.186C1561.415,1816.006,1561.41,1815.747,1561.243,1815.74Z" transform="translate(-1525.188 -1804.362)" fill="#1f2144"/>
      </g>
      <g id="Grupo_58774" data-name="Grupo 58774" transform="translate(1344.62 1433.338)">
        <path id="Trazado_113718" data-name="Trazado 113718" d="M1462.238,1578.722c-.023-.233-.146-.413-.312-.422-3.6-.185-14.2-.191-15.026-.234-.685-.035-.542.811-.541.963.034,3.384.548,11.13.645,12.769.043.729.125,1.094.679,1.276,1.051.346,11.617.291,14.217.328.824.012.905-.294.824-2.166C1462.411,1584,1462.844,1584.958,1462.238,1578.722Z" transform="translate(-1446.345 -1577.886)" fill="#78add9"/>
        <path id="Trazado_113719" data-name="Trazado 113719" d="M1473.74,1594.127a.458.458,0,0,0-.625.167l-2.674,4.632-1.1-1.442a.458.458,0,0,0-.727.557l1.533,2a.458.458,0,0,0,.642.085.453.453,0,0,0,.162-.245l2.962-5.13A.458.458,0,0,0,1473.74,1594.127Z" transform="translate(-1462.755 -1589.73)" fill="#1f2144"/>
        <path id="Trazado_113720" data-name="Trazado 113720" d="M1527.683,1591.348c.058.735.442,1.311,1.741,1.345,6.84.179,34.717.542,37.511.517,1.852-.016,1.964-.326,1.915-1.184-.2-3.514.09-8.412-.17-12.722-.046-.77.409-1.156-1.393-1.162-2.187-.007-29.248-.515-38.72-.763-1.775-.046-1.5,1.637-1.479,1.911C1527.39,1584.323,1527.487,1588.874,1527.683,1591.348Z" transform="translate(-1506.091 -1577.378)" fill="#f5e4d5"/>
        <path id="Trazado_113721" data-name="Trazado 113721" d="M1574.326,1589.963l-31.955-.653a.13.13,0,0,0,0,.26l31.955.653A.13.13,0,0,0,1574.326,1589.963Zm-32.106,3.817c10.651.218,12.729.374,23.38.592a.13.13,0,0,0,0-.26c-10.652-.218-12.729-.374-23.381-.592A.13.13,0,0,0,1542.22,1593.78Zm31.666,4.679-31.955-.653a.13.13,0,0,0,0,.26l31.955.653A.13.13,0,0,0,1573.886,1598.459Z" transform="translate(-1517.002 -1586.21)" fill="#1f2144"/>
      </g>
      <g id="Grupo_58775" data-name="Grupo 58775" transform="translate(1345.205 1458.07)">
        <path id="Trazado_113722" data-name="Trazado 113722" d="M1464.488,1673.222c-.023-.233-.146-.413-.312-.422-3.6-.185-14.2-.191-15.026-.234-.685-.035-.542.811-.541.963.034,3.384.549,11.129.645,12.769.043.729.125,1.094.679,1.276,1.051.346,11.616.291,14.217.328.824.012.905-.294.824-2.167C1464.661,1678.5,1465.094,1679.458,1464.488,1673.222Z" transform="translate(-1448.595 -1672.565)" fill="#78add9"/>
        <path id="Trazado_113723" data-name="Trazado 113723" d="M1477.157,1692.46a.458.458,0,0,0-.625.168l-2.674,4.632-1.1-1.442a.458.458,0,1,0-.727.557l1.533,2a.455.455,0,0,0,.8-.16l2.962-5.13A.458.458,0,0,0,1477.157,1692.46Z" transform="translate(-1465.868 -1687.245)" fill="#1f2144"/>
        <path id="Trazado_113724" data-name="Trazado 113724" d="M1574.915,1685.043l-31.958-.425a.13.13,0,0,0,0,.26l31.958.425A.13.13,0,0,0,1574.915,1685.043Z" transform="translate(-1518.346 -1681.486)" fill="#1f2144"/>
        <path id="Trazado_113725" data-name="Trazado 113725" d="M1528.683,1687.719c.058.735.442,1.312,1.74,1.346,6.84.183,34.717.562,37.511.539,1.852-.015,1.964-.325,1.916-1.183-.2-3.514.1-8.412-.163-12.722-.046-.77.41-1.156-1.392-1.163-2.186-.008-29.247-.532-38.719-.785-1.775-.047-1.5,1.636-1.48,1.91C1528.395,1680.694,1528.49,1685.245,1528.683,1687.719Z" transform="translate(-1507.421 -1673.442)" fill="#f5e4d5"/>
        <path id="Trazado_113726" data-name="Trazado 113726" d="M1539.716,1688.128c10.653.142,12.732.283,23.384.425a.13.13,0,0,0,0-.26c-10.653-.142-12.731-.284-23.384-.425A.13.13,0,0,0,1539.716,1688.128Zm31.7,4.453-31.958-.425a.13.13,0,0,0,0,.26l31.958.425A.13.13,0,0,0,1571.415,1692.581Z" transform="translate(-1515.756 -1683.892)" fill="#1f2144"/>
      </g>
      <path id="Trazado_113727" data-name="Trazado 113727" d="M1807,1554.521a1.088,1.088,0,0,0-.117-.286c-1.933-5.03-2.5-10.439-3.265-15.736l-2.459-17.048a.639.639,0,0,0-.245-.442c-.168-.213,3.87-1.846,3.531-1.759-12.082,3.118-16.731,13.076-18.42,20.092-.9,3.736-1.494,7.955-.439,11.845,1.011,3.73,5.822,5.14,9.419,5.391,2.735.192,2.419-.241,5.146-.452l3.993-.31c.862-.067,1.972.079,2.656-.536A.779.779,0,0,0,1807,1554.521Z" transform="translate(-352.404 -101.013)" fill="#1f2144"/>
      <path id="Trazado_113728" data-name="Trazado 113728" d="M1892.922,1561.895c.684.615,1.794.469,2.656.536l3.994.31a56.513,56.513,0,0,0,8.256.422,7.623,7.623,0,0,0,7.188-6.063c1.055-3.89,1.06-8.521-.26-15.243-1.479-7.534-4.836-15.89-13.139-17.9a.731.731,0,0,0-.777.261.639.639,0,0,0-.245.442q-1.23,8.524-2.459,17.048a110.019,110.019,0,0,1-5.3,19.144,1.085,1.085,0,0,0-.117.286A.78.78,0,0,0,1892.922,1561.895Z" transform="translate(-432.102 -104.479)" fill="#1f2144"/>
      <path id="Trazado_113729" data-name="Trazado 113729" d="M1879.436,1516.839a8.248,8.248,0,0,0-.989-2.215c-.051-.106-.169-.1-.449-.007-.968.215-1.727.489-2.663.783a12.833,12.833,0,0,0-1.431.486,1.412,1.412,0,0,0-.26.139,1.563,1.563,0,0,0-.237-.138,12.589,12.589,0,0,0-1.395-.551c-.915-.336-1.654-.643-2.605-.9-.273-.106-.391-.117-.449-.013a8.476,8.476,0,0,0-1.14,2.167c-.109.582.36,1.033.774,1.466a15.105,15.105,0,0,0,1.98,1.851c.461.335.844.471,1.3.086a4.943,4.943,0,0,0,1.072-1.839l.583-1.261c.027-.058.065-.125.1-.2.033.069.064.134.086.189l.5,1.285a4.8,4.8,0,0,0,.944,1.885c.426.4.819.286,1.3-.027a15.667,15.667,0,0,0,2.1-1.759C1879,1517.854,1879.5,1517.425,1879.436,1516.839Z" transform="translate(-413.677 -97.388)" fill="#f5e4d5"/>
      <path id="Trazado_113730" data-name="Trazado 113730" d="M1876.133,1423.556c-.1-.592-.508-1.154-.667-1.731-.131-.475-.026-1.008-.265-1.442-.437-.793-1.281-1-2.03-1.358a3.22,3.22,0,0,0-.167-.935,1.857,1.857,0,0,0-.948-1.2.961.961,0,0,0-1.035.318,3.514,3.514,0,0,0-1.843-2.268,4.737,4.737,0,0,0-2.9-.356,4.785,4.785,0,0,0-1.379.487,5.232,5.232,0,0,0-.718.481c-.5.387-.87.232-1.375.017a2.386,2.386,0,0,0-2.486.342,4.975,4.975,0,0,0-1.423,2.807c-.165.541-.647.844-.845,1.365a2.059,2.059,0,0,0-.081,1.155c.163.76.814,1.53,1.635,1.3a9.379,9.379,0,0,1,1.921-.466,8.578,8.578,0,0,1,2.317.267,5.22,5.22,0,0,0,1.894.141,4.933,4.933,0,0,0,1.727-.79c1.36-.822,1.738-1.254,3.166-.591,2.149.779,3.034,1.819,2.913,4.588a5.275,5.275,0,0,0,.191,2.7c.1.166.254.3.39.206a.136.136,0,0,0,.05-.027,3.847,3.847,0,0,0,1.141-2.414c.138-.574.559-.937.758-1.473A2.172,2.172,0,0,0,1876.133,1423.556Z" transform="translate(-406.367 -23.485)" fill="#9e4d4d"/>
      <path id="Trazado_113731" data-name="Trazado 113731" d="M1860.021,1439.782a2.444,2.444,0,0,0-1.622-.082.128.128,0,0,0-.076.011l-.1.016-.057.009c-.02-.055-.036-.11-.058-.166-.06-.154-.311-.087-.25.069a15.547,15.547,0,0,1,.551,4.3c.075.787.16,2.117,1.076,2.388a.132.132,0,0,0,.16-.091c.541-1.7-.323-3.531.256-5.236C1860.031,1440.619,1860.473,1440.107,1860.021,1439.782Z" transform="translate(-406.31 -41.974)" fill="#9e4d4d"/>
      <path id="Trazado_113732" data-name="Trazado 113732" d="M1830.979,1602.222a5.2,5.2,0,0,0,.531,2.161.263.263,0,0,0,.021.513c3.151.525,6.7,2.527,9.762,3.431.129.038-.15-1.293-.1-1.436q.393-1.195.745-2.4a.263.263,0,0,0-.148-.337q-2.787-.709-5.589-1.351a47.072,47.072,0,0,0-5-.809C1831.085,1601.981,1830.991,1602.1,1830.979,1602.222Z" transform="translate(-386.415 -162.259)" fill="#f79884"/>
      <path id="Trazado_113733" data-name="Trazado 113733" d="M1852.412,1597.3c.061-.2.123-.4.187-.6a.664.664,0,0,0-.767-.808,1.663,1.663,0,0,0-1.778-1,.664.664,0,0,0-.966-.2l.04-.142a.65.65,0,0,0-1.253-.345l-.242.722a.684.684,0,0,0-1.131.239,35.026,35.026,0,0,0-2.111,8.094c-.064.464.274.952.8.8l.011,0a.711.711,0,0,0,.8.443,1.785,1.785,0,0,0,1.124-.743.57.57,0,0,0,.81-.065,6.522,6.522,0,0,0,.448-.6.692.692,0,0,0,.719.131.617.617,0,0,0,.65.329.608.608,0,0,0,.364.382c-.054.343-.1.687-.149,1.033-.108.826,1.193.818,1.3,0,.1-.74.22-1.474.363-2.2.028-.087.055-.176.082-.266.435-1.46.806-2.94,1.161-4.421A.62.62,0,0,0,1852.412,1597.3Z" transform="translate(-396.343 -156.163)" fill="#1f2144"/>
      <path id="Trazado_113734" data-name="Trazado 113734" d="M1938.506,1553.191c.067.153.291.021.224-.131-1.5-3.408-3.451-6.932-3.826-10.691a8.153,8.153,0,0,1,3.313-7.834c-.069-.057-.137-.117-.207-.173a8.288,8.288,0,0,0-3.4,7.573C1934.856,1545.9,1936.938,1549.624,1938.506,1553.191Z" transform="translate(-463.112 -112.201)" fill="#464a8a"/>
      <path id="Trazado_113735" data-name="Trazado 113735" d="M1827.844,1533.943a6.024,6.024,0,0,0-2.141-1.6c-.084.057-.164.117-.247.175a5.757,5.757,0,0,1,2.315,1.76,6.717,6.717,0,0,1,1.121,4.87,15.046,15.046,0,0,1-1.9,5.2c-.92,1.723-1.889,3.422-2.837,5.13-.081.146.143.278.224.131,1.059-1.909,2.165-3.8,3.159-5.744a13.294,13.294,0,0,0,1.663-5.327A6.673,6.673,0,0,0,1827.844,1533.943Z" transform="translate(-381.359 -110.703)" fill="#464a8a"/>
      <path id="Trazado_113736" data-name="Trazado 113736" d="M1798.1,1587.918c-.129.7,1.4.5,1.771.532.991.076,1.885.19,2.867.291-.035.108-.23.267-.26.374a9.9,9.9,0,0,0-3.714.258.19.19,0,0,0-.053.32c.565.6,2.034.458,2.794.5.886.052,4.35,1.893,4.925,2.059a1.7,1.7,0,0,0,1.808-.405c.553-.262.95-.935,1.464-1.294a.169.169,0,0,0,.065-.2.176.176,0,0,0-.05-.206q-1.479-1.3-2.922-2.635a8.367,8.367,0,0,0-2.28-1.863,12.573,12.573,0,0,0-3.39-.747c-.572-.061-1.486-.312-1.941.168a.19.19,0,0,0,.065.291,9.964,9.964,0,0,0,2.581.689l2.072.489s-.238.261-.24.265a16.888,16.888,0,0,0-3.446-.421c-.534.02-1.844.018-1.963.674-.132.725,1.169.306,1.552.29a13.6,13.6,0,0,1,3.4.448c-.1.185.024-.241-.063-.052a18.867,18.867,0,0,0-2.9-.455C1799.833,1587.279,1798.225,1587.255,1798.1,1587.918Z" transform="translate(-362.082 -149.518)" fill="#f79884"/>
      <path id="Trazado_113737" data-name="Trazado 113737" d="M1901.015,1613.255a20.6,20.6,0,0,0-3.01-.612q-.037-.31-.086-.62a13.59,13.59,0,0,1,3.368.631c.359.134,1.51.589,1.565.207.1-.66-1.155-1.067-1.657-1.251a16.869,16.869,0,0,0-3.406-.672s-.145-.322-.146-.326l2.121.179a9.958,9.958,0,0,0,2.668.148.19.19,0,0,0,.153-.256c-.282-.6-1.229-.643-1.792-.763a12.586,12.586,0,0,0-3.454-.344,6.519,6.519,0,0,0-2.433.566c.21-.275.487-.323.758-.546.238-.2.545-.278.8-.454.2-.138.474-.365.377-.635-.127-.353-.535-.235-.8-.147a14.315,14.315,0,0,0-2.053.944,3.765,3.765,0,0,0-1.377,1.078c-.463.619-.82,1.385-1.642,1.585a.131.131,0,0,0-.068.043c-2.685.513-5.776.558-8.269,1.071-.132.027.741,1.07.766,1.218q.216,1.239.473,2.469c.026.124.143.264.289.228q2.792-.687,5.568-1.439c.921-.251,2.008-.6,3.1-1l.073.006c.595.061.84.861,3.223.595a20.365,20.365,0,0,1,2.527.23c.737.194,2.088.787,2.812.391a.191.191,0,0,0,.049-.321,9.907,9.907,0,0,0-3.45-1.4c.005-.112.009-.224.008-.337.964.21,1.85.38,2.815.616.361.088,1.752.755,1.849.045C1902.829,1613.711,1901.4,1613.375,1901.015,1613.255Z" transform="translate(-424.644 -166.903)" fill="#f79884"/>
      <path id="Trazado_113738" data-name="Trazado 113738" d="M1884.627,1620.214a80.6,80.6,0,0,0-1.972-10.047v-.007h0c-.014-.054-.027-.109-.042-.163a.6.6,0,0,0-.988-.239c-.021-.066-.04-.132-.061-.2-.234-.737-1.286-.37-1.246.327,0,.072.01.143.014.215a.685.685,0,0,0-1.021.458.6.6,0,0,0-.56.706l.136.787a1.367,1.367,0,0,0-.714.111,1.588,1.588,0,0,0-.857,2.032c.07.174.128.351.193.527.013.035.022.059.03.075s.008.042.015.075a7.921,7.921,0,0,1,.144.971,1.583,1.583,0,0,0,1.59,1.367c.162,1.008.333,2.015.519,3.019.152.818,1.442.661,1.289-.164q-.153-.83-.3-1.661c.016-.006.033-.011.048-.019a.627.627,0,0,0,.438.175c.051.3.1.608.155.912a.7.7,0,0,0,1.034.454.717.717,0,0,0,.813.093c.016.119.035.237.051.356A.65.65,0,0,0,1884.627,1620.214Z" transform="translate(-420.635 -167.562)" fill="#1f2144"/>
      <path id="Trazado_113739" data-name="Trazado 113739" d="M1837.711,1639.177a4.1,4.1,0,0,0-2.183.729c-.769.655-.659,1.785-1.367,2.5-1.63,1.633-4.256.836-6.295,1.131-2.083.3-4,1.264-6.071,1.617-2.261.385-4.565-.346-6.8.24-.161.042-.115.3.047.256,2.235-.586,4.542.148,6.8-.24,2.071-.355,3.989-1.315,6.071-1.617,1.935-.281,4.092.338,5.854-.752a3.309,3.309,0,0,0,1.377-2.025c.424-1.187,1.471-1.431,2.615-1.579C1837.924,1639.411,1837.877,1639.156,1837.711,1639.177Z" transform="translate(-374.513 -189.782)" fill="#464a8a"/>
      <path id="Trazado_113740" data-name="Trazado 113740" d="M1859.537,1618.326c-1.051.261-2.048-.8-3.031-1.073a8.357,8.357,0,0,0-2.908-.166c-2.393.184-4.766.379-7.17.372-.166,0-.19.258-.023.259,2.348.008,4.671-.156,7.008-.356a7.248,7.248,0,0,1,3.636.364c.827.376,1.562,1.1,2.535.856C1859.746,1618.542,1859.7,1618.286,1859.537,1618.326Z" transform="translate(-397.754 -173.395)" fill="#464a8a"/>
      <path id="Trazado_113741" data-name="Trazado 113741" d="M1864.013,1752.649a84.365,84.365,0,0,0-2.288-8.826c-.1-.318-.6-.182-.5.138a84.35,84.35,0,0,1,2.289,8.826C1863.578,1753.115,1864.079,1752.976,1864.013,1752.649Z" transform="translate(-408.797 -267.105)" fill="#1f2144"/>
      <path id="Trazado_113742" data-name="Trazado 113742" d="M1825.389,1864.076a39.418,39.418,0,0,1-3-5.685c-.131-.307-.579-.042-.449.262a39.4,39.4,0,0,0,3,5.685C1825.119,1864.619,1825.569,1864.359,1825.389,1864.076Z" transform="translate(-379.715 -351.938)" fill="#1f2144"/>
      <path id="Trazado_113743" data-name="Trazado 113743" d="M1830.622,1849.607a49.52,49.52,0,0,1-2.692-5.848c-.119-.309-.621-.175-.5.138a50.5,50.5,0,0,0,2.745,5.972C1830.333,1850.164,1830.781,1849.9,1830.622,1849.607Z" transform="translate(-383.78 -341.079)" fill="#1f2144"/>
      <path id="Trazado_113744" data-name="Trazado 113744" d="M1498.436,1404.678a1.788,1.788,0,0,0-1.779-1.8l-69.118-.249a1.788,1.788,0,0,0-1.739,1.834l.034,3.568h72.633Z" transform="translate(-86.518 -14.698)" fill="#78add9"/>
      <path id="Trazado_113745" data-name="Trazado 113745" d="M1430.506,1914.456a1.788,1.788,0,0,0,1.779,1.8l69.118.25a1.788,1.788,0,0,0,1.739-1.835l-.085-8.921-72.636-.262Z" transform="translate(-89.938 -386.896)" fill="#78add9"/>
      <path id="Trazado_113746" data-name="Trazado 113746" d="M1562.776,1922.979h-3.1a.584.584,0,0,1-.583-.553l-.125-2.405a.583.583,0,0,1,.583-.614h3.1a.583.583,0,0,1,.583.553l.125,2.4a.583.583,0,0,1-.583.614Zm-3.221-3.313a.323.323,0,0,0-.323.341l.125,2.405a.324.324,0,0,0,.323.307h3.1a.324.324,0,0,0,.323-.341l-.125-2.4a.324.324,0,0,0-.323-.307Z" transform="translate(-185.088 -397.202)" fill="#f5e4d5"/>
      <path id="Trazado_113747" data-name="Trazado 113747" d="M1657.872,1922.264a.129.129,0,0,1-.08-.027l-2.233-1.743,2.055-1.866a.13.13,0,0,1,.175.192l-1.827,1.658,1.989,1.553a.13.13,0,0,1-.08.232Z" transform="translate(-256.58 -396.6)" fill="#f5e4d5"/>
      <path id="Trazado_113748" data-name="Trazado 113748" d="M1479.017,1919.019h3.768a.13.13,0,1,0,0-.26h-3.768a.13.13,0,0,0,0,.26Zm3.795,1.421a.13.13,0,1,0,0-.26h-3.767a.13.13,0,0,0,0,.26Zm.1,1.188h-3.768a.13.13,0,1,0,0,.26h3.768a.13.13,0,0,0,0-.26Z" transform="translate(-125.811 -396.722)" fill="#f5e4d5"/>
    </g>
  </g>
</svg>
