<svg xmlns="http://www.w3.org/2000/svg" width="207.234" height="189.509" viewBox="0 0 207.234 189.509">
  <g id="Grupo_58696" data-name="Grupo 58696" transform="translate(-437.693 -2110.315)">
    <g id="Grupo_57982" data-name="Grupo 57982" transform="translate(416.977 2110.315)">
      <g id="Grupo_57983" data-name="Grupo 57983" transform="translate(0 0)">
        <path id="Trazado_100598" data-name="Trazado 100598" d="M123.468,0c32.157.283,105.341,144.661,77.62,177.259S-7.646,172.151.251,125.582,91.312-.281,123.468,0Z" transform="translate(227.95 189.509) rotate(180)" fill="#bf3976" opacity="0.15" style="isolation: isolate"/>
        <path id="Trazado_100598-2" data-name="Trazado 100598" d="M78.622,0C99.1.181,145.7,92.118,128.049,112.876S-4.869,109.623.16,79.968,58.145-.179,78.622,0Z" transform="matrix(-0.259, -0.966, 0.966, -0.259, 104.871, 182.105)" fill="#bf3976" opacity="0.2" style="isolation: isolate"/>
      </g>
    </g>
    <g id="Grupo_58825" data-name="Grupo 58825" transform="translate(179.071 1867.573)">
      <path id="Trazado_113749" data-name="Trazado 113749" d="M261.079,403.748c1.633-1.14,6.417-1.18,7.891-1.2,59.079-.772,118.222.049,177.332.061,3.34,0,15.326-.072,17.378,2a.921.921,0,0,1,.041,1.321c-2.155,2.381-17.315,2.289-21.293,2.286-15.328-.009-151.664,1.16-174.266-.6-1.724-.135-5.116-.468-6.73-1.556C260.465,405.405,260.08,404.444,261.079,403.748Z" transform="translate(0 15.579)" fill="#efd8c5"/>
      <g id="Grupo_58786" data-name="Grupo 58786" transform="translate(260.493 320.218)">
        <g id="Grupo_58778" data-name="Grupo 58778">
          <path id="Trazado_113750" data-name="Trazado 113750" d="M279.013,331.775c-.364-2.134-1.009-3.12-1.52-6.807-.506-3.651-.776-5.534.253-7.306,1.8-3.1,5.563-3.673,6.442-3.806,8.92-1.355,19.129,9.7,17.512,21.127-.64,4.527-2.855,6.112-2.625,11.494.152,3.565,1.15,3.505,1.243,6.756.216,7.639-5.949,10.926-5.281,24.008-2.914-3.215-12.393-13.923-14.483-17.719-1.638-2.975-4.555-8.406-3.919-15.007C277.185,338.809,279.931,337.156,279.013,331.775Z" transform="translate(-258.841 -313.743)" fill="#f1bf00"/>
          <path id="Trazado_113751" data-name="Trazado 113751" d="M262.248,352.909c-2.8,3.125-1.533,7.991-1.017,9.971,3.482,13.361,25.424,19.852,30.706,19.171-3.815-12.666-12.25-12.784-16.316-17.09-4.607-4.881-.859-11.573-4.774-13.964C268.366,349.482,264.307,350.61,262.248,352.909Z" transform="translate(-260.493 -309.981)" fill="#f1bf00"/>
          <g id="Grupo_58777" data-name="Grupo 58777" transform="translate(7.055 10.632)">
            <path id="Trazado_113752" data-name="Trazado 113752" d="M295.227,379.823c-2.187-13.526-8.158-15.551-8.6-27.477-.322-8.659,2.641-11.336,1.443-21.848a46.009,46.009,0,0,0-1.235-6.756.42.42,0,1,0-.805.215,45.68,45.68,0,0,1,1.212,6.632c1.179,10.344-1.77,13.015-1.445,21.772.451,12.126,6.473,14.23,8.624,27.531a52.41,52.41,0,0,1-.7,20.034c-.05.223.122.317.344.369s.419.039.47-.185A52.926,52.926,0,0,0,295.227,379.823Z" transform="translate(-264.947 -323.383)" fill="#c29a00"/>
            <path id="Trazado_113753" data-name="Trazado 113753" d="M295.67,395.922c.838-6.288-.83-10-2.379-12a42.211,42.211,0,0,0-10.876-8.523c-1.561-.888-7.675-3.724-10.623-6.348a18.732,18.732,0,0,1-4.868-7.092.417.417,0,0,1,.774-.312,17.92,17.92,0,0,0,4.648,6.781c2.885,2.566,8.848,5.316,10.482,6.246,5.534,3.148,9.8,7.021,11.125,8.738,1.644,2.132,3.421,6.052,2.544,12.625A.417.417,0,0,1,295.67,395.922Z" transform="translate(-266.89 -319.473)" fill="#c29a00"/>
          </g>
        </g>
        <g id="Grupo_58780" data-name="Grupo 58780" transform="translate(38.769 17.865)">
          <path id="Trazado_113754" data-name="Trazado 113754" d="M320.914,344.951c.686-1.52,1.358-2.13,2.455-4.778,1.085-2.623,1.653-3.973,1.23-5.494-.74-2.66-3.432-3.816-4.061-4.086-6.384-2.743-16.138,3.515-17.152,12.343-.4,3.5.941,5.109-.276,9.075-.805,2.627-1.539,2.389-2.238,4.793-1.646,5.65,2.311,9.3-.728,18.916,2.8-1.831,11.939-7.969,14.233-10.392,1.8-1.9,5.027-5.38,5.835-10.422C320.911,350.546,319.186,348.782,320.914,344.951Z" transform="translate(-295.182 -329.942)" fill="#f2bf00"/>
          <path id="Trazado_113755" data-name="Trazado 113755" d="M329.629,363.916c1.48,2.872-.41,6.252-1.179,7.628-5.189,9.28-22.8,9.856-26.6,8.323,5.3-8.7,11.611-7.147,15.477-9.567,4.381-2.742,2.887-8.456,6.27-9.478C325.736,360.174,328.54,361.8,329.629,363.916Z" transform="translate(-295.007 -326.779)" fill="#f2bf00"/>
          <g id="Grupo_58779" data-name="Grupo 58779" transform="translate(0 7.863)">
            <path id="Trazado_113756" data-name="Trazado 113756" d="M299.065,377.426c4.256-9.654,9.1-10,11.745-18.8,1.921-6.39.233-8.96,3.168-16.561a35.452,35.452,0,0,1,2.233-4.794.323.323,0,1,1,.557.317,35.212,35.212,0,0,0-2.19,4.707c-2.887,7.479-1.209,10.042-3.151,16.5-2.691,8.949-7.587,9.347-11.774,18.84a40.386,40.386,0,0,0-3.366,15.067c-.005.175-.152.212-.328.208s-.32-.053-.314-.231A40.732,40.732,0,0,1,299.065,377.426Z" transform="translate(-295.645 -337.072)" fill="#c29a00"/>
            <path id="Trazado_113757" data-name="Trazado 113757" d="M296.3,389.333c.6-4.848,2.561-7.289,4.1-8.484a32.532,32.532,0,0,1,9.76-4.238c1.336-.358,6.442-1.285,9.149-2.667a14.428,14.428,0,0,0,5-4.34.321.321,0,0,0-.516-.383,13.8,13.8,0,0,1-4.78,4.15c-2.648,1.352-7.624,2.243-9.024,2.618a33.307,33.307,0,0,0-9.986,4.352c-1.64,1.268-3.725,3.845-4.348,8.913A.321.321,0,0,0,296.3,389.333Z" transform="translate(-295.644 -333.777)" fill="#c29a00"/>
          </g>
        </g>
        <g id="Grupo_58785" data-name="Grupo 58785" transform="translate(24.204 76.747)">
          <path id="Trazado_113758" data-name="Trazado 113758" d="M306.473,406.766c-3.314,2.8-17.588,2.85-20.919.039-2.315-1.951-3.469-5.623-3.02-9.982a18.971,18.971,0,0,1,.364-2.2c.054-.278.116-.557.193-.836a23.459,23.459,0,0,1,.914-2.788c.116-.287.24-.574.364-.867a28.5,28.5,0,0,1,1.75-3.308c.148-.233.294-.464.457-.7a29.313,29.313,0,0,1,2.037-2.75H296c0-.039,7.413-.039,7.413-.039a30.29,30.29,0,0,1,1.828,2.432c.318.472.62.945.9,1.417a25.632,25.632,0,0,1,1.293,2.432c.248.52.465,1.038.658,1.541.264.674.489,1.348.674,2.006.148.487.271.976.372,1.456a20.9,20.9,0,0,1,.356,2.208C309.936,401.158,308.782,404.813,306.473,406.766Z" transform="translate(-282.439 -383.33)" fill="#ce6c4f"/>
          <g id="Grupo_58784" data-name="Grupo 58784" transform="translate(0.459 6.135)">
            <g id="Grupo_58783" data-name="Grupo 58783">
              <g id="Grupo_58781" data-name="Grupo 58781" transform="translate(1.107)">
                <path id="Trazado_113759" data-name="Trazado 113759" d="M307.946,390.579c-3.632.054-7.3-.239-10.928-.255-4.384-.031-8.775.185-13.159.1.116-.287.24-.574.364-.867a127.746,127.746,0,0,1,13.569-.62c3.137-.031,6.343-.125,9.495.1C307.536,389.558,307.753,390.076,307.946,390.579Z" transform="translate(-283.86 -388.892)" fill="#504647"/>
              </g>
              <g id="Grupo_58782" data-name="Grupo 58782" transform="translate(0 3.494)">
                <path id="Trazado_113760" data-name="Trazado 113760" d="M309.1,393.715c-3.78.233-7.675-.116-11.424-.108-4.895.008-9.928.5-14.815.116.054-.278.116-.557.193-.836,4.538-.751,9.31-.612,13.879-.674a105.262,105.262,0,0,1,11.8.046C308.871,392.747,308.995,393.236,309.1,393.715Z" transform="translate(-282.856 -392.06)" fill="#504647"/>
              </g>
            </g>
          </g>
        </g>
      </g>
      <g id="Grupo_58788" data-name="Grupo 58788" transform="translate(357.778 313.948)">
        <rect id="Rectángulo_7009" data-name="Rectángulo 7009" width="6.784" height="6.784" fill="#b3bfbf"/>
        <g id="Grupo_58787" data-name="Grupo 58787" transform="translate(1.002 1.707)">
          <path id="Trazado_113761" data-name="Trazado 113761" d="M354.113,310.157h-4.229a.276.276,0,0,1,0-.551h4.229a.276.276,0,1,1,0,.551Z" transform="translate(-349.609 -309.606)" fill="#504647"/>
          <path id="Trazado_113762" data-name="Trazado 113762" d="M352.966,311.435h-3.082a.276.276,0,0,1,0-.551h3.082a.276.276,0,0,1,0,.551Z" transform="translate(-349.609 -309.474)" fill="#504647"/>
        </g>
      </g>
      <g id="Grupo_58790" data-name="Grupo 58790" transform="translate(324.292 313.948)">
        <rect id="Rectángulo_7010" data-name="Rectángulo 7010" width="6.784" height="6.784" fill="#fac991"/>
        <g id="Grupo_58789" data-name="Grupo 58789" transform="translate(1.002 1.707)">
          <path id="Trazado_113763" data-name="Trazado 113763" d="M323.752,310.157h-4.229a.276.276,0,0,1,0-.551h4.229a.276.276,0,0,1,0,.551Z" transform="translate(-319.248 -309.606)" fill="#504647"/>
          <path id="Trazado_113764" data-name="Trazado 113764" d="M322.605,311.435h-3.082a.276.276,0,0,1,0-.551h3.082a.276.276,0,0,1,0,.551Z" transform="translate(-319.248 -309.474)" fill="#504647"/>
        </g>
      </g>
      <g id="Grupo_58822" data-name="Grupo 58822" transform="translate(303.516 250.829)">
        <g id="Grupo_58791" data-name="Grupo 58791">
          <path id="Trazado_113765" data-name="Trazado 113765" d="M313.438,407.368v-33.7a12.892,12.892,0,0,1-11.426-12.811v-97.13a12.9,12.9,0,0,1,12.9-12.9h50.972a12.9,12.9,0,0,1,12.9,12.9v97.13a12.912,12.912,0,0,1-12.9,12.9c-.04,0-.04,33.619-.04,33.619l13.937,13.936-.052.052h-4.465l-11.038-11.025L353.2,421.369h-4.477l-.052-.052,13.936-13.95V373.762H316.673v33.619l13.937,13.936-.052.052h-4.465l-11.038-11.025-11.026,11.025h-4.477l-.052-.052Z" transform="translate(-299.502 -250.829)" fill="#504647"/>
          <rect id="Rectángulo_7011" data-name="Rectángulo 7011" width="115.168" height="69.008" rx="6.971" transform="translate(75.399 3.878) rotate(90)" fill="#f5e3cb"/>
        </g>
        <g id="Grupo_58793" data-name="Grupo 58793" transform="translate(47.544 66.511)">
          <rect id="Rectángulo_7012" data-name="Rectángulo 7012" width="20.22" height="29.609" fill="#fff"/>
          <g id="Grupo_58792" data-name="Grupo 58792" transform="translate(3.92 6.751)">
            <path id="Trazado_113766" data-name="Trazado 113766" d="M358.268,317.806H346.44a.276.276,0,1,1,0-.551h11.829a.276.276,0,1,1,0,.551Z" transform="translate(-346.164 -317.255)" fill="#504647"/>
            <path id="Trazado_113767" data-name="Trazado 113767" d="M358.268,321.327H346.44a.276.276,0,0,1,0-.551h11.829a.276.276,0,0,1,0,.551Z" transform="translate(-346.164 -316.893)" fill="#504647"/>
            <path id="Trazado_113768" data-name="Trazado 113768" d="M351.23,324.846h-4.79a.276.276,0,0,1,0-.551h4.79a.276.276,0,1,1,0,.551Z" transform="translate(-346.164 -316.531)" fill="#504647"/>
          </g>
        </g>
        <g id="Grupo_58795" data-name="Grupo 58795" transform="translate(14.058 15.946)">
          <rect id="Rectángulo_7013" data-name="Rectángulo 7013" width="20.22" height="29.609" fill="#fff"/>
          <g id="Grupo_58794" data-name="Grupo 58794" transform="translate(2.328 6.581)">
            <path id="Trazado_113769" data-name="Trazado 113769" d="M326.463,271.806H314.635a.276.276,0,1,1,0-.551h11.829a.276.276,0,0,1,0,.551Z" transform="translate(-314.359 -271.255)" fill="#504647"/>
            <path id="Trazado_113770" data-name="Trazado 113770" d="M326.463,275.327H314.635a.276.276,0,1,1,0-.551h11.829a.276.276,0,0,1,0,.551Z" transform="translate(-314.359 -270.893)" fill="#504647"/>
            <path id="Trazado_113771" data-name="Trazado 113771" d="M319.425,278.846h-4.79a.276.276,0,1,1,0-.551h4.79a.276.276,0,1,1,0,.551Z" transform="translate(-314.359 -270.531)" fill="#504647"/>
          </g>
        </g>
        <g id="Grupo_58797" data-name="Grupo 58797" transform="translate(20.776 12.554)">
          <rect id="Rectángulo_7014" data-name="Rectángulo 7014" width="6.784" height="6.784" fill="#ce6c4f"/>
          <g id="Grupo_58796" data-name="Grupo 58796" transform="translate(1.002 1.706)">
            <path id="Trazado_113772" data-name="Trazado 113772" d="M323.752,264.31h-4.229a.276.276,0,0,1,0-.551h4.229a.276.276,0,0,1,0,.551Z" transform="translate(-319.248 -263.759)" fill="#504647"/>
            <path id="Trazado_113773" data-name="Trazado 113773" d="M322.605,265.588h-3.082a.276.276,0,0,1,0-.551h3.082a.276.276,0,0,1,0,.551Z" transform="translate(-319.248 -263.628)" fill="#504647"/>
          </g>
        </g>
        <g id="Grupo_58800" data-name="Grupo 58800" transform="translate(14.058 66.511)">
          <rect id="Rectángulo_7015" data-name="Rectángulo 7015" width="20.22" height="29.609" fill="#fff"/>
          <g id="Grupo_58799" data-name="Grupo 58799" transform="translate(3.921 6.751)">
            <g id="Grupo_58798" data-name="Grupo 58798">
              <path id="Trazado_113774" data-name="Trazado 113774" d="M327.906,317.806H316.079a.276.276,0,1,1,0-.551h11.828a.276.276,0,1,1,0,.551Z" transform="translate(-315.803 -317.255)" fill="#504647"/>
              <path id="Trazado_113775" data-name="Trazado 113775" d="M327.906,321.327H316.079a.276.276,0,1,1,0-.551h11.828a.276.276,0,0,1,0,.551Z" transform="translate(-315.803 -316.893)" fill="#504647"/>
            </g>
            <path id="Trazado_113776" data-name="Trazado 113776" d="M327.906,324.846H316.079a.276.276,0,0,1,0-.551h11.828a.276.276,0,1,1,0,.551Z" transform="translate(-315.803 -316.531)" fill="#504647"/>
            <path id="Trazado_113777" data-name="Trazado 113777" d="M327.906,328.366H316.079a.276.276,0,0,1,0-.551h11.828a.276.276,0,1,1,0,.551Z" transform="translate(-315.803 -316.168)" fill="#504647"/>
          </g>
        </g>
        <g id="Grupo_58802" data-name="Grupo 58802" transform="translate(19.056 51.534)">
          <rect id="Rectángulo_7016" data-name="Rectángulo 7016" width="6.784" height="6.784" fill="#b3bfbf"/>
          <g id="Grupo_58801" data-name="Grupo 58801" transform="translate(1.002 1.707)">
            <path id="Trazado_113778" data-name="Trazado 113778" d="M322.193,299.653h-4.23a.276.276,0,0,1,0-.551h4.23a.276.276,0,1,1,0,.551Z" transform="translate(-317.688 -299.102)" fill="#504647"/>
            <path id="Trazado_113779" data-name="Trazado 113779" d="M321.045,300.931h-3.082a.276.276,0,0,1,0-.551h3.082a.276.276,0,1,1,0,.551Z" transform="translate(-317.688 -298.97)" fill="#504647"/>
          </g>
        </g>
        <g id="Grupo_58804" data-name="Grupo 58804" transform="translate(31.354 51.534)">
          <rect id="Rectángulo_7017" data-name="Rectángulo 7017" width="6.784" height="6.784" fill="#ce6c4f"/>
          <g id="Grupo_58803" data-name="Grupo 58803" transform="translate(1.002 1.707)">
            <path id="Trazado_113780" data-name="Trazado 113780" d="M333.343,299.653h-4.229a.276.276,0,1,1,0-.551h4.229a.276.276,0,0,1,0,.551Z" transform="translate(-328.839 -299.102)" fill="#504647"/>
            <path id="Trazado_113781" data-name="Trazado 113781" d="M332.2,300.931h-3.082a.276.276,0,1,1,0-.551H332.2a.276.276,0,1,1,0,.551Z" transform="translate(-328.839 -298.97)" fill="#504647"/>
          </g>
        </g>
        <g id="Grupo_58806" data-name="Grupo 58806" transform="translate(43.653 51.534)">
          <rect id="Rectángulo_7018" data-name="Rectángulo 7018" width="6.784" height="6.784" fill="#fac991"/>
          <g id="Grupo_58805" data-name="Grupo 58805" transform="translate(1.002 1.707)">
            <path id="Trazado_113782" data-name="Trazado 113782" d="M344.494,299.653h-4.229a.276.276,0,0,1,0-.551h4.229a.276.276,0,1,1,0,.551Z" transform="translate(-339.99 -299.102)" fill="#504647"/>
            <path id="Trazado_113783" data-name="Trazado 113783" d="M343.347,300.931h-3.082a.276.276,0,0,1,0-.551h3.082a.276.276,0,1,1,0,.551Z" transform="translate(-339.99 -298.97)" fill="#504647"/>
          </g>
        </g>
        <g id="Grupo_58808" data-name="Grupo 58808" transform="translate(55.951 51.534)">
          <rect id="Rectángulo_7019" data-name="Rectángulo 7019" width="6.784" height="6.784" fill="#ce6c4f"/>
          <g id="Grupo_58807" data-name="Grupo 58807" transform="translate(1.002 1.707)">
            <path id="Trazado_113784" data-name="Trazado 113784" d="M355.645,299.653h-4.229a.276.276,0,1,1,0-.551h4.229a.276.276,0,0,1,0,.551Z" transform="translate(-351.141 -299.102)" fill="#504647"/>
            <path id="Trazado_113785" data-name="Trazado 113785" d="M354.5,300.931h-3.082a.276.276,0,1,1,0-.551H354.5a.276.276,0,1,1,0,.551Z" transform="translate(-351.141 -298.97)" fill="#504647"/>
          </g>
        </g>
        <g id="Grupo_58810" data-name="Grupo 58810" transform="translate(19.056 102.268)">
          <rect id="Rectángulo_7020" data-name="Rectángulo 7020" width="6.784" height="6.784" fill="#fac991"/>
          <g id="Grupo_58809" data-name="Grupo 58809" transform="translate(1.002 1.707)">
            <path id="Trazado_113786" data-name="Trazado 113786" d="M322.193,345.653h-4.23a.276.276,0,0,1,0-.551h4.23a.276.276,0,1,1,0,.551Z" transform="translate(-317.688 -345.102)" fill="#504647"/>
            <path id="Trazado_113787" data-name="Trazado 113787" d="M321.045,346.931h-3.082a.276.276,0,0,1,0-.551h3.082a.276.276,0,1,1,0,.551Z" transform="translate(-317.688 -344.97)" fill="#504647"/>
          </g>
        </g>
        <g id="Grupo_58812" data-name="Grupo 58812" transform="translate(31.354 102.268)">
          <rect id="Rectángulo_7021" data-name="Rectángulo 7021" width="6.784" height="6.784" fill="#b3bfbf"/>
          <g id="Grupo_58811" data-name="Grupo 58811" transform="translate(1.002 1.707)">
            <path id="Trazado_113788" data-name="Trazado 113788" d="M333.343,345.653h-4.229a.276.276,0,1,1,0-.551h4.229a.276.276,0,0,1,0,.551Z" transform="translate(-328.839 -345.102)" fill="#504647"/>
            <path id="Trazado_113789" data-name="Trazado 113789" d="M332.2,346.931h-3.082a.276.276,0,0,1,0-.551H332.2a.276.276,0,0,1,0,.551Z" transform="translate(-328.839 -344.97)" fill="#504647"/>
          </g>
        </g>
        <g id="Grupo_58814" data-name="Grupo 58814" transform="translate(43.653 102.268)">
          <rect id="Rectángulo_7022" data-name="Rectángulo 7022" width="6.784" height="6.784" fill="#ce6c4f"/>
          <g id="Grupo_58813" data-name="Grupo 58813" transform="translate(1.002 1.707)">
            <path id="Trazado_113790" data-name="Trazado 113790" d="M344.494,345.653h-4.229a.276.276,0,0,1,0-.551h4.229a.276.276,0,1,1,0,.551Z" transform="translate(-339.99 -345.102)" fill="#504647"/>
            <path id="Trazado_113791" data-name="Trazado 113791" d="M343.347,346.931h-3.082a.276.276,0,0,1,0-.551h3.082a.276.276,0,1,1,0,.551Z" transform="translate(-339.99 -344.97)" fill="#504647"/>
          </g>
        </g>
        <g id="Grupo_58816" data-name="Grupo 58816" transform="translate(55.951 102.268)">
          <rect id="Rectángulo_7023" data-name="Rectángulo 7023" width="6.784" height="6.784" fill="#b3bfbf"/>
          <g id="Grupo_58815" data-name="Grupo 58815" transform="translate(1.002 1.707)">
            <path id="Trazado_113792" data-name="Trazado 113792" d="M355.645,345.653h-4.229a.276.276,0,1,1,0-.551h4.229a.276.276,0,0,1,0,.551Z" transform="translate(-351.141 -345.102)" fill="#504647"/>
            <path id="Trazado_113793" data-name="Trazado 113793" d="M354.5,346.931h-3.082a.276.276,0,0,1,0-.551H354.5a.276.276,0,0,1,0,.551Z" transform="translate(-351.141 -344.97)" fill="#504647"/>
          </g>
        </g>
        <g id="Grupo_58819" data-name="Grupo 58819" transform="translate(47.513 15.946)">
          <rect id="Rectángulo_7024" data-name="Rectángulo 7024" width="20.22" height="29.609" fill="#fff"/>
          <g id="Grupo_58818" data-name="Grupo 58818" transform="translate(3.951 6.581)">
            <g id="Grupo_58817" data-name="Grupo 58817">
              <path id="Trazado_113794" data-name="Trazado 113794" d="M358.268,271.806H346.44a.276.276,0,0,1,0-.551h11.829a.276.276,0,0,1,0,.551Z" transform="translate(-346.164 -271.255)" fill="#504647"/>
              <path id="Trazado_113795" data-name="Trazado 113795" d="M358.268,275.327H346.44a.276.276,0,0,1,0-.551h11.829a.276.276,0,0,1,0,.551Z" transform="translate(-346.164 -270.893)" fill="#504647"/>
            </g>
            <path id="Trazado_113796" data-name="Trazado 113796" d="M358.268,278.846H346.44a.276.276,0,1,1,0-.551h11.829a.276.276,0,1,1,0,.551Z" transform="translate(-346.164 -270.531)" fill="#504647"/>
            <path id="Trazado_113797" data-name="Trazado 113797" d="M358.268,282.366H346.44a.276.276,0,0,1,0-.551h11.829a.276.276,0,1,1,0,.551Z" transform="translate(-346.164 -270.168)" fill="#504647"/>
          </g>
        </g>
        <g id="Grupo_58821" data-name="Grupo 58821" transform="translate(54.231 12.554)">
          <rect id="Rectángulo_7025" data-name="Rectángulo 7025" width="6.784" height="6.784" fill="#fac991"/>
          <g id="Grupo_58820" data-name="Grupo 58820" transform="translate(1.002 1.706)">
            <path id="Trazado_113798" data-name="Trazado 113798" d="M354.086,264.31h-4.23a.276.276,0,0,1,0-.551h4.23a.276.276,0,0,1,0,.551Z" transform="translate(-349.581 -263.759)" fill="#504647"/>
            <path id="Trazado_113799" data-name="Trazado 113799" d="M352.938,265.588h-3.082a.276.276,0,0,1,0-.551h3.082a.276.276,0,1,1,0,.551Z" transform="translate(-349.581 -263.628)" fill="#504647"/>
          </g>
        </g>
      </g>
      <g id="Grupo_58824" data-name="Grupo 58824" transform="translate(354.388 251.438)">
        <path id="Trazado_113800" data-name="Trazado 113800" d="M426.568,406.357a1.188,1.188,0,0,1-.464.245H410.152a.7.7,0,0,1-.583-.286.643.643,0,0,1-.066-.566c.154-.43.772-.594.971-.65a37.211,37.211,0,0,0,5.46-1.733,9.187,9.187,0,0,0,2.7-1.631,7.957,7.957,0,0,0,1.478-1.721,16.087,16.087,0,0,0,3.915.474,15.755,15.755,0,0,0,2.945-.254c-.033.717-.022,1.323,0,1.8s.043.914.076,1.333C427.149,404.824,427.219,405.827,426.568,406.357Z" transform="translate(-339.058 -236.086)" fill="#f9b995"/>
        <path id="Trazado_113801" data-name="Trazado 113801" d="M426.568,406.044a1.359,1.359,0,0,1-.464.245H410.152a.722.722,0,0,1-.583-.286.668.668,0,0,1-.066-.566c.156-.428.776-.6.971-.65a36.95,36.95,0,0,0,5.46-1.733h11.116C427.153,404.517,427.215,405.513,426.568,406.044Z" transform="translate(-339.058 -235.773)" fill="#504647"/>
        <path id="Trazado_113802" data-name="Trazado 113802" d="M403.1,406.375a1.267,1.267,0,0,1-.464.245H386.684a.715.715,0,0,1-.583-.286.685.685,0,0,1-.066-.566c.154-.43.783-.594.971-.65a37.213,37.213,0,0,0,5.46-1.733,9.046,9.046,0,0,0,2.7-1.631,7.6,7.6,0,0,0,1.6-1.919,12.756,12.756,0,0,0,2.658.518,12.894,12.894,0,0,0,4.1-.331c-.044.816-.044,1.5-.022,2.029.011.485.056.914.078,1.333C403.692,404.842,403.756,405.846,403.1,406.375Z" transform="translate(-341.472 -236.105)" fill="#f9b995"/>
        <path id="Trazado_113803" data-name="Trazado 113803" d="M403.105,406.044a1.359,1.359,0,0,1-.464.245H386.684A.722.722,0,0,1,386.1,406a.668.668,0,0,1-.066-.566c.155-.428.776-.6.971-.65a36.909,36.909,0,0,0,5.46-1.733h11.116C403.685,404.517,403.752,405.513,403.105,406.044Z" transform="translate(-341.473 -235.773)" fill="#504647"/>
        <path id="Trazado_113804" data-name="Trazado 113804" d="M431.188,376.779q-.182,16.229-.805,31.852c-.43.121-.926.243-1.478.342a15.755,15.755,0,0,1-2.945.254,16.087,16.087,0,0,1-3.915-.474q-.447-.116-.827-.232c-2.029-12.6-3.8-25.852-5.239-39.716q-1.373-13.45-2.195-26.227c-1.015,2.713-2.57,6.75-4.643,11.614-2.526,5.912-2.978,6.408-3.662,8.746-.43,1.478-1.312,4.886-.739,16.036.452,9.055,1.213,10.224,1.169,15.948a65,65,0,0,1-1.511,13.4,13.684,13.684,0,0,1-1.357.419,12.894,12.894,0,0,1-4.1.331,12.755,12.755,0,0,1-2.658-.518c-.342-.11-.662-.221-.937-.331a261.547,261.547,0,0,1-3.97-29.326c-.937-12.2-.684-16.786-.529-18.507.695-7.687,2.261-11.5,5.151-22.6,1.39-5.327,3.287-13.08,5.151-22.676q14.591.165,29.183.342C431.111,335.123,431.442,355.582,431.188,376.779Z" transform="translate(-340.99 -244.823)" fill="#b3bfbf"/>
        <path id="Trazado_113805" data-name="Trazado 113805" d="M442.871,296.667a55.87,55.87,0,0,0-3.937-7.345c-2.247-3.453-4.838-7.434-9.6-10.753a29.38,29.38,0,0,0-9.42-4.31,35.372,35.372,0,0,0-7.258-.066c-2.592.246-4.148.41-5.887,1.365a10.307,10.307,0,0,0-4.147,4.147,34.546,34.546,0,0,0-3.739,10.2c-1.268,6.016-1.417,10.9-3.1,11.172-.717.118-3.516-.3-4.054-.147a.788.788,0,0,0-.1.036,1.327,1.327,0,0,0-.6.717,7.758,7.758,0,0,0,.695,6.254,3.732,3.732,0,0,0,1.257,1.268,4.419,4.419,0,0,0,2.669.485,25.2,25.2,0,0,1,5.565.362c-.527,4.134-.984,7.484-1.363,9.906a5.018,5.018,0,0,0,.449,3.523c2.459,3.924,10.356-1.241,22.85,1.165,2.314.446,5.725,1.333,7.346-.415.985-1.062.875-2.628.8-3.7-.763-11.148-1.149-21.793-1.17-22.788,0-.189-.032-1.855-.13-4.107l-.007-.15c1.574,2.025,4.642,6.228,3.774,7.174-.441.474-1.555-.243-2.206.419a1.444,1.444,0,0,0-.353,1.081,8.376,8.376,0,0,0,.563,2.36c.518,1.555,1.037,3.077,2.371,4.07.1.066.21.143.32.21,1.412.86,2.845.706,4.82.474,3.044-.342,5.492-.618,6.474-2.272C446.84,305.184,445.566,302.342,442.871,296.667Z" transform="translate(-340.993 -249.05)" fill="#bf3976"/>
        <path id="Trazado_113806" data-name="Trazado 113806" d="M432.552,306.028c-1.908-.077-3.871-.176-5.878-.32-2.327-.165-4.577-.375-6.75-.607a9.274,9.274,0,0,0-3.662.43c-2.6.96-2.923,1.092-5.6.21-1.875-.629-5.79-2.129-4.059-3.066.6-.32.971.132,5.062.629,2.493.32,4.853-1.621,4.72-2.051-.143-.5-3.915-.165-3.54-1.533.143-.838,3.364-.9,4.423-.684a13.537,13.537,0,0,1,2.89,1.048,89.179,89.179,0,0,0,9.463-.485,8.376,8.376,0,0,0,.563,2.36C430.7,303.514,431.217,305.036,432.552,306.028Z" transform="translate(-339.397 -246.489)" fill="#f9b995"/>
        <path id="Trazado_113807" data-name="Trazado 113807" d="M382.975,301.366l-37.06-4.105a.324.324,0,0,1,.061-.644l37.179,2.815a.972.972,0,0,1-.147,1.938Z" transform="translate(-345.627 -246.727)" fill="#b3bfbf"/>
        <path id="Trazado_113808" data-name="Trazado 113808" d="M393.576,305.636c-1.089-.181-1.964-.35-2.526-.463-2.265-.456-3.5-.813-8.04-1.864l-.287-.066c-2.768-.607-4.213.077-5.239-.816a2.344,2.344,0,0,1-.728-1.423c.574.055,1.147.1,1.71.132a1.391,1.391,0,0,0,.132-.86,1.475,1.475,0,0,0-.706-1l-5.173-.4c2.349-2.25,4.268-2.47,5.173-2.459a18.784,18.784,0,0,1,5.371,1.379c.156.055.386.135.667.225a29.592,29.592,0,0,0,5.818,1.154c.808.087,1.873.176,3.132.21A7.758,7.758,0,0,0,393.576,305.636Z" transform="translate(-342.839 -246.747)" fill="#f9b995"/>
        <path id="Trazado_113809" data-name="Trazado 113809" d="M418.718,266.455c-.524.36-1,.044-1.5.093-.73-.3-1.318,1.449-3.241,1.693-1.6.2-1.895-.909-3.743-.783-1.641.122-2.348,1.055-3.418.622a2.434,2.434,0,0,1-1.2-1.232,28.884,28.884,0,0,1,.317-5.766,29.363,29.363,0,0,1,.885-3.835,4.243,4.243,0,0,0,2.19.152c1.565-.043,1.669.654,3.091.588a7.552,7.552,0,0,1,1.41-.092,11.124,11.124,0,0,1,1.782.484c1.223.325,1.363.206,1.535.436.385.511-.276,1.17-.347,2.79-.019.414-.054,1.942.572,2.189.3.124.475-.152,1.008-.072a1.64,1.64,0,0,1,1.086.613A1.675,1.675,0,0,1,418.718,266.455Z" transform="translate(-339.457 -250.778)" fill="#f9b995"/>
        <path id="Trazado_113810" data-name="Trazado 113810" d="M417.87,271.3c-.031,1.126-.061,2.24-.078,3.366a3.856,3.856,0,0,1-3.872,2.551,3.768,3.768,0,0,1-2.583-1.69c.142,0,.3-.019.44-.034a5.206,5.206,0,0,0,3.2-1.019,5.871,5.871,0,0,0,1.371-2.757c.268-.9.344-1.625.6-1.642S417.264,270.807,417.87,271.3Z" transform="translate(-338.865 -249.458)" fill="#f9b995"/>
        <path id="Trazado_113811" data-name="Trazado 113811" d="M423.6,262.9a13.39,13.39,0,0,0,.272,2.066,6.724,6.724,0,0,1-.439,3.438c-.534,1.162-1.042.99-1.434,2.15-.307.912-.093,1.271-.558,1.979a2.234,2.234,0,0,1-1.467,1.09,1.98,1.98,0,0,1-1.3-.26.841.841,0,0,1-.171-.139c-.606-.493-.658-1.23-.917-1.225s-.335.744-.6,1.642a5.871,5.871,0,0,1-1.371,2.757,5.206,5.206,0,0,1-3.2,1.019c-.142.015-.3.032-.44.034-1.628.148-3.18.191-4.273-.759-.395-.342-.858-.915-1.459-4.567-.308-1.909-.481-3.512-.581-4.674a2.434,2.434,0,0,0,1.2,1.232c1.07.433,1.777-.5,3.418-.622,1.849-.126,2.142.982,3.743.783,1.923-.244,2.511-1.99,3.241-1.693.5-.049.976.267,1.5-.093a1.675,1.675,0,0,0,.426-2.119,1.64,1.64,0,0,0-1.086-.613c-.533-.081-.708.2-1.008.072-.626-.247-.591-1.776-.572-2.189.072-1.62.732-2.28.347-2.79-.172-.229-.312-.11-1.535-.436a11.124,11.124,0,0,0-1.782-.484,7.552,7.552,0,0,0-1.41.092c-1.423.066-1.526-.631-3.091-.588a4.243,4.243,0,0,1-2.19-.152,2.917,2.917,0,0,1-.973-.81,3.525,3.525,0,0,1-.566-3.16,3.278,3.278,0,0,1,2-2.162c.656-.206.816.075,2.186-.042,1.176-.1,1.211-.308,1.949-.3,1.256,0,1.5.605,2.761.866,1.351.272,1.456-.351,3.192-.293.776.036,2.68.1,3.792,1.351.568.623.3.861,1.1,2.011.839,1.226,1.291,1.192,1.708,2.013a5.112,5.112,0,0,1,.09,3.4A11.263,11.263,0,0,0,423.6,262.9Z" transform="translate(-339.5 -251.382)" fill="#504647"/>
        <path id="Trazado_113812" data-name="Trazado 113812" d="M408.2,262.409c-.026.626-.393,1.121-.816,1.1s-.743-.543-.716-1.169.393-1.121.815-1.1S408.231,261.782,408.2,262.409Z" transform="translate(-339.346 -250.367)" fill="#352f31"/>
        <path id="Trazado_113813" data-name="Trazado 113813" d="M413.54,262.774c-.084.622-.492,1.081-.912,1.024s-.692-.607-.608-1.229.493-1.08.912-1.023S413.625,262.152,413.54,262.774Z" transform="translate(-338.797 -250.336)" fill="#352f31"/>
        <path id="Trazado_113814" data-name="Trazado 113814" d="M415.026,260.915c.03-.5-1.137-.9-1.477-1.018s-1.058-.376-1.328-.085a.366.366,0,0,0-.1.3c.036.187.28.282.386.324,1.4.555,2.05,1.06,2.39.74A.409.409,0,0,0,415.026,260.915Z" transform="translate(-338.785 -250.528)" fill="#504647"/>
        <path id="Trazado_113815" data-name="Trazado 113815" d="M410.2,266.3a.153.153,0,0,0,.153-.1.156.156,0,0,0-.09-.2c-.387-.143-1.043-.457-1.1-.943-.019-.171.043-.3.282-.793l.053-.108c.29-.593.513-1.08.658-1.4a.154.154,0,0,0-.281-.128c-.146.315-.368.8-.656,1.391l-.052.107c-.248.507-.341.7-.312.963.069.652.84,1.032,1.294,1.2A.144.144,0,0,0,410.2,266.3Z" transform="translate(-339.121 -250.233)" fill="#f2856b"/>
        <path id="Trazado_113816" data-name="Trazado 113816" d="M406.532,260.2c.053-.48,1.215-.663,1.555-.722s1.055-.183,1.263.133a.354.354,0,0,1,.046.3c-.065.171-.31.221-.416.243-1.412.3-2.1.669-2.369.314A.4.4,0,0,1,406.532,260.2Z" transform="translate(-339.36 -250.556)" fill="#504647"/>
        <g id="Grupo_58823" data-name="Grupo 58823" transform="translate(68.475 17.773)">
          <path id="Trazado_113817" data-name="Trazado 113817" d="M407.714,267.9a.908.908,0,0,0,.015.162c0,.025.023.039.034.064a2.518,2.518,0,0,0,1.007,1.323,2.415,2.415,0,0,0,1.862.253,2.666,2.666,0,0,0,1.493-1.159.927.927,0,0,0,.129-.316.329.329,0,0,0-.011-.248c-.157-.32-.846.014-2.439-.161-1.308-.147-1.811-.485-2.024-.224A.48.48,0,0,0,407.714,267.9Z" transform="translate(-407.713 -267.496)" fill="#da6249"/>
          <path id="Trazado_113818" data-name="Trazado 113818" d="M407.714,267.9a6.509,6.509,0,0,0,1.724.493,6.91,6.91,0,0,0,2.817-.167.329.329,0,0,0-.011-.248c-.157-.32-.846.014-2.439-.161-1.308-.147-1.811-.485-2.024-.224A.48.48,0,0,0,407.714,267.9Z" transform="translate(-407.713 -267.496)" fill="#fff"/>
        </g>
      </g>
    </g>
  </g>
</svg>
