<svg xmlns="http://www.w3.org/2000/svg" width="207.234" height="189.509" viewBox="0 0 207.234 189.509">
  <g id="Grupo_58707" data-name="Grupo 58707" transform="translate(-437.693 -2110.315)">
    <g id="Grupo_57982" data-name="Grupo 57982" transform="translate(416.977 2110.315)">
      <g id="Grupo_57983" data-name="Grupo 57983" transform="translate(0 0)">
        <path id="Trazado_100598" data-name="Trazado 100598" d="M123.468,0c32.157.283,105.341,144.661,77.62,177.259S-7.646,172.151.251,125.582,91.312-.281,123.468,0Z" transform="translate(227.95 189.509) rotate(180)" fill="#bf3976" opacity="0.15" style="isolation: isolate"/>
        <path id="Trazado_100598-2" data-name="Trazado 100598" d="M78.622,0C99.1.181,145.7,92.118,128.049,112.876S-4.869,109.623.16,79.968,58.145-.179,78.622,0Z" transform="matrix(-0.259, -0.966, 0.966, -0.259, 104.871, 182.105)" fill="#bf3976" opacity="0.2" style="isolation: isolate"/>
      </g>
    </g>
    <g id="Grupo_58844" data-name="Grupo 58844" transform="translate(-859.432 1761.984)">
      <path id="Trazado_113916" data-name="Trazado 113916" d="M1648.032,486.27c-.292,2.349.885,4.529,2.351,6.273,1.813,2.157,4.393,3.873,5.46,6.575,1.013,2.565.683,5.481,1.451,8.127a18.033,18.033,0,0,0,4.825,7.846c2.322,2.283,4.763,4.3,5.938,7.434,1.82,4.852,1.352,10.488,4.786,14.686.633.773.961.317,1.417-.877,6.075-12,11.995-24.06,18.045-36.071,1.474-2.925,2.932-5.859,4.328-8.822.68-1.443,1.348-2.893,1.992-4.352a7.785,7.785,0,0,0,.925-3.277c-.075-2.706-3.26-4.045-5.453-4.761a45.127,45.127,0,0,0-8.407-1.619,85.878,85.878,0,0,0-17.228-.394q-4.2.324-8.349,1.064c-2.747.491-5.632,1.006-8.052,2.475A8.1,8.1,0,0,0,1648.032,486.27Z" transform="translate(-236.404 -90.672)" fill="#f5e4d5"/>
      <path id="Trazado_113917" data-name="Trazado 113917" d="M1782.981,527.49a12.758,12.758,0,0,0,3.032-5.4c.807-2.391,1.657-4.758,2.644-7.081s2.1-4.621,3.3-6.852c1.1-2.026,2.621-4.012,3.159-6.282a1.189,1.189,0,0,0-1.637-1.421c-2.687,1.346-5.877,1.12-8.8,1.12-2.737,0-5.473-.068-8.207-.189q.164-.795.325-1.59c.295-1.463-1.927-2.222-2.225-.743l-2.1,10.434c-.644,3.2-1.755,6.643-1.68,9.926a8.854,8.854,0,0,0,11.236,8.4c.018-.005.034-.012.051-.017A1.038,1.038,0,0,0,1782.981,527.49Z" transform="translate(-327.199 -106.55)" fill="#f1bf00"/>
      <path id="Trazado_113918" data-name="Trazado 113918" d="M1682.576,973.893c-1.93-4.975-17.386-8.838-36.166-8.82-15.455.015-28.651,2.655-33.911,6.364a8.3,8.3,0,0,1,.65,4.177c5.339,3.658,18.465,6.236,33.813,6.221C1664.532,981.819,1679.188,978.41,1682.576,973.893Z" transform="translate(-210.166 -451.692)" fill="#1f2144"/>
      <path id="Trazado_113919" data-name="Trazado 113919" d="M1678.586,620.429h0a4.785,4.785,0,0,0-.989-2.842l-.022.026-33.711-62.642.638-1.192-.047.018,34.025-63.572-2.431-.94-33.69,62.947-33.953-63.141-2.429.945,34.917,64.934-.638,1.192.047-.018-33.191,62.015a20.792,20.792,0,0,0-.657,2.342c0,1.727,1.005,3.324,2.956,4.752a26.468,26.468,0,0,0,8.235,3.619c6.667,1.9,15.505,2.941,24.885,2.932s18.216-1.068,24.88-2.981C1674.725,626.723,1678.589,623.82,1678.586,620.429Zm-36.058,8.506c-9.121.009-17.679-.993-24.1-2.822-6.715-1.914-9.108-4.156-9.11-5.617,0-.532.787-2.1.664-2.227l32.414-60.562,33.081,61.587.013-.009a2.347,2.347,0,0,1,.225,1.146h0C1675.722,623.969,1663.1,628.915,1642.528,628.935Z" transform="translate(-205.344 -99.773)" fill="#f1bf00"/>
      <path id="Trazado_113920" data-name="Trazado 113920" d="M1754.519,786.52a5.17,5.17,0,0,0,1.718-1.821c-4.543-9.008-9.3-17.9-13.922-26.873a6.413,6.413,0,0,1-1.836-1.3,6.5,6.5,0,0,1-2.152-2.644,13.222,13.222,0,0,1-.742-1.948c-2.1.818-4.273,1.694-4.067,4.3.144,1.824,1.316,3.705,2.043,5.348q1.28,2.891,2.628,5.751,2.681,5.684,5.625,11.24,1.48,2.793,3.027,5.552c.687,1.225,1.413,3.452,2.914,3.877C1751.2,788.408,1753.334,787.3,1754.519,786.52Z" transform="translate(-299.631 -294.104)" fill="#f1bf00"/>
      <ellipse id="Elipse_6321" data-name="Elipse 6321" cx="36.361" cy="9.905" rx="36.361" ry="9.905" transform="translate(1400.411 379.681)" fill="#d5a901"/>
      <path id="Trazado_113921" data-name="Trazado 113921" d="M1644.12,468.883c17.57-.017,32.226-3.426,35.613-7.942-1.93-4.975-17.386-8.838-36.166-8.82-17.57.017-32.225,3.426-35.613,7.942C1609.884,465.038,1625.34,468.9,1644.12,468.883Z" transform="translate(-206.805 -72.44)" fill="#1f2144"/>
      <path id="Trazado_113922" data-name="Trazado 113922" d="M1806.97,918.761c1.2-2.508-.506-4.954-1.763-7.06-3.68-6.165-7.958-12.129-10.044-19.081a1.222,1.222,0,0,0-.294-.5c.4-.806-.117-2.011-1.2-1.693-2.878.844-5.82,1.718-8.267,3.518a6.188,6.188,0,0,0-2.565,6.141,41.125,41.125,0,0,0,2.4,8.281,93.985,93.985,0,0,0,3.595,8.794q.955,2.038,2.009,4.028c.606,1.144,1.2,2.818,2.343,3.542a4.492,4.492,0,0,0,3.15.174,20.077,20.077,0,0,0,4.414-1.322C1803.009,922.615,1805.86,921.087,1806.97,918.761Z" transform="translate(-336.058 -396.46)" fill="#f1bf00"/>
      <path id="Trazado_113923" data-name="Trazado 113923" d="M1682.124,569.907c-1.917-4.417-7.238-15.374-8.07-16.079a2.945,2.945,0,0,0-3.182-.068c-1.306.727-.484,2.237-.075,3.3.7,1.825,6.4,12.506,6.907,13.413a14.145,14.145,0,0,0,1.431,2.474,2.361,2.361,0,0,0,2.956.269C1683.563,572.411,1682.639,571.093,1682.124,569.907Z" transform="translate(-252.8 -147.268)" fill="#f1bf00"/>
      <path id="Trazado_113924" data-name="Trazado 113924" d="M1653.512,520.939c1.471-.805.547-2.123.033-3.309s-1.288-2.872-2.15-4.694a8.159,8.159,0,0,1-5.038.061c1.347,2.56,2.549,4.8,2.767,5.2a14.179,14.179,0,0,0,1.432,2.474A2.361,2.361,0,0,0,1653.512,520.939Z" transform="translate(-235.199 -117.404)" fill="#78add9"/>
      <path id="Trazado_113925" data-name="Trazado 113925" d="M1548.816,961.109c-.73.186-.5-.019-1.036.57a.753.753,0,0,0-.164.309.722.722,0,0,0-.7.852c.587,4.245.594,8.549,1.342,12.774a.855.855,0,0,0,1.105.741,6.049,6.049,0,0,0,1.645-.791,5.226,5.226,0,0,0,.553-2.082c-.159-2.168-.91-9.471-1.276-11.635C1550.194,961.285,1549.38,960.965,1548.816,961.109Z" transform="translate(-161.672 -448.736)" fill="#f79884"/>
      <path id="Trazado_113926" data-name="Trazado 113926" d="M1525.6,1004.7c-1.016-.156-3.259-.193-4.374-.234-.494.015-.674.329-.658.494.126,1.282-1.042,1.157-2.629,1.882a26.287,26.287,0,0,1-4.8,1.69c-1.91.492-1.707.193-1.766,1.4-.042.868,1.907.8,3.489.766q.374-.007.745-.009a7.215,7.215,0,0,0,2.193-.36l.388-.129a8.841,8.841,0,0,1,3.482-.405.15.15,0,0,1,.141.112c.017.131.02.2.032.333a.45.45,0,0,0,.451.4c.51,0,1.021-.005,1.537-.016.972-.02,1.887-.005,2.042-.245.173-.266.1-.319.105-.594C1525.985,1009.054,1525.969,1004.761,1525.6,1004.7Z" transform="translate(-135.396 -480.82)" fill="#1f2144"/>
      <path id="Trazado_113927" data-name="Trazado 113927" d="M1535.559,1011.263c-.068-.153-.3-.026-.228.127q.235.528.49,1.047c.074.151.3.023.228-.127Q1535.794,1011.791,1535.559,1011.263Zm1.124-.52c-.1-.135-.325-.01-.228.127a8.551,8.551,0,0,1,.627,1.029c.077.149.3.022.228-.127A8.559,8.559,0,0,0,1536.683,1010.743Zm2.128.354a8.546,8.546,0,0,0-.975-.707c-.141-.088-.3.116-.161.2a8.538,8.538,0,0,1,.975.707C1538.779,1011.409,1538.94,1011.2,1538.811,1011.1Z" transform="translate(-153.103 -485.18)" fill="#464a8a"/>
      <path id="Trazado_113928" data-name="Trazado 113928" d="M1525.981,1022.841c0-.221-.02-.468-.043-.728a16.289,16.289,0,0,1-3.6.141,16.763,16.763,0,0,0-3.515.248,29.424,29.424,0,0,1-7.436.514c0,.113,0,.245,0,.405-.016.869,1.93.739,3.51.661.249-.013.5-.023.744-.032a7.209,7.209,0,0,0,2.181-.426l.384-.14a8.841,8.841,0,0,1,3.468-.509.15.15,0,0,1,.145.108c.02.13.026.2.042.332a.45.45,0,0,0,.463.391c.509-.017,1.02-.036,1.536-.062.97-.049,1.886-.062,2.034-.306C1526.059,1023.166,1525.986,1023.115,1525.981,1022.841Z" transform="translate(-135.408 -493.864)" fill="#464a8a"/>
      <path id="Trazado_113929" data-name="Trazado 113929" d="M1536.3,716.386a23.464,23.464,0,0,0-1.5-5.443c-2.386-7.351,3.661-15.638,1.913-23.107-.925-3.954-.061-7.089-.224-11.213-.161-4.086.79-8.1,1.694-12.054,1.562-6.837,3.053-14.582-1.149-20.817a11.31,11.31,0,0,0-7.984-5.128,13.479,13.479,0,0,0-9.31,2.628.643.643,0,0,0-1.117.432q.8,18.216,1.6,36.43c.263,5.995.471,12,.957,17.977.474,5.827,1.186,11.632,1.894,17.435l2.445,20.031a.673.673,0,0,0,.652.652,40.831,40.831,0,0,0,8.894-.064.676.676,0,0,0,.652-.652,26.884,26.884,0,0,0-.456-5.715,21.7,21.7,0,0,1,.551-6.245A20.1,20.1,0,0,0,1536.3,716.386Z" transform="translate(-140.759 -210.273)" fill="#1f2144"/>
      <path id="Trazado_113930" data-name="Trazado 113930" d="M1459.275,962.765c-.741-.142-.443-.228-1.181.077a.749.749,0,0,0-.279.21.722.722,0,0,0-.992.476c-1.268,4.093-3.088,7.994-4.2,12.137a.855.855,0,0,0,.687,1.14,6.058,6.058,0,0,0,1.826-.018c.283-.008,1.289-1.4,1.384-1.651.775-2.031,3.192-8.963,3.779-11.078C1460.447,963.508,1459.845,962.873,1459.275,962.765Z" transform="translate(-91.93 -449.89)" fill="#f79884"/>
      <path id="Trazado_113931" data-name="Trazado 113931" d="M1428.847,1005.87c-1.016-.156-3.259-.193-4.374-.234-.494.015-.674.33-.658.494.125,1.282-1.042,1.157-2.629,1.882a26.306,26.306,0,0,1-4.8,1.691c-1.91.492-1.707.193-1.766,1.4-.042.868,1.907.8,3.489.765.25-.005.5-.008.745-.01a7.211,7.211,0,0,0,2.193-.36l.388-.129a8.838,8.838,0,0,1,3.482-.405.15.15,0,0,1,.141.112c.017.131.02.2.032.333a.45.45,0,0,0,.452.4c.51,0,1.021-.005,1.537-.016.972-.02,1.887-.005,2.042-.245.173-.266.1-.318.1-.594C1429.235,1010.22,1429.219,1005.927,1428.847,1005.87Z" transform="translate(-63.863 -481.682)" fill="#1f2144"/>
      <path id="Trazado_113932" data-name="Trazado 113932" d="M1438.809,1012.429c-.068-.153-.3-.026-.228.127q.235.529.49,1.048c.074.15.3.023.228-.127Q1439.044,1012.958,1438.809,1012.429Zm1.124-.52c-.1-.135-.325-.01-.228.127a8.473,8.473,0,0,1,.627,1.029c.077.149.305.022.228-.127A8.566,8.566,0,0,0,1439.933,1011.909Zm2.129.354a8.49,8.49,0,0,0-.975-.708c-.141-.088-.3.116-.161.205a8.546,8.546,0,0,1,.975.707C1442.029,1012.576,1442.19,1012.371,1442.061,1012.263Z" transform="translate(-81.57 -486.043)" fill="#464a8a"/>
      <path id="Trazado_113933" data-name="Trazado 113933" d="M1429.231,1024.007c0-.22-.02-.468-.043-.727a16.261,16.261,0,0,1-3.6.14,16.8,16.8,0,0,0-3.515.248,29.411,29.411,0,0,1-7.436.514c0,.113,0,.245,0,.405-.016.869,1.93.74,3.51.661.249-.012.5-.023.744-.032a7.224,7.224,0,0,0,2.182-.426l.384-.141a8.844,8.844,0,0,1,3.468-.509.15.15,0,0,1,.145.108c.02.13.026.2.042.331a.451.451,0,0,0,.464.391c.509-.017,1.02-.036,1.536-.062.97-.049,1.886-.062,2.034-.306C1429.309,1024.332,1429.236,1024.283,1429.231,1024.007Z" transform="translate(-63.876 -494.727)" fill="#464a8a"/>
      <path id="Trazado_113934" data-name="Trazado 113934" d="M1497.613,630.12c-1.8-.96-5.277,3.726-7.265,3.8a55.9,55.9,0,0,0-8.331.985l.22-.726c.292-.965-1.236-1.3-1.526-.346-7.385,24.431-14.772,48.87-23.041,73.021q-3.473,10.141-7.169,20.2c-.191.518.355.938.8.954l8.021.287c1.757.063,2.784-2.5,3.089-3.276a13.874,13.874,0,0,1,1.387-2.6,37.6,37.6,0,0,1,3.729-4.436c2.655-2.886,4.994-5.812,5.816-9.741.459-2.194.555-4.441.876-6.655a19.547,19.547,0,0,1,2.076-6.436c1.941-3.668,4.7-6.844,6.5-10.593,2.032-4.232,2.614-9.012,4.914-13.13,1.148-2.057,12.772-18.767,12.772-25.283C1500.48,642.222,1501.762,632.336,1497.613,630.12Z" transform="translate(-90.363 -203.949)" fill="#1f2144"/>
      <path id="Trazado_113935" data-name="Trazado 113935" d="M1379.349,389.061c-.737-2.624-3.8-15.281-4.533-17.905l-1.106-3.936c-.239-.851-.337-2.312-.947-2.985-.431-.476-1.3-.394-1.872-.448l-4.132-.392-8.1-.768a.4.4,0,0,0-.565.444q1.106,3.937,2.213,7.873c.368,1.312,3.058,12.656,3.427,13.968.239.851.338,2.312.948,2.985.431.476,1.3.394,1.871.448l4.133.392,8.1.768A.4.4,0,0,0,1379.349,389.061Z" transform="translate(-22.058 -6.244)" fill="#fffdfc"/>
      <path id="Trazado_113936" data-name="Trazado 113936" d="M1347.195,430.362l-2.212-7.873-1.106-3.937c-.239-.851-.338-2.312-.948-2.985-.431-.476-1.3-.394-1.872-.448l-4.132-.392-8.1-.768a.4.4,0,0,0-.565.444l2.212,7.873,1.106,3.936c.239.851.338,2.313.948,2.985.431.476,1.3.394,1.872.448l4.132.392,8.1.768A.4.4,0,0,0,1347.195,430.362Z" transform="translate(0 -44.197)" fill="#339ce9"/>
      <path id="Trazado_113937" data-name="Trazado 113937" d="M1339.935,395.652q-3.383-2.733-6.945-5.232a.261.261,0,0,0-.316.041,29.674,29.674,0,0,0-4.345,6.257c-.144.278.338,1.166.514.953,1.126.62,1.982.873,3.162,1.4a10.989,10.989,0,0,0,3.052.742,32.7,32.7,0,0,0,4.536.271c.894-.008,2.811.648,3.543,0C1344.735,398.67,1340.822,396.369,1339.935,395.652Z" transform="translate(-0.045 -26.795)" fill="#339ce9"/>
      <path id="Trazado_113938" data-name="Trazado 113938" d="M1450.8,427.91a.459.459,0,0,0-.627.168l-2.683,4.647-1.108-1.447a.459.459,0,1,0-.729.559l1.538,2.007a.459.459,0,0,0,.644.085.454.454,0,0,0,.162-.246l2.971-5.147A.459.459,0,0,0,1450.8,427.91Z" transform="translate(-86.741 -54.494)" fill="#339ce9"/>
      <path id="Trazado_113939" data-name="Trazado 113939" d="M1537.509,711.9q-2.585,7.233-5.844,14.2c-.071.151.154.284.225.132q3.27-6.988,5.87-14.261C1537.817,711.815,1537.565,711.747,1537.509,711.9Z" transform="translate(-150.391 -264.445)" fill="#464a8a"/>
      <path id="Trazado_113940" data-name="Trazado 113940" d="M1580.641,661.09a29.964,29.964,0,0,1-1.063,3.805l-.008,0a10,10,0,0,1-5.184-1.327c-1.715-1.137-2.373-3.053-2.889-4.95a.13.13,0,0,0-.251.069c.515,1.895,1.176,3.82,2.85,5a9.987,9.987,0,0,0,5.39,1.466,64.908,64.908,0,0,1-4.764,9.849q-4.04,7.188-8.1,14.365l-4.585,8.129a.131.131,0,0,0,.225.132l8.278-14.678c2.6-4.605,5.388-9.156,7.637-13.946a35.283,35.283,0,0,0,2.715-7.843C1580.927,661,1580.675,660.925,1580.641,661.09Z" transform="translate(-172.844 -225.045)" fill="#464a8a"/>
      <path id="Trazado_113941" data-name="Trazado 113941" d="M1550.725,807.246c-3.228,2.378-3.671,6.6-4.13,10.28a18.107,18.107,0,0,1-1.835,6.619,55.508,55.508,0,0,1-3.243,4.8,14.053,14.053,0,0,0-2.563,5.558c-.028.164.223.235.251.069.633-3.715,3.442-6.438,5.338-9.538a15.327,15.327,0,0,0,2.019-5.473c.365-2.1.463-4.248.949-6.329a9.627,9.627,0,0,1,3.345-5.763C1550.99,807.372,1550.86,807.146,1550.725,807.246Z" transform="translate(-155.788 -334.984)" fill="#464a8a"/>
      <path id="Trazado_113942" data-name="Trazado 113942" d="M1548.892,820.28l-2.351-2.211c-.122-.115-.307.069-.184.184l2.351,2.211C1548.829,820.579,1549.014,820.4,1548.892,820.28Z" transform="translate(-161.234 -342.978)" fill="#464a8a"/>
      <path id="Trazado_113943" data-name="Trazado 113943" d="M1548.241,828.664a27.5,27.5,0,0,0-2.044-2.255c-.12-.118-.3.066-.184.184a27.527,27.527,0,0,1,2.044,2.255C1548.162,828.979,1548.346,828.794,1548.241,828.664Z" transform="translate(-160.98 -349.143)" fill="#464a8a"/>
      <path id="Trazado_113944" data-name="Trazado 113944" d="M1505.882,850.13a143.094,143.094,0,0,1-9.916,22.615q-1.671,3.059-3.49,6.033c-.088.144.138.275.225.132a143.474,143.474,0,0,0,10.993-22.054q1.3-3.3,2.44-6.657C1506.188,850.04,1505.936,849.972,1505.882,850.13Z" transform="translate(-121.411 -366.642)" fill="#464a8a"/>
      <path id="Trazado_113945" data-name="Trazado 113945" d="M1577.418,365.733a12.74,12.74,0,0,0-10.99-1.6.887.887,0,0,1-.3.407c-1.283.984-.755,1.353-1.91,2.5a.832.832,0,0,1-.543.246,23.923,23.923,0,0,0,.039,11.895c.4,1.505,1.465,5.383,3.078,6.785,2.248,1.955,5.311,1.39,7.352-.217a15.349,15.349,0,0,0,6.3-11.121C1580.791,370.323,1581,368.269,1577.418,365.733Z" transform="translate(-173.527 -6.932)" fill="#f79884"/>
      <path id="Trazado_113946" data-name="Trazado 113946" d="M1597.558,419.062l-1.665-13.541c-.107-.507-1.53,1.622-1.893,2.019a12.16,12.16,0,0,1-6.02,3.661.754.754,0,0,0-.2.1.713.713,0,0,0-.59.861c.629,2.985,1.54,8.751,2.818,11.548.332.726.269-.457,1.138-.278a8.344,8.344,0,0,0,2.163-.259c.769-.092.666-.156,1.434-.248.84-.1,2.577.056,3.139-.755C1598.426,421.381,1597.724,419.844,1597.558,419.062Z" transform="translate(-191.439 -37.93)" fill="#f79884"/>
      <path id="Trazado_113947" data-name="Trazado 113947" d="M1596.358,411.21c.058.481-.125.9-.408.933s-.561-.328-.619-.809.125-.9.408-.933S1596.3,410.729,1596.358,411.21Z" transform="translate(-197.464 -41.593)" fill="#1f2144"/>
      <path id="Trazado_113948" data-name="Trazado 113948" d="M1570.941,411.168c.058.481-.125.9-.408.933s-.561-.328-.619-.809.125-.9.408-.933S1570.883,410.687,1570.941,411.168Z" transform="translate(-178.672 -41.562)" fill="#1f2144"/>
      <path id="Trazado_113949" data-name="Trazado 113949" d="M1595.232,403.222a1.82,1.82,0,0,0-.282-.123,3.549,3.549,0,0,0-2.628-.017c-.384.216-.747.718-.181.928a4.941,4.941,0,0,0,1.662.111,2.911,2.911,0,0,0,1.282-.157C1595.542,403.723,1595.547,403.451,1595.232,403.222Z" transform="translate(-194.897 -35.999)" fill="#1f2144"/>
      <path id="Trazado_113950" data-name="Trazado 113950" d="M1563.619,404.322a2.909,2.909,0,0,0,1.279.181,4.936,4.936,0,0,0,1.664-.079c.57-.2.217-.708-.164-.931a3.549,3.549,0,0,0-2.628-.032,1.82,1.82,0,0,0-.285.118C1563.167,403.8,1563.167,404.073,1563.619,404.322Z" transform="translate(-173.762 -36.288)" fill="#1f2144"/>
      <path id="Trazado_113951" data-name="Trazado 113951" d="M1581.512,414.628c-.59.024-1.311,0-1.516-.683a3.6,3.6,0,0,1,.089-1.526l.47-3c.026-.164-.225-.235-.251-.069l-.372,2.372a9.821,9.821,0,0,0-.241,1.9c.046,1.064.9,1.3,1.822,1.265C1581.679,414.882,1581.68,414.621,1581.512,414.628Z" transform="translate(-185.907 -40.75)" fill="#db745e"/>
      <path id="Trazado_113952" data-name="Trazado 113952" d="M1582.991,433.514a7.757,7.757,0,0,1-4.873.094c-.054.021-.11.066-.1.126a2.555,2.555,0,0,0,2.479,1.638,2.808,2.808,0,0,0,2.65-1.7C1583.175,433.586,1583.091,433.474,1582.991,433.514Z" transform="translate(-184.674 -58.677)" fill="#fff"/>
      <path id="Trazado_113953" data-name="Trazado 113953" d="M1580.051,362.525a7.041,7.041,0,0,0-1.526-4.138,8.294,8.294,0,0,0-4.154-2.26,8.14,8.14,0,0,0-6.109-1.946,12.931,12.931,0,0,0-5.778,2.308c-1.089.735-2.474,1.574-3.049,2.8l-.005,0-.042.077a6.131,6.131,0,0,0,.17,5.523c.072.133.14.228.251.261a.37.37,0,0,0,.373-.073c1.028-.912,2.547-.129,3.839-.488a7.587,7.587,0,0,1,2.219-.431,16.648,16.648,0,0,0,1.906.129,4.726,4.726,0,0,0,4-3.6c-.029.629-.08,1.257-.153,1.888a8.721,8.721,0,0,0,.7,3.387c.814,1.445,2.606.749,2.563,3.986-.023,1.712-.518,2.94-.159,4a.264.264,0,0,0,.436.115,11.48,11.48,0,0,0,2.244-3.421,10.024,10.024,0,0,0,1.607-3.058A11.676,11.676,0,0,0,1580.051,362.525Z" transform="translate(-170.468)" fill="#1f2144"/>
      <path id="Trazado_113954" data-name="Trazado 113954" d="M1606.822,400.333a.13.13,0,0,0,0,.261c.5,0,.569.481.54.885a.983.983,0,0,1-.538.864c-.148.079-.017.3.131.225a1.363,1.363,0,0,0,.671-1.374A.8.8,0,0,0,1606.822,400.333Z" transform="translate(-205.875 -34.151)" fill="#db745e"/>
      <path id="Trazado_113955" data-name="Trazado 113955" d="M1585.837,456.408a14.43,14.43,0,0,1,1.58,4.258c2.522-.653,5.088-1.164,7.59-1.879a13.662,13.662,0,0,1,4.128-3.745l.26-.11c-.253-.092-.507-.18-.765-.26a20.392,20.392,0,0,0-1.064-2.532c-.234-.4-.554-1.177-1.132-1.087a4.376,4.376,0,0,0-.962.388q-.694.3-1.386.6c-.842.368-1.706.69-2.517,1.122-2.112,1.126-2.169.858-3.287.325-.4-.189-.678-.325-1,.063a5.154,5.154,0,0,0-.839,1.833q-.51.2-1.005.393C1585.577,455.986,1585.713,456.2,1585.837,456.408Z" transform="translate(-190.157 -71.645)" fill="#f5e4d5"/>
      <path id="Trazado_113956" data-name="Trazado 113956" d="M1598.566,464.947c-.531-.512-.987-1.045-1.521-1.553-.138-.147-.25-.13-.322-.019-.406.627-.876,1.245-1.227,1.9a1.233,1.233,0,0,0,0,1.232,6.926,6.926,0,0,0,1.084,1.492c.242.27.436.614.813.463a3.994,3.994,0,0,0,1.745-2.4C1599.215,465.581,1598.887,465.257,1598.566,464.947Z" transform="translate(-197.472 -80.697)" fill="#1f2144"/>
      <path id="Trazado_113957" data-name="Trazado 113957" d="M1544.892,466.836a14.346,14.346,0,0,0-4.048-1.956c-.032-.109-2.535,1.512-4.013,2.3a7.5,7.5,0,0,1-5.754.731,5.821,5.821,0,0,1-2.961-2.108c-5.171,2.02-9.116,3.889-12.127,8.643-4.629,7.308-4.12,9.82-5.908,21.2-.729,4.638-3.045,17.24-2.807,18.37a16.613,16.613,0,0,0,.833,3.447c.737,1.6,3.181,1.181,4.583,1.043,2.413-.237,4.789-.776,7.192-1.093,4.857-.639,16.513-1.711,21.39-1.871,4.114-.135,2.848-2.566,4.431-6.777.146-.39,2.423-10.729,3.876-19.975C1550.755,481.3,1552.023,471.858,1544.892,466.836Z" transform="translate(-132.355 -81.87)" fill="#bf3976"/>
      <path id="Trazado_113958" data-name="Trazado 113958" d="M1411.753,488.138c.215,4.189,2.114,20.744,2.149,21.883.019.616-.148,1.417.257,1.927.086.109,28.331,1.981,30.732,2,.607.073,1.016-.037.988-.409-.578-7.667-1.117-15.877-1.435-23.435a.716.716,0,0,0-.131-.371c-.049-.124-.339-.138-.51-.152-11.054-.9-20.542-1.44-31.627-1.811A.4.4,0,0,0,1411.753,488.138Z" transform="translate(-61.744 -98.795)" fill="#1f2144"/>
      <path id="Trazado_113959" data-name="Trazado 113959" d="M1468.9,531.308a1.7,1.7,0,0,0-.216,3.382A1.7,1.7,0,0,0,1468.9,531.308Z" transform="translate(-102.706 -130.984)" fill="#797a8a"/>
      <path id="Trazado_113960" data-name="Trazado 113960" d="M1464.388,578.24a.4.4,0,0,0-.365-.415,191.505,191.505,0,0,0-22.682-2.647q-5.639-.315-11.291-.295-2.824.01-5.647.105a14.8,14.8,0,0,0-2.743.1c.028-.129.057-.253.082-.364.109-.486-.63-.746-.739-.255a3.257,3.257,0,0,0,.281,2.885,2.165,2.165,0,0,0,1.471.615c1.02.134,2.05.213,3.074.314q6.278.62,12.571,1.067,12.713.9,25.463,1.1a.4.4,0,0,0,.415-.365Z" transform="translate(-68.438 -162.703)" fill="#1f2144"/>
      <path id="Trazado_113961" data-name="Trazado 113961" d="M1470.924,571.83a2.844,2.844,0,0,0-.313-.374c-.09-.115-.167-.218-.235-.318a16.027,16.027,0,0,1-.161-3.552c0-.807.1-2.422-.784-2.842a.132.132,0,0,0-.178.047,2.69,2.69,0,0,0-.145,1.131c-.008.613-.014,1.227-.005,1.84q0,.329.021.655c-.234-.3-.484-.583-.725-.863a9.068,9.068,0,0,0-.693-.827,18.66,18.66,0,0,1-1.4-2.261c-.319-.609-.608-1.238-.9-1.858-.24-.5-.232-1.037-.671-1.092-.933-.116.19,2.35.327,2.693a16.139,16.139,0,0,0,1.361,2.664c-.082.064-.16.125-.236.182a16.192,16.192,0,0,1-2.245-3.809c-.118-.255-1.2-2.083-1.5-1.462-.226.476.184,1.245.342,1.706a18.966,18.966,0,0,0,2.154,4.371q-.111.074-.218.149a35.938,35.938,0,0,1-1.9-3.407c-.107-.211-1.371-2.468-1.7-1.692a52.374,52.374,0,0,0,2.648,5.394c.263.482.014.359-.121.22-.164-.214-2-3.437-2.424-3.23-.372.181.664,2.449,1.44,3.389a26.812,26.812,0,0,0,2.307,2.818,5.846,5.846,0,0,0,1.885,1.352c1.021.4,2.145.339,3.155.784a.211.211,0,0,0,.28-.109.22.22,0,0,0,.063-.066C1470.73,572.86,1471.382,572.694,1470.924,571.83Z" transform="translate(-98.24 -153.319)" fill="#f79884"/>
      <path id="Trazado_113962" data-name="Trazado 113962" d="M1531.706,509.493a14.254,14.254,0,0,0-3.537-1.526c-1.528-.551-3.07-1.059-4.622-1.536a.371.371,0,0,0-.48.38.4.4,0,0,0-.636.181c-2.11,7.133-4.341,14.6-9.549,20.16-2.425,2.586-5.611,4.911-9.174,5.526-4.089.706-7.827-1.554-11.158-3.618a.4.4,0,0,0-.535.14,39.164,39.164,0,0,0-3.46,5.865.406.406,0,0,0,.14.535,32.771,32.771,0,0,0,13.687,5.824c4.833.832,9.948.71,14.283-1.809,3.946-2.293,6.9-6,9.26-9.833a56.024,56.024,0,0,0,6.275-14.355C1532.75,513.456,1533.718,510.945,1531.706,509.493Z" transform="translate(-118.493 -112.581)" fill="#bf3976"/>
      <path id="Trazado_113963" data-name="Trazado 113963" d="M1563.056,537.313a41.637,41.637,0,0,1-9.248,16.54,29.363,29.363,0,0,1-16.6,9.02,23.9,23.9,0,0,1-10.879-.719c-.161-.05-.229.2-.069.251a25.9,25.9,0,0,0,18.853-1.771,33.366,33.366,0,0,0,13.861-13.274,45.689,45.689,0,0,0,4.33-9.978A.13.13,0,0,0,1563.056,537.313Z" transform="translate(-146.341 -135.36)" fill="#1f2144"/>
      <path id="Trazado_113964" data-name="Trazado 113964" d="M1638.931,477.631c-.128-.106-.313.077-.184.184a8.284,8.284,0,0,1,2.962,5.357c.021.164.282.166.261,0A8.543,8.543,0,0,0,1638.931,477.631Z" transform="translate(-229.54 -91.278)" fill="#1f2144"/>
      <path id="Trazado_113965" data-name="Trazado 113965" d="M1617.287,506.073c-2.629.59-4.627,2.668-6.261,4.689A56.578,56.578,0,0,0,1606.3,518a.13.13,0,0,0,.225.132,57.812,57.812,0,0,1,4.54-7c1.631-2.052,3.633-4.2,6.289-4.8C1617.52,506.287,1617.45,506.036,1617.287,506.073Z" transform="translate(-205.57 -112.327)" fill="#1f2144"/>
      <path id="Trazado_113966" data-name="Trazado 113966" d="M1589.228,586.349l-1.539-1.91c-.105-.131-.289.055-.184.185l1.539,1.91C1589.149,586.664,1589.332,586.478,1589.228,586.349Z" transform="translate(-191.663 -170.237)" fill="#1f2144"/>
      <path id="Trazado_113967" data-name="Trazado 113967" d="M1585.947,590.32c-.052-.159-.3-.091-.251.069a12.539,12.539,0,0,1,.489,2.094c.024.165.275.1.252-.069A12.57,12.57,0,0,0,1585.947,590.32Z" transform="translate(-190.343 -174.551)" fill="#1f2144"/>
      <path id="Trazado_113968" data-name="Trazado 113968" d="M1536.676,600.716c-2.238.808-4.587,1.621-6.994,1.165-.164-.031-.234.22-.069.251,2.459.466,4.842-.338,7.133-1.165C1536.9,600.911,1536.834,600.659,1536.676,600.716Z" transform="translate(-148.814 -182.298)" fill="#1f2144"/>
      <path id="Trazado_113969" data-name="Trazado 113969" d="M1711.264,929.211c-1.463-2.113-3.194-4.079-3.836-6.629-.483-1.917-.763-4.712-3.13-5.253-2.142-.491-3.666,1.5-4.429,3.2-1.188,2.65-2.264,5.252-4.455,7.262-1.937,1.777-4.649,3.1-5.773,5.608-.818,1.827,1.411,3.972,4.1,4.489a21.918,21.918,0,0,0,4.66-.105,85.671,85.671,0,0,0,8.986-.4c1.739-.231,5-.668,5.813-2.562C1713.97,933.019,1712.224,930.6,1711.264,929.211Z" transform="translate(-267.074 -416.336)" fill="#f5e4d5"/>
      <path id="Trazado_113970" data-name="Trazado 113970" d="M1742.669,819.526c-.035-.279-.338-1.556-.843-1.139a.291.291,0,0,0-.075.072l-.008.007a1,1,0,0,0-.182.534.269.269,0,0,0-.042.12,5.717,5.717,0,0,0-.026.7,4.768,4.768,0,0,0,.1,1.123.215.215,0,0,0,.163.175.407.407,0,0,0,.232.143C1742.758,821.433,1742.719,819.932,1742.669,819.526Z" transform="translate(-305.536 -343.179)" fill="#f5e4d5"/>
      <path id="Trazado_113971" data-name="Trazado 113971" d="M1744.386,877.975c-.009-.009-.019-.013-.029-.02-.007-.027-.012-.054-.02-.08a.264.264,0,0,0-.476-.062,2.347,2.347,0,0,0-.231,1.534.264.264,0,0,0,.476.062c.009-.013.015-.026.024-.039a1.081,1.081,0,0,0,.256-1.394Z" transform="translate(-307.072 -387.083)" fill="#f5e4d5"/>
      <path id="Trazado_113972" data-name="Trazado 113972" d="M1328.5,416.206l14.895,1.347a2.67,2.67,0,0,0-.169-.275l-14.825-1.341A1.505,1.505,0,0,0,1328.5,416.206Z" transform="translate(-0.116 -45.688)" fill="#f5e4d5"/>
    </g>
  </g>
</svg>
