<svg xmlns="http://www.w3.org/2000/svg" width="207.234" height="207" viewBox="0 0 207.234 207">
  <g id="Grupo_58711" data-name="Grupo 58711" transform="translate(-437.693 -2093.205)">
    <g id="Grupo_57982" data-name="Grupo 57982" transform="translate(416.977 2110.315)">
      <g id="Grupo_57983" data-name="Grupo 57983" transform="translate(0 0)">
        <path id="Trazado_100598" data-name="Trazado 100598" d="M123.468,0c32.157.283,105.341,144.661,77.62,177.259S-7.646,172.151.251,125.582,91.312-.281,123.468,0Z" transform="translate(227.95 189.509) rotate(180)" fill="#bf3976" opacity="0.15" style="isolation: isolate"/>
        <path id="Trazado_100598-2" data-name="Trazado 100598" d="M78.622,0C99.1.181,145.7,92.118,128.049,112.876S-4.869,109.623.16,79.968,58.145-.179,78.622,0Z" transform="matrix(-0.259, -0.966, 0.966, -0.259, 104.871, 182.105)" fill="#bf3976" opacity="0.2" style="isolation: isolate"/>
      </g>
    </g>
    <g id="Grupo_57981" data-name="Grupo 57981" transform="translate(446.285 2093.205)">
      <g id="Grupo_57978" data-name="Grupo 57978" transform="translate(47.013 78.858)">
        <path id="Trazado_112073" data-name="Trazado 112073" d="M3109.021,1669.682c1.28,15.436,12.368,28.723,23.754,38.176,22.014,18.278,39.106,24.215,39.779,24.358a2.572,2.572,0,0,0,3.03-1.966c.174-1.81.3-3.626.367-5.443a84.922,84.922,0,0,0-9.232-40.89,83.387,83.387,0,0,0-11.685-17.366c-4.74-5.435-10.229-10.619-16.563-14.149-6.17-3.437-13.771-4.854-20.362-1.7a15.217,15.217,0,0,0-7.356,7.01A23.514,23.514,0,0,0,3109.021,1669.682Z" transform="translate(-3108.904 -1648.945)" fill="#339ce9"/>
        <path id="Trazado_112074" data-name="Trazado 112074" d="M3122.384,1908.286c5.2,7.955,15.058,11.887,23.96,13.664,17.213,3.436,28.167,1.65,28.572,1.53a1.578,1.578,0,0,0,1.061-1.945c-.434-1.027-.894-2.045-1.39-3.044a52.092,52.092,0,0,0-16.917-19.367,51.125,51.125,0,0,0-11.374-5.959,39.332,39.332,0,0,0-13.067-2.8c-4.333-.054-8.847,1.4-11.483,5.025a9.333,9.333,0,0,0-1.922,5.93A14.417,14.417,0,0,0,3122.384,1908.286Z" transform="translate(-3116.799 -1823.629)" fill="#339ce9"/>
        <path id="Trazado_112075" data-name="Trazado 112075" d="M3125.677,1664.816c6.6,6.21,13.1,12.526,19.353,19.081,6.2,6.491,12.154,13.215,17.7,20.272a191.131,191.131,0,0,1,15.292,22.406,149.375,149.375,0,0,1,11.309,24.137,119.748,119.748,0,0,1,6.254,25.77q.206,1.665.36,3.335a.138.138,0,0,1-.275.025,117.017,117.017,0,0,0-5.581-26.1,145.352,145.352,0,0,0-10.877-24.511,184.9,184.9,0,0,0-14.709-22.321,265.673,265.673,0,0,0-17.573-20.608c-6.114-6.517-12.482-12.791-18.961-18.942q-1.231-1.169-2.468-2.332C3125.371,1664.907,3125.547,1664.694,3125.677,1664.816Z" transform="translate(-3120.879 -1660.402)" fill="#1f2144"/>
        <path id="Trazado_112076" data-name="Trazado 112076" d="M3124.679,1917.048a112.288,112.288,0,0,1,33.159,10.182,88.822,88.822,0,0,1,15.037,9.01,60.793,60.793,0,0,1,19.66,26.1c.065.166-.2.238-.267.073a60.691,60.691,0,0,0-18.326-24.983,82.913,82.913,0,0,0-14.575-9.127,111.742,111.742,0,0,0-34.762-10.984C3124.43,1917.289,3124.505,1917.023,3124.679,1917.048Z" transform="translate(-3120.193 -1842.935)" fill="#1f2144"/>
        <path id="Trazado_112077" data-name="Trazado 112077" d="M3313.51,2019.393c6.166-.01,20.288-.217,24.6-.253.4,0,.664-.3.6.221-.327,2.718-.654,5.439-1.126,8.121a22.789,22.789,0,0,1-1.6,6.154,3.92,3.92,0,0,1-3.567,2.216c-2.067.14-4.15.1-6.219.142a29.685,29.685,0,0,1-5.757-.006,4.7,4.7,0,0,1-3.371-3.029,58.99,58.99,0,0,1-2.47-6.793,56.428,56.428,0,0,1-1.7-6.55C3312.8,2019.1,3313.109,2019.394,3313.51,2019.393Z" transform="translate(-3256.5 -1916.743)" fill="#1f2144"/>
      </g>
      <path id="Trazado_112078" data-name="Trazado 112078" d="M3027.58,1741.967l-2.759-.182,27.012-129.289,2.758.182Z" transform="translate(-3001.052 -1543.714)" fill="#1f2144"/>
      <path id="Trazado_112079" data-name="Trazado 112079" d="M3247.334,1737.967l2.758-.182L3223.082,1608.5l-2.759.182Z" transform="translate(-3142.51 -1540.819)" fill="#1f2144"/>
      <g id="Grupo_57979" data-name="Grupo 57979" transform="translate(0 0)">
        <path id="Trazado_112080" data-name="Trazado 112080" d="M3062.578,1462.636H2942.56a2.076,2.076,0,0,1-2.03-2.119l-1.7-94.724a2.076,2.076,0,0,1,2.03-2.119h120.018a2.076,2.076,0,0,1,2.03,2.119l1.7,94.724A2.076,2.076,0,0,1,3062.578,1462.636Z" transform="translate(-2938.832 -1363.674)" fill="#f5e4d5"/>
        <path id="Trazado_112081" data-name="Trazado 112081" d="M3145.1,1408.833a.422.422,0,0,0-.415-.415c-4.78-.182-18.846-.188-19.949-.23-.909-.035-.72.8-.718.947.046,3.328.037,13.128.165,14.741.057.717.167,1.076.9,1.255,1.4.34,15.422.286,18.875.322,1.094.011,1.036-.288,1.094-2.131C3145.289,1415.648,3144.978,1414.408,3145.1,1408.833Z" transform="translate(-3072.811 -1395.883)" fill="#fff"/>
        <path id="Trazado_112082" data-name="Trazado 112082" d="M3275.855,1410.628a.421.421,0,0,0-.414-.415c-4.779-.182-18.846-.188-19.949-.23-.909-.035-.72.8-.718.947.045,3.329.037,13.129.165,14.741.057.717.166,1.076.9,1.255,1.4.34,15.422.286,18.874.322,1.095.012,1.037-.288,1.095-2.13C3276.049,1417.443,3275.737,1416.2,3275.855,1410.628Z" transform="translate(-3167.425 -1397.181)" fill="#fff"/>
        <path id="Trazado_112083" data-name="Trazado 112083" d="M3156.345,1567.689a.421.421,0,0,0-.415-.415c-4.779-.182-18.846-.188-19.948-.23-.909-.035-.72.8-.718.947.045,3.328.037,13.128.165,14.741.056.717.166,1.076.9,1.255,1.4.34,15.422.286,18.875.322,1.094.012,1.037-.288,1.094-2.131C3156.539,1574.5,3156.228,1573.263,3156.345,1567.689Z" transform="translate(-3080.951 -1510.826)" fill="#fff"/>
        <path id="Trazado_112084" data-name="Trazado 112084" d="M3022.354,1568.528a.422.422,0,0,0-.415-.415c-4.779-.182-18.846-.188-19.949-.23-.908-.035-.72.8-.718.947.045,3.328.037,13.128.165,14.741.057.717.166,1.076.9,1.255,1.4.34,15.423.286,18.875.322,1.094.012,1.037-.288,1.094-2.131C3022.548,1575.343,3022.236,1574.1,3022.354,1568.528Z" transform="translate(-2984 -1511.433)" fill="#fff"/>
        <path id="Trazado_112085" data-name="Trazado 112085" d="M3015.7,1411.128a.422.422,0,0,0-.415-.415c-4.78-.182-18.847-.188-19.95-.23-.909-.035-.719.8-.717.947.045,3.328.037,13.128.165,14.741.057.718.166,1.076.9,1.255,1.4.34,15.422.286,18.875.322,1.094.011,1.037-.288,1.094-2.131C3015.9,1417.942,3015.586,1416.7,3015.7,1411.128Z" transform="translate(-2979.188 -1397.542)" fill="#fff"/>
        <path id="Trazado_112086" data-name="Trazado 112086" d="M3282.675,1570.027a.422.422,0,0,0-.415-.415c-4.78-.182-18.846-.188-19.949-.23-.909-.035-.72.8-.718.947.045,3.328.037,13.129.165,14.741.057.717.166,1.076.9,1.255,1.395.34,15.422.286,18.875.322,1.094.011,1.036-.288,1.094-2.131C3282.869,1576.842,3282.558,1575.6,3282.675,1570.027Z" transform="translate(-3172.36 -1512.517)" fill="#fff"/>
        <path id="Trazado_112087" data-name="Trazado 112087" d="M3157.321,1410.97a17.542,17.542,0,0,0-1.571,2.136c-.094.152.145.29.239.139a17.115,17.115,0,0,1,1.527-2.08C3157.632,1411.031,3157.437,1410.835,3157.321,1410.97Z" transform="translate(-3095.772 -1397.863)" fill="#fff"/>
        <path id="Trazado_112088" data-name="Trazado 112088" d="M3160.5,1401.822a15.767,15.767,0,0,0-1.409-.963c-.1-.063-.165.073-.26.219-.182.281-.61.914-.794,1.192-.114-.022-1.467.026-1.573.512a2.155,2.155,0,0,0,.331,1.146c.431.648,2.109,1.632,2.5,1.008a3.62,3.62,0,0,0,.166-1.565q.536-.685,1.059-1.381A.138.138,0,0,0,3160.5,1401.822Z" transform="translate(-3096.297 -1390.568)" fill="#78add9"/>
        <path id="Trazado_112089" data-name="Trazado 112089" d="M3180.365,1574.387a17.655,17.655,0,0,0-1.571,2.137c-.094.152.145.29.239.14a17.1,17.1,0,0,1,1.528-2.081C3180.676,1574.448,3180.481,1574.252,3180.365,1574.387Z" transform="translate(-3112.446 -1516.106)" fill="#fff"/>
        <path id="Trazado_112090" data-name="Trazado 112090" d="M3179.877,1558.905a15.693,15.693,0,0,0-1.41-.964c-.1-.063-.165.073-.26.219-.182.282-.609.914-.794,1.192-.114-.022-1.467.026-1.573.513a2.16,2.16,0,0,0,.331,1.146c.432.648,2.11,1.632,2.5,1.008a3.622,3.622,0,0,0,.165-1.565q.537-.685,1.059-1.381A.138.138,0,0,0,3179.877,1558.905Z" transform="translate(-3110.318 -1504.229)" fill="#78add9"/>
        <path id="Trazado_112091" data-name="Trazado 112091" d="M3041.706,1566.393a17.632,17.632,0,0,0-1.571,2.137c-.094.151.145.29.239.14a17.12,17.12,0,0,1,1.527-2.081C3042.017,1566.454,3041.822,1566.257,3041.706,1566.393Z" transform="translate(-3012.116 -1510.322)" fill="#fff"/>
        <path id="Trazado_112092" data-name="Trazado 112092" d="M3044.885,1557.244a15.644,15.644,0,0,0-1.41-.964c-.1-.063-.164.073-.259.219-.183.281-.609.914-.794,1.192-.113-.022-1.466.025-1.573.513a2.161,2.161,0,0,0,.331,1.146c.432.648,2.111,1.632,2.5,1.008a3.611,3.611,0,0,0,.166-1.565q.537-.685,1.058-1.381A.138.138,0,0,0,3044.885,1557.244Z" transform="translate(-3012.641 -1503.027)" fill="#78add9"/>
        <path id="Trazado_112093" data-name="Trazado 112093" d="M3286.581,1412.431a17.644,17.644,0,0,0-1.571,2.136c-.094.151.145.29.239.14a17.176,17.176,0,0,1,1.527-2.081C3286.891,1412.492,3286.7,1412.3,3286.581,1412.431Z" transform="translate(-3189.3 -1398.92)" fill="#fff"/>
        <path id="Trazado_112094" data-name="Trazado 112094" d="M3289.76,1403.282a15.676,15.676,0,0,0-1.41-.963c-.1-.064-.165.073-.259.219-.183.281-.609.914-.794,1.192-.113-.022-1.466.025-1.573.512a2.154,2.154,0,0,0,.331,1.146c.432.648,2.109,1.632,2.5,1.008a3.628,3.628,0,0,0,.166-1.566q.536-.685,1.058-1.381A.138.138,0,0,0,3289.76,1403.282Z" transform="translate(-3189.825 -1391.625)" fill="#78add9"/>
        <path id="Trazado_112095" data-name="Trazado 112095" d="M3299.235,1569.6a17.543,17.543,0,0,0-1.571,2.137c-.095.151.145.29.239.14a17.087,17.087,0,0,1,1.528-2.081C3299.545,1569.666,3299.35,1569.469,3299.235,1569.6Z" transform="translate(-3198.456 -1512.646)" fill="#fff"/>
        <path id="Trazado_112096" data-name="Trazado 112096" d="M3302.413,1560.456a15.6,15.6,0,0,0-1.409-.963c-.1-.063-.165.073-.259.219-.183.282-.61.914-.794,1.192-.114-.022-1.466.026-1.573.513a2.167,2.167,0,0,0,.331,1.146c.432.648,2.11,1.632,2.5,1.008a3.621,3.621,0,0,0,.166-1.565c.357-.457.712-.916,1.058-1.381A.138.138,0,0,0,3302.413,1560.456Z" transform="translate(-3198.981 -1505.351)" fill="#78add9"/>
        <path id="Trazado_112097" data-name="Trazado 112097" d="M3033.057,1411.165a17.667,17.667,0,0,0-1.571,2.136c-.094.151.145.29.239.14a17.117,17.117,0,0,1,1.528-2.081C3033.368,1411.226,3033.173,1411.03,3033.057,1411.165Z" transform="translate(-3005.858 -1398.004)" fill="#fff"/>
        <path id="Trazado_112098" data-name="Trazado 112098" d="M3036.236,1402.016a15.537,15.537,0,0,0-1.41-.964c-.1-.063-.165.073-.259.219-.183.282-.61.914-.794,1.192-.114-.022-1.467.025-1.573.512a2.169,2.169,0,0,0,.331,1.146c.432.648,2.11,1.632,2.5,1.007a3.627,3.627,0,0,0,.166-1.565q.536-.685,1.058-1.381A.138.138,0,0,0,3036.236,1402.016Z" transform="translate(-3006.383 -1390.708)" fill="#78add9"/>
        <path id="Trazado_112099" data-name="Trazado 112099" d="M3020.606,1431.317c-11.334-.151-4.314-.027-15.648-.178a.138.138,0,0,0,0,.277c11.333.151,4.314.026,15.648.177A.138.138,0,0,0,3020.606,1431.317Z" transform="translate(-2986.582 -1412.49)" fill="#1f2144"/>
        <path id="Trazado_112100" data-name="Trazado 112100" d="M3027.255,1587.544c-11.333-.151-4.313-.027-15.647-.178a.138.138,0,0,0,0,.276c11.334.151,4.314.027,15.647.178A.138.138,0,0,0,3027.255,1587.544Z" transform="translate(-2991.393 -1525.531)" fill="#1f2144"/>
        <path id="Trazado_112101" data-name="Trazado 112101" d="M3027,1608.294c-11.333-.151-4.313-.027-15.647-.178a.138.138,0,0,0,0,.277c11.334.151,4.314.027,15.647.178A.138.138,0,0,0,3027,1608.294Z" transform="translate(-2991.213 -1540.545)" fill="#1f2144"/>
        <path id="Trazado_112102" data-name="Trazado 112102" d="M3146.055,1426.815l-10.707-.143a.138.138,0,0,0,0,.276l10.707.143A.138.138,0,0,0,3146.055,1426.815Z" transform="translate(-3080.929 -1409.258)" fill="#1f2144"/>
        <path id="Trazado_112103" data-name="Trazado 112103" d="M3164.68,1587.171l-10.706-.143a.138.138,0,0,0,0,.277l10.706.143A.138.138,0,0,0,3164.68,1587.171Z" transform="translate(-3094.406 -1525.286)" fill="#1f2144"/>
        <path id="Trazado_112104" data-name="Trazado 112104" d="M3164.93,1595.3l-10.707-.143a.138.138,0,0,0,0,.276l10.707.143A.138.138,0,0,0,3164.93,1595.3Z" transform="translate(-3094.586 -1531.165)" fill="#1f2144"/>
        <path id="Trazado_112105" data-name="Trazado 112105" d="M3165.181,1605.046l-10.707-.143a.138.138,0,0,0,0,.276l10.707.143A.138.138,0,0,0,3165.181,1605.046Z" transform="translate(-3094.768 -1538.22)" fill="#1f2144"/>
        <path id="Trazado_112106" data-name="Trazado 112106" d="M3280.869,1431.859l-14.34-.143c-.238,0-.238.274,0,.276l14.34.143C3281.107,1432.138,3281.107,1431.861,3280.869,1431.859Z" transform="translate(-3175.814 -1412.907)" fill="#1f2144"/>
        <path id="Trazado_112107" data-name="Trazado 112107" d="M3281.2,1440.484l-14.34-.143c-.239,0-.239.274,0,.276l14.34.143C3281.442,1440.763,3281.442,1440.486,3281.2,1440.484Z" transform="translate(-3176.056 -1419.148)" fill="#1f2144"/>
        <path id="Trazado_112108" data-name="Trazado 112108" d="M3280.622,1462.484l-14.34-.143c-.239,0-.239.274,0,.276l14.34.143C3280.86,1462.763,3280.86,1462.487,3280.622,1462.484Z" transform="translate(-3175.635 -1435.067)" fill="#1f2144"/>
        <path id="Trazado_112109" data-name="Trazado 112109" d="M3150.08,1460.267c-11.334-.151-4.314-.026-15.648-.177a.138.138,0,0,0,0,.276c11.334.151,4.314.026,15.648.177A.138.138,0,0,0,3150.08,1460.267Z" transform="translate(-3080.266 -1433.437)" fill="#1f2144"/>
        <path id="Trazado_112110" data-name="Trazado 112110" d="M3289.468,1588.514l-10.707-.143a.138.138,0,0,0,0,.276l10.707.143A.138.138,0,0,0,3289.468,1588.514Z" transform="translate(-3184.698 -1526.258)" fill="#1f2144"/>
        <path id="Trazado_112111" data-name="Trazado 112111" d="M3051.8,1491.861c0-.132-.072-.233-.152-.237-1.751-.1-6.906-.107-7.31-.132-.333-.02-.264.456-.263.542.016,1.9.013,6.256.06,7.177.021.41.061.615.331.718.511.194,5.652.164,6.917.184.4.006.38-.165.4-1.219C3051.867,1494.507,3051.753,1495.048,3051.8,1491.861Z" transform="translate(-3014.975 -1456.159)" fill="#fff"/>
        <path id="Trazado_112112" data-name="Trazado 112112" d="M3193.607,1648.937c0-.132-.071-.232-.152-.237-1.751-.1-6.906-.108-7.311-.132-.333-.02-.264.456-.263.542.017,1.9.013,6.256.06,7.177.021.41.061.615.331.718.511.195,5.651.164,6.917.185.4.006.38-.165.4-1.219C3193.677,1651.583,3193.563,1652.124,3193.607,1648.937Z" transform="translate(-3117.584 -1569.814)" fill="#fff"/>
        <path id="Trazado_112113" data-name="Trazado 112113" d="M3185.3,1488.694c0-.132-.071-.232-.152-.237-1.751-.1-6.906-.108-7.311-.132-.333-.02-.264.456-.263.542.017,1.9.014,6.256.06,7.178.021.41.061.615.331.718.511.194,5.651.163,6.917.184.4.007.38-.164.4-1.218C3185.366,1491.34,3185.253,1491.881,3185.3,1488.694Z" transform="translate(-3111.571 -1453.868)" fill="#464a8a"/>
        <path id="Trazado_112114" data-name="Trazado 112114" d="M3007.129,1489.861c0-.132-.071-.233-.152-.237-1.751-.1-6.906-.108-7.311-.132-.333-.02-.264.456-.263.542.017,1.9.013,6.255.06,7.177.021.41.061.615.331.718.511.195,5.652.164,6.917.184.4.006.38-.165.4-1.218C3007.2,1492.507,3007.086,1493.048,3007.129,1489.861Z" transform="translate(-2982.655 -1454.712)" fill="#e7b05b"/>
        <path id="Trazado_112115" data-name="Trazado 112115" d="M3053.495,1498.121l-5.667,0a.138.138,0,0,0,0,.276l5.667,0A.138.138,0,0,0,3053.495,1498.121Z" transform="translate(-3017.602 -1460.954)" fill="#1f2144"/>
        <path id="Trazado_112116" data-name="Trazado 112116" d="M3181.412,1493.983l5.667,0a.138.138,0,0,0,0-.276l-5.667,0A.138.138,0,0,0,3181.412,1493.983Zm5.667,1.985-5.667,0a.138.138,0,0,0,0,.276l5.667,0A.138.138,0,0,0,3187.078,1495.967Z" transform="translate(-3114.258 -1457.761)" fill="#1f2144"/>
        <path id="Trazado_112117" data-name="Trazado 112117" d="M3151.107,1647.77c0-.132-.071-.232-.152-.237-1.751-.1-6.907-.107-7.311-.131-.333-.02-.263.456-.262.541.016,1.9.013,6.256.06,7.178.021.41.061.615.331.718.511.194,5.652.164,6.917.184.4.007.38-.164.4-1.218C3151.177,1650.416,3151.063,1650.957,3151.107,1647.77Z" transform="translate(-3086.833 -1568.97)" fill="#f1bf00"/>
        <path id="Trazado_112118" data-name="Trazado 112118" d="M3147.222,1653.058l5.667,0a.138.138,0,0,0,0-.276l-5.667,0A.138.138,0,0,0,3147.222,1653.058Zm5.667,1.984-5.667,0a.138.138,0,0,0,0,.276l5.667,0A.138.138,0,0,0,3152.889,1655.043Z" transform="translate(-3089.52 -1572.864)" fill="#1f2144"/>
        <path id="Trazado_112119" data-name="Trazado 112119" d="M3059.94,1647.77c0-.132-.071-.232-.152-.237-1.751-.1-6.906-.107-7.311-.131-.333-.02-.264.456-.263.541.017,1.9.013,6.256.06,7.178.021.41.061.615.331.718.512.194,5.652.164,6.917.184.4.007.379-.164.4-1.218C3060.011,1650.416,3059.9,1650.957,3059.94,1647.77Z" transform="translate(-3020.867 -1568.97)" fill="#78add9"/>
        <path id="Trazado_112120" data-name="Trazado 112120" d="M3056.055,1653.058l5.667,0a.138.138,0,0,0,0-.276l-5.667,0A.138.138,0,0,0,3056.055,1653.058Zm5.667,1.984-5.667,0a.138.138,0,0,0,0,.276l5.667,0A.138.138,0,0,0,3061.722,1655.043Z" transform="translate(-3023.554 -1572.864)" fill="#1f2144"/>
        <path id="Trazado_112121" data-name="Trazado 112121" d="M3017.94,1647.77c0-.132-.071-.232-.152-.237-1.751-.1-6.906-.107-7.31-.131-.333-.02-.264.456-.263.541.016,1.9.013,6.256.06,7.178.021.41.061.615.33.718.511.194,5.652.164,6.917.184.4.007.38-.164.4-1.218C3018.011,1650.416,3017.9,1650.957,3017.94,1647.77Z" transform="translate(-2990.478 -1568.97)" fill="#78add9"/>
        <path id="Trazado_112122" data-name="Trazado 112122" d="M3014.055,1653.058l5.667,0a.138.138,0,0,0,0-.276l-5.667,0A.138.138,0,0,0,3014.055,1653.058Zm5.667,1.984-5.667,0a.138.138,0,0,0,0,.276l5.667,0A.138.138,0,0,0,3019.722,1655.043Z" transform="translate(-2993.165 -1572.864)" fill="#1f2144"/>
        <path id="Trazado_112123" data-name="Trazado 112123" d="M3145.3,1489.194c0-.132-.071-.232-.152-.237-1.752-.1-6.906-.108-7.31-.132-.333-.02-.264.457-.263.542.017,1.9.014,6.256.06,7.177.021.41.061.615.331.718.511.194,5.651.163,6.917.184.4.007.379-.165.4-1.218C3145.367,1491.84,3145.253,1492.381,3145.3,1489.194Z" transform="translate(-3082.628 -1454.229)" fill="#464a8a"/>
        <path id="Trazado_112124" data-name="Trazado 112124" d="M3141.411,1494.483l5.667,0a.138.138,0,0,0,0-.276l-5.667,0A.138.138,0,0,0,3141.411,1494.483Zm5.667,1.984-5.667,0a.138.138,0,0,0,0,.276l5.667,0A.138.138,0,0,0,3147.078,1496.467Z" transform="translate(-3085.315 -1458.123)" fill="#1f2144"/>
        <path id="Trazado_112125" data-name="Trazado 112125" d="M3273.8,1492.695c0-.132-.071-.232-.152-.237-1.752-.1-6.907-.108-7.311-.132-.333-.02-.264.457-.263.542.017,1.9.013,6.256.06,7.178.021.41.061.615.331.718.511.194,5.652.163,6.917.184.4.007.379-.165.4-1.218C3273.867,1495.34,3273.753,1495.881,3273.8,1492.695Z" transform="translate(-3175.607 -1456.762)" fill="#f1bf00"/>
        <path id="Trazado_112126" data-name="Trazado 112126" d="M3269.912,1497.983l5.667,0a.138.138,0,0,0,0-.276l-5.667,0A.138.138,0,0,0,3269.912,1497.983Zm5.667,1.984-5.667,0a.138.138,0,0,0,0,.276l5.667,0A.138.138,0,0,0,3275.578,1499.967Z" transform="translate(-3178.294 -1460.656)" fill="#1f2144"/>
        <path id="Trazado_112127" data-name="Trazado 112127" d="M3314.8,1493.194c0-.131-.071-.232-.152-.237-1.752-.1-6.906-.108-7.31-.132-.333-.02-.264.456-.263.542.017,1.9.013,6.256.06,7.178.021.41.061.615.33.718.511.194,5.652.163,6.917.184.4.007.38-.164.4-1.218C3314.867,1495.84,3314.753,1496.381,3314.8,1493.194Z" transform="translate(-3205.273 -1457.124)" fill="#f1bf00"/>
        <path id="Trazado_112128" data-name="Trazado 112128" d="M3310.911,1498.483l5.667,0a.138.138,0,0,0,0-.276l-5.667,0A.138.138,0,0,0,3310.911,1498.483Zm5.667,1.984-5.667,0a.138.138,0,0,0,0,.276l5.667,0A.138.138,0,0,0,3316.578,1500.467Z" transform="translate(-3207.961 -1461.018)" fill="#1f2144"/>
        <path id="Trazado_112129" data-name="Trazado 112129" d="M3189.222,1654.225l5.667,0a.138.138,0,0,0,0-.276l-5.667,0A.138.138,0,0,0,3189.222,1654.225Zm5.667,1.984-5.667,0a.138.138,0,0,0,0,.276l5.667,0A.138.138,0,0,0,3194.888,1656.209Zm.1,2.246-5.667,0a.138.138,0,0,0,0,.276l5.667,0A.138.138,0,0,0,3194.992,1658.455Z" transform="translate(-3119.909 -1573.708)" fill="#1f2144"/>
        <path id="Trazado_112130" data-name="Trazado 112130" d="M3010.141,1498.9l-5.667,0a.138.138,0,0,0,0,.276l5.667,0A.138.138,0,0,0,3010.141,1498.9Zm-5.635-1.713,3.823,0c.12,0,.12-.276,0-.276l-3.823,0C3004.385,1496.915,3004.385,1497.191,3004.505,1497.192Z" transform="translate(-2986.232 -1460.083)" fill="#1f2144"/>
      </g>
      <g id="Grupo_57980" data-name="Grupo 57980" transform="translate(83.272 21.587)">
        <path id="Trazado_112131" data-name="Trazado 112131" d="M3435,1542.455c-.156-.092-.315-.177-.472-.266a1.045,1.045,0,0,0-.3-.3,16.91,16.91,0,0,0-5.855-2.337,31.153,31.153,0,0,0-11.116-1.3,30.236,30.236,0,0,0-8.8,1.881c-1.072.409-2.742.847-3.1,2.112a1.613,1.613,0,0,0-.009.841,1.067,1.067,0,0,0,.07,1.006,1.99,1.99,0,0,0-.478,1,1.121,1.121,0,0,0,1.36,1.36c.388-.107.777-.211,1.165-.316a25.636,25.636,0,0,0,4.583,3.972,1.548,1.548,0,0,0,1.654,1.053,12.641,12.641,0,0,0,3.165,1.522,1.693,1.693,0,0,0,2.229,1.083,1.293,1.293,0,0,0,1.871.322c.1-.079.2-.161.306-.24l0,0,.022-.021a40.219,40.219,0,0,0,4.241-3.775c1.374-1.052,2.709-2.152,3.995-3.313a1.548,1.548,0,0,0-.244-2.338,1.309,1.309,0,0,0-.106-.155c1.756.093,3.51.192,5.26.269A1.114,1.114,0,0,0,3435,1542.455Zm-21.223,4.714q-.138.122-.273.248c-.12-.083-.238-.169-.356-.255.1,0,.2-.015.294-.022Z" transform="translate(-3359.353 -1511.529)" fill="#f7a392"/>
        <path id="Trazado_112132" data-name="Trazado 112132" d="M3436.4,1464.27c-.226-1.519-.049-3.057-.595-4.521a8.731,8.731,0,0,1-.748-2.394c-.063-.809.061-1.626.076-2.435a15.944,15.944,0,0,0-.431-4.055c-1.223-5.056-5.431-9.31-10.844-9.076-.1,0-.149-.006-.219-.01-5.454-.281-9.752,3.936-10.981,9.017a15.946,15.946,0,0,0-.431,4.056c.016.809.139,1.625.076,2.435a8.73,8.73,0,0,1-.749,2.394c-.545,1.465-.368,3-.594,4.521-.2,1.322-1.012,2.521-.645,3.875a.279.279,0,0,0,.267.2c2.854-.2,5.659.6,8.349-.549,1.481-.635,4.681-.874,4.7-2.954.034,0,.069,0,.1,0-.059,2.148,3.2,2.386,4.7,3.028,2.691,1.154,5.5.351,8.35.549a.28.28,0,0,0,.267-.2C3437.41,1466.791,3436.6,1465.592,3436.4,1464.27Z" transform="translate(-3363.187 -1441.764)" fill="#1f2144"/>
        <path id="Trazado_112133" data-name="Trazado 112133" d="M3533.469,1553.739a.744.744,0,0,0-.213.07c.083-.712-.953-1.2-1.266-.455-2.318,5.557-4.9,11.74-10.52,14.7-2.471,1.3-11.08,2.738-13.717-9.131-.063-.282-2.345,3.9-2.577,4.065l-3.156,2.209c-.71.5-1.885,1.047-2.239,1.912-.563,1.378-.711-1.106,0,0,8.491,13.218,19.76,10.641,23.366,8.63,3.7-2.062,6.5-6.519,8.3-10.225a35.989,35.989,0,0,0,2.6-7.29C3534.235,1557.437,3535.536,1553.416,3533.469,1553.739Z" transform="translate(-3427.644 -1522.236)" fill="#f79884"/>
        <path id="Trazado_112134" data-name="Trazado 112134" d="M3390.633,1842.423c.057,9.939,4.406,43.913,4.462,53.852a.72.72,0,0,0,.507.667c1.613.632,2.833-.73,3.219-2.172a69.722,69.722,0,0,0,1.233-7.8c1.352-9.22,2.1-18.473,2.672-27.769.59-9.57,1.591-19.1,3.065-28.577.135-.871-1.2-1.245-1.333-.369-.064.415-.126.83-.188,1.244a11.312,11.312,0,0,0-5.222,1.263c-1.667,1.028-3.9-7.338-4.272-5.5C3392.841,1836.863,3390.576,1832.687,3390.633,1842.423Z" transform="translate(-3349.013 -1720.506)" fill="#f7a392"/>
        <path id="Trazado_112135" data-name="Trazado 112135" d="M3392.745,2068.964a4.543,4.543,0,0,0,1.96-.386,17.378,17.378,0,0,0,2.381-.822c1.2-.552,1.782-2.956,2.523-3.993,1-1.392,1.018-1.514.807-3.17a23.737,23.737,0,0,1,.258-6.493c.051-.349-.482-.5-.533-.145-.158,1.091-.316,2.187-.39,3.288a.288.288,0,0,0-.072,0c-1.3.211-3.546.49-3.54,2.215.009,2.868-3.738,6.1-3.889,7.5C3392.178,2067.626,3391.838,2068.745,3392.745,2068.964Z" transform="translate(-3350.096 -1884.581)" fill="#f7a392"/>
        <path id="Trazado_112136" data-name="Trazado 112136" d="M3389.783,2091.3c.279.252.811.054,1.113.006.979-.159,1.965-.312,2.939-.5a3.244,3.244,0,0,0,2.7-1.9c.375-.847.677-1.68,1.017-2.5l.109,2.219a.14.14,0,0,0,.139.138,5.3,5.3,0,0,0,.612-.075.139.139,0,0,0,.1-.134,15.7,15.7,0,0,1,.442-4.778.3.3,0,0,0-.523-.281,16.1,16.1,0,0,0-1.09,1.743,13.569,13.569,0,0,0-.82,1.833c-.071.2-.13.4-.189.6a.3.3,0,0,0-.029-.008,28.319,28.319,0,0,0-5.566-.136.289.289,0,0,0-.222.194C3390.34,2088.368,3389.159,2090.734,3389.783,2091.3Z" transform="translate(-3348.268 -1906.009)" fill="#1f2144"/>
        <path id="Trazado_112137" data-name="Trazado 112137" d="M3455.068,1839.378c.025,9.939,4.261,43.927,4.285,53.866a.72.72,0,0,0,.5.669c1.611.637,2.836-.721,3.226-2.162a69.658,69.658,0,0,0,1.259-7.8c1.382-9.216,2.159-18.466,2.763-27.76.622-9.568,1.655-19.1,3.159-28.567.139-.871-1.192-1.249-1.331-.373-.066.414-.128.829-.192,1.244a11.315,11.315,0,0,0-5.226,1.246c-1.67,1.022-3.878-7.351-4.255-5.511C3457.294,1833.825,3455.044,1829.641,3455.068,1839.378Z" transform="translate(-3395.637 -1718.312)" fill="#f7a392"/>
        <path id="Trazado_112138" data-name="Trazado 112138" d="M3413.787,1689.013c-1.854-8.723-3.243-10.389-3.375-13.975-.041-1.1.594-5.257.138-6.289-.5-1.141-28.745-1.212-28.795-1.175-.132-.71.133,5.441.092,6.266-.226,4.585-1.89,6.467-2.948,10.873-1.072,4.463-6.635,44.644-4.393,61.091a.74.74,0,0,0,.692.69c8.21.193,18.519.343,28.122.45.948-4.647,2.516-23.5,3.781-28.079a.479.479,0,0,1,.862-.113c1.271,1.791-.761,24.045-.822,28.158,2.477.024,7.376.144,9.6.161a.688.688,0,0,0,.69-.693C3417.692,1731.429,3416.938,1703.83,3413.787,1689.013Z" transform="translate(-3336.964 -1605.112)" fill="#f5e4d5"/>
        <path id="Trazado_112139" data-name="Trazado 112139" d="M3456.443,2065.959a4.54,4.54,0,0,0,1.961-.38,17.35,17.35,0,0,0,2.385-.814c1.2-.548,1.791-2.95,2.536-3.985,1-1.388,1.022-1.51.817-3.167a23.7,23.7,0,0,1,.281-6.492c.051-.349-.481-.5-.533-.147-.162,1.09-.324,2.186-.4,3.287a.266.266,0,0,0-.072,0c-1.3.207-3.547.478-3.547,2.2,0,2.868-3.757,6.087-3.913,7.485C3455.881,2064.619,3455.536,2065.736,3456.443,2065.959Z" transform="translate(-3396.188 -1882.425)" fill="#f7a392"/>
        <path id="Trazado_112140" data-name="Trazado 112140" d="M3453.466,2088.289c.278.253.811.057,1.114.009.98-.155,1.965-.306,2.94-.491a3.246,3.246,0,0,0,2.707-1.893c.377-.846.682-1.678,1.025-2.493l.1,2.219a.14.14,0,0,0,.138.138,5.235,5.235,0,0,0,.613-.073.138.138,0,0,0,.1-.133,15.685,15.685,0,0,1,.458-4.777.3.3,0,0,0-.523-.283,16.13,16.13,0,0,0-1.1,1.74,13.517,13.517,0,0,0-.826,1.83c-.071.2-.131.4-.191.6-.011,0-.017-.007-.028-.008a28.362,28.362,0,0,0-5.566-.155.29.29,0,0,0-.222.193C3454.034,2085.362,3452.844,2087.724,3453.466,2088.289Z" transform="translate(-3394.349 -1903.854)" fill="#1f2144"/>
        <path id="Trazado_112141" data-name="Trazado 112141" d="M3445.822,1456.987c.013-1.731-.793-2.455-2.183-3.206-7.492-4.051-14.218-.347-14.264.717-.188,4.326-.558,9.843,1.451,13.753,1.5,2.926,4.447,5.518,7.809,4.077C3442.143,1470.827,3445.753,1466.593,3445.822,1456.987Z" transform="translate(-3376.934 -1449.12)" fill="#f7a392"/>
        <path id="Trazado_112142" data-name="Trazado 112142" d="M3624.595,1531.315a2.39,2.39,0,0,0,.694-1.089c.06-.854-.937-.223-1.233.041-.623.554-1.235,1.11-1.878,1.642-.322.267-.638.549-.975.8-.165.122-1.1.692-1.314.464.886-.855,1.773-1.709,2.651-2.572.365-.358,1.617-1.448,1.3-2.091a.194.194,0,0,0-.2-.113c-1.022.043-2.057,1.208-2.712,1.894-.437.458-1.1,1.5-1.716,1.708a.552.552,0,0,1-.447-.024,4.867,4.867,0,0,1-.367-.55,3.89,3.89,0,0,0-.208-.427c-.015-.036-.031-.07-.046-.107a.162.162,0,0,0-.07-.083,2.434,2.434,0,0,0-1.058-.918c-.8-.358-2.275-.556-2.945.128a.162.162,0,0,0,.072.27c.064.118.117.141.291.2a11.9,11.9,0,0,1,1.43.437,3.31,3.31,0,0,1,1.411,1.323,2.138,2.138,0,0,1-.4,1.855,2.78,2.78,0,0,1-1.579.911.167.167,0,0,0-.025-.06,6.782,6.782,0,0,1-.987-3.081c-.052-.472.1-1.337-.364-1.629a.191.191,0,0,0-.235.023.182.182,0,0,0-.119.1,5.317,5.317,0,0,0-.533,2.846,5.065,5.065,0,0,0,.8,2.051,4.355,4.355,0,0,1-.23,1.514,2.268,2.268,0,0,0-.016,1.306.232.232,0,0,0-.009.072l0,.058a.184.184,0,0,0,.158.159h.044a.2.2,0,0,0,.037-.007.685.685,0,0,0,.134.072.176.176,0,0,0,.109.006c.258.177.594.48.722.554a1.508,1.508,0,0,0,.493.249,1.467,1.467,0,0,0,.867-.326,16.343,16.343,0,0,0,2.923-2.4c.187-.184.4-.378.607-.584.629-.4,1.231-.847,1.8-1.271q1.11-.82,2.135-1.746c.413-.373,1.062-.822,1.073-1.429A.194.194,0,0,0,3624.595,1531.315Z" transform="translate(-3509.921 -1504.449)" fill="#f7a392"/>
        <path id="Trazado_112143" data-name="Trazado 112143" d="M3450.677,1503.871l1.178-14.421c0-.549-1.307,1.239-1.77,1.572a12.9,12.9,0,0,1-7.039,2.509.809.809,0,0,0-.231.061c-.394,0-.361.187-.359.695.012,3.235-.718,9.492.008,12.671.188.825.378-.417,1.242-.044a8.853,8.853,0,0,0,2.3.2c.818.07.725-.019,1.543.05.893.076,2.034.729,2.792.008C3451.08,1506.467,3450.681,1504.719,3450.677,1503.871Z" transform="translate(-3386.285 -1476.193)" fill="#f7a392"/>
        <path id="Trazado_112144" data-name="Trazado 112144" d="M3443.525,1486.333c.008.514-.232.934-.534.938s-.555-.408-.562-.923.232-.934.535-.938S3443.518,1485.819,3443.525,1486.333Z" transform="translate(-3386.491 -1473.345)" fill="#1f2144"/>
        <path id="Trazado_112145" data-name="Trazado 112145" d="M3470.288,1486.89c-.006.514-.256.928-.559.925s-.544-.423-.539-.937.256-.928.559-.925S3470.293,1486.376,3470.288,1486.89Z" transform="translate(-3405.855 -1473.738)" fill="#1f2144"/>
        <path id="Trazado_112146" data-name="Trazado 112146" d="M3468.573,1478.044a1.935,1.935,0,0,0-.294-.144,3.766,3.766,0,0,0-2.783-.146c-.418.21-.826.724-.237.974a5.235,5.235,0,0,0,1.756.2,3.085,3.085,0,0,0,1.365-.1C3468.876,1478.59,3468.9,1478.3,3468.573,1478.044Z" transform="translate(-3402.798 -1467.651)" fill="#1f2144"/>
        <path id="Trazado_112147" data-name="Trazado 112147" d="M3436.437,1478.068a3.088,3.088,0,0,0,1.346.255,5.253,5.253,0,0,0,1.766,0c.614-.184.264-.74-.128-.995a3.762,3.762,0,0,0-2.782-.162,1.935,1.935,0,0,0-.308.111C3435.982,1477.495,3435.97,1477.782,3436.437,1478.068Z" transform="translate(-3381.896 -1467.244)" fill="#1f2144"/>
        <path id="Trazado_112148" data-name="Trazado 112148" d="M3452.96,1508.128a8.228,8.228,0,0,1-5.167-.137c-.059.019-.12.065-.107.128a2.709,2.709,0,0,0,2.547,1.856,2.978,2.978,0,0,0,2.89-1.669C3453.152,1508.213,3453.068,1508.089,3452.96,1508.128Z" transform="translate(-3390.295 -1489.682)" fill="#fff"/>
        <path id="Trazado_112149" data-name="Trazado 112149" d="M3455.329,1491.233c-.731.181-1.408-.057-1.486-.874a6.683,6.683,0,0,1,.132-1.246q.138-1.221.306-2.438c.024-.176-.252-.191-.276-.015q-.141,1.025-.262,2.053a8.662,8.662,0,0,0-.18,1.916c.1.862,1.126,1.048,1.825.875C3455.56,1491.461,3455.5,1491.191,3455.329,1491.233Z" transform="translate(-3394.535 -1474.159)" fill="#db745e"/>
        <path id="Trazado_112150" data-name="Trazado 112150" d="M3255.384,1619.161c-.19-.306-.859-.5-1.151-.653-.452-.243-.89-.506-1.324-.776a6.823,6.823,0,0,0-1.75-3.152c-.656-.861-1.581-2.787-2.942-2.576a.189.189,0,0,0-.152.256c.367.674.958,1.2,1.377,1.847a8.715,8.715,0,0,1,.637,1.18,4.7,4.7,0,0,0-1.107-.715,24.205,24.205,0,0,0-3.873-1.884c-.851-.32-2.176-.978-3.1-.7a.182.182,0,0,0-.115.145c-.087.8,1.636,1.227,2.177,1.437a33.333,33.333,0,0,1,3.172,1.415l-.1.1-.113.114c-1.264-.469-2.538-.913-3.826-1.311a5.689,5.689,0,0,0-2.955-.471.191.191,0,0,0-.115.2c.008.371.359.47.66.621a17.812,17.812,0,0,0,2.025.839c1.073.382,2.161.714,3.222,1.125l-.035.042a27.159,27.159,0,0,0-3.5-.873c-.567-.094-1.945-.415-2.375.13a.189.189,0,0,0-.026.186c.221.548,1.264.738,1.9.884a11.946,11.946,0,0,0-1.278.017.189.189,0,0,0-.128.3c.428.611,1.665.775,2.358.952,1.075.275,2.163.487,3.221.815.057.048.114.1.169.144a13.654,13.654,0,0,0,2.52,1.828,2.009,2.009,0,0,0,.88.244,3.579,3.579,0,0,0,.959.062,5.257,5.257,0,0,1,3.562,1.031c.139.1.311-.015.361-.147C3254.827,1621.246,3255.762,1619.771,3255.384,1619.161Z" transform="translate(-3240.074 -1564.885)" fill="#f7a392"/>
        <path id="Trazado_112151" data-name="Trazado 112151" d="M3483.3,1484.473c-.681-.652-1.854-.013-2.083.767a.224.224,0,0,0,.2.3,2.875,2.875,0,0,0-.212.95h0a2.351,2.351,0,0,0-.084,1.063c0,.14.009.281.02.422a.626.626,0,0,0-.02.475c.413.979,1.7-.38,1.936-.813C3483.479,1486.858,3484.071,1485.209,3483.3,1484.473Z" transform="translate(-3414.458 -1472.472)" fill="#f7a392"/>
        <path id="Trazado_112152" data-name="Trazado 112152" d="M3425.413,1483.9c.606-.722,1.843-.215,2.154.535a.224.224,0,0,1-.163.317,2.876,2.876,0,0,1,.314.921h0a2.353,2.353,0,0,1,.2,1.048c.014.14.021.28.027.422a.633.633,0,0,1,.072.469c-.3,1.018-1.729-.193-2.012-.6C3425.5,1486.286,3424.729,1484.712,3425.413,1483.9Z" transform="translate(-3373.983 -1471.997)" fill="#f79884"/>
        <path id="Trazado_112153" data-name="Trazado 112153" d="M3443.229,1455.236a.363.363,0,0,0,.037-.086.782.782,0,0,0,.741-.93,7.175,7.175,0,0,0-.732-2.175.727.727,0,0,0,.165-.924,6.915,6.915,0,0,0-3.872-3.006.775.775,0,0,0-.662-.814,33.534,33.534,0,0,0-3.8-.195.583.583,0,0,0-.488-.5,5.87,5.87,0,0,0-2.917.247.687.687,0,0,0-.767-.366,5.95,5.95,0,0,0-1.77.8.71.71,0,0,0-1.011-.084,5.175,5.175,0,0,0-2.172,3.135.6.6,0,0,0,.308.617,13.184,13.184,0,0,0-.937,3.208.777.777,0,0,0,.944.9,12.259,12.259,0,0,0-.17,1.3.273.273,0,0,0,.543.048c0-.005.005-.008.007-.013.785-2.331,2.809-3.311,4.81-4.127a5.606,5.606,0,0,0,3.039-3.024,5.048,5.048,0,0,0,.963,2.322c.786.953,1.949,1.169,2.992,1.722,1.31.695,1.847,1.851,2.813,2.887.295.317,1.318.844,1.422.681a1.563,1.563,0,0,0,.649-.227.422.422,0,0,0-.2-.775.518.518,0,0,0,.058-.212C3443.227,1455.512,3443.23,1455.374,3443.229,1455.236Z" transform="translate(-3374.124 -1445.172)" fill="#1f2144"/>
        <path id="Trazado_112154" data-name="Trazado 112154" d="M3484.758,1488.124a3.6,3.6,0,0,1-.381,1.564c-.079.159.159.3.238.14a3.915,3.915,0,0,0,.419-1.7A.138.138,0,0,0,3484.758,1488.124Z" transform="translate(-3416.832 -1475.212)" fill="#db745e"/>
        <path id="Trazado_112155" data-name="Trazado 112155" d="M3429.977,1489.266a4.025,4.025,0,0,1-.351-1.475c-.008-.177-.285-.178-.277,0a4.414,4.414,0,0,0,.389,1.614C3429.811,1489.568,3430.049,1489.428,3429.977,1489.266Z" transform="translate(-3377.028 -1474.972)" fill="#db745e"/>
        <path id="Trazado_112156" data-name="Trazado 112156" d="M3426.12,1462.325a20.241,20.241,0,0,0-3.025,4.263c-.067-.71-1.147-.967-1.338-.162a52.722,52.722,0,0,0-1.424,11.144,3.128,3.128,0,0,0-.015.706.691.691,0,0,0,1.382,0c0-.168.008-.336.011-.5.141-1.087,1.017-1.965,1.453-2.964a8.67,8.67,0,0,0,.465-3.692c-.054-3.261,1.411-5.417,3.469-7.814C3427.674,1462.631,3426.7,1461.649,3426.12,1462.325Z" transform="translate(-3370.484 -1456.477)" fill="#1f2144"/>
        <path id="Trazado_112157" data-name="Trazado 112157" d="M3430.229,1680.433q-.021-.135-.04-.272-1.439-.051-2.878-.092-.452-3.6-1.026-7.182c-.029-.175-.294-.1-.267.074q.569,3.542,1.015,7.1-10.092-.281-20.191-.068-2.816.06-5.631.165c-.018.093-.037.185-.056.276q12.95-.456,25.911-.1a206.16,206.16,0,0,1,1.513,30.392q-.129,5.284-.529,10.556c-.014.177.263.176.277,0a206.636,206.636,0,0,0-.622-37.885q-.167-1.529-.359-3.054c.949.027,1.9.054,2.847.088Z" transform="translate(-3356.628 -1608.926)" fill="#dbc6b6"/>
        <path id="Trazado_112158" data-name="Trazado 112158" d="M3434.926,1547.424a4.894,4.894,0,0,0-.929-2.662,17.008,17.008,0,0,0-5.62-2.2c-.152.176-.318.37-.515.573a13.627,13.627,0,0,1-5.657,3.626,9.367,9.367,0,0,1-11.251-4.444c-.848.236-1.686.506-2.508.819-1.072.409-2.742.847-3.1,2.112a1.617,1.617,0,0,0-.009.841,1.067,1.067,0,0,0,.07,1.006,1.991,1.991,0,0,0-.478,1,1.12,1.12,0,0,0,1.36,1.36c.388-.107.777-.211,1.165-.316a25.647,25.647,0,0,0,4.583,3.972,1.548,1.548,0,0,0,1.654,1.053,12.641,12.641,0,0,0,3.166,1.522,1.692,1.692,0,0,0,2.229,1.083,1.292,1.292,0,0,0,1.871.322c.1-.078.2-.161.306-.24l0,0,.023-.021a40.283,40.283,0,0,0,4.24-3.775c1.374-1.051,2.709-2.151,3.994-3.313a1.548,1.548,0,0,0-.243-2.338,1.34,1.34,0,0,0-.107-.155c1.755.093,3.51.192,5.26.269A1,1,0,0,0,3434.926,1547.424Zm-21.432,3c-.12-.084-.239-.169-.356-.255.1-.005.2-.015.294-.022l.335.028C3413.674,1550.262,3413.583,1550.345,3413.493,1550.429Z" transform="translate(-3359.345 -1514.523)" fill="#f5e4d5"/>
        <path id="Trazado_112159" data-name="Trazado 112159" d="M3382.757,1557.6a11.874,11.874,0,0,0,.492-1.471c.216-.6.906-1.7.644-2.359-.281-.7-1.72-1-2.334-1.273-.756-.335-2.034-1.254-2.884-1.184-.612.051-.782.477-1.03.995a27.125,27.125,0,0,0-1.173,2.938c-1.405-.422-2.67.329-3.727,1.349a8.129,8.129,0,0,1-2.866,2.213,5.622,5.622,0,0,1-4.167-.618,7.29,7.29,0,0,0-2.429-.549,16.013,16.013,0,0,1-4.261-3.83c-1.2-1.592-5.033-6.266-5.647-6.913a11.482,11.482,0,0,0-5.137-3.1,54.988,54.988,0,0,1-11.111,11.7.949.949,0,0,1-1.131.146c-2.379-1.81-10.287-10.839-10.77-11.658-7.161,2.583-10.421,8.181-13.683,14.8a42.786,42.786,0,0,1-3.508,5.042c-1.307,1.484-3.056,2.464-4.409,3.9a4.025,4.025,0,0,1-2.978,1.693,24.444,24.444,0,0,0-2.659-.043,3.5,3.5,0,0,0-1.77.721l-1.233-.579a5.4,5.4,0,0,0-1.427-.58.584.584,0,0,0-.29.031.541.541,0,0,0-.692.363q-.4,1.307-.8,2.614a8.491,8.491,0,0,0-.7,2.439c.071,1.058,2.088,1.5,3.009,1.783,1.846,2.057,3.961,4.226,6.882,4.442,1.561.115,3-.607,4.535-.682,1.756-.085,3.434.4,5.209.2a10.964,10.964,0,0,0,3.958-.875,10.5,10.5,0,0,0,2.981-2.992,29.745,29.745,0,0,0,2.392-3.6,15.092,15.092,0,0,1,.871,4.08,14.124,14.124,0,0,0,.526,5.472c.176.65.381,1.289.6,1.922,4.459.6,12.792-.143,17.051-.172,2.333-.016,8.029.324,10.344.585l.434.047c.317-.428.638-.853.94-1.294.755-1.1.728-2.6,1.133-3.866.572-1.793,1.488-7.521,2.142-10.09.924.532,2.689,1.432,3.619,1.953a11.7,11.7,0,0,0,5.056,1.811,13.428,13.428,0,0,0,5.329-1.227,13.811,13.811,0,0,1,2.834-1.015c1.132-.172,2.268.134,3.407-.018,2.746-.367,6.073-3.058,6.831-5.752a7.912,7.912,0,0,1,1.123-2.816,6.6,6.6,0,0,0,1.266-2.253A2.309,2.309,0,0,0,3382.757,1557.6Z" transform="translate(-3276.979 -1515.588)" fill="#f1bf00"/>
        <path id="Trazado_112160" data-name="Trazado 112160" d="M3422.758,1569.588a26.654,26.654,0,0,1-1.981-6.031,14.564,14.564,0,0,1,.375-6.5,14.857,14.857,0,0,1,2.409-4.819c-.068-.061-.138-.12-.208-.179a15.162,15.162,0,0,0-3.052,9.58c.154,4.382,2.407,8.271,4.035,12.229q.308.747.58,1.508l.015-.059c.095.055.2.115.312.176C3424.542,1573.485,3423.6,1571.535,3422.758,1569.588Zm-33.5-15.365c-.1.094-.191.187-.284.282.19,5.852,2.373,11.823,2.242,17.656a48.16,48.16,0,0,1-.928,7.492c.137-.222.269-.447.4-.673.306-1.724.583-3.455.721-5.2a30.365,30.365,0,0,0-.257-6.626C3390.543,1562.839,3389.339,1558.6,3389.256,1554.223Z" transform="translate(-3347.812 -1521.573)" fill="#c79240"/>
        <path id="Trazado_112161" data-name="Trazado 112161" d="M3559.337,1601.9a32.3,32.3,0,0,1-3.718,2.034c-.161.075-.021.313.14.239a32.279,32.279,0,0,0,3.718-2.034C3559.626,1602.043,3559.488,1601.8,3559.337,1601.9Z" transform="translate(-3468.341 -1557.617)" fill="#c79240"/>
        <path id="Trazado_112162" data-name="Trazado 112162" d="M3303.835,1644.036q-.706,1.86-1.413,3.72c-.063.167.2.238.267.074q.706-1.86,1.413-3.72C3304.166,1643.943,3303.9,1643.871,3303.835,1644.036Z" transform="translate(-3285.18 -1588.054)" fill="#c79240"/>
        <path id="Trazado_112163" data-name="Trazado 112163" d="M3329.635,1659.668a19.26,19.26,0,0,1-2.591-2.264c-.123-.129-.319.067-.2.2a19.569,19.569,0,0,0,2.646,2.307C3329.64,1660.011,3329.777,1659.771,3329.635,1659.668Z" transform="translate(-3302.833 -1597.764)" fill="#c79240"/>
        <path id="Trazado_112164" data-name="Trazado 112164" d="M3329.53,1666.743a8.031,8.031,0,0,1-2.277-1.3c-.137-.111-.334.083-.2.2a8.454,8.454,0,0,0,2.4,1.372C3329.624,1667.071,3329.7,1666.8,3329.53,1666.743Z" transform="translate(-3302.978 -1603.587)" fill="#c79240"/>
        <path id="Trazado_112165" data-name="Trazado 112165" d="M3607.022,1587.08c-1.84-.61-3.677-1.229-5.519-1.829-.169-.055-.242.212-.073.267,1.842.6,3.679,1.219,5.519,1.829C3607.117,1587.4,3607.19,1587.136,3607.022,1587.08Z" transform="translate(-3501.47 -1545.582)" fill="#c79240"/>
      </g>
    </g>
  </g>
</svg>
