<svg xmlns="http://www.w3.org/2000/svg" width="610" height="190.939" viewBox="0 0 610 190.939">
  <g id="Grupo_62700" data-name="Grupo 62700" transform="translate(-495 -6016.399)">
    <g id="Grupo_57902" data-name="Grupo 57902">
      <g id="Grupo_57901" data-name="Grupo 57901" transform="translate(246.285 5900.986)">
        <g id="Grupo_57898" data-name="Grupo 57898" transform="translate(643.44 117.85)">
          <g id="Grupo_57897" data-name="Grupo 57897" transform="translate(0.974)">
            <path id="Trazado_111885" data-name="Trazado 111885" d="M596.047,200.209h15.907a15.487,15.487,0,0,0,15.01-11.87,93.013,93.013,0,1,1,1.448,49.748,15.5,15.5,0,0,0-14.777-11H596.047Z" transform="translate(-596.047 -117.552)" fill="#f1bf00"/>
          </g>
          <path id="Trazado_111886" data-name="Trazado 111886" d="M624.368,201.973a92.877,92.877,0,0,0,3.782,26.339,15.478,15.478,0,0,0-14.4-9.917H595.192V191.511h16.885a15.461,15.461,0,0,0,14.912-11.53A92.924,92.924,0,0,0,624.368,201.973Z" transform="translate(-595.192 -108.859)" fill="#339ce9"/>
        </g>
        <circle id="Elipse_6201" data-name="Elipse 6201" cx="74.45" cy="74.45" r="74.45" transform="translate(686.441 280.143) rotate(-86.133)" fill="#fff"/>
        <path id="Trazado_111887" data-name="Trazado 111887" d="M411.035,200.209h15.907a15.485,15.485,0,0,0,15.009-11.87,93.016,93.016,0,1,1,1.449,49.748,15.5,15.5,0,0,0-14.777-11H411.035Z" transform="translate(22.603 0.298)" fill="#0ac4bf"/>
        <g id="Grupo_57899" data-name="Grupo 57899" transform="translate(461.934 117.85)">
          <path id="Trazado_111888" data-name="Trazado 111888" d="M644.86,200.209h-10.6a15.487,15.487,0,0,1-15.01-11.87,93.014,93.014,0,1,0-1.448,49.748,15.5,15.5,0,0,1,14.777-11H644.86Z" transform="translate(-435.872 -117.552)" fill="#339ce9"/>
        </g>
        <circle id="Elipse_6202" data-name="Elipse 6202" cx="74.45" cy="74.45" r="74.45" transform="matrix(0.32, -0.947, 0.947, 0.32, 460.606, 257.593)" fill="#fff"/>
        <g id="Grupo_57900" data-name="Grupo 57900" transform="translate(251.151 117.85)">
          <path id="Trazado_111889" data-name="Trazado 111889" d="M459.842,200.209h-10.6a15.486,15.486,0,0,1-15.01-11.87,93.016,93.016,0,1,0-1.449,49.748,15.5,15.5,0,0,1,14.778-11h12.275Z" transform="translate(-250.853 -117.552)" fill="#0ac4bf"/>
        </g>
        <circle id="Elipse_6203" data-name="Elipse 6203" cx="74.45" cy="74.45" r="74.45" transform="translate(248.715 255.282) rotate(-69.941)" fill="#fff"/>
      </g>
      <path id="Trazado_114627" data-name="Trazado 114627" d="M7.179,21H4.249V6.781h2.93Zm5.127-10.566.088,1.221a3.689,3.689,0,0,1,3.037-1.416,3.066,3.066,0,0,1,2.5.986,4.6,4.6,0,0,1,.84,2.949V21H15.948V14.242a1.831,1.831,0,0,0-.391-1.3,1.749,1.749,0,0,0-1.3-.405,1.942,1.942,0,0,0-1.787,1.016V21H9.649V10.434ZM26.632,18.08a.909.909,0,0,0-.513-.815,5.824,5.824,0,0,0-1.646-.532q-3.77-.791-3.77-3.2a2.9,2.9,0,0,1,1.167-2.349,4.708,4.708,0,0,1,3.052-.942,5.067,5.067,0,0,1,3.218.947,2.985,2.985,0,0,1,1.206,2.461H26.524a1.366,1.366,0,0,0-.391-1,1.653,1.653,0,0,0-1.221-.4,1.689,1.689,0,0,0-1.1.322,1.017,1.017,0,0,0-.391.82.87.87,0,0,0,.444.757,4.571,4.571,0,0,0,1.5.5,12.244,12.244,0,0,1,1.777.474,2.92,2.92,0,0,1,2.236,2.842,2.756,2.756,0,0,1-1.24,2.339,5.35,5.35,0,0,1-3.2.894,5.588,5.588,0,0,1-2.358-.474,3.957,3.957,0,0,1-1.616-1.3,3.018,3.018,0,0,1-.586-1.782h2.676a1.473,1.473,0,0,0,.557,1.152,2.208,2.208,0,0,0,1.387.4,2.044,2.044,0,0,0,1.226-.308A.957.957,0,0,0,26.632,18.08Zm10.889,1.846A3.539,3.539,0,0,1,34.63,21.2a3.338,3.338,0,0,1-2.593-.977,4.169,4.169,0,0,1-.913-2.861V10.434h2.822v6.834q0,1.652,1.5,1.652a2.038,2.038,0,0,0,1.973-1V10.434h2.832V21H37.6Zm7.51-9.492.088,1.182a3.713,3.713,0,0,1,3.037-1.377,2.818,2.818,0,0,1,2.8,1.611,3.628,3.628,0,0,1,3.174-1.611,3.152,3.152,0,0,1,2.559,1,4.6,4.6,0,0,1,.84,3.013V21H54.7V14.262a2.012,2.012,0,0,0-.352-1.313,1.558,1.558,0,0,0-1.24-.415,1.761,1.761,0,0,0-1.758,1.211L51.358,21H48.536V14.271a1.988,1.988,0,0,0-.361-1.328,1.573,1.573,0,0,0-1.23-.41,1.829,1.829,0,0,0-1.738,1V21H42.384V10.434Zm14.229,5.186a6.267,6.267,0,0,1,.605-2.8,4.432,4.432,0,0,1,1.743-1.9,5.086,5.086,0,0,1,2.642-.674,4.812,4.812,0,0,1,3.491,1.309A5.252,5.252,0,0,1,69.249,15.1l.02.723a5.523,5.523,0,0,1-1.357,3.9,5.261,5.261,0,0,1-7.29,0,5.62,5.62,0,0,1-1.362-3.984Zm2.822.2a3.95,3.95,0,0,0,.566,2.3,2.035,2.035,0,0,0,3.223.01,4.322,4.322,0,0,0,.576-2.518,3.91,3.91,0,0,0-.576-2.289,1.873,1.873,0,0,0-1.621-.812,1.842,1.842,0,0,0-1.6.807A4.395,4.395,0,0,0,62.081,15.819ZM76.729,18.08a.909.909,0,0,0-.513-.815,5.824,5.824,0,0,0-1.646-.532q-3.77-.791-3.77-3.2a2.9,2.9,0,0,1,1.167-2.349,4.708,4.708,0,0,1,3.052-.942,5.067,5.067,0,0,1,3.218.947,2.985,2.985,0,0,1,1.206,2.461H76.622a1.366,1.366,0,0,0-.391-1,1.653,1.653,0,0,0-1.221-.4,1.689,1.689,0,0,0-1.1.322,1.017,1.017,0,0,0-.391.82.87.87,0,0,0,.444.757,4.571,4.571,0,0,0,1.5.5,12.244,12.244,0,0,1,1.777.474,2.92,2.92,0,0,1,2.236,2.842,2.756,2.756,0,0,1-1.24,2.339,5.35,5.35,0,0,1-3.2.894,5.588,5.588,0,0,1-2.358-.474,3.957,3.957,0,0,1-1.616-1.3,3.018,3.018,0,0,1-.586-1.782h2.676a1.473,1.473,0,0,0,.557,1.152,2.208,2.208,0,0,0,1.387.4,2.044,2.044,0,0,0,1.226-.308A.957.957,0,0,0,76.729,18.08Z" transform="translate(548 6127)" fill="#12263f"/>
      <path id="Trazado_114628" data-name="Trazado 114628" d="M9.565,15.99V21H6.636V6.781h5.547A6.417,6.417,0,0,1,15,7.367a4.318,4.318,0,0,1,1.87,1.665,4.643,4.643,0,0,1,.654,2.456,4.083,4.083,0,0,1-1.431,3.3,5.959,5.959,0,0,1-3.96,1.206Zm0-2.373h2.617a2.573,2.573,0,0,0,1.772-.547,1.989,1.989,0,0,0,.61-1.562,2.345,2.345,0,0,0-.615-1.689,2.3,2.3,0,0,0-1.7-.664H9.565Zm15.723-.537A7.667,7.667,0,0,0,24.272,13a2.067,2.067,0,0,0-2.1,1.084V21H19.351V10.434h2.666l.078,1.26a2.615,2.615,0,0,1,2.354-1.455,2.957,2.957,0,0,1,.879.127Zm.566,2.539a6.266,6.266,0,0,1,.605-2.8,4.432,4.432,0,0,1,1.743-1.9,5.086,5.086,0,0,1,2.642-.674,4.812,4.812,0,0,1,3.491,1.309A5.252,5.252,0,0,1,35.845,15.1l.02.723a5.523,5.523,0,0,1-1.357,3.9,4.718,4.718,0,0,1-3.643,1.47,4.742,4.742,0,0,1-3.647-1.465,5.62,5.62,0,0,1-1.362-3.984Zm2.822.2a3.95,3.95,0,0,0,.566,2.3,2.035,2.035,0,0,0,3.223.01,4.322,4.322,0,0,0,.576-2.518,3.91,3.91,0,0,0-.576-2.289,1.873,1.873,0,0,0-1.621-.812,1.842,1.842,0,0,0-1.6.807A4.395,4.395,0,0,0,28.677,15.819ZM42,18.92a1.851,1.851,0,0,0,1.27-.43,1.506,1.506,0,0,0,.508-1.143h2.646a3.62,3.62,0,0,1-.586,1.968A3.866,3.866,0,0,1,44.258,20.7a4.936,4.936,0,0,1-2.212.493,4.587,4.587,0,0,1-3.574-1.44,5.7,5.7,0,0,1-1.309-3.979V15.59a5.635,5.635,0,0,1,1.3-3.9,4.534,4.534,0,0,1,3.564-1.455,4.444,4.444,0,0,1,3.179,1.128,3.994,3.994,0,0,1,1.216,3H43.774a1.939,1.939,0,0,0-.508-1.34,1.887,1.887,0,0,0-2.778.2,4.166,4.166,0,0,0-.5,2.333v.293a4.219,4.219,0,0,0,.5,2.347A1.721,1.721,0,0,0,42,18.92ZM52.9,21.2a5.187,5.187,0,0,1-3.784-1.426,5.068,5.068,0,0,1-1.46-3.8V15.7a6.383,6.383,0,0,1,.615-2.847,4.515,4.515,0,0,1,1.743-1.934,4.893,4.893,0,0,1,2.573-.679A4.385,4.385,0,0,1,56,11.605a5.555,5.555,0,0,1,1.245,3.877v1.152H50.513a2.622,2.622,0,0,0,.825,1.66,2.5,2.5,0,0,0,1.743.625,3.046,3.046,0,0,0,2.549-1.182l1.387,1.553a4.237,4.237,0,0,1-1.719,1.4A5.639,5.639,0,0,1,52.9,21.2Zm-.322-8.682a1.764,1.764,0,0,0-1.362.569,2.946,2.946,0,0,0-.669,1.628h3.926v-.226a2.1,2.1,0,0,0-.508-1.457A1.819,1.819,0,0,0,52.573,12.514ZM64.565,18.08a.909.909,0,0,0-.513-.815,5.824,5.824,0,0,0-1.646-.532q-3.77-.791-3.77-3.2A2.9,2.9,0,0,1,59.8,11.181a4.708,4.708,0,0,1,3.052-.942,5.067,5.067,0,0,1,3.218.947,2.985,2.985,0,0,1,1.206,2.461H64.458a1.366,1.366,0,0,0-.391-1,1.653,1.653,0,0,0-1.221-.4,1.689,1.689,0,0,0-1.1.322,1.017,1.017,0,0,0-.391.82.87.87,0,0,0,.444.757,4.571,4.571,0,0,0,1.5.5,12.244,12.244,0,0,1,1.777.474,2.92,2.92,0,0,1,2.236,2.842,2.756,2.756,0,0,1-1.24,2.339,5.35,5.35,0,0,1-3.2.894,5.588,5.588,0,0,1-2.358-.474,3.957,3.957,0,0,1-1.616-1.3,3.018,3.018,0,0,1-.586-1.782h2.676a1.473,1.473,0,0,0,.557,1.152,2.208,2.208,0,0,0,1.387.4,2.044,2.044,0,0,0,1.226-.308A.957.957,0,0,0,64.565,18.08Zm4.121-2.461a6.266,6.266,0,0,1,.605-2.8,4.432,4.432,0,0,1,1.743-1.9,5.086,5.086,0,0,1,2.642-.674,4.812,4.812,0,0,1,3.491,1.309A5.252,5.252,0,0,1,78.677,15.1l.02.723a5.523,5.523,0,0,1-1.357,3.9,5.261,5.261,0,0,1-7.29,0,5.62,5.62,0,0,1-1.362-3.984Zm2.822.2a3.95,3.95,0,0,0,.566,2.3,2.035,2.035,0,0,0,3.223.01,4.322,4.322,0,0,0,.576-2.518,3.91,3.91,0,0,0-.576-2.289,1.873,1.873,0,0,0-1.621-.812,1.842,1.842,0,0,0-1.6.807A4.395,4.395,0,0,0,71.509,15.819ZM86.157,18.08a.909.909,0,0,0-.513-.815A5.824,5.824,0,0,0,84,16.732q-3.77-.791-3.77-3.2A2.9,2.9,0,0,1,81.4,11.181a4.708,4.708,0,0,1,3.052-.942,5.067,5.067,0,0,1,3.218.947,2.985,2.985,0,0,1,1.206,2.461H86.05a1.366,1.366,0,0,0-.391-1,1.653,1.653,0,0,0-1.221-.4,1.689,1.689,0,0,0-1.1.322,1.017,1.017,0,0,0-.391.82.87.87,0,0,0,.444.757,4.571,4.571,0,0,0,1.5.5,12.244,12.244,0,0,1,1.777.474A2.92,2.92,0,0,1,88.9,17.963a2.756,2.756,0,0,1-1.24,2.339,5.35,5.35,0,0,1-3.2.894,5.588,5.588,0,0,1-2.358-.474,3.957,3.957,0,0,1-1.616-1.3,3.018,3.018,0,0,1-.586-1.782h2.676a1.473,1.473,0,0,0,.557,1.152,2.208,2.208,0,0,0,1.387.4,2.044,2.044,0,0,0,1.226-.308A.957.957,0,0,0,86.157,18.08Z" transform="translate(753 6127)" fill="#12263f"/>
      <path id="Trazado_114629" data-name="Trazado 114629" d="M8.649,15.99V21H5.72V6.781h5.547a6.417,6.417,0,0,1,2.817.586,4.318,4.318,0,0,1,1.87,1.665,4.643,4.643,0,0,1,.654,2.456,4.083,4.083,0,0,1-1.431,3.3,5.959,5.959,0,0,1-3.96,1.206Zm0-2.373h2.617a2.573,2.573,0,0,0,1.772-.547,1.989,1.989,0,0,0,.61-1.562,2.345,2.345,0,0,0-.615-1.689,2.3,2.3,0,0,0-1.7-.664H8.649Zm15.723-.537A7.667,7.667,0,0,0,23.356,13a2.067,2.067,0,0,0-2.1,1.084V21H18.435V10.434H21.1l.078,1.26a2.615,2.615,0,0,1,2.354-1.455,2.957,2.957,0,0,1,.879.127Zm.566,2.539a6.266,6.266,0,0,1,.605-2.8,4.432,4.432,0,0,1,1.743-1.9,5.086,5.086,0,0,1,2.642-.674,4.812,4.812,0,0,1,3.491,1.309A5.252,5.252,0,0,1,34.929,15.1l.02.723a5.523,5.523,0,0,1-1.357,3.9,4.718,4.718,0,0,1-3.643,1.47A4.742,4.742,0,0,1,26.3,19.73a5.62,5.62,0,0,1-1.362-3.984Zm2.822.2a3.95,3.95,0,0,0,.566,2.3,2.035,2.035,0,0,0,3.223.01,4.322,4.322,0,0,0,.576-2.518,3.91,3.91,0,0,0-.576-2.289,1.873,1.873,0,0,0-1.621-.812,1.842,1.842,0,0,0-1.6.807A4.395,4.395,0,0,0,27.761,15.819Zm8.486-.181A6.368,6.368,0,0,1,37.355,11.7a3.6,3.6,0,0,1,3.032-1.465,3.236,3.236,0,0,1,2.549,1.152V6h2.832V21H43.22l-.137-1.123A3.321,3.321,0,0,1,40.368,21.2a3.587,3.587,0,0,1-2.993-1.47A6.573,6.573,0,0,1,36.247,15.639Zm2.822.21a4.171,4.171,0,0,0,.518,2.279,1.686,1.686,0,0,0,1.5.792,1.888,1.888,0,0,0,1.846-1.105V13.638a1.861,1.861,0,0,0-1.826-1.105Q39.069,12.533,39.069,15.849Zm15.215,4.077a3.539,3.539,0,0,1-2.891,1.27,3.338,3.338,0,0,1-2.593-.977,4.169,4.169,0,0,1-.913-2.861V10.434H50.71v6.834q0,1.652,1.5,1.652a2.038,2.038,0,0,0,1.973-1V10.434h2.832V21H54.362Zm9.258-1.006a1.851,1.851,0,0,0,1.27-.43,1.506,1.506,0,0,0,.508-1.143h2.646a3.62,3.62,0,0,1-.586,1.968A3.866,3.866,0,0,1,65.8,20.7a4.936,4.936,0,0,1-2.212.493,4.587,4.587,0,0,1-3.574-1.44,5.7,5.7,0,0,1-1.309-3.979V15.59a5.635,5.635,0,0,1,1.3-3.9,4.534,4.534,0,0,1,3.564-1.455,4.444,4.444,0,0,1,3.179,1.128,3.994,3.994,0,0,1,1.216,3H65.319a1.939,1.939,0,0,0-.508-1.34,1.887,1.887,0,0,0-2.778.2,4.166,4.166,0,0,0-.5,2.333v.293a4.219,4.219,0,0,0,.5,2.347A1.721,1.721,0,0,0,63.542,18.92ZM72.956,7.836v2.6h1.807V12.5H72.956v5.273a1.259,1.259,0,0,0,.225.84,1.128,1.128,0,0,0,.859.254,4.5,4.5,0,0,0,.83-.068v2.139a5.81,5.81,0,0,1-1.709.254q-2.969,0-3.027-3V12.5H68.591v-2.07h1.543v-2.6ZM75.6,15.619a6.266,6.266,0,0,1,.605-2.8,4.432,4.432,0,0,1,1.743-1.9,5.086,5.086,0,0,1,2.642-.674,4.812,4.812,0,0,1,3.491,1.309A5.252,5.252,0,0,1,85.593,15.1l.02.723a5.523,5.523,0,0,1-1.357,3.9,5.261,5.261,0,0,1-7.29,0A5.62,5.62,0,0,1,75.6,15.746Zm2.822.2a3.95,3.95,0,0,0,.566,2.3,2.035,2.035,0,0,0,3.223.01,4.322,4.322,0,0,0,.576-2.518,3.91,3.91,0,0,0-.576-2.289,1.873,1.873,0,0,0-1.621-.812,1.842,1.842,0,0,0-1.6.807A4.395,4.395,0,0,0,78.425,15.819ZM93.073,18.08a.909.909,0,0,0-.513-.815,5.824,5.824,0,0,0-1.646-.532q-3.77-.791-3.77-3.2a2.9,2.9,0,0,1,1.167-2.349,4.708,4.708,0,0,1,3.052-.942,5.067,5.067,0,0,1,3.218.947,2.985,2.985,0,0,1,1.206,2.461H92.966a1.366,1.366,0,0,0-.391-1,1.653,1.653,0,0,0-1.221-.4,1.689,1.689,0,0,0-1.1.322,1.017,1.017,0,0,0-.391.82.87.87,0,0,0,.444.757,4.571,4.571,0,0,0,1.5.5,12.244,12.244,0,0,1,1.777.474,2.92,2.92,0,0,1,2.236,2.842,2.756,2.756,0,0,1-1.24,2.339,5.35,5.35,0,0,1-3.2.894,5.588,5.588,0,0,1-2.358-.474,3.957,3.957,0,0,1-1.616-1.3,3.018,3.018,0,0,1-.586-1.782h2.676a1.473,1.473,0,0,0,.557,1.152,2.208,2.208,0,0,0,1.387.4,2.044,2.044,0,0,0,1.226-.308A.957.957,0,0,0,93.073,18.08Z" transform="translate(962 6127)" fill="#12263f"/>
      <g id="carrete-de-hilo" transform="translate(558.75 5985)">
        <path id="Trazado_111890" data-name="Trazado 111890" d="M59.389,107.946H53.025v-.422a5.684,5.684,0,0,0-1.71-4.066l3.3-3.3a2.518,2.518,0,0,0,.577.063c1.933,0,4.63-1.809,5.326-2.5h0a3.348,3.348,0,0,0-4.735-4.735c-.769.769-2.892,3.977-2.44,5.9L49.824,102.4a5.666,5.666,0,0,0-2.5-.579H13.973a5.708,5.708,0,0,0-5.7,5.7v.422H2.1a2.1,2.1,0,0,0-2.1,2.1v9.509a2.1,2.1,0,0,0,2.1,2.1H8.272v.422a5.708,5.708,0,0,0,5.7,5.7h6.935a.9.9,0,0,0,0-1.8H13.973a3.905,3.905,0,0,1-3.9-3.9V120.2l.023-.021L20.64,109.637l1.413,1.413-7.495,7.495a.9.9,0,1,0,1.273,1.273l7.495-7.495,1.413,1.413-2.911,2.911a.9.9,0,1,0,1.273,1.273l2.911-2.911,2.911,2.911a.9.9,0,1,0,1.273-1.273L17.172,103.623H20l14.3,14.3L22.365,129.861a.9.9,0,1,0,1.273,1.273L35.574,119.2l3.732,3.732a.9.9,0,1,0,1.273-1.273L22.545,103.623h2.827l18.085,18.085a.9.9,0,0,0,1.273-1.273L27.918,103.623h2.827l14.3,14.3a.9.9,0,0,0,1.273-1.273l-4.1-4.1,7.822-7.822a3.889,3.889,0,0,1,1.182,2.794v14.554a3.905,3.905,0,0,1-3.9,3.9H32.468a.9.9,0,1,0,0,1.8H47.324a5.708,5.708,0,0,0,5.7-5.7v-.422h6.364a2.1,2.1,0,0,0,2.1-2.1v-9.509a2.1,2.1,0,0,0-2.1-2.1Zm-2.33-13.695a1.548,1.548,0,1,1,2.189,2.189c-.936.936-3.5,2.142-4.171,1.982C54.917,97.75,56.123,95.188,57.059,94.252ZM35.345,105.678l2.055-2.055h2.826l-3.468,3.468ZM2.1,119.856a.3.3,0,0,1-.3-.3v-9.509a.3.3,0,0,1,.3-.3H8.272v10.109H2.1Zm17.267-11.491-9.295,9.295V107.524a3.905,3.905,0,0,1,3.9-3.9h.653Zm15.487-4.741-.782.782-.782-.782Zm6.093,7.656-2.915-2.915,4.741-4.741h4.551a3.887,3.887,0,0,1,1.116.163Zm18.742,8.276a.3.3,0,0,1-.3.3H53.025V109.747h6.364a.3.3,0,0,1,.3.3Z" transform="translate(0)" fill="#12263f"/>
      </g>
      <g id="needle" transform="translate(773.723 6036.083)">
        <path id="Trazado_111891" data-name="Trazado 111891" d="M52.331,45.583a.766.766,0,0,0-1.083,0L46.5,50.334a4.144,4.144,0,0,1-5.784.075c.081-.075.157-.148.226-.217a7.083,7.083,0,0,0,2.094-4.968,6.852,6.852,0,0,0-2.013-4.948,7.02,7.02,0,0,0-9.916.081c-.241.241-.527.563-.843.949a11.241,11.241,0,0,0-4.428-.9h-.07A11.264,11.264,0,0,0,17.8,59.636l3.245,3.245L2.8,78.5,16.764,62.184a.766.766,0,1,0-1.163-1L.34,79.015a1.351,1.351,0,0,0,.072,1.87,1.351,1.351,0,0,0,1.87.072L22.13,63.966l7.191,7.187c-1.281,1.282-4.121,4.373-4.121,6.6a5.213,5.213,0,0,0,10.426,0c0-2.227-2.84-5.319-4.122-6.6l.837-.838a5.436,5.436,0,0,0,0-7.688l-.971-.971a.766.766,0,0,0-1.083,1.083l.971.971a3.905,3.905,0,0,1,0,5.523l-.846.846c-1.833-1.832-7.871-7.866-11-10.992l3.743-4.372a33.142,33.142,0,0,0,4.018-5.9A47.023,47.023,0,0,1,30.7,43.237a9.786,9.786,0,0,1,2.017,1.552l2.549,2.549-.685.685a.924.924,0,0,1-1.3,0,.939.939,0,0,1-.073-.082.766.766,0,0,0-1.076-.126.818.818,0,0,0,.065,1.29,2.457,2.457,0,0,0,3.471,0l2.4-2.4a2.454,2.454,0,0,0-3.471-3.471l-.633.633-.161-.161a11.34,11.34,0,0,0-2.142-1.682c.195-.228.373-.425.531-.583a5.487,5.487,0,0,1,7.75-.081A5.331,5.331,0,0,1,41.5,45.211a5.561,5.561,0,0,1-1.646,3.9,38.1,38.1,0,0,1-7.371,5.011,33.146,33.146,0,0,0-5.9,4.018L24.2,60.175a.766.766,0,1,0,1,1.163L27.578,59.3a31.619,31.619,0,0,1,5.629-3.832A46.665,46.665,0,0,0,39.534,51.4l.017.017a5.677,5.677,0,0,0,8.029,0l4.751-4.751a.766.766,0,0,0,0-1.083ZM35.675,44.316a.923.923,0,0,1,1.305,1.305l-.633.633-1.305-1.305ZM30.413,81.435a3.686,3.686,0,0,1-3.682-3.682c0-1.387,2.081-3.929,3.682-5.528,1.6,1.6,3.681,4.139,3.681,5.528a3.686,3.686,0,0,1-3.682,3.682ZM25.826,48.089a31.61,31.61,0,0,1-3.832,5.629L18.35,57.977a9.733,9.733,0,0,1,7.414-16.039h.07a9.732,9.732,0,0,1,3.457.629,48.241,48.241,0,0,0-3.464,5.522Z" transform="translate(0 0)" fill="#12263f"/>
      </g>
      <g id="Outline" transform="translate(974.15 6058.35)">
        <path id="Trazado_111892" data-name="Trazado 111892" d="M60.695,58.382,57.066,25.721a2.239,2.239,0,0,0-1.341-1.808L51.308,22.02l-.032-.012h0l-5.652-2.119-1.368-3.42A.745.745,0,0,0,43.65,16a.734.734,0,0,0-.086,0H33.135a.734.734,0,0,0-.086,0,.745.745,0,0,0-.606.463l-1.49,3.725a.745.745,0,0,0,.011.579l2.98,6.7a.745.745,0,0,0,1.146.279L37.6,25.745V53.128l-2.022,6.066a9.707,9.707,0,0,1-7.3-3.98L26.43,47.2V23.221l3.49-1.309-.523-1.4-3.973,1.49a.767.767,0,0,0-.071.033v0l-4.026,2.013a2.249,2.249,0,0,0-1,1l-4.091,8.181a2.247,2.247,0,0,0-.236,1V46.193a2.246,2.246,0,0,0,.236,1l6.548,13.1a.745.745,0,0,0,1.08.287l4.47-2.98c.011-.007.02-.016.03-.023A11.194,11.194,0,0,0,36.115,60.7a.745.745,0,0,0,.707-.509l1.528-4.584,1.528,4.585a.745.745,0,0,0,.707.509A11.174,11.174,0,0,0,51.759,49.523V49.3l2.251,10.8a.745.745,0,0,0,.934.564l5.215-1.49a.745.745,0,0,0,.536-.8Zm-36.956.484-6.17-12.34a.749.749,0,0,1-.079-.333V34.231a.749.749,0,0,1,.079-.333l4.091-8.181a.75.75,0,0,1,.333-.333L24.94,23.91V42.335l-1.523-4.95-1.424.438,2.972,9.66,1.261,5.466-3.16,1.9.767,1.278,2.746-1.647.5,2.164ZM44.246,20.455l-2.46,5.535-2.425-1.94L43.385,18.3ZM38.35,22.9l-1.177-1.681h2.353Zm2.22-3.171H36.13L34.566,17.49h7.568ZM34.913,25.99l-2.46-5.535.861-2.154,4.024,5.749ZM50.269,49.524A9.684,9.684,0,0,1,41.116,59.2l-2.021-6.067V25.745l2.514,2.011a.745.745,0,0,0,1.146-.279l2.695-6.063,4.819,1.808Zm5.036,9.493L51.759,42V23.835l3.378,1.448a.746.746,0,0,1,.447.6L58.8,54.818l-2.751.688.361,1.445,2.556-.639.179,1.608Z" fill="#12263f"/>
        <path id="Trazado_111893" data-name="Trazado 111893" d="M294.7,192h-5.96a.745.745,0,0,0-.745.745v5.215a.745.745,0,0,0,.412.666l2.98,1.49a.745.745,0,0,0,.666,0l2.98-1.49a.745.745,0,0,0,.412-.666v-5.215A.745.745,0,0,0,294.7,192Zm-.745,5.5-2.235,1.117L289.49,197.5v-4.01h4.47Z" transform="translate(-246.67 -159.61)" fill="#12263f"/>
        <path id="Trazado_111894" data-name="Trazado 111894" d="M216,160h1.49v1.49H216Z" transform="translate(-181.375 -130.59)" fill="#12263f"/>
        <path id="Trazado_111895" data-name="Trazado 111895" d="M216,240h1.49v1.49H216Z" transform="translate(-181.375 -203.14)" fill="#12263f"/>
        <path id="Trazado_111896" data-name="Trazado 111896" d="M216,320h1.49v1.49H216Z" transform="translate(-181.375 -275.69)" fill="#12263f"/>
        <path id="Trazado_111897" data-name="Trazado 111897" d="M216,400h1.49v1.49H216Z" transform="translate(-181.375 -348.241)" fill="#12263f"/>
      </g>
    </g>
  </g>
</svg>
