<svg xmlns="http://www.w3.org/2000/svg" width="400" height="262.127" viewBox="0 0 400 262.127">
  <g id="Grupo_62701" data-name="Grupo 62701" transform="translate(-180 -6315.873)">
    <g id="Image_Place_Holder" data-name="Image Place Holder" transform="translate(180 6346.803)" opacity="0.2">
      <rect id="Image_Place_Holder-2" data-name="Image Place Holder" width="400" height="231.197" rx="10" fill="#339ce9"/>
    </g>
    <g id="Grupo_57670" data-name="Grupo 57670" transform="translate(263 6315.873)">
      <g id="Grupo_57666" data-name="Grupo 57666" transform="translate(23.232 12.089)">
        <g id="Grupo_57665" data-name="Grupo 57665" transform="translate(0 37.235)">
          <path id="Trazado_100598" data-name="Trazado 100598" d="M112.1,0c29.2.257,95.642,131.341,70.473,160.938S-6.942,156.3.228,114.02,82.9-.255,112.1,0Z" transform="translate(188.154 172.06) rotate(180)" fill="#bf3976" opacity="0.1" style="isolation: isolate"/>
          <path id="Trazado_100598-2" data-name="Trazado 100598" d="M71.383,0c18.592.164,60.9,83.636,44.876,102.482S-4.421,99.529.145,72.605,52.792-.163,71.383,0Z" transform="matrix(-0.259, -0.966, 0.966, -0.259, 66.346, 179.209)" fill="#bf3976" opacity="0.1" style="isolation: isolate"/>
        </g>
        <g id="Grupo_57671" data-name="Grupo 57671" transform="translate(26.538 0)">
          <path id="Trazado_103929" data-name="Trazado 103929" d="M1134.125,265.557c-7.608-5.325-23.012,19.325-30.744,21.091s-27.985-3.561-32.681-1.331-7.238,11.148,5.429,13.385c13.992,2.471,26.607,3.4,38.115-3.932S1142.5,271.421,1134.125,265.557Z" transform="translate(-1050.736 -244.392)" fill="#1e1240"/>
          <path id="Trazado_103930" data-name="Trazado 103930" d="M1098.808,262.649s-.728-3.821,1.836-6.394c2.062-2.07,5.672-3.872,11.265-.011s3.827,10.011,9.053,12.729,9.495.654,13.026,3.6,4.109,4.924,3.525,5.661-2.243-1.83-2.822-1.783,2.377,1.173,2.775,6.471-4.075,12.771-12.162,11.913S1097.539,273.005,1098.808,262.649Z" transform="translate(-1022.545 -253.976)" fill="#ff9c9c"/>
          <g id="Grupo_57596" data-name="Grupo 57596" transform="translate(82.781 2.33)">
            <path id="Trazado_103931" data-name="Trazado 103931" d="M1134.408,277.138c.584-.737.005-2.718-3.525-5.661s-7.8-.882-13.026-3.6c-5.2-2.7-3.483-8.8-8.97-12.667a34.581,34.581,0,0,1,2.045,5.08c.982,3.414,4.971,9.913.92,13.951-1.057,1.054-5.37,2.122-9.63,2.958,6.168,8.324,15.142,16.026,19.977,16.539,8.087.858,12.558-6.613,12.162-11.913s-3.354-6.422-2.775-6.471S1133.825,277.877,1134.408,277.138Z" transform="translate(-1102.221 -255.212)" fill="#d95f76"/>
          </g>
          <path id="Trazado_103932" data-name="Trazado 103932" d="M1115.879,263.166s-8.279,2.33-11.593,6.567-.369,13.774-.645,19.514-14.084,28.607-11.875,32.844,9.849,6.181,9.849,6.181,18.746-34.005,17.059-41.5S1115.879,263.166,1115.879,263.166Z" transform="translate(-1028.904 -245.843)" fill="#311e69"/>
          <path id="Trazado_103933" data-name="Trazado 103933" d="M1114.183,350.187c-1.359-2-1.189-3.244-1.323-5.039,0,0-9.35-4.42-10.773-2.16-.729,1.155,2.155,3.225.956,4.98a6.138,6.138,0,0,1-3.314,2.273c-3.269,1.536-7.3,3.519-7.463,4.577-.264,1.764,18.8,2.053,22,.4C1115.944,354.349,1115.673,352.381,1114.183,350.187Z" transform="translate(-1028.252 -175.769)" fill="#ff9c9c"/>
          <path id="Trazado_103934" data-name="Trazado 103934" d="M1137.973,350.236a9.718,9.718,0,0,1-1.67-4.017,2.63,2.63,0,0,0-1.7-1.983c-3-1.144-9.451-3.142-11.08.128-.607,1.22,1.521,5.3-.539,6.092-3.269,1.536-7.3,3.519-7.463,4.577-.266,1.764,18.8,2.053,22,.4C1139.2,354.564,1139.462,352.432,1137.973,350.236Z" transform="translate(-1007.672 -175.564)" fill="#ff9c9c"/>
          <g id="Grupo_57598" data-name="Grupo 57598" transform="translate(0 5.937)">
            <g id="Grupo_57597" data-name="Grupo 57597" transform="translate(8.716 162.441)">
              <path id="Trazado_103935" data-name="Trazado 103935" d="M1109.824,346.421l-46.588-.1-.307,4.32c0,3.169,10.568,5.738,23.6,5.738s23.6-2.569,23.6-5.738Z" transform="translate(-1062.929 -340.631)" fill="#db9565"/>
              <ellipse id="Elipse_4272" data-name="Elipse 4272" cx="23.293" cy="5.738" rx="23.293" ry="5.738" transform="translate(0.308)" fill="#ffb176"/>
            </g>
            <path id="Rect치ngulo_6807" data-name="Rect치ngulo 6807" d="M0,0H4.737a0,0,0,0,1,0,0V79.564A1.14,1.14,0,0,1,3.6,80.7H1.14A1.14,1.14,0,0,1,0,79.564V0A0,0,0,0,1,0,0Z" transform="translate(29.949 87.423)" fill="#db9565"/>
            <path id="Trazado_103936" data-name="Trazado 103936" d="M1073.3,263.477a6.874,6.874,0,0,0,5.32-4.4,3.206,3.206,0,0,0,.188-.8c.079-1.206,11.142-1.664,12.814-.368s.8,3.512,2.307,4.275,12.422,1.668,13.676,4.95c2.722,7.11-8.183,21.233-7.069,25.738s8.1,16.682,9.054,24.151c.773,6.068-3.712,10.571-20.833,11.565s-26.269-4.06-26.284-11.154c-.015-7.93,8.177-20.826,7.1-26.149s-11.067-18.577-5.254-24.367C1067.087,264.154,1070.484,264,1073.3,263.477Z" transform="translate(-1054.62 -257.125)" fill="#d95f76"/>
            <path id="Trazado_103937" data-name="Trazado 103937" d="M1086.592,280.375a105.686,105.686,0,0,0-.564-16.7q.634-.093,1.295-.243a15.273,15.273,0,0,0,6.324-2.959,4.3,4.3,0,0,1-.818-.26,1.651,1.651,0,0,1-.786-.861,13.592,13.592,0,0,1-5.167,2.3,13.164,13.164,0,0,1-8.607-.831,13.383,13.383,0,0,1-2.254-1.3,6.908,6.908,0,0,1-1.544,1.176,15.165,15.165,0,0,0,9.236,3.161c.138,0,.275,0,.417-.006a106.317,106.317,0,0,1,.552,16.543c-1.679-.006-3.282-.053-4.776-.124a118.751,118.751,0,0,1-16.192-1.9c.3.686.6,1.365.916,2.036a122.946,122.946,0,0,0,15.144,1.695q2.421.116,4.763.13c-.049.507-.106,1.01-.172,1.5-.967,7.34-.609,32.938-.424,43.014q.936-.006,1.912-.04c-.179-10.026-.531-35.621.409-42.744.075-.571.139-1.152.194-1.738a90.086,90.086,0,0,0,9.8-.635q3.483-.43,6.669-1.142c.32-.7.645-1.406.959-2.121A77.623,77.623,0,0,1,1086.592,280.375Z" transform="translate(-1053.524 -255.156)" fill="#ffd4d4"/>
            <path id="Trazado_103938" data-name="Trazado 103938" d="M1122.206,342.535c0-3.894-9.824-32.282-9.824-32.282h0c-2.174-7.263-7.231-16.426-8.164-20.2-1.114-4.505,9.791-18.628,7.069-25.738-.818-2.139-5.74-3.269-9.485-4.008-1.408,5.25.275,13.638-2.637,13.866-11.7.916-9.193,6.871-10.588,8.194-.982.931-17.819,19.282-21.649,28.976h0a84.514,84.514,0,0,0-5.491,21.915c-1.432,12.6-4.893,19.466-2.028,22.215s12.893,5.725,17.191,4.466a24.817,24.817,0,0,1,14.686.8c4.3,1.717,14.326,1.259,16.833-1.031s6.567-5.61,11.7-5.495S1122.206,346.427,1122.206,342.535Z" transform="translate(-1058.305 -254.309)" fill="#ffb3b3"/>
            <path id="Trazado_103939" data-name="Trazado 103939" d="M1114.24,353.656c5.133.113,2.388-7.787,2.388-11.68s-9.825-32.282-9.825-32.282c-2.174-7.263-7.231-16.426-8.164-20.2-1.114-4.505,9.791-18.628,7.069-25.738-.473-1.238-2.321-2.138-4.518-2.818-.087,2.752-.383,7.915-1.4,11.074-1.433,4.466-12.417,15.114-12.3,23.7s11.938,42.94,12.177,48.9-8.119,11.908-10.387,9.5,2.865-34.582-2.986-26.337-9.43,24.848-12.3,24.047-.837-26.8-3.583-22.9-3.7,16.03-5.252,21.069c-.611,1.977-.648,5.614-.471,9.3a14.987,14.987,0,0,0,6.32.089,24.819,24.819,0,0,1,14.686.8c4.3,1.717,14.326,1.259,16.833-1.031S1109.107,353.541,1114.24,353.656Z" transform="translate(-1052.727 -253.751)" fill="#f07a8c"/>
          </g>
          <path id="Trazado_103940" data-name="Trazado 103940" d="M1137.276,307.7c-3.412-7.559-6.922-17.433-7.557-25.487-.4-5.059-.737-9.981-5.992-14.3-7.6-6.243-14.428-5.572-21.455,1.238-4.313,4.177-1.533,12.177-.469,17.21,1.127,5.327-2,12.064-4.14,17.012A71.876,71.876,0,0,0,1137.276,307.7Z" transform="translate(-1023.474 -245.443)" fill="#fff"/>
          <path id="Trazado_103941" data-name="Trazado 103941" d="M1138.775,349.023c-1.363-6.812,16.835-41.221,9.536-55.687-.662-1.31-1.352-2.762-2.047-4.3a71.876,71.876,0,0,1-39.613-4.324,18.2,18.2,0,0,1-2.053,3.762c-8.535,10.462-18.963,40.371-16.8,58.226,3.188,26.318,13.28,51.157,16.149,52.884,4.831,2.907,19.1,3.269,19.393.748.481-4.132-15.8-49.781-15.8-56.23,0-6.626,12.009-31.572,12.009-31.572-.188,7.793-4.16,28.458-1.214,41.17,3.155,13.623,18.8,43.975,26.333,46.9,7.911,3.073,21.966-2.322,22.733-4.9C1169.756,387.792,1140.22,356.255,1138.775,349.023Z" transform="translate(-1032.461 -226.774)" fill="#311e69"/>
          <g id="Grupo_57599" data-name="Grupo 57599" transform="translate(92.366 62.262)">
            <path id="Trazado_103942" data-name="Trazado 103942" d="M1121.254,346.993c-1.363-6.812,16.835-41.221,9.536-55.687-.662-1.31-1.352-2.762-2.047-4.3a67.934,67.934,0,0,1-15.742.988c-2.569,9.269-5.365,20.7-5.465,26.861-.185,11.478-1.657,29.136,6.075,39.907,6.918,9.636,8.969,27.666,5.766,35.883,2.926,4.143,5.666,7.108,7.772,7.926,7.911,3.073,21.966-2.322,22.733-4.9C1152.236,385.761,1122.7,354.225,1121.254,346.993Z" transform="translate(-1107.306 -287.006)" fill="#1e1240"/>
          </g>
          <path id="Trazado_103943" data-name="Trazado 103943" d="M1104.335,263.851s3.668,1.218,5,3.453,8.937,32.718,8.937,41.964-2.087,23.137-2.087,23.137,15.193-2.588,18.166-7.063c2.549-3.836.839-13.879-.123-18.364-1.489-6.946-9.625-34.526-12.594-38.26C1118.02,264.179,1107.012,261.508,1104.335,263.851Z" transform="translate(-1017.569 -246.003)" fill="#311e69"/>
          <path id="Trazado_103944" data-name="Trazado 103944" d="M1105.681,260.97l2.81,7.659c.458,1.263-1.646,5.57-4.294,4.643-.775-.271-.588-2.271-.477-3.772l-.758-7.116Z" transform="translate(-1018.783 -247.786)" fill="#ff6161"/>
          <path id="Trazado_103945" data-name="Trazado 103945" d="M1103.362,265.887c1.542-1.063,2.4-4.1,2.4-4.1l-2.739.89Z" transform="translate(-1018.732 -247.063)" fill="#311e69"/>
          <path id="Trazado_103946" data-name="Trazado 103946" d="M1106.688,259.275l1.523,2.8a4.562,4.562,0,0,1-1.821,6.247,4.243,4.243,0,0,1-6.006-2.04c-1.148-2.322-.094-4.99.168-6.294C1101.15,257.011,1104.692,256.184,1106.688,259.275Z" transform="translate(-1021.529 -251.017)" fill="#ff6161"/>
          <path id="Trazado_103947" data-name="Trazado 103947" d="M1105.56,263.949a6.64,6.64,0,0,1-3.542.188,6.507,6.507,0,0,1-1.909-1.485c.019.043.034.089.056.13a4.243,4.243,0,0,0,6.006,2.04,4.458,4.458,0,0,0,2.37-3.553A5.943,5.943,0,0,1,1105.56,263.949Z" transform="translate(-1021.31 -247.521)" fill="#ad263d"/>
          <path id="Trazado_103948" data-name="Trazado 103948" d="M1104.343,260.832a3.715,3.715,0,0,0,.179-.809c.066-.524.288-1.287,1.05-.812,1.108.69.6,3.459-.771,3.517C1103.779,262.772,1104.107,261.494,1104.343,260.832Z" transform="translate(-1017.778 -249.475)" fill="#ff6161"/>
          <path id="Trazado_103949" data-name="Trazado 103949" d="M1100.6,261.557a5.3,5.3,0,0,0,3.284,0,2.135,2.135,0,0,1-1.953,1.169C1100.515,262.7,1100.6,261.557,1100.6,261.557Z" transform="translate(-1020.872 -247.267)" fill="#fff"/>
          <path id="Trazado_103950" data-name="Trazado 103950" d="M1144.317,266.221c-7.608-5.325-23.214,22.164-30.948,23.928s-31.758-4.811-36.454-2.582-3.461,10.411,9.206,12.648c13.993,2.473,27.808,5.21,39.316-2.119S1152.694,272.085,1144.317,266.221Z" transform="translate(-1044.063 -243.744)" fill="#311e69"/>
          <path id="Trazado_103951" data-name="Trazado 103951" d="M1145.444,266.465c-5.9,6.358-14.91,22.083-17.1,24.088-2.786,2.549-11.393,6.722-21.666,6.281s-19.186-5.121-26.181-7.859c-2.626-1.027-4.473-.745-5.758.009-1.4,3.333,1.512,8.667,11.374,10.409,13.993,2.473,27.808,5.21,39.316-2.119C1136.314,290.342,1150.982,273.255,1145.444,266.465Z" transform="translate(-1044.054 -242.923)" fill="#1e1240"/>
          <path id="Trazado_103952" data-name="Trazado 103952" d="M1080.527,282.329s-.823-4.3-2.162-5.828-3.365-4.319-3.581-3.561c-.209.735,1.018,3.031.956,3.384s-2.087-2.471-2.946-2.119-.735,3.649-.305,5.18,3.926,7.534,5.583,6.711S1080.527,282.329,1080.527,282.329Z" transform="translate(-1046.049 -237.306)" fill="#ff6161"/>
          <path id="Trazado_103953" data-name="Trazado 103953" d="M1113.627,299.47s-16.219,3-16.588,15.242-3.069,21.191-2.822,27.548c.2,5.225,3.97,35.059,10.824,46.29,5.706.8,12.179.411,12.373-1.278.481-4.132-15.8-49.781-15.8-56.23C1101.618,324.416,1113.627,299.47,1113.627,299.47Z" transform="translate(-1026.537 -213.713)" fill="#1e1240"/>
        </g>
      </g>
      <rect id="Rect치ngulo_6817" data-name="Rect치ngulo 6817" width="235" height="235" fill="none"/>
    </g>
  </g>
</svg>
