<svg xmlns="http://www.w3.org/2000/svg" width="400" height="262.127" viewBox="0 0 400 262.127">
  <g id="Grupo_62703" data-name="Grupo 62703" transform="translate(-1020 -6315.873)">
    <g id="Image_Place_Holder" data-name="Image Place Holder" transform="translate(1020 6346.803)" opacity="0.2">
      <rect id="Image_Place_Holder-2" data-name="Image Place Holder" width="400" height="231.197" rx="10" fill="#339ce9"/>
    </g>
    <g id="Grupo_57667" data-name="Grupo 57667" transform="translate(1102.825 6315.873)">
      <g id="Grupo_57666" data-name="Grupo 57666" transform="translate(13.212 3.459)">
        <g id="Grupo_57665" data-name="Grupo 57665" transform="translate(10.02 48.874)">
          <path id="Trazado_100598" data-name="Trazado 100598" d="M112.1,0c29.2.257,95.642,131.341,70.473,160.938S-6.942,156.3.228,114.02,82.9-.255,112.1,0Z" transform="translate(188.154 172.06) rotate(180)" fill="#bf3976" opacity="0.1" style="isolation: isolate"/>
          <path id="Trazado_100598-2" data-name="Trazado 100598" d="M71.383,0c18.592.164,60.9,83.636,44.876,102.482S-4.421,99.529.145,72.605,52.792-.163,71.383,0Z" transform="matrix(-0.259, -0.966, 0.966, -0.259, 66.346, 179.209)" fill="#bf3976" opacity="0.1" style="isolation: isolate"/>
        </g>
        <g id="Grupo_57660" data-name="Grupo 57660">
          <g id="Grupo_57653" data-name="Grupo 57653" transform="translate(0 0)">
            <g id="Grupo_57644" data-name="Grupo 57644" transform="translate(37.875 212.558)">
              <path id="Trazado_104048" data-name="Trazado 104048" d="M1181.334,349.047a7.006,7.006,0,0,0,1.222-3.342l1.426.065a2.64,2.64,0,0,1,2.4,1.9,2.6,2.6,0,0,0,.225.528c.256.454,1.052.819,2.148,1.338,1.727.989,3.858,2.257,3.905,2.866.081,1.012-10.334.512-12.021-.542C1179.76,351.312,1180.442,350.244,1181.334,349.047Z" transform="translate(-1180.231 -345.705)" fill="#1e1240"/>
            </g>
            <g id="Grupo_57645" data-name="Grupo 57645" transform="translate(0 208.88)">
              <path id="Trazado_104049" data-name="Trazado 104049" d="M1160.232,346.565a7.012,7.012,0,0,0,1.976-2.957l3.63,1.057a3.551,3.551,0,0,0-.282,2.324c.142.5.829,1.045,1.771,1.81,1.445,1.368,3.214,3.1,3.118,3.706-.161,1-10.162-1.945-11.553-3.367C1158.166,348.394,1159.082,347.517,1160.232,346.565Z" transform="translate(-1158.634 -343.608)" fill="#1e1240"/>
            </g>
            <path id="Trazado_104050" data-name="Trazado 104050" d="M1177.281,285.639c1.539-1.445,5.632-1.182,9.517,3.839s7.306,11.155,8.533,11.32c2.353.317,20.136-15.32,22.734-13.337,3.7,2.818-6.538,20.8-18.477,24.821C1186.428,316.719,1172.039,290.563,1177.281,285.639Z" transform="translate(-1145.412 -178.993)" fill="#baced3"/>
            <path id="Trazado_104051" data-name="Trazado 104051" d="M1179.98,299.63l2.108-8.63s4.1,14.631,2.974,13.759A29.758,29.758,0,0,1,1179.98,299.63Z" transform="translate(-1142.545 -174.377)" fill="#1e1240"/>
            <path id="Trazado_104052" data-name="Trazado 104052" d="M1183.032,302.712a17.2,17.2,0,0,0,4.663,2.56c2.234-1.131,6.236-3.879,6.727-9.186C1195.026,289.579,1185.386,300.066,1183.032,302.712Z" transform="translate(-1140.245 -172.123)" fill="#311e69"/>
            <path id="Trazado_104053" data-name="Trazado 104053" d="M1213,339.7c-1.408-17.886-9.9-30.844-12.749-36.568-1.208-3.218-26.451,5.468-26.9,6.725-4.437,12.411,1.424,28.776-.017,36.012-.6,3.036-13.977,24.567-12.933,30.307.335,1.843,4.847,3.953,6.571,3.029,12.078-6.48,17.3-22.11,18.7-26.046,3.221-9.06,3.016-34.414,6.646-27.664.633,1.175,6.529,17.379,6.529,18.994,0,5.221-5.741,37.008-1.464,37.008.745,0,4.3.147,5.068-.514C1209.2,375.148,1213.473,345.683,1213,339.7Z" transform="translate(-1157.346 -165.772)" fill="#614cd4"/>
            <g id="Grupo_57646" data-name="Grupo 57646" transform="translate(10.469 104.615)">
              <path id="Trazado_104054" data-name="Trazado 104054" d="M1164.724,292.739c3.281-9.07,18.354-9.373,23.083-7.949,8.074,2.431,6.01,27.5,9.233,32.1.246.493.535,1.042.854,1.64-5.1,2.11-7.15,11.66-28.232,6.589C1169.808,324.616,1163.675,295.638,1164.724,292.739Z" transform="translate(-1164.603 -284.153)" fill="#d8e7eb"/>
            </g>
            <g id="Grupo_57647" data-name="Grupo 57647" transform="translate(37.729 136.646)">
              <path id="Trazado_104055" data-name="Trazado 104055" d="M1198.074,339.7c-1.408-17.886-9.9-30.844-12.749-36.568-.323-.859-2.359-.87-5.177-.4.551,4.93,1.135,9.671,1.475,11.034.784,3.134,9.012,25.172,9.8,32.617.516,4.9-5.817,15.623-10.2,22.363-.593,7.006-.585,12.751,1.233,12.751.745,0,4.3.147,5.068-.514C1194.276,375.148,1198.546,345.683,1198.074,339.7Z" transform="translate(-1180.148 -302.418)" fill="#311e69"/>
            </g>
            <g id="Grupo_57648" data-name="Grupo 57648" transform="translate(27.157 104.617)">
              <path id="Trazado_104056" data-name="Trazado 104056" d="M1189.869,316.893c-3.223-4.6-1.159-29.674-9.233-32.1a22.307,22.307,0,0,0-6.516-.621,30.178,30.178,0,0,1,5.2,11.992c1.641,8.018,3.269,20.023,5.149,27.2,2.588-1.845,4.167-3.962,6.257-4.826C1190.4,317.935,1190.114,317.386,1189.869,316.893Z" transform="translate(-1174.119 -284.154)" fill="#baced3"/>
            </g>
            <path id="Trazado_104057" data-name="Trazado 104057" d="M1176.9,297.779l-6.634-.984s6.883,10.654,21.64,8.486a38.673,38.673,0,0,1-.889-5.186C1184.876,298.733,1176.9,297.779,1176.9,297.779Z" transform="translate(-1149.863 -170.01)" fill="#311e69"/>
            <path id="Trazado_104058" data-name="Trazado 104058" d="M1177.5,284.695s-5.7-.167-7.02.519,3.84,6.017,6.9,5.329S1177.5,284.695,1177.5,284.695Z" transform="translate(-1149.864 -179.143)" fill="#ff6161"/>
            <path id="Trazado_104059" data-name="Trazado 104059" d="M1172.777,281.646a10.449,10.449,0,0,0-2.3,3.2c-.375,1.322,2.413,1.231,4.482-.986a19.142,19.142,0,0,0,2.58-3.165S1173.822,280.75,1172.777,281.646Z" transform="translate(-1149.733 -182.147)" fill="#1e1240"/>
            <path id="Trazado_104060" data-name="Trazado 104060" d="M1171.775,281.684s-.074,1.9.868,2.25,2.166-2.967,1.085-3.253S1171.775,281.684,1171.775,281.684Z" transform="translate(-1148.73 -182.186)" fill="#ff8f8f"/>
            <path id="Trazado_104061" data-name="Trazado 104061" d="M1173.087,281.885l-2.068,5.843c-.021.852,4.528,3.293,5.892,2.238.4-.309.3-1.128-.053-2.02l-2.127-4.859Z" transform="translate(-1149.299 -181.247)" fill="#ff6161"/>
            <path id="Trazado_104062" data-name="Trazado 104062" d="M1174.333,283.319c-.937-.182-2.217-.447-2.217-.447a4.069,4.069,0,0,0,1.349,2.646,3.886,3.886,0,0,0,2.257.973Z" transform="translate(-1148.472 -180.503)" fill="#311e69"/>
            <path id="Trazado_104063" data-name="Trazado 104063" d="M1173.6,281.26l-1.375,3.276a2.169,2.169,0,0,0,1.321,2.718,6.019,6.019,0,0,0,2.632.319c.971-.039,1.54-.922,1.642-2.182a11.8,11.8,0,0,0-.438-3.995C1176.857,279.536,1174.652,279.193,1173.6,281.26Z" transform="translate(-1148.472 -182.781)" fill="#ff6161"/>
            <path id="Trazado_104064" data-name="Trazado 104064" d="M1173.5,282.256a3.181,3.181,0,0,1-.007-.658c.033-.416-.014-1.043-.656-.789-.937.37-.993,2.6.024,2.853C1173.619,283.85,1173.575,282.807,1173.5,282.256Z" transform="translate(-1148.47 -182.102)" fill="#ff6161"/>
            <path id="Trazado_104065" data-name="Trazado 104065" d="M1174.1,282.151a5.81,5.81,0,0,0,1.915.212.749.749,0,0,1-.477.6A1.022,1.022,0,0,1,1174.1,282.151Z" transform="translate(-1146.978 -181.046)" fill="#fff"/>
            <path id="Trazado_104066" data-name="Trazado 104066" d="M1176.579,284.363c-1.059-.3-2.008,1.261-3.8-.438a2.781,2.781,0,0,1-.528-1.443l-.03.072a2.169,2.169,0,0,0,1.321,2.718,6.023,6.023,0,0,0,2.634.319,1.514,1.514,0,0,0,1.312-.908A5.087,5.087,0,0,1,1176.579,284.363Z" transform="translate(-1148.472 -180.798)" fill="#ad263d"/>
            <path id="Trazado_104067" data-name="Trazado 104067" d="M1174.623,282.6l3.511-.21s.109-3.3-.651-3.59a6.636,6.636,0,0,0-5.328.63c-1.154.926-.231,3.86-.231,3.86l1.052-.361A6.212,6.212,0,0,1,1174.623,282.6Z" transform="translate(-1148.88 -183.791)" fill="#311e69"/>
            <path id="Trazado_104068" data-name="Trazado 104068" d="M1173.789,280.351l.062.3a.219.219,0,0,0,.265.174c.242-.054.621-.135.787-.151s.521-.012.772-.005a.222.222,0,0,0,.223-.267l-.058-.288a.222.222,0,0,0-.191-.177,5.851,5.851,0,0,0-1.685.154A.223.223,0,0,0,1173.789,280.351Z" transform="translate(-1147.215 -182.726)" fill="#ff8f8f"/>
            <g id="Grupo_57650" data-name="Grupo 57650" transform="translate(29.377)">
              <path id="Trazado_104069" data-name="Trazado 104069" d="M1246.609,309.848c-1.545-11.36-38.185-34.249-50.278-43.077-1.11,3.8-3.455,8.912-8.342,11.79,6.515,7.346,14.741,15.392,18.117,20.046,5.375,7.415,6.657,28.034,16.557,32.078C1236.682,336.411,1248.405,323.052,1246.609,309.848Zm-22.174,13.538c-8.23-1.994-12.393-31.389-5.231-31.122s16.027,11.164,16.027,11.164C1247.3,319.507,1232.666,325.381,1224.436,323.387Z" transform="translate(-1165.887 -192.638)" fill="#d95f76"/>
              <path id="Trazado_104070" data-name="Trazado 104070" d="M1205.752,298.321a21.206,21.206,0,0,1-3.7-3.079L1181.6,224.91a13.91,13.91,0,0,0-6.11,11.436c-.058,7.8,10.043,54.208,13.5,62.289,1.289,3.008,4.552,7.118,8.416,11.476C1202.3,307.233,1204.642,302.124,1205.752,298.321Z" transform="translate(-1175.307 -224.188)" fill="#c7d9dd"/>
              <g id="Grupo_57649" data-name="Grupo 57649">
                <path id="Trazado_104071" data-name="Trazado 104071" d="M1189.235,269.684a19.452,19.452,0,0,1-4.5,10.575,90.579,90.579,0,0,0-5.7,7.308c-2.458,3.7-4.17,9.992-3.495,21.021.538,8.83,2.266,30.632,20.679,31.861s12.053-47.007,7.664-55.269c-2.432-4.582-4.744-8.84-4.744-8.84l0-.694c-.879-.938-1.8-1.98-2.739-3.109A7.26,7.26,0,0,0,1189.235,269.684Zm12.016,25.984c4.535,13.261,1.3,26.356-1.049,32.338s-8.188,7.643-14.687-.43-4.675-23.612-3.763-29.167c1.177-7.178,6.424-9.624,11.492-9.017S1201.251,295.668,1201.251,295.668Z" transform="translate(-1175.386 -190.533)" fill="#d95f76"/>
                <path id="Trazado_104072" data-name="Trazado 104072" d="M1185.461,225.229l-1.5-.731-.57,77.148h0a19.45,19.45,0,0,1-.107,2,7.26,7.26,0,0,1,7.162,2.851c.935,1.129,1.861,2.171,2.739,3.109l.486-71.389A14.169,14.169,0,0,0,1185.461,225.229Z" transform="translate(-1169.433 -224.498)" fill="#ddecf0"/>
              </g>
              <circle id="Elipse_4274" data-name="Elipse 4274" cx="2.723" cy="2.723" r="2.723" transform="translate(16.228 70.3)" fill="#b1c6c9"/>
            </g>
            <g id="Grupo_57651" data-name="Grupo 57651" transform="translate(10.756 104.849)">
              <path id="Trazado_104073" data-name="Trazado 104073" d="M1164.771,290.79c.48,8.009,12.665,17.956,25.035,20.248,14.308,2.65,26.812-18.734,20.536-23.957-2.685-2.234-13.426,14.212-19.215,14.366-2.422.063-11.988-8.235-17.095-10.617S1164.627,288.377,1164.771,290.79Z" transform="translate(-1164.767 -282.338)" fill="#ddecf0"/>
              <path id="Trazado_104074" data-name="Trazado 104074" d="M1164.846,291.8c3.052,1.371,7.487,3.609,8.858,5.554,2.161,3.058-.17,4.412,6.022,6.278s10,3.87,13.357,4.042,10-6.2,12.037-9.012c1.87-2.578,2.915-9.65,5.007-11.725a.876.876,0,0,1,.155.1c6.276,5.222-6.228,26.607-20.536,23.957C1177.911,308.8,1166.255,299.6,1164.846,291.8Z" transform="translate(-1164.708 -282.292)" fill="#baced3"/>
              <path id="Trazado_104075" data-name="Trazado 104075" d="M1190.06,288.738a11.484,11.484,0,0,0,1.042-2.183c.068-.53-.828-1.731-.358-1.955s1.322,1.019,1.508,1.642,3.811-2.382,4.293-1.9,0,1.855.161,2.487.021,1.734-1.954,3.446S1188.494,292.347,1190.06,288.738Z" transform="translate(-1145.959 -284.286)" fill="#ff6161"/>
            </g>
            <g id="Grupo_57652" data-name="Grupo 57652" transform="translate(2.997 158.843)">
              <path id="Trazado_104076" data-name="Trazado 104076" d="M1184.46,327.142c-.349,6.562-7.108,24.585-12.006,27.915-2.671,1.819-6.138,4.246-10.161,3.853-1.355,3.3-2.183,6.126-1.894,7.723.335,1.843,4.847,3.953,6.571,3.029,12.078-6.48,17.3-22.11,18.7-26.046,2.666-7.5,2.985-26.158,5.075-28.541C1190.745,315.077,1184.809,320.58,1184.46,327.142Z" transform="translate(-1160.342 -315.075)" fill="#311e69"/>
            </g>
          </g>
          <g id="Grupo_57659" data-name="Grupo 57659" transform="translate(115.047 62.534)">
            <path id="Trazado_104077" data-name="Trazado 104077" d="M1257.984,279.757a2.933,2.933,0,0,0-2.064-.886,2.8,2.8,0,0,0-3.135,3.013.808.808,0,0,0-1.045.146c-.5.523,0,1.589,0,1.589a2.209,2.209,0,0,0-1.022,2.467,2.476,2.476,0,0,0,2.046,1.866.9.9,0,0,0,.523,1.347c1.066.481,1.547.209,1.547.209s.729,2.629,3.218,2.275,3.053-1.459,3.053-1.459a6.076,6.076,0,0,0,3.875-.189,2.087,2.087,0,0,0,.261-3.528,1.4,1.4,0,0,0,.2-1.776s.719-.375.458-.94a.723.723,0,0,0-.826-.417s1.37-2.916-2.071-4.5S1257.984,279.757,1257.984,279.757Z" transform="translate(-1204.336 -259.234)" fill="#311e69"/>
            <path id="Trazado_104078" data-name="Trazado 104078" d="M1253.7,305.914c-3.136-.447-6.338-5.654-9-8.572s8.64-11.7,12.339-10.317S1256.61,306.329,1253.7,305.914Z" transform="translate(-1209.116 -252.86)" fill="#ad263d"/>
            <path id="Trazado_104079" data-name="Trazado 104079" d="M1276.795,348.828c-1.677-.493.326-23.789.3-25.833-.079-6.676-6.22-10.492-8.035-14.64-2.09-4.78,6.342-12.249,1.519-17.84-2.078-2.41-5.731-4.293-11.59-4.291a4.155,4.155,0,0,0-3.494,1.3c-.978,1.224-3.706,3.569-3.765,6.061-.062,2.52,2.543,5.2,1.68,8.07-.67,2.232-1.427,4.919-2.2,7.753-2.748,10.05-5.014,10.6-5.722,22.328-.912,15.094,4.419,35.005,17.782,53.878.708,1,3.734,0,3.734,0,.072-1.568-2.748-23.934-7.83-31.864-1.854-2.89-.051-27.219.7-27.133.54.061-3.5,37.259,34.163,39.179l1.068-3.073S1286.876,351.791,1276.795,348.828Z" transform="translate(-1208.295 -253.354)" fill="#ff6161"/>
            <path id="Trazado_104080" data-name="Trazado 104080" d="M1253.992,332.643c.209,2.362,8.079,23.561,8.2,26.437a2.778,2.778,0,0,1-.393,1.557c-10.21-15.115-15.343-30.756-16.311-43.952C1248.959,322.576,1253.858,331.123,1253.992,332.643Z" transform="translate(-1208.22 -230.396)" fill="#ad263d"/>
            <path id="Trazado_104081" data-name="Trazado 104081" d="M1284.617,341.812c-18.272-1.626-26.095-11.929-29.458-21.542a4.46,4.46,0,0,1,2.7-2.318c4.74-1.215,4.39,9.424,6.6,11.253s9.773,5.952,14.59,7.776A9.5,9.5,0,0,1,1284.617,341.812Z" transform="translate(-1200.932 -229.514)" fill="#ad263d"/>
            <path id="Trazado_104082" data-name="Trazado 104082" d="M1245.487,331.74c.708-11.723,2.974-12.277,5.722-22.328.773-2.834,1.531-5.521,2.2-7.753.863-2.874-1.741-5.55-1.68-8.07.059-2.492,2.786-4.837,3.765-6.061a4.155,4.155,0,0,1,3.493-1.3c5.859,0,9.512,1.882,11.59,4.291,4.823,5.591-3.609,13.06-1.519,17.84,1.815,4.147,7.956,7.963,8.035,14.64.016,1.278-.761,10.867-.936,17.993a25.606,25.606,0,0,1-12.776,5.363,23.736,23.736,0,0,1-3.129.182c-.631-.005-1.263-.025-1.889-.053a77.95,77.95,0,0,1-12.218-1.606A63.486,63.486,0,0,1,1245.487,331.74Z" transform="translate(-1208.295 -253.354)" fill="#311e69"/>
            <path id="Trazado_104083" data-name="Trazado 104083" d="M1251.21,309.412c.773-2.834,1.531-5.521,2.2-7.753.863-2.874-1.741-5.55-1.68-8.07.059-2.492,2.786-4.837,3.765-6.061a4.155,4.155,0,0,1,3.493-1.3,24.215,24.215,0,0,1,2.706.151c-.628,1.47-1.666,3.318-2.706,5.915-2.218,5.547-5.552,21.584-6.25,26.559s1.1,17.223,7.039,20.381c3.883,2.062,8.193,4.039,10.724,5.165a24.937,24.937,0,0,1-7.118,1.955,23.736,23.736,0,0,1-3.129.182c-.631-.005-1.263-.025-1.889-.053a77.95,77.95,0,0,1-12.218-1.606,63.486,63.486,0,0,1-.661-13.133C1246.2,320.016,1248.462,319.462,1251.21,309.412Z" transform="translate(-1208.295 -253.354)" fill="#1e1240"/>
            <path id="Trazado_104084" data-name="Trazado 104084" d="M1261.25,287.779s-1.434-1.415-4.916-1.164-5.375,6.694-5.142,9.565c.153,1.869,1.079,8.139,1.079,8.139a30.085,30.085,0,0,1,3.809-10.324C1258.265,290.168,1262.607,288.581,1261.25,287.779Z" transform="translate(-1203.935 -253.081)" fill="#ffe6e6"/>
            <path id="Trazado_104085" data-name="Trazado 104085" d="M1257.515,284.274l-.052,4.8c-.01.789-2.089,2.774-3.364,1.747-.373-.3.151-1.377.53-2.189l1.079-4.1Z" transform="translate(-1201.827 -254.823)" fill="#ff6161"/>
            <path id="Trazado_104086" data-name="Trazado 104086" d="M1254.6,286.631a2.814,2.814,0,0,0,2.178-1.91l-1.69.06Z" transform="translate(-1201.355 -254.486)" fill="#311e69"/>
            <path id="Trazado_104087" data-name="Trazado 104087" d="M1258.132,283.4l.256,1.848a2.772,2.772,0,0,1-2.329,3.118,2.442,2.442,0,0,1-2.908-2.3c-.147-1.513,1-2.792,1.421-3.465C1255.531,281.066,1257.674,281.293,1258.132,283.4Z" transform="translate(-1202.454 -256.833)" fill="#ff6161"/>
            <path id="Trazado_104088" data-name="Trazado 104088" d="M1256.014,284.075a2.371,2.371,0,0,0,.139-.472c.06-.307.222-.749.652-.44.626.449.214,2.064-.6,2.047C1255.6,285.2,1255.848,284.456,1256.014,284.075Z" transform="translate(-1200.433 -255.74)" fill="#ff6161"/>
            <path id="Trazado_104089" data-name="Trazado 104089" d="M1254.1,283.748a2.2,2.2,0,0,1,0-.489c.03-.31,0-.779-.5-.594-.73.268-.791,1.931,0,2.127C1254.176,284.935,1254.151,284.158,1254.1,283.748Z" transform="translate(-1202.54 -256.068)" fill="#ff6161"/>
            <path id="Trazado_104090" data-name="Trazado 104090" d="M1255.433,284.115a5.877,5.877,0,0,1-1.839-.274,2.119,2.119,0,0,0,.5,1.091C1254.473,285.239,1255.025,284.869,1255.433,284.115Z" transform="translate(-1202.111 -255.15)" fill="#fff"/>
            <path id="Trazado_104091" data-name="Trazado 104091" d="M1255.9,285.881a3.876,3.876,0,0,1-2.008-.582,3.7,3.7,0,0,1-.749-1.2c0,.028,0,.056,0,.084a2.442,2.442,0,0,0,2.908,2.3,2.745,2.745,0,0,0,2.066-1.513A3.647,3.647,0,0,1,1255.9,285.881Z" transform="translate(-1202.45 -254.952)" fill="#ad263d"/>
            <g id="Grupo_57654" data-name="Grupo 57654" transform="translate(48.871 129.48)">
              <path id="Trazado_104092" data-name="Trazado 104092" d="M1259.346,343.473c-.687.593-3.469,4.076-4.449,4.17a3.978,3.978,0,0,1-1.251-.074,9.028,9.028,0,0,0,1.936-2.781,7.038,7.038,0,0,0,.877-3.474l4.116,1.321s.073.167.167.423A2.093,2.093,0,0,0,1259.346,343.473Z" transform="translate(-1250.942 -341.314)" fill="#ff6161"/>
              <path id="Trazado_104093" data-name="Trazado 104093" d="M1252.276,348.132a6.3,6.3,0,0,1,2.178-1.112,1.32,1.32,0,0,0,.354-.2,3.978,3.978,0,0,0,1.25.074c.98-.095,3.762-3.577,4.449-4.17a2.092,2.092,0,0,1,1.4-.416,4.589,4.589,0,0,1,.354,2.264,21.23,21.23,0,0,0-.737,4.472H1260.3v-3.013a6.264,6.264,0,0,0-1.424.989,3.192,3.192,0,0,0-.51.868,2,2,0,0,1-1.842,1.156h-3.858A.528.528,0,0,1,1252.276,348.132Z" transform="translate(-1252.104 -340.565)" fill="#311e69"/>
            </g>
            <g id="Grupo_57655" data-name="Grupo 57655" transform="translate(83.506 108.862)">
              <path id="Trazado_104094" data-name="Trazado 104094" d="M1274.955,330.957c.347.822,2.813,4.517,2.571,5.435a3.632,3.632,0,0,1-.5,1.1,9.042,9.042,0,0,0-2.067-2.7,7.589,7.589,0,0,0-3.106-1.975l2.7-3.262s.188-.009.472-.005A1.868,1.868,0,0,0,1274.955,330.957Z" transform="translate(-1271.854 -329.557)" fill="#ff6161"/>
              <path id="Trazado_104095" data-name="Trazado 104095" d="M1276.165,340.223a5.742,5.742,0,0,1-.347-2.343,1.212,1.212,0,0,0-.076-.386,3.635,3.635,0,0,0,.5-1.1c.242-.917-2.224-4.612-2.571-5.435a1.868,1.868,0,0,1,.068-1.4,5.153,5.153,0,0,1,2.339.452,23.283,23.283,0,0,0,4.134,2.187l-.419,1.107-2.953-1.026a5.825,5.825,0,0,0,.484,1.619,3.33,3.33,0,0,0,.677.758,1.858,1.858,0,0,1,.505,2.054l-1.315,3.479A.561.561,0,0,1,1276.165,340.223Z" transform="translate(-1270.569 -329.556)" fill="#311e69"/>
            </g>
            <g id="Grupo_57656" data-name="Grupo 57656">
              <path id="Trazado_104096" data-name="Trazado 104096" d="M1224.559,305.978l5.952-8.191c.354-1.359,6.62-1.028,14,.74s13.07,4.3,12.716,5.663l1.233,9.914a.745.745,0,0,1,.063.5c-.455,1.743-8.493,1.317-17.954-.951s-16.763-5.519-16.309-7.262A.775.775,0,0,1,1224.559,305.978Z" transform="translate(-1224.237 -245.27)" fill="#db9565"/>
              <path id="Trazado_104097" data-name="Trazado 104097" d="M1238.609,274.064l26.23,6.287-10.662,40.8c-.426,1.3-6.527.97-13.707-.751s-12.725-4.183-12.463-5.521Z" transform="translate(-1221.403 -262.518)" fill="#311e69"/>
              <path id="Trazado_104098" data-name="Trazado 104098" d="M1267.433,276.3l-6.252,8.605c-.354,1.359-6.622,1.028-14-.74s-13.07-4.3-12.716-5.663l-1.3-10.415Z" transform="translate(-1217.504 -267.019)" fill="#db9565"/>
              <path id="Trazado_104099" data-name="Trazado 104099" d="M1233.179,268.553c-.454,1.743,6.848,4.995,16.309,7.264s17.5,2.692,17.954.949-6.846-4.994-16.309-7.262S1233.633,266.81,1233.179,268.553Z" transform="translate(-1217.513 -267.48)" fill="#ffb176"/>
              <path id="Trazado_104100" data-name="Trazado 104100" d="M1239.208,269.716c-.174.665,2.618,1.908,6.236,2.776s6.692,1.029,6.866.363-2.618-1.91-6.236-2.776S1239.381,269.048,1239.208,269.716Z" transform="translate(-1212.959 -266.105)" fill="#db9565"/>
              <path id="Trazado_104101" data-name="Trazado 104101" d="M1254.208,279.573a17.582,17.582,0,0,1-3.681.572,31.493,31.493,0,0,1-3.707-.014c-1.238-.047-2.469-.214-3.707-.356l-3.725-.547c.582.237,1.182.43,1.776.647.609.168,1.215.349,1.835.488a23.674,23.674,0,0,0,3.774.531,18.871,18.871,0,0,0,3.825-.158A10.356,10.356,0,0,0,1254.208,279.573Z" transform="translate(-1212.818 -258.626)" fill="#614cd4"/>
              <path id="Trazado_104102" data-name="Trazado 104102" d="M1254.541,285.068c-.889.07-1.771.132-2.659.124-.882.023-1.766,0-2.645-.044a35.442,35.442,0,0,1-5.21-.675,27.028,27.028,0,0,1-5-1.508l-1.207-.507-1.159-.607c-.807-.358-1.492-.9-2.276-1.321a17.991,17.991,0,0,0,4.382,2.967l.6.305.626.247c.419.158.831.338,1.259.479a26.074,26.074,0,0,0,2.608.693,25.091,25.091,0,0,0,5.366.512A22.147,22.147,0,0,0,1254.541,285.068Z" transform="translate(-1216.587 -257.644)" fill="#614cd4"/>
              <path id="Trazado_104103" data-name="Trazado 104103" d="M1250.253,284.4a18.662,18.662,0,0,1-5.431.48,26.729,26.729,0,0,1-2.708-.293c-.454-.06-.9-.167-1.357-.239s-.9-.2-1.373-.265a11.5,11.5,0,0,0,2.59,1.086,13.114,13.114,0,0,0,2.806.475,11.856,11.856,0,0,0,2.85-.216A7.307,7.307,0,0,0,1250.253,284.4Z" transform="translate(-1212.82 -254.969)" fill="#614cd4"/>
              <path id="Trazado_104104" data-name="Trazado 104104" d="M1254.172,294.3a11.658,11.658,0,0,1-2.892.789,16.133,16.133,0,0,1-2.978.205,25.341,25.341,0,0,1-5.9-.81,44.246,44.246,0,0,1-5.722-1.766,20.317,20.317,0,0,1-2.694-1.268,9.092,9.092,0,0,1-2.367-1.768,7.973,7.973,0,0,0,2.166,2.064,18.448,18.448,0,0,0,2.653,1.487,31.051,31.051,0,0,0,5.768,1.983,20.5,20.5,0,0,0,6.108.689A12.2,12.2,0,0,0,1254.172,294.3Z" transform="translate(-1218.672 -250.747)" fill="#614cd4"/>
              <path id="Trazado_104105" data-name="Trazado 104105" d="M1242.937,292.049c-1.143-.191-2.2-.388-3.276-.607l-1.617-.333c-.546-.109-1.093-.226-1.677-.289a7.681,7.681,0,0,0,3.129,1.371,8.5,8.5,0,0,0,1.727.16A4.855,4.855,0,0,0,1242.937,292.049Z" transform="translate(-1215.094 -249.89)" fill="#614cd4"/>
              <path id="Trazado_104106" data-name="Trazado 104106" d="M1248.254,295.712a27.352,27.352,0,0,1-3.25.116c-1.075-.026-2.145-.089-3.207-.219s-2.125-.289-3.176-.517c-1.057-.212-2.1-.475-3.178-.724.475.263.968.5,1.466.731.51.2,1.017.423,1.548.57a17.807,17.807,0,0,0,3.242.7,17.15,17.15,0,0,0,3.327.054A11.156,11.156,0,0,0,1248.254,295.712Z" transform="translate(-1215.791 -247.216)" fill="#614cd4"/>
              <path id="Trazado_104107" data-name="Trazado 104107" d="M1242.551,297.423c-.993-.2-1.964-.426-2.932-.644s-1.92-.474-2.86-.759-1.86-.614-2.772-.973a27.429,27.429,0,0,1-2.662-1.3,9.7,9.7,0,0,0,2.382,1.834,15.216,15.216,0,0,0,2.814,1.172A16.532,16.532,0,0,0,1242.551,297.423Z" transform="translate(-1218.895 -247.685)" fill="#614cd4"/>
              <path id="Trazado_104108" data-name="Trazado 104108" d="M1247.859,287.7c-1.031-.117-1.982-.168-2.946-.249l-1.45-.11c-.491-.032-.98-.079-1.508-.07a5.976,5.976,0,0,0,2.9.942,6.956,6.956,0,0,0,1.538-.054A4.427,4.427,0,0,0,1247.859,287.7Z" transform="translate(-1210.884 -252.569)" fill="#614cd4"/>
            </g>
            <g id="Grupo_57657" data-name="Grupo 57657" transform="translate(24.935 31.52)">
              <path id="Trazado_104109" data-name="Trazado 104109" d="M1243.788,288.492a17.654,17.654,0,0,1-.554-1.854c-.077-.5-.067-1.7-.612-.935s.012,1.561-.71,1.58-2.564-.9-2.767-1.575-1.04.337-.523,1.789,2.136,3.232,4.063,2.741S1243.788,288.492,1243.788,288.492Z" transform="translate(-1238.455 -285.454)" fill="#ff6161"/>
              <path id="Trazado_104110" data-name="Trazado 104110" d="M1274.827,292.064c-6.1-5.855-16.3,12.553-19.569,11.42-1.734-.6-11.4-17.588-14.033-16.469-3.928,1.668,1.793,18.4,10.812,24.176C1260.091,316.348,1279.624,296.664,1274.827,292.064Z" transform="translate(-1237.317 -284.317)" fill="#ff6161"/>
              <path id="Trazado_104111" data-name="Trazado 104111" d="M1274.827,291.278a4.755,4.755,0,0,0-.389-.331,15.874,15.874,0,0,1-1.489,2.818c-1.331,1.522-3.863,2.881-6.238,4.952s-4.881,6.2-6.339,8.388-4.723,1.275-7.341.947-2.962-3.83-4.035-5.6-2.748-.989-3.951-2.8-1.931-8.935-3.476-10.7a2.479,2.479,0,0,0-1.5-.943c-.912,4.835,4.351,17.524,11.967,22.4C1260.091,315.563,1279.623,295.878,1274.827,291.278Z" transform="translate(-1237.316 -283.532)" fill="#ad263d"/>
            </g>
            <g id="Grupo_57658" data-name="Grupo 57658" transform="translate(52.144 32.355)">
              <path id="Trazado_104112" data-name="Trazado 104112" d="M1254.629,287.386l.284-1.075a3.242,3.242,0,0,0,2.571-.381l-.021,1.9c-.01.789-2.089,2.774-3.364,1.747C1253.726,289.273,1254.25,288.2,1254.629,287.386Z" transform="translate(-1253.971 -285.93)" fill="#ffe6e6"/>
            </g>
            <path id="Trazado_104113" data-name="Trazado 104113" d="M1251.249,310.283s4.987,7.017,8.712,9.442S1260.361,314.429,1251.249,310.283Z" transform="translate(-1203.878 -235.221)" fill="#1e1240"/>
          </g>
        </g>
      </g>
      <rect id="Rectángulo_6817" data-name="Rectángulo 6817" width="235" height="235" transform="translate(0.175)" fill="none"/>
    </g>
  </g>
</svg>
