<svg xmlns="http://www.w3.org/2000/svg" width="400" height="262.127" viewBox="0 0 400 262.127">
  <g id="Grupo_62702" data-name="Grupo 62702" transform="translate(-600 -6315.873)">
    <g id="Image_Place_Holder" data-name="Image Place Holder" transform="translate(600 6346.803)" opacity="0.35">
      <rect id="Image_Place_Holder-2" data-name="Image Place Holder" width="400" height="231.197" rx="10" fill="#339ce9"/>
    </g>
    <g id="Grupo_57668" data-name="Grupo 57668" transform="translate(682.966 6315.873)">
      <g id="Grupo_57666" data-name="Grupo 57666" transform="translate(18.656 5.914)">
        <g id="Grupo_57665" data-name="Grupo 57665" transform="translate(0 34.883)">
          <path id="Trazado_100598" data-name="Trazado 100598" d="M117.78,0c30.676.27,100.489,138,74.044,169.093S-7.294,164.221.239,119.8,87.105-.268,117.78,0Z" transform="translate(197.688 180.779) rotate(180)" fill="#bf3976" opacity="0.1" style="isolation: isolate"/>
          <path id="Trazado_100598-2" data-name="Trazado 100598" d="M75,0c19.534.172,63.989,87.873,47.15,107.675s-126.795-3.1-122-31.391S55.467-.171,75,0Z" transform="matrix(-0.259, -0.966, 0.966, -0.259, 69.708, 188.29)" fill="#bf3976" opacity="0.1" style="isolation: isolate"/>
        </g>
        <g id="Grupo_57669" data-name="Grupo 57669" transform="translate(0)">
          <g id="Grupo_57613" data-name="Grupo 57613" transform="translate(0 33.442)">
            <rect id="Rectángulo_6808" data-name="Rectángulo 6808" width="7.95" height="37.943" transform="translate(21.724 86.998)" fill="#fff"/>
            <path id="Rectángulo_6809" data-name="Rectángulo 6809" d="M.7,0H2.013a.7.7,0,0,1,.7.7V21.049a0,0,0,0,1,0,0H0a0,0,0,0,1,0,0V.7A.7.7,0,0,1,.7,0Z" transform="translate(155.745)" fill="#fff2f2"/>
            <rect id="Rectángulo_6810" data-name="Rectángulo 6810" width="3.072" height="37.943" transform="translate(26.603 86.998)" fill="#ffe6e6"/>
            <rect id="Rectángulo_6811" data-name="Rectángulo 6811" width="14.567" height="12.241" rx="3.146" transform="translate(18.416 86.998)" fill="#fff7f7"/>
            <path id="Trazado_103954" data-name="Trazado 103954" d="M924.5,302.437h-9.012a2.777,2.777,0,0,0-2.778,2.777v1.874l14.567,1.219v-3.093A2.777,2.777,0,0,0,924.5,302.437Z" transform="translate(-894.294 -215.438)" fill="#311e69"/>
            <rect id="Rectángulo_6812" data-name="Rectángulo 6812" width="7.098" height="2.329" transform="translate(31.007 95.377)" fill="#fff7f7"/>
            <path id="Trazado_103955" data-name="Trazado 103955" d="M911.366,326.832,909.8,325.3a1.784,1.784,0,0,1-.536-1.274h0a1.78,1.78,0,0,1,1.779-1.78h.406a1.78,1.78,0,0,1,1.219.485l1.242,1.172a4.868,4.868,0,0,0,3.337,1.325h15.188a1.49,1.49,0,0,1,1.491,1.491h0a1.49,1.49,0,0,1-1.491,1.489H914.761A4.865,4.865,0,0,1,911.366,326.832Z" transform="translate(-896.932 -200.29)" fill="#fff"/>
            <path id="Trazado_103956" data-name="Trazado 103956" d="M1064.831,264.962H934.3a26.344,26.344,0,0,0-26.346,26.344v28.56A14.837,14.837,0,0,0,922.795,334.7h19.762a14.836,14.836,0,0,0,14.837-14.837h0a9.238,9.238,0,0,1,9.238-9.238h98.2Z" transform="translate(-897.93 -244.092)" fill="#ffe6e6"/>
            <path id="Trazado_103957" data-name="Trazado 103957" d="M1059.149,264.962H928.618a26.344,26.344,0,0,0-26.344,26.344v28.56A14.836,14.836,0,0,0,917.111,334.7h19.762a14.837,14.837,0,0,0,14.839-14.837h0a9.237,9.237,0,0,1,9.236-9.238h98.2Z" transform="translate(-902.274 -244.092)" fill="#fff"/>
            <g id="Grupo_57601" data-name="Grupo 57601" transform="translate(0 40.229)">
              <path id="Trazado_103958" data-name="Trazado 103958" d="M931.475,283.674c-11.971-.242-22.559-4.77-28.259-7.741a26.349,26.349,0,0,0-.942,6.984v28.56a14.836,14.836,0,0,0,14.837,14.837h19.762a14.837,14.837,0,0,0,14.839-14.837h0a9.237,9.237,0,0,1,9.236-9.238h98.2V283.768C1020.881,283.844,942.746,283.9,931.475,283.674Z" transform="translate(-902.274 -275.933)" fill="#fff7f7"/>
            </g>
            <path id="Trazado_103959" data-name="Trazado 103959" d="M1043.789,367.572H905.728a3.453,3.453,0,0,1-3.453-3.453v-11.2a14.405,14.405,0,0,1,14.4-14.4h87c.339,0,.676-.019,1.013-.019,19.584,0,24.463-25.3,24.463-25.3Z" transform="translate(-902.274 -207.218)" fill="#fff7f7"/>
            <path id="Trazado_103960" data-name="Trazado 103960" d="M1014.545,264.962H986.371a12.632,12.632,0,0,0-12.594,12.594V398.482a5.982,5.982,0,0,0,5.964,5.964h41.435a5.982,5.982,0,0,0,5.964-5.964V277.556A12.632,12.632,0,0,0,1014.545,264.962Z" transform="translate(-847.602 -244.092)" fill="#fff"/>
            <g id="Grupo_57602" data-name="Grupo 57602" transform="translate(126.175 20.87)">
              <path id="Trazado_103961" data-name="Trazado 103961" d="M986.371,264.962a12.632,12.632,0,0,0-12.594,12.594V398.482a5.982,5.982,0,0,0,5.964,5.964H997.61V264.962Z" transform="translate(-973.777 -264.962)" fill="#fff7f7"/>
            </g>
            <path id="Trazado_103962" data-name="Trazado 103962" d="M1012.317,300.651V285.906l-19.153,6.1a16.552,16.552,0,0,0,10.129,7.8A23.586,23.586,0,0,0,1012.317,300.651Z" transform="translate(-832.778 -228.078)" fill="#311e69"/>
            <g id="Grupo_57603" data-name="Grupo 57603" transform="translate(154.483 35.334)">
              <path id="Trazado_103963" data-name="Trazado 103963" d="M1011.123,303.795l.224-30.434-9.248-.2c-6.781,0-12.28,6.9-12.28,15.417s5.5,15.417,12.28,15.417Z" transform="translate(-989.819 -273.159)" fill="#ffe6e6"/>
              <ellipse id="Elipse_4273" data-name="Elipse 4273" cx="12.281" cy="15.217" rx="12.281" ry="15.217" transform="translate(9.135 0.201)" fill="#fff2f2"/>
            </g>
            <g id="Grupo_57604" data-name="Grupo 57604" transform="translate(129.827 108.076)">
              <rect id="Rectángulo_6813" data-name="Rectángulo 6813" width="14.607" height="13.596" transform="translate(0.955)" fill="#ffe6e6"/>
              <rect id="Rectángulo_6814" data-name="Rectángulo 6814" width="9.738" height="8.315" transform="translate(3.39 2.641)" fill="#efbdbd"/>
              <path id="Rectángulo_6815" data-name="Rectángulo 6815" d="M.834,0H13.128a0,0,0,0,1,0,0V3.245a0,0,0,0,1,0,0H.834A.834.834,0,0,1,0,2.411V.834A.834.834,0,0,1,.834,0Z" transform="translate(0 2.641)" fill="#fff"/>
            </g>
            <g id="Grupo_57605" data-name="Grupo 57605" transform="translate(87.306 32.331)">
              <path id="Trazado_103964" data-name="Trazado 103964" d="M954.98,285.232l-.1-13.685,2.693-.09c3.051,0,5.523,3.1,5.523,6.933s-2.472,6.931-5.523,6.931Z" transform="translate(-949.358 -271.457)" fill="#ffe6e6"/>
              <path id="Trazado_103965" data-name="Trazado 103965" d="M957.272,285.193c3.051,0,5.523-3.063,5.523-6.841s-2.472-6.843-5.523-6.843-5.522,3.063-5.522,6.843S954.222,285.193,957.272,285.193Z" transform="translate(-951.75 -271.418)" fill="#fff2f2"/>
            </g>
            <g id="Grupo_57606" data-name="Grupo 57606" transform="translate(61.703 30.395)">
              <path id="Trazado_103966" data-name="Trazado 103966" d="M941.373,287.982l-.129-17.505,3.444-.116c3.9,0,7.066,3.97,7.066,8.869s-3.164,8.867-7.066,8.867Z" transform="translate(-934.18 -270.36)" fill="#ffe6e6"/>
              <path id="Trazado_103967" data-name="Trazado 103967" d="M944.3,287.931c3.9,0,7.064-3.919,7.064-8.753s-3.162-8.753-7.064-8.753-7.064,3.917-7.064,8.753S940.4,287.931,944.3,287.931Z" transform="translate(-937.241 -270.31)" fill="#fff2f2"/>
            </g>
            <g id="Grupo_57607" data-name="Grupo 57607" transform="translate(35.878 93.339)">
              <path id="Trazado_103968" data-name="Trazado 103968" d="M927.032,312.395l.048-6.324-1.922-.041c-1.408,0-2.552,1.433-2.552,3.2s1.143,3.2,2.552,3.2Z" transform="translate(-922.606 -306.03)" fill="#ffe6e6"/>
              <path id="Trazado_103969" data-name="Trazado 103969" d="M926.234,312.377c-1.41,0-2.552-1.417-2.552-3.162s1.142-3.162,2.552-3.162,2.552,1.415,2.552,3.162S927.642,312.377,926.234,312.377Z" transform="translate(-921.783 -306.012)" fill="#fff2f2"/>
            </g>
            <path id="Trazado_103970" data-name="Trazado 103970" d="M975.232,276.737l-3.359,24.889h3.359Z" transform="translate(-849.057 -235.089)" fill="#311e69"/>
            <path id="Trazado_103971" data-name="Trazado 103971" d="M914.585,310.1l7.95.677v-1.4h-7.95Z" transform="translate(-892.861 -210.135)" fill="#311e69"/>
            <g id="Grupo_57608" data-name="Grupo 57608" transform="translate(129.828 63)">
              <path id="Trazado_103972" data-name="Trazado 103972" d="M978.319,291.117c0,1.258-.552,2.278-1.237,2.278s-1.235-1.02-1.235-2.278.552-2.28,1.235-2.28S978.319,289.857,978.319,291.117Z" transform="translate(-975.847 -288.837)" fill="#ffe6e6"/>
              <path id="Trazado_103973" data-name="Trazado 103973" d="M981.136,291.117c0,1.258-.554,2.278-1.237,2.278s-1.237-1.02-1.237-2.278.554-2.28,1.237-2.28S981.136,289.857,981.136,291.117Z" transform="translate(-973.695 -288.837)" fill="#ffe6e6"/>
              <path id="Trazado_103974" data-name="Trazado 103974" d="M983.952,291.117c0,1.258-.554,2.278-1.237,2.278s-1.237-1.02-1.237-2.278.554-2.28,1.237-2.28S983.952,289.857,983.952,291.117Z" transform="translate(-971.541 -288.837)" fill="#ffe6e6"/>
              <path id="Trazado_103975" data-name="Trazado 103975" d="M986.768,291.117c0,1.258-.554,2.278-1.237,2.278s-1.237-1.02-1.237-2.278.554-2.28,1.237-2.28S986.768,289.857,986.768,291.117Z" transform="translate(-969.388 -288.837)" fill="#ffe6e6"/>
            </g>
            <g id="Grupo_57609" data-name="Grupo 57609" transform="translate(129.828 73.745)">
              <path id="Trazado_103976" data-name="Trazado 103976" d="M978.319,297.2c0,1.258-.552,2.278-1.237,2.278s-1.235-1.02-1.235-2.278.552-2.278,1.235-2.278S978.319,295.946,978.319,297.2Z" transform="translate(-975.847 -294.926)" fill="#ffe6e6"/>
              <path id="Trazado_103977" data-name="Trazado 103977" d="M981.136,297.2c0,1.258-.554,2.278-1.237,2.278s-1.237-1.02-1.237-2.278.554-2.278,1.237-2.278S981.136,295.946,981.136,297.2Z" transform="translate(-973.695 -294.926)" fill="#ffe6e6"/>
              <path id="Trazado_103978" data-name="Trazado 103978" d="M983.952,297.2c0,1.258-.554,2.278-1.237,2.278s-1.237-1.02-1.237-2.278.554-2.278,1.237-2.278S983.952,295.946,983.952,297.2Z" transform="translate(-971.541 -294.926)" fill="#ffe6e6"/>
              <path id="Trazado_103979" data-name="Trazado 103979" d="M986.768,297.2c0,1.258-.554,2.278-1.237,2.278s-1.237-1.02-1.237-2.278.554-2.278,1.237-2.278S986.768,295.946,986.768,297.2Z" transform="translate(-969.388 -294.926)" fill="#ffe6e6"/>
            </g>
            <g id="Grupo_57610" data-name="Grupo 57610" transform="translate(129.828 84.489)">
              <path id="Trazado_103980" data-name="Trazado 103980" d="M978.319,303.293c0,1.258-.552,2.278-1.237,2.278s-1.235-1.02-1.235-2.278.552-2.278,1.235-2.278S978.319,302.035,978.319,303.293Z" transform="translate(-975.847 -301.015)" fill="#ffe6e6"/>
              <path id="Trazado_103981" data-name="Trazado 103981" d="M981.136,303.293c0,1.258-.554,2.278-1.237,2.278s-1.237-1.02-1.237-2.278.554-2.278,1.237-2.278S981.136,302.035,981.136,303.293Z" transform="translate(-973.695 -301.015)" fill="#ffe6e6"/>
              <path id="Trazado_103982" data-name="Trazado 103982" d="M983.952,303.293c0,1.258-.554,2.278-1.237,2.278s-1.237-1.02-1.237-2.278.554-2.278,1.237-2.278S983.952,302.035,983.952,303.293Z" transform="translate(-971.541 -301.015)" fill="#ffe6e6"/>
              <path id="Trazado_103983" data-name="Trazado 103983" d="M986.768,303.293c0,1.258-.554,2.278-1.237,2.278s-1.237-1.02-1.237-2.278.554-2.278,1.237-2.278S986.768,302.035,986.768,303.293Z" transform="translate(-969.388 -301.015)" fill="#ffe6e6"/>
            </g>
            <g id="Grupo_57611" data-name="Grupo 57611" transform="translate(129.828 95.234)">
              <path id="Trazado_103984" data-name="Trazado 103984" d="M978.319,309.382c0,1.258-.552,2.278-1.237,2.278s-1.235-1.02-1.235-2.278.552-2.278,1.235-2.278S978.319,308.124,978.319,309.382Z" transform="translate(-975.847 -307.104)" fill="#ffe6e6"/>
              <path id="Trazado_103985" data-name="Trazado 103985" d="M981.136,309.382c0,1.258-.554,2.278-1.237,2.278s-1.237-1.02-1.237-2.278.554-2.278,1.237-2.278S981.136,308.124,981.136,309.382Z" transform="translate(-973.695 -307.104)" fill="#ffe6e6"/>
              <path id="Trazado_103986" data-name="Trazado 103986" d="M983.952,309.382c0,1.258-.554,2.278-1.237,2.278s-1.237-1.02-1.237-2.278.554-2.278,1.237-2.278S983.952,308.124,983.952,309.382Z" transform="translate(-971.541 -307.104)" fill="#ffe6e6"/>
              <path id="Trazado_103987" data-name="Trazado 103987" d="M986.768,309.382c0,1.258-.554,2.278-1.237,2.278s-1.237-1.02-1.237-2.278.554-2.278,1.237-2.278S986.768,308.124,986.768,309.382Z" transform="translate(-969.388 -307.104)" fill="#ffe6e6"/>
            </g>
            <path id="Trazado_103988" data-name="Trazado 103988" d="M904.43,279.911s-2.71,26.921,1.264,31.98,7.59,6.684,12.107,6.866,5.6-3.8.9-5.783-9.215-1.987-10.3-6.143S904.43,279.911,904.43,279.911Z" transform="translate(-901.316 -232.662)" fill="#fff"/>
            <path id="Trazado_103989" data-name="Trazado 103989" d="M903.544,344.029s-.951-10.028,6.773-13.145,87.135-1.219,87.135-1.219Z" transform="translate(-901.331 -195.057)" fill="#fff"/>
            <rect id="Rectángulo_6816" data-name="Rectángulo 6816" width="11.247" height="5.827" transform="translate(151.679 17.255)" fill="#fff"/>
            <g id="Grupo_57612" data-name="Grupo 57612" transform="translate(23.078 20.87)">
              <path id="Trazado_103990" data-name="Trazado 103990" d="M923.389,264.962l-1.369,1.32a12.4,12.4,0,0,0-3.39,8.539v54.643h1.625V274.821a10.761,10.761,0,0,1,2.92-7.4l2.557-2.463Z" transform="translate(-912.846 -264.962)" fill="#ffe6e6"/>
              <path id="Trazado_103991" data-name="Trazado 103991" d="M916.979,274.821a10.761,10.761,0,0,1,2.92-7.4l2.555-2.463h-2.342l-1.371,1.32a12.409,12.409,0,0,0-3.39,8.539v54.643h1.627Z" transform="translate(-915.352 -264.962)" fill="#ffe6e6"/>
            </g>
          </g>
          <g id="Grupo_57614" data-name="Grupo 57614" transform="translate(147.506 11.146)">
            <path id="Trazado_103992" data-name="Trazado 103992" d="M1005.74,264.5l-2.16-5.357c-.014-.81-3.446-1.4-7.665-1.32s-7.625.8-7.609,1.613l-1.952,5.437a.461.461,0,0,0-.1.275c.021,1.039,4.422,1.8,9.832,1.694s9.781-1.031,9.76-2.07A.454.454,0,0,0,1005.74,264.5Z" transform="translate(-985.567 -227.263)" fill="#db9565"/>
            <path id="Trazado_103993" data-name="Trazado 103993" d="M1002.228,244.7l-15,.288.484,24.329c.063.785,3.406,1.355,7.51,1.278s7.424-.778,7.456-1.565Z" transform="translate(-984.822 -237.287)" fill="#ad263d"/>
            <path id="Trazado_103994" data-name="Trazado 103994" d="M985.865,241.842l2.268,5.629c.016.81,3.448,1.4,7.667,1.32s7.625-.8,7.609-1.615l2.049-5.71Z" transform="translate(-985.865 -239.762)" fill="#db9565"/>
            <path id="Trazado_103995" data-name="Trazado 103995" d="M1005.458,242.2c.021,1.039-4.35,1.966-9.76,2.07s-9.811-.655-9.833-1.694,4.35-1.966,9.76-2.07S1005.438,241.165,1005.458,242.2Z" transform="translate(-985.865 -240.501)" fill="#ffb176"/>
            <path id="Trazado_103996" data-name="Trazado 103996" d="M996.787,241.814c.007.4-1.664.752-3.732.791s-3.752-.251-3.76-.648,1.664-.752,3.732-.791S996.778,241.415,996.787,241.814Z" transform="translate(-983.243 -239.994)" fill="#db9565"/>
            <path id="Trazado_103997" data-name="Trazado 103997" d="M987.627,246.007a9.451,9.451,0,0,0,1.916.778,16.662,16.662,0,0,0,2.008.452c.676.127,1.362.187,2.051.259l2.086.154c-.346.064-.7.1-1.045.145-.351.021-.7.046-1.055.048a12.648,12.648,0,0,1-2.11-.168,9.946,9.946,0,0,1-2.047-.565A5.617,5.617,0,0,1,987.627,246.007Z" transform="translate(-984.518 -236.29)" fill="#ff6161"/>
            <path id="Trazado_103998" data-name="Trazado 103998" d="M988.205,248.341c.471.152.941.295,1.422.4.475.124.955.221,1.435.3a18.735,18.735,0,0,0,2.906.266,14.538,14.538,0,0,0,2.9-.229l.718-.136.7-.2c.483-.1.925-.323,1.4-.462a9.983,9.983,0,0,1-2.755,1.129l-.363.1-.369.062c-.249.037-.494.088-.743.115a13.76,13.76,0,0,1-1.5.065,13.23,13.23,0,0,1-2.968-.378A11.7,11.7,0,0,1,988.205,248.341Z" transform="translate(-984.076 -234.548)" fill="#ff6161"/>
            <path id="Trazado_103999" data-name="Trazado 103999" d="M988.218,248.994a9.928,9.928,0,0,0,2.874.946,14.643,14.643,0,0,0,1.5.171c.254.023.508.018.766.034s.514,0,.777.021a6.175,6.175,0,0,1-1.541.289,6.872,6.872,0,0,1-1.579-.079,6.276,6.276,0,0,1-1.512-.475A3.948,3.948,0,0,1,988.218,248.994Z" transform="translate(-984.066 -234.006)" fill="#ff6161"/>
            <path id="Trazado_104000" data-name="Trazado 104000" d="M987.774,253.644a6.254,6.254,0,0,0,1.461.8,8.74,8.74,0,0,0,1.585.485,13.469,13.469,0,0,0,3.295.275,23.766,23.766,0,0,0,3.323-.286,10.874,10.874,0,0,0,1.622-.381,5.009,5.009,0,0,0,1.509-.7,4.516,4.516,0,0,1-1.438.9,10.343,10.343,0,0,1-1.627.508,16.756,16.756,0,0,1-3.376.4,10.971,10.971,0,0,1-3.393-.371A6.537,6.537,0,0,1,987.774,253.644Z" transform="translate(-984.405 -230.451)" fill="#ff6161"/>
            <path id="Trazado_104001" data-name="Trazado 104001" d="M990.223,253.738c.642.034,1.241.055,1.851.064l.918.014c.309.005.619.007.944.044a4.177,4.177,0,0,1-1.87.385,4.461,4.461,0,0,1-.955-.124A2.6,2.6,0,0,1,990.223,253.738Z" transform="translate(-982.533 -230.379)" fill="#ff6161"/>
            <path id="Trazado_104002" data-name="Trazado 104002" d="M988.342,255.437a14.147,14.147,0,0,0,1.742.469c.586.118,1.172.215,1.765.275s1.186.1,1.784.1,1.2-.007,1.812-.014c-.291.09-.589.162-.888.231a8.806,8.806,0,0,1-.912.127,9.333,9.333,0,0,1-1.844-.007,9.012,9.012,0,0,1-1.805-.383A5.907,5.907,0,0,1,988.342,255.437Z" transform="translate(-983.971 -229.08)" fill="#ff6161"/>
            <path id="Trazado_104003" data-name="Trazado 104003" d="M990.95,256.748c.563.011,1.117,0,1.669,0s1.1-.028,1.645-.072,1.085-.115,1.625-.2a15.107,15.107,0,0,0,1.609-.4,5.431,5.431,0,0,1-1.526.738,8.08,8.08,0,0,1-1.673.311A8.793,8.793,0,0,1,990.95,256.748Z" transform="translate(-981.977 -228.597)" fill="#ff6161"/>
            <path id="Trazado_104004" data-name="Trazado 104004" d="M987.94,250.848c.572.062,1.092.152,1.625.226l.8.118c.268.042.54.076.824.148a3.239,3.239,0,0,1-1.687.171,3.711,3.711,0,0,1-.826-.222A2.364,2.364,0,0,1,987.94,250.848Z" transform="translate(-984.278 -232.589)" fill="#ff6161"/>
          </g>
          <g id="Grupo_57617" data-name="Grupo 57617" transform="translate(161.391 72.705)">
            <path id="Trazado_104005" data-name="Trazado 104005" d="M1005.106,390.315a.873.873,0,0,0,.086.725l1.062,8.991a.907.907,0,0,0,.9.8h.028a.91.91,0,0,0,.9-1.016l-.986-8.32h20.108l1.011,8.535a.91.91,0,0,0,.9.8h0a.908.908,0,0,0,.9-1.016l-12.5-105.577a.919.919,0,0,0-1.175-.773.956.956,0,0,0-.646,1.039l.432,3.646H996.03l-.457-3.859a.956.956,0,0,0-.877-.863.92.92,0,0,0-.956,1.027Zm21.883-.656h-20.108l-1.59-13.411H1025.4Zm-1.809-15.252h-20.108L1003.482,361h20.108Zm-1.807-15.252h-20.108l-1.592-13.411h20.108Zm-1.809-15.25h-20.108l-1.59-13.411h20.108Zm-1.809-15.252H999.648l-1.59-13.411h20.108Zm-3.4-28.661,1.59,13.411H997.839l-1.59-13.411Z" transform="translate(-993.733 -261.589)" fill="#311e69"/>
            <path id="Trazado_104006" data-name="Trazado 104006" d="M1011.537,322.152a4.646,4.646,0,0,1-.63-2.262,18.084,18.084,0,0,0-2.795,1.431,6.313,6.313,0,0,1-1.482.769c-1.187.561-2.656,1.285-2.719,1.682-.106.664,6.773.873,7.937.268C1012.457,323.724,1012.063,322.987,1011.537,322.152Z" transform="translate(-985.953 -241.357)" fill="#1e1240"/>
            <path id="Trazado_104007" data-name="Trazado 104007" d="M999.458,291.4s-.76-4.736-3.312-4.41-1.426,6.783,1.032,8.357a5.7,5.7,0,0,0,2.1.718,1.176,1.176,0,0,0,1.3-1.56Z" transform="translate(-992.995 -266.525)" fill="#ff6161"/>
            <path id="Trazado_104008" data-name="Trazado 104008" d="M997.177,303.75c.813-8.008,7.865-5.679,8.474-7.156a37.137,37.137,0,0,0,6.612.524c2.829,0,5.289-.221,6.407-.325.124.468.852,4.083,1.013,4.6,1.209,3.916-1.431,14.5-1.632,19.4-.065,1.6-1.325,18.35-1.325,18.35a1.161,1.161,0,0,1-1.251.7c-.771-.106-1.969-.332-2.121-1.1-.937-4.745-5.971-20.754-3.536-29.243-3.423-1.177-6.125-3.835-5.77-1.69,1.159,7.013-.9,16.861-2.25,17.42C999.862,326.042,995.629,319,997.177,303.75Z" transform="translate(-991.356 -259.17)" fill="#614cd4"/>
            <path id="Trazado_104009" data-name="Trazado 104009" d="M1006.451,287.621s-.586-1.743-.9-2.44c-.274-.611-.549-.895-.891-.992-.734-.208-.461,4.1-.118,4.224S1006.451,287.621,1006.451,287.621Z" transform="translate(-985.735 -268.66)" fill="#ff6161"/>
            <path id="Trazado_104010" data-name="Trazado 104010" d="M1005.851,301.214c-1.031-.755,1.408-2.707,3.834-4.325.978-.064,1.77-.134,2.282-.182.074.282.367,1.7.625,2.9C1011.51,300.852,1007.42,302.363,1005.851,301.214Z" transform="translate(-984.653 -259.083)" fill="#311e69"/>
            <path id="Trazado_104011" data-name="Trazado 104011" d="M1005.624,292.733s3.743-2.649,4.17-4.036c.872-2.836-2.412-11.586-.515-11.855s5.1,8.25,4.884,12.149c-.245,4.54-4.884,9.755-6.677,9.439S1005.624,292.733,1005.624,292.733Z" transform="translate(-984.642 -274.277)" fill="#ad263d"/>
            <path id="Trazado_104012" data-name="Trazado 104012" d="M1003.663,283.725a3.909,3.909,0,0,0-.409,1.445,1.643,1.643,0,0,0,1.221,1.745,1.621,1.621,0,0,0,1.489-1.8C1005.7,284.113,1003.663,283.725,1003.663,283.725Z" transform="translate(-986.457 -269.009)" fill="#ff6161"/>
            <path id="Trazado_104013" data-name="Trazado 104013" d="M1002.529,304.813l.519-4.08a8.159,8.159,0,0,0-.75-4.629c-1.089-2.222-2.345-6.286-.214-8.207,2.834-2.555,9.291-3.407,10.574,1.516.713,2.737.711,9.044,2.89,15.6.487,1.466-.972,3.582-3.725,4.233A7.848,7.848,0,0,1,1002.529,304.813Z" transform="translate(-988.235 -267.388)" fill="#ff8f8f"/>
            <path id="Trazado_104014" data-name="Trazado 104014" d="M1008.978,287.43c-1.571-1.56-3.866-.51-9.39,2.855-4.964,1.653-4.75,4.217-2.329,5.629,3.339,1.95,9.322-2.264,10.8-3.946C1009.07,290.829,1010.459,288.9,1008.978,287.43Z" transform="translate(-992.309 -266.717)" fill="#ff6161"/>
            <path id="Trazado_104015" data-name="Trazado 104015" d="M996.832,288.593a1.876,1.876,0,0,0,.429-1.387c-.175-.649-.258-.731-.192-.978s-.31-.289-.422-.025.034.646-.187.616a9.482,9.482,0,0,1-1.447-1.459.113.113,0,0,0-.2.072,2.468,2.468,0,0,0,.132.782,16.5,16.5,0,0,0,.891,2.375C996.472,289.34,996.832,288.593,996.832,288.593Z" transform="translate(-992.907 -267.788)" fill="#ff6161"/>
            <path id="Trazado_104016" data-name="Trazado 104016" d="M1008.689,278.785a1.871,1.871,0,0,1-1.4-.371c-.459-.491-.483-.6-.729-.679s-.079-.417.2-.371.531.369.623.166a9.627,9.627,0,0,0-.475-2,.113.113,0,0,1,.166-.129,2.427,2.427,0,0,1,.593.524,16.63,16.63,0,0,1,1.546,2.013C1009.512,278.875,1008.689,278.785,1008.689,278.785Z" transform="translate(-984.02 -275.386)" fill="#ad263d"/>
            <path id="Trazado_104017" data-name="Trazado 104017" d="M1002.455,304.2c-1.95-.891-3.519-1.888-3.543-2.395-.044-.937,4.23-.679,7.489.233s8.059.688,9.578,1.145-1.348,3.086-1.348,3.086c-2.684,2.421-1.491,25.239-1.24,29.96-.078-.016-.157-.034-.235-.051l-.083-.021c-.067-.016-.132-.034-.2-.053s-.1-.035-.153-.053-.118-.042-.175-.067a1.885,1.885,0,0,1-.208-.1c-.03-.016-.057-.035-.085-.051-.053-.035-.1-.071-.152-.109a.781.781,0,0,1-.07-.064.859.859,0,0,1-.116-.138c-.016-.023-.034-.042-.048-.067a.814.814,0,0,1-.1-.24c-.937-4.745-5.971-20.754-3.536-29.245C1004.86,304.816,1002.186,302.217,1002.455,304.2Z" transform="translate(-989.775 -255.634)" fill="#311e69"/>
            <path id="Trazado_104018" data-name="Trazado 104018" d="M995.162,287.343a8.1,8.1,0,0,0,.5,1.816c.558,1.371.243,3.5.644,4.249.27.5,2.668,1.3,4.2,1.766a1.165,1.165,0,0,1-1.226.611,5.7,5.7,0,0,1-2.1-.718C995.132,293.757,994.012,289.071,995.162,287.343Z" transform="translate(-992.994 -266.243)" fill="#ad263d"/>
            <path id="Trazado_104019" data-name="Trazado 104019" d="M1002.977,313.184s-.154-1.278-1.029-1.627c-1.341-.536-2.045.965-2.045.965s-2.894,1.392-2.894,2.968c-.062.335,5.8.731,6.506-.219C1004.017,314.6,1002.977,313.184,1002.977,313.184Z" transform="translate(-991.229 -247.817)" fill="#1e1240"/>
            <g id="Grupo_57615" data-name="Grupo 57615" transform="translate(5.487 42.581)">
              <path id="Trazado_104020" data-name="Trazado 104020" d="M997.177,301.515a10.623,10.623,0,0,1,.386-2,6.3,6.3,0,0,0,.5,2.3c.658,1.129,1.354,5.956,1.491,8.373.13,2.262.757,7.073,3.836,8.985-.494,2.142-1.092,3.626-1.593,3.833C999.862,323.808,995.629,316.767,997.177,301.515Z" transform="translate(-996.843 -299.516)" fill="#311e69"/>
            </g>
            <path id="Trazado_104021" data-name="Trazado 104021" d="M995.608,293.383c.145.076.3.154.455.238a4.194,4.194,0,0,0,3.773-.258c1.172-.572,3.944-.972,5.488-2.744s1.457-.914,2.825-2.172c.487-.448.872-.8,1.168-1.071.858,1.4-.355,3.065-1.262,4.094-1.482,1.682-7.466,5.9-10.8,3.946A3.011,3.011,0,0,1,995.608,293.383Z" transform="translate(-992.3 -266.218)" fill="#ad263d"/>
            <g id="Grupo_57616" data-name="Grupo 57616" transform="translate(19.968 18.48)">
              <path id="Trazado_104022" data-name="Trazado 104022" d="M1012.4,305c-2.179-6.556-2.177-12.862-2.891-15.6a4.623,4.623,0,0,0-4.455-3.545,59.9,59.9,0,0,1,3.143,10.372c.731,4.341-1.765,8.608-1.662,13.275a9.729,9.729,0,0,0,2.141-.27C1011.423,308.585,1012.882,306.469,1012.4,305Z" transform="translate(-1005.049 -285.858)" fill="#d95f76"/>
            </g>
            <path id="Trazado_104023" data-name="Trazado 104023" d="M1003.973,287.377a8.039,8.039,0,0,0-.441-2.875c-.026-.1-.049-.194-.071-.289v0h0c-.27-1.33.411-3.044,3.386-1.389a2.767,2.767,0,0,1,1.445,3.019s3.314,4.389,1.6,7.341a4.048,4.048,0,0,1-4.224,1.671C1004.26,294.47,1002.145,293.745,1003.973,287.377Z" transform="translate(-986.447 -270.222)" fill="#1e1240"/>
          </g>
          <g id="Grupo_57642" data-name="Grupo 57642" transform="translate(26.196)">
            <g id="Grupo_57618" data-name="Grupo 57618" transform="translate(6.216 11.923)">
              <path id="Trazado_104024" data-name="Trazado 104024" d="M933.227,240.941l-2.41,11.468s-11.11,6.891-10.111,10.7,13.949-4.443,16.654-7.706,3.072-11.786,3.072-11.786Z" transform="translate(-920.642 -240.941)" fill="#baced3"/>
            </g>
            <g id="Grupo_57619" data-name="Grupo 57619" transform="translate(45.756 45.366)">
              <path id="Trazado_104025" data-name="Trazado 104025" d="M945.747,260.423a3.831,3.831,0,0,1,2.34-.471c1.02.27.872,3.741.454,5.012a7.492,7.492,0,0,1-2.32,3.649c-.5.321-2.649.448-3.067-.141-.328-.464.18-1.544.683-2.373A11.586,11.586,0,0,0,945.747,260.423Z" transform="translate(-943.049 -259.893)" fill="#311e69"/>
            </g>
            <g id="Grupo_57620" data-name="Grupo 57620" transform="translate(13.25 48.991)">
              <path id="Trazado_104026" data-name="Trazado 104026" d="M933.748,264.636a5.63,5.63,0,0,1-.986-2.689l-3.042.141a2.86,2.86,0,0,1-.219,1.872c-.206.365-.847.66-1.729,1.08-1.391.8-3.1,1.821-3.143,2.31-.063.815,8.322.4,9.681-.447C935.018,266.459,934.468,265.6,933.748,264.636Z" transform="translate(-924.628 -261.947)" fill="#311e69"/>
            </g>
            <g id="Grupo_57621" data-name="Grupo 57621" transform="translate(17.736)">
              <path id="Trazado_104027" data-name="Trazado 104027" d="M929.21,238.341s-2.218-.094-2.027-2.1c.277-2.9,2.49-1.862,2.49-1.862a1.4,1.4,0,0,1,1.74.266c1.516,1.809,1.562,2.751.316,3.616A2.4,2.4,0,0,1,929.21,238.341Z" transform="translate(-927.171 -234.184)" fill="#311e69"/>
            </g>
            <g id="Grupo_57622" data-name="Grupo 57622" transform="translate(9.269 21.564)">
              <path id="Trazado_104028" data-name="Trazado 104028" d="M940.069,247.108s12.148,1.989,11.26,6.07c-1.661,7.616-21.038,1.29-21.285,2.319-.328,1.375,2.523,1.269,3.48,6.968.18,1.078,2.839,12.806,2.839,12.806a5.487,5.487,0,0,1-3.016,1.156,4.118,4.118,0,0,1-2.675-.339s-8.108-12.746-8.3-21.318C922.252,249.224,929.612,244.59,940.069,247.108Z" transform="translate(-922.372 -246.404)" fill="#311e69"/>
            </g>
            <g id="Grupo_57623" data-name="Grupo 57623" transform="translate(27.753 19.342)">
              <path id="Trazado_104029" data-name="Trazado 104029" d="M935.912,248.942s-3.875,10.7-2.912,18.627c1.115,9.194,3.806,11.814,6.623,11.615,4.164-.293,12.453-.8,14.542-4.221s.738-4.406-.692-4.9c-1.722-.589-9.478-.979-12.058.861,0,0,6.522-15.038,6.039-19.79C946.228,239.083,935.912,248.942,935.912,248.942Z" transform="translate(-932.847 -245.145)" fill="#614cd4"/>
            </g>
            <g id="Grupo_57624" data-name="Grupo 57624" transform="translate(18.799 3.414)">
              <path id="Trazado_104030" data-name="Trazado 104030" d="M951.813,258.009c1.768-3.741-1.812-20.267-10.879-21.814-4.463-.762-15.608,4.293-12.677,10.623,1.945,4.2,5,2.873,6.264,4.583.769,1.045-.113,3.212.214,4.611.605,2.59,3.916,3.522,6.511,4.1C945.695,261.111,950.662,260.444,951.813,258.009Z" transform="translate(-927.773 -236.119)" fill="#ddecf0"/>
            </g>
            <g id="Grupo_57625" data-name="Grupo 57625" transform="translate(22.348 2.382)">
              <path id="Trazado_104031" data-name="Trazado 104031" d="M930.234,235.534l3.167,2.377c.314.446-1.242,3.355-2.342,3.277-.323-.025-.561-.494-.687-1.094l-.589-3.339Z" transform="translate(-929.784 -235.534)" fill="#ff6161"/>
            </g>
            <g id="Grupo_57626" data-name="Grupo 57626" transform="translate(22.467 3.252)">
              <path id="Trazado_104032" data-name="Trazado 104032" d="M929.851,237.049c.434-.427,1.02-1.022,1.02-1.022a2.593,2.593,0,0,1,.221,1.885,2.5,2.5,0,0,1-.856,1.318Z" transform="translate(-929.851 -236.027)" fill="#311e69"/>
            </g>
            <g id="Grupo_57627" data-name="Grupo 57627" transform="translate(19.281 1.455)">
              <path id="Trazado_104033" data-name="Trazado 104033" d="M930.086,235.262l1.892,1.256a1.382,1.382,0,0,1,.257,1.913,3.815,3.815,0,0,1-1.286,1.1c-.531.325-1.145.055-1.646-.579a7.531,7.531,0,0,1-1.179-2.282C927.745,235.5,928.795,234.533,930.086,235.262Z" transform="translate(-928.046 -235.009)" fill="#ff6161"/>
            </g>
            <g id="Grupo_57628" data-name="Grupo 57628" transform="translate(34.74 19.343)">
              <path id="Trazado_104034" data-name="Trazado 104034" d="M938.389,270.929s6.522-15.038,6.038-19.79c-.671-6.594-4.062-6.631-7-5.311.551,3.448,1.114,7.727.863,9.487C937.842,258.476,935.13,272.014,938.389,270.929Z" transform="translate(-936.806 -245.146)" fill="#311e69"/>
            </g>
            <g id="Grupo_57629" data-name="Grupo 57629" transform="translate(20.005 1.054)">
              <path id="Trazado_104035" data-name="Trazado 104035" d="M928.456,235.262a1.279,1.279,0,0,1,1.4,1.129c.079.616.711.5.565-.1s-.369-1.488-.732-1.511A3.649,3.649,0,0,0,928.456,235.262Z" transform="translate(-928.456 -234.782)" fill="#311e69"/>
            </g>
            <g id="Grupo_57630" data-name="Grupo 57630" transform="translate(21.545 1.549)">
              <path id="Trazado_104036" data-name="Trazado 104036" d="M929.749,236.078a1.922,1.922,0,0,0-.229-.353c-.164-.21-.362-.561.071-.653.628-.134,1.449,1.034,1,1.528C930.252,236.968,929.9,236.4,929.749,236.078Z" transform="translate(-929.329 -235.062)" fill="#ff6161"/>
            </g>
            <g id="Grupo_57631" data-name="Grupo 57631" transform="translate(26.739 3.414)">
              <path id="Trazado_104037" data-name="Trazado 104037" d="M937.494,236.195a11.42,11.42,0,0,0-5.222.752,49.33,49.33,0,0,1,6.462,5.079c1.851,2.033,4.923,10.434,4.833,13.732a42.606,42.606,0,0,1-.512,4.749c2.527-.2,4.622-1.025,5.317-2.5C950.141,254.268,946.56,237.743,937.494,236.195Z" transform="translate(-932.272 -236.119)" fill="#baced3"/>
            </g>
            <g id="Grupo_57632" data-name="Grupo 57632" transform="translate(20.247 3.81)">
              <path id="Trazado_104038" data-name="Trazado 104038" d="M929.537,236.343a3.726,3.726,0,0,1-.944.791s.277.381.6.333S929.751,236.888,929.537,236.343Z" transform="translate(-928.593 -236.343)" fill="#fff"/>
            </g>
            <g id="Grupo_57633" data-name="Grupo 57633" transform="translate(21.164 2.936)">
              <path id="Trazado_104039" data-name="Trazado 104039" d="M929.485,238.38c.457-.536,1.514-.041,1.865-1.578a1.779,1.779,0,0,0-.231-.955l.042.028a1.382,1.382,0,0,1,.258,1.913,3.816,3.816,0,0,1-1.286,1.1.967.967,0,0,1-1.02-.018C929.222,238.811,929.346,238.543,929.485,238.38Z" transform="translate(-929.113 -235.848)" fill="#ad263d"/>
            </g>
            <g id="Grupo_57634" data-name="Grupo 57634" transform="translate(21.164 13.885)">
              <path id="Trazado_104040" data-name="Trazado 104040" d="M942.448,242.053s-.228,8.1-4.08,12.269a14.828,14.828,0,0,1-9.255,4.443Z" transform="translate(-929.113 -242.053)" fill="#311e69"/>
            </g>
            <g id="Grupo_57635" data-name="Grupo 57635" transform="translate(10.047 4.324)">
              <path id="Trazado_104041" data-name="Trazado 104041" d="M946.664,236.891c2.844.845,2.449,8.872-2.006,17-3.775,6.885-19.344,15.666-21.631,12.322s14.5-13.977,15.894-15.919C942.5,245.316,939.858,234.867,946.664,236.891Z" transform="translate(-922.813 -236.634)" fill="#ddecf0"/>
            </g>
            <g id="Grupo_57636" data-name="Grupo 57636" transform="translate(5.708 32.884)">
              <path id="Trazado_104042" data-name="Trazado 104042" d="M921.27,253.4s-1.068,4.15-.9,5.031,2.086-.441,2.693-1.151,1.068-3.473.575-3.88S922.015,252.321,921.27,253.4Z" transform="translate(-920.354 -252.82)" fill="#ff6161"/>
            </g>
            <g id="Grupo_57637" data-name="Grupo 57637" transform="translate(12.539 4.919)">
              <path id="Trazado_104043" data-name="Trazado 104043" d="M925.787,264.1c1.087-1,3.808-1.361,7.445-3.265s8.1-7.434,8.828-10.789,1.269-3.626,3.083-7.253a10.65,10.65,0,0,0,1.055-5.823c2.139,1.788,1.482,9.178-2.62,16.658-3.116,5.684-14.269,12.659-19.353,13.039A7.619,7.619,0,0,1,925.787,264.1Z" transform="translate(-924.225 -236.972)" fill="#baced3"/>
            </g>
            <g id="Grupo_57638" data-name="Grupo 57638" transform="translate(0 34.27)">
              <path id="Trazado_104044" data-name="Trazado 104044" d="M917.527,276.807h-.032a.406.406,0,0,1-.374-.436c.062-.813,1.6-19.951,9.144-22.349,3.842-1.221,14.412.441,26.651,2.366,11.313,1.78,24.131,3.8,32.5,3.508,16.9-.584,60.825.715,61.267.727a.407.407,0,0,1-.012.814h-.012c-.441-.014-44.341-1.311-61.215-.727-8.447.293-21.3-1.733-32.651-3.517-11.634-1.83-22.622-3.559-26.279-2.4-7.027,2.232-8.565,21.442-8.581,21.634A.406.406,0,0,1,917.527,276.807Z" transform="translate(-917.119 -253.605)" fill="#ad263d"/>
            </g>
            <g id="Grupo_57639" data-name="Grupo 57639" transform="translate(7.683 32.219)">
              <path id="Trazado_104045" data-name="Trazado 104045" d="M924.039,252.726s-2.269,1.355-2.463,2.135a6.066,6.066,0,0,0,.011,2.238.209.209,0,0,0,.337.134s.408.439.508.141a1.838,1.838,0,0,1,.517-.626s.021.528.182.457a7.729,7.729,0,0,0,.7-1.472s2.989-1.124,2.252-2.513A1.359,1.359,0,0,0,924.039,252.726Z" transform="translate(-921.474 -252.442)" fill="#ff6161"/>
            </g>
            <g id="Grupo_57640" data-name="Grupo 57640" transform="translate(5.147 33.069)">
              <path id="Trazado_104046" data-name="Trazado 104046" d="M921.681,253s-1.71,1.338-1.643,2.169.337,2.421.821,2.185.162-1.676.332-1.9,1.41-.288,1.382-1.322S922.249,252.749,921.681,253Z" transform="translate(-920.036 -252.924)" fill="#ff6161"/>
            </g>
            <g id="Grupo_57641" data-name="Grupo 57641" transform="translate(31 46.116)">
              <path id="Trazado_104047" data-name="Trazado 104047" d="M941.959,261.737c-2.29.722-1.459,4.2-4.214,4.787a3.961,3.961,0,0,1-3.058-.648,4.007,4.007,0,0,0,3.529,1.706c4.164-.293,12.453-.8,14.542-4.221a5.5,5.5,0,0,0,1.066-3.044C950.288,261.02,943.745,261.172,941.959,261.737Z" transform="translate(-934.687 -260.318)" fill="#311e69"/>
            </g>
          </g>
        </g>
      </g>
      <rect id="Rectángulo_6817" data-name="Rectángulo 6817" width="235" height="235" transform="translate(0.034)" fill="none"/>
    </g>
  </g>
</svg>
