<svg xmlns="http://www.w3.org/2000/svg" xmlns:xlink="http://www.w3.org/1999/xlink" width="608" height="615.528" viewBox="0 0 608 615.528">
  <defs>
    <linearGradient id="linear-gradient" x1="-10.849" y1="-10.849" x2="28.461" y2="28.461" gradientUnits="objectBoundingBox">
      <stop offset="0" stop-color="#00eded"/>
      <stop offset="1" stop-color="#0068ff"/>
    </linearGradient>
    <linearGradient id="linear-gradient-2" x1="-19.303" y1="-19.312" x2="20.006" y2="20.014" xlink:href="#linear-gradient"/>
    <linearGradient id="linear-gradient-3" x1="-27.764" y1="-27.764" x2="11.553" y2="11.553" xlink:href="#linear-gradient"/>
    <linearGradient id="linear-gradient-4" x1="-31.26" y1="-31.26" x2="8.049" y2="8.049" xlink:href="#linear-gradient"/>
    <linearGradient id="linear-gradient-5" x1="-27.759" y1="-27.759" x2="11.551" y2="11.551" xlink:href="#linear-gradient"/>
    <linearGradient id="linear-gradient-6" x1="-19.312" y1="-19.303" x2="20.014" y2="20.006" xlink:href="#linear-gradient"/>
    <linearGradient id="linear-gradient-7" x1="-10.851" y1="-10.851" x2="28.466" y2="28.466" xlink:href="#linear-gradient"/>
    <linearGradient id="linear-gradient-8" x1="-7.35" y1="-7.35" x2="31.976" y2="31.976" xlink:href="#linear-gradient"/>
  </defs>
  <g id="Grupo_62708" data-name="Grupo 62708" transform="translate(-498 -798.236)">
    <g id="Grupo_58001" data-name="Grupo 58001">
      <g id="Grupo_57997" data-name="Grupo 57997" transform="translate(-27.669)">
        <g id="Grupo_57996" data-name="Grupo 57996" transform="translate(657.405 928.663)">
          <g id="Grupo_57995" data-name="Grupo 57995" transform="translate(0 0)">
            <g id="Grupo_57990" data-name="Grupo 57990" transform="translate(4.228 4.232)">
              <path id="Trazado_112166" data-name="Trazado 112166" d="M192.713,362.16a169.494,169.494,0,0,1-65.96-325.584,169.492,169.492,0,0,1,131.91,312.266A168.259,168.259,0,0,1,192.713,362.16Zm0-337.143a167.736,167.736,0,0,0-65.273,322.206A167.736,167.736,0,0,0,257.986,38.194,166.656,166.656,0,0,0,192.713,25.016Z" transform="translate(-23.257 -23.257)" fill="#afafaf"/>
            </g>
            <g id="Grupo_57991" data-name="Grupo 57991" transform="translate(25.771 25.775)">
              <path id="Trazado_112167" data-name="Trazado 112167" d="M201.856,88.921h0l9.949-9.949,9.949-9.949A146.966,146.966,0,0,0,117.168,25.706V39.772A97.118,97.118,0,0,0,32.946,88.455h0A120.828,120.828,0,0,1,53.17,72.33l.774-.493c3.158-1.971,6.4-3.783,9.712-5.445l.053-.026a120.314,120.314,0,0,1,106.909,0l.079.044q2.428,1.214,4.8,2.542l.633.361c1.363.765,2.709,1.575,4.038,2.4l1.267.792q1.649,1.056,3.272,2.173c.493.334.976.677,1.469,1.02a121.138,121.138,0,0,1,15.2,12.756l.343.607Z" transform="translate(30.744 -25.706)" fill="#0ac4bf"/>
              <path id="Trazado_112168" data-name="Trazado 112168" d="M88.455,219.439A120.469,120.469,0,0,1,72.33,199.215l-.493-.774q-2.956-4.737-5.445-9.712l-.026-.053a120.315,120.315,0,0,1,0-106.909l.044-.079q1.214-2.428,2.542-4.8l.361-.625c.765-1.364,1.575-2.709,2.4-4.047l.792-1.267c.7-1.1,1.425-2.182,2.173-3.264.334-.493.677-.985,1.02-1.478A121.134,121.134,0,0,1,88.455,51l.607-.334-.141-.141h0l-9.949-9.949L69.022,30.63a146.986,146.986,0,0,0-43.316,104.6H39.772a97.1,97.1,0,0,0,48.682,84.213Z" transform="translate(-25.706 12.686)" fill="#00fcf5"/>
              <path id="Trazado_112169" data-name="Trazado 112169" d="M198.441,69.348q-4.737,2.956-9.712,5.445l-.053.026a119.143,119.143,0,0,1-53.45,12.527A119.18,119.18,0,0,1,81.767,74.819l-.079-.035q-2.428-1.214-4.8-2.551l-.625-.352q-2.045-1.161-4.047-2.4c-.422-.264-.844-.537-1.267-.8-1.1-.7-2.182-1.425-3.264-2.164q-.739-.5-1.478-1.029A120.391,120.391,0,0,1,51,52.73l-.334-.6-.141.132h0l-9.949,9.949L30.63,72.163a146.958,146.958,0,0,0,104.6,43.325V101.421a97.132,97.132,0,0,0,84.213-48.682V52.73a120.029,120.029,0,0,1-20.224,16.125Z" transform="translate(12.686 180.336)" fill="#68befe"/>
              <path id="Trazado_112170" data-name="Trazado 112170" d="M101.421,117.168A97.125,97.125,0,0,0,52.73,32.946h0A120.385,120.385,0,0,1,68.855,53.17l.493.774c1.971,3.158,3.791,6.4,5.445,9.712l.026.053a119.18,119.18,0,0,1,12.527,53.459,119.143,119.143,0,0,1-12.527,53.45l-.035.079q-1.214,2.428-2.551,4.8l-.352.633q-1.161,2.045-2.4,4.038c-.264.422-.537.845-.8,1.267q-1.056,1.649-2.164,3.272c-.343.493-.677.976-1.029,1.469a121.143,121.143,0,0,1-12.756,15.2l-.6.343.132.132h0l9.949,9.949,9.949,9.949a146.938,146.938,0,0,0,43.325-104.587Z" transform="translate(180.336 30.744)" fill="#339ce9"/>
            </g>
            <circle id="Elipse_6296" data-name="Elipse 6296" cx="106.344" cy="106.344" r="106.344" transform="translate(67.337 67.341)" fill="#f6f6f6"/>
            <g id="Grupo_57993" data-name="Grupo 57993" transform="translate(39.838 39.841)" opacity="0.05" style="mix-blend-mode: multiply;isolation: isolate">
              <path id="Trazado_112171" data-name="Trazado 112171" d="M32.946,75.987h0A120.829,120.829,0,0,1,53.17,59.863l.774-.493c3.158-1.971,6.4-3.783,9.712-5.445l.053-.026a120.314,120.314,0,0,1,106.909,0l.079.044q2.428,1.214,4.8,2.542l.633.361c1.363.765,2.709,1.575,4.038,2.4l1.267.792q1.649,1.056,3.272,2.173c.493.334.976.677,1.469,1.02a121.14,121.14,0,0,1,15.2,12.756l.343.607.132-.141h0l9.949-9.949h0a133.426,133.426,0,0,0-94.638-39.2c-.748,0-1.487.018-2.234.026A97.143,97.143,0,0,0,32.946,75.987Z" transform="translate(16.678 -27.305)"/>
              <path id="Trazado_112172" data-name="Trazado 112172" d="M75.987,210.621h0A120.471,120.471,0,0,1,59.863,190.4l-.493-.774q-2.956-4.737-5.445-9.712l-.026-.053a120.315,120.315,0,0,1,0-106.909l.044-.079q1.214-2.428,2.542-4.8l.361-.625c.765-1.364,1.575-2.709,2.4-4.047l.792-1.267c.7-1.1,1.425-2.182,2.173-3.264.334-.493.677-.985,1.02-1.469a120.592,120.592,0,0,1,12.756-15.21l.607-.334-.141-.141h0L66.5,31.761a133.447,133.447,0,0,0-39.2,94.646h0c0,.739.018,1.487.026,2.226A97.12,97.12,0,0,0,75.987,210.621Z" transform="translate(-27.305 7.438)"/>
              <path id="Trazado_112173" data-name="Trazado 112173" d="M210.621,52.739h0A120.418,120.418,0,0,1,190.4,68.855l-.774.493q-4.737,2.956-9.712,5.445l-.053.026a119.143,119.143,0,0,1-53.45,12.527A119.18,119.18,0,0,1,72.948,74.819l-.079-.035q-2.428-1.214-4.8-2.551l-.625-.352q-2.045-1.161-4.047-2.4c-.422-.264-.844-.537-1.267-.8-1.1-.7-2.182-1.425-3.264-2.164-.493-.334-.985-.677-1.469-1.029a120.519,120.519,0,0,1-15.21-12.747l-.334-.607-.141.141-9.949,9.941a133.418,133.418,0,0,0,94.646,39.208h0c.739,0,1.487-.018,2.226-.035A97.093,97.093,0,0,0,210.621,52.739Z" transform="translate(7.438 166.27)"/>
              <path id="Trazado_112174" data-name="Trazado 112174" d="M101.421,117.168h0v-.009c0-.739-.018-1.478-.035-2.217a97.108,97.108,0,0,0-48.656-82h0A120.385,120.385,0,0,1,68.855,53.17l.493.774c1.971,3.158,3.791,6.4,5.445,9.712l.026.053a119.18,119.18,0,0,1,12.527,53.459,119.143,119.143,0,0,1-12.527,53.45l-.035.079q-1.214,2.428-2.551,4.8l-.352.633q-1.161,2.045-2.4,4.038c-.264.422-.537.845-.8,1.267q-1.056,1.649-2.164,3.272c-.343.493-.677.976-1.029,1.469a121.143,121.143,0,0,1-12.756,15.2l-.6.343.132.141,9.949,9.941A133.4,133.4,0,0,0,101.421,117.168Z" transform="translate(166.27 16.678)"/>
            </g>
            <path id="Trazado_112176" data-name="Trazado 112176" d="M46.941,32.752a4.988,4.988,0,1,1,4.988-4.988A4.99,4.99,0,0,1,46.941,32.752Z" transform="translate(126.743 -22.776)" fill="url(#linear-gradient)"/>
            <path id="Trazado_112178" data-name="Trazado 112178" d="M56.977,36.906a4.986,4.986,0,1,1,7.046,0A4.98,4.98,0,0,1,56.977,36.906Z" transform="translate(232.466 21.021)" fill="url(#linear-gradient-2)"/>
            <circle id="Elipse_6297" data-name="Elipse 6297" cx="4.987" cy="4.987" r="4.987" transform="translate(337.388 168.697)" fill="url(#linear-gradient-3)"/>
            <path id="Trazado_112181" data-name="Trazado 112181" d="M56.977,56.977a4.983,4.983,0,1,1,0,7.046A4.97,4.97,0,0,1,56.977,56.977Z" transform="translate(232.466 232.469)" fill="url(#linear-gradient-4)"/>
            <path id="Trazado_112183" data-name="Trazado 112183" d="M46.941,61.129a4.988,4.988,0,1,1-4.988,4.988A4.99,4.99,0,0,1,46.941,61.129Z" transform="translate(126.743 276.261)" fill="url(#linear-gradient-5)"/>
            <path id="Trazado_112185" data-name="Trazado 112185" d="M36.906,56.977a4.986,4.986,0,1,1-7.055,0A4.986,4.986,0,0,1,36.906,56.977Z" transform="translate(21.018 232.469)" fill="url(#linear-gradient-6)"/>
            <circle id="Elipse_6298" data-name="Elipse 6298" cx="4.987" cy="4.987" r="4.987" transform="translate(0 168.697)" fill="url(#linear-gradient-7)"/>
            <path id="Trazado_112188" data-name="Trazado 112188" d="M36.906,36.906a4.989,4.989,0,1,1,0-7.055A5,5,0,0,1,36.906,36.906Z" transform="translate(21.018 21.021)" fill="url(#linear-gradient-8)"/>
          </g>
        </g>
        <g id="Grupo_57994" data-name="Grupo 57994" transform="translate(525.669 798.236)">
          <path id="Trazado_112175" data-name="Trazado 112175" d="M88.953,124.838l13.374-13.374a51.233,51.233,0,1,0-26.748,0Z" transform="translate(215.788 -10.77)" fill="#0ac4bf"/>
          <path id="Trazado_112177" data-name="Trazado 112177" d="M63.572,114.322H82.485A51.228,51.228,0,1,0,63.572,95.409Z" transform="translate(377.612 51.966)" fill="#339ce9"/>
          <path id="Trazado_112179" data-name="Trazado 112179" d="M63.582,88.953l13.374,13.374a51.233,51.233,0,1,0,0-26.748Z" transform="translate(430.339 214.908)" fill="#3eadff"/>
          <path id="Trazado_112180" data-name="Trazado 112180" d="M63.572,63.572V82.485A51.231,51.231,0,1,0,82.485,63.572Z" transform="translate(375.64 383.913)" fill="#5ab4f5"/>
          <path id="Trazado_112182" data-name="Trazado 112182" d="M88.953,63.582,75.579,76.956a51.233,51.233,0,1,0,26.748,0Z" transform="translate(215.788 437.867)" fill="#75bff5"/>
          <path id="Trazado_112184" data-name="Trazado 112184" d="M114.325,63.572H95.411a51.231,51.231,0,1,0,18.913,18.914Z" transform="translate(55.941 383.913)" fill="#1befe9"/>
          <path id="Trazado_112186" data-name="Trazado 112186" d="M124.838,88.953,111.464,75.579a51.233,51.233,0,1,0,0,26.748Z" transform="translate(-10.77 214.907)" fill="#0ce2dc"/>
          <path id="Trazado_112187" data-name="Trazado 112187" d="M114.325,114.325V95.411a51.231,51.231,0,1,0-18.913,18.913Z" transform="translate(55.937 51.966)" fill="#0cd8d2"/>
          <path id="Trazado_112685" data-name="Trazado 112685" d="M76.619,12.045A37.624,37.624,0,1,1,38.995,49.669,37.628,37.628,0,0,1,76.619,12.045Z" transform="translate(228.122 1.564)" fill="#fff"/>
          <path id="Trazado_112686" data-name="Trazado 112686" d="M122.282,30.961a37.622,37.622,0,1,1-53.207,0A37.631,37.631,0,0,1,122.282,30.961Z" transform="translate(389.945 64.297)" fill="#fff"/>
          <path id="Trazado_112687" data-name="Trazado 112687" d="M141.193,76.619a37.624,37.624,0,1,1-37.624-37.624A37.628,37.628,0,0,1,141.193,76.619Z" transform="translate(453.198 227.241)" fill="#fff"/>
          <path id="Trazado_112688" data-name="Trazado 112688" d="M122.283,122.282a37.627,37.627,0,1,1,0-53.207A37.634,37.634,0,0,1,122.283,122.282Z" transform="translate(387.972 396.246)" fill="#fff"/>
          <path id="Trazado_112689" data-name="Trazado 112689" d="M76.619,141.193a37.624,37.624,0,1,1,37.624-37.624A37.622,37.622,0,0,1,76.619,141.193Z" transform="translate(228.122 460.726)" fill="#fff"/>
          <path id="Trazado_112690" data-name="Trazado 112690" d="M30.961,122.282a37.623,37.623,0,1,1,53.208,0A37.615,37.615,0,0,1,30.961,122.282Z" transform="translate(68.272 396.246)" fill="#fff"/>
          <path id="Trazado_112691" data-name="Trazado 112691" d="M12.045,76.619a37.624,37.624,0,1,1,37.624,37.624A37.622,37.622,0,0,1,12.045,76.619Z" transform="translate(1.564 227.24)" fill="#fff"/>
          <path id="Trazado_112692" data-name="Trazado 112692" d="M30.961,30.961a37.623,37.623,0,1,1,0,53.208A37.615,37.615,0,0,1,30.961,30.961Z" transform="translate(68.268 64.297)" fill="#fff"/>
        </g>
        <text id="Definiciones" transform="translate(763.613 1128)" fill="#12263f" font-size="20" font-family="Roboto-Black, Roboto" font-weight="800"><tspan x="-56.421" y="21">Definiciones</tspan></text>
      </g>
      <path id="Trazado_114630" data-name="Trazado 114630" d="M15.2,13.391a4.185,4.185,0,0,1-1.332,2.785,4.365,4.365,0,0,1-2.98.98,4.008,4.008,0,0,1-3.23-1.445,5.815,5.815,0,0,1-1.215-3.867V10.75A6.481,6.481,0,0,1,7,7.961,4.231,4.231,0,0,1,8.609,6.113a4.47,4.47,0,0,1,2.406-.645A4.11,4.11,0,0,1,13.922,6.48a4.235,4.235,0,0,1,1.273,2.8H13.688a3.268,3.268,0,0,0-.848-1.975A2.565,2.565,0,0,0,11.016,6.7,2.684,2.684,0,0,0,8.762,7.759a4.882,4.882,0,0,0-.816,3.026v1.1a5.018,5.018,0,0,0,.773,2.948,2.5,2.5,0,0,0,2.164,1.095,2.886,2.886,0,0,0,1.918-.566,3.143,3.143,0,0,0,.887-1.973Zm1.438-.7a4.993,4.993,0,0,1,.488-2.234A3.643,3.643,0,0,1,18.48,8.93a3.7,3.7,0,0,1,1.988-.539,3.565,3.565,0,0,1,2.793,1.2,4.6,4.6,0,0,1,1.066,3.18v.1a5.036,5.036,0,0,1-.473,2.215A3.589,3.589,0,0,1,22.5,16.609a3.743,3.743,0,0,1-2.02.547,3.556,3.556,0,0,1-2.785-1.2A4.575,4.575,0,0,1,16.633,12.8Zm1.453.172a3.616,3.616,0,0,0,.652,2.258,2.211,2.211,0,0,0,3.5-.012,3.955,3.955,0,0,0,.648-2.418,3.61,3.61,0,0,0-.66-2.254,2.1,2.1,0,0,0-1.754-.863,2.075,2.075,0,0,0-1.727.852A3.925,3.925,0,0,0,18.086,12.867Zm12.977,1.891a1.064,1.064,0,0,0-.441-.91,4.249,4.249,0,0,0-1.539-.559,7.277,7.277,0,0,1-1.742-.562,2.479,2.479,0,0,1-.953-.781,1.869,1.869,0,0,1-.309-1.078,2.193,2.193,0,0,1,.879-1.758A3.432,3.432,0,0,1,29.2,8.391a3.532,3.532,0,0,1,2.332.742,2.357,2.357,0,0,1,.895,1.9H30.977a1.3,1.3,0,0,0-.5-1.023,1.888,1.888,0,0,0-1.27-.43,1.976,1.976,0,0,0-1.234.344,1.082,1.082,0,0,0-.445.9.877.877,0,0,0,.414.789,5.1,5.1,0,0,0,1.5.508,7.8,7.8,0,0,1,1.754.578,2.558,2.558,0,0,1,1,.809,1.988,1.988,0,0,1,.324,1.152,2.163,2.163,0,0,1-.906,1.816,3.8,3.8,0,0,1-2.352.684,4.257,4.257,0,0,1-1.8-.359,2.922,2.922,0,0,1-1.223-1,2.42,2.42,0,0,1-.441-1.395h1.445a1.5,1.5,0,0,0,.582,1.152,2.258,2.258,0,0,0,1.434.426,2.331,2.331,0,0,0,1.316-.332A1.02,1.02,0,0,0,31.063,14.758ZM36.352,6.5V8.547H37.93V9.664H36.352v5.249a1.173,1.173,0,0,0,.211.763.888.888,0,0,0,.719.254,3.5,3.5,0,0,0,.688-.094V17a4.215,4.215,0,0,1-1.109.155A1.8,1.8,0,0,1,35.4,16.57a2.517,2.517,0,0,1-.492-1.664V9.664H33.367V8.547h1.539V6.5Zm2.727,6.2a4.993,4.993,0,0,1,.488-2.234A3.643,3.643,0,0,1,40.926,8.93a3.7,3.7,0,0,1,1.988-.539,3.565,3.565,0,0,1,2.793,1.2,4.6,4.6,0,0,1,1.066,3.18v.1a5.036,5.036,0,0,1-.473,2.215,3.589,3.589,0,0,1-1.352,1.527,3.743,3.743,0,0,1-2.02.547,3.556,3.556,0,0,1-2.785-1.2A4.575,4.575,0,0,1,39.078,12.8Zm1.453.172a3.616,3.616,0,0,0,.652,2.258,2.211,2.211,0,0,0,3.5-.012,3.955,3.955,0,0,0,.648-2.418,3.61,3.61,0,0,0-.66-2.254,2.1,2.1,0,0,0-1.754-.863,2.075,2.075,0,0,0-1.727.852A3.925,3.925,0,0,0,40.531,12.867Z" transform="translate(775.5 837.987)" fill="#12263f"/>
      <path id="Trazado_114631" data-name="Trazado 114631" d="M15.2,13.391a4.185,4.185,0,0,1-1.332,2.785,4.365,4.365,0,0,1-2.98.98,4.008,4.008,0,0,1-3.23-1.445,5.815,5.815,0,0,1-1.215-3.867V10.75A6.481,6.481,0,0,1,7,7.961,4.231,4.231,0,0,1,8.609,6.113a4.47,4.47,0,0,1,2.406-.645A4.11,4.11,0,0,1,13.922,6.48a4.235,4.235,0,0,1,1.273,2.8H13.688a3.268,3.268,0,0,0-.848-1.975A2.565,2.565,0,0,0,11.016,6.7,2.684,2.684,0,0,0,8.762,7.759a4.882,4.882,0,0,0-.816,3.026v1.1a5.018,5.018,0,0,0,.773,2.948,2.5,2.5,0,0,0,2.164,1.095,2.886,2.886,0,0,0,1.918-.566,3.143,3.143,0,0,0,.887-1.973Zm1.438-.7a4.993,4.993,0,0,1,.488-2.234A3.643,3.643,0,0,1,18.48,8.93a3.7,3.7,0,0,1,1.988-.539,3.565,3.565,0,0,1,2.793,1.2,4.6,4.6,0,0,1,1.066,3.18v.1a5.036,5.036,0,0,1-.473,2.215A3.589,3.589,0,0,1,22.5,16.609a3.743,3.743,0,0,1-2.02.547,3.556,3.556,0,0,1-2.785-1.2A4.575,4.575,0,0,1,16.633,12.8Zm1.453.172a3.616,3.616,0,0,0,.652,2.258,2.211,2.211,0,0,0,3.5-.012,3.955,3.955,0,0,0,.648-2.418,3.61,3.61,0,0,0-.66-2.254,2.1,2.1,0,0,0-1.754-.863,2.075,2.075,0,0,0-1.727.852A3.925,3.925,0,0,0,18.086,12.867Zm12.977,1.891a1.064,1.064,0,0,0-.441-.91,4.249,4.249,0,0,0-1.539-.559,7.277,7.277,0,0,1-1.742-.562,2.479,2.479,0,0,1-.953-.781,1.869,1.869,0,0,1-.309-1.078,2.193,2.193,0,0,1,.879-1.758A3.432,3.432,0,0,1,29.2,8.391a3.532,3.532,0,0,1,2.332.742,2.357,2.357,0,0,1,.895,1.9H30.977a1.3,1.3,0,0,0-.5-1.023,1.888,1.888,0,0,0-1.27-.43,1.976,1.976,0,0,0-1.234.344,1.082,1.082,0,0,0-.445.9.877.877,0,0,0,.414.789,5.1,5.1,0,0,0,1.5.508,7.8,7.8,0,0,1,1.754.578,2.558,2.558,0,0,1,1,.809,1.988,1.988,0,0,1,.324,1.152,2.163,2.163,0,0,1-.906,1.816,3.8,3.8,0,0,1-2.352.684,4.257,4.257,0,0,1-1.8-.359,2.922,2.922,0,0,1-1.223-1,2.42,2.42,0,0,1-.441-1.395h1.445a1.5,1.5,0,0,0,.582,1.152,2.258,2.258,0,0,0,1.434.426,2.331,2.331,0,0,0,1.316-.332A1.02,1.02,0,0,0,31.063,14.758ZM36.352,6.5V8.547H37.93V9.664H36.352v5.249a1.173,1.173,0,0,0,.211.763.888.888,0,0,0,.719.254,3.5,3.5,0,0,0,.688-.094V17a4.215,4.215,0,0,1-1.109.155A1.8,1.8,0,0,1,35.4,16.57a2.517,2.517,0,0,1-.492-1.664V9.664H33.367V8.547h1.539V6.5Zm2.727,6.2a4.993,4.993,0,0,1,.488-2.234A3.643,3.643,0,0,1,40.926,8.93a3.7,3.7,0,0,1,1.988-.539,3.565,3.565,0,0,1,2.793,1.2,4.6,4.6,0,0,1,1.066,3.18v.1a5.036,5.036,0,0,1-.473,2.215,3.589,3.589,0,0,1-1.352,1.527,3.743,3.743,0,0,1-2.02.547,3.556,3.556,0,0,1-2.785-1.2A4.575,4.575,0,0,1,39.078,12.8Zm1.453.172a3.616,3.616,0,0,0,.652,2.258,2.211,2.211,0,0,0,3.5-.012,3.955,3.955,0,0,0,.648-2.418,3.61,3.61,0,0,0-.66-2.254,2.1,2.1,0,0,0-1.754-.863,2.075,2.075,0,0,0-1.727.852A3.925,3.925,0,0,0,40.531,12.867ZM17.176,34V26.664H15.84V25.547h1.336v-.719a2.937,2.937,0,0,1,.809-2.2,3.136,3.136,0,0,1,2.285-.789,6.881,6.881,0,0,1,2.211.477l-.242,1.219a5.008,5.008,0,0,0-1.859-.391,1.819,1.819,0,0,0-1.34.418,1.723,1.723,0,0,0-.41,1.254v.734h1.727v1.117H18.629V34ZM23.2,34H21.746V25.547H23.2Zm3.844-8.453v9.43q0,2.438-2.211,2.438a2.7,2.7,0,0,1-.883-.14V36.125a2.794,2.794,0,0,0,.656.063.982.982,0,0,0,.738-.262,1.3,1.3,0,0,0,.254-.911V25.547ZM25.449,23.3a.867.867,0,0,1,.215-.59.79.79,0,0,1,.629-.246.819.819,0,0,1,.641.242.854.854,0,0,1,.219.594.826.826,0,0,1-.219.586.834.834,0,0,1-.641.234.808.808,0,0,1-.633-.234A.843.843,0,0,1,25.449,23.3ZM28.988,29.7a4.993,4.993,0,0,1,.488-2.234,3.643,3.643,0,0,1,1.359-1.531,3.7,3.7,0,0,1,1.988-.539,3.565,3.565,0,0,1,2.793,1.2,4.6,4.6,0,0,1,1.066,3.18v.1a5.036,5.036,0,0,1-.473,2.215,3.589,3.589,0,0,1-1.352,1.527,3.743,3.743,0,0,1-2.02.547,3.556,3.556,0,0,1-2.785-1.2A4.575,4.575,0,0,1,28.988,29.8Zm1.453.172a3.616,3.616,0,0,0,.652,2.258,2.211,2.211,0,0,0,3.5-.012,3.955,3.955,0,0,0,.648-2.418,3.61,3.61,0,0,0-.66-2.254,2.1,2.1,0,0,0-1.754-.863,2.075,2.075,0,0,0-1.727.852A3.925,3.925,0,0,0,30.441,29.867Z" transform="translate(958.5 901.987)" fill="#12263f"/>
      <path id="Trazado_114632" data-name="Trazado 114632" d="M20.2,13.391a4.185,4.185,0,0,1-1.332,2.785,4.365,4.365,0,0,1-2.98.98,4.008,4.008,0,0,1-3.23-1.445,5.815,5.815,0,0,1-1.215-3.867V10.75A6.481,6.481,0,0,1,12,7.961a4.231,4.231,0,0,1,1.605-1.848,4.47,4.47,0,0,1,2.406-.645A4.11,4.11,0,0,1,18.922,6.48a4.235,4.235,0,0,1,1.273,2.8H18.688a3.268,3.268,0,0,0-.848-1.975A2.565,2.565,0,0,0,16.016,6.7a2.684,2.684,0,0,0-2.254,1.063,4.882,4.882,0,0,0-.816,3.026v1.1a5.018,5.018,0,0,0,.773,2.948,2.5,2.5,0,0,0,2.164,1.095,2.886,2.886,0,0,0,1.918-.566,3.143,3.143,0,0,0,.887-1.973Zm1.438-.7a4.993,4.993,0,0,1,.488-2.234A3.643,3.643,0,0,1,23.48,8.93a3.7,3.7,0,0,1,1.988-.539,3.565,3.565,0,0,1,2.793,1.2,4.6,4.6,0,0,1,1.066,3.18v.1a5.036,5.036,0,0,1-.473,2.215A3.589,3.589,0,0,1,27.5,16.609a3.743,3.743,0,0,1-2.02.547,3.556,3.556,0,0,1-2.785-1.2A4.575,4.575,0,0,1,21.633,12.8Zm1.453.172a3.616,3.616,0,0,0,.652,2.258,2.211,2.211,0,0,0,3.5-.012,3.955,3.955,0,0,0,.648-2.418,3.61,3.61,0,0,0-.66-2.254,2.1,2.1,0,0,0-1.754-.863,2.075,2.075,0,0,0-1.727.852A3.925,3.925,0,0,0,23.086,12.867Zm12.977,1.891a1.064,1.064,0,0,0-.441-.91,4.249,4.249,0,0,0-1.539-.559,7.277,7.277,0,0,1-1.742-.562,2.479,2.479,0,0,1-.953-.781,1.869,1.869,0,0,1-.309-1.078,2.193,2.193,0,0,1,.879-1.758A3.432,3.432,0,0,1,34.2,8.391a3.532,3.532,0,0,1,2.332.742,2.357,2.357,0,0,1,.895,1.9H35.977a1.3,1.3,0,0,0-.5-1.023,1.888,1.888,0,0,0-1.27-.43,1.976,1.976,0,0,0-1.234.344,1.082,1.082,0,0,0-.445.9.877.877,0,0,0,.414.789,5.1,5.1,0,0,0,1.5.508,7.8,7.8,0,0,1,1.754.578,2.558,2.558,0,0,1,1,.809,1.988,1.988,0,0,1,.324,1.152,2.163,2.163,0,0,1-.906,1.816,3.8,3.8,0,0,1-2.352.684,4.257,4.257,0,0,1-1.8-.359,2.922,2.922,0,0,1-1.223-1,2.42,2.42,0,0,1-.441-1.395h1.445a1.5,1.5,0,0,0,.582,1.152,2.258,2.258,0,0,0,1.434.426,2.331,2.331,0,0,0,1.316-.332A1.02,1.02,0,0,0,36.063,14.758ZM41.352,6.5V8.547H42.93V9.664H41.352v5.249a1.173,1.173,0,0,0,.211.763.888.888,0,0,0,.719.254,3.5,3.5,0,0,0,.688-.094V17a4.215,4.215,0,0,1-1.109.155A1.8,1.8,0,0,1,40.4,16.57a2.517,2.517,0,0,1-.492-1.664V9.664H38.367V8.547h1.539V6.5Zm2.727,6.2a4.993,4.993,0,0,1,.488-2.234A3.643,3.643,0,0,1,45.926,8.93a3.7,3.7,0,0,1,1.988-.539,3.565,3.565,0,0,1,2.793,1.2,4.6,4.6,0,0,1,1.066,3.18v.1a5.036,5.036,0,0,1-.473,2.215,3.589,3.589,0,0,1-1.352,1.527,3.743,3.743,0,0,1-2.02.547,3.556,3.556,0,0,1-2.785-1.2A4.575,4.575,0,0,1,44.078,12.8Zm1.453.172a3.616,3.616,0,0,0,.652,2.258,2.211,2.211,0,0,0,3.5-.012,3.955,3.955,0,0,0,.648-2.418,3.61,3.61,0,0,0-.66-2.254,2.1,2.1,0,0,0-1.754-.863,2.075,2.075,0,0,0-1.727.852A3.925,3.925,0,0,0,45.531,12.867ZM7.547,32.039l2.094-6.492h1.477L8.086,34h-1.1L3.922,25.547H5.4ZM17.609,34a3.036,3.036,0,0,1-.2-.891A3.225,3.225,0,0,1,15,34.156a2.984,2.984,0,0,1-2.051-.707,2.287,2.287,0,0,1-.8-1.793,2.39,2.39,0,0,1,1-2.051,4.733,4.733,0,0,1,2.824-.73h1.406v-.664A1.623,1.623,0,0,0,16.93,27a1.821,1.821,0,0,0-1.336-.449,2.108,2.108,0,0,0-1.3.391,1.151,1.151,0,0,0-.523.945H12.32a2,2,0,0,1,.449-1.223,3.066,3.066,0,0,1,1.219-.934,4.1,4.1,0,0,1,1.691-.344,3.342,3.342,0,0,1,2.289.73,2.635,2.635,0,0,1,.859,2.012v3.891a4.757,4.757,0,0,0,.3,1.852V34Zm-2.4-1.1a2.54,2.54,0,0,0,1.289-.352,2.127,2.127,0,0,0,.883-.914V29.9H16.25q-2.656,0-2.656,1.555a1.316,1.316,0,0,0,.453,1.063A1.742,1.742,0,0,0,15.211,32.9Zm9.969-6.055a4.331,4.331,0,0,0-.711-.055A1.9,1.9,0,0,0,22.539,28v6H21.094V25.547H22.5l.023.977a2.251,2.251,0,0,1,2.016-1.133,1.477,1.477,0,0,1,.641.109ZM28.078,34H26.633V25.547h1.445ZM26.516,23.3a.863.863,0,0,1,.215-.594.807.807,0,0,1,.637-.242.819.819,0,0,1,.641.242.854.854,0,0,1,.219.594.826.826,0,0,1-.219.586.834.834,0,0,1-.641.234.821.821,0,0,1-.637-.234A.834.834,0,0,1,26.516,23.3ZM35.609,34a3.036,3.036,0,0,1-.2-.891A3.225,3.225,0,0,1,33,34.156a2.984,2.984,0,0,1-2.051-.707,2.287,2.287,0,0,1-.8-1.793,2.39,2.39,0,0,1,1-2.051,4.733,4.733,0,0,1,2.824-.73h1.406v-.664A1.623,1.623,0,0,0,34.93,27a1.821,1.821,0,0,0-1.336-.449,2.107,2.107,0,0,0-1.3.391,1.151,1.151,0,0,0-.523.945H30.32a2,2,0,0,1,.449-1.223,3.066,3.066,0,0,1,1.219-.934,4.1,4.1,0,0,1,1.691-.344,3.342,3.342,0,0,1,2.289.73,2.635,2.635,0,0,1,.859,2.012v3.891a4.757,4.757,0,0,0,.3,1.852V34Zm-2.4-1.1a2.54,2.54,0,0,0,1.289-.352,2.127,2.127,0,0,0,.883-.914V29.9H34.25q-2.656,0-2.656,1.555a1.316,1.316,0,0,0,.453,1.063A1.742,1.742,0,0,0,33.211,32.9ZM46.25,29.867a5.026,5.026,0,0,1-.891,3.113,2.846,2.846,0,0,1-2.391,1.176,2.947,2.947,0,0,1-2.477-1.133l-.07.977H39.094V22h1.445v4.477a2.93,2.93,0,0,1,2.414-1.086,2.863,2.863,0,0,1,2.418,1.164,5.177,5.177,0,0,1,.879,3.188ZM44.8,29.7a3.906,3.906,0,0,0-.57-2.281,1.888,1.888,0,0,0-1.641-.8,2.122,2.122,0,0,0-2.055,1.328V31.6a2.181,2.181,0,0,0,2.07,1.328,1.878,1.878,0,0,0,1.617-.8A4.153,4.153,0,0,0,44.8,29.7ZM49.641,34H48.2V22h1.445Zm5.82.156a3.693,3.693,0,0,1-2.8-1.129,4.19,4.19,0,0,1-1.078-3.02v-.266a5.073,5.073,0,0,1,.48-2.246,3.748,3.748,0,0,1,1.344-1.547,3.378,3.378,0,0,1,1.871-.559,3.166,3.166,0,0,1,2.563,1.086,4.7,4.7,0,0,1,.914,3.109v.6H53.031a3,3,0,0,0,.73,2.02,2.3,2.3,0,0,0,1.777.77,2.517,2.517,0,0,0,1.3-.312,3.258,3.258,0,0,0,.93-.828l.883.688A3.55,3.55,0,0,1,55.461,34.156Zm-.18-7.578a1.928,1.928,0,0,0-1.469.637A3.1,3.1,0,0,0,53.078,29h4.234v-.109a2.753,2.753,0,0,0-.594-1.707A1.815,1.815,0,0,0,55.281,26.578Z" transform="translate(1025.5 1082.5)" fill="#12263f"/>
      <path id="Trazado_114633" data-name="Trazado 114633" d="M20.2,13.391a4.185,4.185,0,0,1-1.332,2.785,4.365,4.365,0,0,1-2.98.98,4.008,4.008,0,0,1-3.23-1.445,5.815,5.815,0,0,1-1.215-3.867V10.75A6.481,6.481,0,0,1,12,7.961a4.231,4.231,0,0,1,1.605-1.848,4.47,4.47,0,0,1,2.406-.645A4.11,4.11,0,0,1,18.922,6.48a4.235,4.235,0,0,1,1.273,2.8H18.688a3.268,3.268,0,0,0-.848-1.975A2.565,2.565,0,0,0,16.016,6.7a2.684,2.684,0,0,0-2.254,1.063,4.882,4.882,0,0,0-.816,3.026v1.1a5.018,5.018,0,0,0,.773,2.948,2.5,2.5,0,0,0,2.164,1.095,2.886,2.886,0,0,0,1.918-.566,3.143,3.143,0,0,0,.887-1.973Zm1.438-.7a4.993,4.993,0,0,1,.488-2.234A3.643,3.643,0,0,1,23.48,8.93a3.7,3.7,0,0,1,1.988-.539,3.565,3.565,0,0,1,2.793,1.2,4.6,4.6,0,0,1,1.066,3.18v.1a5.036,5.036,0,0,1-.473,2.215A3.589,3.589,0,0,1,27.5,16.609a3.743,3.743,0,0,1-2.02.547,3.556,3.556,0,0,1-2.785-1.2A4.575,4.575,0,0,1,21.633,12.8Zm1.453.172a3.616,3.616,0,0,0,.652,2.258,2.211,2.211,0,0,0,3.5-.012,3.955,3.955,0,0,0,.648-2.418,3.61,3.61,0,0,0-.66-2.254,2.1,2.1,0,0,0-1.754-.863,2.075,2.075,0,0,0-1.727.852A3.925,3.925,0,0,0,23.086,12.867Zm12.977,1.891a1.064,1.064,0,0,0-.441-.91,4.249,4.249,0,0,0-1.539-.559,7.277,7.277,0,0,1-1.742-.562,2.479,2.479,0,0,1-.953-.781,1.869,1.869,0,0,1-.309-1.078,2.193,2.193,0,0,1,.879-1.758A3.432,3.432,0,0,1,34.2,8.391a3.532,3.532,0,0,1,2.332.742,2.357,2.357,0,0,1,.895,1.9H35.977a1.3,1.3,0,0,0-.5-1.023,1.888,1.888,0,0,0-1.27-.43,1.976,1.976,0,0,0-1.234.344,1.082,1.082,0,0,0-.445.9.877.877,0,0,0,.414.789,5.1,5.1,0,0,0,1.5.508,7.8,7.8,0,0,1,1.754.578,2.558,2.558,0,0,1,1,.809,1.988,1.988,0,0,1,.324,1.152,2.163,2.163,0,0,1-.906,1.816,3.8,3.8,0,0,1-2.352.684,4.257,4.257,0,0,1-1.8-.359,2.922,2.922,0,0,1-1.223-1,2.42,2.42,0,0,1-.441-1.395h1.445a1.5,1.5,0,0,0,.582,1.152,2.258,2.258,0,0,0,1.434.426,2.331,2.331,0,0,0,1.316-.332A1.02,1.02,0,0,0,36.063,14.758ZM41.352,6.5V8.547H42.93V9.664H41.352v5.249a1.173,1.173,0,0,0,.211.763.888.888,0,0,0,.719.254,3.5,3.5,0,0,0,.688-.094V17a4.215,4.215,0,0,1-1.109.155A1.8,1.8,0,0,1,40.4,16.57a2.517,2.517,0,0,1-.492-1.664V9.664H38.367V8.547h1.539V6.5Zm2.727,6.2a4.993,4.993,0,0,1,.488-2.234A3.643,3.643,0,0,1,45.926,8.93a3.7,3.7,0,0,1,1.988-.539,3.565,3.565,0,0,1,2.793,1.2,4.6,4.6,0,0,1,1.066,3.18v.1a5.036,5.036,0,0,1-.473,2.215,3.589,3.589,0,0,1-1.352,1.527,3.743,3.743,0,0,1-2.02.547,3.556,3.556,0,0,1-2.785-1.2A4.575,4.575,0,0,1,44.078,12.8Zm1.453.172a3.616,3.616,0,0,0,.652,2.258,2.211,2.211,0,0,0,3.5-.012,3.955,3.955,0,0,0,.648-2.418,3.61,3.61,0,0,0-.66-2.254,2.1,2.1,0,0,0-1.754-.863,2.075,2.075,0,0,0-1.727.852A3.925,3.925,0,0,0,45.531,12.867ZM7.559,29.7a4.952,4.952,0,0,1,.922-3.129,2.915,2.915,0,0,1,2.414-1.184,2.932,2.932,0,0,1,2.352,1.016V22h1.445V34H13.363l-.07-.906a2.943,2.943,0,0,1-2.414,1.063,2.887,2.887,0,0,1-2.395-1.2,5.008,5.008,0,0,1-.926-3.141ZM9,29.867a3.749,3.749,0,0,0,.594,2.25,1.92,1.92,0,0,0,1.641.813A2.108,2.108,0,0,0,13.246,31.7V27.813a2.125,2.125,0,0,0-1.992-1.2,1.929,1.929,0,0,0-1.656.82A4.128,4.128,0,0,0,9,29.867ZM18.5,34H17.059V25.547H18.5ZM16.941,23.3a.863.863,0,0,1,.215-.594.807.807,0,0,1,.637-.242.819.819,0,0,1,.641.242.854.854,0,0,1,.219.594.826.826,0,0,1-.219.586.834.834,0,0,1-.641.234.821.821,0,0,1-.637-.234A.834.834,0,0,1,16.941,23.3ZM24.9,26.844a4.331,4.331,0,0,0-.711-.055A1.9,1.9,0,0,0,22.262,28v6H20.816V25.547h1.406l.023.977a2.251,2.251,0,0,1,2.016-1.133,1.477,1.477,0,0,1,.641.109Zm4.836,7.313a3.693,3.693,0,0,1-2.8-1.129,4.19,4.19,0,0,1-1.078-3.02v-.266a5.073,5.073,0,0,1,.48-2.246,3.748,3.748,0,0,1,1.344-1.547,3.378,3.378,0,0,1,1.871-.559,3.166,3.166,0,0,1,2.563,1.086,4.7,4.7,0,0,1,.914,3.109v.6H27.309a3,3,0,0,0,.73,2.02,2.3,2.3,0,0,0,1.777.77,2.517,2.517,0,0,0,1.3-.312,3.259,3.259,0,0,0,.93-.828l.883.688A3.55,3.55,0,0,1,29.738,34.156Zm-.18-7.578a1.928,1.928,0,0,0-1.469.637A3.1,3.1,0,0,0,27.355,29H31.59v-.109A2.753,2.753,0,0,0,31,27.184,1.815,1.815,0,0,0,29.559,26.578Zm8.539,6.4a2.082,2.082,0,0,0,1.352-.469,1.649,1.649,0,0,0,.641-1.172h1.367a2.621,2.621,0,0,1-.5,1.383,3.293,3.293,0,0,1-1.23,1.047,3.55,3.55,0,0,1-1.629.391A3.482,3.482,0,0,1,35.352,33a4.59,4.59,0,0,1-1.02-3.152v-.242a5.089,5.089,0,0,1,.453-2.2,3.451,3.451,0,0,1,1.3-1.492,3.7,3.7,0,0,1,2-.531,3.39,3.39,0,0,1,2.363.852,3.043,3.043,0,0,1,1,2.211H40.09a1.992,1.992,0,0,0-.621-1.348,1.932,1.932,0,0,0-1.379-.527,2.023,2.023,0,0,0-1.707.793,3.724,3.724,0,0,0-.605,2.293v.273a3.65,3.65,0,0,0,.6,2.25A2.033,2.033,0,0,0,38.1,32.977ZM45.043,23.5v2.047h1.578v1.117H45.043v5.249a1.173,1.173,0,0,0,.211.763.888.888,0,0,0,.719.254,3.5,3.5,0,0,0,.688-.094V34a4.215,4.215,0,0,1-1.109.155,1.8,1.8,0,0,1-1.461-.586,2.517,2.517,0,0,1-.492-1.664V26.664H42.059V25.547H43.6V23.5Zm2.727,6.2a4.993,4.993,0,0,1,.488-2.234,3.643,3.643,0,0,1,1.359-1.531,3.7,3.7,0,0,1,1.988-.539,3.565,3.565,0,0,1,2.793,1.2,4.6,4.6,0,0,1,1.066,3.18v.1a5.036,5.036,0,0,1-.473,2.215,3.589,3.589,0,0,1-1.352,1.527,3.743,3.743,0,0,1-2.02.547,3.556,3.556,0,0,1-2.785-1.2A4.575,4.575,0,0,1,47.77,29.8Zm1.453.172a3.616,3.616,0,0,0,.652,2.258,2.211,2.211,0,0,0,3.5-.012A3.955,3.955,0,0,0,54.02,29.7a3.61,3.61,0,0,0-.66-2.254,2.1,2.1,0,0,0-1.754-.863,2.075,2.075,0,0,0-1.727.852A3.925,3.925,0,0,0,49.223,29.867Z" transform="translate(949.5 1271.5)" fill="#12263f"/>
      <path id="Trazado_114634" data-name="Trazado 114634" d="M20.2,13.391a4.185,4.185,0,0,1-1.332,2.785,4.365,4.365,0,0,1-2.98.98,4.008,4.008,0,0,1-3.23-1.445,5.815,5.815,0,0,1-1.215-3.867V10.75A6.481,6.481,0,0,1,12,7.961a4.231,4.231,0,0,1,1.605-1.848,4.47,4.47,0,0,1,2.406-.645A4.11,4.11,0,0,1,18.922,6.48a4.235,4.235,0,0,1,1.273,2.8H18.688a3.268,3.268,0,0,0-.848-1.975A2.565,2.565,0,0,0,16.016,6.7a2.684,2.684,0,0,0-2.254,1.063,4.882,4.882,0,0,0-.816,3.026v1.1a5.018,5.018,0,0,0,.773,2.948,2.5,2.5,0,0,0,2.164,1.095,2.886,2.886,0,0,0,1.918-.566,3.143,3.143,0,0,0,.887-1.973Zm1.438-.7a4.993,4.993,0,0,1,.488-2.234A3.643,3.643,0,0,1,23.48,8.93a3.7,3.7,0,0,1,1.988-.539,3.565,3.565,0,0,1,2.793,1.2,4.6,4.6,0,0,1,1.066,3.18v.1a5.036,5.036,0,0,1-.473,2.215A3.589,3.589,0,0,1,27.5,16.609a3.743,3.743,0,0,1-2.02.547,3.556,3.556,0,0,1-2.785-1.2A4.575,4.575,0,0,1,21.633,12.8Zm1.453.172a3.616,3.616,0,0,0,.652,2.258,2.211,2.211,0,0,0,3.5-.012,3.955,3.955,0,0,0,.648-2.418,3.61,3.61,0,0,0-.66-2.254,2.1,2.1,0,0,0-1.754-.863,2.075,2.075,0,0,0-1.727.852A3.925,3.925,0,0,0,23.086,12.867Zm12.977,1.891a1.064,1.064,0,0,0-.441-.91,4.249,4.249,0,0,0-1.539-.559,7.277,7.277,0,0,1-1.742-.562,2.479,2.479,0,0,1-.953-.781,1.869,1.869,0,0,1-.309-1.078,2.193,2.193,0,0,1,.879-1.758A3.432,3.432,0,0,1,34.2,8.391a3.532,3.532,0,0,1,2.332.742,2.357,2.357,0,0,1,.895,1.9H35.977a1.3,1.3,0,0,0-.5-1.023,1.888,1.888,0,0,0-1.27-.43,1.976,1.976,0,0,0-1.234.344,1.082,1.082,0,0,0-.445.9.877.877,0,0,0,.414.789,5.1,5.1,0,0,0,1.5.508,7.8,7.8,0,0,1,1.754.578,2.558,2.558,0,0,1,1,.809,1.988,1.988,0,0,1,.324,1.152,2.163,2.163,0,0,1-.906,1.816,3.8,3.8,0,0,1-2.352.684,4.257,4.257,0,0,1-1.8-.359,2.922,2.922,0,0,1-1.223-1,2.42,2.42,0,0,1-.441-1.395h1.445a1.5,1.5,0,0,0,.582,1.152,2.258,2.258,0,0,0,1.434.426,2.331,2.331,0,0,0,1.316-.332A1.02,1.02,0,0,0,36.063,14.758ZM41.352,6.5V8.547H42.93V9.664H41.352v5.249a1.173,1.173,0,0,0,.211.763.888.888,0,0,0,.719.254,3.5,3.5,0,0,0,.688-.094V17a4.215,4.215,0,0,1-1.109.155A1.8,1.8,0,0,1,40.4,16.57a2.517,2.517,0,0,1-.492-1.664V9.664H38.367V8.547h1.539V6.5Zm2.727,6.2a4.993,4.993,0,0,1,.488-2.234A3.643,3.643,0,0,1,45.926,8.93a3.7,3.7,0,0,1,1.988-.539,3.565,3.565,0,0,1,2.793,1.2,4.6,4.6,0,0,1,1.066,3.18v.1a5.036,5.036,0,0,1-.473,2.215,3.589,3.589,0,0,1-1.352,1.527,3.743,3.743,0,0,1-2.02.547,3.556,3.556,0,0,1-2.785-1.2A4.575,4.575,0,0,1,44.078,12.8Zm1.453.172a3.616,3.616,0,0,0,.652,2.258,2.211,2.211,0,0,0,3.5-.012,3.955,3.955,0,0,0,.648-2.418,3.61,3.61,0,0,0-.66-2.254,2.1,2.1,0,0,0-1.754-.863,2.075,2.075,0,0,0-1.727.852A3.925,3.925,0,0,0,45.531,12.867ZM3.125,34H1.68V25.547H3.125ZM1.563,23.3a.863.863,0,0,1,.215-.594.807.807,0,0,1,.637-.242.819.819,0,0,1,.641.242.854.854,0,0,1,.219.594.826.826,0,0,1-.219.586.834.834,0,0,1-.641.234.821.821,0,0,1-.637-.234A.834.834,0,0,1,1.563,23.3ZM6.8,25.547l.047,1.063a3.08,3.08,0,0,1,2.531-1.219q2.68,0,2.7,3.023V34H10.641V28.406a1.946,1.946,0,0,0-.418-1.352,1.675,1.675,0,0,0-1.277-.437,2.086,2.086,0,0,0-1.234.375,2.546,2.546,0,0,0-.828.984V34H5.438V25.547ZM13.914,29.7a4.952,4.952,0,0,1,.922-3.129,2.915,2.915,0,0,1,2.414-1.184A2.932,2.932,0,0,1,19.6,26.406V22h1.445V34H19.719l-.07-.906a2.943,2.943,0,0,1-2.414,1.063,2.887,2.887,0,0,1-2.395-1.2,5.008,5.008,0,0,1-.926-3.141Zm1.445.164a3.749,3.749,0,0,0,.594,2.25,1.92,1.92,0,0,0,1.641.813A2.108,2.108,0,0,0,19.6,31.7V27.813a2.125,2.125,0,0,0-1.992-1.2,1.929,1.929,0,0,0-1.656.82A4.128,4.128,0,0,0,15.359,29.867ZM24.859,34H23.414V25.547h1.445ZM23.3,23.3a.863.863,0,0,1,.215-.594.807.807,0,0,1,.637-.242.819.819,0,0,1,.641.242.854.854,0,0,1,.219.594.826.826,0,0,1-.219.586.834.834,0,0,1-.641.234.821.821,0,0,1-.637-.234A.834.834,0,0,1,23.3,23.3Zm7.961,3.539a4.331,4.331,0,0,0-.711-.055A1.9,1.9,0,0,0,28.617,28v6H27.172V25.547h1.406l.023.977a2.251,2.251,0,0,1,2.016-1.133,1.477,1.477,0,0,1,.641.109Zm4.836,7.313a3.693,3.693,0,0,1-2.8-1.129,4.19,4.19,0,0,1-1.078-3.02v-.266A5.073,5.073,0,0,1,32.7,27.5a3.748,3.748,0,0,1,1.344-1.547,3.378,3.378,0,0,1,1.871-.559,3.166,3.166,0,0,1,2.563,1.086,4.7,4.7,0,0,1,.914,3.109v.6H33.664a3,3,0,0,0,.73,2.02,2.3,2.3,0,0,0,1.777.77,2.517,2.517,0,0,0,1.3-.312,3.258,3.258,0,0,0,.93-.828l.883.688A3.55,3.55,0,0,1,36.094,34.156Zm-.18-7.578a1.928,1.928,0,0,0-1.469.637A3.1,3.1,0,0,0,33.711,29h4.234v-.109a2.753,2.753,0,0,0-.594-1.707A1.815,1.815,0,0,0,35.914,26.578Zm8.539,6.4a2.082,2.082,0,0,0,1.352-.469,1.649,1.649,0,0,0,.641-1.172h1.367a2.621,2.621,0,0,1-.5,1.383,3.293,3.293,0,0,1-1.23,1.047,3.55,3.55,0,0,1-1.629.391A3.482,3.482,0,0,1,41.707,33a4.59,4.59,0,0,1-1.02-3.152v-.242a5.089,5.089,0,0,1,.453-2.2,3.451,3.451,0,0,1,1.3-1.492,3.7,3.7,0,0,1,2-.531,3.39,3.39,0,0,1,2.363.852,3.043,3.043,0,0,1,1,2.211H46.445a1.992,1.992,0,0,0-.621-1.348,1.932,1.932,0,0,0-1.379-.527,2.023,2.023,0,0,0-1.707.793,3.724,3.724,0,0,0-.605,2.293v.273a3.65,3.65,0,0,0,.6,2.25A2.033,2.033,0,0,0,44.453,32.977ZM51.4,23.5v2.047h1.578v1.117H51.4v5.249a1.173,1.173,0,0,0,.211.763.888.888,0,0,0,.719.254,3.5,3.5,0,0,0,.688-.094V34a4.215,4.215,0,0,1-1.109.155,1.8,1.8,0,0,1-1.461-.586,2.517,2.517,0,0,1-.492-1.664V26.664H48.414V25.547h1.539V23.5Zm2.727,6.2a4.993,4.993,0,0,1,.488-2.234,3.643,3.643,0,0,1,1.359-1.531,3.7,3.7,0,0,1,1.988-.539,3.565,3.565,0,0,1,2.793,1.2,4.6,4.6,0,0,1,1.066,3.18v.1a5.036,5.036,0,0,1-.473,2.215A3.589,3.589,0,0,1,60,33.609a3.743,3.743,0,0,1-2.02.547,3.556,3.556,0,0,1-2.785-1.2A4.575,4.575,0,0,1,54.125,29.8Zm1.453.172a3.616,3.616,0,0,0,.652,2.258,2.211,2.211,0,0,0,3.5-.012,3.955,3.955,0,0,0,.648-2.418,3.61,3.61,0,0,0-.66-2.254,2.1,2.1,0,0,0-1.754-.863,2.075,2.075,0,0,0-1.727.852A3.925,3.925,0,0,0,55.578,29.867Z" transform="translate(770.5 1341.5)" fill="#12263f"/>
      <path id="Trazado_114635" data-name="Trazado 114635" d="M7.57,5.625l3.719,9.281,3.719-9.281h1.945V17h-1.5V12.57l.141-4.781L11.859,17H10.711L6.984,7.813l.148,4.758V17h-1.5V5.625ZM24.594,17a3.036,3.036,0,0,1-.2-.891,3.225,3.225,0,0,1-2.406,1.047,2.984,2.984,0,0,1-2.051-.707,2.287,2.287,0,0,1-.8-1.793,2.39,2.39,0,0,1,1-2.051,4.733,4.733,0,0,1,2.824-.73h1.406v-.664A1.623,1.623,0,0,0,23.914,10a1.821,1.821,0,0,0-1.336-.449,2.107,2.107,0,0,0-1.3.391,1.151,1.151,0,0,0-.523.945H19.3a2,2,0,0,1,.449-1.223,3.066,3.066,0,0,1,1.219-.934,4.1,4.1,0,0,1,1.691-.344,3.342,3.342,0,0,1,2.289.73,2.635,2.635,0,0,1,.859,2.012v3.891a4.757,4.757,0,0,0,.3,1.852V17Zm-2.4-1.1a2.54,2.54,0,0,0,1.289-.352,2.127,2.127,0,0,0,.883-.914V12.9H23.234q-2.656,0-2.656,1.555a1.316,1.316,0,0,0,.453,1.063A1.742,1.742,0,0,0,22.2,15.9Zm7.844-9.4V8.547h1.578V9.664H30.039v5.249a1.173,1.173,0,0,0,.211.763.888.888,0,0,0,.719.254,3.5,3.5,0,0,0,.688-.094V17a4.215,4.215,0,0,1-1.109.155,1.8,1.8,0,0,1-1.461-.586,2.517,2.517,0,0,1-.492-1.664V9.664H27.055V8.547h1.539V6.5Zm6.773,10.656a3.693,3.693,0,0,1-2.8-1.129,4.19,4.19,0,0,1-1.078-3.02v-.266a5.073,5.073,0,0,1,.48-2.246,3.748,3.748,0,0,1,1.344-1.547,3.378,3.378,0,0,1,1.871-.559A3.166,3.166,0,0,1,39.2,9.477a4.7,4.7,0,0,1,.914,3.109v.6H34.383a3,3,0,0,0,.73,2.02,2.3,2.3,0,0,0,1.777.77,2.517,2.517,0,0,0,1.3-.312,3.259,3.259,0,0,0,.93-.828l.883.688A3.55,3.55,0,0,1,36.813,17.156Zm-.18-7.578a1.928,1.928,0,0,0-1.469.637A3.1,3.1,0,0,0,34.43,12h4.234v-.109a2.753,2.753,0,0,0-.594-1.707A1.815,1.815,0,0,0,36.633,9.578Zm9.234.266a4.331,4.331,0,0,0-.711-.055A1.9,1.9,0,0,0,43.227,11v6H41.781V8.547h1.406l.023.977a2.251,2.251,0,0,1,2.016-1.133,1.477,1.477,0,0,1,.641.109ZM48.766,17H47.32V8.547h1.445ZM47.2,6.3a.863.863,0,0,1,.215-.594.807.807,0,0,1,.637-.242.819.819,0,0,1,.641.242.854.854,0,0,1,.219.594.826.826,0,0,1-.219.586.834.834,0,0,1-.641.234.821.821,0,0,1-.637-.234A.834.834,0,0,1,47.2,6.3ZM56.3,17a3.036,3.036,0,0,1-.2-.891,3.225,3.225,0,0,1-2.406,1.047,2.984,2.984,0,0,1-2.051-.707,2.287,2.287,0,0,1-.8-1.793,2.39,2.39,0,0,1,1-2.051,4.733,4.733,0,0,1,2.824-.73H56.07v-.664A1.623,1.623,0,0,0,55.617,10a1.821,1.821,0,0,0-1.336-.449,2.107,2.107,0,0,0-1.3.391,1.151,1.151,0,0,0-.523.945H51.008a2,2,0,0,1,.449-1.223,3.066,3.066,0,0,1,1.219-.934,4.1,4.1,0,0,1,1.691-.344,3.342,3.342,0,0,1,2.289.73,2.635,2.635,0,0,1,.859,2.012v3.891a4.757,4.757,0,0,0,.3,1.852V17Zm-2.4-1.1a2.54,2.54,0,0,0,1.289-.352,2.127,2.127,0,0,0,.883-.914V12.9H54.938q-2.656,0-2.656,1.555a1.316,1.316,0,0,0,.453,1.063A1.742,1.742,0,0,0,53.9,15.9ZM19.234,29.867a5.062,5.062,0,0,1-.883,3.109,2.829,2.829,0,0,1-2.391,1.18,3.1,3.1,0,0,1-2.422-.977v4.07H12.094v-11.7h1.32l.07.938a2.977,2.977,0,0,1,2.453-1.094,2.882,2.882,0,0,1,2.41,1.148,5.117,5.117,0,0,1,.887,3.2ZM17.789,29.7a3.735,3.735,0,0,0-.609-2.258,1.963,1.963,0,0,0-1.672-.828,2.125,2.125,0,0,0-1.969,1.164V31.82a2.129,2.129,0,0,0,1.984,1.156,1.954,1.954,0,0,0,1.652-.824A4.077,4.077,0,0,0,17.789,29.7Zm7.367-2.859a4.331,4.331,0,0,0-.711-.055A1.9,1.9,0,0,0,22.516,28v6H21.07V25.547h1.406l.023.977a2.251,2.251,0,0,1,2.016-1.133,1.477,1.477,0,0,1,.641.109ZM28.055,34H26.609V25.547h1.445ZM26.492,23.3a.863.863,0,0,1,.215-.594.807.807,0,0,1,.637-.242.819.819,0,0,1,.641.242.854.854,0,0,1,.219.594.826.826,0,0,1-.219.586.834.834,0,0,1-.641.234.821.821,0,0,1-.637-.234A.834.834,0,0,1,26.492,23.3Zm5.234,2.242.039.938a3.122,3.122,0,0,1,2.508-1.094,2.417,2.417,0,0,1,2.414,1.359,3.2,3.2,0,0,1,1.1-.984,3.242,3.242,0,0,1,1.6-.375q2.781,0,2.828,2.945V34H40.766V28.422a1.941,1.941,0,0,0-.414-1.355,1.823,1.823,0,0,0-1.391-.449,1.916,1.916,0,0,0-1.336.48,1.949,1.949,0,0,0-.617,1.293V34H35.555V28.461a1.613,1.613,0,0,0-1.8-1.844A1.934,1.934,0,0,0,31.8,27.828V34H30.359V25.547ZM49.609,34a3.036,3.036,0,0,1-.2-.891A3.225,3.225,0,0,1,47,34.156a2.984,2.984,0,0,1-2.051-.707,2.287,2.287,0,0,1-.8-1.793,2.39,2.39,0,0,1,1-2.051,4.733,4.733,0,0,1,2.824-.73h1.406v-.664A1.623,1.623,0,0,0,48.93,27a1.821,1.821,0,0,0-1.336-.449,2.107,2.107,0,0,0-1.3.391,1.151,1.151,0,0,0-.523.945H44.32a2,2,0,0,1,.449-1.223,3.066,3.066,0,0,1,1.219-.934,4.1,4.1,0,0,1,1.691-.344,3.342,3.342,0,0,1,2.289.73,2.635,2.635,0,0,1,.859,2.012v3.891a4.757,4.757,0,0,0,.3,1.852V34Zm-2.4-1.1a2.54,2.54,0,0,0,1.289-.352,2.127,2.127,0,0,0,.883-.914V29.9H48.25q-2.656,0-2.656,1.555a1.316,1.316,0,0,0,.453,1.063A1.742,1.742,0,0,0,47.211,32.9Z" transform="translate(594.5 1271.5)" fill="#12263f"/>
      <path id="Trazado_114636" data-name="Trazado 114636" d="M3.605,17h-1.5V5.625h1.5ZM7.488,8.547l.047,1.063a3.08,3.08,0,0,1,2.531-1.219q2.68,0,2.7,3.023V17H11.324V11.406a1.946,1.946,0,0,0-.418-1.352,1.675,1.675,0,0,0-1.277-.437,2.086,2.086,0,0,0-1.234.375,2.546,2.546,0,0,0-.828.984V17H6.121V8.547Zm12.383,6.211a1.064,1.064,0,0,0-.441-.91,4.249,4.249,0,0,0-1.539-.559,7.277,7.277,0,0,1-1.742-.562,2.479,2.479,0,0,1-.953-.781,1.869,1.869,0,0,1-.309-1.078,2.193,2.193,0,0,1,.879-1.758,3.432,3.432,0,0,1,2.246-.719,3.532,3.532,0,0,1,2.332.742,2.357,2.357,0,0,1,.895,1.9H19.785a1.3,1.3,0,0,0-.5-1.023,1.888,1.888,0,0,0-1.27-.43,1.976,1.976,0,0,0-1.234.344,1.082,1.082,0,0,0-.445.9.877.877,0,0,0,.414.789,5.1,5.1,0,0,0,1.5.508A7.8,7.8,0,0,1,20,12.7a2.558,2.558,0,0,1,1,.809,1.988,1.988,0,0,1,.324,1.152,2.163,2.163,0,0,1-.906,1.816,3.8,3.8,0,0,1-2.352.684,4.257,4.257,0,0,1-1.8-.359,2.922,2.922,0,0,1-1.223-1A2.42,2.42,0,0,1,14.6,14.4h1.445a1.5,1.5,0,0,0,.582,1.152,2.258,2.258,0,0,0,1.434.426,2.331,2.331,0,0,0,1.316-.332A1.02,1.02,0,0,0,19.871,14.758Zm8.547,1.406a3.07,3.07,0,0,1-2.477.992,2.628,2.628,0,0,1-2.059-.785,3.4,3.4,0,0,1-.715-2.324v-5.5h1.445v5.461q0,1.922,1.563,1.922a2.163,2.163,0,0,0,2.2-1.234V8.547h1.445V17H28.449Zm4.961-7.617.039.938a3.122,3.122,0,0,1,2.508-1.094A2.417,2.417,0,0,1,38.34,9.75a3.2,3.2,0,0,1,1.1-.984,3.242,3.242,0,0,1,1.6-.375q2.781,0,2.828,2.945V17H42.418V11.422A1.941,1.941,0,0,0,42,10.066a1.823,1.823,0,0,0-1.391-.449,1.917,1.917,0,0,0-1.336.48,1.949,1.949,0,0,0-.617,1.293V17H37.207V11.461a1.613,1.613,0,0,0-1.8-1.844,1.934,1.934,0,0,0-1.945,1.211V17H32.012V8.547ZM45.66,12.7a4.993,4.993,0,0,1,.488-2.234A3.643,3.643,0,0,1,47.508,8.93,3.7,3.7,0,0,1,49.5,8.391a3.565,3.565,0,0,1,2.793,1.2,4.6,4.6,0,0,1,1.066,3.18v.1a5.036,5.036,0,0,1-.473,2.215,3.589,3.589,0,0,1-1.352,1.527,3.743,3.743,0,0,1-2.02.547,3.556,3.556,0,0,1-2.785-1.2A4.575,4.575,0,0,1,45.66,12.8Zm1.453.172a3.616,3.616,0,0,0,.652,2.258,2.211,2.211,0,0,0,3.5-.012A3.955,3.955,0,0,0,51.91,12.7a3.61,3.61,0,0,0-.66-2.254A2.1,2.1,0,0,0,49.5,9.578a2.075,2.075,0,0,0-1.727.852A3.925,3.925,0,0,0,47.113,12.867ZM60.09,14.758a1.064,1.064,0,0,0-.441-.91,4.249,4.249,0,0,0-1.539-.559,7.277,7.277,0,0,1-1.742-.562,2.479,2.479,0,0,1-.953-.781,1.869,1.869,0,0,1-.309-1.078,2.193,2.193,0,0,1,.879-1.758,3.432,3.432,0,0,1,2.246-.719,3.532,3.532,0,0,1,2.332.742,2.357,2.357,0,0,1,.895,1.9H60a1.3,1.3,0,0,0-.5-1.023,1.888,1.888,0,0,0-1.27-.43A1.976,1.976,0,0,0,57,9.922a1.082,1.082,0,0,0-.445.9.877.877,0,0,0,.414.789,5.1,5.1,0,0,0,1.5.508,7.8,7.8,0,0,1,1.754.578,2.558,2.558,0,0,1,1,.809,1.988,1.988,0,0,1,.324,1.152,2.163,2.163,0,0,1-.906,1.816,3.8,3.8,0,0,1-2.352.684,4.257,4.257,0,0,1-1.8-.359,2.922,2.922,0,0,1-1.223-1,2.42,2.42,0,0,1-.441-1.395h1.445a1.5,1.5,0,0,0,.582,1.152,2.258,2.258,0,0,0,1.434.426,2.331,2.331,0,0,0,1.316-.332A1.02,1.02,0,0,0,60.09,14.758Z" transform="translate(516.5 1091.5)" fill="#12263f"/>
      <path id="Trazado_114637" data-name="Trazado 114637" d="M14.445,5.625l3.719,9.281,3.719-9.281h1.945V17h-1.5V12.57l.141-4.781L18.734,17H17.586L13.859,7.813l.148,4.758V17h-1.5V5.625ZM31.469,17a3.036,3.036,0,0,1-.2-.891,3.225,3.225,0,0,1-2.406,1.047,2.984,2.984,0,0,1-2.051-.707,2.287,2.287,0,0,1-.8-1.793,2.39,2.39,0,0,1,1-2.051,4.733,4.733,0,0,1,2.824-.73h1.406v-.664A1.623,1.623,0,0,0,30.789,10a1.821,1.821,0,0,0-1.336-.449,2.107,2.107,0,0,0-1.3.391,1.151,1.151,0,0,0-.523.945H26.18a2,2,0,0,1,.449-1.223,3.066,3.066,0,0,1,1.219-.934,4.1,4.1,0,0,1,1.691-.344,3.342,3.342,0,0,1,2.289.73,2.635,2.635,0,0,1,.859,2.012v3.891a4.757,4.757,0,0,0,.3,1.852V17Zm-2.4-1.1a2.54,2.54,0,0,0,1.289-.352,2.127,2.127,0,0,0,.883-.914V12.9H30.109q-2.656,0-2.656,1.555a1.316,1.316,0,0,0,.453,1.063A1.742,1.742,0,0,0,29.07,15.9Zm7.25-7.352.047,1.063A3.08,3.08,0,0,1,38.9,8.391q2.68,0,2.7,3.023V17H40.156V11.406a1.946,1.946,0,0,0-.418-1.352,1.675,1.675,0,0,0-1.277-.437,2.086,2.086,0,0,0-1.234.375,2.546,2.546,0,0,0-.828.984V17H34.953V8.547ZM43.4,12.7a4.993,4.993,0,0,1,.488-2.234A3.643,3.643,0,0,1,45.246,8.93a3.7,3.7,0,0,1,1.988-.539,3.565,3.565,0,0,1,2.793,1.2,4.6,4.6,0,0,1,1.066,3.18v.1a5.036,5.036,0,0,1-.473,2.215,3.589,3.589,0,0,1-1.352,1.527,3.743,3.743,0,0,1-2.02.547,3.556,3.556,0,0,1-2.785-1.2A4.575,4.575,0,0,1,43.4,12.8Zm1.453.172a3.616,3.616,0,0,0,.652,2.258,2.211,2.211,0,0,0,3.5-.012,3.955,3.955,0,0,0,.648-2.418,3.61,3.61,0,0,0-.66-2.254,2.1,2.1,0,0,0-1.754-.863,2.075,2.075,0,0,0-1.727.852A3.925,3.925,0,0,0,44.852,12.867ZM5.559,29.7a4.952,4.952,0,0,1,.922-3.129,2.915,2.915,0,0,1,2.414-1.184,2.932,2.932,0,0,1,2.352,1.016V22h1.445V34H11.363l-.07-.906a2.943,2.943,0,0,1-2.414,1.063,2.887,2.887,0,0,1-2.395-1.2,5.008,5.008,0,0,1-.926-3.141ZM7,29.867a3.749,3.749,0,0,0,.594,2.25,1.92,1.92,0,0,0,1.641.813A2.108,2.108,0,0,0,11.246,31.7V27.813a2.125,2.125,0,0,0-1.992-1.2,1.929,1.929,0,0,0-1.656.82A4.128,4.128,0,0,0,7,29.867Zm11.438,4.289a3.693,3.693,0,0,1-2.8-1.129,4.19,4.19,0,0,1-1.078-3.02v-.266a5.073,5.073,0,0,1,.48-2.246,3.748,3.748,0,0,1,1.344-1.547,3.378,3.378,0,0,1,1.871-.559,3.166,3.166,0,0,1,2.563,1.086,4.7,4.7,0,0,1,.914,3.109v.6H16.012a3,3,0,0,0,.73,2.02,2.3,2.3,0,0,0,1.777.77,2.517,2.517,0,0,0,1.3-.312,3.259,3.259,0,0,0,.93-.828l.883.688A3.55,3.55,0,0,1,18.441,34.156Zm-.18-7.578a1.928,1.928,0,0,0-1.469.637A3.1,3.1,0,0,0,16.059,29h4.234v-.109a2.753,2.753,0,0,0-.594-1.707A1.815,1.815,0,0,0,18.262,26.578ZM26.988,29.7a4.993,4.993,0,0,1,.488-2.234,3.643,3.643,0,0,1,1.359-1.531,3.7,3.7,0,0,1,1.988-.539,3.565,3.565,0,0,1,2.793,1.2,4.6,4.6,0,0,1,1.066,3.18v.1a5.036,5.036,0,0,1-.473,2.215,3.589,3.589,0,0,1-1.352,1.527,3.743,3.743,0,0,1-2.02.547,3.556,3.556,0,0,1-2.785-1.2A4.575,4.575,0,0,1,26.988,29.8Zm1.453.172a3.616,3.616,0,0,0,.652,2.258,2.211,2.211,0,0,0,3.5-.012,3.955,3.955,0,0,0,.648-2.418,3.61,3.61,0,0,0-.66-2.254,2.1,2.1,0,0,0-1.754-.863,2.075,2.075,0,0,0-1.727.852A3.925,3.925,0,0,0,28.441,29.867Zm15.211,0a5.026,5.026,0,0,1-.891,3.113,2.846,2.846,0,0,1-2.391,1.176,2.947,2.947,0,0,1-2.477-1.133l-.07.977H36.5V22h1.445v4.477a2.93,2.93,0,0,1,2.414-1.086,2.863,2.863,0,0,1,2.418,1.164,5.177,5.177,0,0,1,.879,3.188ZM42.207,29.7a3.906,3.906,0,0,0-.57-2.281,1.888,1.888,0,0,0-1.641-.8,2.122,2.122,0,0,0-2.055,1.328V31.6a2.181,2.181,0,0,0,2.07,1.328,1.878,1.878,0,0,0,1.617-.8A4.153,4.153,0,0,0,42.207,29.7Zm7.352-2.859a4.331,4.331,0,0,0-.711-.055A1.9,1.9,0,0,0,46.918,28v6H45.473V25.547h1.406l.023.977a2.251,2.251,0,0,1,2.016-1.133,1.477,1.477,0,0,1,.641.109ZM55.793,34a3.036,3.036,0,0,1-.2-.891,3.225,3.225,0,0,1-2.406,1.047,2.984,2.984,0,0,1-2.051-.707,2.287,2.287,0,0,1-.8-1.793,2.39,2.39,0,0,1,1-2.051,4.733,4.733,0,0,1,2.824-.73h1.406v-.664A1.623,1.623,0,0,0,55.113,27a1.821,1.821,0,0,0-1.336-.449,2.107,2.107,0,0,0-1.3.391,1.151,1.151,0,0,0-.523.945H50.5a2,2,0,0,1,.449-1.223,3.066,3.066,0,0,1,1.219-.934,4.1,4.1,0,0,1,1.691-.344,3.342,3.342,0,0,1,2.289.73,2.635,2.635,0,0,1,.859,2.012v3.891a4.757,4.757,0,0,0,.3,1.852V34Zm-2.4-1.1a2.54,2.54,0,0,0,1.289-.352,2.127,2.127,0,0,0,.883-.914V29.9H54.434q-2.656,0-2.656,1.555a1.316,1.316,0,0,0,.453,1.063A1.742,1.742,0,0,0,53.395,32.9Z" transform="translate(593.5 901.986)" fill="#12263f"/>
    </g>
    <g id="Grupo_58000" data-name="Grupo 58000" transform="translate(447.5 -3964.5)">
      <rect id="Rectángulo_6806" data-name="Rectángulo 6806" width="99" height="99" transform="translate(305 4991)" fill="none"/>
      <g id="concept" transform="translate(312.5 4998.5)">
        <path id="Trazado_112693" data-name="Trazado 112693" d="M57.246,10H13.281A3.281,3.281,0,0,0,10,13.281V87.438a3.281,3.281,0,0,0,3.281,3.281H69.715A3.281,3.281,0,0,0,73,87.438V25.75Z" transform="translate(-8.359 -8.359)" fill="#fff"/>
        <path id="Trazado_112694" data-name="Trazado 112694" d="M301.256,25.752h12.469L297.975,10V22.471A3.281,3.281,0,0,0,301.256,25.752Z" transform="translate(-249.089 -8.361)" fill="#feda9b"/>
        <g id="Grupo_58002" data-name="Grupo 58002" transform="translate(10.826 36.412)">
          <rect id="Rectángulo_6928" data-name="Rectángulo 6928" width="18.337" height="15.75" fill="#72d8ff"/>
          <rect id="Rectángulo_6929" data-name="Rectángulo 6929" width="18.337" height="15.75" transform="translate(26.288 23.625)" fill="#72d8ff"/>
        </g>
        <rect id="Rectángulo_6930" data-name="Rectángulo 6930" width="31.498" height="12.469" transform="translate(10.826 8.203)" fill="#ff5d5d"/>
        <path id="Trazado_112695" data-name="Trazado 112695" d="M438,115.269V66.277A2.277,2.277,0,0,1,440.277,64h5.947a2.277,2.277,0,0,1,2.277,2.277v48.992Z" transform="translate(-366.141 -53.5)" fill="#4dbaf6"/>
        <path id="Trazado_112696" data-name="Trazado 112696" d="M448.5,71.615V66.277A2.277,2.277,0,0,0,446.224,64h-5.947A2.277,2.277,0,0,0,438,66.277v5.338h10.5Z" transform="translate(-366.141 -53.5)" fill="#ffb954"/>
        <path id="Trazado_112697" data-name="Trazado 112697" d="M443.25,388.226,438,376.495h10.5Z" transform="translate(-366.141 -314.726)" fill="#d8d8e4"/>
        <path id="Trazado_112698" data-name="Trazado 112698" d="M102.253,164H57.628a1.641,1.641,0,0,0,0,3.281h44.625a1.641,1.641,0,0,0,0-3.281Z" transform="translate(-46.802 -137.094)"/>
        <path id="Trazado_112699" data-name="Trazado 112699" d="M236.2,259.938H217.86a1.641,1.641,0,0,0,0,3.281H236.2a1.641,1.641,0,1,0,0-3.281Z" transform="translate(-180.746 -217.292)"/>
        <path id="Trazado_112700" data-name="Trazado 112700" d="M236.2,211.938H217.86a1.641,1.641,0,0,0,0,3.281H236.2a1.641,1.641,0,0,0,0-3.281Z" transform="translate(-180.746 -177.167)"/>
        <path id="Trazado_112701" data-name="Trazado 112701" d="M236.2,307.938H217.86a1.641,1.641,0,0,0,0,3.281H236.2a1.641,1.641,0,1,0,0-3.281Z" transform="translate(-180.746 -257.417)"/>
        <path id="Trazado_112702" data-name="Trazado 112702" d="M75.965,211.938H57.628a1.641,1.641,0,0,0-1.641,1.641v15.75a1.641,1.641,0,0,0,1.641,1.641H75.965a1.641,1.641,0,0,0,1.641-1.641v-15.75A1.641,1.641,0,0,0,75.965,211.938Zm-1.641,15.75H59.268V215.219H74.324Z" transform="translate(-46.802 -177.167)"/>
        <path id="Trazado_112703" data-name="Trazado 112703" d="M75.965,403.938H57.628a1.641,1.641,0,0,0,0,3.281H75.965a1.641,1.641,0,0,0,0-3.281Z" transform="translate(-46.802 -337.667)"/>
        <path id="Trazado_112704" data-name="Trazado 112704" d="M57.631,451.939a1.642,1.642,0,1,0,1.16.481A1.659,1.659,0,0,0,57.631,451.939Z" transform="translate(-46.804 -377.793)"/>
        <path id="Trazado_112705" data-name="Trazado 112705" d="M113.593,451.938H102.641a1.641,1.641,0,0,0,0,3.281h10.952a1.641,1.641,0,1,0,0-3.281Z" transform="translate(-84.43 -377.792)"/>
        <path id="Trazado_112706" data-name="Trazado 112706" d="M75.965,355.938H57.628a1.641,1.641,0,0,0,0,3.281H75.965a1.641,1.641,0,0,0,0-3.281Z" transform="translate(-46.802 -297.542)"/>
        <path id="Trazado_112707" data-name="Trazado 112707" d="M236.2,355.938H217.86a1.641,1.641,0,0,0-1.641,1.641v15.75a1.641,1.641,0,0,0,1.641,1.641H236.2a1.641,1.641,0,0,0,1.641-1.641v-15.75A1.641,1.641,0,0,0,236.2,355.938Zm-1.641,15.75H219.5V359.219h15.056Z" transform="translate(-180.746 -297.542)"/>
        <path id="Trazado_112708" data-name="Trazado 112708" d="M50.047.481A1.641,1.641,0,0,0,48.887,0H4.922A4.927,4.927,0,0,0,0,4.922V79.078A4.927,4.927,0,0,0,4.922,84H61.355a4.927,4.927,0,0,0,4.922-4.922V17.391a1.641,1.641,0,0,0-.481-1.16ZM50.527,5.6,60.676,15.75H52.168a1.642,1.642,0,0,1-1.641-1.641ZM61.355,80.719H4.922a1.642,1.642,0,0,1-1.641-1.641V4.922A1.642,1.642,0,0,1,4.922,3.281H47.246V14.11a4.927,4.927,0,0,0,4.922,4.922H63V79.078A1.642,1.642,0,0,1,61.355,80.719Z"/>
        <path id="Trazado_112709" data-name="Trazado 112709" d="M57.628,55.75h31.5a1.641,1.641,0,0,0,1.641-1.641V41.641A1.641,1.641,0,0,0,89.125,40h-31.5a1.641,1.641,0,0,0-1.641,1.641V54.109A1.641,1.641,0,0,0,57.628,55.75Zm1.641-12.469H87.485v9.187H59.268Z" transform="translate(-46.802 -33.438)"/>
        <path id="Trazado_112710" data-name="Trazado 112710" d="M429.641,227.281a1.641,1.641,0,1,0-1.16-.481A1.653,1.653,0,0,0,429.641,227.281Z" transform="translate(-357.781 -187.25)"/>
        <path id="Trazado_112711" data-name="Trazado 112711" d="M437.864,54h-5.947A3.922,3.922,0,0,0,428,57.917v18.45a1.641,1.641,0,0,0,3.281,0V64.9H438.5v40.373h-7.219V90.127a1.641,1.641,0,0,0-3.281,0v16.783a1.638,1.638,0,0,0,.143.67l5.25,11.731a1.64,1.64,0,0,0,2.995,0l5.25-11.731a1.641,1.641,0,0,0,.143-.67V57.917A3.922,3.922,0,0,0,437.864,54Zm-6.583,7.615v-3.7a.637.637,0,0,1,.636-.636h5.947a.637.637,0,0,1,.636.636v3.7Zm3.609,53.01-2.718-6.074h5.437Z" transform="translate(-357.781 -45.141)"/>
      </g>
    </g>
  </g>
</svg>
