<svg xmlns="http://www.w3.org/2000/svg" width="99" height="99" viewBox="0 0 99 99">
  <g id="Grupo_57948" data-name="Grupo 57948" transform="translate(-305 -4991)">
    <rect id="Rectángulo_6806" data-name="Rectángulo 6806" width="99" height="99" transform="translate(305 4991)" fill="none"/>
    <g id="clipboard" transform="translate(239.959 4997.5)">
      <g id="Grupo_57946" data-name="Grupo 57946" transform="translate(87.244 1.26)">
        <path id="Trazado_111959" data-name="Trazado 111959" d="M142.2,131.528H96a2.52,2.52,0,0,1-2.52-2.52V58.753A2.52,2.52,0,0,1,96,56.233h46.2a2.52,2.52,0,0,1,2.52,2.52v70.256A2.519,2.519,0,0,1,142.2,131.528Z" transform="translate(-93.484 -48.047)" fill="#d1a08f"/>
        <path id="Trazado_111960" data-name="Trazado 111960" d="M375.779,58.75v70.256a2.52,2.52,0,0,1-2.52,2.52H367.15a2.52,2.52,0,0,0,2.52-2.52V58.75a2.52,2.52,0,0,0-2.52-2.52h6.109A2.52,2.52,0,0,1,375.779,58.75Z" transform="translate(-321.183 -48.045)" fill="#c68d7a"/>
        <path id="Trazado_111961" data-name="Trazado 111961" d="M168.869,92.34v51.823a1.68,1.68,0,0,1-.492,1.188l-5.189,8.548a1.68,1.68,0,0,1-1.188.492H131.53a1.68,1.68,0,0,1-1.68-1.68V92.34a1.679,1.679,0,0,1,1.68-1.68h35.66A1.679,1.679,0,0,1,168.869,92.34Z" transform="translate(-123.742 -76.692)" fill="#f9f7f8"/>
        <path id="Trazado_111962" data-name="Trazado 111962" d="M348.869,92.34v51.823a1.68,1.68,0,0,1-.128.642c-.084.2-.375.387-.532.545l-4.379,2.867V92.34a1.679,1.679,0,0,0-1.68-1.68h5.039a1.679,1.679,0,0,1,1.68,1.68Z" transform="translate(-300.382 -76.692)" fill="#efedef"/>
        <path id="Trazado_111963" data-name="Trazado 111963" d="M194.663,13.332a1.7,1.7,0,0,1-1.669-1.3,5.833,5.833,0,0,0-11.372,0,1.7,1.7,0,0,1-1.669,1.3h-4.833a1.68,1.68,0,0,0-1.68,1.68v7.922a1.68,1.68,0,0,0,1.68,1.68h21.016a1.68,1.68,0,0,0,1.68-1.68V15.011a1.68,1.68,0,0,0-1.68-1.68Z" transform="translate(-160.011 -7.5)" fill="#ffe177"/>
        <path id="Trazado_111964" data-name="Trazado 111964" d="M303.2,43.9v7.921a1.679,1.679,0,0,1-1.68,1.68H296.06a1.679,1.679,0,0,0,1.68-1.68v-9.6h3.779A1.68,1.68,0,0,1,303.2,43.9Z" transform="translate(-262.034 -36.388)" fill="#ffd15b"/>
        <path id="Trazado_111965" data-name="Trazado 111965" d="M334.781,413.33a1.669,1.669,0,0,1-.341.492l-8.548,8.548a1.669,1.669,0,0,1-.492.341v-7.7a1.68,1.68,0,0,1,1.68-1.68Z" transform="translate(-286.445 -345.163)" fill="#ff6a7e"/>
        <g id="Grupo_57945" data-name="Grupo 57945" transform="translate(13.43 26.82)">
          <path id="Trazado_111966" data-name="Trazado 111966" d="M180.76,175.328h-6.478a.84.84,0,0,1-.84-.84V168.01a.84.84,0,0,1,.84-.84h6.478a.84.84,0,0,1,.84.84v6.478A.84.84,0,0,1,180.76,175.328Z" transform="translate(-173.442 -167.17)" fill="#ff8692"/>
          <path id="Trazado_111967" data-name="Trazado 111967" d="M180.76,273.9h-6.478a.84.84,0,0,1-.84-.84v-6.478a.84.84,0,0,1,.84-.84h6.478a.84.84,0,0,1,.84.84v6.478A.84.84,0,0,1,180.76,273.9Z" transform="translate(-173.442 -249.182)" fill="#ff8692"/>
          <path id="Trazado_111968" data-name="Trazado 111968" d="M180.76,372.464h-6.478a.84.84,0,0,1-.84-.84v-6.478a.84.84,0,0,1,.84-.84h6.478a.84.84,0,0,1,.84.84v6.478A.84.84,0,0,1,180.76,372.464Z" transform="translate(-173.442 -331.193)" fill="#ff8692"/>
        </g>
      </g>
      <g id="Grupo_57947" data-name="Grupo 57947" transform="translate(85.984 0)">
        <path id="Trazado_111969" data-name="Trazado 111969" d="M141.839,26.594a1.26,1.26,0,0,0,1.26-1.26V11.965a3.783,3.783,0,0,0-3.779-3.779h-9.71a2.944,2.944,0,0,0-2.881-2.354H121.9a.442.442,0,0,1-.441-.321,7.093,7.093,0,0,0-13.829,0,.442.442,0,0,1-.441.321h-4.833a2.944,2.944,0,0,0-2.88,2.354h-9.71a3.783,3.783,0,0,0-3.779,3.779V82.221A3.783,3.783,0,0,0,89.763,86h49.556a3.783,3.783,0,0,0,3.779-3.779v-51.4a1.26,1.26,0,0,0-2.52,0v51.4a1.261,1.261,0,0,1-1.26,1.26H89.763a1.261,1.261,0,0,1-1.26-1.26V11.965a1.261,1.261,0,0,1,1.26-1.26h9.651v3.263H95.032a2.943,2.943,0,0,0-2.939,2.939V55.059a1.26,1.26,0,0,0,2.52,0V16.908a.42.42,0,0,1,.42-.42h4.383v.205a2.943,2.943,0,0,0,2.939,2.939h13.4a1.26,1.26,0,0,0,0-2.52h-13.4a.421.421,0,0,1-.42-.42V8.771a.421.421,0,0,1,.42-.42h4.833a2.979,2.979,0,0,0,2.9-2.281,4.574,4.574,0,0,1,8.915,0,2.979,2.979,0,0,0,2.9,2.281h4.833a.421.421,0,0,1,.42.42v7.922a.421.421,0,0,1-.42.42h-5.482a1.26,1.26,0,0,0,0,2.52h5.482a2.943,2.943,0,0,0,2.939-2.939v-.205h4.383a.42.42,0,0,1,.42.42V68.167h-6.593a2.943,2.943,0,0,0-2.939,2.939V77.7H95.032a.421.421,0,0,1-.42-.42V60.549a1.26,1.26,0,0,0-2.52,0v16.73a2.943,2.943,0,0,0,2.939,2.939H125.5a2.92,2.92,0,0,0,2.078-.861l8.548-8.548a2.92,2.92,0,0,0,.861-2.079V16.908a2.943,2.943,0,0,0-2.939-2.939h-4.383V10.7h9.651a1.261,1.261,0,0,1,1.26,1.26V25.334a1.26,1.26,0,0,0,1.26,1.26ZM127.458,75.918V71.106a.421.421,0,0,1,.42-.42h4.811Z" transform="translate(-85.984 0)"/>
        <path id="Trazado_111970" data-name="Trazado 111970" d="M251.02,34.993a1.26,1.26,0,1,0-1.26,1.26A1.26,1.26,0,0,0,251.02,34.993Z" transform="translate(-221.202 -28.067)"/>
        <path id="Trazado_111971" data-name="Trazado 111971" d="M205.942,73.181a1.26,1.26,0,0,0,1.26,1.26h14.3a1.26,1.26,0,1,0,0-2.52H207.2A1.26,1.26,0,0,0,205.942,73.181Z" transform="translate(-185.793 -59.841)"/>
        <path id="Trazado_111972" data-name="Trazado 111972" d="M168.042,170.348h6.478a2.1,2.1,0,0,0,2.1-2.1V161.77a2.1,2.1,0,0,0-2.1-2.1h-6.478a2.1,2.1,0,0,0-2.1,2.1v6.478A2.1,2.1,0,0,0,168.042,170.348Zm.42-8.158H174.1v5.639h-5.639Z" transform="translate(-152.512 -132.85)"/>
        <path id="Trazado_111973" data-name="Trazado 111973" d="M165.942,266.816a2.1,2.1,0,0,0,2.1,2.1h6.478a2.1,2.1,0,0,0,2.1-2.1v-6.478a2.1,2.1,0,0,0-2.1-2.1h-6.478a2.1,2.1,0,0,0-2.1,2.1Zm2.52-6.058H174.1V266.4h-5.639Z" transform="translate(-152.512 -214.862)"/>
        <path id="Trazado_111974" data-name="Trazado 111974" d="M165.942,365.384a2.1,2.1,0,0,0,2.1,2.1h6.478a2.1,2.1,0,0,0,2.1-2.1v-6.478a2.1,2.1,0,0,0-2.1-2.1h-6.478a2.1,2.1,0,0,0-2.1,2.1Zm2.52-6.058H174.1v5.638h-5.639Z" transform="translate(-152.512 -296.874)"/>
        <path id="Trazado_111975" data-name="Trazado 111975" d="M257.26,171.332h10.8a1.26,1.26,0,0,0,0-2.52h-10.8a1.26,1.26,0,0,0,0,2.52Z" transform="translate(-227.443 -140.457)"/>
        <path id="Trazado_111976" data-name="Trazado 111976" d="M257.26,201.617h5.4a1.26,1.26,0,0,0,0-2.52h-5.4a1.26,1.26,0,0,0,0,2.52Z" transform="translate(-227.443 -165.655)"/>
        <path id="Trazado_111977" data-name="Trazado 111977" d="M257.26,269.9h10.8a1.26,1.26,0,0,0,0-2.52h-10.8a1.26,1.26,0,0,0,0,2.52Z" transform="translate(-227.443 -222.469)"/>
        <path id="Trazado_111978" data-name="Trazado 111978" d="M257.26,300.185h10.8a1.26,1.26,0,0,0,0-2.52h-10.8a1.26,1.26,0,0,0,0,2.52Z" transform="translate(-227.443 -247.667)"/>
        <path id="Trazado_111979" data-name="Trazado 111979" d="M257.26,368.468h10.8a1.26,1.26,0,0,0,0-2.52h-10.8a1.26,1.26,0,0,0,0,2.52Z" transform="translate(-227.443 -304.48)"/>
        <path id="Trazado_111980" data-name="Trazado 111980" d="M257.26,398.752h5.4a1.26,1.26,0,0,0,0-2.52h-5.4a1.26,1.26,0,0,0,0,2.52Z" transform="translate(-227.443 -329.677)"/>
      </g>
    </g>
  </g>
</svg>
