<svg xmlns="http://www.w3.org/2000/svg" width="1030" height="314.513" viewBox="0 0 1030 314.513">
  <g id="Grupo_62697" data-name="Grupo 62697" transform="translate(-285 -5272.36)">
    <g id="Image_Place_Holder" data-name="Image Place Holder" transform="translate(285 5272.36)" opacity="0.2">
      <rect id="Image_Place_Holder-2" data-name="Image Place Holder" width="190" height="314.513" rx="10" fill="#0ac4bf"/>
    </g>
    <g id="Image_Place_Holder-3" data-name="Image Place Holder" transform="translate(495 5272.36)" opacity="0.35">
      <rect id="Image_Place_Holder-4" data-name="Image Place Holder" width="190" height="314.513" rx="10" fill="#0ac4bf"/>
    </g>
    <g id="Image_Place_Holder-5" data-name="Image Place Holder" transform="translate(705 5272.36)" opacity="0.2">
      <rect id="Image_Place_Holder-6" data-name="Image Place Holder" width="190" height="314.513" rx="10" fill="#0ac4bf"/>
    </g>
    <g id="Image_Place_Holder-7" data-name="Image Place Holder" transform="translate(1125 5272.36)" opacity="0.2">
      <rect id="Image_Place_Holder-8" data-name="Image Place Holder" width="190" height="314.513" rx="10" fill="#0ac4bf"/>
    </g>
    <g id="Image_Place_Holder-9" data-name="Image Place Holder" transform="translate(915 5272.36)" opacity="0.35">
      <rect id="Image_Place_Holder-10" data-name="Image Place Holder" width="190" height="314.513" rx="10" fill="#0ac4bf"/>
    </g>
    <path id="Trazado_114608" data-name="Trazado 114608" d="M10.172,15.594A4.409,4.409,0,0,1,8.32,16.727a7.986,7.986,0,0,1-2.672.43,4.764,4.764,0,0,1-3.57-1.367,5.534,5.534,0,0,1-1.43-3.8L.641,11a6.788,6.788,0,0,1,.594-2.934,4.409,4.409,0,0,1,1.7-1.93,4.807,4.807,0,0,1,2.559-.676,5.039,5.039,0,0,1,3.3.973,4.121,4.121,0,0,1,1.371,2.9H7.523a2.157,2.157,0,0,0-.609-1.359A1.966,1.966,0,0,0,5.586,7.57a1.789,1.789,0,0,0-1.594.875,4.672,4.672,0,0,0-.57,2.5v.688A4.574,4.574,0,0,0,4,14.191a2.059,2.059,0,0,0,1.832.855A2.3,2.3,0,0,0,7.43,14.57V12.8H5.523V10.922h4.648Zm5.563,1.563A4.345,4.345,0,0,1,12.586,16a4.006,4.006,0,0,1-1.2-3.02v-.219a5.191,5.191,0,0,1,.48-2.289,3.516,3.516,0,0,1,1.4-1.535,4.233,4.233,0,0,1,2.188-.543A3.659,3.659,0,0,1,18.266,9.5,4.344,4.344,0,0,1,19.3,12.578V13.6H14.063a1.9,1.9,0,0,0,.617,1.117,1.836,1.836,0,0,0,1.234.406,2.366,2.366,0,0,0,1.953-.875l1.2,1.422a3.363,3.363,0,0,1-1.395,1.082A4.713,4.713,0,0,1,15.734,17.156Zm-.3-6.734q-1.156,0-1.375,1.531h2.656v-.2a1.3,1.3,0,0,0-.32-.98A1.275,1.275,0,0,0,15.438,10.422Zm9.344,4.2a.608.608,0,0,0-.352-.539,5.348,5.348,0,0,0-1.336-.422,6.092,6.092,0,0,1-1.625-.574,2.722,2.722,0,0,1-.977-.863,2.061,2.061,0,0,1-.336-1.164,2.336,2.336,0,0,1,.961-1.918,3.958,3.958,0,0,1,2.516-.754,4.386,4.386,0,0,1,2.688.758,2.37,2.37,0,0,1,1.016,1.992H24.7q0-1.016-1.07-1.016a1.061,1.061,0,0,0-.7.23.714.714,0,0,0-.281.574.655.655,0,0,0,.344.57,3.248,3.248,0,0,0,1.1.359,9.486,9.486,0,0,1,1.324.336,2.406,2.406,0,0,1,1.906,2.352,2.214,2.214,0,0,1-1.027,1.883,4.505,4.505,0,0,1-2.66.727,4.6,4.6,0,0,1-1.937-.391A3.24,3.24,0,0,1,20.367,15.7a2.406,2.406,0,0,1-.477-1.414h2.461a1.017,1.017,0,0,0,.391.855,1.607,1.607,0,0,0,.961.27,1.264,1.264,0,0,0,.809-.219A.7.7,0,0,0,24.781,14.625Zm6.836-8.18v2.1h1.391v1.828H31.617v3.867a.987.987,0,0,0,.172.664.922.922,0,0,0,.68.188,3.862,3.862,0,0,0,.656-.047V16.93a4.859,4.859,0,0,1-1.484.227,2.758,2.758,0,0,1-2.008-.641,2.626,2.626,0,0,1-.648-1.945v-4.2H27.906V8.547h1.078v-2.1ZM36.82,17H34.18V8.547H36.82Zm-2.8-10.633a1.175,1.175,0,0,1,.406-.922,1.727,1.727,0,0,1,2.109,0,1.175,1.175,0,0,1,.406.922,1.175,1.175,0,0,1-.406.922,1.727,1.727,0,0,1-2.109,0A1.175,1.175,0,0,1,34.023,6.367ZM38.109,12.7a4.989,4.989,0,0,1,.492-2.254,3.52,3.52,0,0,1,1.414-1.52,4.259,4.259,0,0,1,2.164-.531,3.887,3.887,0,0,1,2.992,1.176,4.512,4.512,0,0,1,1.094,3.2v.094A4.378,4.378,0,0,1,45.168,16a3.9,3.9,0,0,1-2.973,1.16,3.942,3.942,0,0,1-2.9-1.082,4.232,4.232,0,0,1-1.18-2.934Zm2.633.164a3.145,3.145,0,0,0,.367,1.719,1.223,1.223,0,0,0,1.086.547q1.406,0,1.438-2.164V12.7q0-2.273-1.453-2.273-1.32,0-1.43,1.961ZM42.539,5H45.32L43.148,7.453,41,7.449Zm7.3,3.547.086.992a2.867,2.867,0,0,1,2.414-1.148,2.412,2.412,0,0,1,1.973.789,3.757,3.757,0,0,1,.676,2.375V17H52.352V11.664a1.426,1.426,0,0,0-.258-.941,1.193,1.193,0,0,0-.937-.3,1.256,1.256,0,0,0-1.148.609V17H47.375V8.547Zm14.164,6.578a1.171,1.171,0,0,0,.859-.3,1.1,1.1,0,0,0,.3-.84h2.469a2.922,2.922,0,0,1-1,2.281,3.705,3.705,0,0,1-2.566.891A3.751,3.751,0,0,1,61.164,16,4.556,4.556,0,0,1,60.1,12.8v-.109a5.149,5.149,0,0,1,.473-2.262,3.441,3.441,0,0,1,1.363-1.508,4.065,4.065,0,0,1,2.109-.527,3.658,3.658,0,0,1,2.617.914,3.242,3.242,0,0,1,.969,2.477H65.164a1.445,1.445,0,0,0-.32-1.008,1.106,1.106,0,0,0-.859-.352q-1.023,0-1.2,1.3a9.206,9.206,0,0,0-.055,1.141,3.616,3.616,0,0,0,.3,1.766A1.055,1.055,0,0,0,64.008,15.125Zm4.406-2.43a4.989,4.989,0,0,1,.492-2.254,3.52,3.52,0,0,1,1.414-1.52,4.259,4.259,0,0,1,2.164-.531,3.887,3.887,0,0,1,2.992,1.176,4.512,4.512,0,0,1,1.094,3.2v.094A4.378,4.378,0,0,1,75.473,16a3.9,3.9,0,0,1-2.973,1.16,3.942,3.942,0,0,1-2.9-1.082,4.232,4.232,0,0,1-1.18-2.934Zm2.633.164a3.145,3.145,0,0,0,.367,1.719,1.223,1.223,0,0,0,1.086.547q1.406,0,1.438-2.164V12.7q0-2.273-1.453-2.273-1.32,0-1.43,1.961Zm9.1-4.312.086.992a2.867,2.867,0,0,1,2.414-1.148,2.412,2.412,0,0,1,1.973.789,3.757,3.757,0,0,1,.676,2.375V17H82.656V11.664a1.426,1.426,0,0,0-.258-.941,1.193,1.193,0,0,0-.937-.3,1.256,1.256,0,0,0-1.148.609V17H77.68V8.547ZM8.586,30.836A5.1,5.1,0,0,1,7.7,33.98,2.843,2.843,0,0,1,5.3,35.156,2.437,2.437,0,0,1,3.391,34.3V38.25H.758v-11.7H3.219l.078.781a2.437,2.437,0,0,1,1.992-.937,2.866,2.866,0,0,1,2.43,1.152,5.16,5.16,0,0,1,.867,3.168Zm-2.633-.164q0-2.25-1.312-2.25a1.239,1.239,0,0,0-1.25.672v3.328a1.279,1.279,0,0,0,1.266.7q1.258,0,1.3-2.172Zm8.906-1.742-.867-.062a1.558,1.558,0,0,0-1.594.781V35H9.766V26.547h2.469l.086,1.086a2.039,2.039,0,0,1,1.852-1.242,2.567,2.567,0,0,1,.734.094ZM15.2,30.7a4.989,4.989,0,0,1,.492-2.254,3.52,3.52,0,0,1,1.414-1.52,4.259,4.259,0,0,1,2.164-.531,3.887,3.887,0,0,1,2.992,1.176,4.512,4.512,0,0,1,1.094,3.2v.094A4.378,4.378,0,0,1,22.254,34a3.9,3.9,0,0,1-2.973,1.16,3.942,3.942,0,0,1-2.9-1.082,4.232,4.232,0,0,1-1.18-2.934Zm2.633.164a3.145,3.145,0,0,0,.367,1.719,1.223,1.223,0,0,0,1.086.547q1.406,0,1.438-2.164V30.7q0-2.273-1.453-2.273-1.32,0-1.43,1.961Zm9.938,1.008,1.336-5.32h2.773L29.117,35H26.43l-2.758-8.453h2.781Zm8.984,3.289A4.345,4.345,0,0,1,33.6,34a4.006,4.006,0,0,1-1.2-3.02v-.219a5.191,5.191,0,0,1,.48-2.289,3.516,3.516,0,0,1,1.4-1.535,4.233,4.233,0,0,1,2.188-.543A3.659,3.659,0,0,1,39.281,27.5a4.344,4.344,0,0,1,1.031,3.082V31.6H35.078a1.9,1.9,0,0,0,.617,1.117,1.836,1.836,0,0,0,1.234.406,2.366,2.366,0,0,0,1.953-.875l1.2,1.422a3.363,3.363,0,0,1-1.395,1.082A4.713,4.713,0,0,1,36.75,35.156Zm-.3-6.734q-1.156,0-1.375,1.531h2.656v-.2a1.3,1.3,0,0,0-.32-.98A1.275,1.275,0,0,0,36.453,28.422Zm9.008,6.734A4.345,4.345,0,0,1,42.313,34a4.006,4.006,0,0,1-1.2-3.02v-.219a5.191,5.191,0,0,1,.48-2.289,3.516,3.516,0,0,1,1.4-1.535,4.233,4.233,0,0,1,2.188-.543A3.659,3.659,0,0,1,47.992,27.5a4.344,4.344,0,0,1,1.031,3.082V31.6H43.789a1.9,1.9,0,0,0,.617,1.117,1.836,1.836,0,0,0,1.234.406,2.366,2.366,0,0,0,1.953-.875l1.2,1.422A3.363,3.363,0,0,1,47.4,34.754,4.713,4.713,0,0,1,45.461,35.156Zm-.3-6.734q-1.156,0-1.375,1.531h2.656v-.2a1.3,1.3,0,0,0-.32-.98A1.275,1.275,0,0,0,45.164,28.422Zm4.586,2.289a5.164,5.164,0,0,1,.867-3.164,2.854,2.854,0,0,1,2.422-1.156,2.428,2.428,0,0,1,1.906.891V23h2.641V35H55.219l-.133-.906a2.493,2.493,0,0,1-2.062,1.063A2.849,2.849,0,0,1,50.633,34,5.327,5.327,0,0,1,49.75,30.711Zm2.633.164q0,2.25,1.313,2.25a1.3,1.3,0,0,0,1.25-.734V29.172a1.261,1.261,0,0,0-1.234-.75q-1.219,0-1.32,1.969Zm6.367-.18a4.989,4.989,0,0,1,.492-2.254,3.52,3.52,0,0,1,1.414-1.52,4.259,4.259,0,0,1,2.164-.531,3.887,3.887,0,0,1,2.992,1.176,4.512,4.512,0,0,1,1.094,3.2v.094A4.378,4.378,0,0,1,65.809,34a3.9,3.9,0,0,1-2.973,1.16,3.942,3.942,0,0,1-2.9-1.082,4.232,4.232,0,0,1-1.18-2.934Zm2.633.164a3.145,3.145,0,0,0,.367,1.719,1.223,1.223,0,0,0,1.086.547q1.406,0,1.438-2.164V30.7q0-2.273-1.453-2.273-1.32,0-1.43,1.961Zm11.8-1.93-.867-.062a1.558,1.558,0,0,0-1.594.781V35H68.086V26.547h2.469l.086,1.086a2.039,2.039,0,0,1,1.852-1.242,2.567,2.567,0,0,1,.734.094Zm5.039,6.227A4.345,4.345,0,0,1,75.07,34a4.006,4.006,0,0,1-1.2-3.02v-.219a5.191,5.191,0,0,1,.48-2.289,3.516,3.516,0,0,1,1.4-1.535,4.233,4.233,0,0,1,2.188-.543A3.659,3.659,0,0,1,80.75,27.5a4.344,4.344,0,0,1,1.031,3.082V31.6H76.547a1.9,1.9,0,0,0,.617,1.117,1.836,1.836,0,0,0,1.234.406,2.366,2.366,0,0,0,1.953-.875l1.2,1.422a3.363,3.363,0,0,1-1.395,1.082A4.713,4.713,0,0,1,78.219,35.156Zm-.3-6.734q-1.156,0-1.375,1.531H79.2v-.2a1.3,1.3,0,0,0-.32-.98A1.275,1.275,0,0,0,77.922,28.422Zm9.344,4.2a.608.608,0,0,0-.352-.539,5.348,5.348,0,0,0-1.336-.422,6.092,6.092,0,0,1-1.625-.574,2.722,2.722,0,0,1-.977-.863,2.061,2.061,0,0,1-.336-1.164,2.336,2.336,0,0,1,.961-1.918,3.958,3.958,0,0,1,2.516-.754,4.386,4.386,0,0,1,2.688.758,2.37,2.37,0,0,1,1.016,1.992H87.18q0-1.016-1.07-1.016a1.061,1.061,0,0,0-.7.23.714.714,0,0,0-.281.574.655.655,0,0,0,.344.57,3.248,3.248,0,0,0,1.1.359A9.486,9.486,0,0,1,87.9,30.2,2.406,2.406,0,0,1,89.8,32.547a2.214,2.214,0,0,1-1.027,1.883,4.505,4.505,0,0,1-2.66.727,4.6,4.6,0,0,1-1.937-.391A3.24,3.24,0,0,1,82.852,33.7a2.406,2.406,0,0,1-.477-1.414h2.461a1.017,1.017,0,0,0,.391.855,1.607,1.607,0,0,0,.961.27A1.264,1.264,0,0,0,87,33.2.7.7,0,0,0,87.266,32.625Z" transform="translate(305 5425.873)" fill="#12263f"/>
    <path id="Trazado_114609" data-name="Trazado 114609" d="M7.32,14.875H3.563L2.906,17H-.023L4.148,5.625H6.727L10.93,17H7.984Zm-3.1-2.117H6.664L5.438,8.813ZM14.414,17H11.773V5h2.641Zm4.109-8.453.086.992a2.906,2.906,0,0,1,2.414-1.148,2.14,2.14,0,0,1,2.164,1.273,2.813,2.813,0,0,1,2.484-1.273q2.57,0,2.641,3.109V17H25.672V11.664a1.611,1.611,0,0,0-.219-.945.931.931,0,0,0-.8-.3,1.247,1.247,0,0,0-1.164.7l.008.109V17H20.859V11.68a1.694,1.694,0,0,0-.211-.961.929.929,0,0,0-.8-.3,1.263,1.263,0,0,0-1.156.7V17H16.055V8.547ZM34.578,17a2.973,2.973,0,0,1-.25-.758,2.448,2.448,0,0,1-2.031.914,3,3,0,0,1-2.031-.723,2.3,2.3,0,0,1-.836-1.816,2.364,2.364,0,0,1,1.016-2.078,5.174,5.174,0,0,1,2.953-.7h.813v-.448q0-1.17-1.008-1.17a.824.824,0,0,0-.937.926H29.633a2.36,2.36,0,0,1,1.043-1.99,4.383,4.383,0,0,1,2.66-.765,3.843,3.843,0,0,1,2.555.789,2.743,2.743,0,0,1,.961,2.164v3.742a3.832,3.832,0,0,0,.359,1.781V17ZM32.93,15.281a1.469,1.469,0,0,0,.816-.211,1.322,1.322,0,0,0,.465-.477V13.242h-.766q-1.375,0-1.375,1.234a.754.754,0,0,0,.242.582A.876.876,0,0,0,32.93,15.281Zm8.953-.156a1.171,1.171,0,0,0,.859-.3,1.1,1.1,0,0,0,.3-.84h2.469a2.922,2.922,0,0,1-1,2.281,3.705,3.705,0,0,1-2.566.891A3.751,3.751,0,0,1,39.039,16a4.556,4.556,0,0,1-1.062-3.2v-.109a5.149,5.149,0,0,1,.473-2.262,3.441,3.441,0,0,1,1.363-1.508,4.065,4.065,0,0,1,2.109-.527,3.658,3.658,0,0,1,2.617.914,3.242,3.242,0,0,1,.969,2.477H43.039a1.445,1.445,0,0,0-.32-1.008,1.106,1.106,0,0,0-.859-.352q-1.023,0-1.2,1.3a9.206,9.206,0,0,0-.055,1.141,3.616,3.616,0,0,0,.3,1.766A1.055,1.055,0,0,0,41.883,15.125Zm8.828,2.031A4.345,4.345,0,0,1,47.563,16a4.006,4.006,0,0,1-1.2-3.02v-.219a5.191,5.191,0,0,1,.48-2.289,3.516,3.516,0,0,1,1.4-1.535,4.233,4.233,0,0,1,2.188-.543A3.659,3.659,0,0,1,53.242,9.5a4.344,4.344,0,0,1,1.031,3.082V13.6H49.039a1.9,1.9,0,0,0,.617,1.117,1.836,1.836,0,0,0,1.234.406,2.366,2.366,0,0,0,1.953-.875l1.2,1.422a3.363,3.363,0,0,1-1.395,1.082A4.713,4.713,0,0,1,50.711,17.156Zm-.3-6.734q-1.156,0-1.375,1.531H51.7v-.2a1.3,1.3,0,0,0-.32-.98A1.275,1.275,0,0,0,50.414,10.422ZM57.75,8.547l.086.992A2.867,2.867,0,0,1,60.25,8.391a2.412,2.412,0,0,1,1.973.789,3.757,3.757,0,0,1,.676,2.375V17H60.258V11.664A1.426,1.426,0,0,0,60,10.723a1.193,1.193,0,0,0-.937-.3,1.256,1.256,0,0,0-1.148.609V17H55.281V8.547ZM69.117,17a2.973,2.973,0,0,1-.25-.758,2.448,2.448,0,0,1-2.031.914,3,3,0,0,1-2.031-.723,2.3,2.3,0,0,1-.836-1.816,2.364,2.364,0,0,1,1.016-2.078,5.174,5.174,0,0,1,2.953-.7h.813v-.448q0-1.17-1.008-1.17a.824.824,0,0,0-.937.926H64.172a2.36,2.36,0,0,1,1.043-1.99,4.383,4.383,0,0,1,2.66-.765,3.843,3.843,0,0,1,2.555.789,2.743,2.743,0,0,1,.961,2.164v3.742a3.832,3.832,0,0,0,.359,1.781V17Zm-1.648-1.719a1.469,1.469,0,0,0,.816-.211,1.322,1.322,0,0,0,.465-.477V13.242h-.766q-1.375,0-1.375,1.234a.754.754,0,0,0,.242.582A.876.876,0,0,0,67.469,15.281Zm7.867-6.734.086.992a2.906,2.906,0,0,1,2.414-1.148A2.14,2.14,0,0,1,80,9.664a2.813,2.813,0,0,1,2.484-1.273q2.57,0,2.641,3.109V17H82.484V11.664a1.611,1.611,0,0,0-.219-.945.931.931,0,0,0-.8-.3,1.247,1.247,0,0,0-1.164.7l.008.109V17H77.672V11.68a1.694,1.694,0,0,0-.211-.961.928.928,0,0,0-.8-.3,1.263,1.263,0,0,0-1.156.7V17H72.867V8.547ZM89.406,17H86.766V8.547h2.641Zm-2.8-10.633a1.175,1.175,0,0,1,.406-.922,1.727,1.727,0,0,1,2.109,0,1.175,1.175,0,0,1,.406.922,1.175,1.175,0,0,1-.406.922,1.727,1.727,0,0,1-2.109,0A1.175,1.175,0,0,1,86.609,6.367Zm8.508,10.789A4.345,4.345,0,0,1,91.969,16a4.006,4.006,0,0,1-1.2-3.02v-.219a5.191,5.191,0,0,1,.48-2.289,3.516,3.516,0,0,1,1.4-1.535,4.233,4.233,0,0,1,2.188-.543A3.659,3.659,0,0,1,97.648,9.5a4.344,4.344,0,0,1,1.031,3.082V13.6H93.445a1.9,1.9,0,0,0,.617,1.117,1.836,1.836,0,0,0,1.234.406,2.366,2.366,0,0,0,1.953-.875l1.2,1.422a3.363,3.363,0,0,1-1.395,1.082A4.713,4.713,0,0,1,95.117,17.156Zm-.3-6.734q-1.156,0-1.375,1.531H96.1v-.2a1.3,1.3,0,0,0-.32-.98A1.275,1.275,0,0,0,94.82,10.422Zm7.336-1.875.086.992a2.867,2.867,0,0,1,2.414-1.148,2.412,2.412,0,0,1,1.973.789,3.757,3.757,0,0,1,.676,2.375V17h-2.641V11.664a1.426,1.426,0,0,0-.258-.941,1.193,1.193,0,0,0-.937-.3,1.256,1.256,0,0,0-1.148.609V17H99.688V8.547Zm9.672-2.1v2.1h1.391v1.828h-1.391v3.867a.987.987,0,0,0,.172.664.922.922,0,0,0,.68.188,3.862,3.862,0,0,0,.656-.047V16.93a4.859,4.859,0,0,1-1.484.227,2.758,2.758,0,0,1-2.008-.641,2.626,2.626,0,0,1-.648-1.945v-4.2h-1.078V8.547H109.2v-2.1Zm1.859,6.25a4.989,4.989,0,0,1,.492-2.254,3.52,3.52,0,0,1,1.414-1.52,4.259,4.259,0,0,1,2.164-.531,3.887,3.887,0,0,1,2.992,1.176,4.512,4.512,0,0,1,1.094,3.2v.094a4.378,4.378,0,0,1-1.1,3.137,3.9,3.9,0,0,1-2.973,1.16,3.942,3.942,0,0,1-2.9-1.082,4.232,4.232,0,0,1-1.18-2.934Zm2.633.164a3.145,3.145,0,0,0,.367,1.719,1.223,1.223,0,0,0,1.086.547q1.406,0,1.438-2.164V12.7q0-2.273-1.453-2.273-1.32,0-1.43,1.961Z" transform="translate(515 5426.873)" fill="#12263f"/>
    <path id="Trazado_114610" data-name="Trazado 114610" d="M6.727,13.977a1.127,1.127,0,0,0-.426-.937,5.292,5.292,0,0,0-1.5-.7,14.353,14.353,0,0,1-1.75-.7A3.314,3.314,0,0,1,.844,8.664,2.676,2.676,0,0,1,1.395,7,3.562,3.562,0,0,1,2.953,5.871a6.065,6.065,0,0,1,2.266-.4,5.305,5.305,0,0,1,2.2.438A3.482,3.482,0,0,1,8.93,7.152,3.254,3.254,0,0,1,9.469,9H6.734a1.375,1.375,0,0,0-.426-1.078,1.66,1.66,0,0,0-1.152-.383A1.872,1.872,0,0,0,4,7.863.955.955,0,0,0,4.039,9.48a5.911,5.911,0,0,0,1.648.734,10.1,10.1,0,0,1,1.938.816,3.256,3.256,0,0,1,1.844,2.93A2.778,2.778,0,0,1,8.344,16.3a5,5,0,0,1-3.086.852,6.122,6.122,0,0,1-2.5-.5A3.775,3.775,0,0,1,1.066,15.3,3.542,3.542,0,0,1,.5,13.313H3.25a1.744,1.744,0,0,0,.473,1.348,2.234,2.234,0,0,0,1.535.434A1.765,1.765,0,0,0,6.332,14.8.967.967,0,0,0,6.727,13.977ZM13.531,17H10.891V8.547h2.641Zm-2.8-10.633a1.175,1.175,0,0,1,.406-.922A1.533,1.533,0,0,1,12.2,5.086a1.533,1.533,0,0,1,1.055.359,1.175,1.175,0,0,1,.406.922,1.175,1.175,0,0,1-.406.922,1.533,1.533,0,0,1-1.055.359,1.533,1.533,0,0,1-1.055-.359A1.175,1.175,0,0,1,10.734,6.367Zm8.844,8.258a.608.608,0,0,0-.352-.539,5.348,5.348,0,0,0-1.336-.422,6.092,6.092,0,0,1-1.625-.574,2.722,2.722,0,0,1-.977-.863,2.061,2.061,0,0,1-.336-1.164,2.336,2.336,0,0,1,.961-1.918,3.958,3.958,0,0,1,2.516-.754,4.386,4.386,0,0,1,2.688.758,2.37,2.37,0,0,1,1.016,1.992H19.492q0-1.016-1.07-1.016a1.061,1.061,0,0,0-.7.23.714.714,0,0,0-.281.574.655.655,0,0,0,.344.57,3.248,3.248,0,0,0,1.1.359,9.486,9.486,0,0,1,1.324.336,2.406,2.406,0,0,1,1.906,2.352A2.214,2.214,0,0,1,21.09,16.43a4.505,4.505,0,0,1-2.66.727,4.6,4.6,0,0,1-1.937-.391A3.24,3.24,0,0,1,15.164,15.7a2.406,2.406,0,0,1-.477-1.414h2.461a1.017,1.017,0,0,0,.391.855,1.607,1.607,0,0,0,.961.27,1.264,1.264,0,0,0,.809-.219A.7.7,0,0,0,19.578,14.625Zm6.836-8.18v2.1H27.8v1.828H26.414v3.867a.987.987,0,0,0,.172.664.922.922,0,0,0,.68.188,3.862,3.862,0,0,0,.656-.047V16.93a4.859,4.859,0,0,1-1.484.227,2.758,2.758,0,0,1-2.008-.641,2.626,2.626,0,0,1-.648-1.945v-4.2H22.7V8.547h1.078v-2.1ZM32.93,17.156A4.345,4.345,0,0,1,29.781,16a4.006,4.006,0,0,1-1.2-3.02v-.219a5.191,5.191,0,0,1,.48-2.289,3.516,3.516,0,0,1,1.4-1.535,4.233,4.233,0,0,1,2.188-.543A3.659,3.659,0,0,1,35.461,9.5a4.344,4.344,0,0,1,1.031,3.082V13.6H31.258a1.9,1.9,0,0,0,.617,1.117,1.836,1.836,0,0,0,1.234.406,2.366,2.366,0,0,0,1.953-.875l1.2,1.422a3.363,3.363,0,0,1-1.395,1.082A4.713,4.713,0,0,1,32.93,17.156Zm-.3-6.734q-1.156,0-1.375,1.531h2.656v-.2a1.3,1.3,0,0,0-.32-.98A1.275,1.275,0,0,0,32.633,10.422Zm7.406-1.875.086.992a2.906,2.906,0,0,1,2.414-1.148A2.14,2.14,0,0,1,44.7,9.664a2.813,2.813,0,0,1,2.484-1.273q2.57,0,2.641,3.109V17H47.188V11.664a1.611,1.611,0,0,0-.219-.945.931.931,0,0,0-.8-.3,1.247,1.247,0,0,0-1.164.7l.008.109V17H42.375V11.68a1.694,1.694,0,0,0-.211-.961.929.929,0,0,0-.8-.3,1.263,1.263,0,0,0-1.156.7V17H37.57V8.547ZM56.094,17a2.973,2.973,0,0,1-.25-.758,2.448,2.448,0,0,1-2.031.914,3,3,0,0,1-2.031-.723,2.3,2.3,0,0,1-.836-1.816,2.364,2.364,0,0,1,1.016-2.078,5.174,5.174,0,0,1,2.953-.7h.813v-.448q0-1.17-1.008-1.17a.824.824,0,0,0-.937.926H51.148a2.36,2.36,0,0,1,1.043-1.99,4.383,4.383,0,0,1,2.66-.765,3.843,3.843,0,0,1,2.555.789,2.743,2.743,0,0,1,.961,2.164v3.742a3.832,3.832,0,0,0,.359,1.781V17Zm-1.648-1.719a1.469,1.469,0,0,0,.816-.211,1.322,1.322,0,0,0,.465-.477V13.242h-.766q-1.375,0-1.375,1.234a.754.754,0,0,0,.242.582A.876.876,0,0,0,54.445,15.281Zm9.8-.656a.608.608,0,0,0-.352-.539,5.348,5.348,0,0,0-1.336-.422,6.092,6.092,0,0,1-1.625-.574,2.722,2.722,0,0,1-.977-.863,2.061,2.061,0,0,1-.336-1.164,2.336,2.336,0,0,1,.961-1.918A3.958,3.958,0,0,1,63.1,8.391a4.386,4.386,0,0,1,2.688.758A2.37,2.37,0,0,1,66.8,11.141H64.164q0-1.016-1.07-1.016a1.061,1.061,0,0,0-.7.23.714.714,0,0,0-.281.574.655.655,0,0,0,.344.57,3.248,3.248,0,0,0,1.1.359,9.486,9.486,0,0,1,1.324.336,2.406,2.406,0,0,1,1.906,2.352,2.214,2.214,0,0,1-1.027,1.883,4.505,4.505,0,0,1-2.66.727,4.6,4.6,0,0,1-1.937-.391A3.24,3.24,0,0,1,59.836,15.7a2.406,2.406,0,0,1-.477-1.414H61.82a1.017,1.017,0,0,0,.391.855,1.607,1.607,0,0,0,.961.27,1.264,1.264,0,0,0,.809-.219A.7.7,0,0,0,64.25,14.625ZM.406,30.711a5.164,5.164,0,0,1,.867-3.164A2.854,2.854,0,0,1,3.7,26.391a2.428,2.428,0,0,1,1.906.891V23H8.242V35H5.875l-.133-.906A2.493,2.493,0,0,1,3.68,35.156,2.849,2.849,0,0,1,1.289,34,5.327,5.327,0,0,1,.406,30.711Zm2.633.164q0,2.25,1.313,2.25a1.3,1.3,0,0,0,1.25-.734V29.172a1.261,1.261,0,0,0-1.234-.75q-1.219,0-1.32,1.969Zm10.789,4.281A4.345,4.345,0,0,1,10.68,34a4.006,4.006,0,0,1-1.2-3.02v-.219a5.191,5.191,0,0,1,.48-2.289,3.516,3.516,0,0,1,1.4-1.535,4.233,4.233,0,0,1,2.188-.543A3.659,3.659,0,0,1,16.359,27.5a4.344,4.344,0,0,1,1.031,3.082V31.6H12.156a1.9,1.9,0,0,0,.617,1.117,1.836,1.836,0,0,0,1.234.406,2.366,2.366,0,0,0,1.953-.875l1.2,1.422a3.363,3.363,0,0,1-1.395,1.082A4.713,4.713,0,0,1,13.828,35.156Zm-.3-6.734q-1.156,0-1.375,1.531h2.656v-.2a1.3,1.3,0,0,0-.32-.98A1.275,1.275,0,0,0,13.531,28.422ZM27.2,35a2.973,2.973,0,0,1-.25-.758,2.448,2.448,0,0,1-2.031.914,3,3,0,0,1-2.031-.723,2.3,2.3,0,0,1-.836-1.816,2.364,2.364,0,0,1,1.016-2.078,5.174,5.174,0,0,1,2.953-.7h.813v-.448q0-1.17-1.008-1.17a.824.824,0,0,0-.937.926H22.25a2.36,2.36,0,0,1,1.043-1.99,4.383,4.383,0,0,1,2.66-.765,3.843,3.843,0,0,1,2.555.789,2.743,2.743,0,0,1,.961,2.164v3.742a3.832,3.832,0,0,0,.359,1.781V35Zm-1.648-1.719a1.469,1.469,0,0,0,.816-.211,1.322,1.322,0,0,0,.465-.477V31.242h-.766q-1.375,0-1.375,1.234a.754.754,0,0,0,.242.582A.876.876,0,0,0,25.547,33.281ZM33.7,35H31.063V23H33.7Zm4.4,0H35.461V26.547H38.1ZM35.3,24.367a1.175,1.175,0,0,1,.406-.922,1.727,1.727,0,0,1,2.109,0,1.249,1.249,0,0,1,0,1.844,1.727,1.727,0,0,1-2.109,0A1.175,1.175,0,0,1,35.3,24.367Zm6.906,2.18.086.992a2.906,2.906,0,0,1,2.414-1.148,2.14,2.14,0,0,1,2.164,1.273,2.813,2.813,0,0,1,2.484-1.273q2.57,0,2.641,3.109V35H49.359V29.664a1.611,1.611,0,0,0-.219-.945.931.931,0,0,0-.8-.3,1.247,1.247,0,0,0-1.164.7l.008.109V35H44.547V29.68a1.694,1.694,0,0,0-.211-.961.929.929,0,0,0-.8-.3,1.263,1.263,0,0,0-1.156.7V35H39.742V26.547Zm15.383,8.609A4.345,4.345,0,0,1,54.445,34a4.006,4.006,0,0,1-1.2-3.02v-.219a5.191,5.191,0,0,1,.48-2.289,3.516,3.516,0,0,1,1.4-1.535,4.233,4.233,0,0,1,2.188-.543A3.659,3.659,0,0,1,60.125,27.5a4.344,4.344,0,0,1,1.031,3.082V31.6H55.922a1.9,1.9,0,0,0,.617,1.117,1.836,1.836,0,0,0,1.234.406,2.366,2.366,0,0,0,1.953-.875l1.2,1.422a3.363,3.363,0,0,1-1.395,1.082A4.713,4.713,0,0,1,57.594,35.156Zm-.3-6.734q-1.156,0-1.375,1.531h2.656v-.2a1.3,1.3,0,0,0-.32-.98A1.275,1.275,0,0,0,57.3,28.422Zm7.336-1.875.086.992a2.867,2.867,0,0,1,2.414-1.148,2.412,2.412,0,0,1,1.973.789,3.757,3.757,0,0,1,.676,2.375V35H67.141V29.664a1.426,1.426,0,0,0-.258-.941,1.193,1.193,0,0,0-.937-.3,1.256,1.256,0,0,0-1.148.609V35H62.164V26.547Zm9.672-2.1v2.1H75.7v1.828H74.3v3.867a.987.987,0,0,0,.172.664.922.922,0,0,0,.68.188,3.862,3.862,0,0,0,.656-.047V34.93a4.859,4.859,0,0,1-1.484.227,2.758,2.758,0,0,1-2.008-.641,2.626,2.626,0,0,1-.648-1.945v-4.2H70.594V26.547h1.078v-2.1ZM81.492,35a2.973,2.973,0,0,1-.25-.758,2.448,2.448,0,0,1-2.031.914,3,3,0,0,1-2.031-.723,2.3,2.3,0,0,1-.836-1.816,2.364,2.364,0,0,1,1.016-2.078,5.174,5.174,0,0,1,2.953-.7h.813v-.448q0-1.17-1.008-1.17a.824.824,0,0,0-.937.926H76.547a2.36,2.36,0,0,1,1.043-1.99,4.383,4.383,0,0,1,2.66-.765,3.843,3.843,0,0,1,2.555.789,2.743,2.743,0,0,1,.961,2.164v3.742a3.832,3.832,0,0,0,.359,1.781V35Zm-1.648-1.719a1.469,1.469,0,0,0,.816-.211,1.322,1.322,0,0,0,.465-.477V31.242h-.766q-1.375,0-1.375,1.234a.754.754,0,0,0,.242.582A.876.876,0,0,0,79.844,33.281Zm8.953-.156a1.171,1.171,0,0,0,.859-.3,1.1,1.1,0,0,0,.3-.84h2.469a2.923,2.923,0,0,1-1,2.281,3.705,3.705,0,0,1-2.566.891A3.751,3.751,0,0,1,85.953,34a4.556,4.556,0,0,1-1.062-3.2v-.109a5.149,5.149,0,0,1,.473-2.262,3.441,3.441,0,0,1,1.363-1.508,4.065,4.065,0,0,1,2.109-.527,3.658,3.658,0,0,1,2.617.914,3.242,3.242,0,0,1,.969,2.477H89.953a1.445,1.445,0,0,0-.32-1.008,1.106,1.106,0,0,0-.859-.352q-1.023,0-1.2,1.3a9.206,9.206,0,0,0-.055,1.141,3.616,3.616,0,0,0,.3,1.766A1.055,1.055,0,0,0,88.8,33.125ZM96.313,35H93.672V26.547h2.641Zm-2.8-10.633a1.175,1.175,0,0,1,.406-.922,1.727,1.727,0,0,1,2.109,0,1.249,1.249,0,0,1,0,1.844,1.727,1.727,0,0,1-2.109,0A1.175,1.175,0,0,1,93.516,24.367ZM97.6,30.7a4.989,4.989,0,0,1,.492-2.254,3.52,3.52,0,0,1,1.414-1.52,4.259,4.259,0,0,1,2.164-.531,3.887,3.887,0,0,1,2.992,1.176,4.512,4.512,0,0,1,1.094,3.2v.094A4.378,4.378,0,0,1,104.66,34a3.9,3.9,0,0,1-2.973,1.16,3.942,3.942,0,0,1-2.9-1.082,4.232,4.232,0,0,1-1.18-2.934Zm2.633.164a3.145,3.145,0,0,0,.367,1.719,1.223,1.223,0,0,0,1.086.547q1.406,0,1.438-2.164V30.7q0-2.273-1.453-2.273-1.32,0-1.43,1.961Zm1.8-7.859h2.781l-2.172,2.453-2.148,0Zm7.3,3.547.086.992a2.867,2.867,0,0,1,2.414-1.148,2.412,2.412,0,0,1,1.973.789,3.757,3.757,0,0,1,.676,2.375V35h-2.641V29.664a1.426,1.426,0,0,0-.258-.941,1.193,1.193,0,0,0-.937-.3,1.256,1.256,0,0,0-1.148.609V35h-2.633V26.547ZM5.5,53a2.973,2.973,0,0,1-.25-.758,2.448,2.448,0,0,1-2.031.914,3,3,0,0,1-2.031-.723,2.3,2.3,0,0,1-.836-1.816,2.364,2.364,0,0,1,1.016-2.078,5.174,5.174,0,0,1,2.953-.7h.813v-.448q0-1.17-1.008-1.17a.824.824,0,0,0-.937.926H.555A2.36,2.36,0,0,1,1.6,45.155a4.383,4.383,0,0,1,2.66-.765,3.843,3.843,0,0,1,2.555.789,2.743,2.743,0,0,1,.961,2.164v3.742a3.832,3.832,0,0,0,.359,1.781V53ZM3.852,51.281a1.469,1.469,0,0,0,.816-.211,1.322,1.322,0,0,0,.465-.477V49.242H4.367q-1.375,0-1.375,1.234a.754.754,0,0,0,.242.582A.876.876,0,0,0,3.852,51.281ZM15.992,53H13.352V41h2.641Zm1.289-4.3a4.989,4.989,0,0,1,.492-2.254,3.52,3.52,0,0,1,1.414-1.52,4.259,4.259,0,0,1,2.164-.531,3.887,3.887,0,0,1,2.992,1.176,4.512,4.512,0,0,1,1.094,3.2v.094A4.378,4.378,0,0,1,24.34,52a3.9,3.9,0,0,1-2.973,1.16,3.942,3.942,0,0,1-2.9-1.082,4.232,4.232,0,0,1-1.18-2.934Zm2.633.164a3.145,3.145,0,0,0,.367,1.719,1.223,1.223,0,0,0,1.086.547q1.406,0,1.438-2.164V48.7q0-2.273-1.453-2.273-1.32,0-1.43,1.961Zm11.109,1.766a.608.608,0,0,0-.352-.539,5.347,5.347,0,0,0-1.336-.422,6.092,6.092,0,0,1-1.625-.574,2.722,2.722,0,0,1-.977-.863,2.061,2.061,0,0,1-.336-1.164,2.336,2.336,0,0,1,.961-1.918,3.958,3.958,0,0,1,2.516-.754,4.386,4.386,0,0,1,2.688.758,2.37,2.37,0,0,1,1.016,1.992H30.938q0-1.016-1.07-1.016a1.061,1.061,0,0,0-.7.23.714.714,0,0,0-.281.574.655.655,0,0,0,.344.57,3.248,3.248,0,0,0,1.1.359,9.486,9.486,0,0,1,1.324.336,2.406,2.406,0,0,1,1.906,2.352,2.214,2.214,0,0,1-1.027,1.883,4.505,4.505,0,0,1-2.66.727,4.6,4.6,0,0,1-1.937-.391A3.24,3.24,0,0,1,26.609,51.7a2.406,2.406,0,0,1-.477-1.414h2.461a1.017,1.017,0,0,0,.391.855,1.607,1.607,0,0,0,.961.27,1.264,1.264,0,0,0,.809-.219A.7.7,0,0,0,31.023,50.625Zm15.6-1.789a5.1,5.1,0,0,1-.887,3.145,2.843,2.843,0,0,1-2.395,1.176A2.437,2.437,0,0,1,41.43,52.3V56.25H38.8v-11.7h2.461l.078.781a2.437,2.437,0,0,1,1.992-.937,2.866,2.866,0,0,1,2.43,1.152,5.16,5.16,0,0,1,.867,3.168Zm-2.633-.164q0-2.25-1.312-2.25a1.239,1.239,0,0,0-1.25.672v3.328a1.279,1.279,0,0,0,1.266.7q1.258,0,1.3-2.172ZM52.9,46.93l-.867-.062a1.558,1.558,0,0,0-1.594.781V53H47.8V44.547h2.469l.086,1.086a2.039,2.039,0,0,1,1.852-1.242,2.567,2.567,0,0,1,.734.094Zm.336,1.766a4.989,4.989,0,0,1,.492-2.254,3.52,3.52,0,0,1,1.414-1.52,4.259,4.259,0,0,1,2.164-.531A3.887,3.887,0,0,1,60.3,45.566a4.512,4.512,0,0,1,1.094,3.2v.094A4.378,4.378,0,0,1,60.293,52a3.9,3.9,0,0,1-2.973,1.16,3.942,3.942,0,0,1-2.9-1.082,4.232,4.232,0,0,1-1.18-2.934Zm2.633.164a3.145,3.145,0,0,0,.367,1.719,1.223,1.223,0,0,0,1.086.547q1.406,0,1.438-2.164V48.7q0-2.273-1.453-2.273-1.32,0-1.43,1.961Zm10.258,2.266a1.171,1.171,0,0,0,.859-.3,1.1,1.1,0,0,0,.3-.84H69.75a2.923,2.923,0,0,1-1,2.281,3.705,3.705,0,0,1-2.566.891A3.751,3.751,0,0,1,63.281,52a4.556,4.556,0,0,1-1.062-3.2v-.109a5.149,5.149,0,0,1,.473-2.262,3.441,3.441,0,0,1,1.363-1.508,4.065,4.065,0,0,1,2.109-.527,3.658,3.658,0,0,1,2.617.914,3.242,3.242,0,0,1,.969,2.477H67.281a1.445,1.445,0,0,0-.32-1.008,1.106,1.106,0,0,0-.859-.352q-1.023,0-1.2,1.3a9.206,9.206,0,0,0-.055,1.141,3.616,3.616,0,0,0,.3,1.766A1.055,1.055,0,0,0,66.125,51.125Zm8.828,2.031A4.345,4.345,0,0,1,71.8,52a4.006,4.006,0,0,1-1.2-3.02v-.219a5.191,5.191,0,0,1,.48-2.289,3.516,3.516,0,0,1,1.4-1.535,4.233,4.233,0,0,1,2.188-.543A3.659,3.659,0,0,1,77.484,45.5a4.344,4.344,0,0,1,1.031,3.082V49.6H73.281a1.9,1.9,0,0,0,.617,1.117,1.836,1.836,0,0,0,1.234.406,2.366,2.366,0,0,0,1.953-.875l1.2,1.422a3.363,3.363,0,0,1-1.395,1.082A4.713,4.713,0,0,1,74.953,53.156Zm-.3-6.734q-1.156,0-1.375,1.531h2.656v-.2a1.3,1.3,0,0,0-.32-.98A1.275,1.275,0,0,0,74.656,46.422ZM84,50.625a.608.608,0,0,0-.352-.539,5.347,5.347,0,0,0-1.336-.422,6.092,6.092,0,0,1-1.625-.574,2.722,2.722,0,0,1-.977-.863,2.061,2.061,0,0,1-.336-1.164,2.336,2.336,0,0,1,.961-1.918,3.958,3.958,0,0,1,2.516-.754,4.386,4.386,0,0,1,2.688.758,2.37,2.37,0,0,1,1.016,1.992H83.914q0-1.016-1.07-1.016a1.061,1.061,0,0,0-.7.23.714.714,0,0,0-.281.574.655.655,0,0,0,.344.57,3.248,3.248,0,0,0,1.1.359,9.486,9.486,0,0,1,1.324.336,2.406,2.406,0,0,1,1.906,2.352,2.214,2.214,0,0,1-1.027,1.883,4.505,4.505,0,0,1-2.66.727,4.6,4.6,0,0,1-1.937-.391A3.24,3.24,0,0,1,79.586,51.7a2.406,2.406,0,0,1-.477-1.414H81.57a1.017,1.017,0,0,0,.391.855,1.607,1.607,0,0,0,.961.27,1.264,1.264,0,0,0,.809-.219A.7.7,0,0,0,84,50.625Zm3.438-1.93a4.989,4.989,0,0,1,.492-2.254,3.52,3.52,0,0,1,1.414-1.52,4.259,4.259,0,0,1,2.164-.531A3.887,3.887,0,0,1,94.5,45.566a4.512,4.512,0,0,1,1.094,3.2v.094A4.378,4.378,0,0,1,94.5,52a3.9,3.9,0,0,1-2.973,1.16,3.942,3.942,0,0,1-2.9-1.082,4.232,4.232,0,0,1-1.18-2.934Zm2.633.164a3.145,3.145,0,0,0,.367,1.719,1.223,1.223,0,0,0,1.086.547q1.406,0,1.438-2.164V48.7q0-2.273-1.453-2.273-1.32,0-1.43,1.961Zm11.109,1.766a.608.608,0,0,0-.352-.539,5.347,5.347,0,0,0-1.336-.422,6.092,6.092,0,0,1-1.625-.574,2.722,2.722,0,0,1-.977-.863,2.061,2.061,0,0,1-.336-1.164,2.336,2.336,0,0,1,.961-1.918,3.958,3.958,0,0,1,2.516-.754,4.386,4.386,0,0,1,2.688.758,2.37,2.37,0,0,1,1.016,1.992h-2.641q0-1.016-1.07-1.016a1.061,1.061,0,0,0-.7.23.714.714,0,0,0-.281.574.655.655,0,0,0,.344.57,3.248,3.248,0,0,0,1.1.359,9.486,9.486,0,0,1,1.324.336,2.406,2.406,0,0,1,1.906,2.352,2.214,2.214,0,0,1-1.027,1.883,4.505,4.505,0,0,1-2.66.727,4.6,4.6,0,0,1-1.937-.391A3.24,3.24,0,0,1,96.766,51.7a2.406,2.406,0,0,1-.477-1.414H98.75a1.017,1.017,0,0,0,.391.855,1.607,1.607,0,0,0,.961.27,1.264,1.264,0,0,0,.809-.219A.7.7,0,0,0,101.18,50.625Z" transform="translate(725 5425.873)" fill="#12263f"/>
    <path id="Trazado_114612" data-name="Trazado 114612" d="M4.461,5.625,7,13.539,9.531,5.625h3.609V17h-2.75V14.344l.266-5.437L7.906,17H6.094L3.336,8.9,3.6,14.344V17H.859V5.625ZM19.523,17a2.973,2.973,0,0,1-.25-.758,2.448,2.448,0,0,1-2.031.914,3,3,0,0,1-2.031-.723,2.3,2.3,0,0,1-.836-1.816,2.364,2.364,0,0,1,1.016-2.078,5.174,5.174,0,0,1,2.953-.7h.813v-.448q0-1.17-1.008-1.17a.824.824,0,0,0-.937.926H14.578a2.36,2.36,0,0,1,1.043-1.99,4.383,4.383,0,0,1,2.66-.765,3.843,3.843,0,0,1,2.555.789,2.743,2.743,0,0,1,.961,2.164v3.742a3.832,3.832,0,0,0,.359,1.781V17Zm-1.648-1.719a1.469,1.469,0,0,0,.816-.211,1.322,1.322,0,0,0,.465-.477V13.242h-.766q-1.375,0-1.375,1.234a.754.754,0,0,0,.242.582A.876.876,0,0,0,17.875,15.281Zm7.8-6.734.086.992a2.867,2.867,0,0,1,2.414-1.148,2.412,2.412,0,0,1,1.973.789,3.757,3.757,0,0,1,.676,2.375V17H28.18V11.664a1.426,1.426,0,0,0-.258-.941,1.193,1.193,0,0,0-.937-.3,1.256,1.256,0,0,0-1.148.609V17H23.2V8.547Zm10.7,8.609A4.345,4.345,0,0,1,33.219,16a4.006,4.006,0,0,1-1.2-3.02v-.219a5.191,5.191,0,0,1,.48-2.289,3.516,3.516,0,0,1,1.4-1.535,4.233,4.233,0,0,1,2.188-.543A3.659,3.659,0,0,1,38.9,9.5a4.344,4.344,0,0,1,1.031,3.082V13.6H34.7a1.9,1.9,0,0,0,.617,1.117,1.836,1.836,0,0,0,1.234.406A2.366,2.366,0,0,0,38.5,14.25l1.2,1.422a3.363,3.363,0,0,1-1.395,1.082A4.713,4.713,0,0,1,36.367,17.156Zm-.3-6.734q-1.156,0-1.375,1.531h2.656v-.2a1.3,1.3,0,0,0-.32-.98A1.275,1.275,0,0,0,36.07,10.422Zm7.75-1.875v8.742a3.068,3.068,0,0,1-.859,2.313,3.3,3.3,0,0,1-2.375.813,5.607,5.607,0,0,1-1.242-.133V18.289a5.037,5.037,0,0,0,.742.07.963.963,0,0,0,1.094-1.086V8.547Zm-2.836-2.18a1.175,1.175,0,0,1,.406-.922,1.727,1.727,0,0,1,2.109,0,1.175,1.175,0,0,1,.406.922,1.175,1.175,0,0,1-.406.922,1.727,1.727,0,0,1-2.109,0A1.175,1.175,0,0,1,40.984,6.367ZM44.977,12.7a4.989,4.989,0,0,1,.492-2.254,3.52,3.52,0,0,1,1.414-1.52,4.259,4.259,0,0,1,2.164-.531,3.887,3.887,0,0,1,2.992,1.176,4.512,4.512,0,0,1,1.094,3.2v.094A4.378,4.378,0,0,1,52.035,16a3.9,3.9,0,0,1-2.973,1.16,3.942,3.942,0,0,1-2.9-1.082,4.232,4.232,0,0,1-1.18-2.934Zm2.633.164a3.145,3.145,0,0,0,.367,1.719,1.223,1.223,0,0,0,1.086.547q1.406,0,1.438-2.164V12.7q0-2.273-1.453-2.273-1.32,0-1.43,1.961ZM.406,30.711a5.164,5.164,0,0,1,.867-3.164A2.854,2.854,0,0,1,3.7,26.391a2.428,2.428,0,0,1,1.906.891V23H8.242V35H5.875l-.133-.906A2.493,2.493,0,0,1,3.68,35.156,2.849,2.849,0,0,1,1.289,34,5.327,5.327,0,0,1,.406,30.711Zm2.633.164q0,2.25,1.313,2.25a1.3,1.3,0,0,0,1.25-.734V29.172a1.261,1.261,0,0,0-1.234-.75q-1.219,0-1.32,1.969Zm10.789,4.281A4.345,4.345,0,0,1,10.68,34a4.006,4.006,0,0,1-1.2-3.02v-.219a5.191,5.191,0,0,1,.48-2.289,3.516,3.516,0,0,1,1.4-1.535,4.233,4.233,0,0,1,2.188-.543A3.659,3.659,0,0,1,16.359,27.5a4.344,4.344,0,0,1,1.031,3.082V31.6H12.156a1.9,1.9,0,0,0,.617,1.117,1.836,1.836,0,0,0,1.234.406,2.366,2.366,0,0,0,1.953-.875l1.2,1.422a3.363,3.363,0,0,1-1.395,1.082A4.713,4.713,0,0,1,13.828,35.156Zm-.3-6.734q-1.156,0-1.375,1.531h2.656v-.2a1.3,1.3,0,0,0-.32-.98A1.275,1.275,0,0,0,13.531,28.422Zm14.016.508-.867-.062a1.558,1.558,0,0,0-1.594.781V35H22.453V26.547h2.469l.086,1.086a2.039,2.039,0,0,1,1.852-1.242,2.567,2.567,0,0,1,.734.094Zm5.039,6.227A4.345,4.345,0,0,1,29.438,34a4.006,4.006,0,0,1-1.2-3.02v-.219a5.191,5.191,0,0,1,.48-2.289,3.516,3.516,0,0,1,1.4-1.535,4.233,4.233,0,0,1,2.188-.543A3.659,3.659,0,0,1,35.117,27.5a4.344,4.344,0,0,1,1.031,3.082V31.6H30.914a1.9,1.9,0,0,0,.617,1.117,1.836,1.836,0,0,0,1.234.406,2.366,2.366,0,0,0,1.953-.875l1.2,1.422a3.363,3.363,0,0,1-1.395,1.082A4.713,4.713,0,0,1,32.586,35.156Zm-.3-6.734q-1.156,0-1.375,1.531H33.57v-.2a1.3,1.3,0,0,0-.32-.98A1.275,1.275,0,0,0,32.289,28.422Zm9.344,4.2a.608.608,0,0,0-.352-.539,5.348,5.348,0,0,0-1.336-.422,6.092,6.092,0,0,1-1.625-.574,2.722,2.722,0,0,1-.977-.863,2.061,2.061,0,0,1-.336-1.164,2.336,2.336,0,0,1,.961-1.918,3.958,3.958,0,0,1,2.516-.754,4.386,4.386,0,0,1,2.688.758,2.37,2.37,0,0,1,1.016,1.992H41.547q0-1.016-1.07-1.016a1.061,1.061,0,0,0-.7.23.714.714,0,0,0-.281.574.655.655,0,0,0,.344.57,3.248,3.248,0,0,0,1.1.359,9.485,9.485,0,0,1,1.324.336,2.406,2.406,0,0,1,1.906,2.352,2.214,2.214,0,0,1-1.027,1.883,4.505,4.505,0,0,1-2.66.727,4.6,4.6,0,0,1-1.937-.391A3.24,3.24,0,0,1,37.219,33.7a2.406,2.406,0,0,1-.477-1.414H39.2a1.017,1.017,0,0,0,.391.855,1.607,1.607,0,0,0,.961.27,1.264,1.264,0,0,0,.809-.219A.7.7,0,0,0,41.633,32.625ZM48.18,35H45.539V26.547H48.18Zm-2.8-10.633a1.175,1.175,0,0,1,.406-.922,1.727,1.727,0,0,1,2.109,0,1.249,1.249,0,0,1,0,1.844,1.727,1.727,0,0,1-2.109,0A1.175,1.175,0,0,1,45.383,24.367Zm4.086,6.344a5.164,5.164,0,0,1,.867-3.164,2.854,2.854,0,0,1,2.422-1.156,2.428,2.428,0,0,1,1.906.891V23H57.3V35H54.938l-.133-.906a2.493,2.493,0,0,1-2.062,1.063A2.849,2.849,0,0,1,50.352,34,5.327,5.327,0,0,1,49.469,30.711Zm2.633.164q0,2.25,1.313,2.25a1.3,1.3,0,0,0,1.25-.734V29.172a1.261,1.261,0,0,0-1.234-.75q-1.219,0-1.32,1.969Zm11.734,3.211a2.714,2.714,0,0,1-2.258,1.07,2.662,2.662,0,0,1-2.105-.809,3.4,3.4,0,0,1-.715-2.324V26.547h2.633v5.492a.946.946,0,0,0,1.055,1.086,1.376,1.376,0,0,0,1.289-.648v-5.93h2.648V35H63.914ZM67.492,30.7a4.989,4.989,0,0,1,.492-2.254,3.52,3.52,0,0,1,1.414-1.52,4.259,4.259,0,0,1,2.164-.531,3.887,3.887,0,0,1,2.992,1.176,4.512,4.512,0,0,1,1.094,3.2v.094A4.378,4.378,0,0,1,74.551,34a3.9,3.9,0,0,1-2.973,1.16,3.942,3.942,0,0,1-2.9-1.082,4.232,4.232,0,0,1-1.18-2.934Zm2.633.164a3.145,3.145,0,0,0,.367,1.719,1.223,1.223,0,0,0,1.086.547q1.406,0,1.438-2.164V30.7q0-2.273-1.453-2.273-1.32,0-1.43,1.961Zm11.109,1.766a.608.608,0,0,0-.352-.539,5.348,5.348,0,0,0-1.336-.422,6.092,6.092,0,0,1-1.625-.574,2.722,2.722,0,0,1-.977-.863,2.061,2.061,0,0,1-.336-1.164,2.336,2.336,0,0,1,.961-1.918,3.958,3.958,0,0,1,2.516-.754,4.386,4.386,0,0,1,2.688.758,2.37,2.37,0,0,1,1.016,1.992H81.148q0-1.016-1.07-1.016a1.061,1.061,0,0,0-.7.23.714.714,0,0,0-.281.574.655.655,0,0,0,.344.57,3.248,3.248,0,0,0,1.1.359,9.486,9.486,0,0,1,1.324.336,2.406,2.406,0,0,1,1.906,2.352,2.214,2.214,0,0,1-1.027,1.883,4.505,4.505,0,0,1-2.66.727,4.6,4.6,0,0,1-1.937-.391A3.24,3.24,0,0,1,76.82,33.7a2.406,2.406,0,0,1-.477-1.414H78.8a1.017,1.017,0,0,0,.391.855,1.607,1.607,0,0,0,.961.27,1.264,1.264,0,0,0,.809-.219A.7.7,0,0,0,81.234,32.625Z" transform="translate(1145 5426.873)" fill="#12263f"/>
    <path id="Trazado_114611" data-name="Trazado 114611" d="M3.6,13.141V17H.859V5.625H5.4a5.287,5.287,0,0,1,2.309.48A3.621,3.621,0,0,1,9.262,7.473a3.734,3.734,0,0,1,.551,2.012,3.291,3.291,0,0,1-1.191,2.66,4.943,4.943,0,0,1-3.27,1Zm0-2.117H5.4a1.7,1.7,0,0,0,1.215-.4A1.48,1.48,0,0,0,7.031,9.5,1.83,1.83,0,0,0,6.6,8.227,1.522,1.522,0,0,0,5.43,7.742H3.6Zm12.664-.094-.867-.062a1.558,1.558,0,0,0-1.594.781V17H11.172V8.547h2.469l.086,1.086a2.039,2.039,0,0,1,1.852-1.242,2.567,2.567,0,0,1,.734.094ZM16.6,12.7a4.989,4.989,0,0,1,.492-2.254,3.52,3.52,0,0,1,1.414-1.52,4.259,4.259,0,0,1,2.164-.531,3.887,3.887,0,0,1,2.992,1.176,4.512,4.512,0,0,1,1.094,3.2v.094A4.378,4.378,0,0,1,23.66,16a3.9,3.9,0,0,1-2.973,1.16,3.942,3.942,0,0,1-2.9-1.082,4.232,4.232,0,0,1-1.18-2.934Zm2.633.164a3.145,3.145,0,0,0,.367,1.719,1.223,1.223,0,0,0,1.086.547q1.406,0,1.438-2.164V12.7q0-2.273-1.453-2.273-1.32,0-1.43,1.961Zm10.258,2.266a1.171,1.171,0,0,0,.859-.3,1.1,1.1,0,0,0,.3-.84h2.469a2.922,2.922,0,0,1-1,2.281,3.705,3.705,0,0,1-2.566.891A3.751,3.751,0,0,1,26.648,16a4.556,4.556,0,0,1-1.062-3.2v-.109a5.149,5.149,0,0,1,.473-2.262,3.441,3.441,0,0,1,1.363-1.508,4.065,4.065,0,0,1,2.109-.527,3.658,3.658,0,0,1,2.617.914,3.242,3.242,0,0,1,.969,2.477H30.648a1.445,1.445,0,0,0-.32-1.008,1.106,1.106,0,0,0-.859-.352q-1.023,0-1.2,1.3a9.206,9.206,0,0,0-.055,1.141,3.616,3.616,0,0,0,.3,1.766A1.055,1.055,0,0,0,29.492,15.125Zm8.828,2.031A4.345,4.345,0,0,1,35.172,16a4.006,4.006,0,0,1-1.2-3.02v-.219a5.191,5.191,0,0,1,.48-2.289,3.516,3.516,0,0,1,1.4-1.535,4.233,4.233,0,0,1,2.188-.543A3.659,3.659,0,0,1,40.852,9.5a4.344,4.344,0,0,1,1.031,3.082V13.6H36.648a1.9,1.9,0,0,0,.617,1.117,1.836,1.836,0,0,0,1.234.406,2.366,2.366,0,0,0,1.953-.875l1.2,1.422a3.363,3.363,0,0,1-1.395,1.082A4.713,4.713,0,0,1,38.32,17.156Zm-.3-6.734q-1.156,0-1.375,1.531H39.3v-.2a1.3,1.3,0,0,0-.32-.98A1.275,1.275,0,0,0,38.023,10.422Zm9.344,4.2a.608.608,0,0,0-.352-.539,5.348,5.348,0,0,0-1.336-.422,6.092,6.092,0,0,1-1.625-.574,2.722,2.722,0,0,1-.977-.863,2.061,2.061,0,0,1-.336-1.164A2.336,2.336,0,0,1,43.7,9.145a3.958,3.958,0,0,1,2.516-.754,4.386,4.386,0,0,1,2.688.758,2.37,2.37,0,0,1,1.016,1.992H47.281q0-1.016-1.07-1.016a1.061,1.061,0,0,0-.7.23.714.714,0,0,0-.281.574.655.655,0,0,0,.344.57,3.248,3.248,0,0,0,1.1.359A9.485,9.485,0,0,1,48,12.2a2.406,2.406,0,0,1,1.906,2.352,2.214,2.214,0,0,1-1.027,1.883,4.505,4.505,0,0,1-2.66.727,4.6,4.6,0,0,1-1.937-.391A3.24,3.24,0,0,1,42.953,15.7a2.406,2.406,0,0,1-.477-1.414h2.461a1.017,1.017,0,0,0,.391.855,1.607,1.607,0,0,0,.961.27A1.264,1.264,0,0,0,47.1,15.2.7.7,0,0,0,47.367,14.625ZM50.8,12.7a4.989,4.989,0,0,1,.492-2.254,3.52,3.52,0,0,1,1.414-1.52,4.259,4.259,0,0,1,2.164-.531,3.887,3.887,0,0,1,2.992,1.176,4.512,4.512,0,0,1,1.094,3.2v.094A4.378,4.378,0,0,1,57.863,16a3.9,3.9,0,0,1-2.973,1.16,3.942,3.942,0,0,1-2.9-1.082,4.232,4.232,0,0,1-1.18-2.934Zm2.633.164a3.145,3.145,0,0,0,.367,1.719,1.223,1.223,0,0,0,1.086.547q1.406,0,1.438-2.164V12.7q0-2.273-1.453-2.273-1.32,0-1.43,1.961ZM8.586,30.836A5.1,5.1,0,0,1,7.7,33.98,2.843,2.843,0,0,1,5.3,35.156,2.437,2.437,0,0,1,3.391,34.3V38.25H.758v-11.7H3.219l.078.781a2.437,2.437,0,0,1,1.992-.937,2.866,2.866,0,0,1,2.43,1.152,5.16,5.16,0,0,1,.867,3.168Zm-2.633-.164q0-2.25-1.312-2.25a1.239,1.239,0,0,0-1.25.672v3.328a1.279,1.279,0,0,0,1.266.7q1.258,0,1.3-2.172Zm8.906-1.742-.867-.062a1.558,1.558,0,0,0-1.594.781V35H9.766V26.547h2.469l.086,1.086a2.039,2.039,0,0,1,1.852-1.242,2.567,2.567,0,0,1,.734.094ZM15.2,30.7a4.989,4.989,0,0,1,.492-2.254,3.52,3.52,0,0,1,1.414-1.52,4.259,4.259,0,0,1,2.164-.531,3.887,3.887,0,0,1,2.992,1.176,4.512,4.512,0,0,1,1.094,3.2v.094A4.378,4.378,0,0,1,22.254,34a3.9,3.9,0,0,1-2.973,1.16,3.942,3.942,0,0,1-2.9-1.082,4.232,4.232,0,0,1-1.18-2.934Zm2.633.164a3.145,3.145,0,0,0,.367,1.719,1.223,1.223,0,0,0,1.086.547q1.406,0,1.438-2.164V30.7q0-2.273-1.453-2.273-1.32,0-1.43,1.961Zm6.352-.148a5.164,5.164,0,0,1,.867-3.164,2.854,2.854,0,0,1,2.422-1.156,2.428,2.428,0,0,1,1.906.891V23h2.641V35H29.648l-.133-.906a2.493,2.493,0,0,1-2.062,1.063A2.849,2.849,0,0,1,25.063,34,5.327,5.327,0,0,1,24.18,30.711Zm2.633.164q0,2.25,1.313,2.25a1.3,1.3,0,0,0,1.25-.734V29.172a1.261,1.261,0,0,0-1.234-.75q-1.219,0-1.32,1.969Zm11.734,3.211a2.714,2.714,0,0,1-2.258,1.07,2.662,2.662,0,0,1-2.105-.809,3.4,3.4,0,0,1-.715-2.324V26.547H36.1v5.492a.946.946,0,0,0,1.055,1.086,1.376,1.376,0,0,0,1.289-.648v-5.93h2.648V35H38.625Zm7.563-.961a1.171,1.171,0,0,0,.859-.3,1.1,1.1,0,0,0,.3-.84h2.469a2.923,2.923,0,0,1-1,2.281,3.705,3.705,0,0,1-2.566.891A3.751,3.751,0,0,1,43.266,34,4.556,4.556,0,0,1,42.2,30.8v-.109a5.149,5.149,0,0,1,.473-2.262,3.441,3.441,0,0,1,1.363-1.508,4.065,4.065,0,0,1,2.109-.527,3.658,3.658,0,0,1,2.617.914,3.242,3.242,0,0,1,.969,2.477H47.266a1.445,1.445,0,0,0-.32-1.008,1.106,1.106,0,0,0-.859-.352q-1.023,0-1.2,1.3a9.206,9.206,0,0,0-.055,1.141,3.616,3.616,0,0,0,.3,1.766A1.055,1.055,0,0,0,46.109,33.125Zm7.8-8.68v2.1H55.3v1.828H53.914v3.867a.987.987,0,0,0,.172.664.922.922,0,0,0,.68.188,3.862,3.862,0,0,0,.656-.047V34.93a4.859,4.859,0,0,1-1.484.227,2.758,2.758,0,0,1-2.008-.641,2.626,2.626,0,0,1-.648-1.945v-4.2H50.2V26.547h1.078v-2.1ZM59.117,35H56.477V26.547h2.641Zm-2.8-10.633a1.175,1.175,0,0,1,.406-.922,1.727,1.727,0,0,1,2.109,0,1.249,1.249,0,0,1,0,1.844,1.727,1.727,0,0,1-2.109,0A1.175,1.175,0,0,1,56.32,24.367Zm7.789,7.5,1.336-5.32h2.773L65.461,35H62.773l-2.758-8.453H62.8ZM68.555,30.7a4.989,4.989,0,0,1,.492-2.254,3.52,3.52,0,0,1,1.414-1.52,4.259,4.259,0,0,1,2.164-.531,3.887,3.887,0,0,1,2.992,1.176,4.512,4.512,0,0,1,1.094,3.2v.094A4.378,4.378,0,0,1,75.613,34a3.9,3.9,0,0,1-2.973,1.16,3.942,3.942,0,0,1-2.9-1.082,4.232,4.232,0,0,1-1.18-2.934Zm2.633.164a3.145,3.145,0,0,0,.367,1.719,1.223,1.223,0,0,0,1.086.547q1.406,0,1.438-2.164V30.7q0-2.273-1.453-2.273-1.32,0-1.43,1.961Z" transform="translate(935 5425.873)" fill="#12263f"/>
    <g id="Grupo_57542" data-name="Grupo 57542" transform="translate(0 311.873)">
      <g id="cooperation" transform="translate(313.82 4997.105)">
        <g id="Grupo_57540" data-name="Grupo 57540" transform="translate(1.192 10.244)">
          <g id="Grupo_57539" data-name="Grupo 57539">
            <g id="Grupo_57522" data-name="Grupo 57522" transform="translate(10.132 34.203)">
              <g id="Grupo_57521" data-name="Grupo 57521">
                <g id="Grupo_57520" data-name="Grupo 57520">
                  <g id="Grupo_57519" data-name="Grupo 57519">
                    <g id="Grupo_57518" data-name="Grupo 57518">
                      <g id="Grupo_57517" data-name="Grupo 57517">
                        <g id="Grupo_57514" data-name="Grupo 57514">
                          <g id="Grupo_57513" data-name="Grupo 57513">
                            <path id="Trazado_103826" data-name="Trazado 103826" d="M122.269,284.425l-18.686-11.066a2.017,2.017,0,0,1-.707-2.763l.956-1.614-3.781-2.236c-2.494-1.431-3.66-1.7-5.91-.826l-2.452.948a5.22,5.22,0,0,1-4.543-.378l-6.563-3.87L71.26,278.355l8.4,4.96a5.218,5.218,0,0,1,1.473,1.3l2.832,3.673a32.585,32.585,0,0,0,6.863,5.429l10.809,6.4a3,3,0,1,0,3.061-5.167l3.377,2a3,3,0,0,0,3.061-5.167l2.251,1.334a3,3,0,0,0,3.061-5.167l2.755,1.632a3,3,0,1,0,3.061-5.166Z" transform="translate(-71.26 -262.62)" fill="#f9eae2"/>
                          </g>
                          <path id="Trazado_103827" data-name="Trazado 103827" d="M247.238,378.262l-6.841-4.051a.181.181,0,0,0-.247.25,3.083,3.083,0,0,1-.093,3.309,3,3,0,0,1-4.007.844l-1.023-.606a.444.444,0,0,0-.636.555,3.676,3.676,0,0,1-.116,2.759,2.383,2.383,0,0,1-3.5,1.146l-.444-.263a.84.84,0,0,0-.963.074.361.361,0,0,0-.363.5,3.085,3.085,0,0,1-.337,2.473,3.145,3.145,0,0,1-4.281,1l-1.206-.714a.533.533,0,0,0-.692.131.527.527,0,0,0-.1.455,3.089,3.089,0,0,1-2.551,3.829l6.71,3.975a3.05,3.05,0,0,0,4.118-.923,3,3,0,0,0-1-4.207l3.315,1.964a3.05,3.05,0,0,0,4.118-.923,3,3,0,0,0-1-4.207l2.251,1.334a3,3,0,1,0,3.061-5.167l2.693,1.6a3.049,3.049,0,0,0,4.118-.923,3,3,0,0,0-1-4.207Z" transform="translate(-196.229 -356.457)" fill="#f5dbcc"/>
                        </g>
                        <g id="Grupo_57515" data-name="Grupo 57515" transform="translate(26.734 0.939)">
                          <path id="Trazado_103828" data-name="Trazado 103828" d="M262.154,268.531l-5.041,2.93a5.22,5.22,0,0,1-4.543.378l-2.765-1.086a4.445,4.445,0,0,0-2.716-.172l-4.237,1.072a4.445,4.445,0,0,0-3.354,4.309v5.656a1.45,1.45,0,0,0,1.448,1.451,4.364,4.364,0,0,0,4.367-4.364v-.239l18.137,10.74a5.22,5.22,0,0,1,1.145-.918l6.882-4.021Z" transform="translate(-239.498 -268.531)" fill="#ecb784"/>
                        </g>
                        <g id="Grupo_57516" data-name="Grupo 57516" transform="translate(4.947 19.275)">
                          <path id="Trazado_103829" data-name="Trazado 103829" d="M109.532,388.67l-1.7,2.368a3,3,0,1,1-4.877-3.5l1.7-2.368a3,3,0,1,1,4.877,3.5Z" transform="translate(-102.391 -383.918)" fill="#ecb784"/>
                          <path id="Trazado_103830" data-name="Trazado 103830" d="M142.1,394.253l-3.577,4.982a3,3,0,0,1-4.877-3.5l3.577-4.982a3,3,0,0,1,4.877,3.5Z" transform="translate(-128.204 -388.614)" fill="#ecb784"/>
                          <path id="Trazado_103831" data-name="Trazado 103831" d="M172.788,416.286l-3.577,4.982a3,3,0,0,1-4.877-3.5l3.577-4.982a3,3,0,1,1,4.877,3.5Z" transform="translate(-154.017 -407.145)" fill="#ecb784"/>
                          <path id="Trazado_103832" data-name="Trazado 103832" d="M206.115,452.252l-1.189,1.657a3,3,0,0,1-4.877-3.5l1.189-1.657a3,3,0,0,1,4.877,3.5Z" transform="translate(-184.056 -437.396)" fill="#ecb784"/>
                        </g>
                      </g>
                    </g>
                  </g>
                </g>
              </g>
            </g>
            <g id="Grupo_57525" data-name="Grupo 57525" transform="translate(0 20.85)">
              <g id="Grupo_57523" data-name="Grupo 57523" transform="translate(54.316 0)">
                <path id="Trazado_103833" data-name="Trazado 103833" d="M371.929,178.786l-21.377,12.743a2.538,2.538,0,0,0-.884,3.474l9.775,16.5a2.538,2.538,0,0,0,3.483.887l9.334-5.564a3.51,3.51,0,0,0,1.713-3.015V179.947a1.352,1.352,0,0,0-2.044-1.161Z" transform="translate(-349.313 -178.594)" fill="#407093"/>
              </g>
              <path id="Trazado_103834" data-name="Trazado 103834" d="M410.33,183.608v15.509a11.773,11.773,0,0,1-5.745,10.113l1.347,2.274a2.538,2.538,0,0,0,3.483.887l9.334-5.564a3.51,3.51,0,0,0,1.713-3.015V179.948a1.352,1.352,0,0,0-2.044-1.161Z" transform="translate(-341.486 -178.594)" fill="#365e7d"/>
              <g id="Grupo_57524" data-name="Grupo 57524">
                <path id="Trazado_103835" data-name="Trazado 103835" d="M9.544,178.786l21.377,12.742A2.538,2.538,0,0,1,31.805,195L22.03,211.5a2.538,2.538,0,0,1-3.483.887l-9.334-5.564A3.51,3.51,0,0,1,7.5,203.81V179.947a1.352,1.352,0,0,1,2.044-1.161Z" transform="translate(-7.5 -178.594)" fill="#407093"/>
              </g>
            </g>
            <g id="Grupo_57538" data-name="Grupo 57538" transform="translate(22.532)">
              <g id="Grupo_57537" data-name="Grupo 57537">
                <g id="Grupo_57536" data-name="Grupo 57536">
                  <g id="Grupo_57535" data-name="Grupo 57535">
                    <g id="Grupo_57534" data-name="Grupo 57534">
                      <g id="Grupo_57533" data-name="Grupo 57533">
                        <g id="Grupo_57532" data-name="Grupo 57532">
                          <g id="Grupo_57531" data-name="Grupo 57531">
                            <g id="Grupo_57530" data-name="Grupo 57530">
                              <g id="Grupo_57529" data-name="Grupo 57529">
                                <g id="Grupo_57528" data-name="Grupo 57528">
                                  <g id="Grupo_57527" data-name="Grupo 57527">
                                    <path id="Trazado_103836" data-name="Trazado 103836" d="M179.912,70.228H152.59a3.3,3.3,0,0,1-3.295-3.295V50.677a3.3,3.3,0,0,1,3.295-3.295h27.323a3.3,3.3,0,0,1,3.295,3.295V66.933A3.3,3.3,0,0,1,179.912,70.228Z" transform="translate(-149.295 -47.382)" fill="#ddb7a0"/>
                                    <g id="Grupo_57526" data-name="Grupo 57526">
                                      <path id="Trazado_103837" data-name="Trazado 103837" d="M288.76,47.382H278.707A3.294,3.294,0,0,1,282,50.677V66.933a3.3,3.3,0,0,1-3.295,3.295H288.76a3.294,3.294,0,0,0,3.295-3.295V50.677A3.294,3.294,0,0,0,288.76,47.382Z" transform="translate(-258.143 -47.382)" fill="#d6a889"/>
                                      <path id="Trazado_103838" data-name="Trazado 103838" d="M183.206,52.087v-1.41a3.3,3.3,0,0,0-3.295-3.294H152.589a3.3,3.3,0,0,0-3.295,3.294v1.41a5.97,5.97,0,0,0,5.97,5.97h21.972A5.97,5.97,0,0,0,183.206,52.087Z" transform="translate(-149.294 -47.382)" fill="#cc9675"/>
                                      <path id="Trazado_103839" data-name="Trazado 103839" d="M282,50.676v7.38h4.083a5.97,5.97,0,0,0,5.97-5.97v-1.41a3.3,3.3,0,0,0-3.295-3.294H278.708A3.3,3.3,0,0,1,282,50.676Z" transform="translate(-258.143 -47.381)" fill="#c4845c"/>
                                    </g>
                                  </g>
                                </g>
                              </g>
                            </g>
                          </g>
                        </g>
                      </g>
                    </g>
                  </g>
                </g>
              </g>
            </g>
          </g>
        </g>
        <g id="Grupo_57541" data-name="Grupo 57541" transform="translate(0 3.228)">
          <path id="Trazado_103840" data-name="Trazado 103840" d="M77.514,171.443,56.136,184.185a3.739,3.739,0,0,0-1.574,4.538,4,4,0,0,1-3,.041L48.8,187.677a5.6,5.6,0,0,0-3.444-.218l-4.237,1.072q-.246.062-.483.145c-2.589-1.478-4.131-1.92-6.862-.863l-2.452.948a4.007,4.007,0,0,1-3.508-.293l-.819-.483a3.738,3.738,0,0,0-1.772-3.8L3.846,171.443A2.543,2.543,0,0,0,0,173.627v23.863a4.724,4.724,0,0,0,2.295,4.039l9.334,5.564a3.728,3.728,0,0,0,5.049-1.189l.4.235-1.21,1.686A4.194,4.194,0,0,0,20,214.4a4.19,4.19,0,0,0,4.879,3.5,4.193,4.193,0,0,0,5.877,3.2,4.2,4.2,0,0,0,7.2,1.2l3.135,1.857a4.194,4.194,0,0,0,6.316-3.238l.122.072a4.2,4.2,0,0,0,6.329-3.4,4.2,4.2,0,0,0,5.3-3.714,4.195,4.195,0,0,0,4.777-6.64l1.229-.718a3.73,3.73,0,0,0,4.556.573l2.256-1.345a1.192,1.192,0,1,0-1.22-2.047l-2.256,1.345a1.347,1.347,0,0,1-1.6-.161c-.008-.067-10.026-16.809-10.026-16.809a1.349,1.349,0,0,1,.469-1.843L78.734,173.49a.159.159,0,0,1,.242.137V197.49a2.329,2.329,0,0,1-1.131,1.992l-2.253,1.343a1.192,1.192,0,0,0,1.22,2.048l2.253-1.343a4.724,4.724,0,0,0,2.295-4.039V173.627a2.543,2.543,0,0,0-3.846-2.185ZM45.941,189.77a3.236,3.236,0,0,1,1.988.126l2.771,1.089a6.369,6.369,0,0,0,5.037-.175l8.126,13.717-1.317.769a6.386,6.386,0,0,0-.687.47L44.48,195.474a1.192,1.192,0,0,0-1.8,1.026v.239a3.172,3.172,0,0,1-3.172,3.173.266.266,0,0,1-.259-.259V194a3.25,3.25,0,0,1,1.745-2.883,1.193,1.193,0,0,0,.153-.075,3.277,3.277,0,0,1,.556-.2ZM13.87,205.194a1.339,1.339,0,0,1-1.022-.148l-9.334-5.564a2.329,2.329,0,0,1-1.131-1.992V173.627a.147.147,0,0,1,.081-.139.162.162,0,0,1,.081-.023.153.153,0,0,1,.08.025L24,186.232a1.349,1.349,0,0,1,.469,1.843l-9.775,16.5A1.337,1.337,0,0,1,13.87,205.194Zm5.7,6.863a1.81,1.81,0,0,1-1.764-2.841l1.7-2.368a1.809,1.809,0,0,1,.133-.164,1.2,1.2,0,0,0,.1-.1,1.81,1.81,0,0,1,2.707,2.377l0,0-1.7,2.365A1.8,1.8,0,0,1,19.566,212.057Zm3.528,3.185a1.81,1.81,0,0,1-.415-2.526l1.7-2.368h0l1.876-2.614A1.8,1.8,0,0,1,27.433,207a1.825,1.825,0,0,1,.3-.024,1.811,1.811,0,0,1,1.467,2.866l-3.577,4.982A1.812,1.812,0,0,1,23.094,215.243Zm6.226,3.817a1.81,1.81,0,0,1-1.764-2.842l0,0,3.574-4.978a1.81,1.81,0,1,1,2.941,2.111L30.5,218.329A1.8,1.8,0,0,1,29.319,219.059Zm4.326,2.074a1.81,1.81,0,0,1-.415-2.526l0-.005,1.187-1.654a1.81,1.81,0,0,1,2.939,2.113l-.68.947-.021.029-.488.68A1.812,1.812,0,0,1,33.645,221.133Zm28.714-10.2a1.813,1.813,0,0,1-2.481.635l-2.755-1.632,0,0-8.533-5.055a1.192,1.192,0,0,0-1.215,2.051l8.537,5.058h0a1.811,1.811,0,0,1-1.847,3.115l-2.246-1.33-.005,0,0,0-6.286-3.724a1.192,1.192,0,1,0-1.215,2.05l6.287,3.724,0,0a1.811,1.811,0,0,1-1.846,3.116l-3.371-2-.006,0-2.465-1.46a1.192,1.192,0,0,0-1.215,2.051l2.465,1.46,0,0a1.811,1.811,0,0,1-1.849,3.114l-2.95-1.748a4.192,4.192,0,0,0-2.868-6.5,4.193,4.193,0,0,0-4.624-5.693,4.193,4.193,0,0,0-7.2-2.244,4.192,4.192,0,0,0-5.928-1.567l-.845-.5L26,190.168l.6.353a6.376,6.376,0,0,0,5.58.464l2.452-.948a3.86,3.86,0,0,1,3.733.127,5.628,5.628,0,0,0-1.5,3.832v5.656a2.645,2.645,0,0,0,2.639,2.643h0a5.566,5.566,0,0,0,5.294-3.86l16.6,9.83a1.182,1.182,0,0,0,.169.083,1.205,1.205,0,0,0,.154.108,1.813,1.813,0,0,1,.635,2.48Z" transform="translate(0 -144.407)"/>
          <path id="Trazado_103841" data-name="Trazado 103841" d="M146.279,34.282H173.6a4.491,4.491,0,0,0,4.486-4.486V13.539A4.491,4.491,0,0,0,173.6,9.053h-6.577V7.164a3.94,3.94,0,0,0-3.936-3.936h-6.3a3.94,3.94,0,0,0-3.936,3.936V9.053h-6.577a4.491,4.491,0,0,0-4.486,4.486v8.955a1.192,1.192,0,0,0,2.384,0V20.279a7.133,7.133,0,0,0,4.778,1.832h.933v1.311a1.192,1.192,0,1,0,2.384,0V22.111h15.34v1.311a1.192,1.192,0,0,0,2.384,0V22.111h.933a7.133,7.133,0,0,0,4.778-1.832V29.8a2.105,2.105,0,0,1-2.1,2.1H146.279a2.105,2.105,0,0,1-2.1-2.1v-1.73a1.192,1.192,0,1,0-2.384,0V29.8a4.491,4.491,0,0,0,4.486,4.487ZM155.24,7.164a1.554,1.554,0,0,1,1.552-1.553h6.3a1.554,1.554,0,0,1,1.552,1.553V9.053h-9.4V7.164Zm15.687,12.563h-.933V18.416a1.192,1.192,0,0,0-2.384,0v1.311h-15.34V18.416a1.192,1.192,0,1,0-2.384,0v1.311h-.933a4.784,4.784,0,0,1-4.778-4.778v-1.41a2.105,2.105,0,0,1,2.1-2.1H173.6a2.105,2.105,0,0,1,2.1,2.1v1.41a4.784,4.784,0,0,1-4.778,4.778Z" transform="translate(-119.261 -3.228)"/>
        </g>
      </g>
      <rect id="Rectngulo_6806" data-name="Rectngulo 6806" width="99" height="99" transform="translate(305 4991)" fill="none"/>
    </g>
    <g id="Grupo_57543" data-name="Grupo 57543" transform="translate(210 311.873)">
      <rect id="Rectngulo_6806-2" data-name="Rectngulo 6806" width="99" height="99" transform="translate(305 4991)" fill="none"/>
      <g id="valores" transform="translate(281.281 4999.522)">
        <g id="Grupo_57550" data-name="Grupo 57550" transform="translate(51.229 27.072)">
          <g id="Grupo_57547" data-name="Grupo 57547" transform="translate(0)">
            <path id="Trazado_103842" data-name="Trazado 103842" d="M118.618,169.126h15.523v15.523H118.618Z" transform="translate(-118.618 -169.126)" fill="#ecc373"/>
          </g>
          <g id="Grupo_57548" data-name="Grupo 57548" transform="translate(11.642)">
            <path id="Trazado_103843" data-name="Trazado 103843" d="M191.35,169.126h3.881v15.523H191.35Z" transform="translate(-191.35 -169.126)" fill="#dab46b"/>
          </g>
          <g id="Grupo_57549" data-name="Grupo 57549" transform="translate(5.174)">
            <path id="Trazado_103844" data-name="Trazado 103844" d="M150.943,169.126h5.174V174.3h-5.174Z" transform="translate(-150.943 -169.126)" fill="#f4e2c1"/>
          </g>
        </g>
        <g id="Grupo_57554" data-name="Grupo 57554" transform="translate(79.687 27.072)">
          <g id="Grupo_57551" data-name="Grupo 57551" transform="translate(0 0)">
            <path id="Trazado_103845" data-name="Trazado 103845" d="M0,0H15.523V15.523H0Z" transform="translate(15.523 15.523) rotate(180)" fill="#ecc373"/>
          </g>
          <g id="Grupo_57552" data-name="Grupo 57552" transform="translate(11.642 0)">
            <path id="Trazado_103846" data-name="Trazado 103846" d="M369.138,169.126h3.881v15.523h-3.881Z" transform="translate(-369.138 -169.126)" fill="#dab46b"/>
          </g>
          <g id="Grupo_57553" data-name="Grupo 57553" transform="translate(5.174 0)">
            <path id="Trazado_103847" data-name="Trazado 103847" d="M0,0H5.174V5.174H0Z" transform="translate(5.174 5.174) rotate(180)" fill="#f4e2c1"/>
          </g>
        </g>
        <g id="Grupo_57555" data-name="Grupo 57555" transform="translate(44.761 42.595)">
          <path id="Trazado_103848" data-name="Trazado 103848" d="M78.211,266.1h56.917v5.174H78.211Z" transform="translate(-78.211 -266.102)" fill="#dddaec"/>
        </g>
        <g id="Grupo_57556" data-name="Grupo 57556" transform="translate(44.761 42.595)">
          <path id="Trazado_103849" data-name="Trazado 103849" d="M78.211,266.1h3.881v5.174H78.211Z" transform="translate(-78.211 -266.102)" fill="#d0cee7"/>
        </g>
        <g id="Grupo_57557" data-name="Grupo 57557" transform="translate(97.797 42.595)">
          <path id="Trazado_103850" data-name="Trazado 103850" d="M409.545,266.1h3.881v5.174h-3.881Z" transform="translate(-409.545 -266.102)" fill="#d0cee7"/>
        </g>
        <g id="Grupo_57558" data-name="Grupo 57558" transform="translate(44.761 16.723)">
          <path id="Trazado_103851" data-name="Trazado 103851" d="M78.211,104.476h56.917v5.174H78.211Z" transform="translate(-78.211 -104.476)" fill="#dddaec"/>
        </g>
        <g id="Grupo_57559" data-name="Grupo 57559" transform="translate(44.761 16.723)">
          <path id="Trazado_103852" data-name="Trazado 103852" d="M78.211,104.476h3.881v5.174H78.211Z" transform="translate(-78.211 -104.476)" fill="#d0cee7"/>
        </g>
        <g id="Grupo_57560" data-name="Grupo 57560" transform="translate(97.797 16.723)">
          <path id="Trazado_103853" data-name="Trazado 103853" d="M409.545,104.476h3.881v5.174h-3.881Z" transform="translate(-409.545 -104.476)" fill="#d0cee7"/>
        </g>
        <g id="Grupo_57561" data-name="Grupo 57561" transform="translate(39.586 73.64)">
          <path id="Trazado_103854" data-name="Trazado 103854" d="M45.886,460.053H51.06v7.115H45.886Z" transform="translate(-45.886 -460.053)" fill="#407093"/>
        </g>
        <g id="Grupo_57562" data-name="Grupo 57562" transform="translate(101.678 73.64)">
          <path id="Trazado_103855" data-name="Trazado 103855" d="M433.789,460.053h5.174v7.115h-5.174Z" transform="translate(-433.789 -460.053)" fill="#407093"/>
        </g>
        <g id="Grupo_57563" data-name="Grupo 57563" transform="translate(39.586 1.201)">
          <path id="Trazado_103856" data-name="Trazado 103856" d="M45.886,7.5H51.06V79.94H45.886Z" transform="translate(-45.886 -7.5)" fill="#c17d4f"/>
        </g>
        <g id="Grupo_57564" data-name="Grupo 57564" transform="translate(101.678 1.201)">
          <path id="Trazado_103857" data-name="Trazado 103857" d="M433.789,7.5h5.174V79.94h-5.174Z" transform="translate(-433.789 -7.5)" fill="#c17d4f"/>
        </g>
        <g id="Grupo_57568" data-name="Grupo 57568" transform="translate(49.935 52.943)">
          <g id="Grupo_57565" data-name="Grupo 57565" transform="translate(0)">
            <path id="Trazado_103858" data-name="Trazado 103858" d="M110.537,330.752H126.06v15.523H110.537Z" transform="translate(-110.537 -330.752)" fill="#ecc373"/>
          </g>
          <g id="Grupo_57566" data-name="Grupo 57566" transform="translate(11.642)">
            <path id="Trazado_103859" data-name="Trazado 103859" d="M183.268,330.752h3.881v15.523h-3.881Z" transform="translate(-183.268 -330.752)" fill="#dab46b"/>
          </g>
          <g id="Grupo_57567" data-name="Grupo 57567" transform="translate(5.174)">
            <path id="Trazado_103860" data-name="Trazado 103860" d="M142.862,330.752h5.174v5.174h-5.174Z" transform="translate(-142.862 -330.752)" fill="#f4e2c1"/>
          </g>
        </g>
        <g id="Grupo_57572" data-name="Grupo 57572" transform="translate(80.981 52.943)">
          <g id="Grupo_57569" data-name="Grupo 57569">
            <path id="Trazado_103861" data-name="Trazado 103861" d="M304.488,330.752h15.523v15.523H304.488Z" transform="translate(-304.488 -330.752)" fill="#ecc373"/>
          </g>
          <g id="Grupo_57570" data-name="Grupo 57570" transform="translate(11.642)">
            <path id="Trazado_103862" data-name="Trazado 103862" d="M377.22,330.752H381.1v15.523H377.22Z" transform="translate(-377.22 -330.752)" fill="#dab46b"/>
          </g>
          <g id="Grupo_57571" data-name="Grupo 57571" transform="translate(5.174)">
            <path id="Trazado_103863" data-name="Trazado 103863" d="M336.813,330.752h5.174v5.174h-5.174Z" transform="translate(-336.813 -330.752)" fill="#f4e2c1"/>
          </g>
        </g>
        <g id="Grupo_57576" data-name="Grupo 57576" transform="translate(65.458 52.943)">
          <g id="Grupo_57573" data-name="Grupo 57573" transform="translate(0 0)">
            <path id="Trazado_103864" data-name="Trazado 103864" d="M0,0H15.523V15.523H0Z" transform="translate(15.523 15.523) rotate(180)" fill="#ecc373"/>
          </g>
          <g id="Grupo_57574" data-name="Grupo 57574" transform="translate(11.642 0)">
            <path id="Trazado_103865" data-name="Trazado 103865" d="M280.244,330.752h3.881v15.523h-3.881Z" transform="translate(-280.244 -330.752)" fill="#dab46b"/>
          </g>
          <g id="Grupo_57575" data-name="Grupo 57575" transform="translate(5.174 0)">
            <path id="Trazado_103866" data-name="Trazado 103866" d="M0,0H5.174V5.174H0Z" transform="translate(5.174 5.174) rotate(180)" fill="#f4e2c1"/>
          </g>
        </g>
        <g id="Grupo_57580" data-name="Grupo 57580" transform="translate(49.935 1.201)">
          <g id="Grupo_57577" data-name="Grupo 57577" transform="translate(0)">
            <path id="Trazado_103867" data-name="Trazado 103867" d="M110.537,7.5H126.06V23.023H110.537Z" transform="translate(-110.537 -7.5)" fill="#ecc373"/>
          </g>
          <g id="Grupo_57578" data-name="Grupo 57578" transform="translate(11.642)">
            <path id="Trazado_103868" data-name="Trazado 103868" d="M183.268,7.5h3.881V23.023h-3.881Z" transform="translate(-183.268 -7.5)" fill="#dab46b"/>
          </g>
          <g id="Grupo_57579" data-name="Grupo 57579" transform="translate(5.174)">
            <path id="Trazado_103869" data-name="Trazado 103869" d="M142.862,7.5h5.174v5.174h-5.174Z" transform="translate(-142.862 -7.5)" fill="#f4e2c1"/>
          </g>
        </g>
        <g id="Grupo_57584" data-name="Grupo 57584" transform="translate(80.981 1.201)">
          <g id="Grupo_57581" data-name="Grupo 57581">
            <path id="Trazado_103870" data-name="Trazado 103870" d="M304.488,7.5h15.523V23.023H304.488Z" transform="translate(-304.488 -7.5)" fill="#ecc373"/>
          </g>
          <g id="Grupo_57582" data-name="Grupo 57582" transform="translate(11.642)">
            <path id="Trazado_103871" data-name="Trazado 103871" d="M377.22,7.5H381.1V23.023H377.22Z" transform="translate(-377.22 -7.5)" fill="#dab46b"/>
          </g>
          <g id="Grupo_57583" data-name="Grupo 57583" transform="translate(5.174)">
            <path id="Trazado_103872" data-name="Trazado 103872" d="M336.813,7.5h5.174v5.174h-5.174Z" transform="translate(-336.813 -7.5)" fill="#f4e2c1"/>
          </g>
        </g>
        <g id="Grupo_57588" data-name="Grupo 57588" transform="translate(65.458 1.201)">
          <g id="Grupo_57585" data-name="Grupo 57585" transform="translate(0)">
            <path id="Trazado_103873" data-name="Trazado 103873" d="M0,0H15.523V15.523H0Z" transform="translate(15.523 15.523) rotate(180)" fill="#ecc373"/>
          </g>
          <g id="Grupo_57586" data-name="Grupo 57586" transform="translate(11.642)">
            <path id="Trazado_103874" data-name="Trazado 103874" d="M280.244,7.5h3.881V23.023h-3.881Z" transform="translate(-280.244 -7.5)" fill="#dab46b"/>
          </g>
          <g id="Grupo_57587" data-name="Grupo 57587" transform="translate(5.174)">
            <path id="Trazado_103875" data-name="Trazado 103875" d="M0,0H5.174V5.174H0Z" transform="translate(5.174 5.174) rotate(180)" fill="#f4e2c1"/>
          </g>
        </g>
        <g id="Grupo_57589" data-name="Grupo 57589" transform="translate(44.761 68.466)">
          <path id="Trazado_103876" data-name="Trazado 103876" d="M78.211,427.728h56.917V432.9H78.211Z" transform="translate(-78.211 -427.728)" fill="#dddaec"/>
        </g>
        <g id="Grupo_57590" data-name="Grupo 57590" transform="translate(97.797 68.466)">
          <path id="Trazado_103877" data-name="Trazado 103877" d="M409.545,427.728h3.881V432.9h-3.881Z" transform="translate(-409.545 -427.728)" fill="#d0cee7"/>
        </g>
        <g id="Grupo_57591" data-name="Grupo 57591" transform="translate(44.761 68.466)">
          <path id="Trazado_103878" data-name="Trazado 103878" d="M78.211,427.728h3.881V432.9H78.211Z" transform="translate(-78.211 -427.728)" fill="#d0cee7"/>
        </g>
        <path id="Trazado_103879" data-name="Trazado 103879" d="M108.052,43.345a1.2,1.2,0,0,0-2.4,0V72.439h-2.772V2.4h2.772V37.743a1.2,1.2,0,0,0,2.4,0V1.2a1.2,1.2,0,0,0-1.2-1.2h-5.173a1.2,1.2,0,0,0-1.2,1.2V15.523H97.7V1.2A1.2,1.2,0,0,0,96.5,0H49.935a1.2,1.2,0,0,0-1.2,1.2V15.523H45.961V1.2a1.2,1.2,0,0,0-1.2-1.2H39.587a1.2,1.2,0,0,0-1.2,1.2V13.228a1.2,1.2,0,1,0,2.4,0V2.4H43.56V72.439H40.788V18.831a1.2,1.2,0,1,0-2.4,0V80.755a1.2,1.2,0,0,0,1.2,1.2h5.174a1.2,1.2,0,0,0,1.2-1.2V74.841H83.81a1.2,1.2,0,1,0,0-2.4H45.961V69.667h54.517v2.773H89.412a1.2,1.2,0,0,0,0,2.4h11.065v5.915a1.2,1.2,0,0,0,1.2,1.2h5.174a1.2,1.2,0,0,0,1.2-1.2ZM43.56,79.555H40.787V74.841H43.56ZM87.356,2.4h2.773V5.174H87.356Zm-5.174,0h2.773V6.375a1.2,1.2,0,0,0,1.2,1.2h5.174a1.2,1.2,0,0,0,1.2-1.2V2.4H95.3V15.523H82.181V2.4Zm-10.349,0h2.773V5.174H71.833Zm-5.174,0h2.773V6.375a1.2,1.2,0,0,0,1.2,1.2h5.174a1.2,1.2,0,0,0,1.2-1.2V2.4H79.78V15.523H66.658V2.4ZM56.31,2.4h2.773V5.174H56.31Zm-5.174,0h2.773V6.375a1.2,1.2,0,0,0,1.2,1.2h5.174a1.2,1.2,0,0,0,1.2-1.2V2.4h2.773V15.523H51.135V2.4ZM64.257,67.266H51.136V54.144h2.773v3.974a1.2,1.2,0,0,0,1.2,1.2h5.174a1.2,1.2,0,0,0,1.2-1.2V54.144h2.773V67.266ZM56.31,56.917V54.144h2.773v2.773ZM79.78,67.266H66.658V54.144h2.773v3.974a1.2,1.2,0,0,0,1.2,1.2h5.174a1.2,1.2,0,0,0,1.2-1.2V54.144H79.78V67.266ZM71.833,56.917V54.144h2.773v2.773ZM95.3,67.266H82.181V54.144h2.773v3.974a1.2,1.2,0,0,0,1.2,1.2h5.174a1.2,1.2,0,0,0,1.2-1.2V54.144H95.3V67.266ZM87.356,56.917V54.144h2.773v2.773Zm13.122,10.349H97.7V52.943a1.2,1.2,0,0,0-1.2-1.2H49.935a1.2,1.2,0,0,0-1.2,1.2V67.266H45.961V48.97h54.517Zm0-20.7H45.961V43.8h54.516ZM56.4,33.447h5.174a1.2,1.2,0,0,0,1.2-1.2V28.272h2.773V41.394H52.429V28.272H55.2v3.974A1.2,1.2,0,0,0,56.4,33.447Zm1.2-2.4V28.272h2.773v2.773Zm27.258,2.4h5.174a1.2,1.2,0,0,0,1.2-1.2V28.272h2.773V41.394H80.887V28.272h2.773v3.974a1.2,1.2,0,0,0,1.2,1.2Zm1.2-2.4V28.272h2.773v2.773Zm14.416,10.349H96.411V27.072a1.2,1.2,0,0,0-1.2-1.2H79.687a1.2,1.2,0,0,0-1.2,1.2V41.394H67.952V27.072a1.2,1.2,0,0,0-1.2-1.2H51.229a1.2,1.2,0,0,0-1.2,1.2V41.394H45.961V23.1h54.516Zm0-20.7H45.961V17.924h54.516Zm5.174,58.857h-2.773V74.841h2.773Z" transform="translate(0)"/>
      </g>
    </g>
    <g id="Grupo_57544" data-name="Grupo 57544" transform="translate(420 311.873)">
      <rect id="Rectngulo_6806-3" data-name="Rectngulo 6806" width="99" height="99" transform="translate(305 4991)" fill="none"/>
      <g id="proceso-industrial" transform="translate(312.254 4997.012)">
        <g id="Grupo_57593" data-name="Grupo 57593" transform="translate(1.24 2.728)">
          <path id="Trazado_103880" data-name="Trazado 103880" d="M45.553,364.071l6.872,1.52,5.543-1.52V352.938a1.284,1.284,0,0,0-1.282-1.282H46.835a1.287,1.287,0,0,0-1.282,1.282Z" transform="translate(-39.275 -295.11)" fill="#fed1a3" fill-rule="evenodd"/>
          <path id="Trazado_103881" data-name="Trazado 103881" d="M151.684,364.071l6.418,1.282,6-1.282V352.938a1.284,1.284,0,0,0-1.282-1.282h-9.851a1.287,1.287,0,0,0-1.282,1.282Z" transform="translate(-127.893 -295.11)" fill="#fed1a3" fill-rule="evenodd"/>
          <path id="Trazado_103882" data-name="Trazado 103882" d="M53.964,351.655v6.006a2.409,2.409,0,0,1-2.4,2.4H45.553v4H57.968V352.937a1.284,1.284,0,0,0-1.282-1.282H53.964Z" transform="translate(-39.275 -295.11)" fill="#ffbc85" fill-rule="evenodd"/>
          <path id="Trazado_103883" data-name="Trazado 103883" d="M160.095,351.655v6.006a2.41,2.41,0,0,1-2.4,2.4h-6.006v4H164.1V352.937a1.284,1.284,0,0,0-1.282-1.282h-2.723Z" transform="translate(-127.893 -295.11)" fill="#ffbc85" fill-rule="evenodd"/>
          <path id="Trazado_103884" data-name="Trazado 103884" d="M13.79,439.448H83.246a6.28,6.28,0,1,0,0-12.56H13.79a6.28,6.28,0,0,0,0,12.56Z" transform="translate(-7.512 -357.927)" fill="#0c5e7f" fill-rule="evenodd"/>
          <path id="Trazado_103885" data-name="Trazado 103885" d="M285.083,156.685l6.872,1.52,5.543-1.52V145.552a1.284,1.284,0,0,0-1.282-1.282h-9.851a1.284,1.284,0,0,0-1.282,1.282Z" transform="translate(-239.278 -121.948)" fill="#fed1a3" fill-rule="evenodd"/>
          <path id="Trazado_103886" data-name="Trazado 103886" d="M391.215,156.685l6.418,1.282,6-1.282V145.552a1.284,1.284,0,0,0-1.282-1.282H392.5a1.284,1.284,0,0,0-1.282,1.282Z" transform="translate(-327.896 -121.948)" fill="#fed1a3" fill-rule="evenodd"/>
          <path id="Trazado_103887" data-name="Trazado 103887" d="M293.495,144.271v6.006a2.409,2.409,0,0,1-2.4,2.4h-6.006v4.009H297.5V145.553a1.284,1.284,0,0,0-1.282-1.282Z" transform="translate(-239.279 -121.948)" fill="#ffbc85" fill-rule="evenodd"/>
          <path id="Trazado_103888" data-name="Trazado 103888" d="M399.626,144.271v6.006a2.409,2.409,0,0,1-2.4,2.4h-6.006v4.009h12.415V145.553a1.284,1.284,0,0,0-1.282-1.282Z" transform="translate(-327.897 -121.948)" fill="#ffbc85" fill-rule="evenodd"/>
          <path id="Trazado_103889" data-name="Trazado 103889" d="M13.79,232.064H83.246a6.28,6.28,0,1,0,0-12.56H13.79a6.28,6.28,0,0,0,0,12.56Z" transform="translate(-7.512 -184.766)" fill="#0c5e7f" fill-rule="evenodd"/>
          <path id="Trazado_103890" data-name="Trazado 103890" d="M15.375,233.65H84.832a6.28,6.28,0,0,0,1.96-12.247,6.191,6.191,0,0,1,.318,1.96,6.3,6.3,0,0,1-6.282,6.282H11.371a6.324,6.324,0,0,1-1.96-.313,6.3,6.3,0,0,0,5.964,4.318Z" transform="translate(-9.098 -186.352)" fill="#174b67" fill-rule="evenodd"/>
          <path id="Trazado_103891" data-name="Trazado 103891" d="M15.375,441.034H84.832a6.28,6.28,0,0,0,1.96-12.247,6.2,6.2,0,0,1,.318,1.965,6.3,6.3,0,0,1-6.282,6.278H11.371a6.186,6.186,0,0,1-1.96-.314,6.3,6.3,0,0,0,5.964,4.318Z" transform="translate(-9.098 -359.513)" fill="#174b67" fill-rule="evenodd"/>
          <g id="Grupo_57592" data-name="Grupo 57592" transform="translate(3.078 0)">
            <path id="Trazado_103892" data-name="Trazado 103892" d="M29.369,15.4a3.2,3.2,0,1,0-3.2-3.2A3.2,3.2,0,0,0,29.369,15.4Z" transform="translate(-26.165 -9)" fill="#0c5e7f" fill-rule="evenodd"/>
            <path id="Trazado_103893" data-name="Trazado 103893" d="M148,15.4a3.2,3.2,0,1,0-3.2-3.2A3.208,3.208,0,0,0,148,15.4Z" transform="translate(-125.218 -9)" fill="#0c5e7f" fill-rule="evenodd"/>
          </g>
        </g>
        <path id="Trazado_103894" data-name="Trazado 103894" d="M54.511,70.449a1.237,1.237,0,1,1,0,2.475H7.517a5.045,5.045,0,0,0,0,10.09H76.974a5.045,5.045,0,0,0,0-10.09H60.119a1.237,1.237,0,1,1,0-2.474H76.974a7.52,7.52,0,0,1,0,15.039H7.517A7.52,7.52,0,0,1,6.282,70.552V59.273a1.238,1.238,0,0,1,1.235-1.24H19.932a1.239,1.239,0,0,1,1.24,1.24V70.449H23.8V59.273a1.238,1.238,0,0,1,1.235-1.24H37.446a1.242,1.242,0,0,1,1.24,1.24V70.449ZM23.768,22.51a1.237,1.237,0,0,1-2.39.641l-1.721-6.409a1.244,1.244,0,0,1,.8-1.492l5.408-2.287V10.2a4.464,4.464,0,0,1-3.027-3.031H11.788a4.522,4.522,0,0,1-1.127,1.9,4.428,4.428,0,0,1-1.9,1.127V36.226H24.035a1.237,1.237,0,1,1,0,2.474H7.517a5.045,5.045,0,0,0,0,10.09H76.974a5.045,5.045,0,0,0,0-10.09H29.643a1.237,1.237,0,1,1,0-2.474H45.81V25.05a1.238,1.238,0,0,1,1.235-1.24H59.46a1.242,1.242,0,0,1,1.24,1.24V36.226h2.62V25.05a1.242,1.242,0,0,1,1.24-1.24H76.974a1.242,1.242,0,0,1,1.24,1.24V36.329a7.521,7.521,0,0,1-1.24,14.936H7.517A7.52,7.52,0,0,1,6.282,36.329V10.2a4.443,4.443,0,1,1,4.378-7.41,4.522,4.522,0,0,1,1.127,1.9H22.832A4.439,4.439,0,1,1,28.338,10.2v2.765l5.487,2.325a1.237,1.237,0,0,1,.716,1.455L32.82,23.151a1.237,1.237,0,0,1-2.391-.641l1.445-5.37L27.1,15.119,22.322,17.14Zm4.72-17.972a1.971,1.971,0,1,0,.575,1.394A1.958,1.958,0,0,0,28.488,4.538Zm-19.577,0a1.971,1.971,0,1,0,.575,1.394A1.961,1.961,0,0,0,8.911,4.538ZM75.734,36.226v-9.94H65.8v9.94ZM26.271,70.449h9.94v-9.94h-9.94ZM58.225,36.226v-9.94h-9.94v9.94ZM8.757,70.449H18.7v-9.94H8.757ZM6.526,44.983a1.237,1.237,0,1,1,0-2.474H8.514a1.237,1.237,0,1,1,0,2.474Zm69.452,0a1.237,1.237,0,1,1,0-2.474H77.97a1.237,1.237,0,0,1,0,2.474Zm-9.922,0a1.237,1.237,0,1,1,0-2.474h1.993a1.237,1.237,0,0,1,0,2.474Zm-9.922,0a1.237,1.237,0,1,1,0-2.474h1.993a1.237,1.237,0,0,1,0,2.474Zm-9.922,0a1.237,1.237,0,1,1,0-2.474H48.2a1.237,1.237,0,0,1,0,2.474Zm-9.922,0a1.237,1.237,0,1,1,0-2.474h1.993a1.237,1.237,0,0,1,0,2.474Zm-9.922,0a1.237,1.237,0,1,1,0-2.474h1.993a1.237,1.237,0,0,1,0,2.474Zm-9.922,0a1.237,1.237,0,1,1,0-2.474h1.988a1.237,1.237,0,1,1,0,2.474ZM6.526,79.206a1.237,1.237,0,1,1,0-2.475H8.514a1.237,1.237,0,1,1,0,2.475Zm69.452,0a1.237,1.237,0,1,1,0-2.475H77.97a1.237,1.237,0,0,1,0,2.475Zm-9.922,0a1.237,1.237,0,1,1,0-2.475h1.993a1.237,1.237,0,0,1,0,2.475Zm-9.922,0a1.237,1.237,0,1,1,0-2.475h1.993a1.237,1.237,0,0,1,0,2.475Zm-9.922,0a1.237,1.237,0,1,1,0-2.475H48.2a1.237,1.237,0,0,1,0,2.475Zm-9.922,0a1.237,1.237,0,1,1,0-2.475h1.993a1.237,1.237,0,0,1,0,2.475Zm-9.922,0a1.237,1.237,0,1,1,0-2.475h1.993a1.237,1.237,0,0,1,0,2.475Zm-9.922,0a1.237,1.237,0,1,1,0-2.475h1.988a1.237,1.237,0,1,1,0,2.475Z" transform="translate(0)"/>
      </g>
    </g>
    <g id="Grupo_57545" data-name="Grupo 57545" transform="translate(630 311.873)">
      <rect id="Rectngulo_6806-4" data-name="Rectngulo 6806" width="99" height="99" transform="translate(305 4991)" fill="none"/>
      <g id="mannequin" transform="translate(266.177 4995.667)">
        <g id="Grupo_57595" data-name="Grupo 57595" transform="translate(54.058 1.313)">
          <path id="Trazado_103895" data-name="Trazado 103895" d="M61.79,50.237l1.181-2.892a26.269,26.269,0,0,0-.8-21.63l-1.546-3.108a2.627,2.627,0,0,1,1.231-3.546l8.838-4.169A2.627,2.627,0,0,0,72.2,12.517V9.251A1.751,1.751,0,0,1,73.95,7.5h10.7A1.751,1.751,0,0,1,86.4,9.251v3.265a2.627,2.627,0,0,0,1.506,2.376l8.838,4.169a2.627,2.627,0,0,1,1.231,3.546l-1.546,3.108a26.269,26.269,0,0,0-.8,21.63l1.181,2.892a2.627,2.627,0,0,1-2.432,3.62H64.222A2.627,2.627,0,0,1,61.79,50.237Z" transform="translate(-60.348 -7.5)" fill="#e29a6c"/>
          <path id="Trazado_103896" data-name="Trazado 103896" d="M186.135,25.715a26.268,26.268,0,0,0-.8,21.63l1.18,2.891a2.627,2.627,0,0,1-2.431,3.62h-5.254a2.627,2.627,0,0,0,2.431-3.62l-1.18-2.891a26.268,26.268,0,0,1,.8-21.63l1.545-3.109a2.626,2.626,0,0,0-1.231-3.546l-8.837-4.168a2.628,2.628,0,0,1-1.506-2.377V9.251A1.752,1.752,0,0,0,169.1,7.5h5.254a1.752,1.752,0,0,1,1.751,1.751v3.264a2.628,2.628,0,0,0,1.506,2.377l8.837,4.168a2.626,2.626,0,0,1,1.231,3.546Z" transform="translate(-150.054 -7.5)" fill="#ce845c"/>
          <path id="Trazado_103897" data-name="Trazado 103897" d="M100.236,234.916H70.082a2.627,2.627,0,0,1-2.433-3.62l1.18-2.891q.284-.7.527-1.4h31.6q.244.709.527,1.4l1.18,2.891A2.627,2.627,0,0,1,100.236,234.916Z" transform="translate(-66.207 -188.559)" fill="#ce845c"/>
          <path id="Trazado_103898" data-name="Trazado 103898" d="M229.9,234.916H224.65a2.627,2.627,0,0,0,2.431-3.62L225.9,228.4q-.284-.7-.527-1.4h5.254q.244.709.527,1.4l1.18,2.891A2.627,2.627,0,0,1,229.9,234.916Z" transform="translate(-195.876 -188.559)" fill="#be785a"/>
          <path id="Trazado_103899" data-name="Trazado 103899" d="M138.309,277.455h7.706a1.751,1.751,0,0,0,1.751-1.751v-3.5H136.558v3.5A1.751,1.751,0,0,0,138.309,277.455Z" transform="translate(-123.211 -225.844)" fill="#fcf1f2"/>
          <path id="Trazado_103900" data-name="Trazado 103900" d="M167.565,272.2v3.5a1.752,1.752,0,0,1-1.751,1.751H160.56a1.752,1.752,0,0,0,1.751-1.751v-3.5Z" transform="translate(-143.01 -225.843)" fill="#f4e5e0"/>
          <path id="Trazado_103901" data-name="Trazado 103901" d="M96.934,479.754h23.643a.876.876,0,0,0,.876-.876v-1.751a2.627,2.627,0,0,0-2.627-2.627H98.685a2.627,2.627,0,0,0-2.627,2.627v1.751A.876.876,0,0,0,96.934,479.754Z" transform="translate(-89.804 -392.714)" fill="#736572"/>
          <path id="Trazado_103902" data-name="Trazado 103902" d="M203.941,477.127v1.751a.876.876,0,0,1-.876.876h-5.254a.876.876,0,0,0,.876-.876v-1.751a2.628,2.628,0,0,0-2.627-2.627h5.254A2.628,2.628,0,0,1,203.941,477.127Z" transform="translate(-172.293 -392.714)" fill="#615260"/>
          <path id="Trazado_103903" data-name="Trazado 103903" d="M136.058,449.754h11.383v-3.5a1.751,1.751,0,0,0-1.751-1.751h-7.881a1.751,1.751,0,0,0-1.751,1.751Z" transform="translate(-122.799 -367.968)" fill="#fcf1f2"/>
          <path id="Trazado_103904" data-name="Trazado 103904" d="M0,0H6.13V24.921H0Z" transform="translate(22.015 76.532) rotate(180)" fill="#736572"/>
          <g id="Grupo_57594" data-name="Grupo 57594" transform="translate(20 20.84)">
            <path id="Trazado_103905" data-name="Trazado 103905" d="M184.163,126.5h-8.74a.876.876,0,0,0-.836,1.138l2.8,8.932a.876.876,0,0,0,.836.613H187.8Z" transform="translate(-174.547 -126.5)" fill="#ffc263"/>
            <path id="Trazado_103906" data-name="Trazado 103906" d="M378.1,126.5h8.8a.876.876,0,0,1,.836,1.138l-2.8,8.932a.876.876,0,0,1-.836.613H374.2Z" transform="translate(-339.237 -126.5)" fill="#ffc263"/>
            <path id="Trazado_103907" data-name="Trazado 103907" d="M271.856,126.5h10.683l2.653,5.721-5.18,7.549H271.98l-2.321-8.313Z" transform="translate(-253.002 -126.5)" fill="#ffc263"/>
          </g>
          <path id="Trazado_103908" data-name="Trazado 103908" d="M233,142.639,228.977,126.5H238.3v1.559a5.342,5.342,0,1,0,10.683-.106V126.5H258.3l-4.023,16.138a21.016,21.016,0,0,0-.4,8.132l4.252,29.005a1.039,1.039,0,0,1-1.028,1.19h-26.92a1.039,1.039,0,0,1-1.028-1.19l4.25-29.006A21.018,21.018,0,0,0,233,142.639Z" transform="translate(-199.445 -105.66)" fill="#ffe077"/>
          <path id="Trazado_103909" data-name="Trazado 103909" d="M349.619,179.776a1.038,1.038,0,0,1-1.028,1.189h-5.254a1.038,1.038,0,0,0,1.028-1.189l-4.252-29.005a21.034,21.034,0,0,1,.4-8.133l4.024-16.138h5.254l-4.025,16.138a21.034,21.034,0,0,0-.4,8.133Z" transform="translate(-290.934 -105.66)" fill="#ffd05b"/>
          <path id="Trazado_103910" data-name="Trazado 103910" d="M168.065,446.251v3.5h-5.254v-3.5a1.752,1.752,0,0,0-1.751-1.751h5.254A1.752,1.752,0,0,1,168.065,446.251Z" transform="translate(-143.422 -367.968)" fill="#f4e5e0"/>
        </g>
        <path id="Trazado_103911" data-name="Trazado 103911" d="M121.691,20.84H90.949c.112-.244.226-.488.346-.727l1.546-3.108a3.941,3.941,0,0,0-1.847-5.319L82.156,7.518A1.319,1.319,0,0,1,81.4,6.33V3.065A3.068,3.068,0,0,0,78.338,0H67.64a3.068,3.068,0,0,0-3.065,3.065V6.33a1.319,1.319,0,0,1-.753,1.188l-8.838,4.169a3.94,3.94,0,0,0-1.847,5.319l1.546,3.108a24.962,24.962,0,0,1,.761,20.549l-1.181,2.892a3.94,3.94,0,0,0,3.648,5.43h8.159v2.189a3.068,3.068,0,0,0,3.065,3.065h5.6V76.532h-3.5V59.054a1.313,1.313,0,1,0-2.627,0V76.567a3.067,3.067,0,0,0-2.627,3.03v2.189H62.919a3.945,3.945,0,0,0-3.94,3.94v1.751a2.191,2.191,0,0,0,2.189,2.189H84.81A2.191,2.191,0,0,0,87,87.477V85.726a3.945,3.945,0,0,0-3.94-3.94H79.994V79.6a3.067,3.067,0,0,0-2.627-3.03V54.189a3.067,3.067,0,0,0,2.539-3.016V48.984h6.387L82.446,75.239a2.367,2.367,0,0,0,2.328,2.694H101.71a1.313,1.313,0,1,0,0-2.627H85.091l4.2-28.692a22.223,22.223,0,0,0-.427-8.639L85.251,23.467h6.327v.246a6.592,6.592,0,0,0,2.334,5.031,6.66,6.66,0,0,0,10.975-5.137v-.139h6.327L107.6,37.974a22.222,22.222,0,0,0-.427,8.64l4.206,28.691h-3.538a1.313,1.313,0,1,0,0,2.627h3.855a2.367,2.367,0,0,0,2.328-2.694L109.77,46.234a19.607,19.607,0,0,1,.377-7.624l1.112-4.46h7.63a2.18,2.18,0,0,0,2.089-1.534l2.8-8.932a2.049,2.049,0,0,0-2.089-2.844ZM84.372,85.726V87.04H61.606V85.726a1.315,1.315,0,0,1,1.313-1.313h20.14A1.315,1.315,0,0,1,84.372,85.726Zm-15.762-3.94V79.6a.438.438,0,0,1,.438-.438h7.881a.438.438,0,0,1,.438.438v2.189ZM77.28,51.173a.438.438,0,0,1-.438.438H69.136a.438.438,0,0,1-.438-.438V48.984H77.28ZM57.912,46.357a1.32,1.32,0,0,1-1.216-1.81l1.181-2.892c.08-.195.156-.391.23-.587H86.77a19.614,19.614,0,0,1-.073,5.165l-.018.124Zm24.632-22.89,2.009,8.056H78.038l-2.527-8.056Zm-7.63-2.627a2.2,2.2,0,0,0-2.089,2.844l2.8,8.931a2.18,2.18,0,0,0,2.089,1.534h7.491l1.07,4.291H58.961a27.591,27.591,0,0,0-1.926-19.5L55.49,15.835a1.32,1.32,0,0,1,.616-1.773l8.838-4.169A3.957,3.957,0,0,0,67.2,6.33V3.065a.438.438,0,0,1,.438-.438h10.7a.438.438,0,0,1,.438.438V6.33a3.957,3.957,0,0,0,2.259,3.564l8.838,4.169a1.32,1.32,0,0,1,.616,1.773l-1.546,3.108c-.308.619-.594,1.255-.856,1.9Zm24.018,6.8a4.034,4.034,0,0,1-3.319-.9,3.97,3.97,0,0,1-1.408-3.028v-.246h8.056v.139A4.078,4.078,0,0,1,98.932,27.643Zm19.635,3.881h-6.654l2.008-8.056h7.173Z"/>
      </g>
    </g>
    <g id="Grupo_57546" data-name="Grupo 57546" transform="translate(840 311.873)">
      <rect id="Rectngulo_6806-5" data-name="Rectngulo 6806" width="99" height="99" transform="translate(305 4991)" fill="none"/>
      <g id="male-clothes" transform="translate(316 5002)">
        <path id="Trazado_103912" data-name="Trazado 103912" d="M64.258,48l9.533,4.767a10.065,10.065,0,0,1,5.563,9V79.452H69.29v25.161H34.065V79.452H24V61.769a10.065,10.065,0,0,1,5.563-9L39.1,48Z" transform="translate(-20.226 -40.452)" fill="#c3c6c7"/>
        <path id="Trazado_103913" data-name="Trazado 103913" d="M0,0H10.065V5.032H0Z" transform="translate(59.129 39) rotate(180)" fill="#9aa3a8"/>
        <path id="Trazado_103914" data-name="Trazado 103914" d="M313.258,163.323A1.258,1.258,0,0,1,312,162.065v-8.806a1.258,1.258,0,1,1,2.516,0v8.806A1.258,1.258,0,0,1,313.258,163.323Z" transform="translate(-262.935 -128.097)" fill="#b6b9ba"/>
        <path id="Trazado_103915" data-name="Trazado 103915" d="M172.581,24v6.29l-6.29,7.548L160,30.29V24Z" transform="translate(-134.839 -20.226)" fill="#c3c6c7"/>
        <path id="Trazado_103916" data-name="Trazado 103916" d="M215.1,32.806h-5.032v5.032L200,42.871V37.839l6.29-7.548V24l5.032,1.258Z" transform="translate(-168.548 -20.226)" fill="#9aa3a8"/>
        <path id="Trazado_103917" data-name="Trazado 103917" d="M119.1,37.839v5.032l-10.065-5.032V32.806H104l3.774-7.548L112.806,24v6.29Z" transform="translate(-87.645 -20.226)" fill="#9aa3a8"/>
        <path id="Trazado_103918" data-name="Trazado 103918" d="M88,192H98.065v12.581H88Z" transform="translate(-74.161 -161.806)" fill="#b6b9ba"/>
        <path id="Trazado_103919" data-name="Trazado 103919" d="M88,192H98.065v5.032H88Z" transform="translate(-74.161 -161.806)" fill="#9aa3a8"/>
        <path id="Trazado_103920" data-name="Trazado 103920" d="M288,144h30.194v7.548H288Z" transform="translate(-242.71 -121.355)" fill="#966651"/>
        <path id="Trazado_103921" data-name="Trazado 103921" d="M312.71,197.032v41.516H300.129l-.6-5.032-3.17-26.419-3.17,26.419-.6,5.032H280V197.032L281.258,192h30.194Z" transform="translate(-235.968 -161.806)" fill="#b37a60"/>
        <path id="Trazado_103922" data-name="Trazado 103922" d="M293.185,456l-.6,5.032H280V456Z" transform="translate(-235.968 -384.29)" fill="#966651"/>
        <path id="Trazado_103923" data-name="Trazado 103923" d="M417.345,456v5.032H404.764l-.6-5.032Z" transform="translate(-340.603 -384.29)" fill="#966651"/>
        <path id="Trazado_103924" data-name="Trazado 103924" d="M160,24h12.581v5.032H160Z" transform="translate(-134.839 -20.226)" fill="#b6b9ba"/>
        <path id="Trazado_103925" data-name="Trazado 103925" d="M24,216H34.065v5.032H24Z" transform="translate(-20.226 -182.032)" fill="#9aa3a8"/>
        <path id="Trazado_103926" data-name="Trazado 103926"/>
        <path id="Trazado_103927" data-name="Trazado 103927" d="M90.225,43.523V36.129a1.258,1.258,0,0,0-1.258-1.258h-15.1V34.8a11.261,11.261,0,0,0-6.259-10.127l-9.158-4.579-1.071-2.141a1.258,1.258,0,0,0-.82-.658l-5.032-1.258A1.25,1.25,0,0,0,51.225,16H38.645a1.25,1.25,0,0,0-.305.037l-5.032,1.258a1.258,1.258,0,0,0-.82.658l-1.071,2.141-9.158,4.58A11.261,11.261,0,0,0,16,34.8V52.484a1.258,1.258,0,0,0,1.258,1.258h8.806v23.9A1.258,1.258,0,0,0,27.322,78.9H56.258V90.226a1.258,1.258,0,0,0,1.258,1.258H70.1a1.258,1.258,0,0,0,1.249-1.108l2.525-21.042L76.4,90.376a1.258,1.258,0,0,0,1.249,1.108H90.225a1.258,1.258,0,0,0,1.258-1.258V48.71a1.255,1.255,0,0,0-.038-.305Zm-30.194-1.1V37.387h2.516v5.032Zm5.032-5.032H67.58v5.032H65.064Zm5.032,0h2.516v5.032H70.1Zm5.032,0h2.516v5.032H75.129Zm5.032,0h2.516v5.032H80.161Zm5.032,0h2.516v5.032H85.193Zm-33-13.033a1.258,1.258,0,0,0,.292-.805V18.869l2.908.727L58,24.806H55a1.258,1.258,0,0,0-1.258,1.258v4.255l-7.548,3.774V31.553Zm-2.225-3.321H39.9V18.516H49.967Zm-.38,2.516-4.653,5.583-4.653-5.583ZM34.479,19.6l2.908-.727v4.679a1.258,1.258,0,0,0,.292.805l6,7.2v2.541L36.129,30.32V26.064a1.258,1.258,0,0,0-1.258-1.258h-3ZM18.516,51.226V48.71h7.548v2.516Zm10.065-6.29h7.548v2.516H28.58Zm0,7.548V49.968h7.548V55H28.58Zm0,5.032h8.806a1.258,1.258,0,0,0,1.258-1.258V43.677a1.258,1.258,0,0,0-1.258-1.258H28.58V38.645a1.258,1.258,0,1,0-2.516,0v7.548H18.516V34.8a8.759,8.759,0,0,1,4.868-7.877l6.158-3.079L28.713,25.5a1.258,1.258,0,0,0,1.125,1.821h3.774V31.1a1.258,1.258,0,0,0,.7,1.125l9.369,4.685V76.387H28.58ZM46.193,76.387V36.906l9.369-4.685a1.258,1.258,0,0,0,.7-1.125V27.323h3.774A1.258,1.258,0,0,0,61.157,25.5l-.828-1.657,6.157,3.079A8.759,8.759,0,0,1,71.354,34.8v.07H58.774a1.258,1.258,0,0,0-1.258,1.258v7.394L56.3,48.4a1.255,1.255,0,0,0-.038.305V76.387ZM58.774,88.968V86.452H69.282l-.3,2.516ZM75.12,58.624a1.258,1.258,0,0,0-2.5,0L69.584,83.935H58.774V48.865l.982-3.929H87.985l.982,3.929V83.935H78.157Zm3.642,30.343-.3-2.516H88.967v2.516Z" transform="translate(-13.484 -13.484)"/>
      </g>
    </g>
    <g id="Trazado_103928" data-name="Trazado 103928" transform="translate(-350.041 5242.792)" fill="#f6f6f6" stroke-linecap="round">
      <path d="M 1579.904663085938 313.5209655761719 L 1579.904663085938 310.6429748535156 L 1579.904663085938 302.26708984375 L 720.1355590820312 302.26708984375 L 720.1355590820312 310.6429748535156 L 720.1355590820312 313.5209655761719 L 717.7763671875 311.8724975585938 L 690.1808471679688 292.5909729003906 L 688.4210815429688 291.3614501953125 L 690.1808471679688 290.1319274902344 L 717.7763671875 270.8504028320312 L 720.1355590820312 269.2019348144531 L 720.1355590820312 272.0799255371094 L 720.1355590820312 283.2775573730469 L 1579.904663085938 283.2775573730469 L 1579.904663085938 272.0800476074219 L 1579.904663085938 269.2020263671875 L 1582.263793945312 270.8504943847656 L 1609.859252929688 290.1319274902344 L 1611.619018554688 291.3614501953125 L 1609.859252929688 292.5909729003906 L 1582.263793945312 311.8724975585938 L 1579.904663085938 313.5209655761719 Z" stroke="none"/>
      <path d="M 718.6353759765625 272.0799255371094 L 691.0400390625 291.3614501953125 L 718.6353759765625 310.6429748535156 L 718.6353759765625 300.76708984375 L 1581.404541015625 300.76708984375 L 1581.404541015625 310.6429748535156 L 1609 291.3614501953125 L 1581.404541015625 272.0800476074219 L 1581.404541015625 284.7775573730469 L 718.6353759765625 284.7775573730469 L 718.6353759765625 272.0799255371094 M 721.6353759765625 266.3240356445312 L 721.6353759765625 281.7775573730469 L 1578.404541015625 281.7775573730469 L 1578.404541015625 266.3241577148438 L 1614.237915039062 291.3614501953125 L 1578.404541015625 316.3988647460938 L 1578.404541015625 303.76708984375 L 721.6353759765625 303.76708984375 L 721.6353759765625 316.3988647460938 L 685.80224609375 291.3614501953125 L 721.6353759765625 266.3240356445312 Z" stroke="none" fill="#fff"/>
    </g>
  </g>
</svg>
