<svg xmlns="http://www.w3.org/2000/svg" width="235.362" height="211.089" viewBox="0 0 235.362 211.089">
  <g id="Grupo_58031" data-name="Grupo 58031" transform="translate(-209.071 -1110.992)">
    <path id="Trazado_112758" data-name="Trazado 112758" d="M314.458,1328.643l21.89-12.626,14.593,50.54-21.89,12.637Z" transform="translate(-74.332 -144.609)" fill="#fff"/>
    <path id="Trazado_112759" data-name="Trazado 112759" d="M324.753,1407.016l-1.8-1-14.593-50.551,1.8,1Z" transform="translate(-70.033 -172.43)" fill="#e4e6f3"/>
    <path id="Trazado_112760" data-name="Trazado 112760" d="M308.363,1325.241l21.89-12.626,1.8,1-21.89,12.626Z" transform="translate(-70.033 -142.209)" fill="#e4e6f3"/>
    <path id="Trazado_112761" data-name="Trazado 112761" d="M371.281,1316s3.423,56.983-7.3,63.182l21.9-12.638Z" transform="translate(-109.262 -144.596)" fill="#e4e6f3"/>
    <path id="Trazado_112762" data-name="Trazado 112762" d="M369.9,1401.575c.04,5.757-2.091,10.325-5.574,11.07-4.471.954-9.475-4.74-11.179-12.72s.538-15.224,5.01-16.177a5.1,5.1,0,0,1,.622-.089c4.3-.335,8.928,5.2,10.555,12.809A25.209,25.209,0,0,1,369.9,1401.575Z" transform="translate(-101.221 -192.308)" fill="#f69874"/>
    <path id="Trazado_112763" data-name="Trazado 112763" d="M381.52,1401.575l-3.752,2.291-8.719-7.556,1.349-12.651c4.3-.335,8.928,5.2,10.555,12.809A25.211,25.211,0,0,1,381.52,1401.575Z" transform="translate(-112.836 -192.308)" fill="#da6440"/>
    <g id="Grupo_58024" data-name="Grupo 58024" transform="translate(256.204 1177.775)">
      <path id="Trazado_112764" data-name="Trazado 112764" d="M370.7,1339.536c.422.938.29,1.556-.107,1.735s-.914-.124-1.322-1.018-.289-1.54.118-1.723C369.818,1338.336,370.317,1338.687,370.7,1339.536Zm-1.107.547c.246.572.587.938.847.821s.206-.6-.058-1.192c-.243-.541-.555-.943-.844-.814C369.276,1339.015,369.339,1339.522,369.591,1340.083Zm1.812,3.069-.261-5.412.265-.119.261,5.412Zm2.124-2.675c.422.938.291,1.556-.1,1.733s-.914-.124-1.319-1.011-.292-1.547.115-1.73C372.651,1339.275,373.145,1339.629,373.527,1340.477Zm-1.107.547c.25.57.6.933.851.819.274-.124.206-.6-.058-1.192-.243-.541-.555-.944-.843-.814C372.109,1339.954,372.167,1340.463,372.42,1341.025Z" transform="translate(-369.019 -1337.621)" fill="#5678bb"/>
    </g>
    <path id="Trazado_112765" data-name="Trazado 112765" d="M377.92,1426.426c-1.569,1.432-4.628.637-6.83-1.777a7.113,7.113,0,0,1-2.051-4.833,2.963,2.963,0,0,1,.9-2.132c1.569-1.432,4.626-.635,6.829,1.778,1.714,1.879,2.406,4.184,1.889,5.789A2.682,2.682,0,0,1,377.92,1426.426Z" transform="translate(-112.826 -215.815)" fill="#fff"/>
    <path id="Trazado_112766" data-name="Trazado 112766" d="M381.564,1428.879c-1.069.975-3.151.433-4.649-1.209-.056-.062-.109-.123-.161-.184,1.31,1.323,3.043,1.733,3.951.9.944-.861.636-2.735-.689-4.187-1.274-1.4-3.025-1.892-3.994-1.16.037-.04.075-.078.114-.114,1.067-.973,3.147-.433,4.647,1.211S382.631,1427.906,381.564,1428.879Z" transform="translate(-117.754 -219.676)" fill="#b3bade"/>
    <path id="Trazado_112767" data-name="Trazado 112767" d="M377.37,1434.178c-1.569,1.432-4.628.638-6.83-1.776-1.709-1.873-2.4-4.175-1.888-5.78a7.114,7.114,0,0,0,2.051,4.833c2.2,2.414,5.261,3.209,6.83,1.777a2.681,2.681,0,0,0,.742-1.174A2.968,2.968,0,0,1,377.37,1434.178Z" transform="translate(-112.439 -222.621)" fill="#3c2768"/>
    <path id="Trazado_112768" data-name="Trazado 112768" d="M379.977,1428.7a.507.507,0,0,1-.5-.058l0,0c-.151-.114-.23-.277-.532-.18a4.464,4.464,0,0,1-1.483.459h0a4.664,4.664,0,0,1-1.908-1.2c-1.156-1.368-1.536-3.016-1-4.059l.264-.383a.059.059,0,0,1,.012-.008c.048-.027.215-.124.43-.223.386-.183.925-.377,1.189-.207.126.08.169.145.173.2.014.139-.188.248.132.522.415.357.73-.162,1.184.1l.116.083c.517.443-.31.561.074.93.169.164.556.119.974.105.526-.019,1.107.011,1.372.57a2.148,2.148,0,0,1,.228,1.946C380.509,1427.906,380.632,1428.512,379.977,1428.7Z" transform="translate(-116.545 -219.903)" fill="#3c2768"/>
    <path id="Trazado_112769" data-name="Trazado 112769" d="M380.862,1429.032c-.137.125-.414.044-.619-.181s-.26-.508-.124-.633.414-.044.619.181S381,1428.907,380.862,1429.032Z" transform="translate(-120.591 -223.705)" fill="#5678bb"/>
    <path id="Trazado_112770" data-name="Trazado 112770" d="M388.336,1435.2c-.082.075-.248.026-.372-.109s-.156-.3-.074-.38.248-.026.372.109S388.418,1435.125,388.336,1435.2Z" transform="translate(-126.093 -228.302)" fill="#ee3f5c"/>
    <path id="Trazado_112771" data-name="Trazado 112771" d="M382.373,1436.191c-.137.125-.414.044-.619-.181s-.26-.508-.124-.633.414-.044.619.181S382.509,1436.066,382.373,1436.191Z" transform="translate(-121.657 -228.755)" fill="#fff"/>
    <path id="Trazado_112772" data-name="Trazado 112772" d="M318.756,1424.176l-3.932,22.281a.877.877,0,0,0,.425.912h0a.877.877,0,0,0,1.293-.562l3.887-16.834Z" transform="translate(-74.58 -220.896)" fill="#3c2768"/>
    <ellipse id="Elipse_6299" data-name="Elipse 6299" cx="6.185" cy="3.93" rx="6.185" ry="3.93" transform="translate(212.283 1260.482)" fill="#e4e6f3"/>
    <path id="Trazado_112773" data-name="Trazado 112773" d="M211.794,1578.82l.014.236A1.906,1.906,0,0,1,211.794,1578.82Z" transform="translate(-1.921 -329.97)" fill="#e4e6f3"/>
    <path id="Trazado_112774" data-name="Trazado 112774" d="M249.759,1578.82a2.041,2.041,0,0,1-.022.3Z" transform="translate(-28.683 -329.97)" fill="#e4e6f3"/>
    <path id="Trazado_112775" data-name="Trazado 112775" d="M223,1570.522l-.022.3c-.248,1.772-2.652,3.163-5.58,3.163-2.966,0-5.393-1.426-5.587-3.231l-.014-.236c0-1.915,2.508-3.467,5.6-3.467S223,1568.608,223,1570.522Z" transform="translate(-1.921 -321.672)" fill="#e4e6f3"/>
    <path id="Trazado_112776" data-name="Trazado 112776" d="M223.009,1579.687l-.921,12.956c0,1.364-2.132,2.469-4.761,2.469-2.233,0-4.1-.8-4.62-1.869a1.355,1.355,0,0,1-.142-.6l-.722-13.024c.195,1.8,2.62,3.231,5.587,3.231C220.358,1582.851,222.761,1581.46,223.009,1579.687Z" transform="translate(-1.955 -330.534)" fill="#f6f7fb"/>
    <path id="Trazado_112777" data-name="Trazado 112777" d="M223.882,1570.936l-.021.27a3.429,3.429,0,0,1-2.567,2.426,7.131,7.131,0,0,1-1.575.333c-.142.015-.288.025-.436.031-.118.006-.238.008-.359.008-.2,0-.392-.007-.582-.022a7.146,7.146,0,0,1-.759-.093,6.549,6.549,0,0,1-1.073-.274,3.362,3.362,0,0,1-2.53-2.47l-.012-.209a2.5,2.5,0,0,1,1.137-1.955,5.292,5.292,0,0,1,1.59-.785c.16-.051.325-.095.494-.134a7.723,7.723,0,0,1,1.734-.193c.14,0,.279,0,.416.012.192.008.379.025.563.048a6.33,6.33,0,0,1,2.513.831A2.664,2.664,0,0,1,223.882,1570.936Z" transform="translate(-3.455 -322.246)" fill="#3c2768"/>
    <path id="Trazado_112778" data-name="Trazado 112778" d="M221.869,1494.52c-.008-.727-.641-2.145-.274-3.8.935-4.216-1.588-13.8-1.96-14.048-.237-.157-1.148,2.96-1.926,6.854a1.062,1.062,0,0,1,.337.09,1.117,1.117,0,0,1,0,2.039,1.1,1.1,0,0,1-.456.1,1.053,1.053,0,0,1-.177-.014.735.735,0,0,1-.114-.025c-.286,1.662-.527,3.375-.668,4.975a21.852,21.852,0,0,0,0,4.9,83.243,83.243,0,0,0,1.844,8.276c.232.864.459,1.679.666,2.407.56,1.968.981,3.31.981,3.31v.069q.249.02.5.02h.078c.121,0,.241,0,.359-.008.148-.007.293-.016.436-.031.022-.657.1-3.187.185-6.035C221.787,1500.086,221.887,1496.085,221.869,1494.52Zm-2.234-5.088a.722.722,0,0,1,.388.112.7.7,0,0,1,.161.137h0a.726.726,0,0,1-.121,1.068h0l0,0a.721.721,0,0,1-.425.137.73.73,0,0,1,0-1.46Zm-.5,8.939h0a.73.73,0,1,1,.121-1.071h0a.726.726,0,0,1-.121,1.068Zm1.684,3.177a1.079,1.079,0,0,1-.433.1h-.023a1.117,1.117,0,0,1-.111-2.228.5.5,0,0,1,.067,0h.044a1.1,1.1,0,0,1,.456.1,1.116,1.116,0,0,1,0,2.039Z" transform="translate(-5.237 -257.918)" fill="#5cc5c8"/>
    <path id="Trazado_112779" data-name="Trazado 112779" d="M237.267,1500.426a1.1,1.1,0,0,1,.44.09,21.322,21.322,0,0,0,.349-2.959c-.015-3.1-1.29-8.361-1.7-8.759-.021-.021-.038-.029-.053-.025h0c-.32.106-3.113,6.512-3.769,10.484-.041.25-.074.491-.1.72,0,.024-.006.049-.007.074s-.008.079-.012.122c-.03.341-.059.762-.085,1.248,0,.092-.009.185-.014.281s-.012.219-.016.333-.01.209-.015.318c-.01.232-.019.474-.029.725q-.006.171-.012.345c0,.052,0,.105-.005.16a1,1,0,0,1,.111-.005,1.1,1.1,0,0,1,.456.1,1.117,1.117,0,0,1,0,2.039,1.1,1.1,0,0,1-.456.1,1.079,1.079,0,0,1-.177-.014c-.015.623-.029,1.27-.041,1.927,0,.131-.005.263-.008.4-.02,1.051-.038,2.124-.052,3.18,0,.131,0,.264-.006.4s0,.263-.005.395c-.03,2.338-.048,4.532-.058,6.114.148-.007.293-.016.436-.031.125-.012.247-.027.367-.047.075-.011.149-.023.223-.037a6.534,6.534,0,0,0,.985-.249c.175-.743.605-2.579,1.123-4.871.71-3.132,1.581-7.114,2.185-10.314h-.056a1.117,1.117,0,1,1,0-2.234Zm-2.624,8.888a.729.729,0,1,1,.73-.729A.724.724,0,0,1,234.642,1509.314Zm.816-12.985h0a.73.73,0,1,1,.121-1.071h0a.726.726,0,0,1-.121,1.068Z" transform="translate(-16.175 -266.457)" fill="#5cc5c8"/>
    <path id="Trazado_112780" data-name="Trazado 112780" d="M213.907,1535.823q-.027-.385-.053-.792a.666.666,0,0,1-.188.026.719.719,0,0,1-.6-.312.708.708,0,0,1-.131-.417.733.733,0,0,1,.727-.73.528.528,0,0,1,.092.007c-.007-.107-.015-.215-.022-.323-.24-3.562-.507-7.537-.593-8.814a9.63,9.63,0,0,0-1.749-4.231c-.716-1.043-1.444-1.761-1.741-1.671-.267.081-.448,1.294-.53,2.784a1.07,1.07,0,0,1,.208-.041.946.946,0,0,1,.111-.006,1.118,1.118,0,0,1,.119.007.422.422,0,0,1,.057.008,1.09,1.09,0,0,1,.279.082,1.114,1.114,0,0,1,.6,1.371,1.114,1.114,0,0,1-.6.669,1.054,1.054,0,0,1-.2.067,1.163,1.163,0,0,1-.26.03,1.093,1.093,0,0,1-.177-.014.839.839,0,0,1-.114-.025.8.8,0,0,1-.081-.026,13.817,13.817,0,0,0,.308,3.457c.164.454.618,1.89,1.155,3.627a1.054,1.054,0,0,1,.44-.142.566.566,0,0,1,.067,0h.044a1.155,1.155,0,0,1,.31.042,1.055,1.055,0,0,1,.146.055,1.117,1.117,0,0,1,.378,1.766,1.155,1.155,0,0,1-.378.274,1.054,1.054,0,0,1-.367.093c.16.522.322,1.048.478,1.562.63,2.068,1.2,3.939,1.405,4.634a6,6,0,0,0,.595.175c.044.011.088.022.133.03.112.026.229.049.345.069C214.085,1538.452,214,1537.26,213.907,1535.823Zm-2.016-10.607a.72.72,0,0,1,.388.112.7.7,0,0,1,.162.137h0a.727.727,0,0,1-.121,1.068h0l0,0a.73.73,0,1,1-.425-1.323Z" transform="translate(0 -287.466)" fill="#5cc5c8"/>
    <path id="Trazado_112781" data-name="Trazado 112781" d="M209.455,1521.328a1.069,1.069,0,0,0-.208.041c.082-1.49.263-2.7.53-2.784,0,0-.057,1.183-.034,2.753a.4.4,0,0,0-.057-.008,1.119,1.119,0,0,0-.119-.007A.945.945,0,0,0,209.455,1521.328Z" transform="translate(-0.124 -287.484)" fill="#3c2768"/>
    <path id="Trazado_112782" data-name="Trazado 112782" d="M211.394,1542.218a1.155,1.155,0,0,0-.31-.042h-.044a.541.541,0,0,0-.067,0,1.052,1.052,0,0,0-.44.142c-.537-1.737-.99-3.173-1.155-3.627a13.819,13.819,0,0,1-.308-3.457.741.741,0,0,0,.081.026.8.8,0,0,0,.114.025,1.093,1.093,0,0,0,.177.014,1.155,1.155,0,0,0,.26-.03,14.328,14.328,0,0,0,.812,4.406A23.951,23.951,0,0,1,211.394,1542.218Z" transform="translate(0 -299.231)" fill="#3c2768"/>
    <path id="Trazado_112783" data-name="Trazado 112783" d="M218.683,1571.836a6.028,6.028,0,0,1-.595-.175c-.21-.695-.775-2.566-1.405-4.634-.156-.514-.318-1.04-.478-1.562a1.052,1.052,0,0,0,.367-.093,1.153,1.153,0,0,0,.378-.274C217.6,1567.445,218.262,1570.1,218.683,1571.836Z" transform="translate(-5.032 -320.292)" fill="#3c2768"/>
    <path id="Trazado_112784" data-name="Trazado 112784" d="M229.2,1503.616c-.081,2.848-.163,5.377-.185,6.035-.142.015-.288.025-.436.032-.118.005-.238.008-.359.008h-.078l-.243-8.031a1.081,1.081,0,0,0,.433-.1,1.116,1.116,0,0,0,0-2.04,1.1,1.1,0,0,0-.456-.1h-.044l-.26-8.658,0,0h0a.726.726,0,0,0,.121-1.068h0a.7.7,0,0,0-.161-.137l-.388-12.871c.372.248,2.9,9.832,1.96,14.048-.367,1.655.266,3.072.274,3.8C229.4,1496.1,229.3,1500.1,229.2,1503.616Z" transform="translate(-12.749 -257.932)" fill="#2d1d51"/>
    <path id="Trazado_112785" data-name="Trazado 112785" d="M232.807,1546.269c0,4.058,0,9.97,0,12.414-.121.019-.243.034-.367.047-.142.015-.288.025-.436.031.01-1.582.027-3.776.058-6.114,0-.131,0-.262.005-.395s0-.264.006-.4c.014-1.056.032-2.13.052-3.18,0-.133.006-.264.008-.4.012-.658.026-1.3.041-1.927a1.126,1.126,0,0,0,.633-.084Z" transform="translate(-16.175 -307.011)" fill="#3c2768"/>
    <path id="Trazado_112786" data-name="Trazado 112786" d="M236.866,1488.781v.006c-.105.3-3.493,10.077-3.494,14.278v.618a1.1,1.1,0,0,0-.456-.1.977.977,0,0,0-.111.006c0-.055,0-.109.005-.16q.006-.174.012-.345c.01-.251.019-.493.029-.725.005-.108.009-.214.015-.318s.01-.224.016-.333.009-.189.014-.281c.026-.486.055-.907.085-1.248,0-.042.008-.082.012-.122s0-.049.007-.074c.023-.229.056-.47.1-.721C233.753,1495.292,236.546,1488.886,236.866,1488.781Z" transform="translate(-16.739 -266.463)" fill="#3c2768"/>
    <path id="Trazado_112787" data-name="Trazado 112787" d="M238.6,1501.549a1.117,1.117,0,0,0,1.118,1.116h.056c-.6,3.2-1.475,7.182-2.185,10.314-.518,2.292-.948,4.128-1.123,4.871a6.535,6.535,0,0,1-.985.249l1.015-9.091a.73.73,0,1,0,.107-.955l1.307-11.716h0a.726.726,0,0,0,.121-1.068h0l.722-6.479v-.006l.055.023c.408.4,1.683,5.657,1.7,8.759a21.322,21.322,0,0,1-.349,2.959,1.093,1.093,0,0,0-.44-.09A1.117,1.117,0,0,0,238.6,1501.549Z" transform="translate(-18.631 -266.463)" fill="#f6f7fb"/>
    <path id="Trazado_112788" data-name="Trazado 112788" d="M215.3,1535.823q-.027-.385-.053-.792a.666.666,0,0,1-.188.026.719.719,0,0,1-.6-.312.708.708,0,0,1-.131-.417.733.733,0,0,1,.727-.73.527.527,0,0,1,.092.007c-.007-.107-.015-.215-.022-.323-.24-3.562-.507-7.537-.593-8.814a9.63,9.63,0,0,0-1.749-4.231c-.716-1.043-1.444-1.761-1.741-1.671l.629,3.119a1.11,1.11,0,0,1,.221,1.088l3.282,16.268c.112.026.229.049.345.069C215.478,1538.452,215.4,1537.26,215.3,1535.823Zm-1.587-9.288h0l0,0a.73.73,0,1,1-.037-1.211.7.7,0,0,1,.162.137h0a.727.727,0,0,1-.121,1.068Z" transform="translate(-1.393 -287.466)" fill="#f6f7fb"/>
    <path id="Trazado_112789" data-name="Trazado 112789" d="M225.071,1579.849l-.921,12.957c0,1.364-2.132,2.469-4.761,2.469-2.233,0-4.1-.8-4.62-1.869l0-.008c6.258-5.724,4.725-10.384,4.725-10.384C222.419,1583.013,224.823,1581.622,225.071,1579.849Z" transform="translate(-4.017 -330.695)" fill="#bdc1e1"/>
    <ellipse id="Elipse_6300" data-name="Elipse 6300" cx="6.185" cy="3.93" rx="6.185" ry="3.93" transform="translate(227.285 1251.006)" fill="#e4e6f3"/>
    <path id="Trazado_112790" data-name="Trazado 112790" d="M262.7,1546.663l.014.235A1.9,1.9,0,0,1,262.7,1546.663Z" transform="translate(-37.829 -307.288)" fill="#e4e6f3"/>
    <path id="Trazado_112791" data-name="Trazado 112791" d="M300.669,1546.663a2.045,2.045,0,0,1-.022.3Z" transform="translate(-64.591 -307.288)" fill="#e4e6f3"/>
    <path id="Trazado_112792" data-name="Trazado 112792" d="M273.907,1538.365l-.022.3c-.248,1.772-2.652,3.162-5.58,3.162-2.966,0-5.393-1.426-5.587-3.231l-.014-.236c0-1.915,2.508-3.467,5.6-3.467S273.907,1536.45,273.907,1538.365Z" transform="translate(-37.829 -298.99)" fill="#e4e6f3"/>
    <path id="Trazado_112793" data-name="Trazado 112793" d="M273.919,1547.53,273,1560.487c0,1.364-2.132,2.469-4.761,2.469-2.233,0-4.1-.8-4.62-1.87a1.354,1.354,0,0,1-.142-.6l-.722-13.024c.195,1.8,2.62,3.231,5.587,3.231C271.268,1550.694,273.671,1549.3,273.919,1547.53Z" transform="translate(-37.863 -307.853)" fill="#f6f7fb"/>
    <path id="Trazado_112794" data-name="Trazado 112794" d="M274.792,1538.779l-.02.27a3.429,3.429,0,0,1-2.567,2.426,7.153,7.153,0,0,1-1.575.333c-.143.015-.288.025-.436.031-.118.006-.238.008-.359.008-.2,0-.392-.007-.582-.022a7.024,7.024,0,0,1-.759-.093,6.5,6.5,0,0,1-1.072-.274,3.361,3.361,0,0,1-2.53-2.47l-.012-.209a2.5,2.5,0,0,1,1.137-1.954,5.278,5.278,0,0,1,1.59-.785c.16-.051.325-.094.494-.135a7.74,7.74,0,0,1,1.734-.193c.14,0,.279,0,.416.012.192.008.379.024.563.048a6.33,6.33,0,0,1,2.514.831A2.664,2.664,0,0,1,274.792,1538.779Z" transform="translate(-39.363 -299.564)" fill="#3c2768"/>
    <path id="Trazado_112795" data-name="Trazado 112795" d="M272.779,1462.362c-.008-.727-.641-2.145-.274-3.8.935-4.216-1.587-13.8-1.96-14.048-.237-.157-1.148,2.96-1.926,6.854a1.065,1.065,0,0,1,.337.09,1.117,1.117,0,0,1,0,2.04,1.1,1.1,0,0,1-.456.1,1.067,1.067,0,0,1-.177-.013.823.823,0,0,1-.114-.025c-.286,1.661-.527,3.375-.668,4.975a21.87,21.87,0,0,0,0,4.9,83.343,83.343,0,0,0,1.844,8.276c.232.864.459,1.679.666,2.406.56,1.968.981,3.311.981,3.311v.068q.249.021.5.021h.078c.121,0,.241,0,.359-.008.148-.007.293-.016.436-.031.022-.657.1-3.187.185-6.035C272.7,1467.929,272.8,1463.928,272.779,1462.362Zm-2.234-5.088a.721.721,0,0,1,.388.112.7.7,0,0,1,.161.137h0a.726.726,0,0,1-.12,1.068h0l0,0a.721.721,0,0,1-.425.137.73.73,0,0,1,0-1.46Zm-.5,8.938h0a.73.73,0,1,1,.121-1.071h0a.726.726,0,0,1-.121,1.068Zm1.684,3.178a1.079,1.079,0,0,1-.433.1h-.023a1.117,1.117,0,0,1-.111-2.228.5.5,0,0,1,.067,0h.044a1.1,1.1,0,0,1,.456.1,1.116,1.116,0,0,1,0,2.04Z" transform="translate(-41.146 -235.237)" fill="#5678bb"/>
    <path id="Trazado_112796" data-name="Trazado 112796" d="M288.177,1468.269a1.094,1.094,0,0,1,.44.09,21.326,21.326,0,0,0,.349-2.959c-.015-3.1-1.29-8.361-1.7-8.759-.02-.021-.038-.029-.053-.025h0c-.32.106-3.113,6.512-3.769,10.484-.041.25-.074.491-.1.72,0,.024-.006.049-.007.074s-.008.079-.012.122c-.03.341-.059.762-.085,1.248,0,.092-.009.185-.014.281s-.012.219-.016.333-.009.209-.015.318c-.009.232-.019.474-.029.725q-.006.171-.012.345c0,.052,0,.105-.006.16a.979.979,0,0,1,.111-.005,1.1,1.1,0,0,1,.456.1,1.117,1.117,0,0,1,0,2.039,1.1,1.1,0,0,1-.456.1,1.054,1.054,0,0,1-.177-.014c-.015.623-.029,1.27-.041,1.927,0,.132-.006.263-.008.4-.021,1.051-.039,2.124-.052,3.18,0,.131,0,.264-.006.4s0,.263-.005.395c-.03,2.338-.048,4.532-.057,6.114.148-.007.293-.016.436-.031.125-.012.246-.027.367-.047.075-.011.149-.023.223-.037a6.5,6.5,0,0,0,.985-.249c.175-.742.606-2.579,1.123-4.87.709-3.133,1.581-7.115,2.184-10.314h-.056a1.117,1.117,0,1,1,0-2.234Zm-2.624,8.888a.729.729,0,1,1,.73-.729A.724.724,0,0,1,285.553,1477.157Zm.816-12.985h0a.73.73,0,1,1,.121-1.071h0a.726.726,0,0,1-.121,1.068Z" transform="translate(-52.084 -243.776)" fill="#5678bb"/>
    <path id="Trazado_112797" data-name="Trazado 112797" d="M264.817,1503.666c-.018-.256-.036-.52-.053-.792a.665.665,0,0,1-.188.026.719.719,0,0,1-.6-.312.707.707,0,0,1-.131-.417.733.733,0,0,1,.727-.73.5.5,0,0,1,.092.007c-.007-.107-.015-.215-.022-.323-.24-3.563-.507-7.537-.593-8.814a9.634,9.634,0,0,0-1.749-4.231c-.716-1.044-1.444-1.761-1.741-1.671-.267.081-.448,1.294-.53,2.784a1.043,1.043,0,0,1,.208-.041.977.977,0,0,1,.111-.006,1.087,1.087,0,0,1,.119.007.387.387,0,0,1,.057.008,1.068,1.068,0,0,1,.279.082,1.114,1.114,0,0,1,.6,1.371,1.112,1.112,0,0,1-.6.668,1.027,1.027,0,0,1-.2.067,1.163,1.163,0,0,1-.26.03,1.093,1.093,0,0,1-.177-.014.831.831,0,0,1-.114-.025c-.027-.007-.055-.017-.081-.026a13.829,13.829,0,0,0,.308,3.457c.164.453.618,1.89,1.155,3.627a1.056,1.056,0,0,1,.44-.142.5.5,0,0,1,.067,0h.044a1.16,1.16,0,0,1,.31.042,1.057,1.057,0,0,1,.146.055,1.117,1.117,0,0,1,.378,1.766,1.155,1.155,0,0,1-.378.274,1.049,1.049,0,0,1-.367.093c.16.522.322,1.048.478,1.562.63,2.068,1.2,3.939,1.405,4.634a6,6,0,0,0,.594.175c.044.011.088.022.133.03.112.026.229.049.345.068C265,1506.295,264.914,1505.1,264.817,1503.666Zm-2.016-10.607a.725.725,0,0,1,.388.112.711.711,0,0,1,.161.137h0a.726.726,0,0,1-.121,1.068h0l0,0a.72.72,0,0,1-.425.137.73.73,0,0,1,0-1.46Z" transform="translate(-35.908 -264.785)" fill="#5cc5c8"/>
    <path id="Trazado_112798" data-name="Trazado 112798" d="M260.365,1489.172a1.042,1.042,0,0,0-.208.041c.082-1.49.263-2.7.53-2.784,0,0-.057,1.183-.034,2.753a.387.387,0,0,0-.057-.008,1.087,1.087,0,0,0-.119-.007A.976.976,0,0,0,260.365,1489.172Z" transform="translate(-36.032 -264.803)" fill="#3c2768"/>
    <path id="Trazado_112799" data-name="Trazado 112799" d="M262.3,1510.061a1.16,1.16,0,0,0-.31-.042h-.044a.5.5,0,0,0-.067,0,1.052,1.052,0,0,0-.44.142c-.537-1.737-.99-3.174-1.155-3.627a13.829,13.829,0,0,1-.308-3.457,1.051,1.051,0,0,0,.194.051,1.093,1.093,0,0,0,.177.014,1.163,1.163,0,0,0,.26-.03,14.337,14.337,0,0,0,.812,4.406A23.951,23.951,0,0,1,262.3,1510.061Z" transform="translate(-35.908 -276.55)" fill="#5678bb"/>
    <path id="Trazado_112800" data-name="Trazado 112800" d="M269.594,1539.68a6.067,6.067,0,0,1-.594-.175c-.21-.695-.775-2.566-1.405-4.634-.156-.514-.318-1.04-.478-1.562a1.049,1.049,0,0,0,.367-.093,1.156,1.156,0,0,0,.378-.274C268.513,1535.288,269.173,1537.945,269.594,1539.68Z" transform="translate(-40.94 -297.611)" fill="#3c2768"/>
    <path id="Trazado_112801" data-name="Trazado 112801" d="M280.109,1471.459c-.081,2.848-.163,5.378-.185,6.035-.143.015-.288.025-.436.032-.118.005-.238.008-.359.008h-.078l-.243-8.031a1.079,1.079,0,0,0,.433-.1,1.116,1.116,0,0,0,0-2.039,1.1,1.1,0,0,0-.456-.1h-.044l-.26-8.658,0,0h0a.726.726,0,0,0,.121-1.068h0a.7.7,0,0,0-.161-.137l-.388-12.871c.373.248,2.9,9.832,1.96,14.048-.367,1.655.266,3.072.274,3.8C280.309,1463.942,280.209,1467.943,280.109,1471.459Z" transform="translate(-48.657 -235.251)" fill="#2d1d51"/>
    <path id="Trazado_112802" data-name="Trazado 112802" d="M283.717,1514.112c0,4.058,0,9.97,0,12.414-.121.019-.242.034-.367.047-.143.015-.288.025-.436.031.009-1.582.027-3.776.057-6.114,0-.132,0-.262.005-.395s0-.264.006-.4c.014-1.056.032-2.13.052-3.18,0-.133.005-.264.008-.4.012-.657.026-1.3.041-1.927a1.067,1.067,0,0,0,.177.014A1.1,1.1,0,0,0,283.717,1514.112Z" transform="translate(-52.084 -284.33)" fill="#3c2768"/>
    <path id="Trazado_112803" data-name="Trazado 112803" d="M287.776,1456.624v.005c-.105.3-3.493,10.077-3.494,14.278v.618a1.1,1.1,0,0,0-.456-.1.979.979,0,0,0-.111.005c0-.055,0-.108.006-.16q.006-.174.012-.345c.01-.25.019-.493.029-.725.006-.108.01-.214.015-.318s.01-.224.017-.333.01-.189.014-.28c.026-.486.055-.907.085-1.248,0-.042.008-.082.012-.122s0-.049.007-.074c.023-.229.056-.47.1-.72C284.663,1463.135,287.456,1456.729,287.776,1456.624Z" transform="translate(-52.647 -243.782)" fill="#3c2768"/>
    <path id="Trazado_112804" data-name="Trazado 112804" d="M289.515,1469.392a1.117,1.117,0,0,0,1.118,1.116h.056c-.6,3.2-1.475,7.181-2.184,10.314-.518,2.291-.948,4.128-1.123,4.87a6.484,6.484,0,0,1-.985.249l1.015-9.091a.73.73,0,1,0,.107-.955l1.307-11.716h0a.726.726,0,0,0,.121-1.068h0l.722-6.479v-.005l.055.023c.408.4,1.684,5.657,1.7,8.759a21.334,21.334,0,0,1-.349,2.958,1.092,1.092,0,0,0-.44-.09A1.117,1.117,0,0,0,289.515,1469.392Z" transform="translate(-54.539 -243.782)" fill="#f6f7fb"/>
    <path id="Trazado_112805" data-name="Trazado 112805" d="M266.21,1503.666c-.018-.256-.036-.52-.053-.792a.665.665,0,0,1-.188.026.718.718,0,0,1-.6-.312.707.707,0,0,1-.131-.417.733.733,0,0,1,.727-.73.5.5,0,0,1,.092.007c-.007-.107-.015-.215-.022-.323-.24-3.563-.507-7.537-.593-8.814a9.634,9.634,0,0,0-1.749-4.231c-.716-1.044-1.444-1.761-1.741-1.671l.629,3.119a1.107,1.107,0,0,1,.278.737,1.09,1.09,0,0,1-.057.351l3.282,16.268c.112.026.229.049.345.068C266.388,1506.295,266.307,1505.1,266.21,1503.666Zm-1.587-9.288h0l0,0a.72.72,0,0,1-.425.137.73.73,0,1,1,.388-1.348.711.711,0,0,1,.161.137h0a.726.726,0,0,1-.121,1.068Z" transform="translate(-37.301 -264.785)" fill="#f6f7fb"/>
    <path id="Trazado_112806" data-name="Trazado 112806" d="M275.981,1547.691l-.921,12.956c0,1.364-2.132,2.469-4.761,2.469-2.233,0-4.1-.8-4.62-1.87l0-.007c6.258-5.724,4.725-10.385,4.725-10.385C273.33,1550.855,275.733,1549.464,275.981,1547.691Z" transform="translate(-39.925 -308.014)" fill="#bdc1e1"/>
    <path id="Trazado_112807" data-name="Trazado 112807" d="M356.462,1675.717l44.781,25.735a2.359,2.359,0,0,0,2.5.087l1.184-.684a2.358,2.358,0,0,1,2.367,0l6.519,3.8a6.316,6.316,0,0,0,6.326.02l7.852-4.508a2.429,2.429,0,0,0,.007-4.208h0l1.919-1.108a1.154,1.154,0,0,0,0-2l-4.349-2.515a.813.813,0,0,1,0-1.408l11.7-6.748a1.117,1.117,0,0,0,0-1.936l-44.373-25.625L359.976,1673.6Z" transform="translate(-103.958 -383.436)" fill="#e4e6f3"/>
    <path id="Trazado_112808" data-name="Trazado 112808" d="M661.125,1244.521l0,33.7,80.263,46.338v-33.7Z" transform="translate(-318.84 -94.181)" fill="#3c2768"/>
    <path id="Trazado_112809" data-name="Trazado 112809" d="M933.5,1371.521l21.889-12.638v33.7l-21.89,12.638Z" transform="translate(-510.953 -174.843)" fill="#bdc1e1"/>
    <path id="Trazado_112810" data-name="Trazado 112810" d="M763.285,1247.967l-80.263-46.34-21.885,12.64L741.4,1260.6Z" transform="translate(-318.852 -63.927)" fill="#e4e6f3"/>
    <path id="Trazado_112811" data-name="Trazado 112811" d="M859.244,1249.649l21.858,12.619v-33.7l-21.889-12.638Z" transform="translate(-458.559 -74.016)" fill="#fff"/>
    <path id="Trazado_112812" data-name="Trazado 112812" d="M933.5,1238.653l14.592-8.425v33.7l-14.591,8.426Z" transform="translate(-510.956 -84.1)" fill="#bdc1e1"/>
    <path id="Trazado_112813" data-name="Trazado 112813" d="M859.219,1195.762l14.591-8.426,21.89,12.639-14.592,8.425Z" transform="translate(-458.564 -53.847)" fill="#e4e6f3"/>
    <path id="Trazado_112814" data-name="Trazado 112814" d="M859.326,1330.355l21.858,15.572,17.159-10.025-2.567-1.354-14.591,8.426Z" transform="translate(-458.639 -154.722)" fill="#3c2768"/>
    <path id="Trazado_112815" data-name="Trazado 112815" d="M867.644,1324.975a.244.244,0,0,1,.017.029l-.017-.011Z" transform="translate(-464.506 -150.927)" fill="#3c2768"/>
    <path id="Trazado_112816" data-name="Trazado 112816" d="M867.693,1324.887c.029.014.072.04.126.072Z" transform="translate(-464.541 -150.865)" fill="#3c2768"/>
    <path id="Trazado_112817" data-name="Trazado 112817" d="M867.538,1324.759s.011.017.031.052v-.069Z" transform="translate(-464.431 -150.763)" fill="#e4e6f3"/>
    <path id="Trazado_112818" data-name="Trazado 112818" d="M867.784,1274.849l-.141,14.7v.069a.228.228,0,0,1,.017.029c.329.51,2.346,3.431,7.264,6.255a21.556,21.556,0,0,0,3.766,1.765.03.03,0,0,0,.012.005,5.943,5.943,0,0,0,3.377.413,1.107,1.107,0,0,0,.155-.055l0,0v-14.817Zm-.126,14.745c.029.015.072.04.126.072Z" transform="translate(-464.506 -115.572)" fill="#3c2768"/>
    <path id="Trazado_112819" data-name="Trazado 112819" d="M874.85,1272.178c-3.558-2.2-7.312,0-7.312,0s.069.118.215.327a22.177,22.177,0,0,0,7.1,6.009c5.416,3.114,7.312,2.125,7.312,2.125S878.411,1274.375,874.85,1272.178Zm-7.267.026c.029.014.072.04.126.072Z" transform="translate(-464.431 -112.999)" fill="#e4e6f3"/>
    <path id="Trazado_112820" data-name="Trazado 112820" d="M636.358,1115.852l.006,42.129,58.4,33.719-.035-42.146Z" transform="translate(-301.375 -3.428)" fill="#fff"/>
    <path id="Trazado_112821" data-name="Trazado 112821" d="M834.485,1268.938l2.435-1.432-.035-42.146-2.435,1.432Z" transform="translate(-441.093 -80.666)" fill="#bdc1e1"/>
    <path id="Trazado_112822" data-name="Trazado 112822" d="M697.166,1144.694l-58.373-33.7-2.435,1.432,58.373,33.7Z" transform="translate(-301.375)" fill="#e4e6f3"/>
    <path id="Trazado_112823" data-name="Trazado 112823" d="M648.749,1137.311v33.7l18.238,10.528v-33.7Z" transform="translate(-310.115 -18.563)" fill="#5678bb"/>
    <path id="Trazado_112824" data-name="Trazado 112824" d="M723.031,1180.2v33.7l29.186,16.849v-33.7Z" transform="translate(-362.508 -48.811)" fill="#f69874"/>
    <path id="Trazado_112825" data-name="Trazado 112825" d="M882.677,1283.761v14.817l0,0a1.087,1.087,0,0,1-.155.055,5.942,5.942,0,0,1-3.377-.413.029.029,0,0,1-.011-.005v-12.325s-9.836-5.755-10.864-10.265a22.178,22.178,0,0,0,7.1,6.009C880.781,1284.75,882.677,1283.761,882.677,1283.761Z" transform="translate(-464.946 -116.121)" fill="#2b1c50"/>
    <path id="Trazado_112826" data-name="Trazado 112826" d="M885.933,1250.042c.074,1.055-.3,1.909-.842,1.909s-1.035-.855-1.109-1.909.3-1.91.842-1.91S885.86,1248.987,885.933,1250.042Z" transform="translate(-476.023 -96.728)" fill="#ee3f5c"/>
    <path id="Trazado_112827" data-name="Trazado 112827" d="M900.959,1258.465c.074,1.055-.3,1.91-.842,1.91s-1.036-.855-1.109-1.91.3-1.909.842-1.909S900.886,1257.411,900.959,1258.465Z" transform="translate(-486.621 -102.67)" fill="#5678bb"/>
    <path id="Trazado_112828" data-name="Trazado 112828" d="M453.416,1719.251s-.976,2.179,3.156,4.661,5.347,1.814,6.11.812-3.424-6.048-3.424-6.048l-2.925-.922Z" transform="translate(-172.271 -427.963)" fill="#3c2768"/>
    <path id="Trazado_112829" data-name="Trazado 112829" d="M419.787,1619.1s-1.147,3.123,4.833,6.576,5.085,23.993,5.085,23.993a3.923,3.923,0,0,0,3.968.365c2.1-1.07,3.294-1.409,2.291-2.267s.47-17.758-.768-20.336S419.787,1619.1,419.787,1619.1Z" transform="translate(-148.56 -358.378)" fill="#5678bb"/>
    <path id="Trazado_112830" data-name="Trazado 112830" d="M405.751,1677.356v18.587l1.364-.786-.061-17.051Z" transform="translate(-138.723 -399.469)" fill="#bdc1e1"/>
    <path id="Trazado_112831" data-name="Trazado 112831" d="M402.487,1675.58v18.587l-1.364-.786.066-18.543Z" transform="translate(-135.459 -397.694)" fill="#fff"/>
    <path id="Trazado_112832" data-name="Trazado 112832" d="M393.172,1624.6l-14.595,8.343-14.6-8.343,14.593-8.427Z" transform="translate(-109.262 -356.319)" fill="#bdc1e1"/>
    <path id="Trazado_112833" data-name="Trazado 112833" d="M363.982,1644.776v2.548l14.593,8.356,0-2.562Z" transform="translate(-109.262 -376.49)" fill="#d9def0"/>
    <path id="Trazado_112834" data-name="Trazado 112834" d="M413.505,1655.681l14.6-8.348v-2.556l-14.595,8.343Z" transform="translate(-144.192 -376.49)" fill="#e4e6f3"/>
    <path id="Trazado_112835" data-name="Trazado 112835" d="M382.553,1538.767l-14.59,8.427v12.641l14.593-8.425Z" transform="translate(-112.07 -301.719)" fill="#3c2768"/>
    <path id="Trazado_112836" data-name="Trazado 112836" d="M379.145,1536.734l-1.471-.849-14.543,8.454,1.424.822Z" transform="translate(-108.662 -299.687)" fill="#e4e6f3"/>
    <path id="Trazado_112837" data-name="Trazado 112837" d="M363.131,1564.575v12.537l1.424.927V1565.4Z" transform="translate(-108.662 -319.922)" fill="#b3bade"/>
    <path id="Trazado_112838" data-name="Trazado 112838" d="M414.424,1581.671v10.916l-1.279.663v-10.84Z" transform="translate(-143.938 -331.981)" fill="#e4e6f3"/>
    <path id="Trazado_112839" data-name="Trazado 112839" d="M409.206,1584.837v9.51l1.161.662v-10.843Z" transform="translate(-141.16 -333.74)" fill="#fff"/>
    <path id="Trazado_112840" data-name="Trazado 112840" d="M369.257,1607.742v10.916l-1.279.663-.015-10.835Z" transform="translate(-112.07 -350.369)" fill="#e4e6f3"/>
    <path id="Trazado_112841" data-name="Trazado 112841" d="M364.018,1607.7v10.927l1.161.662,0-10.833Z" transform="translate(-109.287 -350.336)" fill="#fff"/>
    <path id="Trazado_112842" data-name="Trazado 112842" d="M413.295,1741.258s-.976,2.179,3.156,4.662,5.347,1.814,6.11.812-3.424-6.049-3.424-6.049l-2.925-.921Z" transform="translate(-143.973 -443.486)" fill="#3c2768"/>
    <path id="Trazado_112843" data-name="Trazado 112843" d="M472.78,1765.972l8.748-5.026.005-.678-8.753,5.054Z" transform="translate(-186 -457.949)" fill="#bdc1e1"/>
    <path id="Trazado_112844" data-name="Trazado 112844" d="M445.868,1749.978l7.93,4.488,8.753-5.053-7.849-4.535Z" transform="translate(-167.018 -447.094)" fill="#fff"/>
    <path id="Trazado_112845" data-name="Trazado 112845" d="M445.868,1762.187v.659l7.93,4.479v-.65Z" transform="translate(-167.018 -459.302)" fill="#bdc1e1"/>
    <path id="Trazado_112846" data-name="Trazado 112846" d="M476.406,1656.756l28.9-16.6v-2.5l-28.9,16.681Z" transform="translate(-188.557 -371.469)" fill="#bdc1e1"/>
    <path id="Trazado_112847" data-name="Trazado 112847" d="M379.666,1641.1s-1.147,3.124,4.833,6.576,5.085,23.993,5.085,23.993a3.924,3.924,0,0,0,3.968.365c2.1-1.07,3.294-1.408,2.291-2.268s.47-17.759-.768-20.336S379.666,1641.1,379.666,1641.1Z" transform="translate(-120.262 -373.9)" fill="#5678bb"/>
    <path id="Trazado_112848" data-name="Trazado 112848" d="M376.379,1592.273l29.476,16.682,32.535-18.783-29.173-16.858Z" transform="translate(-118.006 -326.086)" fill="#fff"/>
    <path id="Trazado_112849" data-name="Trazado 112849" d="M519.359,1634.277s-2.658-3.56-4.379-3.918-2.845.6-3.324-.06,2.524-4.153,3.851-3.013,2.258,2.357,3.905,3.073a24.517,24.517,0,0,0,3.371,1.146Z" transform="translate(-213.384 -363.993)" fill="#f59ca0"/>
    <path id="Trazado_112850" data-name="Trazado 112850" d="M534.028,1693.347l-14.595,8.343-14.6-8.343,14.593-8.427Z" transform="translate(-208.611 -404.804)" fill="#bdc1e1"/>
    <path id="Trazado_112851" data-name="Trazado 112851" d="M529.563,1690.782s-.954,4.634-3.125,5.794-8.745,5.711-14.144,2.624c-4.133-2.363-7.63-4.365-9.043-5.173-.433-.249-.67-.384-.67-.384a31.257,31.257,0,0,1,5.433-4.841h0a13.643,13.643,0,0,1,1.306-.768,23.043,23.043,0,0,1,6.748-2.148Z" transform="translate(-207.02 -405.486)" fill="#3c2768"/>
    <path id="Trazado_112852" data-name="Trazado 112852" d="M376.379,1592.273l32.838-18.959,29.173,16.858-34.609-6.95Z" transform="translate(-118.006 -326.086)" fill="#d9def0"/>
    <path id="Trazado_112853" data-name="Trazado 112853" d="M546.472,1642.139s-2.145,2.744-4.428,3.085-3.875,1.423-6.613,2.266-4.331-2.1-4.331-2.1a17.425,17.425,0,0,1,.189-5.127,22.617,22.617,0,0,1,2.034-6.107c-.318.538-1.79,2.3-1.79,2.3a6.039,6.039,0,0,1-3.008-1,6.266,6.266,0,0,1-1.971-2.684,10.3,10.3,0,0,1,1.827-2.515c1.074-1.008.859-3.466,1.521-5.293s3.744-4.365,4.846-5.19a6.268,6.268,0,0,0,1.272-1.094l8.541-1.756c3.532,3.119,1.816,11.156,2.343,15.441A40.02,40.02,0,0,1,546.472,1642.139Z" transform="translate(-223.928 -356.844)" fill="#5678bb"/>
    <path id="Trazado_112854" data-name="Trazado 112854" d="M551.957,1615.055a3.237,3.237,0,0,1,.708,2.113h1.689l.5-2.849-1.449-1.089Z" transform="translate(-241.845 -354.239)" fill="#f59ca0"/>
    <path id="Trazado_112855" data-name="Trazado 112855" d="M537.971,1594.084a15.859,15.859,0,0,0,.286,4.571c.525,2.542.826,2.574,1.8,2.272s3.072-1.234,3.5-2.272a11.2,11.2,0,0,0,.477-3.043l-2.339-3.671h-.719Z" transform="translate(-231.943 -339.225)" fill="#f59ca0"/>
    <path id="Trazado_112856" data-name="Trazado 112856" d="M509.465,1722.936v18.587l1.364-.786-.066-18.543Z" transform="translate(-211.875 -431.094)" fill="#fff"/>
    <path id="Trazado_112857" data-name="Trazado 112857" d="M596.292,1722.936v18.587l-1.364-.786.066-18.543Z" transform="translate(-272.154 -431.094)" fill="#bdc1e1"/>
    <path id="Trazado_112858" data-name="Trazado 112858" d="M432.653,1564.507a15.667,15.667,0,0,0,2.306,2.59c1.4,1.245,6.588,4.431,7.161,4.037a2.263,2.263,0,0,1,2.363.181,2.086,2.086,0,0,1,0,2.54,1.989,1.989,0,0,1-2.542.251,27.153,27.153,0,0,0-4.207-2.381c-1.575-.58-7.121-2.279-8.434-4l2.4-3.222Z" transform="translate(-155.332 -319.874)" fill="#f59ca0"/>
    <path id="Trazado_112859" data-name="Trazado 112859" d="M424.735,1542.637s.416,3.012,1.868,4.343a22.172,22.172,0,0,1,2.074,2.1,7.861,7.861,0,0,1-1.971,2.627,4.022,4.022,0,0,1-1.382.6s-1.245-1.611-1.314-1.716-.347-4.557-.347-4.557Z" transform="translate(-151.356 -304.449)" fill="#b3bade"/>
    <path id="Trazado_112860" data-name="Trazado 112860" d="M390.483,1546.5c-.782-2.231-1.435-2.529-1.4-5.058s.659-5.826-.037-7.854-6.894-3.715-6.894-3.715l-3.033-.224-.009.009c-.2.2-3.807,3.8-2.927,4.44.908.659,1.624,1.257.621,1.126s-1.114.3.372,1.349c1.163.819,3.317,5.253,4.2,7.166-1.215-2.509-4.867-9.383-7.679-7.453,0,0,.1.621.275,1.564.344,1.859.951,4.964,1.544,6.986l3.176,1.383-.564,1.515a12.764,12.764,0,0,0,2.395,3.921,53.113,53.113,0,0,0,4.66,3.3c-.181.143-.352.269-.51.384l.564-.347,2.392-1.458,3.157-1.927A12.231,12.231,0,0,0,390.483,1546.5Zm-5.668,4.162c1.352.556,2.89,1.289,2.334,2.409C386.35,1552.293,385.508,1551.428,384.815,1550.66Zm3.612-6.5c-.16,1.206-3.767,3.655-4.821,5.047a3.684,3.684,0,0,1-.212-.321c-.321-.556-.656-1.215-.945-1.819v0a14.932,14.932,0,0,0,2.091-.453C387.117,1545.88,388.636,1542.586,388.426,1544.161Z" transform="translate(-116.119 -295.287)" fill="#e4e6f3"/>
    <path id="Trazado_112861" data-name="Trazado 112861" d="M393.236,1517.129s-.91,2.045-1.244,3,1.48,6.492,3.246,5.442-.832-4.211-.215-5.217a9.876,9.876,0,0,0,.841-1.633l-1.1-2.339-1.04-.23Z" transform="translate(-128.99 -285.768)" fill="#f59ca0"/>
    <path id="Trazado_112862" data-name="Trazado 112862" d="M664.409,1341.743s.072,2.7,0,7.688l4.821.781a51.764,51.764,0,0,1,0-5.469c.192-.495-.882-5.364-.882-5.364Z" transform="translate(-321.16 -161.087)" fill="#f59ca0"/>
    <path id="Trazado_112863" data-name="Trazado 112863" d="M667.988,1319.76s-1.6.491-2.41,3.1a37.625,37.625,0,0,0-1.169,5.044,2.4,2.4,0,0,0,2.315.537Z" transform="translate(-321.16 -147.249)" fill="#fff"/>
    <path id="Trazado_112864" data-name="Trazado 112864" d="M721.616,1339.071s3.449,7.529,5.354,6.869,6.225-4.146,8.585-2.905,1.574,2.541,1,3.437-1.957-1.743-3.485-1.3-5.733,5.63-8.236,4.186a38.059,38.059,0,0,1-6.038-5.089l-.525-6.1Z" transform="translate(-359.152 -160.23)" fill="#f59ca0"/>
    <path id="Trazado_112865" data-name="Trazado 112865" d="M677.891,1311.8l2.2,1.36a18.385,18.385,0,0,1,3.389,2.112,15.837,15.837,0,0,1,4.536,5.2,4.233,4.233,0,0,0-2.388,2.149,6.477,6.477,0,0,0-.43,3.047s-1.384-2.569-2.578-3.142a4.2,4.2,0,0,0-.2,2.2l-1.553,1.849L675.6,1325.3l-4.917-1.953s-.357-6.482.8-8.2a8.612,8.612,0,0,1,3.648-2.637Z" transform="translate(-325.548 -141.634)" fill="#fff"/>
    <path id="Trazado_112866" data-name="Trazado 112866" d="M687.334,1302.2a7.92,7.92,0,0,0,0,2.829c.322.859-1.315,5.8-2.483,5.656s-.1-4.28-.278-4.95a5.283,5.283,0,0,0-.554-1.28l1.06-1.684Z" transform="translate(-334.991 -134.864)" fill="#f59ca0"/>
    <path id="Trazado_112867" data-name="Trazado 112867" d="M674.593,1291.706a6.276,6.276,0,0,0-.042,3.342,5.789,5.789,0,0,0,1.405,2.484.859.859,0,0,0,.875.225c.753-.232,2.213-1,3.681-3.5l.43-1.91-1.384-1.118-2.482-.291Z" transform="translate(-328.17 -126.923)" fill="#f59ca0"/>
    <path id="Trazado_112868" data-name="Trazado 112868" d="M670.541,1280.446s-1.281-1.48-1.986-.227.763,4.225,2.482,3.9,3.16-.954,3.191.024.174,2.124.5,1.694.286-1.862,1.11-1.181-.286,1.9,0,2.22,1.862-1.683,1.754-3.043a8.948,8.948,0,0,0-.4-2.172Z" transform="translate(-323.957 -119.004)" fill="#3c2768"/>
    <path id="Trazado_112869" data-name="Trazado 112869" d="M810.791,1486.784v12.651l-14.343-9.38v-9.131l5.728.62Z" transform="translate(-414.29 -260.92)" fill="#3c2768"/>
    <path id="Trazado_112870" data-name="Trazado 112870" d="M785.073,1448.326a7.172,7.172,0,0,1-.456,4.2c-.955,1.814-4.3,7.686-4.3,7.686l1.361.713s5.513-5.01,5.752-7.444a12.212,12.212,0,0,0-.595-4.735Z" transform="translate(-402.915 -237.929)" fill="#f59ca0"/>
    <path id="Trazado_112871" data-name="Trazado 112871" d="M799.429,1418.413a7.592,7.592,0,0,0-2.2,3.8,24.01,24.01,0,0,0-.785,5.013,5.759,5.759,0,0,0,2.265.42c1.05-.086,1.08-.42,1.08-.42Z" transform="translate(-414.29 -216.831)" fill="#e4e6f3"/>
    <path id="Trazado_112872" data-name="Trazado 112872" d="M810.318,1429.788c-.728,1.535-3.305,4.738-5.6,7.439a22.745,22.745,0,0,1-3.134-.6v0c1.169-1.885,2.5-3.961,3.308-4.969,1.676-2.1,2.326-8.08,2.326-8.08s-1.157-8.315.639-10.3a4.878,4.878,0,0,0-2.022,3.091c-.527,2.626.859,6.636,0,7.255s-3.391-.092-2.291.67,2.936-.1,2.589,2.005-.346,4.485-1.587,4.534-5.339-3.916-5.319-2.243-2.412,5.336,2.352,8.037a10.155,10.155,0,0,1-2.314-.911,9.928,9.928,0,0,1-3.649-3.572c-.08-.134-.152-.266-.215-.387-.023-.037-.04-.072-.057-.106a6.461,6.461,0,0,1-.441-1.034s2.412-3.437,1.956-4.869,0-10.148,1.481-12.514c1.392-2.225,6.7-2.165,6.7-2.165a5.349,5.349,0,0,1,3.546,1.8l0,0a6.48,6.48,0,0,1,1.355,4.391,37.84,37.84,0,0,1-.5,6.247c-.052.344-.1.65-.137.933a5.369,5.369,0,0,0,.017,1.856C809.665,1428.024,810.009,1427.359,810.318,1429.788Z" transform="translate(-413.198 -211.648)" fill="#fff"/>
    <path id="Trazado_112873" data-name="Trazado 112873" d="M820.759,1401.77s-.248,2.059.218,2.739-.967,5.084-2.435,5.084-.342-3.87-.466-4.429a1.941,1.941,0,0,0-.571-.942l.714-1Z" transform="translate(-429.143 -205.092)" fill="#f59ca0"/>
    <path id="Trazado_112874" data-name="Trazado 112874" d="M807.97,1390.2a7.212,7.212,0,0,0,0,3.287,5.489,5.489,0,0,0,1.416,2.806.782.782,0,0,0,.953.148c1.137-.641,3.818-2.323,3.648-3.849,0,0,.394-1.719.358-1.826s-.358-.9-.68-.9-3.294-.328-3.294-.328h-1.79Z" transform="translate(-422.296 -196.466)" fill="#f59ca0"/>
    <path id="Trazado_112875" data-name="Trazado 112875" d="M534.464,1344.57l-21.9,12.646,51.078,29.474,21.883-12.637Zm29.169,40.025-47.421-27.388,18.251-10.75,48.074,27.6Z" transform="translate(-214.06 -164.748)" fill="#b3bade"/>
    <path id="Trazado_112876" data-name="Trazado 112876" d="M591.272,1378.576l-18.9,10.538-47.421-27.388,18.251-10.75Z" transform="translate(-222.795 -169.266)" fill="#3c2768"/>
    <path id="Trazado_112877" data-name="Trazado 112877" d="M563.63,1420.688v29.991l-51.076-29.488v-33.7l.006,0,3.643,2.105,47.418,27.371c-.5.278-13.694,7.55-27.254,1.02.567.387,1.146.748,1.736,1.091C548.177,1424.93,558.371,1422.624,563.63,1420.688Z" transform="translate(-214.053 -195.023)" fill="#e4e6f3"/>
    <path id="Trazado_112878" data-name="Trazado 112878" d="M685.881,1457.3l21.894-12.64v33.7L685.881,1491Z" transform="translate(-336.305 -235.341)" fill="#b3bade"/>
    <path id="Trazado_112879" data-name="Trazado 112879" d="M586.854,1315.994v8.422l51.076,29.486v-8.424Z" transform="translate(-266.459 -144.592)" fill="#3c2768"/>
    <path id="Trazado_112880" data-name="Trazado 112880" d="M540.132,1319.114v7.5l-3.452,1.994-16.068,9.283C524.436,1333.607,534.2,1322.961,540.132,1319.114Z" transform="translate(-219.737 -146.793)" fill="#b3bade"/>
    <path id="Trazado_112881" data-name="Trazado 112881" d="M636.844,1348.649l-1.051,5.282-4.079-1.149-44.831-25.893V1319.5Z" transform="translate(-266.479 -147.067)" fill="#3c2768"/>
    <path id="Trazado_112882" data-name="Trazado 112882" d="M537.051,1317.52v8.421l-5.554,3.208-16.323,9.429-.014.008.009-.008c.083-.1.662-.765,1.6-1.81,3.824-4.285,13.588-14.931,19.52-18.778C536.549,1317.821,536.8,1317.663,537.051,1317.52Z" transform="translate(-215.891 -145.669)" fill="#b3bade"/>
    <path id="Trazado_112883" data-name="Trazado 112883" d="M535.22,1316.444c-.246.143-.5.3-.765.47-5.932,3.847-15.7,14.493-19.52,18.778-.936,1.045-1.515,1.713-1.6,1.81l-.773-.441.009-.009c.444-.513,14.7-16.911,21.883-21.058Z" transform="translate(-214.06 -144.592)" fill="#e4e6f3"/>
    <path id="Trazado_112884" data-name="Trazado 112884" d="M710.848,1427.359v7.5l-3.452,1.994-16.068,9.283C695.152,1441.852,704.916,1431.206,710.848,1427.359Z" transform="translate(-340.147 -223.141)" fill="#b3bade"/>
    <path id="Trazado_112885" data-name="Trazado 112885" d="M637.717,1346.555l-1.106.7-50.059-29.2.865-.528Z" transform="translate(-266.246 -145.669)" fill="#b3bade"/>
    <path id="Trazado_112886" data-name="Trazado 112886" d="M707.767,1416.045v8.421l-5.554,3.208L685.89,1437.1l-.014.009.009-.009c.083-.1.662-.765,1.6-1.81,3.824-4.285,13.588-14.931,19.52-18.778C707.266,1416.345,707.521,1416.188,707.767,1416.045Z" transform="translate(-336.301 -215.161)" fill="#e4e6f3"/>
    <path id="Trazado_112887" data-name="Trazado 112887" d="M705.932,1414.965c-.246.143-.5.3-.765.47a66.136,66.136,0,0,0-8.968,7.656c-4.116,4.024-8.12,8.4-10.352,10.9l-.2.226c-.936,1.045-1.515,1.713-1.6,1.81l-.773-.441.009-.009c.077-.092.593-.682,1.424-1.615,2.518-2.827,7.945-8.791,13.055-13.543a46.791,46.791,0,0,1,7.4-5.9Z" transform="translate(-334.467 -214.082)" fill="#b3bade"/>
    <path id="Trazado_112888" data-name="Trazado 112888" d="M613.936,1361.937v8.421l-5.554,3.208-16.323,9.429-.014.008.009-.008c.083-.1.662-.765,1.6-1.81,3.824-4.285,13.588-14.931,19.52-18.778C613.434,1362.238,613.689,1362.08,613.936,1361.937Z" transform="translate(-270.119 -176.997)" fill="#e4e6f3"/>
    <path id="Trazado_112889" data-name="Trazado 112889" d="M612.105,1360.864c-.246.143-.5.3-.765.47a65.176,65.176,0,0,0-8.822,7.51l0,0c-3.048,2.976-6.049,6.158-8.324,8.641l0,0c-.925,1.011-1.73,1.9-2.369,2.621-.937,1.046-1.515,1.713-1.6,1.81l-.773-.441.009-.009c.072-.083.513-.59,1.232-1.4,2.415-2.721,7.968-8.845,13.2-13.717h0a46.752,46.752,0,0,1,7.45-5.943Z" transform="translate(-268.289 -175.923)" fill="#b3bade"/>
    <path id="Trazado_112890" data-name="Trazado 112890" d="M568.975,1364.548l-21.883,12.637,1.519.866,21.932-12.609Z" transform="translate(-238.414 -178.839)" fill="#b3bade"/>
    <path id="Trazado_112891" data-name="Trazado 112891" d="M648.426,1410.487l-21.883,12.637,1.519.866,21.932-12.609Z" transform="translate(-294.452 -211.24)" fill="#b3bade"/>
    <path id="Trazado_112892" data-name="Trazado 112892" d="M524.947,1363.332s2.088-2.851,3.321-3.126,1.788,1.777,3.2,1.2-.255-3.962,1.536-4.631,1.266.239,2.029,0,.746-1.784,1.384-1.719.907,2.765,1.623,2.528.1-2.354,1.193-2.226.812,1.035,1.671.987.182-2.987,2.191-3.093,1.914,2.408,2.773,2.106,1.363-1.448,2.3-.779-.2,2.005.607,2.339,1.623-.539,2.339-.341a.866.866,0,0,1,.639.919l-18.458,10.659Z" transform="translate(-222.794 -170.873)" fill="#f69874"/>
    <path id="Trazado_112893" data-name="Trazado 112893" d="M582.025,1379.129c-5.23,4.872-10.784,11-13.2,13.717l-10.374-5.989s1.971-2.635,2.987-2.469.553,1.409,1.733,1.231,1.512-1.672,4.614-1.452,4.918.7,5.728-.687.186-5.13,1.885-4.952.979,1.349,2.363,1.266C579.12,1379.713,581.908,1379.154,582.025,1379.129Z" transform="translate(-246.426 -188.694)" fill="#fff"/>
    <path id="Trazado_112894" data-name="Trazado 112894" d="M627.055,1400.183s-2.781-3.284-4.514-3.435-2.578,1.126-3.724.307-1.48-2.919-3.866-2.3-1.623,1.146-3.676,1.48-3.716.525-4.2,1.575a3.149,3.149,0,0,1-2.582,1.909c-1.1.048-2.708,1.182-2.626,2.2s.668,1.719-.286,1.909-2.2-.126-2.769.39-.413.818-.413.818l10.125,5.848Z" transform="translate(-274.589 -200.066)" fill="#5678bb"/>
    <path id="Trazado_112895" data-name="Trazado 112895" d="M665.788,1421.574c-5.11,4.752-10.538,10.715-13.055,13.542-.39-.014-.667-.029-.667-.029l-14.124-8.157s4.434-2.016,5.829-3.351,2.4-.937,3.617-1.475.931-1.4,2.005-2.039,1.36-.172,2.326-.608,1.326-1.506,2.148-1.97,1.04.106,1.612-.218.3-1.441,1.037-1.017.988.922,1.785,1.022,1.1.636,2.048,1.177.965.323,1.862.788.37.931,1.223,1.361S665.213,1420.95,665.788,1421.574Z" transform="translate(-302.492 -215.24)" fill="#f69874"/>
    <path id="Trazado_112896" data-name="Trazado 112896" d="M587.733,1370.293c0,.431-.551.781-1.231.781s-1.231-.35-1.231-.781.551-.781,1.231-.781S587.733,1369.862,587.733,1370.293Z" transform="translate(-265.342 -182.34)" fill="#ee3f5c"/>
    <path id="Trazado_112897" data-name="Trazado 112897" d="M559.126,1373.88c0,.216-.276.391-.616.391s-.616-.175-.616-.391.276-.391.616-.391S559.126,1373.664,559.126,1373.88Z" transform="translate(-246.033 -185.145)" fill="#5678bb"/>
    <path id="Trazado_112898" data-name="Trazado 112898" d="M569.191,1380.968c0,.431-.551.781-1.231.781s-1.231-.35-1.231-.781.551-.781,1.231-.781S569.191,1380.536,569.191,1380.968Z" transform="translate(-252.263 -189.869)" fill="#fff"/>
    <path id="Trazado_112899" data-name="Trazado 112899" d="M548.835,1388.6c0,.216-.276.391-.616.391s-.616-.175-.616-.391.276-.391.616-.391S548.835,1388.387,548.835,1388.6Z" transform="translate(-238.775 -195.53)" fill="#ee3f5c"/>
    <path id="Trazado_112900" data-name="Trazado 112900" d="M659.535,1408.519c0,.431-.551.781-1.231.781s-1.231-.35-1.231-.781.551-.781,1.231-.781S659.535,1408.087,659.535,1408.519Z" transform="translate(-315.985 -209.301)" fill="#ee3f5c"/>
    <ellipse id="Elipse_6301" data-name="Elipse 6301" cx="0.616" cy="0.391" rx="0.616" ry="0.391" transform="translate(329.987 1203.947)" fill="#ee3f5c"/>
    <path id="Trazado_112901" data-name="Trazado 112901" d="M639.366,1428.5c0,.432-.551.781-1.231.781s-1.231-.35-1.231-.781.551-.781,1.231-.781S639.366,1428.072,639.366,1428.5Z" transform="translate(-301.759 -223.397)" fill="#fff"/>
    <ellipse id="Elipse_6302" data-name="Elipse 6302" cx="1.231" cy="0.781" rx="1.231" ry="0.781" transform="translate(333.912 1199.246)" fill="#f69874"/>
    <path id="Trazado_112902" data-name="Trazado 112902" d="M656.869,1421.915c0,.216-.276.391-.616.391s-.616-.175-.616-.391.276-.391.616-.391S656.869,1421.7,656.869,1421.915Z" transform="translate(-314.974 -219.025)" fill="#ee3f5c"/>
    <path id="Trazado_112903" data-name="Trazado 112903" d="M708.446,1438.431c0,.431-.551.781-1.231.781s-1.231-.35-1.231-.781.551-.781,1.231-.781S708.446,1438,708.446,1438.431Z" transform="translate(-350.483 -230.399)" fill="#ee3f5c"/>
    <path id="Trazado_112904" data-name="Trazado 112904" d="M679.839,1442.019c0,.216-.276.391-.616.391s-.616-.175-.616-.391.276-.391.616-.391S679.839,1441.8,679.839,1442.019Z" transform="translate(-331.175 -233.205)" fill="#5678bb"/>
    <path id="Trazado_112905" data-name="Trazado 112905" d="M689.9,1449.105c0,.432-.551.781-1.231.781s-1.231-.35-1.231-.781.551-.781,1.231-.781S689.9,1448.674,689.9,1449.105Z" transform="translate(-337.405 -237.928)" fill="#fff"/>
    <path id="Trazado_112906" data-name="Trazado 112906" d="M669.548,1456.741c0,.216-.276.391-.616.391s-.616-.175-.616-.391.276-.391.616-.391S669.548,1456.526,669.548,1456.741Z" transform="translate(-323.916 -243.589)" fill="#ee3f5c"/>
    <path id="Trazado_112907" data-name="Trazado 112907" d="M618.48,1388.24c0,.432-.551.781-1.231.781s-1.231-.35-1.231-.781.551-.781,1.231-.781S618.48,1387.809,618.48,1388.24Z" transform="translate(-287.028 -194.998)" fill="#ee3f5c"/>
    <path id="Trazado_112908" data-name="Trazado 112908" d="M580.2,1408.128c0,.216-.276.391-.616.391s-.616-.175-.616-.391.276-.391.616-.391S580.2,1407.912,580.2,1408.128Z" transform="translate(-260.899 -209.301)" fill="#5678bb"/>
    <path id="Trazado_112909" data-name="Trazado 112909" d="M597.5,1407.193c0,.431-.551.781-1.231.781s-1.231-.35-1.231-.781.551-.781,1.231-.781S597.5,1406.761,597.5,1407.193Z" transform="translate(-272.23 -208.366)" fill="#f69874"/>
    <path id="Trazado_112910" data-name="Trazado 112910" d="M563.649,1416.964l-.014.009c-.5.278-13.694,7.55-27.254,1.02-.636-.306-1.272-.641-1.907-1.011-14.327-8.309-21.757-29.081-21.9-29.484v0l3.64,2.1,0,0Z" transform="translate(-214.067 -195.023)" fill="#fff"/>
    <path id="Trazado_112911" data-name="Trazado 112911" d="M620.628,1487.538v3.709c-5.259,1.936-15.453,4.242-25.526-1.6-.59-.344-1.168-.7-1.736-1.091,13.56,6.531,26.758-.742,27.254-1.02Z" transform="translate(-271.052 -265.582)" fill="#b3bade"/>
    <path id="Trazado_112912" data-name="Trazado 112912" d="M801.542,1381.281s.812,2.506,2.626,2.506,1.862-.549,2.482-.262.536,1.933,1.05,1.647.883-1.551,1.289-1-.716,1.528-.239,2.077.549.645,1.217,0a3.081,3.081,0,0,0,.979-2.506,4.7,4.7,0,0,0-.6-1.981s-3.1-1.51-3.2-1.447-2.267.158-2.267.158Z" transform="translate(-417.883 -189.956)" fill="#3c2768"/>
    <path id="Trazado_112913" data-name="Trazado 112913" d="M796.7,1374.285s-1.093.649,1.246,1.675,7.413,2.146,9.268,1.61c0,0,.279-4.013-3.015-4.685s-4.249,1.714-4.249,1.714Z" transform="translate(-414.29 -184.635)" fill="#ee3f5c"/>
    <path id="Trazado_112914" data-name="Trazado 112914" d="M821.8,1453.014a28.107,28.107,0,0,1-.888,5.1,2.449,2.449,0,0,1-.163.4c-.728,1.535-3.305,4.738-5.6,7.439-.178.206-.352.41-.521.607-1.856,2.157-3.411,3.858-3.472,3.878a9.483,9.483,0,0,1-1.467-1.24s1.066-1.81,2.326-3.847v0c1.169-1.885,2.5-3.961,3.308-4.969,1.676-2.1,2.326-8.08,2.326-8.08l1.146-.507,1.074.438Z" transform="translate(-423.626 -240.373)" fill="#f59ca0"/>
    <path id="Trazado_112915" data-name="Trazado 112915" d="M839.971,1428.594a7.443,7.443,0,0,1-2.071.149,3.233,3.233,0,0,1-.722-.149,2.962,2.962,0,0,1-1.361-.716s-1.157-8.315.639-10.3a1.164,1.164,0,0,1,.716-.407.008.008,0,0,1,.006,0h0l0,0c.143.049,2.44.916,2.787,5.287A24.512,24.512,0,0,1,839.971,1428.594Z" transform="translate(-441.8 -215.953)" fill="#e4e6f3"/>
    <path id="Trazado_112916" data-name="Trazado 112916" d="M698.27,1508.99v29.485l25.539,14.745,0-29.469Z" transform="translate(-345.043 -280.717)" fill="#e4e6f3"/>
    <path id="Trazado_112917" data-name="Trazado 112917" d="M723.805,1498.546,742.052,1488l-25.543-14.743-18.239,10.53Z" transform="translate(-345.043 -255.512)" fill="#fff"/>
    <path id="Trazado_112918" data-name="Trazado 112918" d="M803.173,1523.286v29.488L784.93,1563.3l0-29.469Z" transform="translate(-406.163 -290.8)" fill="#b3bade"/>
    <path id="Trazado_112919" data-name="Trazado 112919" d="M795.657,1507.518l-10.73,6.2v-12.941a16.3,16.3,0,0,1,7.264,1.289l.037.02A5.765,5.765,0,0,1,795.657,1507.518Z" transform="translate(-406.164 -274.907)" fill="#3c2768"/>
    <path id="Trazado_112920" data-name="Trazado 112920" d="M746.047,1478.958l-3.609,2.082L735.583,1485l-.266.152v-12.938l10.707,6.173v0C746.038,1478.574,746.047,1478.764,746.047,1478.958Z" transform="translate(-371.173 -254.777)" fill="#3c2768"/>
    <path id="Trazado_112921" data-name="Trazado 112921" d="M749.936,1480.643l-.009,3.8.009,9.14-14.619-8.432h0v-12.938l10.707,6.172v0Z" transform="translate(-371.173 -254.777)" fill="#b3bade"/>
    <path id="Trazado_112922" data-name="Trazado 112922" d="M757.2,1481.884a16.3,16.3,0,0,0-7.264-1.289l-3.912-2.254v0l-10.707-6.173s5.241-.358,8.4,1.979l.009.005Z" transform="translate(-371.173 -254.73)" fill="#fff"/>
    <path id="Trazado_112923" data-name="Trazado 112923" d="M766.16,1469.578v2.757l7.161,4.135v-2.757Z" transform="translate(-392.927 -252.919)" fill="#fff"/>
    <path id="Trazado_112924" data-name="Trazado 112924" d="M790.463,1485.955l.312-.172v-2.757l-.312.172Z" transform="translate(-410.068 -262.404)" fill="#3c2768"/>
    <path id="Trazado_112925" data-name="Trazado 112925" d="M773.634,1473.13,766.473,1469l-.312.172,7.161,4.135Z" transform="translate(-392.927 -252.508)" fill="#e4e6f3"/>
    <path id="Trazado_112926" data-name="Trazado 112926" d="M774.3,1483.589v2.763l2.376,1.379-.01-2.763Z" transform="translate(-398.667 -262.801)" fill="#3c2768"/>
    <path id="Trazado_112927" data-name="Trazado 112927" d="M782.336,1491.03l.411-.251v-2.269l-.422-.243Z" transform="translate(-404.33 -266.1)" fill="#e4e6f3"/>
    <path id="Trazado_112928" data-name="Trazado 112928" d="M766.16,1469.578l7.161,6.891-7.161-4.135Z" transform="translate(-392.927 -252.919)" fill="#e4e6f3"/>
    <path id="Trazado_112929" data-name="Trazado 112929" d="M816.125,1428.859s-.65,5.978-2.326,8.08c-.808,1.008-2.139,3.085-3.308,4.969,0,0,0,0-.006,0-4.763-2.7-2.331-6.367-2.351-8.037s4.076,2.291,5.319,2.243,1.24-2.435,1.587-4.534-1.492-1.243-2.589-2.005,1.432-.049,2.291-.67-.527-4.629,0-7.255a4.878,4.878,0,0,1,2.022-3.091C814.968,1420.544,816.125,1428.859,816.125,1428.859Z" transform="translate(-422.107 -216.934)" fill="#e4e6f3"/>
    <path id="Trazado_112930" data-name="Trazado 112930" d="M833.195,1482.326a38.411,38.411,0,0,1-4.984-.283c2.3-2.7,4.875-5.9,5.6-7.438.034.249.066.53.1.848A20.228,20.228,0,0,1,833.195,1482.326Z" transform="translate(-436.693 -256.464)" fill="#e4e6f3"/>
    <path id="Trazado_112931" data-name="Trazado 112931" d="M799.864,1432.382c-1.527.286-4.692,3.706-4.253,4.932,0,0,0,.006,0,.009a4.077,4.077,0,0,1,.141.432c-.04-.046-.264-.59-.355-.819-.026-.063-.043-.1-.043-.1l-.014,0a6.459,6.459,0,0,1-.441-1.034s2.412-3.437,1.956-4.869,0-10.148,1.481-12.514c0,0-1.5,7.284-1.011,9.91S801.393,1432.1,799.864,1432.382Z" transform="translate(-413.198 -216.831)" fill="#e4e6f3"/>
    <path id="Trazado_112932" data-name="Trazado 112932" d="M673.507,1269.986s.489,1.1,3,1.1,3.426-1.1,3.426-1.1l.93-6.827h-8.593Z" transform="translate(-326.702 -107.327)" fill="#fff"/>
    <path id="Trazado_112933" data-name="Trazado 112933" d="M679.511,1253.651a176.34,176.34,0,0,0-8.1,2.426,2.423,2.423,0,0,1-.378-4.818,2.056,2.056,0,0,0,.808,3.947,2.093,2.093,0,0,0,1.2-.389,1.84,1.84,0,0,0,.341.246,2.055,2.055,0,0,0,1.02.269,2.1,2.1,0,0,0,.793-.157.826.826,0,0,1,1.223.017,2.025,2.025,0,0,0,.232.014,2.056,2.056,0,0,0,.811-3.947A2.422,2.422,0,0,1,679.511,1253.651Z" transform="translate(-324.39 -98.934)" fill="#e4e6f3"/>
    <path id="Trazado_112934" data-name="Trazado 112934" d="M675.752,1253.572s0,0,0,0a2.424,2.424,0,0,1-.453,1.412,1.82,1.82,0,0,1-.341-.246,2.094,2.094,0,0,1-1.2.39,2.056,2.056,0,0,1-.808-3.947,2.34,2.34,0,0,1,.378-.032,2.42,2.42,0,0,1,1.564.57l.04.034A2.416,2.416,0,0,1,675.752,1253.572Z" transform="translate(-326.302 -98.858)" fill="#fff"/>
    <path id="Trazado_112935" data-name="Trazado 112935" d="M684.094,1254.073a2.428,2.428,0,0,1-.438,1.392,2.026,2.026,0,0,1-.8-.26,2.053,2.053,0,0,1-.427.243,2.1,2.1,0,0,1-.793.157,2.055,2.055,0,0,1-1.02-.269,1.842,1.842,0,0,1-.341-.246,1.928,1.928,0,0,1-.641.309,2.426,2.426,0,0,1,.355-3.082,1.989,1.989,0,0,1,.258-.212,2.121,2.121,0,0,1,.255-.164,2.454,2.454,0,0,1,1.163-.295,2.41,2.41,0,0,1,.922.183,2.587,2.587,0,0,1,.547.312A2.418,2.418,0,0,1,684.094,1254.073Z" transform="translate(-331.622 -99.207)" fill="#fff"/>
    <path id="Trazado_112936" data-name="Trazado 112936" d="M692.293,1253.074a2.057,2.057,0,0,1-2.059,2.057,2.117,2.117,0,0,1-1.028-.275,2.05,2.05,0,0,1-.427.243,2.4,2.4,0,0,1-.538-1.524s0,0,0,0a2.42,2.42,0,0,1,.985-1.948.4.4,0,0,0,.043-.031,2.423,2.423,0,0,1,1.4-.441,2.339,2.339,0,0,1,.378.032A2.053,2.053,0,0,1,692.293,1253.074Z" transform="translate(-337.968 -98.858)" fill="#fff"/>
    <path id="Trazado_112937" data-name="Trazado 112937" d="M682.454,1337.23l-11.511-6.642a14.422,14.422,0,0,1-.249-4.119,4.152,4.152,0,0,1,1.845-.381,26.208,26.208,0,0,1-.078-9.211.928.928,0,0,1,.447-.536.665.665,0,0,1,.733,0c-1.037,2.6,0,9.756,0,9.756.2.006.4.015.59.034a11.462,11.462,0,0,1,4.554,1.4,26.274,26.274,0,0,0,1.315-11.245c.991.074,1.008.441,1.008.467,1.048,2.34-1.106,10.956-1.106,10.956.67.478,2.429.143,2.429.143a22.334,22.334,0,0,0,.484,4.01A12.775,12.775,0,0,1,682.454,1337.23Z" transform="translate(-325.56 -144.759)" fill="#fff"/>
    <path id="Trazado_112938" data-name="Trazado 112938" d="M683.162,1337.358l-3.726-2.151-7.785-4.491s.911-3.884,3.38-3.2,4.52,1.968,4.463.143a26.275,26.275,0,0,0,1.315-11.245c.991.074,1.008.441,1.008.467,1.048,2.34-1.106,10.956-1.106,10.956.67.478,2.429.143,2.429.143a17.376,17.376,0,0,0,.137,1.85c.072.607.181,1.337.346,2.16A12.777,12.777,0,0,1,683.162,1337.358Z" transform="translate(-326.268 -144.887)" fill="#e4e6f3"/>
    <path id="Trazado_112939" data-name="Trazado 112939" d="M694.566,1369.112l-3.869-2.22a1.265,1.265,0,0,0,.143.069c1.349.6,1.716-1.043,2.721-1.194,1.037-.158-4.835-2.312-5.623-3.678s2.541-.209,3.867-.031a6.494,6.494,0,0,0,2.876-.476c.072.607.181,1.338.347,2.16A12.776,12.776,0,0,1,694.566,1369.112Z" transform="translate(-337.672 -176.641)" fill="#d1d5e4"/>
    <path id="Trazado_112940" data-name="Trazado 112940" d="M680.351,1326.333l-.057.063c-.192-.02-.39-.029-.59-.034,0,0-1.037-7.158,0-9.756C679.7,1316.606,679.455,1325.981,680.351,1326.333Z" transform="translate(-331.623 -145.024)" fill="#e4e6f3"/>
    <path id="Trazado_112941" data-name="Trazado 112941" d="M648.749,1137.311l15.691,13.269,2.548,30.961v-33.7Z" transform="translate(-310.115 -18.563)" fill="#3c2768"/>
    <path id="Trazado_112942" data-name="Trazado 112942" d="M723.031,1180.2l26.519,18.974,2.666,31.577v-33.7Z" transform="translate(-362.508 -48.811)" fill="#3c2768"/>
    <path id="Trazado_112943" data-name="Trazado 112943" d="M846.847,1528.358l18.238-10.532v-29.156l-18.239,10.2Z" transform="translate(-449.838 -266.384)" fill="#e4e6f3"/>
    <path id="Trazado_112944" data-name="Trazado 112944" d="M860.714,1486.784l-1.826-.788-18.239,10.2,1.826.788Z" transform="translate(-445.466 -264.499)" fill="#b3bade"/>
    <path id="Trazado_112945" data-name="Trazado 112945" d="M477.628,1367.3l-14.6-8.435.008,33.7L477.623,1401Z" transform="translate(-179.122 -174.834)" fill="#e4e6f3"/>
    <path id="Trazado_112946" data-name="Trazado 112946" d="M463.029,1356.929l1.419-.81,14.142,8.145-.962,1.1Z" transform="translate(-179.122 -172.894)" fill="#b3bade"/>
    <path id="Trazado_112947" data-name="Trazado 112947" d="M477.647,1387.494v33.7l-14.592-8.428,12.48,4.346Z" transform="translate(-179.14 -195.023)" fill="#b3bade"/>
    <path id="Trazado_112948" data-name="Trazado 112948" d="M401.841,1499.424a9.269,9.269,0,0,1,0,4.835c-.644,3.222-1.683,3.365-1.683,3.365a5.665,5.665,0,0,1-3.257-2.15c-1.362-1.824-1.08-3.041-1.08-3.041l.578-3.009,3.473-1Z" transform="translate(-131.702 -273.264)" fill="#f59ca0"/>
    <path id="Trazado_112949" data-name="Trazado 112949" d="M395.079,1476.045s3.043,2.4-.5,7.374c-2.072,2.908-3.437,1.4-3.33,2.293s.52,1.4-.009,1.307-.958-1.128-1.6-.627-.68,1.575,0,1.719c0,0-1.853,1.513-3.182-.107-2.614-3.186.962-5.048.962-5.048s-.447-2.634,1.343-3.028S393.217,1474.434,395.079,1476.045Z" transform="translate(-124.439 -257.259)" fill="#3c2768"/>
    <path id="Trazado_112950" data-name="Trazado 112950" d="M392.2,1581.069s0,0,0,0a4.93,4.93,0,0,1-1.117,1.538,3.851,3.851,0,0,1-2.346,1l.564-1.515.59-1.581Z" transform="translate(-126.725 -331.164)" fill="#f59ca0"/>
    <path id="Trazado_112951" data-name="Trazado 112951" d="M474.968,1587.609a1.562,1.562,0,0,1-.835.119,1.267,1.267,0,0,1-.656-.227s-.227,2.53.072,2.709a1.417,1.417,0,0,1-.477-1.157c-.036-.871.06-1.707.334-1.8S475.756,1587.305,474.968,1587.609Z" transform="translate(-186.2 -335.896)" fill="#c76a72"/>
    <path id="Trazado_112952" data-name="Trazado 112952" d="M381.478,1543.959c-1.1-2.314-4.88-9.638-7.774-7.653a22.343,22.343,0,0,1,5.408-6.628c-.2.2-3.807,3.8-2.927,4.44.908.659,1.624,1.257.621,1.126s-1.114.3.372,1.349C378.381,1537.44,380.653,1542.175,381.478,1543.959Z" transform="translate(-116.119 -295.309)" fill="#b3bade"/>
    <path id="Trazado_112953" data-name="Trazado 112953" d="M389.544,1591.306c-.181.143-.352.269-.51.384l-1.315.8a.009.009,0,0,1-.006,0l-6.336,3.867a22.689,22.689,0,0,1-.9-6.339c.037-3.4.859-5.23-.143-7.522a11.853,11.853,0,0,1-.458-1.318l3.176,1.383-.564,1.515a12.765,12.765,0,0,0,2.395,3.921A53.115,53.115,0,0,0,389.544,1591.306Z" transform="translate(-120.473 -331.637)" fill="#b3bade"/>
    <path id="Trazado_112954" data-name="Trazado 112954" d="M406.49,1617.639l1.315-.8A8.4,8.4,0,0,1,406.49,1617.639Z" transform="translate(-139.244 -356.784)" fill="#c76a72"/>
    <path id="Trazado_112955" data-name="Trazado 112955" d="M409.357,1577.891c-.16,1.206-3.767,3.655-4.821,5.047a3.652,3.652,0,0,1-.212-.321c-.321-.556-.656-1.215-.945-1.819v0a14.946,14.946,0,0,0,2.091-.453C408.048,1579.609,409.566,1576.316,409.357,1577.891Z" transform="translate(-137.05 -329.017)" fill="#b3bade"/>
    <path id="Trazado_112956" data-name="Trazado 112956" d="M413.742,1603.363c-.8-.776-1.641-1.641-2.334-2.409C412.76,1601.51,414.3,1602.243,413.742,1603.363Z" transform="translate(-142.713 -345.581)" fill="#b3bade"/>
    <path id="Trazado_112957" data-name="Trazado 112957" d="M380.8,1559.7a2.477,2.477,0,0,1-.192.573s0,0,0,0a4.928,4.928,0,0,1-1.117,1.538,3.85,3.85,0,0,1-2.346,1v0c-.2.011-.327.006-.327.006a12.074,12.074,0,0,1-2.286-2.907,24.884,24.884,0,0,1-1.246-2.326,8.51,8.51,0,0,1-.885-5.184,3.882,3.882,0,0,1,.312-1.04c2.893-1.985,6.671,5.339,7.774,7.653.135.286.229.5.278.6.006.014.011.026.014.034Z" transform="translate(-115.127 -310.365)" fill="#e4e6f3"/>
    <path id="Trazado_112958" data-name="Trazado 112958" d="M568.963,1633.572,554.373,1642v12.641l14.593-8.426Z" transform="translate(-243.549 -368.587)" fill="#bdc1e1"/>
    <path id="Trazado_112959" data-name="Trazado 112959" d="M565.555,1631.54l-1.471-.849-14.542,8.454,1.424.822Z" transform="translate(-240.142 -366.555)" fill="#e4e6f3"/>
    <path id="Trazado_112960" data-name="Trazado 112960" d="M549.542,1659.38v12.537l1.424.927V1660.2Z" transform="translate(-240.142 -386.79)" fill="#e4e6f3"/>
    <path id="Trazado_112961" data-name="Trazado 112961" d="M600.835,1676.476v10.916l-1.279.663v-10.84Z" transform="translate(-275.418 -398.849)" fill="#e4e6f3"/>
    <path id="Trazado_112962" data-name="Trazado 112962" d="M595.616,1679.641v9.511l1.161.662v-10.843Z" transform="translate(-272.639 -400.608)" fill="#fff"/>
    <path id="Trazado_112963" data-name="Trazado 112963" d="M555.657,1702.546v10.915l-1.279.663-.015-10.836Z" transform="translate(-243.542 -417.236)" fill="#e4e6f3"/>
    <path id="Trazado_112964" data-name="Trazado 112964" d="M550.418,1702.5v10.927l1.161.662,0-10.833Z" transform="translate(-240.76 -417.203)" fill="#fff"/>
    <path id="Trazado_112965" data-name="Trazado 112965" d="M504.838,1713.518v2.548l14.593,8.357,0-2.562Z" transform="translate(-208.611 -424.975)" fill="#d9def0"/>
    <path id="Trazado_112966" data-name="Trazado 112966" d="M554.361,1724.423l14.6-8.348v-2.557l-14.595,8.343Z" transform="translate(-243.541 -424.975)" fill="#fff"/>
    <path id="Trazado_112967" data-name="Trazado 112967" d="M554.361,1748.748v18.587l1.364-.786-.066-18.543Z" transform="translate(-243.541 -449.3)" fill="#fff"/>
    <path id="Trazado_112968" data-name="Trazado 112968" d="M551.1,1748.748v18.587l-1.364-.786.066-18.543Z" transform="translate(-240.277 -449.3)" fill="#bdc1e1"/>
    <path id="Trazado_112969" data-name="Trazado 112969" d="M599.556,1722.936v18.587l1.364-.786-.066-18.543Z" transform="translate(-275.418 -431.094)" fill="#fff"/>
    <path id="Trazado_112970" data-name="Trazado 112970" d="M506.2,1722.936v18.587l-1.364-.786.066-18.543Z" transform="translate(-208.611 -431.094)" fill="#bdc1e1"/>
    <path id="Trazado_112971" data-name="Trazado 112971" d="M538.1,1587.936s.358-6.372,5.3-4.3c3.521,1.48,3.7,7.968,5.538,7.767s6.245,2.552,5.616,6.654-3.3,10.318-8.2,8.427-1.635-4.79-2.815-6.3c-1.359-1.739,1.575-5.627.144-6.712s-1.293-2.864-1.5-4.3S538.1,1587.936,538.1,1587.936Z" transform="translate(-232.072 -333.076)" fill="#3c2768"/>
    <path id="Trazado_112972" data-name="Trazado 112972" d="M376.379,1637.652v2.449l29.476,16.65v-2.417Z" transform="translate(-118.006 -371.465)" fill="#e4e6f3"/>
    <path id="Trazado_112973" data-name="Trazado 112973" d="M469.223,1698.411v18.949a2.7,2.7,0,0,0,2.117.707c1.552,0,1.7-.609,1.7-.609v-18.826l-1.7.974Z" transform="translate(-183.491 -414.32)" fill="#bdc1e1"/>
    <path id="Trazado_112974" data-name="Trazado 112974" d="M368.387,1655.932v18.587l1.364-.786-.061-17.051Z" transform="translate(-112.369 -384.358)" fill="#bdc1e1"/>
    <path id="Trazado_112975" data-name="Trazado 112975" d="M365.123,1654.156v18.587l-1.364-.786.066-18.543Z" transform="translate(-109.105 -382.582)" fill="#d9def0"/>
    <path id="Trazado_112976" data-name="Trazado 112976" d="M474.678,1758.547s.739,1.413-.256,2.276-8.872.964-8.908,0,6.518-2.868,6.518-2.868l1.574-.494Z" transform="translate(-180.875 -455.968)" fill="#3c2768"/>
    <path id="Trazado_112977" data-name="Trazado 112977" d="M492.037,1698.105s.238.135.67.384l-.006,0,.066,2.555-2.489,11.48a6.379,6.379,0,0,1-1.538,0c-1-.095-1.109-.593-1.109-.593s1.753-18.718,3.7-19.506c1.91-.773,5.995.779,6.141.836A31.258,31.258,0,0,0,492.037,1698.105Z" transform="translate(-196.475 -409.948)" fill="#f59ca0"/>
    <path id="Trazado_112978" data-name="Trazado 112978" d="M489.685,1645.72s-.007.076-.022.207a2.553,2.553,0,0,0-4.48,0c0-.005,0-.01,0-.015-.007-.067-.012-.12-.017-.153s0-.042,0-.042c0-.849,1.012-1.538,2.262-1.538S489.685,1644.871,489.685,1645.72Z" transform="translate(-194.732 -376.071)" fill="#e4e6f3"/>
    <path id="Trazado_112979" data-name="Trazado 112979" d="M489.722,1650.2c-.1.81-.571,3.444-2.238,3.444s-2.132-2.634-2.233-3.444a2.567,2.567,0,0,0,4.471,0Z" transform="translate(-194.796 -380.313)" fill="#e4e6f3"/>
    <path id="Trazado_112980" data-name="Trazado 112980" d="M489.715,1646.929s0,.012,0,.017a.016.016,0,0,1,0,.01,2.567,2.567,0,0,1-4.471,0c0-.007,0-.017,0-.025a2.553,2.553,0,0,1,4.48,0Z" transform="translate(-194.785 -377.072)" fill="#3c2768"/>
    <path id="Trazado_112981" data-name="Trazado 112981" d="M498.306,1657.593a.694.694,0,0,1-.31.433.5.5,0,0,1-.465-.106,4.126,4.126,0,0,0,.3-.519A2.218,2.218,0,0,1,498.306,1657.593Z" transform="translate(-203.457 -385.394)" fill="#bdc1e1"/>
    <path id="Trazado_112982" data-name="Trazado 112982" d="M490.022,1660.24c0,.785-.884,1.423-1.972,1.423s-1.972-.637-1.972-1.423a1.1,1.1,0,0,1,.059-.349,1.453,1.453,0,0,0,.95.349,1.557,1.557,0,0,0,1.214-.611.919.919,0,0,0,.5.177.589.589,0,0,0,.217-.042.877.877,0,0,0,.428-.53A1.262,1.262,0,0,1,490.022,1660.24Z" transform="translate(-195.379 -386.688)" fill="#bdc1e1"/>
    <path id="Trazado_112983" data-name="Trazado 112983" d="M500.7,1663.26s-2.864,3.437-5.66,3.8-8.948-6.548-8.948-6.548-1.862.306-2.913-2.211.621-3.471,1.194-3.374-.954,1.478-.192,2.128,1.862.209,2.435.4.478.292.573,1.633,3.964,2.383,5.789,2.578,2.744-2.091,2.744-2.091a6.266,6.266,0,0,0,1.971,2.684A6.039,6.039,0,0,0,500.7,1663.26Z" transform="translate(-193.096 -383.647)" fill="#f59ca0"/>
    <path id="Trazado_112984" data-name="Trazado 112984" d="M491.326,1659.689c.018-.074-.233-1.489.215-1.56s.823,1.647.823,1.647l-.631.2Z" transform="translate(-199.042 -385.906)" fill="#f59ca0"/>
    <path id="Trazado_112985" data-name="Trazado 112985" d="M474.726,1571.965c-.123.163-.458.163-.458.163v3.391l-.553-.08v-3.311s-.656-.286-.7-.765,0-1.455,0-1.455.192,1.151.453,1.134.584-1.134.584-1.134.094,1.214.427,1.134.478-1.134.478-1.134A2.232,2.232,0,0,1,474.726,1571.965Z" transform="translate(-186.156 -323.684)" fill="#3c2768"/>
    <path id="Trazado_112986" data-name="Trazado 112986" d="M434.464,1603.61c0,.751-.4,1.359-.883,1.359s-.883-.608-.883-1.359.4-1.359.883-1.359S434.464,1602.859,434.464,1603.61Z" transform="translate(-157.729 -346.496)" fill="#3c2768"/>
    <rect id="Rectngulo_6942" data-name="Rectngulo 6942" width="0.525" height="4.01" transform="translate(275.589 1258.218)" fill="#3c2768"/>
    <path id="Trazado_112987" data-name="Trazado 112987" d="M402.02,1596.792c-1.315-.143-2.054-.287-2.329-1.432-.138-.573-1.916-1.85-3.841-3.153a.6.6,0,0,0-.054-.037,53.135,53.135,0,0,1-4.66-3.3,12.8,12.8,0,0,1-2.395-3.918v0a3.852,3.852,0,0,0,2.346-1,4.93,4.93,0,0,0,1.117-1.538c.029.063.384.9.85,1.871v0c.289.6.624,1.263.945,1.819a3.689,3.689,0,0,0,.212.321,17.873,17.873,0,0,0,1.209,1.452c.693.768,1.535,1.633,2.334,2.409.163.16.327.318.487.467a13.028,13.028,0,0,0,2.2,1.842c.765.286,1.24.335,1.67.957s1.673,0,1.93.954A1.989,1.989,0,0,1,402.02,1596.792Z" transform="translate(-126.725 -332.5)" fill="#f59ca0"/>
    <path id="Trazado_112988" data-name="Trazado 112988" d="M463.415,1610.431c0,2.486-3.1,4.5-6.923,4.5a8.325,8.325,0,0,1-5.795-2.039,3.467,3.467,0,0,1-1.128-2.463c0-2.486,3.1-4.5,6.923-4.5,2.976,0,5.514,1.22,6.493,2.933A3.136,3.136,0,0,1,463.415,1610.431Z" transform="translate(-169.629 -349.091)" fill="#fff"/>
    <path id="Trazado_112989" data-name="Trazado 112989" d="M466.438,1613.872c0,1.693-2.111,3.065-4.712,3.065-.1,0-.192,0-.286-.006,2.177-.089,3.9-1.263,3.9-2.7,0-1.5-1.862-2.707-4.162-2.707-2.211,0-4.021,1.123-4.153,2.538q-.008-.094-.008-.189c0-1.69,2.108-3.062,4.712-3.062S466.438,1612.182,466.438,1613.872Z" transform="translate(-174.88 -352.533)" fill="#b3bade"/>
    <path id="Trazado_112990" data-name="Trazado 112990" d="M465.358,1615.937v.034h0a2.425,2.425,0,0,1-1.349,1.962l0,0a5.451,5.451,0,0,1-2.543.7c-2.094-.08-3.818-1.051-4.294-2.34a2.027,2.027,0,0,1-.123-.53.08.08,0,0,1,0-.017,1.735,1.735,0,0,1,.146-.547,2.718,2.718,0,0,1,1.068-1.183,4.824,4.824,0,0,1,1.578-.645l.163-.034a6.434,6.434,0,0,1,1.194-.112c.178,0,.355.009.527.023C463.774,1613.419,465.358,1614.559,465.358,1615.937Z" transform="translate(-174.9 -354.24)" fill="#3c2768"/>
    <path id="Trazado_112991" data-name="Trazado 112991" d="M466.806,1618.339c0,2.486-3.1,4.5-6.923,4.5-2.967,0-5.5-1.217-6.485-2.927a8.325,8.325,0,0,0,5.795,2.04c3.824,0,6.923-2.017,6.923-4.5a3.136,3.136,0,0,0-.43-1.567A3.472,3.472,0,0,1,466.806,1618.339Z" transform="translate(-172.329 -356.112)" fill="#b3bade"/>
    <path id="Trazado_112992" data-name="Trazado 112992" d="M465.8,1613.751c-.143.289-.3.364-.447.389h0c-.218.041-.421-.02-.576.318a5.224,5.224,0,0,1-.773,1.644l0,0a5.454,5.454,0,0,1-2.543.7c-2.094-.08-3.818-1.051-4.294-2.34l-.123-.53a.078.078,0,0,1,0-.017c.014-.063.063-.283.146-.547.146-.479.4-1.1.759-1.192.169-.046.258-.031.309.009.132.1.066.358.556.3.636-.077.436-.759,1.023-.942l.163-.034c.791-.1.241.71.862.67.275-.017.541-.386.859-.759.4-.47.882-.948,1.575-.736,1.24.381,1.481.693,1.862,1.338S466.163,1613.041,465.8,1613.751Z" transform="translate(-174.9 -352.409)" fill="#f69874"/>
    <path id="Trazado_112993" data-name="Trazado 112993" d="M465.062,1620.267c0,.217-.288.392-.644.392s-.644-.176-.644-.392.288-.392.644-.392S465.062,1620.051,465.062,1620.267Z" transform="translate(-179.647 -358.927)" fill="#5678bb"/>
    <path id="Trazado_112994" data-name="Trazado 112994" d="M476.183,1619.065c0,.13-.173.235-.387.235s-.387-.105-.387-.235.173-.236.387-.236S476.183,1618.934,476.183,1619.065Z" transform="translate(-187.854 -358.189)" fill="#ee3f5c"/>
    <path id="Trazado_112995" data-name="Trazado 112995" d="M472.441,1624.608c0,.217-.288.392-.644.392s-.644-.176-.644-.392.288-.392.644-.392S472.441,1624.392,472.441,1624.608Z" transform="translate(-184.852 -361.988)" fill="#fff"/>
    <path id="Trazado_112996" data-name="Trazado 112996" d="M563.649,1416.964l0,0a.021.021,0,0,0-.011.006c-.5.278-13.694,7.55-27.254,1.02-.636-.306-1.272-.641-1.907-1.011-14.216-8.243-21.64-28.757-21.895-29.47,0-.009-.006-.014-.006-.014v0l3.64,2.1,0,0Z" transform="translate(-214.067 -195.023)" fill="#fff"/>
    <path id="Trazado_112997" data-name="Trazado 112997" d="M587.385,1458.642h0a8.732,8.732,0,0,1-7.55.283c-.176-.085-.352-.178-.529-.28-3.938-2.283-5.994-7.966-6.065-8.164.076.151,2.307,4.549,6.064,6.706A13.342,13.342,0,0,0,587.385,1458.642Z" transform="translate(-256.856 -239.45)" fill="#5678bb"/>
    <path id="Trazado_112998" data-name="Trazado 112998" d="M595.847,1449.418a2.973,2.973,0,0,0-.644,2.054c.117,1.176.827,1.609.66,2.381a5.732,5.732,0,0,1-.471,1.342,3.055,3.055,0,0,0,.834-1.953C596.176,1452.2,595.234,1450.295,595.847,1449.418Z" transform="translate(-272.34 -238.699)" fill="#f69874"/>
    <g id="Grupo_58025" data-name="Grupo 58025" transform="translate(366.377 1145.12)">
      <rect id="Rectngulo_6943" data-name="Rectngulo 6943" width="0.573" height="18.705" transform="matrix(0.5, -0.866, 0.866, 0.5, 0, 0.496)" fill="#fff"/>
    </g>
    <g id="Grupo_58026" data-name="Grupo 58026" transform="translate(366.377 1153.197)">
      <rect id="Rectngulo_6944" data-name="Rectngulo 6944" width="0.573" height="18.705" transform="matrix(0.5, -0.866, 0.866, 0.5, 0, 0.496)" fill="#fff"/>
    </g>
    <g id="Grupo_58027" data-name="Grupo 58027" transform="translate(366.377 1160.733)">
      <rect id="Rectngulo_6945" data-name="Rectngulo 6945" width="0.573" height="18.705" transform="matrix(0.5, -0.866, 0.866, 0.5, 0, 0.496)" fill="#fff"/>
    </g>
    <g id="Grupo_58028" data-name="Grupo 58028" transform="translate(341.972 1133.467)">
      <rect id="Rectngulo_6946" data-name="Rectngulo 6946" width="0.573" height="12.261" transform="translate(0 0.496) rotate(-60.003)" fill="#fff"/>
    </g>
    <g id="Grupo_58029" data-name="Grupo 58029" transform="translate(341.972 1138.761)">
      <rect id="Rectngulo_6947" data-name="Rectngulo 6947" width="0.573" height="12.261" transform="translate(0 0.496) rotate(-60.002)" fill="#fff"/>
    </g>
    <g id="Grupo_58030" data-name="Grupo 58030" transform="translate(341.972 1143.701)">
      <rect id="Rectngulo_6948" data-name="Rectngulo 6948" width="0.573" height="12.261" transform="translate(0 0.496) rotate(-60.003)" fill="#fff"/>
    </g>
  </g>
</svg>
