<svg xmlns="http://www.w3.org/2000/svg" width="99" height="99" viewBox="0 0 99 99">
  <g id="Grupo_58019" data-name="Grupo 58019" transform="translate(-305 -4991)">
    <rect id="Rectángulo_6806" data-name="Rectángulo 6806" width="99" height="99" transform="translate(305 4991)" fill="none"/>
    <g id="Filled_outline" data-name="Filled outline" transform="translate(293 4979)">
      <path id="Trazado_112715" data-name="Trazado 112715" d="M144,24h42.467v87.967H144Z" transform="translate(-103.733 -6.483)" fill="#60d1e0"/>
      <path id="Trazado_112716" data-name="Trazado 112716" d="M0,0H18.2V75.833H0Z" transform="translate(40.267 105.483) rotate(180)" fill="#5bccd9"/>
      <path id="Trazado_112717" data-name="Trazado 112717" d="M0,0H18.2V75.833H0Z" transform="translate(100.933 105.483) rotate(180)" fill="#5bccd9"/>
      <g id="Grupo_58020" data-name="Grupo 58020" transform="translate(28.133 23.583)">
        <path id="Trazado_112718" data-name="Trazado 112718" d="M240,56h6.067v6.067H240Z" transform="translate(-209.667 -56)" fill="#57bfcc"/>
        <path id="Trazado_112719" data-name="Trazado 112719" d="M304,56h6.067v6.067H304Z" transform="translate(-261.533 -56)" fill="#57bfcc"/>
        <path id="Trazado_112720" data-name="Trazado 112720" d="M176,56h6.067v6.067H176Z" transform="translate(-157.8 -56)" fill="#57bfcc"/>
        <path id="Trazado_112721" data-name="Trazado 112721" d="M240,120h6.067v6.067H240Z" transform="translate(-209.667 -107.867)" fill="#57bfcc"/>
        <path id="Trazado_112722" data-name="Trazado 112722" d="M304,120h6.067v6.067H304Z" transform="translate(-261.533 -107.867)" fill="#57bfcc"/>
        <path id="Trazado_112723" data-name="Trazado 112723" d="M176,120h6.067v6.067H176Z" transform="translate(-157.8 -107.867)" fill="#57bfcc"/>
        <path id="Trazado_112724" data-name="Trazado 112724" d="M240,184h6.067v6.067H240Z" transform="translate(-209.667 -159.733)" fill="#57bfcc"/>
        <path id="Trazado_112725" data-name="Trazado 112725" d="M304,184h6.067v6.067H304Z" transform="translate(-261.533 -159.733)" fill="#57bfcc"/>
        <path id="Trazado_112726" data-name="Trazado 112726" d="M176,184h6.067v6.067H176Z" transform="translate(-157.8 -159.733)" fill="#57bfcc"/>
        <path id="Trazado_112727" data-name="Trazado 112727" d="M80,120h6.067v6.067H80Z" transform="translate(-80 -107.867)" fill="#57bfcc"/>
        <path id="Trazado_112728" data-name="Trazado 112728" d="M80,184h6.067v6.067H80Z" transform="translate(-80 -159.733)" fill="#57bfcc"/>
        <path id="Trazado_112729" data-name="Trazado 112729" d="M400,120h6.067v6.067H400Z" transform="translate(-339.333 -107.867)" fill="#57bfcc"/>
        <path id="Trazado_112730" data-name="Trazado 112730" d="M400,184h6.067v6.067H400Z" transform="translate(-339.333 -159.733)" fill="#57bfcc"/>
      </g>
      <path id="Trazado_112731" data-name="Trazado 112731" d="M368,88h3.033v75.833H368Z" transform="translate(-285.267 -58.35)" fill="#5ac6d4"/>
      <path id="Trazado_112732" data-name="Trazado 112732" d="M52.892,216a12.892,12.892,0,0,1,12.892,12.892V252.4H40V228.892A12.892,12.892,0,0,1,52.892,216Z" transform="translate(-19.45 -162.083)" fill="#ffb531"/>
      <path id="Trazado_112733" data-name="Trazado 112733" d="M88,352h9.1v4.55H88Z" transform="translate(-58.35 -272.3)" fill="#fec9a3"/>
      <path id="Trazado_112734" data-name="Trazado 112734" d="M60.7,248H72.83a4.55,4.55,0,0,1,4.55,4.55v9.1a10.617,10.617,0,0,1-21.233,0v-9.1A4.55,4.55,0,0,1,60.7,248Z" transform="translate(-32.536 -188.017)" fill="#fec9a3"/>
      <path id="Trazado_112735" data-name="Trazado 112735" d="M40,234.2l2.5-.312A23.906,23.906,0,0,0,58.2,225.1l6.067,7.583,1.517-3.033v-1.517A12.133,12.133,0,0,0,53.65,216H51.681A11.68,11.68,0,0,0,40,227.681Z" transform="translate(-19.45 -162.083)" fill="#ffb531"/>
      <path id="Trazado_112736" data-name="Trazado 112736" d="M160,432h7.583v10.617H160Z" transform="translate(-116.7 -337.133)" fill="#fec9a3"/>
      <path id="Trazado_112737" data-name="Trazado 112737" d="M24,432h7.583v10.617H24Z" transform="translate(-6.483 -337.133)" fill="#fec9a3"/>
      <path id="Trazado_112738" data-name="Trazado 112738" d="M70.954,416l.7.7a6.577,6.577,0,0,1-.7,9.912v3.033h-18.2v-3.033a6.577,6.577,0,0,1-.7-9.912l.7-.7Z" transform="translate(-27.654 -324.167)" fill="#348fd9"/>
      <path id="Trazado_112739" data-name="Trazado 112739" d="M80,376l6.067,13.65L92.133,376Z" transform="translate(-51.867 -291.75)" fill="#fec9a3"/>
      <path id="Trazado_112740" data-name="Trazado 112740" d="M88,416h9.1v6.067H88Z" transform="translate(-58.35 -324.167)" fill="#5bccd9"/>
      <path id="Trazado_112741" data-name="Trazado 112741" d="M49.783,397.233h-18.2V386.617H24v-4.55A6.067,6.067,0,0,1,30.067,376h4.55l6.067,13.65L46.75,376H51.3a6.067,6.067,0,0,1,6.067,6.067v4.55H49.783Z" transform="translate(-6.483 -291.75)" fill="#348fd9"/>
      <path id="Trazado_112742" data-name="Trazado 112742" d="M376,360h9.1v4.55H376Z" transform="translate(-291.75 -278.783)" fill="#fec9a3"/>
      <path id="Trazado_112743" data-name="Trazado 112743" d="M354.764,273.783a10.617,10.617,0,0,1-10.617-10.617V252.55A4.55,4.55,0,0,1,348.7,248H360.83a4.55,4.55,0,0,1,4.55,4.55v10.617a10.617,10.617,0,0,1-10.617,10.617Z" transform="translate(-265.936 -188.017)" fill="#fec9a3"/>
      <path id="Trazado_112744" data-name="Trazado 112744" d="M359.167,216h-9.1A6.067,6.067,0,0,0,344,222.067v6.067h21.233v-6.067A6.067,6.067,0,0,0,359.167,216Z" transform="translate(-265.817 -162.083)" fill="#348fd9"/>
      <path id="Trazado_112745" data-name="Trazado 112745" d="M357.233,278.067h-.97a16.753,16.753,0,0,1-4.066-.5,16.763,16.763,0,0,0-8.129,0,16.751,16.751,0,0,1-4.065.5h-.97a3.033,3.033,0,1,1,0-6.067h18.2a3.033,3.033,0,0,1,0,6.067Z" transform="translate(-259.333 -207.467)" fill="#459de6"/>
      <path id="Trazado_112746" data-name="Trazado 112746" d="M318.067,384A6.067,6.067,0,0,0,312,390.067v13.65h33.367v-13.65A6.067,6.067,0,0,0,339.3,384Z" transform="translate(-239.883 -298.233)" fill="#348fd9"/>
      <path id="Trazado_112747" data-name="Trazado 112747" d="M376,384l4.55,7.583L385.1,384Z" transform="translate(-291.75 -298.233)" fill="#e0e0de"/>
      <path id="Trazado_112748" data-name="Trazado 112748" d="M232,352h9.1v4.55H232Z" transform="translate(-175.05 -272.3)" fill="#fec9a3"/>
      <path id="Trazado_112749" data-name="Trazado 112749" d="M204.55,240h12.133a4.55,4.55,0,0,1,4.55,4.55v10.617a10.617,10.617,0,1,1-21.233,0V244.55A4.55,4.55,0,0,1,204.55,240Z" transform="translate(-149.117 -181.533)" fill="#fec9a3"/>
      <path id="Trazado_112750" data-name="Trazado 112750" d="M208.267,231.167l-4.55-7.583H187.792a3.792,3.792,0,0,1,0-7.583H202.2a6.067,6.067,0,0,1,6.067,6.067Z" transform="translate(-136.15 -162.083)" fill="#f98500"/>
      <path id="Trazado_112751" data-name="Trazado 112751" d="M174.067,376A6.067,6.067,0,0,0,168,382.067v15.167h33.367V382.067A6.067,6.067,0,0,0,195.3,376Z" transform="translate(-123.183 -291.75)" fill="#e0e0de"/>
      <path id="Trazado_112752" data-name="Trazado 112752" d="M232,376l3.033,4.55-1.517,13.65,3.033,3.033,3.033-3.033-1.517-13.65L241.1,376Z" transform="translate(-175.05 -291.75)" fill="#348fd9"/>
      <path id="Trazado_112753" data-name="Trazado 112753" d="M64,56H79.167v6.067H64Z" transform="translate(-38.9 -32.417)" fill="#5ac6d4"/>
      <path id="Trazado_112754" data-name="Trazado 112754" d="M368,56h15.167v6.067H368Z" transform="translate(-285.267 -32.417)" fill="#5ac6d4"/>
      <path id="Trazado_112755" data-name="Trazado 112755" d="M60.55,376,56,382.067l4.55,1.517v3.033l6.067,3.033Z" transform="translate(-32.417 -291.75)" fill="#459de6"/>
      <path id="Trazado_112756" data-name="Trazado 112756" d="M118.067,376l4.55,6.067-4.55,1.517v3.033L112,389.65Z" transform="translate(-77.8 -291.75)" fill="#459de6"/>
      <path id="Trazado_112757" data-name="Trazado 112757" d="M81.217,49.367H84.25v-18.2H99.417V52.4h3.033V29.65a1.517,1.517,0,0,0-1.517-1.517H99.417v-4.55A1.517,1.517,0,0,0,97.9,22.067H84.25v-4.55A1.517,1.517,0,0,0,82.733,16H49.367v3.033h31.85ZM84.25,25.1H96.383v3.033H84.25ZM23.583,31.167H38.75V50.883h3.033V19.033h4.55V16H40.267a1.517,1.517,0,0,0-1.517,1.517v4.55H25.1a1.517,1.517,0,0,0-1.517,1.517v4.55H22.067A1.517,1.517,0,0,0,20.55,29.65V53.917h3.033ZM26.617,25.1H38.75v3.033H26.617ZM66.05,23.583a1.517,1.517,0,0,0-1.517-1.517H58.467a1.517,1.517,0,0,0-1.517,1.517V29.65a1.517,1.517,0,0,0,1.517,1.517h6.067A1.517,1.517,0,0,0,66.05,29.65Zm-3.033,4.55H59.983V25.1h3.033Zm15.167-4.55a1.517,1.517,0,0,0-1.517-1.517H70.6a1.517,1.517,0,0,0-1.517,1.517V29.65A1.517,1.517,0,0,0,70.6,31.167h6.067a1.517,1.517,0,0,0,1.517-1.517Zm-3.033,4.55H72.117V25.1H75.15Zm-21.233-4.55A1.517,1.517,0,0,0,52.4,22.067H46.333a1.517,1.517,0,0,0-1.517,1.517V29.65a1.517,1.517,0,0,0,1.517,1.517H52.4a1.517,1.517,0,0,0,1.517-1.517Zm-3.033,4.55H47.85V25.1h3.033ZM66.05,35.717A1.517,1.517,0,0,0,64.533,34.2H58.467a1.517,1.517,0,0,0-1.517,1.517v6.067A1.517,1.517,0,0,0,58.467,43.3h6.067a1.517,1.517,0,0,0,1.517-1.517Zm-3.033,4.55H59.983V37.233h3.033Zm15.167-4.55A1.517,1.517,0,0,0,76.667,34.2H70.6a1.517,1.517,0,0,0-1.517,1.517v6.067A1.517,1.517,0,0,0,70.6,43.3h6.067a1.517,1.517,0,0,0,1.517-1.517Zm-3.033,4.55H72.117V37.233H75.15Zm-21.233-4.55A1.517,1.517,0,0,0,52.4,34.2H46.333a1.517,1.517,0,0,0-1.517,1.517v6.067A1.517,1.517,0,0,0,46.333,43.3H52.4a1.517,1.517,0,0,0,1.517-1.517Zm-3.033,4.55H47.85V37.233h3.033ZM66.05,47.85v1.517h-9.1V47.85a1.517,1.517,0,0,1,1.517-1.517h6.067A1.517,1.517,0,0,1,66.05,47.85Zm12.133,0v1.517h-9.1V47.85A1.517,1.517,0,0,1,70.6,46.333h6.067A1.517,1.517,0,0,1,78.183,47.85Zm-24.267,0v1.517h-9.1V47.85a1.517,1.517,0,0,1,1.517-1.517H52.4A1.517,1.517,0,0,1,53.917,47.85Zm-18.2-12.133A1.517,1.517,0,0,0,34.2,34.2H28.133a1.517,1.517,0,0,0-1.517,1.517v6.067A1.517,1.517,0,0,0,28.133,43.3H34.2a1.517,1.517,0,0,0,1.517-1.517Zm-3.033,4.55H29.65V37.233h3.033Zm3.033,7.583v1.517h-9.1V47.85a1.517,1.517,0,0,1,1.517-1.517H34.2A1.517,1.517,0,0,1,35.717,47.85ZM96.383,35.717A1.517,1.517,0,0,0,94.867,34.2H88.8a1.517,1.517,0,0,0-1.517,1.517v6.067A1.517,1.517,0,0,0,88.8,43.3h6.067a1.517,1.517,0,0,0,1.517-1.517Zm-3.033,4.55H90.317V37.233H93.35Zm3.033,7.583v1.517h-9.1V47.85A1.517,1.517,0,0,1,88.8,46.333h6.067A1.517,1.517,0,0,1,96.383,47.85ZM29.678,75.15h3.033a1.517,1.517,0,1,0,3.033,0h3.033a4.55,4.55,0,1,1-9.1,0Zm10.617-3.033H37.261V69.083h3.033Zm43.955,4.55h3.033a1.517,1.517,0,0,0,3.033,0H93.35a4.55,4.55,0,1,1-9.1,0ZM17.517,107h87.967A1.517,1.517,0,0,0,107,105.483v-9.1h-3.033v7.583h-3.033V93.35H97.9v3.033H93.35v3.033H97.9v4.55H90.317V93.77l3.892-6.487h5.208a4.555,4.555,0,0,1,4.55,4.55V93.35H107V91.833a7.592,7.592,0,0,0-7.583-7.583H96.841a12.1,12.1,0,0,0,4.121-9.1V70.929a4.543,4.543,0,0,0-.009-6.734c0-.076-.019-4.212-.019-4.212A7.592,7.592,0,0,0,93.35,52.4h-9.1a7.592,7.592,0,0,0-7.583,7.583v4.2a4.541,4.541,0,0,0,.028,6.8V75.15a12.106,12.106,0,0,0,4.122,9.1s-3.548.045-3.994.126a7.545,7.545,0,0,0-4.706-1.644h-2.6a12.1,12.1,0,0,0,4.121-9.1V59.983A7.592,7.592,0,0,0,66.05,52.4H51.642a5.308,5.308,0,0,0-2.254,10.113c-.014.167-.021,11.12-.021,11.12a12.106,12.106,0,0,0,4.122,9.1H50.883a7.538,7.538,0,0,0-3.033.635V66.808a14.408,14.408,0,0,0-25.394-9.324l2.313,1.964a11.376,11.376,0,0,1,20.048,7.36l-.3.993-4.586-5.733a1.517,1.517,0,0,0-2.369,0A22.273,22.273,0,0,1,22.859,70.3l-.792.1v-3.59A11.4,11.4,0,0,1,23.4,61.45l-2.675-1.429a14.437,14.437,0,0,0-1.7,6.787V84.253A7.611,7.611,0,0,0,16,90.317v15.167A1.517,1.517,0,0,0,17.517,107ZM88.8,90.4l-1.871-3.119h3.743ZM79.7,59.983a4.555,4.555,0,0,1,4.55-4.55h9.1a4.555,4.555,0,0,1,4.55,4.55v3.033H79.7Zm-1.517,7.583A1.518,1.518,0,0,1,79.7,66.05H97.9a1.517,1.517,0,0,1,0,3.033h-.97a15.256,15.256,0,0,1-3.7-.455,18.342,18.342,0,0,0-8.867,0,15.259,15.259,0,0,1-3.7.455H79.7a1.518,1.518,0,0,1-1.517-1.517Zm1.545,7.583V72.117h.942A18.252,18.252,0,0,0,82.733,72v1.636h3.033V71.423a15.313,15.313,0,0,1,6.067,0v2.211h3.033V72a18.256,18.256,0,0,0,2.063.119h1V75.15a9.1,9.1,0,1,1-18.2,0Zm3.663,12.133,3.892,6.487v10.2H79.7v-4.55h4.55V96.383H79.7V90.317a7.538,7.538,0,0,0-.635-3.033ZM32.683,103.967H26.617V102.45a1.517,1.517,0,0,0-.607-1.213,5.06,5.06,0,0,1-.542-7.626l.7-.7-.191-.191.635.212v1.94a1.517,1.517,0,0,0,.838,1.356l5.228,2.614Zm-4.07-13.572-2.554-.851L27.8,87.226l3.3,7.426-1.447-.723v-2.1a1.517,1.517,0,0,0-1.037-1.439Zm1.854-4.628h7.466l-3.733,8.4ZM40.6,87.226l1.737,2.316-2.554.851a1.517,1.517,0,0,0-1.037,1.439v2.1l-1.447.723Zm2.7,13.129a5.091,5.091,0,0,1-.91.882,1.517,1.517,0,0,0-.607,1.213v1.517H35.717V98.837l5.228-2.614a1.517,1.517,0,0,0,.838-1.356v-1.94l.635-.212-.191.191.705.705a5.153,5.153,0,0,1,.367.41Zm18.2,2.983-1.446-1.445,1.436-12.926A1.5,1.5,0,0,0,61.5,88.8a1.5,1.5,0,0,0,.009.165l1.436,12.926Zm.255-15.38a1.517,1.517,0,0,0-.255.839,1.517,1.517,0,0,0-.255-.839l-1.461-2.192h3.431Zm10.362-2.192a4.555,4.555,0,0,1,4.55,4.55v13.65H73.633V91.833H70.6v12.133H65.161l.444-.444a1.517,1.517,0,0,0,.435-1.24l-1.456-13.1,2.277-3.416ZM49.367,57.708a2.277,2.277,0,0,1,2.275-2.275H66.05a4.555,4.555,0,0,1,4.55,4.55v3.624L68.867,60.72a1.517,1.517,0,0,0-1.3-.736H51.642A2.277,2.277,0,0,1,49.367,57.708ZM52.4,73.633V63.017H66.708L70.6,69.5v4.13a9.1,9.1,0,0,1-18.2,0ZM46.333,90.317a4.555,4.555,0,0,1,4.55-4.55h5.255l2.277,3.415-1.456,13.1a1.517,1.517,0,0,0,.435,1.24l.444.445H52.4V91.833H49.367v12.133H46.333Zm-1.513-4.55a7.6,7.6,0,0,0-.69,1.107l-.83-1.107Zm0-6.218v3.185H42.241A12.214,12.214,0,0,0,44.817,79.548ZM25.128,73a25.463,25.463,0,0,0,3.258-.883H31.2V70.96a25.276,25.276,0,0,0,7.511-5.57l4.622,5.778v2.465a9.1,9.1,0,0,1-18.2,0Zm-3.033.452v.181a12.106,12.106,0,0,0,4.122,9.1H23.583a7.605,7.605,0,0,0-1.517.154ZM19.033,90.317a4.547,4.547,0,0,1,4.55-4.55H25.1l-2.73,3.64a1.514,1.514,0,0,0,.693,2.332,8.1,8.1,0,0,0-1.14,1.611h-2.89Zm0,6.067h1.961a8.076,8.076,0,0,0,2.589,6.777v.806h-4.55ZM56.95,73.633h3.033a1.517,1.517,0,0,0,3.033,0H66.05a4.55,4.55,0,0,1-9.1,0ZM58.467,70.6H55.433V67.567h3.033Zm9.1,0H64.533V67.567h3.033Z"/>
    </g>
  </g>
</svg>
