<svg xmlns="http://www.w3.org/2000/svg" width="99" height="99" viewBox="0 0 99 99">
  <g id="Grupo_57973" data-name="Grupo 57973" transform="translate(-305 -4991)">
    <rect id="Rectángulo_6806" data-name="Rectángulo 6806" width="99" height="99" transform="translate(305 4991)" fill="none"/>
    <g id="Fill_out_line" data-name="Fill out line" transform="translate(293 4978.995)">
      <path id="Trazado_112016" data-name="Trazado 112016" d="M164.4,58.777a4.66,4.66,0,0,1-4.656,4.656H132.656a4.653,4.653,0,0,1-4.455-6.006,4.6,4.6,0,0,1,.582-1.234,13.4,13.4,0,0,0,2.25-7.435V39.167a15.167,15.167,0,0,1,30.333,0v9.591a13.406,13.406,0,0,0,2.251,7.436,4.677,4.677,0,0,1,.782,2.583Z" transform="translate(-90.766 -6.479)" fill="#2f4054"/>
      <path id="Trazado_112017" data-name="Trazado 112017" d="M125.239,203.268l-10.727,3.066v12.133H75.079V206.333l-10.509-3,2.25-7.039a18.273,18.273,0,0,1,17.4-12.708h.309A7.586,7.586,0,0,0,92.116,176h6.067a7.576,7.576,0,0,0,7.583,7.583,18.272,18.272,0,0,1,17.521,13.088Z" transform="translate(-39.362 -129.662)" fill="#8acce7"/>
      <path id="Trazado_112018" data-name="Trazado 112018" d="M69.259,335.3a4.551,4.551,0,0,1-4.55,4.55H53.744a7.583,7.583,0,0,1-7.248-9.813l3.155-9.874,10.509,3v7.583h4.55a4.55,4.55,0,0,1,4.55,4.55Z" transform="translate(-24.442 -246.492)" fill="#f4ceaf"/>
      <path id="Trazado_112019" data-name="Trazado 112019" d="M282.549,339.579h-14a4.55,4.55,0,0,1,0-9.1h7.583V322.9l10.727-3.066,2.937,9.936a7.583,7.583,0,0,1-7.248,9.813Z" transform="translate(-200.983 -246.225)" fill="#f4ceaf"/>
      <path id="Trazado_112020" data-name="Trazado 112020" d="M198.454,182.975l-.916,1.373a8.5,8.5,0,0,1-14.147,0l-.772-1.156a7.59,7.59,0,0,0,2.944-1.829c.049-.049.1-.1.146-.15A7.561,7.561,0,0,0,187.786,176h6.067a7.547,7.547,0,0,0,1.888,5c.108.123.218.241.334.356A7.6,7.6,0,0,0,198.454,182.975Z" transform="translate(-135.032 -129.662)" fill="#f4ceaf"/>
      <path id="Trazado_112021" data-name="Trazado 112021" d="M148.133,105.1h-9.1A3.033,3.033,0,0,1,136,102.067V99.033A3.033,3.033,0,0,1,139.033,96h0a3.033,3.033,0,0,1,3.033,3.033Z" transform="translate(-97.25 -64.829)" fill="#f2c194"/>
      <path id="Trazado_112022" data-name="Trazado 112022" d="M270.067,105.1H264l3.033-6.067A3.033,3.033,0,0,1,270.067,96h0a3.033,3.033,0,0,1,3.033,3.033v3.033A3.033,3.033,0,0,1,270.067,105.1Z" transform="translate(-200.983 -64.829)" fill="#f2c194"/>
      <path id="Trazado_112023" data-name="Trazado 112023" d="M208.951,181.005a13.644,13.644,0,0,1-10.031.207A7.561,7.561,0,0,0,201,176h6.067a7.547,7.547,0,0,0,1.888,5.005Z" transform="translate(-148.241 -129.662)" fill="#f2c194"/>
      <path id="Trazado_112024" data-name="Trazado 112024" d="M189.233,69.856v5.322a10.617,10.617,0,0,1-21.233,0V69.856a2.259,2.259,0,0,1,2.262-2.262,4.778,4.778,0,0,0,4.66-3.706,3.792,3.792,0,0,1,7.39,0,4.778,4.778,0,0,0,4.66,3.706,2.262,2.262,0,0,1,2.262,2.262Z" transform="translate(-123.183 -36.424)" fill="#f4ceaf"/>
      <path id="Trazado_112025" data-name="Trazado 112025" d="M231.017,246.067v19.717h-18.2v-13.65h-18.2l-.825,2.476a3.036,3.036,0,0,1-2.878,2.074h-3.881A3.033,3.033,0,0,1,184,253.65v-7.583A6.067,6.067,0,0,1,190.066,240H224.95a6.067,6.067,0,0,1,6.067,6.066Z" transform="translate(-136.15 -181.529)" fill="#c4d4e0"/>
      <rect id="Rectángulo_6923" data-name="Rectángulo 6923" width="12" height="4" rx="2" transform="translate(72 54.005)" fill="#ad7d4d"/>
      <rect id="Rectángulo_6924" data-name="Rectángulo 6924" width="12" height="5" rx="2.5" transform="translate(72 43.005)" fill="#ad7d4d"/>
      <rect id="Rectángulo_6925" data-name="Rectángulo 6925" width="6" height="6" transform="translate(75 48.005)" fill="#008051"/>
      <ellipse id="Elipse_6209" data-name="Elipse 6209" cx="3" cy="3.5" rx="3" ry="3.5" transform="translate(83 67.005)" fill="#a6b2bc"/>
      <rect id="Rectángulo_6926" data-name="Rectángulo 6926" width="7" height="11" rx="3.5" transform="translate(94 63.005)" fill="#a6b2bc"/>
      <rect id="Rectángulo_6927" data-name="Rectángulo 6927" width="56" height="9" rx="4.5" transform="translate(44 84.005)" fill="#a6b2bc"/>
      <path id="Trazado_112026" data-name="Trazado 112026" d="M199.482,385.442a5.366,5.366,0,0,1,1.354,5.308h-18.2a5.358,5.358,0,0,0-1.352-5.308,5.36,5.36,0,0,1,0-7.583,5.36,5.36,0,0,0,0-7.583A5.331,5.331,0,0,1,179.93,368h18.2a5.331,5.331,0,0,0,1.352,2.275,5.36,5.36,0,0,1,0,7.583A5.36,5.36,0,0,0,199.482,385.442Z" transform="translate(-132.673 -285.262)" fill="#349966"/>
      <ellipse id="Elipse_6210" data-name="Elipse 6210" cx="1.5" cy="2" rx="1.5" ry="2" transform="translate(49 34.005)"/>
      <circle id="Elipse_6211" data-name="Elipse 6211" cx="2" cy="2" r="2" transform="translate(58 34.005)"/>
      <path id="Trazado_112027" data-name="Trazado 112027" d="M364.55,289.1a4.55,4.55,0,1,0-4.55-4.55A4.55,4.55,0,0,0,364.55,289.1Zm0-6.067a1.517,1.517,0,1,1-1.517,1.517A1.517,1.517,0,0,1,364.55,283.033Z" transform="translate(-278.783 -213.946)"/>
      <path id="Trazado_112028" data-name="Trazado 112028" d="M100.933,88.8V85.771A3.037,3.037,0,0,0,97.9,82.738H96.383V75.154h3.033a3.037,3.037,0,0,0,3.033-3.033V64.538A3.037,3.037,0,0,0,99.417,61.5H96.383a3.038,3.038,0,0,0-.608.061A7.594,7.594,0,0,0,88.8,56.954H85.69a3.793,3.793,0,0,0-2.957-4.474V49.295a3.792,3.792,0,0,0-.758-7.507H74.392a3.767,3.767,0,0,0-2.27.762c0-.09,0-.18,0-.27V40.625a4.539,4.539,0,0,0,1.517-3.388V34.2A4.542,4.542,0,0,0,72,30.715a16.684,16.684,0,0,0-33.133,0A4.542,4.542,0,0,0,37.233,34.2v3.033a4.539,4.539,0,0,0,1.517,3.388v1.654a11.85,11.85,0,0,1-2,6.594,6.171,6.171,0,0,0-.653,5.566A19.727,19.727,0,0,0,26.014,66.167L20.6,83.095a9.02,9.02,0,0,0,.111,5.71H16v3.033h6.521A9,9,0,0,0,29.3,94.871H40.267a6.035,6.035,0,0,0,3.642-1.218A3.035,3.035,0,0,0,45.7,94.8a6.921,6.921,0,0,0-.184,1.583,6.834,6.834,0,0,0,2.016,4.864,3.845,3.845,0,0,1,.969,3.808A1.517,1.517,0,0,0,49.96,107h18.2a1.517,1.517,0,0,0,1.454-1.086,6.883,6.883,0,0,0-1.735-6.811,3.842,3.842,0,0,1-.815-4.236H97.9a3.037,3.037,0,0,0,3.033-3.033H107V88.8ZM99.417,64.538v7.583H96.383V64.538Zm-6.067,0v18.2H78.183V70.6a1.517,1.517,0,0,0-1.517-1.517h-16.1l.851-2.554-2.878-.959L56.2,72.6a1.515,1.515,0,0,1-1.439,1.037h-3.88a1.518,1.518,0,0,1-1.517-1.517V64.538a4.555,4.555,0,0,1,4.55-4.55H88.8A4.555,4.555,0,0,1,93.35,64.538Zm-26.284,18.2a3.776,3.776,0,0,1-.154-.427,1.517,1.517,0,0,0-1.455-1.09H53.917v-4.55h.847A4.544,4.544,0,0,0,59.08,73.56l.48-1.439H75.15V82.738ZM43.3,37.238v1.517H41.783a1.518,1.518,0,0,1-1.517-1.517V34.2a1.517,1.517,0,1,1,3.033,0,1.517,1.517,0,0,0,3.033,0v-.771a.747.747,0,0,1,.746-.746,6.27,6.27,0,0,0,6.137-4.883,2.275,2.275,0,0,1,4.434,0,6.27,6.27,0,0,0,6.137,4.883.747.747,0,0,1,.746.746V34.2a1.517,1.517,0,0,0,3.033,0,1.517,1.517,0,1,1,3.033,0v3.033a1.518,1.518,0,0,1-1.517,1.517H67.567V37.238H64.533v1.517a9.1,9.1,0,1,1-18.2,0V37.238Zm9.873,13.436a12.015,12.015,0,0,0,4.491.005A9.125,9.125,0,0,0,61.02,54.16a6.982,6.982,0,0,1-11.184-.014,9.125,9.125,0,0,0,3.336-3.473Zm17.5,6.281H62.616a10.062,10.062,0,0,0,1.154-1.428l.17-.255a9.052,9.052,0,0,0,1.724.166h.309a16.7,16.7,0,0,1,4.637.656.858.858,0,0,0-.008.1,3.8,3.8,0,0,0,.077.759Zm3.715,0a.758.758,0,1,1,0-1.517h7.583a.758.758,0,1,1,0,1.517Zm2.275-4.55V49.371H79.7V52.4Zm-2.275-7.583h7.583a.758.758,0,0,1,0,1.517H74.392a.758.758,0,1,1,0-1.517Zm-2.8,5.735a3.13,3.13,0,0,1,.527,1.742h1.517v.183a3.778,3.778,0,0,0-1.709.842,19.71,19.71,0,0,0-5.953-.919h-.309a6.085,6.085,0,0,1-5.036-2.687,12.186,12.186,0,0,0,6.556-7.93h1.9v.492a14.874,14.874,0,0,0,2.506,8.277ZM55.433,19.038A13.712,13.712,0,0,1,68.746,29.669a4.527,4.527,0,0,0-2.449.941,3.764,3.764,0,0,0-2.509-.955,3.251,3.251,0,0,1-3.182-2.531,5.308,5.308,0,0,0-10.345,0,3.251,3.251,0,0,1-3.182,2.531,3.764,3.764,0,0,0-2.509.955,4.527,4.527,0,0,0-2.449-.941A13.712,13.712,0,0,1,55.433,19.038ZM38.75,52.3a3.13,3.13,0,0,1,.527-1.742,14.874,14.874,0,0,0,2.506-8.277v-.492h1.9a12.186,12.186,0,0,0,6.531,7.919,6.086,6.086,0,0,1-5.044,2.7h-.309a19.882,19.882,0,0,0-5.946.908A3.138,3.138,0,0,1,38.75,52.3Zm6.112,3.14h.309a9.051,9.051,0,0,0,1.753-.171l.173.26a10.02,10.02,0,0,0,2.642,2.686,7.581,7.581,0,0,0-3.406,6.325v7.583a4.555,4.555,0,0,0,4.55,4.55v4.55H47.257A1.515,1.515,0,0,0,45.742,82.8a3.035,3.035,0,0,0-1.833,1.16,6.035,6.035,0,0,0-3.642-1.218H37.233V72.121H34.2V74.66l-7.07-2.02L28.9,67.091A16.7,16.7,0,0,1,44.862,55.438Zm-4.6,36.4H29.3A6.067,6.067,0,0,1,23.5,84l2.708-8.472L34.2,77.815v4.923H26.617v3.033h13.65a3.033,3.033,0,0,1,0,6.067Zm6.067,0V85.771h.908q.142.161.295.314a3.843,3.843,0,0,1,0,5.438c-.1.1-.2.207-.293.314Zm3.347,7.269a3.843,3.843,0,0,1,0-5.438,6.877,6.877,0,0,0,.3-9.414H52.3A6.9,6.9,0,0,0,53.6,86.085a3.843,3.843,0,0,1,0,5.438,6.876,6.876,0,0,0,0,9.728,3.845,3.845,0,0,1,1.126,2.719H51.7a6.876,6.876,0,0,0-2.016-4.865Zm17.183,4.864h-9.1a6.876,6.876,0,0,0-2.013-4.864,3.843,3.843,0,0,1,0-5.438,6.873,6.873,0,0,0,.293-9.414h8.385a6.9,6.9,0,0,0,1.31,1.831,3.843,3.843,0,0,1,0,5.438,6.876,6.876,0,0,0,0,9.728,3.821,3.821,0,0,1,1.127,2.719ZM97.9,91.838H69.193a6.89,6.89,0,0,0,0-6.067H97.9Z"/>
    </g>
  </g>
</svg>
