<svg xmlns="http://www.w3.org/2000/svg" width="328" height="134.774" viewBox="0 0 328 134.774">
  <g id="Grupo_58735" data-name="Grupo 58735" transform="translate(5546 2892)">
    <path id="Trazado_114651" data-name="Trazado 114651" d="M24.475,14H23.25L18.6,6.878V14H17.372V4.758H18.6l4.666,7.154V4.758h1.212Zm6.221-.679a2.494,2.494,0,0,1-2.012.806,2.135,2.135,0,0,1-1.673-.638A2.761,2.761,0,0,1,26.43,11.6V7.132H27.6v4.437q0,1.562,1.27,1.562a1.758,1.758,0,0,0,1.79-1v-5h1.174V14H30.721ZM29.744,4.25h1.422l-1.7,1.866-.946,0Zm4.983,2.882.032.762A2.536,2.536,0,0,1,36.8,7a1.964,1.964,0,0,1,1.961,1.1,2.6,2.6,0,0,1,.892-.8,2.634,2.634,0,0,1,1.3-.3q2.26,0,2.3,2.393V14H42.071V9.468a1.577,1.577,0,0,0-.336-1.1A1.482,1.482,0,0,0,40.6,8a1.557,1.557,0,0,0-1.085.39,1.584,1.584,0,0,0-.5,1.051V14H37.837V9.5A1.31,1.31,0,0,0,36.371,8a1.571,1.571,0,0,0-1.581.984V14H33.616V7.132Zm13.14,7a3,3,0,0,1-2.272-.917,3.4,3.4,0,0,1-.876-2.453v-.216a4.121,4.121,0,0,1,.39-1.825A3.045,3.045,0,0,1,46.2,7.459,2.745,2.745,0,0,1,47.72,7a2.572,2.572,0,0,1,2.082.882,3.82,3.82,0,0,1,.743,2.526V10.9H45.892a2.441,2.441,0,0,0,.594,1.641,1.866,1.866,0,0,0,1.444.625,2.045,2.045,0,0,0,1.054-.254,2.648,2.648,0,0,0,.755-.673l.717.559A2.884,2.884,0,0,1,47.866,14.127ZM47.72,7.97a1.566,1.566,0,0,0-1.193.517,2.515,2.515,0,0,0-.6,1.45h3.44V9.849a2.237,2.237,0,0,0-.482-1.387A1.475,1.475,0,0,0,47.72,7.97Zm7.5.216a3.519,3.519,0,0,0-.578-.044,1.547,1.547,0,0,0-1.568.984V14H51.9V7.132h1.143l.019.793A1.829,1.829,0,0,1,54.7,7a1.2,1.2,0,0,1,.521.089Zm.641,2.317a4.057,4.057,0,0,1,.4-1.815,2.96,2.96,0,0,1,1.1-1.244A3.007,3.007,0,0,1,58.981,7a2.9,2.9,0,0,1,2.269.971,3.736,3.736,0,0,1,.866,2.583v.083a4.092,4.092,0,0,1-.384,1.8,2.916,2.916,0,0,1-1.1,1.241,3.041,3.041,0,0,1-1.641.444,2.889,2.889,0,0,1-2.263-.971,3.718,3.718,0,0,1-.866-2.571Zm1.181.14a2.938,2.938,0,0,0,.53,1.834,1.8,1.8,0,0,0,2.841-.01,3.213,3.213,0,0,0,.527-1.965,2.933,2.933,0,0,0-.536-1.831,1.705,1.705,0,0,0-1.425-.7,1.686,1.686,0,0,0-1.4.692A3.189,3.189,0,0,0,57.045,10.642ZM2.823,25.509a4.023,4.023,0,0,1,.749-2.542A2.369,2.369,0,0,1,5.534,22a2.382,2.382,0,0,1,1.911.825V19.25H8.619V29H7.54l-.057-.736a2.391,2.391,0,0,1-1.961.863,2.346,2.346,0,0,1-1.946-.978A4.069,4.069,0,0,1,2.823,25.6ZM4,25.642A3.046,3.046,0,0,0,4.48,27.47a1.56,1.56,0,0,0,1.333.66,1.713,1.713,0,0,0,1.631-1V23.973A1.726,1.726,0,0,0,5.826,23a1.567,1.567,0,0,0-1.346.667A3.354,3.354,0,0,0,4,25.642Zm9.293,3.485a3,3,0,0,1-2.272-.917,3.4,3.4,0,0,1-.876-2.453v-.216a4.121,4.121,0,0,1,.39-1.825,3.045,3.045,0,0,1,1.092-1.257A2.745,2.745,0,0,1,13.145,22a2.572,2.572,0,0,1,2.082.882,3.82,3.82,0,0,1,.743,2.526V25.9H11.316a2.441,2.441,0,0,0,.594,1.641,1.866,1.866,0,0,0,1.444.625,2.045,2.045,0,0,0,1.054-.254,2.648,2.648,0,0,0,.755-.673l.717.559A2.884,2.884,0,0,1,13.291,29.127Zm-.146-6.157a1.566,1.566,0,0,0-1.193.517,2.515,2.515,0,0,0-.6,1.45h3.44v-.089a2.237,2.237,0,0,0-.482-1.387A1.475,1.475,0,0,0,13.145,22.97Zm8.506-.838.032.762A2.536,2.536,0,0,1,23.72,22a1.964,1.964,0,0,1,1.961,1.1,2.6,2.6,0,0,1,.892-.8,2.634,2.634,0,0,1,1.3-.3q2.26,0,2.3,2.393V29H28.995V24.468a1.577,1.577,0,0,0-.336-1.1A1.482,1.482,0,0,0,27.528,23a1.557,1.557,0,0,0-1.085.39,1.584,1.584,0,0,0-.5,1.051V29H24.761V24.5A1.31,1.31,0,0,0,23.294,23a1.571,1.571,0,0,0-1.581.984V29H20.54V22.132ZM36.18,29a2.467,2.467,0,0,1-.165-.724,2.62,2.62,0,0,1-1.955.851,2.424,2.424,0,0,1-1.666-.574,1.859,1.859,0,0,1-.651-1.457,1.942,1.942,0,0,1,.816-1.666,3.846,3.846,0,0,1,2.295-.594H36V24.3a1.319,1.319,0,0,0-.368-.981,1.48,1.48,0,0,0-1.085-.365,1.712,1.712,0,0,0-1.054.317.935.935,0,0,0-.425.768H31.883a1.621,1.621,0,0,1,.365-.993,2.491,2.491,0,0,1,.99-.759A3.331,3.331,0,0,1,34.612,22a2.715,2.715,0,0,1,1.86.594,2.141,2.141,0,0,1,.7,1.635v3.161a3.865,3.865,0,0,0,.241,1.5V29Zm-1.949-.9a2.064,2.064,0,0,0,1.047-.286A1.728,1.728,0,0,0,36,27.077V25.667h-.92q-2.158,0-2.158,1.263a1.069,1.069,0,0,0,.368.863A1.415,1.415,0,0,0,34.231,28.1Zm1.085-8.855h1.422l-1.7,1.866-.946,0Zm3.409,6.259a4.031,4.031,0,0,1,.743-2.561,2.621,2.621,0,0,1,3.917-.124l.051-.692h1.079v9.509H43.34V28.365a2.465,2.465,0,0,1-1.892.762,2.369,2.369,0,0,1-1.984-.968,4.121,4.121,0,0,1-.74-2.568Zm1.174.133a3.056,3.056,0,0,0,.5,1.854,1.585,1.585,0,0,0,1.343.673,1.758,1.758,0,0,0,1.6-.927V23.877a1.764,1.764,0,0,0-1.587-.908,1.6,1.6,0,0,0-1.352.676A3.327,3.327,0,0,0,39.9,25.642Zm10.74,2.679a2.494,2.494,0,0,1-2.012.806,2.135,2.135,0,0,1-1.673-.638,2.761,2.761,0,0,1-.581-1.888V22.132h1.174v4.437q0,1.562,1.27,1.562a1.758,1.758,0,0,0,1.79-1v-5h1.174V29H50.666Zm4.2.679H53.668V22.132h1.174Zm-1.27-8.69a.7.7,0,0,1,.175-.482.655.655,0,0,1,.517-.2.666.666,0,0,1,.521.2.694.694,0,0,1,.178.482.671.671,0,0,1-.178.476.678.678,0,0,1-.521.19.667.667,0,0,1-.517-.19A.678.678,0,0,1,53.573,20.31Zm4.259,1.822L57.87,23A2.5,2.5,0,0,1,59.927,22q2.177,0,2.2,2.457V29H60.949V24.455a1.581,1.581,0,0,0-.34-1.1A1.361,1.361,0,0,0,59.571,23a1.7,1.7,0,0,0-1,.3,2.069,2.069,0,0,0-.673.8V29H56.721V22.132ZM68.134,29a2.467,2.467,0,0,1-.165-.724,2.62,2.62,0,0,1-1.955.851,2.424,2.424,0,0,1-1.666-.574A1.859,1.859,0,0,1,63.7,27.1a1.942,1.942,0,0,1,.816-1.666,3.846,3.846,0,0,1,2.295-.594H67.95V24.3a1.319,1.319,0,0,0-.368-.981,1.48,1.48,0,0,0-1.085-.365,1.712,1.712,0,0,0-1.054.317.935.935,0,0,0-.425.768H63.837a1.621,1.621,0,0,1,.365-.993,2.491,2.491,0,0,1,.99-.759A3.331,3.331,0,0,1,66.566,22a2.715,2.715,0,0,1,1.86.594,2.141,2.141,0,0,1,.7,1.635v3.161a3.865,3.865,0,0,0,.241,1.5V29Zm-1.949-.9a2.064,2.064,0,0,0,1.047-.286,1.728,1.728,0,0,0,.717-.743V25.667h-.92q-2.158,0-2.158,1.263a1.069,1.069,0,0,0,.368.863A1.415,1.415,0,0,0,66.186,28.1Zm8.779-.927a.864.864,0,0,0-.359-.74,3.452,3.452,0,0,0-1.25-.454,5.912,5.912,0,0,1-1.416-.457,2.014,2.014,0,0,1-.774-.635,1.518,1.518,0,0,1-.251-.876,1.782,1.782,0,0,1,.714-1.428A2.789,2.789,0,0,1,73.454,22a2.87,2.87,0,0,1,1.895.6,1.915,1.915,0,0,1,.727,1.542H74.895a1.06,1.06,0,0,0-.409-.832,1.534,1.534,0,0,0-1.031-.349,1.606,1.606,0,0,0-1,.279.879.879,0,0,0-.362.73.712.712,0,0,0,.336.641,4.139,4.139,0,0,0,1.216.413,6.334,6.334,0,0,1,1.425.47,2.079,2.079,0,0,1,.809.657,1.615,1.615,0,0,1,.263.936,1.758,1.758,0,0,1-.736,1.476,3.089,3.089,0,0,1-1.911.555,3.459,3.459,0,0,1-1.46-.292,2.375,2.375,0,0,1-.993-.816,1.966,1.966,0,0,1-.359-1.133h1.174a1.216,1.216,0,0,0,.473.936,1.835,1.835,0,0,0,1.165.346,1.894,1.894,0,0,0,1.07-.27A.829.829,0,0,0,74.964,27.178Z" transform="translate(-5530 -2789)" fill="#12263f"/>
    <path id="Trazado_114652" data-name="Trazado 114652" d="M30.375,14H29.15V9.728H24.491V14H23.272V4.758h1.219V8.731H29.15V4.758h1.225Zm1.669-3.5a4.057,4.057,0,0,1,.4-1.815,2.96,2.96,0,0,1,1.1-1.244A3.007,3.007,0,0,1,35.161,7a2.9,2.9,0,0,1,2.269.971A3.736,3.736,0,0,1,38.3,10.56v.083a4.092,4.092,0,0,1-.384,1.8,2.916,2.916,0,0,1-1.1,1.241,3.041,3.041,0,0,1-1.641.444,2.889,2.889,0,0,1-2.263-.971,3.718,3.718,0,0,1-.866-2.571Zm1.181.14a2.938,2.938,0,0,0,.53,1.834,1.8,1.8,0,0,0,2.841-.01,3.213,3.213,0,0,0,.527-1.965,2.933,2.933,0,0,0-.536-1.831,1.705,1.705,0,0,0-1.425-.7,1.686,1.686,0,0,0-1.4.692A3.189,3.189,0,0,0,33.225,10.642ZM43.09,8.186a3.519,3.519,0,0,0-.578-.044,1.547,1.547,0,0,0-1.568.984V14H39.77V7.132h1.143l.019.793A1.829,1.829,0,0,1,42.569,7a1.2,1.2,0,0,1,.521.089ZM48.155,14a2.467,2.467,0,0,1-.165-.724,2.62,2.62,0,0,1-1.955.851,2.424,2.424,0,0,1-1.666-.574,1.859,1.859,0,0,1-.651-1.457,1.942,1.942,0,0,1,.816-1.666,3.846,3.846,0,0,1,2.295-.594h1.143V9.3a1.319,1.319,0,0,0-.368-.981,1.48,1.48,0,0,0-1.085-.365,1.712,1.712,0,0,0-1.054.317.935.935,0,0,0-.425.768H43.858a1.621,1.621,0,0,1,.365-.993,2.491,2.491,0,0,1,.99-.759A3.331,3.331,0,0,1,46.587,7a2.715,2.715,0,0,1,1.86.594,2.141,2.141,0,0,1,.7,1.635v3.161a3.865,3.865,0,0,0,.241,1.5V14Zm-1.949-.9a2.064,2.064,0,0,0,1.047-.286,1.728,1.728,0,0,0,.717-.743V10.667h-.92q-2.158,0-2.158,1.263a1.069,1.069,0,0,0,.368.863A1.415,1.415,0,0,0,46.206,13.1Zm8.779-.927a.865.865,0,0,0-.359-.74,3.452,3.452,0,0,0-1.25-.454,5.912,5.912,0,0,1-1.416-.457,2.014,2.014,0,0,1-.774-.635,1.518,1.518,0,0,1-.251-.876,1.782,1.782,0,0,1,.714-1.428A2.789,2.789,0,0,1,53.474,7a2.87,2.87,0,0,1,1.895.6A1.915,1.915,0,0,1,56.1,9.15H54.915a1.06,1.06,0,0,0-.409-.832,1.534,1.534,0,0,0-1.031-.349,1.605,1.605,0,0,0-1,.279.879.879,0,0,0-.362.73.712.712,0,0,0,.336.641,4.139,4.139,0,0,0,1.216.413,6.334,6.334,0,0,1,1.425.47,2.079,2.079,0,0,1,.809.657,1.615,1.615,0,0,1,.263.936,1.758,1.758,0,0,1-.736,1.476,3.089,3.089,0,0,1-1.911.555,3.459,3.459,0,0,1-1.46-.292,2.375,2.375,0,0,1-.993-.816,1.966,1.966,0,0,1-.359-1.133h1.174a1.216,1.216,0,0,0,.473.936,1.835,1.835,0,0,0,1.165.346,1.894,1.894,0,0,0,1.07-.27A.829.829,0,0,0,54.985,12.178ZM11.212,25.509a4.023,4.023,0,0,1,.749-2.542A2.369,2.369,0,0,1,13.922,22a2.382,2.382,0,0,1,1.911.825V19.25h1.174V29H15.928l-.057-.736a2.391,2.391,0,0,1-1.961.863,2.346,2.346,0,0,1-1.946-.978,4.069,4.069,0,0,1-.752-2.552Zm1.174.133a3.046,3.046,0,0,0,.482,1.828,1.56,1.56,0,0,0,1.333.66,1.713,1.713,0,0,0,1.631-1V23.973A1.726,1.726,0,0,0,14.214,23a1.567,1.567,0,0,0-1.346.667A3.354,3.354,0,0,0,12.386,25.642Zm9.293,3.485a3,3,0,0,1-2.272-.917,3.4,3.4,0,0,1-.876-2.453v-.216a4.121,4.121,0,0,1,.39-1.825,3.045,3.045,0,0,1,1.092-1.257A2.745,2.745,0,0,1,21.533,22a2.572,2.572,0,0,1,2.082.882,3.82,3.82,0,0,1,.743,2.526V25.9H19.7a2.441,2.441,0,0,0,.594,1.641,1.866,1.866,0,0,0,1.444.625,2.045,2.045,0,0,0,1.054-.254,2.648,2.648,0,0,0,.755-.673l.717.559A2.884,2.884,0,0,1,21.679,29.127Zm-.146-6.157a1.566,1.566,0,0,0-1.193.517,2.515,2.515,0,0,0-.6,1.45h3.44v-.089a2.237,2.237,0,0,0-.482-1.387A1.475,1.475,0,0,0,21.533,22.97Zm8.995-2.5v1.663H31.81v.908H30.528V27.3a.953.953,0,0,0,.171.62.721.721,0,0,0,.584.207,2.843,2.843,0,0,0,.559-.076V29a3.424,3.424,0,0,1-.9.126,1.462,1.462,0,0,1-1.187-.476,2.045,2.045,0,0,1-.4-1.352V23.04H28.1v-.908h1.25V20.469ZM36.5,23.186a3.519,3.519,0,0,0-.578-.044,1.547,1.547,0,0,0-1.568.984V29H33.181V22.132h1.143l.019.793A1.829,1.829,0,0,1,35.98,22a1.2,1.2,0,0,1,.521.089ZM41.566,29a2.467,2.467,0,0,1-.165-.724,2.62,2.62,0,0,1-1.955.851,2.424,2.424,0,0,1-1.666-.574,1.859,1.859,0,0,1-.651-1.457,1.942,1.942,0,0,1,.816-1.666,3.846,3.846,0,0,1,2.295-.594h1.143V24.3a1.319,1.319,0,0,0-.368-.981,1.48,1.48,0,0,0-1.085-.365,1.712,1.712,0,0,0-1.054.317.935.935,0,0,0-.425.768H37.269a1.621,1.621,0,0,1,.365-.993,2.491,2.491,0,0,1,.99-.759A3.331,3.331,0,0,1,40,22a2.715,2.715,0,0,1,1.86.594,2.141,2.141,0,0,1,.7,1.635v3.161a3.865,3.865,0,0,0,.241,1.5V29Zm-1.949-.9a2.064,2.064,0,0,0,1.047-.286,1.728,1.728,0,0,0,.717-.743V25.667h-.92q-2.158,0-2.158,1.263a1.069,1.069,0,0,0,.368.863A1.415,1.415,0,0,0,39.617,28.1Zm10.594-2.463a4.084,4.084,0,0,1-.724,2.53,2.312,2.312,0,0,1-1.942.955,2.394,2.394,0,0,1-2.012-.92L45.476,29H44.4V19.25h1.174v3.637A2.381,2.381,0,0,1,47.533,22a2.326,2.326,0,0,1,1.965.946,4.206,4.206,0,0,1,.714,2.59Zm-1.174-.133a3.173,3.173,0,0,0-.463-1.854A1.534,1.534,0,0,0,47.241,23a1.724,1.724,0,0,0-1.669,1.079v2.971a1.772,1.772,0,0,0,1.682,1.079,1.526,1.526,0,0,0,1.314-.654A3.374,3.374,0,0,0,49.037,25.509ZM55.931,29a2.467,2.467,0,0,1-.165-.724,2.62,2.62,0,0,1-1.955.851,2.424,2.424,0,0,1-1.666-.574,1.859,1.859,0,0,1-.651-1.457,1.942,1.942,0,0,1,.816-1.666,3.846,3.846,0,0,1,2.295-.594h1.143V24.3a1.319,1.319,0,0,0-.368-.981,1.48,1.48,0,0,0-1.085-.365,1.712,1.712,0,0,0-1.054.317.935.935,0,0,0-.425.768H51.634A1.621,1.621,0,0,1,52,23.043a2.491,2.491,0,0,1,.99-.759A3.331,3.331,0,0,1,54.363,22a2.715,2.715,0,0,1,1.86.594,2.141,2.141,0,0,1,.7,1.635v3.161a3.865,3.865,0,0,0,.241,1.5V29Zm-1.949-.9a2.064,2.064,0,0,0,1.047-.286,1.728,1.728,0,0,0,.717-.743V25.667h-.92q-2.158,0-2.158,1.263a1.069,1.069,0,0,0,.368.863A1.415,1.415,0,0,0,53.982,28.1Zm5.992-5.973v7.662q0,1.98-1.8,1.98a2.191,2.191,0,0,1-.717-.114v-.934a2.27,2.27,0,0,0,.533.051.8.8,0,0,0,.6-.213,1.052,1.052,0,0,0,.206-.74V22.132ZM58.679,20.31a.7.7,0,0,1,.175-.479.642.642,0,0,1,.511-.2.666.666,0,0,1,.521.2.694.694,0,0,1,.178.482.671.671,0,0,1-.178.476.678.678,0,0,1-.521.19.657.657,0,0,1-.514-.19A.685.685,0,0,1,58.679,20.31ZM61.555,25.5a4.057,4.057,0,0,1,.4-1.815,2.96,2.96,0,0,1,1.1-1.244A3.007,3.007,0,0,1,64.672,22a2.9,2.9,0,0,1,2.269.971,3.736,3.736,0,0,1,.866,2.583v.083a4.092,4.092,0,0,1-.384,1.8,2.916,2.916,0,0,1-1.1,1.241,3.041,3.041,0,0,1-1.641.444,2.889,2.889,0,0,1-2.263-.971,3.718,3.718,0,0,1-.866-2.571Zm1.181.14a2.938,2.938,0,0,0,.53,1.834,1.8,1.8,0,0,0,2.841-.01,3.213,3.213,0,0,0,.527-1.965,2.933,2.933,0,0,0-.536-1.831,1.705,1.705,0,0,0-1.425-.7,1.686,1.686,0,0,0-1.4.692A3.189,3.189,0,0,0,62.736,25.642Z" transform="translate(-5411 -2789)" fill="#12263f"/>
    <path id="Trazado_114653" data-name="Trazado 114653" d="M18.607,4.758,21.628,12.3,24.65,4.758H26.23V14H25.011V10.4l.114-3.885L22.092,14h-.933L18.131,6.535l.121,3.866V14H17.032V4.758ZM29.474,14H28.3V7.132h1.174ZM28.2,5.31a.7.7,0,0,1,.175-.482.655.655,0,0,1,.517-.2.666.666,0,0,1,.521.2.694.694,0,0,1,.178.482.671.671,0,0,1-.178.476.678.678,0,0,1-.521.19.667.667,0,0,1-.517-.19A.678.678,0,0,1,28.2,5.31Zm4.259,1.822L32.5,8A2.5,2.5,0,0,1,34.558,7q2.177,0,2.2,2.457V14H35.58V9.455a1.581,1.581,0,0,0-.34-1.1A1.361,1.361,0,0,0,34.2,8a1.7,1.7,0,0,0-1,.3,2.069,2.069,0,0,0-.673.8V14H31.353V7.132Zm10.3,6.189a2.494,2.494,0,0,1-2.012.806,2.135,2.135,0,0,1-1.673-.638A2.761,2.761,0,0,1,38.5,11.6V7.132h1.174v4.437q0,1.562,1.27,1.562a1.758,1.758,0,0,0,1.79-1v-5h1.174V14H42.791Zm4.52-7.852V7.132h1.282V8.04H47.285V12.3a.953.953,0,0,0,.171.62.721.721,0,0,0,.584.207,2.843,2.843,0,0,0,.559-.076V14a3.424,3.424,0,0,1-.9.126,1.462,1.462,0,0,1-1.187-.476,2.045,2.045,0,0,1-.4-1.352V8.04h-1.25V7.132h1.25V5.469ZM49.5,10.5a4.057,4.057,0,0,1,.4-1.815A2.96,2.96,0,0,1,51,7.443,3.007,3.007,0,0,1,52.617,7a2.9,2.9,0,0,1,2.269.971,3.736,3.736,0,0,1,.866,2.583v.083a4.092,4.092,0,0,1-.384,1.8,2.916,2.916,0,0,1-1.1,1.241,3.041,3.041,0,0,1-1.641.444,2.889,2.889,0,0,1-2.263-.971,3.718,3.718,0,0,1-.866-2.571Zm1.181.14a2.938,2.938,0,0,0,.53,1.834,1.8,1.8,0,0,0,2.841-.01,3.213,3.213,0,0,0,.527-1.965,2.933,2.933,0,0,0-.536-1.831,1.705,1.705,0,0,0-1.425-.7,1.686,1.686,0,0,0-1.4.692A3.189,3.189,0,0,0,50.681,10.642Zm10.543,1.536a.865.865,0,0,0-.359-.74,3.452,3.452,0,0,0-1.25-.454,5.912,5.912,0,0,1-1.416-.457,2.014,2.014,0,0,1-.774-.635,1.518,1.518,0,0,1-.251-.876,1.782,1.782,0,0,1,.714-1.428A2.789,2.789,0,0,1,59.714,7a2.87,2.87,0,0,1,1.895.6,1.915,1.915,0,0,1,.727,1.542H61.155a1.06,1.06,0,0,0-.409-.832,1.534,1.534,0,0,0-1.031-.349,1.605,1.605,0,0,0-1,.279.879.879,0,0,0-.362.73.712.712,0,0,0,.336.641,4.139,4.139,0,0,0,1.216.413,6.334,6.334,0,0,1,1.425.47,2.079,2.079,0,0,1,.809.657,1.615,1.615,0,0,1,.263.936,1.758,1.758,0,0,1-.736,1.476,3.089,3.089,0,0,1-1.911.555,3.459,3.459,0,0,1-1.46-.292,2.375,2.375,0,0,1-.993-.816,1.966,1.966,0,0,1-.359-1.133h1.174a1.216,1.216,0,0,0,.473.936,1.835,1.835,0,0,0,1.165.346,1.894,1.894,0,0,0,1.07-.27A.829.829,0,0,0,61.225,12.178ZM22.133,25.642a4.113,4.113,0,0,1-.717,2.526,2.3,2.3,0,0,1-1.942.958,2.519,2.519,0,0,1-1.968-.793v3.307H16.331V22.132H17.4l.057.762A2.419,2.419,0,0,1,19.454,22a2.342,2.342,0,0,1,1.958.933,4.157,4.157,0,0,1,.72,2.6Zm-1.174-.133a3.035,3.035,0,0,0-.5-1.834A1.6,1.6,0,0,0,19.1,23a1.726,1.726,0,0,0-1.6.946v3.282a1.73,1.73,0,0,0,1.612.939,1.587,1.587,0,0,0,1.343-.67A3.312,3.312,0,0,0,20.958,25.509Zm2.355-.006a4.057,4.057,0,0,1,.4-1.815,2.96,2.96,0,0,1,1.1-1.244A3.007,3.007,0,0,1,26.43,22a2.9,2.9,0,0,1,2.269.971,3.736,3.736,0,0,1,.866,2.583v.083a4.092,4.092,0,0,1-.384,1.8,2.916,2.916,0,0,1-1.1,1.241,3.041,3.041,0,0,1-1.641.444,2.889,2.889,0,0,1-2.263-.971,3.718,3.718,0,0,1-.866-2.571Zm1.181.14a2.938,2.938,0,0,0,.53,1.834,1.8,1.8,0,0,0,2.841-.01,3.213,3.213,0,0,0,.527-1.965,2.933,2.933,0,0,0-.536-1.831,1.705,1.705,0,0,0-1.425-.7,1.686,1.686,0,0,0-1.4.692A3.189,3.189,0,0,0,24.494,25.642Zm9.864-2.457a3.519,3.519,0,0,0-.578-.044,1.547,1.547,0,0,0-1.568.984V29H31.039V22.132h1.143l.019.793A1.829,1.829,0,0,1,33.838,22a1.2,1.2,0,0,1,.521.089Zm5.472-.222A2.5,2.5,0,0,1,41.861,22q2.177,0,2.2,2.457V29H42.883V24.455a1.581,1.581,0,0,0-.34-1.1A1.361,1.361,0,0,0,41.506,23a1.7,1.7,0,0,0-1,.3,2.069,2.069,0,0,0-.673.8V29H38.656V19.25H39.83ZM45.5,25.5a4.057,4.057,0,0,1,.4-1.815,2.96,2.96,0,0,1,1.1-1.244A3.007,3.007,0,0,1,48.622,22a2.9,2.9,0,0,1,2.269.971,3.736,3.736,0,0,1,.866,2.583v.083a4.092,4.092,0,0,1-.384,1.8,2.916,2.916,0,0,1-1.1,1.241,3.041,3.041,0,0,1-1.641.444,2.889,2.889,0,0,1-2.263-.971,3.718,3.718,0,0,1-.866-2.571Zm1.181.14a2.938,2.938,0,0,0,.53,1.834,1.8,1.8,0,0,0,2.841-.01,3.213,3.213,0,0,0,.527-1.965,2.933,2.933,0,0,0-.536-1.831,1.705,1.705,0,0,0-1.425-.7,1.686,1.686,0,0,0-1.4.692A3.189,3.189,0,0,0,46.686,25.642Zm9.864-2.457a3.519,3.519,0,0,0-.578-.044,1.547,1.547,0,0,0-1.568.984V29H53.23V22.132h1.143l.019.793A1.829,1.829,0,0,1,56.029,22a1.2,1.2,0,0,1,.521.089ZM61.615,29a2.467,2.467,0,0,1-.165-.724,2.62,2.62,0,0,1-1.955.851,2.424,2.424,0,0,1-1.666-.574,1.859,1.859,0,0,1-.651-1.457,1.942,1.942,0,0,1,.816-1.666,3.846,3.846,0,0,1,2.295-.594h1.143V24.3a1.319,1.319,0,0,0-.368-.981,1.48,1.48,0,0,0-1.085-.365,1.712,1.712,0,0,0-1.054.317.935.935,0,0,0-.425.768H57.318a1.621,1.621,0,0,1,.365-.993,2.491,2.491,0,0,1,.99-.759A3.331,3.331,0,0,1,60.047,22a2.715,2.715,0,0,1,1.86.594,2.141,2.141,0,0,1,.7,1.635v3.161a3.865,3.865,0,0,0,.241,1.5V29Zm-1.949-.9a2.064,2.064,0,0,0,1.047-.286,1.728,1.728,0,0,0,.717-.743V25.667h-.92q-2.158,0-2.158,1.263a1.069,1.069,0,0,0,.368.863A1.415,1.415,0,0,0,59.667,28.1Z" transform="translate(-5292 -2789)" fill="#12263f"/>
    <g id="Grupo_58731" data-name="Grupo 58731" transform="translate(-5851 -7883)">
      <rect id="Rect치ngulo_6806" data-name="Rect치ngulo 6806" width="99" height="99" transform="translate(305 4991)" fill="none"/>
      <g id="sewing-machine" transform="translate(304.939 4999.101)">
        <g id="Grupo_57977" data-name="Grupo 57977" transform="translate(9.736 0)">
          <path id="Trazado_112047" data-name="Trazado 112047" d="M148.483,370.928a1.213,1.213,0,0,0,1.213-1.213v-1.089a1.213,1.213,0,0,0-2.426,0v1.089A1.213,1.213,0,0,0,148.483,370.928Z" transform="translate(-125.028 -307.995)" fill="#12263f"/>
          <path id="Trazado_112048" data-name="Trazado 112048" d="M148.483,403.011A1.213,1.213,0,0,0,149.7,401.8v-1.089a1.213,1.213,0,1,0-2.426,0V401.8A1.213,1.213,0,0,0,148.483,403.011Z" transform="translate(-125.028 -334.89)" fill="#12263f"/>
          <path id="Trazado_112049" data-name="Trazado 112049" d="M148.483,435.094a1.213,1.213,0,0,0,1.213-1.213v-1.089a1.213,1.213,0,0,0-2.426,0v1.089A1.213,1.213,0,0,0,148.483,435.094Z" transform="translate(-125.028 -361.785)" fill="#12263f"/>
          <path id="Trazado_112050" data-name="Trazado 112050" d="M148.483,467.176a1.213,1.213,0,0,0,1.213-1.213v-1.089a1.213,1.213,0,1,0-2.426,0v1.089A1.213,1.213,0,0,0,148.483,467.176Z" transform="translate(-125.028 -388.678)" fill="#12263f"/>
          <path id="Trazado_112051" data-name="Trazado 112051" d="M185.543,131.677a1.213,1.213,0,0,0-1.213,1.213v2.569a1.213,1.213,0,1,0,2.426,0V132.89A1.213,1.213,0,0,0,185.543,131.677Z" transform="translate(-156.095 -110.382)" fill="#12263f"/>
          <path id="Trazado_112052" data-name="Trazado 112052" d="M210.52,131.677a1.213,1.213,0,0,0-1.213,1.213v2.569a1.213,1.213,0,1,0,2.426,0V132.89A1.213,1.213,0,0,0,210.52,131.677Z" transform="translate(-177.033 -110.382)" fill="#12263f"/>
          <path id="Trazado_112053" data-name="Trazado 112053" d="M235.5,131.677a1.213,1.213,0,0,0-1.213,1.213v2.569a1.213,1.213,0,1,0,2.426,0V132.89A1.213,1.213,0,0,0,235.5,131.677Z" transform="translate(-197.969 -110.382)" fill="#12263f"/>
          <path id="Trazado_112054" data-name="Trazado 112054" d="M260.473,131.677a1.213,1.213,0,0,0-1.213,1.213v2.569a1.213,1.213,0,1,0,2.426,0V132.89A1.213,1.213,0,0,0,260.473,131.677Z" transform="translate(-218.907 -110.382)" fill="#12263f"/>
          <path id="Trazado_112055" data-name="Trazado 112055" d="M410.759,183.66a5.468,5.468,0,1,0,5.468,5.468A5.474,5.474,0,0,0,410.759,183.66Zm0,8.511a3.042,3.042,0,1,1,3.042-3.042A3.046,3.046,0,0,1,410.759,192.171Z" transform="translate(-341.322 -153.959)" fill="#12263f"/>
          <path id="Trazado_112056" data-name="Trazado 112056" d="M85.5,65.291a1.213,1.213,0,0,0,1.213-1.213V42.048a10.193,10.193,0,0,0,0-13.757V26.443a12.709,12.709,0,0,0-9.336-12.236,2.871,2.871,0,0,0,.155-.926V5.468a2.908,2.908,0,0,0-2.911-2.9H73.54V1.213a1.213,1.213,0,0,0-2.426,0V2.569H70.032a2.908,2.908,0,0,0-2.911,2.9V9.336H34.4V8.794a1.213,1.213,0,1,0-2.426,0v.541h-.044a1.213,1.213,0,1,0,0,2.426h.044v2.252a12.712,12.712,0,0,0-10.132,12.43V41.775a4.737,4.737,0,0,0,4.732,4.732h.98v1.162a3.205,3.205,0,0,0,3.2,3.2h1.218v1.165h-.665a1.213,1.213,0,1,0,0,2.426h.665v1.165H20.472a2.859,2.859,0,0,0-2.615,1.712H16.412a3.772,3.772,0,0,0-3.768,3.768V73.585a3.037,3.037,0,0,0-2.908,3.029v3.149A3.039,3.039,0,0,0,12.772,82.8H86.35a3.039,3.039,0,0,0,3.036-3.036V76.614A3.038,3.038,0,0,0,86.715,73.6V69.739a1.213,1.213,0,0,0-2.426,0v3.84H42.468V59.764H84.289v4.315A1.212,1.212,0,0,0,85.5,65.291ZM79.173,42.956A7.787,7.787,0,1,1,86.96,35.17,7.8,7.8,0,0,1,79.173,42.956ZM69.547,5.468a.486.486,0,0,1,.485-.473h4.591a.486.486,0,0,1,.485.473v7.814a.486.486,0,0,1-.485.473H70.032a.486.486,0,0,1-.485-.473ZM34.4,11.761H67.121v1.52a2.887,2.887,0,0,0,.042.473H34.535c-.044,0-.087,0-.131,0ZM24.642,23.72h6.574a.763.763,0,0,1,.762.762v12.76a.763.763,0,0,1-.762.762H24.272V26.443A10.175,10.175,0,0,1,24.642,23.72Zm5.343,23.948V46.507H36.4v1.162a.786.786,0,0,1-.776.776H30.76A.786.786,0,0,1,29.984,47.669ZM15.07,61.106a1.344,1.344,0,0,1,1.342-1.342h1.2V73.578H15.07Zm-2.3,19.267a.618.618,0,0,1-.61-.61V76.614a.618.618,0,0,1,.61-.61h4.844v3.938c0,.089.005.176.013.262,0,.025.005.05.009.076s.006.062.011.092H12.772Zm7.27-.43V58.482a.431.431,0,0,1,.43-.43h19.14a.431.431,0,0,1,.43.43v21.46a.431.431,0,0,1-.43.43H20.472a.431.431,0,0,1-.43-.43ZM86.35,76a.618.618,0,0,1,.61.61v3.149a.618.618,0,0,1-.61.61H42.436c0-.03.007-.062.011-.092s.006-.05.009-.076c.008-.087.013-.174.013-.262V76Zm-19.9-18.666V38.292a4.279,4.279,0,0,0-4.275-4.275H57.11a1.213,1.213,0,0,0,0,2.426h5.067a1.851,1.851,0,0,1,1.849,1.849V57.338h-21.8a2.859,2.859,0,0,0-2.615-1.712H34.4V54.461h.665a1.213,1.213,0,0,0,0-2.426H34.4V50.87h1.218a3.205,3.205,0,0,0,3.2-3.2V46.506h.98a4.737,4.737,0,0,0,4.732-4.732V38.292a1.851,1.851,0,0,1,1.849-1.849H51.45a1.213,1.213,0,1,0,0-2.426H46.384a4.279,4.279,0,0,0-4.275,4.275v3.482A2.309,2.309,0,0,1,39.8,44.081H26.578a2.309,2.309,0,0,1-2.306-2.306V40.43h6.944A3.191,3.191,0,0,0,34.4,37.242V24.482a3.191,3.191,0,0,0-3.188-3.188H25.663a10.267,10.267,0,0,1,8.872-5.114H74.026A10.275,10.275,0,0,1,84.289,26.326a10.213,10.213,0,1,0,0,17.685V57.338H66.452Z" transform="translate(-9.736 0)" fill="#12263f"/>
        </g>
      </g>
    </g>
    <g id="Grupo_58732" data-name="Grupo 58732" transform="translate(-5726 -7883)">
      <rect id="Rect치ngulo_6806-2" data-name="Rect치ngulo 6806" width="99" height="99" transform="translate(305 4991)" fill="none"/>
      <g id="timer" transform="translate(331.001 4995.083)">
        <g id="Grupo_57950" data-name="Grupo 57950" transform="translate(-13.576 0)">
          <path id="Trazado_111996" data-name="Trazado 111996" d="M46.918,53.741A37.094,37.094,0,1,0,89.009,16.985V9.995h2.516a2.927,2.927,0,0,0,2.924-2.924V2.924A2.927,2.927,0,0,0,91.525,0H87.116a1.331,1.331,0,1,0,0,2.661h4.409a.263.263,0,0,1,.263.263V7.071a.263.263,0,0,1-.263.263H76.5a.263.263,0,0,1-.263-.263V2.924a.263.263,0,0,1,.263-.263h4.409a1.331,1.331,0,1,0,0-2.661H76.5a2.927,2.927,0,0,0-2.924,2.924V7.071A2.927,2.927,0,0,0,76.5,9.995h2.516v6.991A36.791,36.791,0,0,0,69.6,19.562l-2.965-5.135A2.808,2.808,0,0,0,62.8,13.4L59,15.593a2.8,2.8,0,0,0-1.027,3.831L61,24.666A37.044,37.044,0,0,0,46.918,53.741ZM81.675,9.995h4.673V16.72a38.368,38.368,0,0,0-4.673,0Zm-21.392,8.1a.143.143,0,0,1,.053-.2l3.8-2.193a.144.144,0,0,1,.2.052l2.844,4.926a37.194,37.194,0,0,0-4.02,2.382Zm21.388,1.3a35.206,35.206,0,0,1,4.7,0,34.433,34.433,0,1,1-4.7,0Z" transform="translate(-46.918 0)" fill="#12263f"/>
          <path id="Trazado_111997" data-name="Trazado 111997" d="M116.915,193.831a30,30,0,1,0,0-59.994h0a30,30,0,1,0,0,59.994ZM92.608,151.336l1.057.61a1.331,1.331,0,1,0,1.331-2.3l-1.053-.608a27.556,27.556,0,0,1,8.173-8.173l.608,1.053a1.331,1.331,0,0,0,2.3-1.331l-.61-1.057a27.141,27.141,0,0,1,11.167-3v9.053a1.331,1.331,0,0,0,2.661,0v-9.053a27.211,27.211,0,0,1,11.166,3l-.61,1.056a1.331,1.331,0,0,0,2.3,1.331l.607-1.052a27.516,27.516,0,0,1,8.173,8.173l-1.052.607a1.331,1.331,0,1,0,1.331,2.3l1.056-.61a27.116,27.116,0,0,1,3,11.166h-3.381a4.015,4.015,0,0,0-3.764-2.661H122.979a7.237,7.237,0,0,0-4.734-3.15v-4.9a1.331,1.331,0,0,0-2.661,0v4.9a7.277,7.277,0,0,0-4.732,3.147h-4.027a3.992,3.992,0,1,0,0,7.984h4.027a7.255,7.255,0,0,0,12.126,0h14.1a4,4,0,0,0,3.763-2.661h3.381a27.144,27.144,0,0,1-3,11.167l-1.057-.61a1.331,1.331,0,1,0-1.331,2.3l1.053.608a27.556,27.556,0,0,1-8.173,8.173l-.608-1.053a1.331,1.331,0,1,0-2.3,1.33l.61,1.057a27.141,27.141,0,0,1-11.167,3v-1.224a1.331,1.331,0,1,0-2.661,0v1.224a27.141,27.141,0,0,1-11.167-3l.61-1.057a1.331,1.331,0,0,0-2.3-1.331l-.608,1.053a27.554,27.554,0,0,1-8.173-8.173L95,178.026a1.331,1.331,0,0,0-1.331-2.3l-1.057.61a27.141,27.141,0,0,1-3-11.167h1.224a1.331,1.331,0,1,0,0-2.661H89.612A27.15,27.15,0,0,1,92.608,151.336ZM124.056,162.5h13.018a1.331,1.331,0,1,1,0,2.661H124.056A7.456,7.456,0,0,0,124.056,162.5Zm-3.034,3.4a4.6,4.6,0,1,1-4.107-6.672A4.606,4.606,0,0,1,121.022,165.9Zm-11.248-.74h-2.949a1.331,1.331,0,1,1,0-2.661h2.949A7.445,7.445,0,0,0,109.774,165.164Z" transform="translate(-79.822 -110.093)" fill="#12263f"/>
        </g>
      </g>
    </g>
    <g id="Grupo_58733" data-name="Grupo 58733" transform="translate(-33 -1)">
      <path id="Trazado_114654" data-name="Trazado 114654" d="M11.023-18.03v3.235H10.84a6.176,6.176,0,0,0-3.79,1.1,4.664,4.664,0,0,0-1.825,3.07A4.811,4.811,0,0,1,8.74-11.987,4.487,4.487,0,0,1,12.415-10.3a6.794,6.794,0,0,1,1.367,4.419,6.222,6.222,0,0,1-.8,3.113A5.705,5.705,0,0,1,10.748-.555a6.419,6.419,0,0,1-3.18.8A6.634,6.634,0,0,1,4.187-.616a5.917,5.917,0,0,1-2.319-2.46,8.1,8.1,0,0,1-.854-3.687V-8.411a10.26,10.26,0,0,1,1.178-4.938,8.54,8.54,0,0,1,3.363-3.436A9.615,9.615,0,0,1,10.4-18.03ZM7.312-8.838a2.354,2.354,0,0,0-1.367.378,2.4,2.4,0,0,0-.818.928V-6.3q0,3.369,2.332,3.369a1.891,1.891,0,0,0,1.569-.842,3.433,3.433,0,0,0,.629-2.112,3.369,3.369,0,0,0-.641-2.13A2.05,2.05,0,0,0,7.312-8.838ZM27.905-7.263a8.487,8.487,0,0,1-1.617,5.554A5.589,5.589,0,0,1,21.729.244a5.619,5.619,0,0,1-4.59-1.965,8.473,8.473,0,0,1-1.624-5.542V-10.51a8.487,8.487,0,0,1,1.617-5.554A5.6,5.6,0,0,1,21.7-18.018a5.605,5.605,0,0,1,4.578,1.965A8.494,8.494,0,0,1,27.905-10.5Zm-4.114-3.772a6.339,6.339,0,0,0-.5-2.863,1.673,1.673,0,0,0-1.587-.946,1.633,1.633,0,0,0-1.544.879,5.972,5.972,0,0,0-.519,2.661v4.541a6.387,6.387,0,0,0,.5,2.911,1.679,1.679,0,0,0,1.587.922,1.657,1.657,0,0,0,1.55-.9,6.1,6.1,0,0,0,.513-2.814Z" transform="translate(-5234 -2826)" fill="#12263f"/>
      <g id="Elipse_6314" data-name="Elipse 6314" transform="translate(-5254 -2870)" fill="none" stroke="#12263f" stroke-width="3">
        <circle cx="34.5" cy="34.5" r="34.5" stroke="none"/>
        <circle cx="34.5" cy="34.5" r="33" fill="none"/>
      </g>
    </g>
    <text id="X" transform="translate(-5438 -2830)" fill="#bf3976" font-size="20" font-family="Roboto-Regular, Roboto"><tspan x="0" y="0">X</tspan></text>
    <text id="X-2" data-name="X" transform="translate(-5318 -2830)" fill="#bf3976" font-size="20" font-family="Roboto-Regular, Roboto"><tspan x="0" y="0">X</tspan></text>
  </g>
</svg>
