<svg xmlns="http://www.w3.org/2000/svg" width="99" height="99" viewBox="0 0 99 99">
  <g id="Grupo_58682" data-name="Grupo 58682" transform="translate(-305 -4991)">
    <rect id="Rectángulo_6806" data-name="Rectángulo 6806" width="99" height="99" transform="translate(305 4991)" fill="none"/>
    <g id="contract" transform="translate(286.048 4995.756)">
      <g id="Grupo_58678" data-name="Grupo 58678" transform="translate(30.042 1.311)">
        <g id="Grupo_58677" data-name="Grupo 58677">
          <g id="Grupo_58676" data-name="Grupo 58676">
            <g id="Grupo_58665" data-name="Grupo 58665">
              <g id="Grupo_58664" data-name="Grupo 58664">
                <g id="Grupo_58663" data-name="Grupo 58663">
                  <g id="Grupo_58662" data-name="Grupo 58662">
                    <g id="Grupo_58661" data-name="Grupo 58661">
                      <g id="Grupo_58660" data-name="Grupo 58660">
                        <g id="Grupo_58659" data-name="Grupo 58659">
                          <g id="Grupo_58658" data-name="Grupo 58658">
                            <g id="Grupo_58657" data-name="Grupo 58657">
                              <g id="Grupo_58656" data-name="Grupo 58656">
                                <path id="Trazado_113591" data-name="Trazado 113591" d="M41.633,7.5a5.4,5.4,0,0,0-5.4,5.4V82.452a5.4,5.4,0,0,0,5.4,5.4H92.4a5.4,5.4,0,0,0,5.4-5.4V24.15a4.091,4.091,0,0,0-1.2-2.892L84.041,8.7a4.09,4.09,0,0,0-2.892-1.2Z" transform="translate(-36.234 -7.5)" fill="#f4f8f8"/>
                                <path id="Trazado_113592" data-name="Trazado 113592" d="M302.721,92.448a5.419,5.419,0,0,1-1.183-.132v60.128a5.4,5.4,0,0,1-5.4,5.4h10.739a5.4,5.4,0,0,0,5.4-5.4v-58.3a4.086,4.086,0,0,0-.369-1.694Z" transform="translate(-250.712 -77.492)" fill="#e7ecf1"/>
                                <path id="Trazado_113593" data-name="Trazado 113593" d="M316.665,23l-12.56-12.56a4.086,4.086,0,0,0-1.2-.83V18.8a5.4,5.4,0,0,0,5.4,5.4h9.188a4.1,4.1,0,0,0-.83-1.2Z" transform="translate(-256.298 -9.24)" fill="#fc8086"/>
                              </g>
                            </g>
                          </g>
                        </g>
                      </g>
                    </g>
                  </g>
                </g>
              </g>
            </g>
            <g id="Grupo_58675" data-name="Grupo 58675" transform="translate(10.238 44.209)">
              <g id="Grupo_58673" data-name="Grupo 58673" transform="translate(2.994 3.515)">
                <g id="Grupo_58672" data-name="Grupo 58672">
                  <g id="Grupo_58667" data-name="Grupo 58667">
                    <g id="Grupo_58666" data-name="Grupo 58666">
                      <path id="Trazado_113594" data-name="Trazado 113594" d="M164.586,303.058,145.3,291.637a2.082,2.082,0,0,1-.73-2.852l.987-1.666-3.9-2.308c-2.574-1.477-3.778-1.75-6.1-.853l-2.531.978a5.388,5.388,0,0,1-4.689-.39l-6.774-3.994-9.621,16.24,8.674,5.119a5.39,5.39,0,0,1,1.521,1.345l2.923,3.791a33.632,33.632,0,0,0,7.083,5.6l11.156,6.609a3.1,3.1,0,1,0,3.159-5.332l3.485,2.065a3.1,3.1,0,0,0,3.159-5.332l2.324,1.377a3.1,3.1,0,0,0,3.159-5.332l2.843,1.685a3.1,3.1,0,1,0,3.159-5.332Z" transform="translate(-111.941 -280.553)" fill="#ffece3"/>
                    </g>
                    <path id="Trazado_113595" data-name="Trazado 113595" d="M272.288,390.731l-6.646-3.936a3.554,3.554,0,0,1-.889,1.6,3.693,3.693,0,0,1-4.533.557l-1.891-1.12a.166.166,0,0,0-.22.241,3.608,3.608,0,0,1-4.79,5.18l-1.485-.886a.143.143,0,0,0-.187.21,3.605,3.605,0,0,1,.2,4.075,3.671,3.671,0,0,1-4.992,1.16l-1.22-.723a.713.713,0,0,0-1.063.752,3.594,3.594,0,0,1-2.116,4.034l8.475,5.021a3.165,3.165,0,0,0,4.345-1.1,3.1,3.1,0,0,0-1.116-4.195l3.415,2.023a3.165,3.165,0,0,0,4.345-1.1,3.1,3.1,0,0,0-1.116-4.195l2.254,1.335a3.165,3.165,0,0,0,4.345-1.1,3.1,3.1,0,0,0-1.116-4.195l2.774,1.643a3.165,3.165,0,0,0,4.345-1.1A3.1,3.1,0,0,0,272.288,390.731Z" transform="translate(-219.643 -368.226)" fill="#ffddce"/>
                  </g>
                  <g id="Grupo_58668" data-name="Grupo 58668" transform="translate(27.591 0.97)">
                    <path id="Trazado_113596" data-name="Trazado 113596" d="M293.188,286.1l-5.2,3.024a5.388,5.388,0,0,1-4.689.39l-2.854-1.121a4.586,4.586,0,0,0-2.8-.177l-4.373,1.107a4.587,4.587,0,0,0-3.462,4.447v5.838a1.5,1.5,0,0,0,1.494,1.5,4.5,4.5,0,0,0,4.507-4.5v-.247l18.718,11.085a5.385,5.385,0,0,1,1.182-.948l7.1-4.15Z" transform="translate(-269.805 -286.104)" fill="#fcd0a3"/>
                  </g>
                  <g id="Grupo_58669" data-name="Grupo 58669" transform="translate(41.543 5.654)">
                    <path id="Trazado_113597" data-name="Trazado 113597" d="M361.834,312.9l-1,3.709-11.207,6.567,10.768,6.377a5.39,5.39,0,0,1,1.182-.948l7.1-4.15Z" transform="translate(-349.627 -312.905)" fill="#ffb983"/>
                  </g>
                  <g id="Grupo_58671" data-name="Grupo 58671" transform="translate(5.105 19.894)">
                    <g id="Grupo_58670" data-name="Grupo 58670">
                      <path id="Trazado_113598" data-name="Trazado 113598" d="M148.521,399.279l-1.755,2.444a3.1,3.1,0,1,1-5.033-3.613l1.755-2.444a3.1,3.1,0,1,1,5.033,3.613Z" transform="translate(-141.151 -394.375)" fill="#fcd0a3"/>
                      <path id="Trazado_113599" data-name="Trazado 113599" d="M179.256,404.518l-3.692,5.142a3.1,3.1,0,1,1-5.033-3.613l3.692-5.142a3.1,3.1,0,1,1,5.033,3.613Z" transform="translate(-164.916 -398.698)" fill="#fcd0a3"/>
                      <path id="Trazado_113600" data-name="Trazado 113600" d="M208.054,425.193l-3.692,5.142a3.1,3.1,0,1,1-5.033-3.613l3.692-5.142a3.1,3.1,0,1,1,5.033,3.613Z" transform="translate(-188.681 -415.759)" fill="#fcd0a3"/>
                    </g>
                    <path id="Trazado_113601" data-name="Trazado 113601" d="M239.1,458.94l-1.228,1.71a3.1,3.1,0,0,1-5.033-3.613l1.228-1.71a3.1,3.1,0,1,1,5.033,3.613Z" transform="translate(-216.335 -443.608)" fill="#ffb983"/>
                  </g>
                </g>
              </g>
              <g id="Grupo_58674" data-name="Grupo 58674">
                <path id="Trazado_113602" data-name="Trazado 113602" d="M111.053,262.268l-2.713-1.607a1.571,1.571,0,0,0-2.152.551l-11.156,18.83a1.571,1.571,0,0,0,.551,2.152L98.3,283.8a3.83,3.83,0,0,0,5.248-1.343l8.852-14.942a3.83,3.83,0,0,0-1.343-5.248Z" transform="translate(-94.812 -260.441)" fill="#7c8b96"/>
                <path id="Trazado_113603" data-name="Trazado 113603" d="M376.686,260.66l-2.713,1.607a3.83,3.83,0,0,0-1.343,5.248l8.852,14.942a3.83,3.83,0,0,0,5.248,1.343l2.713-1.607a1.571,1.571,0,0,0,.551-2.152l-11.156-18.83A1.571,1.571,0,0,0,376.686,260.66Z" transform="translate(-323.631 -260.441)" fill="#7c8b96"/>
              </g>
            </g>
          </g>
        </g>
      </g>
      <g id="Grupo_58681" data-name="Grupo 58681" transform="translate(28.73 0)">
        <g id="Grupo_58680" data-name="Grupo 58680" transform="translate(0 0)">
          <g id="Grupo_58679" data-name="Grupo 58679">
            <path id="Trazado_113604" data-name="Trazado 113604" d="M126.4,137.8H83.549a1.316,1.316,0,1,0,0,2.633H126.4a1.316,1.316,0,1,0,0-2.633Z" transform="translate(-72.882 -113.719)"/>
            <path id="Trazado_113605" data-name="Trazado 113605" d="M83.549,88.19h21.427a1.316,1.316,0,1,0,0-2.633H83.549a1.316,1.316,0,0,0,0,2.633Z" transform="translate(-72.882 -70.603)"/>
            <path id="Trazado_113606" data-name="Trazado 113606" d="M126.4,184.1H83.549a1.316,1.316,0,0,0,0,2.633H126.4a1.316,1.316,0,1,0,0-2.633Z" transform="translate(-72.882 -151.92)"/>
            <path id="Trazado_113607" data-name="Trazado 113607" d="M49.16,80.341H35.445a4.087,4.087,0,0,1-4.083-4.082V6.715a4.087,4.087,0,0,1,4.083-4.083h39.51a2.817,2.817,0,0,1,.378.028v8.21a6.723,6.723,0,0,0,6.715,6.715h8.21a2.794,2.794,0,0,1,.028.378V40.382a1.316,1.316,0,0,0,2.633,0V17.964a5.372,5.372,0,0,0-1.584-3.823L78.778,1.584A5.371,5.371,0,0,0,74.955,0H35.445A6.723,6.723,0,0,0,28.73,6.715V76.258a6.723,6.723,0,0,0,6.715,6.715H49.16a1.316,1.316,0,1,0,0-2.633ZM88.425,14.954H82.048a4.087,4.087,0,0,1-4.083-4.083V4.495Z" transform="translate(-28.73 0)"/>
            <path id="Trazado_113608" data-name="Trazado 113608" d="M156.1,273.146l-11.154-18.827a2.885,2.885,0,0,0-3.955-1.013l-2.713,1.607a5.154,5.154,0,0,0-2.273,6.01,4.036,4.036,0,0,1-2.839-.031c-2.142-.674-3.771-2.03-6.46-1.349-4.567,1.163-4.428,1.1-4.841,1.246-2.674-1.522-4.282-1.976-7.12-.877l-2.53.978a4.049,4.049,0,0,1-3.545-.3l-.691-.407a5.143,5.143,0,0,0-2.454-5.273h0l-2.713-1.607a2.89,2.89,0,0,0-3.955,1.013L87.7,273.146a2.886,2.886,0,0,0,1.013,3.955l2.713,1.607a5.114,5.114,0,0,0,2.615.718,5.182,5.182,0,0,0,2.812-.831l.565.334-1.194,1.663a4.41,4.41,0,0,0,4.27,6.931,4.407,4.407,0,0,0,5.033,3.615,4.411,4.411,0,0,0,6.089,3.311,4.409,4.409,0,0,0,7.5,1.24l3.172,1.879a4.42,4.42,0,0,0,6.636-3.272l.007,0a4.414,4.414,0,0,0,6.653-3.472,4.415,4.415,0,0,0,5.47-3.818,4.417,4.417,0,0,0,4.991-6.953l1.749-1.022a5.135,5.135,0,0,0,4.582-.328l2.713-1.607a2.885,2.885,0,0,0,1.013-3.955Zm-63.333,3.3-2.713-1.607a.255.255,0,0,1-.089-.348l11.154-18.828a.255.255,0,0,1,.349-.089l2.713,1.607a2.513,2.513,0,0,1,.881,3.444l-8.851,14.94A2.516,2.516,0,0,1,92.767,276.444Zm6,8.17a1.78,1.78,0,0,1-.408-2.486l1.755-2.444a1.781,1.781,0,0,1,2.894,2.077l-1.755,2.444A1.783,1.783,0,0,1,98.77,284.614Zm5.033,3.613a1.783,1.783,0,0,1-.408-2.486l1.755-2.444h0l1.936-2.7a1.769,1.769,0,0,1,1.158-.719,1.8,1.8,0,0,1,.292-.024,1.781,1.781,0,0,1,1.443,2.82l-3.691,5.142A1.78,1.78,0,0,1,103.8,288.227Zm5.033,3.613a1.783,1.783,0,0,1-.409-2.485h0l3.691-5.142a1.781,1.781,0,1,1,2.894,2.077l-1.64,2.285h0l-2.051,2.857A1.783,1.783,0,0,1,108.835,291.84Zm5.856,2.466a1.783,1.783,0,0,1-.409-2.484l1.229-1.711a1.781,1.781,0,0,1,2.894,2.078l-1.227,1.71A1.783,1.783,0,0,1,114.692,294.305Zm29.506-10.5a1.784,1.784,0,0,1-2.441.625l-11.653-6.9a1.316,1.316,0,0,0-1.342,2.265l8.809,5.219h0a1.782,1.782,0,0,1-1.817,3.067l-8.814-5.222a1.316,1.316,0,1,0-1.342,2.265l6.491,3.845h0a1.782,1.782,0,0,1-1.818,3.066l-3.484-2.064h0l-2.542-1.506a1.316,1.316,0,0,0-1.342,2.265l2.543,1.506h0a1.782,1.782,0,1,1-1.817,3.066l-2.966-1.757A4.411,4.411,0,0,0,117.7,286.8a4.41,4.41,0,0,0-4.816-5.905,4.413,4.413,0,0,0-7.488-2.359,4.41,4.41,0,0,0-6.137-1.575l-.6-.356,8.279-13.975.394.232a6.665,6.665,0,0,0,5.834.485l2.53-.978a3.885,3.885,0,0,1,3.679.08,5.893,5.893,0,0,0-1.494,3.925v5.837a2.816,2.816,0,0,0,2.809,2.813h0a5.83,5.83,0,0,0,5.511-3.941l17.371,10.287a1.781,1.781,0,0,1,.625,2.441Zm9.548-8.973-2.713,1.607a2.517,2.517,0,0,1-3.443-.881l-4.149-7a1.316,1.316,0,0,0-2.265,1.342l4.149,7c.078.132.163.257.251.379l-1.153.674a6.672,6.672,0,0,0-.672.455l-17.884-10.591a1.317,1.317,0,0,0-1.987,1.133,3.362,3.362,0,0,1-.934,2.5,3.167,3.167,0,0,1-2.253.933h0a.18.18,0,0,1-.178-.181v-5.837a3.275,3.275,0,0,1,2.468-3.17l4.372-1.107c1.586-.4,2.483.446,4.859,1.25a6.655,6.655,0,0,0,5.034-.081l.795,1.341a1.316,1.316,0,1,0,2.265-1.342l-1.565-2.641a2.513,2.513,0,0,1,.881-3.444l2.713-1.607a.254.254,0,0,1,.349.089l11.154,18.827A.254.254,0,0,1,153.746,274.837Z" transform="translate(-77.06 -208.7)"/>
          </g>
        </g>
      </g>
    </g>
  </g>
</svg>
