<svg xmlns="http://www.w3.org/2000/svg" width="103.268" height="182.365" viewBox="0 0 103.268 182.365">
  <g id="Grupo_60027" data-name="Grupo 60027" transform="translate(-2144.477 -231.559)">
    <g id="Grupo_60022" data-name="Grupo 60022" transform="translate(2144.996 231.559)">
      <g id="Grupo_59795" data-name="Grupo 59795" transform="translate(91.775)">
        <g id="Grupo_59794" data-name="Grupo 59794">
          <g id="Grupo_59793" data-name="Grupo 59793">
            <g id="Grupo_59792" data-name="Grupo 59792">
              <g id="Grupo_59791" data-name="Grupo 59791">
                <g id="Grupo_59790" data-name="Grupo 59790">
                  <g id="Grupo_59789" data-name="Grupo 59789">
                    <path id="Trazado_114111" data-name="Trazado 114111" d="M2236.824,234.44c-.144-.859-.035-.588-.144-.859a1.625,1.625,0,0,0-.118-.237.117.117,0,0,0-.208.02c-.09.229-.181.458-.269.684-.532,1.356-1.035,2.638-1.573,3.7a.19.19,0,0,1-.338-.172c.531-1.047,1.03-2.319,1.558-3.668.1-.255.2-.515.3-.774a.434.434,0,0,0-.126-.5l-.014-.011,0,0a.438.438,0,0,0-.68.179c-.088.22-.178.443-.267.671a21.911,21.911,0,0,1-1.747,3.759.187.187,0,0,1-.1.073.19.19,0,0,1-.219-.286,21.608,21.608,0,0,0,1.708-3.685q.183-.466.363-.907a.44.44,0,0,0-.212-.557l-.008,0a.435.435,0,0,0-.6.229c-.651,1.613-1.348,3.22-2.082,4.79a.187.187,0,0,1-.11.1.189.189,0,0,1-.234-.26c.751-1.6,1.463-3.251,2.127-4.9a.194.194,0,0,0-.184-.264.953.953,0,0,0-.386.082c-.681.313-1.174,1.714-1.488,2.335-.6,1.184-1.6,2.841-2.717,4.655.136-.115-1.122-3.2-1.522-3.013a.424.424,0,0,0-.213.383,1.351,1.351,0,0,0,.1.448,9.25,9.25,0,0,1,.426,3.991,41.518,41.518,0,0,1-1.934,5.746v0a1.067,1.067,0,0,0-.068.282c-.078.978,1.337,1.89,3.163,2.037,1.328.107.241,5.095.817,4.532-3.785,5.9.48-.85.5-.839.018-.048,1.85-4.542,1.868-4.59a1.09,1.09,0,0,0,.267-.608c0-.035,0-.069,0-.1.875-2.365,1.764-4.725,2.694-7.069A25.513,25.513,0,0,0,2236.824,234.44Z" transform="translate(-2225.852 -231.559)" fill="#ffb1df"/>
                  </g>
                </g>
              </g>
            </g>
          </g>
        </g>
      </g>
      <g id="Grupo_59801" data-name="Grupo 59801" transform="translate(9.668 165.876)">
        <g id="Grupo_59800" data-name="Grupo 59800">
          <g id="Grupo_59799" data-name="Grupo 59799">
            <g id="Grupo_59798" data-name="Grupo 59798">
              <g id="Grupo_59797" data-name="Grupo 59797">
                <g id="Grupo_59796" data-name="Grupo 59796">
                  <path id="Trazado_114112" data-name="Trazado 114112" d="M2163.049,382.171l-1.744,5.522h-7.846l.581-9.881Z" transform="translate(-2153.459 -377.812)" fill="#ffb1df"/>
                </g>
              </g>
            </g>
          </g>
        </g>
      </g>
      <g id="Grupo_59807" data-name="Grupo 59807" transform="translate(58.833 156.285)">
        <g id="Grupo_59806" data-name="Grupo 59806">
          <g id="Grupo_59805" data-name="Grupo 59805">
            <g id="Grupo_59804" data-name="Grupo 59804">
              <g id="Grupo_59803" data-name="Grupo 59803">
                <g id="Grupo_59802" data-name="Grupo 59802">
                  <path id="Trazado_114113" data-name="Trazado 114113" d="M2196.807,378.109,2199.45,395l9.178-.651-4.658-24.992Z" transform="translate(-2196.807 -369.356)" fill="#ffb1df"/>
                </g>
              </g>
            </g>
          </g>
        </g>
      </g>
      <g id="Grupo_59815" data-name="Grupo 59815" transform="translate(29.412 50.448)">
        <g id="Grupo_59814" data-name="Grupo 59814">
          <g id="Grupo_59813" data-name="Grupo 59813">
            <g id="Grupo_59812" data-name="Grupo 59812">
              <g id="Grupo_59811" data-name="Grupo 59811">
                <g id="Grupo_59810" data-name="Grupo 59810">
                  <g id="Grupo_59809" data-name="Grupo 59809">
                    <g id="Grupo_59808" data-name="Grupo 59808">
                      <path id="Trazado_114114" data-name="Trazado 114114" d="M2171.561,297.364c.015.091.03.181.046.267,1.938,9.848,6.329,18.377,9.662,27.439a74.9,74.9,0,0,1,3.061,10.23c2.366,10.961,5.311,21.876,7.163,32.57,1.5,8.609,1.178,15.828,4.985,23.95.776,1.651,1.656,3.363,3.1,4.269a6.839,6.839,0,0,0,3.907.8c9.993-.287,10.17-3.761,8.861-13.382-1.1-8.137-1.209-16.212-2.483-24.313-3.383-21.563-9.671-53.966-13.341-68.376-.162-.625-.313-1.214-.464-1.767a31.109,31.109,0,0,0-1.253-3.751c-2.745-6.752-7.613-11.111-14.259-8.489a19.285,19.285,0,0,0-5.871,3.158,9.057,9.057,0,0,0-.9.9c-.065.076-.126.152-.187.222a10.451,10.451,0,0,0-1.611,2.754C2170.362,287.817,2170.771,292.887,2171.561,297.364Z" transform="translate(-2170.867 -276.039)" fill="#2300b1"/>
                    </g>
                  </g>
                </g>
              </g>
            </g>
          </g>
        </g>
      </g>
      <g id="Grupo_59830" data-name="Grupo 59830" transform="translate(6.162 58.084)">
        <g id="Grupo_59829" data-name="Grupo 59829">
          <g id="Grupo_59828" data-name="Grupo 59828">
            <g id="Grupo_59827" data-name="Grupo 59827">
              <g id="Grupo_59826" data-name="Grupo 59826">
                <g id="Grupo_59820" data-name="Grupo 59820" transform="translate(35.186 35.036)">
                  <g id="Grupo_59819" data-name="Grupo 59819">
                    <g id="Grupo_59818" data-name="Grupo 59818">
                      <g id="Grupo_59817" data-name="Grupo 59817">
                        <g id="Grupo_59816" data-name="Grupo 59816">
                          <path id="Trazado_114115" data-name="Trazado 114115" d="M2181.391,313.663c.01.639.016,1.284.02,1.928C2181.437,319.437,2181.795,313.789,2181.391,313.663Z" transform="translate(-2181.391 -313.663)" fill="#2300b1"/>
                        </g>
                      </g>
                    </g>
                  </g>
                </g>
                <g id="Grupo_59825" data-name="Grupo 59825">
                  <g id="Grupo_59824" data-name="Grupo 59824">
                    <g id="Grupo_59823" data-name="Grupo 59823">
                      <g id="Grupo_59822" data-name="Grupo 59822">
                        <g id="Grupo_59821" data-name="Grupo 59821">
                          <path id="Trazado_114116" data-name="Trazado 114116" d="M2151.167,393.041a10.358,10.358,0,0,0,.675,1.435c2.16,3.827,7.94,4.2,11.61,1.787s5.633-6.686,7.033-10.849c2.613-7.763,4.078-15.407,6.339-23.236,2.27-7.869,5.07-26.779,7.2-38.012.372-1.959.725-3.685,1.047-5.08.227-.977.383-1.313.488-1.278-.1-7.895.88-23.167.754-31.056-.029-1.833-1.4,3.712-1.393,1.879.015-5.468-5.05-6.3-10.19-5.689a36.48,36.48,0,0,0-4.7.886c-2.007.508-4.393,4.389-5.425,2.686-1-1.655-2.213,20.022-2.895,26.257-1.513,13.835-1.867,16.882-2.839,30.751C2158.184,353.3,2147.391,383.118,2151.167,393.041Z" transform="translate(-2150.368 -282.772)" fill="#2300b1"/>
                        </g>
                      </g>
                    </g>
                  </g>
                </g>
              </g>
            </g>
          </g>
        </g>
      </g>
      <g id="Grupo_59843" data-name="Grupo 59843" transform="translate(9.088 173.527)">
        <g id="Grupo_59842" data-name="Grupo 59842">
          <g id="Grupo_59841" data-name="Grupo 59841">
            <g id="Grupo_59835" data-name="Grupo 59835">
              <g id="Grupo_59834" data-name="Grupo 59834">
                <g id="Grupo_59833" data-name="Grupo 59833">
                  <g id="Grupo_59832" data-name="Grupo 59832">
                    <g id="Grupo_59831" data-name="Grupo 59831">
                      <path id="Trazado_114117" data-name="Trazado 114117" d="M2162.433,384.558l8.461,3.98a2.253,2.253,0,0,1,1.633,2.757h-19.58l.557-5.1h6.6Z" transform="translate(-2152.947 -384.558)" fill="#150077"/>
                    </g>
                  </g>
                </g>
              </g>
            </g>
            <g id="Grupo_59840" data-name="Grupo 59840" transform="translate(0.001 6.737)">
              <g id="Grupo_59839" data-name="Grupo 59839">
                <g id="Grupo_59838" data-name="Grupo 59838">
                  <g id="Grupo_59837" data-name="Grupo 59837">
                    <g id="Grupo_59836" data-name="Grupo 59836">
                      <path id="Trazado_114118" data-name="Trazado 114118" d="M2172.708,390.5v1.955h-19.751l-.01-1.955Z" transform="translate(-2152.948 -390.498)" fill="#8869b9"/>
                    </g>
                  </g>
                </g>
              </g>
            </g>
          </g>
        </g>
      </g>
      <g id="Grupo_59849" data-name="Grupo 59849" transform="translate(27.069 4.735)">
        <g id="Grupo_59848" data-name="Grupo 59848">
          <g id="Grupo_59847" data-name="Grupo 59847">
            <g id="Grupo_59846" data-name="Grupo 59846">
              <g id="Grupo_59845" data-name="Grupo 59845">
                <g id="Grupo_59844" data-name="Grupo 59844">
                  <path id="Trazado_114119" data-name="Trazado 114119" d="M2169.3,245.9l-.057-.109c-2.124-4.119,3.863-8.827,7.72-9.692,7.326-1.641,2.633,2.693,1.537,5.436-.971,2.434,0,5.53-2.148,7.466-.924.831-1.92,3.152-3.165,2.57-.623-.291-1.943-2.522-2.277-3.07C2170.38,247.626,2169.779,246.8,2169.3,245.9Z" transform="translate(-2168.801 -235.734)" fill="#150077"/>
                </g>
              </g>
            </g>
          </g>
        </g>
      </g>
      <g id="Grupo_59855" data-name="Grupo 59855" transform="translate(29.187 15.359)">
        <g id="Grupo_59854" data-name="Grupo 59854">
          <g id="Grupo_59853" data-name="Grupo 59853">
            <g id="Grupo_59852" data-name="Grupo 59852">
              <g id="Grupo_59851" data-name="Grupo 59851">
                <g id="Grupo_59850" data-name="Grupo 59850">
                  <path id="Trazado_114120" data-name="Trazado 114120" d="M2172.378,246.137l-1.709,8.806c.237,1.6,4.756.884,6.679.6a3.289,3.289,0,0,0,3.062-3.433l-1.038-7.007Z" transform="translate(-2170.669 -245.101)" fill="#ffb1df"/>
                </g>
              </g>
            </g>
          </g>
        </g>
      </g>
      <g id="Grupo_59861" data-name="Grupo 59861" transform="translate(32.934 15.36)">
        <g id="Grupo_59860" data-name="Grupo 59860">
          <g id="Grupo_59859" data-name="Grupo 59859">
            <g id="Grupo_59858" data-name="Grupo 59858">
              <g id="Grupo_59857" data-name="Grupo 59857">
                <g id="Grupo_59856" data-name="Grupo 59856">
                  <path id="Trazado_114121" data-name="Trazado 114121" d="M2173.972,245.837l.1.643a3.527,3.527,0,0,0,.419,1.206,5.049,5.049,0,0,0,5.155,2.212l-.711-4.8Z" transform="translate(-2173.972 -245.102)" fill="#150077"/>
                </g>
              </g>
            </g>
          </g>
        </g>
      </g>
      <g id="Grupo_59868" data-name="Grupo 59868" transform="translate(29.157 8.899)">
        <g id="Grupo_59867" data-name="Grupo 59867">
          <g id="Grupo_59866" data-name="Grupo 59866">
            <g id="Grupo_59865" data-name="Grupo 59865">
              <g id="Grupo_59864" data-name="Grupo 59864">
                <g id="Grupo_59863" data-name="Grupo 59863">
                  <g id="Grupo_59862" data-name="Grupo 59862">
                    <path id="Trazado_114122" data-name="Trazado 114122" d="M2180.639,245.613l-2.251-5.788a3.466,3.466,0,0,0-.2-.421l-7.548,2.791a3.583,3.583,0,0,0,.139.442l1.839,4.728a2.606,2.606,0,0,1,.174.662c.091.043.178.091.263.142.105-.05.224-.1.365-.153,1.13.819,4.507,1.755,6.545.677C2181.116,248.087,2181.094,246.785,2180.639,245.613Z" transform="translate(-2170.642 -239.405)" fill="#ffb1df"/>
                  </g>
                </g>
              </g>
            </g>
          </g>
        </g>
      </g>
      <g id="Grupo_59874" data-name="Grupo 59874" transform="translate(28.434 9.432)">
        <g id="Grupo_59873" data-name="Grupo 59873">
          <g id="Grupo_59872" data-name="Grupo 59872">
            <g id="Grupo_59871" data-name="Grupo 59871">
              <g id="Grupo_59870" data-name="Grupo 59870">
                <g id="Grupo_59869" data-name="Grupo 59869">
                  <path id="Trazado_114123" data-name="Trazado 114123" d="M2174.753,239.875l.207,3.212a1.873,1.873,0,0,1-1.773,1.951l-1.889.134-1.292-4.37,3.026-.805Z" transform="translate(-2170.005 -239.875)" fill="#150077"/>
                </g>
              </g>
            </g>
          </g>
        </g>
      </g>
      <g id="Grupo_59880" data-name="Grupo 59880" transform="translate(29.731 14.961)">
        <g id="Grupo_59879" data-name="Grupo 59879">
          <g id="Grupo_59878" data-name="Grupo 59878">
            <g id="Grupo_59877" data-name="Grupo 59877">
              <g id="Grupo_59876" data-name="Grupo 59876">
                <g id="Grupo_59875" data-name="Grupo 59875">
                  <path id="Trazado_114124" data-name="Trazado 114124" d="M2173.908,244.75l.045,2.522c.018.845-.893,1.649-2.148,1.981l-.657-4.433Z" transform="translate(-2171.148 -244.75)" fill="#150077"/>
                </g>
              </g>
            </g>
          </g>
        </g>
      </g>
      <g id="Grupo_59886" data-name="Grupo 59886" transform="translate(29.449 14.509)">
        <g id="Grupo_59885" data-name="Grupo 59885">
          <g id="Grupo_59884" data-name="Grupo 59884">
            <g id="Grupo_59883" data-name="Grupo 59883">
              <g id="Grupo_59882" data-name="Grupo 59882">
                <g id="Grupo_59881" data-name="Grupo 59881">
                  <path id="Trazado_114125" data-name="Trazado 114125" d="M2173.969,247.068a1.786,1.786,0,0,1-2.441.251,1.622,1.622,0,0,1-.232-2.347,1.786,1.786,0,0,1,2.441-.251A1.623,1.623,0,0,1,2173.969,247.068Z" transform="translate(-2170.899 -244.352)" fill="#150077"/>
                </g>
              </g>
            </g>
          </g>
        </g>
      </g>
      <g id="Grupo_59892" data-name="Grupo 59892" transform="translate(29.775 14.233)">
        <g id="Grupo_59891" data-name="Grupo 59891">
          <g id="Grupo_59890" data-name="Grupo 59890">
            <g id="Grupo_59889" data-name="Grupo 59889">
              <g id="Grupo_59888" data-name="Grupo 59888">
                <g id="Grupo_59887" data-name="Grupo 59887">
                  <path id="Trazado_114126" data-name="Trazado 114126" d="M2174.256,246.824a1.783,1.783,0,0,1-2.44.251,1.62,1.62,0,0,1-.232-2.345,1.782,1.782,0,0,1,2.439-.251A1.62,1.62,0,0,1,2174.256,246.824Z" transform="translate(-2171.187 -244.108)" fill="#ffb1df"/>
                </g>
              </g>
            </g>
          </g>
        </g>
      </g>
      <g id="Grupo_59898" data-name="Grupo 59898" transform="translate(18.908 53.581)">
        <g id="Grupo_59897" data-name="Grupo 59897">
          <g id="Grupo_59896" data-name="Grupo 59896">
            <g id="Grupo_59895" data-name="Grupo 59895">
              <g id="Grupo_59894" data-name="Grupo 59894">
                <g id="Grupo_59893" data-name="Grupo 59893">
                  <path id="Trazado_114127" data-name="Trazado 114127" d="M2161.606,296.39a6.978,6.978,0,0,0,.9.1,55.762,55.762,0,0,0,11.247-.717,97.069,97.069,0,0,0,10.031-2.2c4.542-1.215,9.036-2.643,13.492-3.967-.152-.587-.295-1.143-.437-1.665a29.055,29.055,0,0,0-1.182-3.535,13.651,13.651,0,0,0-2.814-2.62,18.117,18.117,0,0,0-9.14-2.923,26.14,26.14,0,0,0-7.018.517,8.337,8.337,0,0,0-.85.849c-.062.07-.119.142-.176.209a9.814,9.814,0,0,0-1.519,2.6,34.14,34.14,0,0,0-4.428.835,10.9,10.9,0,0,0-5.115,2.534C2162.73,288.27,2162.184,293.115,2161.606,296.39Z" transform="translate(-2161.606 -278.801)" fill="#150077"/>
                </g>
              </g>
            </g>
          </g>
        </g>
      </g>
      <g id="Grupo_59904" data-name="Grupo 59904" transform="translate(12.721 19.51)">
        <g id="Grupo_59903" data-name="Grupo 59903">
          <g id="Grupo_59902" data-name="Grupo 59902">
            <g id="Grupo_59901" data-name="Grupo 59901">
              <g id="Grupo_59900" data-name="Grupo 59900">
                <g id="Grupo_59899" data-name="Grupo 59899">
                  <path id="Trazado_114128" data-name="Trazado 114128" d="M2197.8,256.719a22.325,22.325,0,0,0-.919-3.417,6.643,6.643,0,0,0-2.6-3.457c-2.923-1.8-7.469-1.067-10.481.082a22.129,22.129,0,0,1-11.342,1.5c-3.828-.369-7.877-.23-11.247,1.626s-5.808,5.829-4.856,9.557l2.052-.972a46.391,46.391,0,0,0,2.231,10.989c1.335,4.445,2.847,8.879,3.29,13.671.189,2.045-1.984,4.373-.357,5.63a4.22,4.22,0,0,0,1.487.711,11.191,11.191,0,0,0,2.529.313c5.884.229,15.155.124,21.026-.316,3.439-.257,7.489-1.065,8.845-4.234a9.837,9.837,0,0,0,.538-3.8C2198.073,275.533,2199.641,265.658,2197.8,256.719Z" transform="translate(-2156.151 -248.761)" fill="#7adcfb"/>
                </g>
              </g>
            </g>
          </g>
        </g>
      </g>
      <g id="Grupo_59911" data-name="Grupo 59911" transform="translate(39.808 11.993)">
        <g id="Grupo_59910" data-name="Grupo 59910">
          <g id="Grupo_59909" data-name="Grupo 59909">
            <g id="Grupo_59908" data-name="Grupo 59908">
              <g id="Grupo_59907" data-name="Grupo 59907">
                <g id="Grupo_59906" data-name="Grupo 59906">
                  <g id="Grupo_59905" data-name="Grupo 59905">
                    <path id="Trazado_114129" data-name="Trazado 114129" d="M2232.931,242.133c-.133.059-.265.123-.4.2-1.564.864-2.723,2.826-3.885,4.071-1.732,1.852-3.661,3.55-5.449,5.359-5.569,5.641-11.554,7.11-19.108,4.012-4.371-1.793-8.363-4.47-12.841-5.976-7.322-2.465-14.663,3.831-9.461,11.111,13.777,19.287,46.44,9.516,55.013-9.372.668-1.471,1.661-2.347,1.846-3.868A13.325,13.325,0,0,0,2232.931,242.133Z" transform="translate(-2180.033 -242.133)" fill="#7adcfb"/>
                  </g>
                </g>
              </g>
            </g>
          </g>
        </g>
      </g>
      <g id="Grupo_59920" data-name="Grupo 59920" transform="translate(29.099 21.297)">
        <g id="Grupo_59919" data-name="Grupo 59919">
          <g id="Grupo_59918" data-name="Grupo 59918">
            <g id="Grupo_59917" data-name="Grupo 59917">
              <g id="Grupo_59916" data-name="Grupo 59916">
                <g id="Grupo_59915" data-name="Grupo 59915">
                  <g id="Grupo_59914" data-name="Grupo 59914">
                    <g id="Grupo_59913" data-name="Grupo 59913">
                      <g id="Grupo_59912" data-name="Grupo 59912">
                        <path id="Trazado_114130" data-name="Trazado 114130" d="M2171.747,255.751l-1.156-4.474.27-.11.986,4.056,3.941-4.132,4.059,2.907.585-3.661.289.046-.659,4.128-4.237-3.034Z" transform="translate(-2170.592 -250.336)" fill="#fff"/>
                      </g>
                    </g>
                  </g>
                </g>
              </g>
            </g>
          </g>
        </g>
      </g>
      <g id="Grupo_59929" data-name="Grupo 59929" transform="translate(88.68 15.625)">
        <g id="Grupo_59928" data-name="Grupo 59928">
          <g id="Grupo_59927" data-name="Grupo 59927">
            <g id="Grupo_59926" data-name="Grupo 59926">
              <g id="Grupo_59925" data-name="Grupo 59925">
                <g id="Grupo_59924" data-name="Grupo 59924">
                  <g id="Grupo_59923" data-name="Grupo 59923">
                    <g id="Grupo_59922" data-name="Grupo 59922">
                      <g id="Grupo_59921" data-name="Grupo 59921">
                        <path id="Trazado_114131" data-name="Trazado 114131" d="M2223.412,245.336a35.028,35.028,0,0,0,7.2,6.642l-.2.409a35.649,35.649,0,0,1-7.283-6.709Z" transform="translate(-2223.124 -245.336)" fill="#fff"/>
                      </g>
                    </g>
                  </g>
                </g>
              </g>
            </g>
          </g>
        </g>
      </g>
      <g id="Grupo_59935" data-name="Grupo 59935" transform="translate(17.212 33.213)">
        <g id="Grupo_59934" data-name="Grupo 59934">
          <g id="Grupo_59933" data-name="Grupo 59933">
            <g id="Grupo_59932" data-name="Grupo 59932">
              <g id="Grupo_59931" data-name="Grupo 59931">
                <g id="Grupo_59930" data-name="Grupo 59930">
                  <path id="Trazado_114132" data-name="Trazado 114132" d="M2163.043,290.309a4.219,4.219,0,0,0,1.487.711,1.435,1.435,0,0,1,.487-1.46,7.377,7.377,0,0,0,1.376-1.244,3.344,3.344,0,0,0,.394-1.273,16.083,16.083,0,0,0,.314-2.908c-.028-2.088-.86-4.081-1.17-6.148a48.654,48.654,0,0,1-.148-6.136,25.326,25.326,0,0,0-2.824-11.008c-.892,3.48-2.025,6.84-2.847,10.164,1.335,4.445,2.847,8.879,3.29,13.671C2163.59,286.724,2161.417,289.052,2163.043,290.309Z" transform="translate(-2160.11 -260.843)" fill="#26a4fb"/>
                </g>
              </g>
            </g>
          </g>
        </g>
      </g>
      <g id="Grupo_59948" data-name="Grupo 59948" transform="translate(59.757 173.236)">
        <g id="Grupo_59947" data-name="Grupo 59947">
          <g id="Grupo_59946" data-name="Grupo 59946">
            <g id="Grupo_59940" data-name="Grupo 59940">
              <g id="Grupo_59939" data-name="Grupo 59939">
                <g id="Grupo_59938" data-name="Grupo 59938">
                  <g id="Grupo_59937" data-name="Grupo 59937">
                    <g id="Grupo_59936" data-name="Grupo 59936">
                      <path id="Trazado_114133" data-name="Trazado 114133" d="M2207.108,384.3l8.461,3.981a2.254,2.254,0,0,1,1.633,2.757h-19.58l.557-5.1h6.6Z" transform="translate(-2197.622 -384.301)" fill="#150077"/>
                    </g>
                  </g>
                </g>
              </g>
            </g>
            <g id="Grupo_59945" data-name="Grupo 59945" transform="translate(0 6.738)">
              <g id="Grupo_59944" data-name="Grupo 59944">
                <g id="Grupo_59943" data-name="Grupo 59943">
                  <g id="Grupo_59942" data-name="Grupo 59942">
                    <g id="Grupo_59941" data-name="Grupo 59941">
                      <path id="Trazado_114134" data-name="Trazado 114134" d="M2217.382,390.242V392.2h-19.75l-.01-1.955Z" transform="translate(-2197.622 -390.242)" fill="#8869b9"/>
                    </g>
                  </g>
                </g>
              </g>
            </g>
          </g>
        </g>
      </g>
      <g id="Grupo_59958" data-name="Grupo 59958" transform="translate(94.815 6.807)">
        <g id="Grupo_59957" data-name="Grupo 59957">
          <g id="Grupo_59956" data-name="Grupo 59956">
            <g id="Grupo_59955" data-name="Grupo 59955">
              <g id="Grupo_59954" data-name="Grupo 59954">
                <g id="Grupo_59953" data-name="Grupo 59953">
                  <g id="Grupo_59952" data-name="Grupo 59952">
                    <g id="Grupo_59951" data-name="Grupo 59951">
                      <g id="Grupo_59950" data-name="Grupo 59950">
                        <g id="Grupo_59949" data-name="Grupo 59949">
                          <path id="Trazado_114135" data-name="Trazado 114135" d="M2228.733,237.561l-.2.285a4.9,4.9,0,0,1,2.022,4.069l.348.012A5.254,5.254,0,0,0,2228.733,237.561Z" transform="translate(-2228.533 -237.561)" fill="#f774bc"/>
                        </g>
                      </g>
                    </g>
                  </g>
                </g>
              </g>
            </g>
          </g>
        </g>
      </g>
      <g id="Grupo_60012" data-name="Grupo 60012" transform="translate(0 21.801)">
        <g id="Grupo_59979" data-name="Grupo 59979">
          <g id="Grupo_59968" data-name="Grupo 59968" transform="translate(25.327 40.777)">
            <g id="Grupo_59967" data-name="Grupo 59967">
              <g id="Grupo_59966" data-name="Grupo 59966">
                <g id="Grupo_59965" data-name="Grupo 59965">
                  <g id="Grupo_59964" data-name="Grupo 59964">
                    <g id="Grupo_59963" data-name="Grupo 59963">
                      <g id="Grupo_59962" data-name="Grupo 59962">
                        <g id="Grupo_59961" data-name="Grupo 59961">
                          <g id="Grupo_59960" data-name="Grupo 59960">
                            <g id="Grupo_59959" data-name="Grupo 59959">
                              <path id="Trazado_114136" data-name="Trazado 114136" d="M2182.094,291.742c-4.791,1.194-9.87-.124-14.828-.428.8,0,2.028-3.541,2.755-4.02a3.689,3.689,0,0,1,2.771-.493c.51.067,1.058.171,1.672.246,3.79.465,7.575.988,11.361,1.486C2184.631,289.648,2183.379,290.757,2182.094,291.742Z" transform="translate(-2167.265 -286.735)" fill="#ffb1df"/>
                            </g>
                          </g>
                        </g>
                      </g>
                    </g>
                  </g>
                </g>
              </g>
            </g>
          </g>
          <g id="Grupo_59978" data-name="Grupo 59978">
            <g id="Grupo_59977" data-name="Grupo 59977">
              <g id="Grupo_59976" data-name="Grupo 59976">
                <g id="Grupo_59975" data-name="Grupo 59975">
                  <g id="Grupo_59974" data-name="Grupo 59974">
                    <g id="Grupo_59973" data-name="Grupo 59973">
                      <g id="Grupo_59972" data-name="Grupo 59972">
                        <g id="Grupo_59971" data-name="Grupo 59971">
                          <g id="Grupo_59970" data-name="Grupo 59970">
                            <g id="Grupo_59969" data-name="Grupo 59969">
                              <path id="Trazado_114137" data-name="Trazado 114137" d="M2147.985,272.314c.678-2.437,1.4-4.861,2.231-7.252,1.59-4.595,3.754-9.3,7.776-12.037,2.616-1.777,13.665-4.378,13.809.831.053,1.927-3.367,5.709-4.269,7.492-1.874,3.705-3.521,7.521-5.05,11.378-1.33,3.351-4.114,8.113-4.126,11.759-.02,5.89,12.18,4.858,15.853,4.852a.918.918,0,0,1,1.1,1.159v5.044c0,1.012-.091,2.2-.943,2.745a3.016,3.016,0,0,1-1.669.315,106.026,106.026,0,0,1-17.734-1.632,16.413,16.413,0,0,1-5.775-1.846,9.007,9.007,0,0,1-4.2-6.658c-.276-2.662.684-5.128,1.422-7.628C2147.253,277.967,2147.206,275.115,2147.985,272.314Z" transform="translate(-2144.935 -250.781)" fill="#7adcfb"/>
                            </g>
                          </g>
                        </g>
                      </g>
                    </g>
                  </g>
                </g>
              </g>
            </g>
          </g>
        </g>
        <g id="Grupo_59984" data-name="Grupo 59984" transform="translate(30.483 39.085)">
          <g id="Grupo_59983" data-name="Grupo 59983">
            <g id="Grupo_59982" data-name="Grupo 59982">
              <g id="Grupo_59981" data-name="Grupo 59981">
                <g id="Grupo_59980" data-name="Grupo 59980">
                  <path id="Trazado_114138" data-name="Trazado 114138" d="M2171.811,286.817l2.264-1.1a4.7,4.7,0,0,1,4.223.056l1.937,1.006-6.164,1.248Z" transform="translate(-2171.811 -285.242)" fill="#ffb1df"/>
                </g>
              </g>
            </g>
          </g>
        </g>
        <g id="New_Symbol_36" data-name="New Symbol 36" transform="translate(32.742 24.129)">
          <g id="Grupo_59993" data-name="Grupo 59993" transform="translate(10.768)">
            <g id="Grupo_59992" data-name="Grupo 59992">
              <g id="Grupo_59991" data-name="Grupo 59991">
                <g id="Grupo_59990" data-name="Grupo 59990">
                  <g id="Grupo_59989" data-name="Grupo 59989">
                    <g id="Grupo_59988" data-name="Grupo 59988">
                      <g id="Grupo_59987" data-name="Grupo 59987">
                        <g id="Grupo_59986" data-name="Grupo 59986">
                          <g id="Grupo_59985" data-name="Grupo 59985">
                            <rect id="Rect치ngulo_7048" data-name="Rect치ngulo 7048" width="28.649" height="19.049" rx="1.378" fill="#150077"/>
                          </g>
                        </g>
                      </g>
                    </g>
                  </g>
                </g>
              </g>
            </g>
          </g>
          <g id="Grupo_60002" data-name="Grupo 60002" transform="translate(0 16.429)">
            <g id="Grupo_60001" data-name="Grupo 60001">
              <g id="Grupo_60000" data-name="Grupo 60000">
                <g id="Grupo_59999" data-name="Grupo 59999">
                  <g id="Grupo_59998" data-name="Grupo 59998">
                    <g id="Grupo_59997" data-name="Grupo 59997">
                      <g id="Grupo_59996" data-name="Grupo 59996">
                        <g id="Grupo_59995" data-name="Grupo 59995">
                          <g id="Grupo_59994" data-name="Grupo 59994">
                            <path id="Trazado_114139" data-name="Trazado 114139" d="M2200.956,289.161h-25.842a1.31,1.31,0,0,1-1.311-1.31h0a1.31,1.31,0,0,1,1.311-1.31h25.842a1.31,1.31,0,0,1,1.31,1.31h0A1.31,1.31,0,0,1,2200.956,289.161Z" transform="translate(-2173.803 -286.541)" fill="#150077"/>
                          </g>
                        </g>
                      </g>
                    </g>
                  </g>
                </g>
              </g>
            </g>
          </g>
          <g id="Grupo_60011" data-name="Grupo 60011" transform="translate(24.208 8.301)">
            <g id="Grupo_60010" data-name="Grupo 60010">
              <g id="Grupo_60009" data-name="Grupo 60009">
                <g id="Grupo_60008" data-name="Grupo 60008">
                  <g id="Grupo_60007" data-name="Grupo 60007">
                    <g id="Grupo_60006" data-name="Grupo 60006">
                      <g id="Grupo_60005" data-name="Grupo 60005">
                        <g id="Grupo_60004" data-name="Grupo 60004">
                          <g id="Grupo_60003" data-name="Grupo 60003">
                            <path id="Trazado_114140" data-name="Trazado 114140" d="M2197.334,280.84a.612.612,0,0,1-.194-1.192,1.223,1.223,0,1,0,.438,1.141A.606.606,0,0,1,2197.334,280.84Z" transform="translate(-2195.147 -279.375)" fill="#ebf6fc"/>
                          </g>
                        </g>
                      </g>
                    </g>
                  </g>
                </g>
              </g>
            </g>
          </g>
        </g>
      </g>
      <g id="Grupo_60021" data-name="Grupo 60021" transform="translate(21.356 60.336)">
        <g id="Grupo_60020" data-name="Grupo 60020">
          <g id="Grupo_60019" data-name="Grupo 60019">
            <g id="Grupo_60018" data-name="Grupo 60018">
              <g id="Grupo_60017" data-name="Grupo 60017">
                <g id="Grupo_60016" data-name="Grupo 60016">
                  <g id="Grupo_60015" data-name="Grupo 60015">
                    <g id="Grupo_60014" data-name="Grupo 60014">
                      <g id="Grupo_60013" data-name="Grupo 60013">
                        <path id="Trazado_114141" data-name="Trazado 114141" d="M2164.752,284.785a33.744,33.744,0,0,0-.432,9.05l-.431-.028a34.029,34.029,0,0,1,.436-9.05Z" transform="translate(-2163.764 -284.757)" fill="#fff"/>
                      </g>
                    </g>
                  </g>
                </g>
              </g>
            </g>
          </g>
        </g>
      </g>
    </g>
    <g id="Grupo_60026" data-name="Grupo 60026" transform="translate(2144.477 413.61)">
      <g id="Grupo_60025" data-name="Grupo 60025">
        <g id="Grupo_60024" data-name="Grupo 60024">
          <g id="Grupo_60023" data-name="Grupo 60023">
            <rect id="Rect치ngulo_7049" data-name="Rect치ngulo 7049" width="84.354" height="0.313" fill="#26a4fb"/>
          </g>
        </g>
      </g>
    </g>
  </g>
</svg>
