<svg xmlns="http://www.w3.org/2000/svg" width="99" height="99" viewBox="0 0 99 99">
  <g id="Grupo_57972" data-name="Grupo 57972" transform="translate(-305 -4991)">
    <rect id="Rectángulo_6806" data-name="Rectángulo 6806" width="99" height="99" transform="translate(305 4991)" fill="none"/>
    <g id="sewing-machine" transform="translate(304.939 4999.101)">
      <g id="Grupo_57976" data-name="Grupo 57976" transform="translate(10.919 3.726)">
        <path id="Trazado_112029" data-name="Trazado 112029" d="M127.257,276.731v2.86a2,2,0,0,0,1.989,1.989h4.861a1.994,1.994,0,0,0,1.989-1.989v-2.86Z" transform="translate(-109.434 -235.704)" fill="#f4dd45"/>
        <path id="Trazado_112030" data-name="Trazado 112030" d="M378.182,23.038h-4.591a1.7,1.7,0,0,0-1.7,1.686v7.814a1.7,1.7,0,0,0,1.7,1.686h4.591a1.7,1.7,0,0,0,1.7-1.686V24.724A1.7,1.7,0,0,0,378.182,23.038Z" transform="translate(-314.508 -23.038)" fill="#f87c68"/>
        <path id="Trazado_112031" data-name="Trazado 112031" d="M375.888,32.538V24.724a1.7,1.7,0,0,1,1.7-1.686h-3.993a1.7,1.7,0,0,0-1.7,1.686v7.814a1.7,1.7,0,0,0,1.7,1.686h3.993A1.7,1.7,0,0,1,375.888,32.538Z" transform="translate(-314.509 -23.038)" fill="#ec625e"/>
        <path id="Trazado_112032" data-name="Trazado 112032" d="M142.9,92.207H103.41a11.476,11.476,0,0,0-11.476,11.476v15.331a3.519,3.519,0,0,0,3.519,3.519h13.225a3.519,3.519,0,0,0,3.519-3.519v-3.482a3.062,3.062,0,0,1,3.062-3.062h15.794a3.062,3.062,0,0,1,3.062,3.062v20.744h20.263V103.683A11.476,11.476,0,0,0,142.9,92.207Z" transform="translate(-79.824 -81.021)" fill="#7fb3fa"/>
        <g id="Grupo_57975" data-name="Grupo 57975" transform="translate(12.11 11.186)">
          <path id="Trazado_112033" data-name="Trazado 112033" d="M97.646,119.014V103.683a11.476,11.476,0,0,1,11.476-11.476H103.41a11.476,11.476,0,0,0-11.476,11.476v15.331a3.519,3.519,0,0,0,3.519,3.519h5.712A3.519,3.519,0,0,1,97.646,119.014Z" transform="translate(-91.934 -92.207)" fill="#64a6f4"/>
          <path id="Trazado_112034" data-name="Trazado 112034" d="M339.536,217.505h-5.712a3.062,3.062,0,0,1,3.062,3.062v20.744H342.6V220.567A3.062,3.062,0,0,0,339.536,217.505Z" transform="translate(-294.706 -197.242)" fill="#64a6f4"/>
          <path id="Trazado_112035" data-name="Trazado 112035" d="M100.091,155.543a1.975,1.975,0,0,0,1.975-1.975v-12.76a1.975,1.975,0,0,0-1.975-1.975H92.627a11.455,11.455,0,0,0-.693,3.936v12.774h8.157Z" transform="translate(-91.934 -131.293)" fill="#64a6f4"/>
        </g>
        <path id="Trazado_112036" data-name="Trazado 112036" d="M97.646,142.768a11.455,11.455,0,0,1,.693-3.936H92.627a11.641,11.641,0,0,0-.693,3.933v12.777h5.712Z" transform="translate(-79.824 -120.106)" fill="#3d8bd8"/>
        <circle id="Elipse_6212" data-name="Elipse 6212" cx="9" cy="9" r="9" transform="translate(59.224 22.388)" fill="#477b9e"/>
        <path id="Trazado_112037" data-name="Trazado 112037" d="M388.55,170.477a9,9,0,0,1,6.358-8.605,9,9,0,1,0,0,17.21A9,9,0,0,1,388.55,170.477Z" transform="translate(-324.043 -139.089)" fill="#3f6d8e"/>
        <circle id="Elipse_6213" data-name="Elipse 6213" cx="4.255" cy="4.255" r="4.255" transform="translate(63.969 27.133)" fill="#3f6d8e"/>
        <path id="Trazado_112038" data-name="Trazado 112038" d="M416.86,195.07a4.252,4.252,0,0,1,2.128-3.685,4.255,4.255,0,1,0,0,7.369A4.252,4.252,0,0,1,416.86,195.07Z" transform="translate(-348.636 -163.682)" fill="#365e7d"/>
        <path id="Trazado_112039" data-name="Trazado 112039" d="M198.453,361.709H243.67v16.432H198.453Z" transform="translate(-169.117 -306.939)" fill="#b5dcff"/>
        <path id="Trazado_112040" data-name="Trazado 112040" d="M40.489,361.709h-2.9a2.57,2.57,0,0,0-2.555,2.585v13.847h5.457Z" transform="translate(-32.124 -306.939)" fill="#8bcaff"/>
        <path id="Trazado_112041" data-name="Trazado 112041" d="M25.414,467.282v-5.151H18.872a1.828,1.828,0,0,0-1.823,1.823V467.1a1.828,1.828,0,0,0,1.823,1.823h8.185A1.643,1.643,0,0,1,25.414,467.282Z" transform="translate(-17.049 -391.121)" fill="#dbedff"/>
        <path id="Trazado_112042" data-name="Trazado 112042" d="M236,462.131H189.934v5.151a1.643,1.643,0,0,1-1.643,1.643H236a1.828,1.828,0,0,0,1.823-1.823v-3.149A1.828,1.828,0,0,0,236,462.131Z" transform="translate(-160.598 -391.121)" fill="#dbedff"/>
        <path id="Trazado_112043" data-name="Trazado 112043" d="M25.414,476.087v-1.754H18.872a1.827,1.827,0,0,1-1.816-1.7c0,.041-.006.082-.006.124v3.149a1.828,1.828,0,0,0,1.823,1.823h8.185A1.644,1.644,0,0,1,25.414,476.087Z" transform="translate(-17.049 -399.927)" fill="#b5dcff"/>
        <path id="Trazado_112044" data-name="Trazado 112044" d="M236,474.333H189.934v1.754a1.643,1.643,0,0,1-1.643,1.643H236a1.828,1.828,0,0,0,1.823-1.823v-3.149c0-.042,0-.083-.006-.124A1.827,1.827,0,0,1,236,474.333Z" transform="translate(-160.598 -399.926)" fill="#b5dcff"/>
        <path id="Trazado_112045" data-name="Trazado 112045" d="M86.558,351.12H67.417a1.643,1.643,0,0,0-1.643,1.643v21.46a1.643,1.643,0,0,0,1.643,1.643h19.14a1.643,1.643,0,0,0,1.643-1.643v-21.46A1.643,1.643,0,0,0,86.558,351.12Z" transform="translate(-57.894 -298.063)" fill="#f87c68"/>
        <path id="Trazado_112046" data-name="Trazado 112046" d="M72.014,374.223v-21.46a1.643,1.643,0,0,1,1.643-1.643h-6.24a1.643,1.643,0,0,0-1.643,1.643v21.46a1.643,1.643,0,0,0,1.643,1.643h6.24A1.643,1.643,0,0,1,72.014,374.223Z" transform="translate(-57.894 -298.062)" fill="#ec625e"/>
      </g>
      <g id="Grupo_57977" data-name="Grupo 57977" transform="translate(9.736 0)">
        <path id="Trazado_112047" data-name="Trazado 112047" d="M148.483,370.928a1.213,1.213,0,0,0,1.213-1.213v-1.089a1.213,1.213,0,0,0-2.426,0v1.089A1.213,1.213,0,0,0,148.483,370.928Z" transform="translate(-125.028 -307.995)"/>
        <path id="Trazado_112048" data-name="Trazado 112048" d="M148.483,403.011A1.213,1.213,0,0,0,149.7,401.8v-1.089a1.213,1.213,0,1,0-2.426,0V401.8A1.213,1.213,0,0,0,148.483,403.011Z" transform="translate(-125.028 -334.89)"/>
        <path id="Trazado_112049" data-name="Trazado 112049" d="M148.483,435.094a1.213,1.213,0,0,0,1.213-1.213v-1.089a1.213,1.213,0,0,0-2.426,0v1.089A1.213,1.213,0,0,0,148.483,435.094Z" transform="translate(-125.028 -361.785)"/>
        <path id="Trazado_112050" data-name="Trazado 112050" d="M148.483,467.176a1.213,1.213,0,0,0,1.213-1.213v-1.089a1.213,1.213,0,1,0-2.426,0v1.089A1.213,1.213,0,0,0,148.483,467.176Z" transform="translate(-125.028 -388.678)"/>
        <path id="Trazado_112051" data-name="Trazado 112051" d="M185.543,131.677a1.213,1.213,0,0,0-1.213,1.213v2.569a1.213,1.213,0,1,0,2.426,0V132.89A1.213,1.213,0,0,0,185.543,131.677Z" transform="translate(-156.095 -110.382)"/>
        <path id="Trazado_112052" data-name="Trazado 112052" d="M210.52,131.677a1.213,1.213,0,0,0-1.213,1.213v2.569a1.213,1.213,0,1,0,2.426,0V132.89A1.213,1.213,0,0,0,210.52,131.677Z" transform="translate(-177.033 -110.382)"/>
        <path id="Trazado_112053" data-name="Trazado 112053" d="M235.5,131.677a1.213,1.213,0,0,0-1.213,1.213v2.569a1.213,1.213,0,1,0,2.426,0V132.89A1.213,1.213,0,0,0,235.5,131.677Z" transform="translate(-197.969 -110.382)"/>
        <path id="Trazado_112054" data-name="Trazado 112054" d="M260.473,131.677a1.213,1.213,0,0,0-1.213,1.213v2.569a1.213,1.213,0,1,0,2.426,0V132.89A1.213,1.213,0,0,0,260.473,131.677Z" transform="translate(-218.907 -110.382)"/>
        <path id="Trazado_112055" data-name="Trazado 112055" d="M410.759,183.66a5.468,5.468,0,1,0,5.468,5.468A5.474,5.474,0,0,0,410.759,183.66Zm0,8.511a3.042,3.042,0,1,1,3.042-3.042A3.046,3.046,0,0,1,410.759,192.171Z" transform="translate(-341.322 -153.959)"/>
        <path id="Trazado_112056" data-name="Trazado 112056" d="M85.5,65.291a1.213,1.213,0,0,0,1.213-1.213V42.048a10.193,10.193,0,0,0,0-13.757V26.443a12.709,12.709,0,0,0-9.336-12.236,2.871,2.871,0,0,0,.155-.926V5.468a2.908,2.908,0,0,0-2.911-2.9H73.54V1.213a1.213,1.213,0,0,0-2.426,0V2.569H70.032a2.908,2.908,0,0,0-2.911,2.9V9.336H34.4V8.794a1.213,1.213,0,1,0-2.426,0v.541h-.044a1.213,1.213,0,1,0,0,2.426h.044v2.252a12.712,12.712,0,0,0-10.132,12.43V41.775a4.737,4.737,0,0,0,4.732,4.732h.98v1.162a3.205,3.205,0,0,0,3.2,3.2h1.218v1.165h-.665a1.213,1.213,0,1,0,0,2.426h.665v1.165H20.472a2.859,2.859,0,0,0-2.615,1.712H16.412a3.772,3.772,0,0,0-3.768,3.768V73.585a3.037,3.037,0,0,0-2.908,3.029v3.149A3.039,3.039,0,0,0,12.772,82.8H86.35a3.039,3.039,0,0,0,3.036-3.036V76.614A3.038,3.038,0,0,0,86.715,73.6V69.739a1.213,1.213,0,0,0-2.426,0v3.84H42.468V59.764H84.289v4.315A1.212,1.212,0,0,0,85.5,65.291ZM79.173,42.956A7.787,7.787,0,1,1,86.96,35.17,7.8,7.8,0,0,1,79.173,42.956ZM69.547,5.468a.486.486,0,0,1,.485-.473h4.591a.486.486,0,0,1,.485.473v7.814a.486.486,0,0,1-.485.473H70.032a.486.486,0,0,1-.485-.473ZM34.4,11.761H67.121v1.52a2.887,2.887,0,0,0,.042.473H34.535c-.044,0-.087,0-.131,0ZM24.642,23.72h6.574a.763.763,0,0,1,.762.762v12.76a.763.763,0,0,1-.762.762H24.272V26.443A10.175,10.175,0,0,1,24.642,23.72Zm5.343,23.948V46.507H36.4v1.162a.786.786,0,0,1-.776.776H30.76A.786.786,0,0,1,29.984,47.669ZM15.07,61.106a1.344,1.344,0,0,1,1.342-1.342h1.2V73.578H15.07Zm-2.3,19.267a.618.618,0,0,1-.61-.61V76.614a.618.618,0,0,1,.61-.61h4.844v3.938c0,.089.005.176.013.262,0,.025.005.05.009.076s.006.062.011.092H12.772Zm7.27-.43V58.482a.431.431,0,0,1,.43-.43h19.14a.431.431,0,0,1,.43.43v21.46a.431.431,0,0,1-.43.43H20.472a.431.431,0,0,1-.43-.43ZM86.35,76a.618.618,0,0,1,.61.61v3.149a.618.618,0,0,1-.61.61H42.436c0-.03.007-.062.011-.092s.006-.05.009-.076c.008-.087.013-.174.013-.262V76Zm-19.9-18.666V38.292a4.279,4.279,0,0,0-4.275-4.275H57.11a1.213,1.213,0,0,0,0,2.426h5.067a1.851,1.851,0,0,1,1.849,1.849V57.338h-21.8a2.859,2.859,0,0,0-2.615-1.712H34.4V54.461h.665a1.213,1.213,0,0,0,0-2.426H34.4V50.87h1.218a3.205,3.205,0,0,0,3.2-3.2V46.506h.98a4.737,4.737,0,0,0,4.732-4.732V38.292a1.851,1.851,0,0,1,1.849-1.849H51.45a1.213,1.213,0,1,0,0-2.426H46.384a4.279,4.279,0,0,0-4.275,4.275v3.482A2.309,2.309,0,0,1,39.8,44.081H26.578a2.309,2.309,0,0,1-2.306-2.306V40.43h6.944A3.191,3.191,0,0,0,34.4,37.242V24.482a3.191,3.191,0,0,0-3.188-3.188H25.663a10.267,10.267,0,0,1,8.872-5.114H74.026A10.275,10.275,0,0,1,84.289,26.326a10.213,10.213,0,1,0,0,17.685V57.338H66.452Z" transform="translate(-9.736 0)"/>
      </g>
    </g>
  </g>
</svg>
