<svg xmlns="http://www.w3.org/2000/svg" width="99" height="99" viewBox="0 0 99 99">
  <g id="Grupo_57999" data-name="Grupo 57999" transform="translate(-305 -4991)">
    <rect id="Rectángulo_6806" data-name="Rectángulo 6806" width="99" height="99" transform="translate(305 4991)" fill="none"/>
    <g id="people" transform="translate(312.017 4998.5)">
      <g id="Grupo_58685" data-name="Grupo 58685" transform="translate(48.718 40.854)">
        <path id="XMLID_1135_" d="M305.9,359.018h10.249a11.89,11.89,0,0,1,11.89,11.89v11.568H294.005V370.908A11.89,11.89,0,0,1,305.9,359.018Z" transform="translate(-294.005 -340.971)" fill="#ffda8f"/>
        <path id="XMLID_1134_" d="M358.5,249.015a7.7,7.7,0,0,1,7.7,7.7v2.653a7.7,7.7,0,0,1-15.394,0v-2.653a7.7,7.7,0,0,1,7.7-7.7Z" transform="translate(-341.48 -249.015)" fill="#f2b394"/>
      </g>
      <g id="Grupo_58686" data-name="Grupo 58686" transform="translate(2.218 40.854)">
        <path id="XMLID_1159_" d="M32.716,359.018H22.467a11.89,11.89,0,0,0-11.89,11.89v11.568H44.606V370.908A11.89,11.89,0,0,0,32.716,359.018Z" transform="translate(-10.577 -340.971)" fill="#66e0f7"/>
        <path id="XMLID_1158_" d="M75.067,249.015a7.7,7.7,0,0,0-7.7,7.7v2.653a7.7,7.7,0,0,0,15.394,0v-2.653a7.7,7.7,0,0,0-7.7-7.7Z" transform="translate(-58.052 -249.015)" fill="#f2b394"/>
      </g>
      <g id="Grupo_58689" data-name="Grupo 58689" transform="translate(21.316 31.625)">
        <g id="Grupo_58688" data-name="Grupo 58688">
          <path id="Trazado_113609" data-name="Trazado 113609" d="M169.127,377.939V363.02a7.542,7.542,0,0,0-6.121-7.351l-10.371-2.079h-9.162L133.1,355.669a7.542,7.542,0,0,0-6.121,7.351v14.918Z" transform="translate(-126.982 -327.204)" fill="#ff7d97"/>
          <g id="Grupo_58687" data-name="Grupo 58687" transform="translate(11.535)">
            <path id="Trazado_113610" data-name="Trazado 113610" d="M206.923,192.762h-.189a9.443,9.443,0,0,0-9.443,9.443v4.336a9.443,9.443,0,0,0,9.443,9.443h.189a9.443,9.443,0,0,0,9.443-9.443V202.2A9.443,9.443,0,0,0,206.923,192.762Z" transform="translate(-197.291 -192.762)" fill="#ffd0c7"/>
            <path id="Trazado_113611" data-name="Trazado 113611" d="M232.892,338.632H232.8a4.387,4.387,0,0,1-4.387-4.387v-4.3h8.861v4.3A4.387,4.387,0,0,1,232.892,338.632Z" transform="translate(-223.311 -307.439)" fill="#ffd0c7"/>
          </g>
        </g>
      </g>
      <path id="Trazado_113612" data-name="Trazado 113612" d="M217.884,175.4a9.794,9.794,0,0,1-4.131.914h-8.436a8.027,8.027,0,0,0-8.027,8.027v3.626h15.826a4.767,4.767,0,0,0,4.767-4.767Z" transform="translate(-164.44 -146.628)" fill="#cc9081"/>
      <g id="Grupo_58690" data-name="Grupo 58690" transform="translate(0.578 0)">
        <path id="Trazado_113613" data-name="Trazado 113613" d="M72.718,57.392A9.3,9.3,0,0,0,75.071,51.2V48.551a9.332,9.332,0,0,0-12.34-8.84V24.966a1.641,1.641,0,0,0-1.641-1.641h-1.27l5.689-8.912L71.2,23.325H69.95a1.641,1.641,0,0,0-1.641,1.641v5.95a1.641,1.641,0,0,0,3.281,0v-4.31h2.6a1.641,1.641,0,0,0,1.383-2.523l-8.683-13.6a1.641,1.641,0,0,0-2.766,0l-8.683,13.6a1.641,1.641,0,0,0,1.383,2.523H59.45V41.649a9.315,9.315,0,0,0-3.055,6.9V51.2a9.3,9.3,0,0,0,2.351,6.185,13.4,13.4,0,0,0-2.883.731l-7.4-1.484V54.731A11.081,11.081,0,0,0,53.567,45.4V40.712a6.378,6.378,0,0,0,1.519-4.135v-7.8a1.641,1.641,0,0,0-2.333-1.488,8.208,8.208,0,0,1-3.438.761h-.855V16.883h2.6a1.641,1.641,0,0,0,1.383-2.523L43.761.758A1.641,1.641,0,0,0,41,.758l-8.683,13.6A1.641,1.641,0,0,0,33.7,16.883h2.623V22.7a1.641,1.641,0,1,0,3.281,0V15.243A1.641,1.641,0,0,0,37.959,13.6h-1.27L42.378,4.69,48.067,13.6H46.818a1.641,1.641,0,0,0-1.641,1.641V28.05h-4.3a9.678,9.678,0,0,0-9.667,9.667V45.4a11.081,11.081,0,0,0,5.107,9.326v1.906L29.037,58.1a13.407,13.407,0,0,0-2.816-.707,9.3,9.3,0,0,0,2.35-6.185V48.551a9.318,9.318,0,0,0-3.265-7.085V26.607h2.623a1.641,1.641,0,0,0,1.383-2.523l-8.683-13.6a1.641,1.641,0,0,0-2.766,0L9.18,24.083a1.641,1.641,0,0,0,1.383,2.523h2.6v4.31a1.641,1.641,0,1,0,3.281,0v-5.95a1.641,1.641,0,0,0-1.641-1.641H13.557l5.689-8.912,5.689,8.912h-1.27a1.641,1.641,0,0,0-1.641,1.641V39.64A9.339,9.339,0,0,0,9.9,48.551V51.2a9.3,9.3,0,0,0,2.353,6.187,13.549,13.549,0,0,0-11.67,13.4V82.359A1.641,1.641,0,0,0,2.219,84H35.006a1.641,1.641,0,0,0,0-3.281H22.957V67.441a5.923,5.923,0,0,1,4.8-5.743L36.5,59.945a6.047,6.047,0,0,0,4.244,4.289V67.8a1.641,1.641,0,1,0,3.281,0V64.234a6.047,6.047,0,0,0,4.244-4.289L57.018,61.7a5.923,5.923,0,0,1,4.8,5.743V80.719H49.771a1.641,1.641,0,0,0,0,3.281H82.748a1.641,1.641,0,0,0,1.641-1.641V70.792a13.549,13.549,0,0,0-11.67-13.4Zm-.929-8.84V51.2a6.057,6.057,0,0,1-12.113,0V48.551a6.057,6.057,0,1,1,12.113,0Zm-37.3-10.834a6.393,6.393,0,0,1,6.386-6.386h8.436a11.447,11.447,0,0,0,2.49-.276v5.521A3.13,3.13,0,0,1,48.678,39.7H34.492Zm0,5.267H48.678a6.4,6.4,0,0,0,1.608-.2V45.4a7.9,7.9,0,0,1-15.793,0ZM13.177,48.551a6.057,6.057,0,1,1,12.113,0V51.2a6.057,6.057,0,0,1-12.113,0ZM3.859,70.792a10.261,10.261,0,0,1,10.25-10.25h8.774a9.1,9.1,0,0,0-3.207,6.9V80.719H3.859Zm38.529-9.614a2.75,2.75,0,0,1-2.79-2.7v-2.32a11.852,11.852,0,0,0,5.58,0v2.32a2.75,2.75,0,0,1-2.79,2.7ZM81.107,80.719H65.1V67.441a9.1,9.1,0,0,0-3.207-6.9h8.963a10.261,10.261,0,0,1,10.25,10.25Z" transform="translate(-0.578 0)"/>
        <circle id="Elipse_6313" data-name="Elipse 6313" cx="1.641" cy="1.641" r="1.641" transform="translate(40.169 80.718)"/>
      </g>
    </g>
  </g>
</svg>
