<svg xmlns="http://www.w3.org/2000/svg" width="207.234" height="189.509" viewBox="0 0 207.234 189.509">
  <g id="Grupo_58703" data-name="Grupo 58703" transform="translate(-437.693 -2110.315)">
    <g id="Grupo_57982" data-name="Grupo 57982" transform="translate(416.977 2110.315)">
      <g id="Grupo_57983" data-name="Grupo 57983" transform="translate(0 0)">
        <path id="Trazado_100598" data-name="Trazado 100598" d="M123.468,0c32.157.283,105.341,144.661,77.62,177.259S-7.646,172.151.251,125.582,91.312-.281,123.468,0Z" transform="translate(227.95 189.509) rotate(180)" fill="#bf3976" opacity="0.15" style="isolation: isolate"/>
        <path id="Trazado_100598-2" data-name="Trazado 100598" d="M78.622,0C99.1.181,145.7,92.118,128.049,112.876S-4.869,109.623.16,79.968,58.145-.179,78.622,0Z" transform="matrix(-0.259, -0.966, 0.966, -0.259, 104.871, 182.105)" fill="#bf3976" opacity="0.2" style="isolation: isolate"/>
      </g>
    </g>
    <g id="Grupo_58843" data-name="Grupo 58843" transform="translate(-1778.245 750.379)">
      <g id="Grupo_58842" data-name="Grupo 58842" transform="translate(2270.984 1369.746)">
        <path id="Trazado_113853" data-name="Trazado 113853" d="M2585.855,1517.881a.217.217,0,0,0,.338-.036,4.6,4.6,0,0,1,2.317-2.266,3.132,3.132,0,0,0,.713-.444,1.757,1.757,0,0,0,.577-.551,50.342,50.342,0,0,1,3.4-4.589c.46-.422,1.346-1.06,1.423-1.707a.165.165,0,0,0-.222-.177,10.413,10.413,0,0,0-.991.515c.43-.375,1.155-.952,1.1-1.466a.165.165,0,0,0-.1-.132c-.556-.242-1.486.575-1.883.881a23.74,23.74,0,0,0-2.333,2.117l-.044-.017c.646-.754,1.347-1.46,2.016-2.2a15.555,15.555,0,0,0,1.213-1.483c.169-.241.4-.462.252-.751a.168.168,0,0,0-.17-.1,4.974,4.974,0,0,0-2.081,1.584c-.828.839-1.625,1.707-2.405,2.59l-.134-.041-.121-.037a29.025,29.025,0,0,1,1.858-2.4c.33-.384,1.479-1.425,1.082-2.006a.161.161,0,0,0-.148-.064c-.83.171-1.579,1.224-2.1,1.822a21.178,21.178,0,0,0-2.2,3.051,4.078,4.078,0,0,0-.557,1.008,7.58,7.58,0,0,1,0-1.172c.055-.671.292-1.32.3-1.991a.165.165,0,0,0-.222-.135c-1.135.4-1.052,2.266-1.2,3.2a5.963,5.963,0,0,0-.046,3.15c-.223.388-.452.772-.7,1.145-.159.241-.6.663-.616.978C2584.126,1516.783,2585.456,1517.533,2585.855,1517.881Z" transform="translate(-2508.509 -1472.402)" fill="#f79884"/>
        <circle id="Elipse_6319" data-name="Elipse 6319" cx="24.258" cy="24.258" r="24.258" transform="translate(37.624 0.888)" fill="#f5e4d5"/>
        <path id="Trazado_113854" data-name="Trazado 113854" d="M2451.372,1423.054a24.145,24.145,0,0,0,13.916-4.388,24.934,24.934,0,0,0-2.917-4.115c-3.058-3.539-6.87-6.545-9.138-10.706-2.934-5.383-1.927-11.779-2.421-17.649a19.381,19.381,0,0,0-4.231-11.185,24.282,24.282,0,0,0-19.037,19.228q-.071.893-.109,1.786c-.09,2.089-.087,4.182-.067,6.274A24.263,24.263,0,0,0,2451.372,1423.054Z" transform="translate(-2389.58 -1373.74)" fill="#fff"/>
        <g id="Grupo_58840" data-name="Grupo 58840" transform="translate(36.39)">
          <path id="Trazado_113855" data-name="Trazado 113855" d="M2447.04,1419.748a25.471,25.471,0,0,1-17.954-7.3,24.713,24.713,0,0,1,0-35.4,25.722,25.722,0,0,1,35.907,0,24.713,24.713,0,0,1,0,35.4A25.471,25.471,0,0,1,2447.04,1419.748Zm0-48.579a24.154,24.154,0,0,0-17.026,6.918,23.246,23.246,0,0,0,0,33.321,24.411,24.411,0,0,0,34.052,0,23.244,23.244,0,0,0,0-33.321A24.153,24.153,0,0,0,2447.04,1371.168Z" transform="translate(-2421.621 -1369.746)" fill="#1f2144"/>
        </g>
        <path id="Trazado_113856" data-name="Trazado 113856" d="M2492.908,1418.593l-1.273.735-10.261-17.772a.736.736,0,0,1,.269-1h0a.735.735,0,0,1,1,.269Z" transform="translate(-2430.475 -1393.035)" fill="#1f2144"/>
        <path id="Trazado_113857" data-name="Trazado 113857" d="M2526.977,1457.776l-.343-1.43,19.958-4.781a.735.735,0,0,1,.886.544h0a.735.735,0,0,1-.543.886Z" transform="translate(-2464.875 -1431.784)" fill="#1f2144"/>
        <path id="Trazado_113858" data-name="Trazado 113858" d="M2592.4,1474.851v-1.541h4.533a.77.77,0,0,1,.77.77h0a.77.77,0,0,1-.77.771Z" transform="translate(-2514.757 -1448.292)" fill="#1f2144"/>
        <path id="Trazado_113859" data-name="Trazado 113859" d="M2523.064,1538.109h1.471v4.821a.735.735,0,0,1-.735.735h0a.736.736,0,0,1-.735-.735Z" transform="translate(-2462.168 -1497.437)" fill="#1f2144"/>
        <path id="Trazado_113860" data-name="Trazado 113860" d="M2526.034,1392.666h-1.47v-4.821a.735.735,0,0,1,.735-.735h0a.735.735,0,0,1,.735.735Z" transform="translate(-2463.306 -1382.914)" fill="#1f2144"/>
        <path id="Trazado_113861" data-name="Trazado 113861" d="M2445.037,1475.505v-1.541H2440.5a.771.771,0,0,0-.771.771h0a.77.77,0,0,0,.771.77Z" transform="translate(-2398.968 -1448.788)" fill="#1f2144"/>
        <ellipse id="Elipse_6320" data-name="Elipse 6320" cx="1.867" cy="1.956" rx="1.867" ry="1.956" transform="translate(59.732 23.687)" fill="#1f2144"/>
        <path id="Trazado_113862" data-name="Trazado 113862" d="M2469.813,1997.15c.7.044.45-.1,1.042.342a.693.693,0,0,1,.2.253.67.67,0,0,1,.781.656c.191,3.967.923,7.889.965,11.865a.793.793,0,0,1-.88.865,5.622,5.622,0,0,1-1.634-.439c-.252-.073-.832-1.557-.86-1.8-.226-2-.792-8.782-.83-10.816C2468.589,1997.547,2469.276,1997.116,2469.813,1997.15Z" transform="translate(-2420.86 -1845.584)" fill="#f79884"/>
        <path id="Trazado_113863" data-name="Trazado 113863" d="M2468.655,2043.792c.948-.1,3.026-.021,4.06,0,.456.037.608.337.585.489-.178,1.181.908,1.121,2.343,1.869a24.364,24.364,0,0,0,4.361,1.8c1.744.548,1.571.262,1.567,1.385,0,.806-1.8.646-3.266.54q-.346-.025-.689-.045a6.7,6.7,0,0,1-2.012-.439l-.353-.138a8.2,8.2,0,0,0-3.2-.543.14.14,0,0,0-.136.1c-.022.12-.028.186-.045.306a.417.417,0,0,1-.437.353c-.472-.026-.944-.054-1.422-.089-.9-.065-1.746-.1-1.879-.325-.147-.255-.078-.3-.068-.555C2468.086,2047.8,2468.309,2043.827,2468.655,2043.792Z" transform="translate(-2420.432 -1880.924)" fill="#1f2144"/>
        <path id="Trazado_113864" data-name="Trazado 113864" d="M2489.758,2051.925c-.076.135.129.264.2.128q.261-.468.5-.946c.07-.138-.134-.267-.2-.128Q2490.019,2051.457,2489.758,2051.925Zm-1.141-.56c-.078.135.126.263.2.129a7.925,7.925,0,0,1,.63-.922c.1-.122-.109-.249-.2-.128A7.9,7.9,0,0,0,2488.617,2051.365Zm-1.218-.5a7.87,7.87,0,0,1,.937-.607c.136-.075,0-.272-.139-.2a8.028,8.028,0,0,0-.937.608C2487.136,2050.762,2487.275,2050.959,2487.4,2050.865Z" transform="translate(-2434.976 -1885.702)" fill="#464a8a"/>
        <path id="Trazado_113865" data-name="Trazado 113865" d="M2468.059,2061.271c.014-.2.041-.433.075-.671a15.053,15.053,0,0,0,3.323.3,15.56,15.56,0,0,1,3.242.4,27.275,27.275,0,0,0,6.857.835c0,.1-.012.226-.016.375-.027.8-1.823.591-3.281.442q-.345-.035-.687-.065a6.674,6.674,0,0,1-2-.5l-.349-.148a8.2,8.2,0,0,0-3.185-.639.139.139,0,0,0-.139.093c-.026.12-.034.185-.055.3a.417.417,0,0,1-.448.339c-.471-.04-.943-.083-1.418-.131-.9-.092-1.743-.148-1.868-.381C2467.972,2061.569,2468.042,2061.526,2468.059,2061.271Z" transform="translate(-2420.426 -1893.708)" fill="#464a8a"/>
        <path id="Trazado_113866" data-name="Trazado 113866" d="M2354.62,1988.943c.7.056.452-.095,1.036.359a.7.7,0,0,1,.2.256.669.669,0,0,1,.77.669c.128,3.97.795,7.9.772,11.879a.792.792,0,0,1-.894.85,5.61,5.61,0,0,1-1.627-.465c-.251-.077-.807-1.57-.83-1.816-.194-2.005-.65-8.794-.655-10.828C2353.39,1989.32,2354.084,1988.9,2354.62,1988.943Z" transform="translate(-2333.483 -1839.359)" fill="#f79884"/>
        <path id="Trazado_113867" data-name="Trazado 113867" d="M2361.893,2045.827c-.5-1.27-2.03-2.006-2.041-3.475a.112.112,0,0,0-.018-.061,14.619,14.619,0,0,0-.051-1.987.987.987,0,0,0-.434-.852,2.223,2.223,0,0,0-.92-.1c-.4-.012-1.884-.041-2.286-.042-.339,0-.485.156-.489.243a54.61,54.61,0,0,0,0,5.472.792.792,0,0,0,.355.771,2.039,2.039,0,0,1,.7.892.75.75,0,0,0,.36.386,5.413,5.413,0,0,0,1.727.252c.792.071,1.585.1,2.38.1C2362.115,2047.624,2362.122,2046.413,2361.893,2045.827Z" transform="translate(-2335.15 -1877.56)" fill="#1f2144"/>
        <path id="Trazado_113868" data-name="Trazado 113868" d="M2362.84,2046.59c-.156-.005-.176.236-.021.24.357.012,1.2.027,1.554.025.155,0,.176-.241.021-.241C2364.037,2046.617,2363.2,2046.6,2362.84,2046.59Zm-.248-2.724c-.156,0-.162.242-.007.242.374,0,1.227,0,1.6.055.154.021.159-.22.007-.241C2363.82,2043.87,2362.966,2043.865,2362.593,2043.866Zm.125,1.316c-.156,0-.162.242-.007.242.374,0,1.228,0,1.6.055.154.021.159-.221.007-.242C2363.945,2045.187,2363.091,2045.181,2362.718,2045.183Z" transform="translate(-2340.372 -1881.016)" fill="#464a8a"/>
        <path id="Trazado_113869" data-name="Trazado 113869" d="M2362.108,2061.887h-.015a9.364,9.364,0,0,1-4.2-.151c-.776-.285-.9-.763-1.494-1.221a3.543,3.543,0,0,0-.631-.378c.009.23.015.459.026.688a.793.793,0,0,0,.355.772,2.032,2.032,0,0,1,.7.892.752.752,0,0,0,.36.386,5.425,5.425,0,0,0,1.727.252c.792.072,1.585.1,2.38.1C2362.132,2063.4,2362.243,2062.509,2362.108,2061.887Z" transform="translate(-2335.289 -1893.356)" fill="#464a8a"/>
        <path id="Trazado_113870" data-name="Trazado 113870" d="M2375.269,1720.166c.193-10.783-2.261-21.329-4.894-31.715-1.518-5.987-3.082-11.966-4.249-18.034a.579.579,0,0,0-.111-.251c-.16-.808-.338-1.61-.561-2.393a2.721,2.721,0,0,0-2.286-2.216,42.345,42.345,0,0,0-5.312-.307l-6.241-.3a.447.447,0,0,0-.288.077q-6.514-.531-13.054-.5c.024-.6-.925-.613-.966,0-.9,13.49-1.812,27-1.535,40.533.271,13.257,1.125,26.519,1.737,39.765q.131,2.842.262,5.684c.044.943.044,1.9.131,2.842a1.87,1.87,0,0,0,.359,1.169c.788.876,2.96.662,4,.7a37.63,37.63,0,0,0,5.5-.225c.24-.026.514-.185.492-.47-.438-5.723.924-11.3,1.954-16.888a59.25,59.25,0,0,0,1.01-7.958c.139-2.966.014-5.936.017-8.9.007-7.531,1.092-15.878,1.726-23.431q2.09,4.5,4.178,9c1.742,3.752,3.8,7.507,4.962,11.491a14.81,14.81,0,0,1,.6,5.9,56.316,56.316,0,0,0-.865,5.682,7.522,7.522,0,0,0,1.355,4.367,6.94,6.94,0,0,1,1.12,2.15c.259,1.147-.274,2.367-.506,3.478-.957,4.6-.553,9.327-.132,13.968a.615.615,0,0,0,.592.615,56.6,56.6,0,0,1,8.459.413.6.6,0,0,0,.615-.592C2372.518,1742.53,2375.069,1731.409,2375.269,1720.166Z" transform="translate(-2320.083 -1592.964)" fill="#bf3976"/>
        <path id="Trazado_113871" data-name="Trazado 113871" d="M2425.837,1406.69c-.227-.214-.562.134-.335.348a8.618,8.618,0,0,1,.672.712c.018.122.033.245.049.367a.247.247,0,0,0-.193.3,9.691,9.691,0,0,1,.333,1.72c-.263.612-.692,1.229-.8,1.594a8.042,8.042,0,0,0-.245,2.535,65.227,65.227,0,0,1-.076,6.656.244.244,0,0,0,.416.163,12.761,12.761,0,0,0,1.838-3.544,13.517,13.517,0,0,0,1.095-4.2A8.59,8.59,0,0,0,2425.837,1406.69Z" transform="translate(-2387.976 -1397.715)" fill="#9e4d4d"/>
        <path id="Trazado_113872" data-name="Trazado 113872" d="M2364.663,1414.591a.241.241,0,0,0-.066-.078,5.77,5.77,0,0,1,1.208-1.392c.237-.2-.112-.535-.348-.335-1.988,1.683-2.394,3.908-2.087,6.39.3,2.4.71,4.824,2.34,6.712a.244.244,0,0,0,.409-.178C2365.995,1422.081,2366.47,1417.876,2364.663,1414.591Z" transform="translate(-2340.982 -1402.343)" fill="#9e4d4d"/>
        <path id="Trazado_113873" data-name="Trazado 113873" d="M2385.86,1426.1c-.017-1.513-.734-2.131-1.96-2.765-6.612-3.417-12.429-.07-12.452.86-.094,3.783-.468,7.768,1.351,11.151,1.362,2.532,4.193,5.311,7.107,4C2382.948,1437.975,2385.957,1434.5,2385.86,1426.1Z" transform="translate(-2347.106 -1409.25)" fill="#f79884"/>
        <path id="Trazado_113874" data-name="Trazado 113874" d="M2392.8,1471.358l.993-12.605c0-.48-1.689,1.19-2.093,1.483a11.27,11.27,0,0,1-6.145,2.211.708.708,0,0,0-.2.054.661.661,0,0,0-.7.673c.019,2.827-.221,8.232.422,11.008.167.721.329-.365,1.085-.042a7.73,7.73,0,0,0,2.011.166c.716.058.633-.019,1.349.039.781.064,2.33.528,2.99-.1C2393.161,1473.625,2392.808,1472.1,2392.8,1471.358Z" transform="translate(-2357.178 -1437.186)" fill="#f79884"/>
        <path id="Trazado_113875" data-name="Trazado 113875" d="M2385.718,1454.952c.015.449-.188.82-.453.829s-.491-.348-.506-.8.188-.82.453-.829S2385.7,1454.5,2385.718,1454.952Z" transform="translate(-2357.273 -1433.764)" fill="#1f2144"/>
        <path id="Trazado_113876" data-name="Trazado 113876" d="M2412.346,1454.134c0,.449-.209.815-.473.817s-.483-.361-.486-.81.208-.815.473-.817S2412.343,1453.684,2412.346,1454.134Z" transform="translate(-2377.469 -1433.134)" fill="#1f2144"/>
        <path id="Trazado_113877" data-name="Trazado 113877" d="M2410.287,1446.2a1.68,1.68,0,0,0-.259-.121,3.289,3.289,0,0,0-2.434-.082c-.362.191-.711.646-.192.855a4.576,4.576,0,0,0,1.537.145,2.7,2.7,0,0,0,1.192-.114C2410.56,1446.673,2410.572,1446.422,2410.287,1446.2Z" transform="translate(-2374.248 -1427.423)" fill="#9e4d4d"/>
        <path id="Trazado_113878" data-name="Trazado 113878" d="M2378.554,1446.726a2.7,2.7,0,0,0,1.18.2,4.575,4.575,0,0,0,1.543-.032c.533-.17.219-.65-.128-.867a3.289,3.289,0,0,0-2.433-.1,1.645,1.645,0,0,0-.267.1C2378.148,1446.232,2378.142,1446.483,2378.554,1446.726Z" transform="translate(-2352.324 -1427.387)" fill="#9e4d4d"/>
        <path id="Trazado_113879" data-name="Trazado 113879" d="M2395.443,1476.23a7.188,7.188,0,0,1-4.517-.035c-.051.018-.1.059-.092.114a2.367,2.367,0,0,0,2.255,1.58,2.6,2.6,0,0,0,2.5-1.506C2395.612,1476.3,2395.537,1476.195,2395.443,1476.23Z" transform="translate(-2361.881 -1450.478)" fill="#fff"/>
        <path id="Trazado_113880" data-name="Trazado 113880" d="M2397.663,1459.153c-.636.17-1.232-.027-1.313-.739a5.885,5.885,0,0,1,.094-1.091q.1-1.069.228-2.136c.018-.154-.223-.162-.241-.009q-.106.9-.2,1.8a7.59,7.59,0,0,0-.126,1.677c.1.751,1,.9,1.609.734C2397.868,1459.348,2397.813,1459.113,2397.663,1459.153Z" transform="translate(-2365.867 -1434.456)" fill="#db745e"/>
        <path id="Trazado_113881" data-name="Trazado 113881" d="M2380.324,1407.765a8.7,8.7,0,0,1-2.435-.193,4.691,4.691,0,0,0-1.524-.4,13.682,13.682,0,0,0-4.382,1.183.24.24,0,0,0-.121.091,4.011,4.011,0,0,0-3.778,2.418c-.469,1.146-.24,2.457-.365,3.653a1.423,1.423,0,0,0,.74,1.623.229.229,0,0,0,.312-.061c.8.143,1.722.216,2.122-.579.535-1.065-.2-3.938,1.613-4.174a.229.229,0,0,0,.121.2,2.79,2.79,0,0,1,1.251,1.992,1.31,1.31,0,0,0,1.305,1.142c.556.123,1.06.37,1.584.534a2.673,2.673,0,0,0,1.209.108,5.087,5.087,0,0,1,2.5.293,2.518,2.518,0,0,0,2.284.022,2.8,2.8,0,0,0,.75-2.815C2384.005,1410.6,2382.99,1408.011,2380.324,1407.765Z" transform="translate(-2344.337 -1398.129)" fill="#9e4d4d"/>
        <path id="Trazado_113882" data-name="Trazado 113882" d="M2382.7,1399.545c-.747-1.092-1.733-1.246-2.8-1.893a3.739,3.739,0,0,0-2.986-.826,4.657,4.657,0,0,0-1.68.766c-.6.419-1.1,1.114-1.8,1.355a2.959,2.959,0,0,0-1.347-.56,2.629,2.629,0,0,0-2.542,1.242c-1.26,1.646-2.279,3.945-.621,5.694a.207.207,0,0,0,.268.04.219.219,0,0,0,.136-.032,25.686,25.686,0,0,1,4.52-2.608,6.985,6.985,0,0,1,5.255.252c1.127.514,4.221,2.471,4.508.079A5.543,5.543,0,0,0,2382.7,1399.545Z" transform="translate(-2344.609 -1390.23)" fill="#9e4d4d"/>
        <path id="Trazado_113883" data-name="Trazado 113883" d="M2427.28,1453.662c-.542-.621-1.614-.158-1.874.5a.2.2,0,0,0,.147.274,2.523,2.523,0,0,0-.259.81h0a2.064,2.064,0,0,0-.158.919c-.01.122-.014.245-.016.369a.554.554,0,0,0-.055.412c.282.884,1.508-.2,1.749-.555C2427.247,1455.751,2427.892,1454.363,2427.28,1453.662Z" transform="translate(-2387.829 -1433.168)" fill="#f79884"/>
        <path id="Trazado_113884" data-name="Trazado 113884" d="M2366.076,1453.929c.518-.641,1.606-.218,1.891.432a.2.2,0,0,1-.137.28,2.526,2.526,0,0,1,.29.8h0a2.07,2.07,0,0,1,.192.912c.014.122.023.244.03.368a.55.55,0,0,1,.07.409c-.249.894-1.514-.141-1.768-.49C2366.188,1456.016,2365.491,1454.653,2366.076,1453.929Z" transform="translate(-2342.935 -1433.352)" fill="#f79884"/>
        <path id="Trazado_113885" data-name="Trazado 113885" d="M2427.675,1440.794a4.528,4.528,0,0,0-.3-1.5c-.333-.654-1.413-.164-1.7.345a1.256,1.256,0,0,0-.142-.064c-.146-.054-.2.181-.06.234a.933.933,0,0,1,.479.848,4.563,4.563,0,0,1-.055.673c-.032.259-.072.516-.1.775-.037.368-.176,1.158.143,1.455.5.465,1.3-1.007,1.46-1.343A2.834,2.834,0,0,0,2427.675,1440.794Z" transform="translate(-2388.083 -1422.254)" fill="#9e4d4d"/>
        <path id="Trazado_113886" data-name="Trazado 113886" d="M2367.255,1439.546c.169.329,1.03,1.771,1.509,1.287.307-.309.139-1.093.088-1.459-.036-.258-.086-.514-.127-.771a4.6,4.6,0,0,1-.08-.67.933.933,0,0,1,.447-.865c.142-.059.075-.291-.069-.232a1.248,1.248,0,0,0-.14.069c-.311-.5-1.409-.948-1.717-.281a4.519,4.519,0,0,0-.245,1.511A2.834,2.834,0,0,0,2367.255,1439.546Z" transform="translate(-2343.744 -1420.214)" fill="#9e4d4d"/>
        <path id="Trazado_113887" data-name="Trazado 113887" d="M2383.9,1450.873a.12.12,0,0,0-.076-.036c-.743-.066-1.463,1.8-1.662,2.345-.365,1-.521,2.063-.875,3.067a4.153,4.153,0,0,1-1.943,2.5,5.785,5.785,0,0,1-3.852.329c-2.429-.611-3.764-2.625-4.481-4.892-.171-.541-.289-1.092-.414-1.645a9.7,9.7,0,0,0-.563-2.129c-.242-.363-.825-.559-1.031-.048a.126.126,0,0,0-.009.056.117.117,0,0,0-.064.172,14.02,14.02,0,0,1,.845,3.864q.282,1.593.721,3.151a6.559,6.559,0,0,0,1,2.354,4.6,4.6,0,0,0,1.89,1.372,9.522,9.522,0,0,0,5.4.557,5.479,5.479,0,0,0,2.447-1.315,4.513,4.513,0,0,0,1.1-1.935,43.548,43.548,0,0,0,1.779-7.692C2384.115,1450.824,2383.971,1450.8,2383.9,1450.873Z" transform="translate(-2345.254 -1430.652)" fill="#9e4d4d"/>
        <path id="Trazado_113888" data-name="Trazado 113888" d="M2411.275,1751l-3.187,8.515c-.055.146.177.214.232.069l3.187-8.515C2411.561,1750.918,2411.329,1750.85,2411.275,1751Z" transform="translate(-2374.961 -1658.834)" fill="#1f2144"/>
        <path id="Trazado_113889" data-name="Trazado 113889" d="M2350.213,1680.918a9.55,9.55,0,0,1-1.359,3.951c-.7,1.127-1.852,2.644-3.227,2.911-.152.029-.093.263.06.234,1.4-.271,2.54-1.724,3.272-2.859a9.832,9.832,0,0,0,1.5-4.233C2350.472,1680.768,2350.231,1680.764,2350.213,1680.918Z" transform="translate(-2327.528 -1605.661)" fill="#1f2144"/>
        <path id="Trazado_113890" data-name="Trazado 113890" d="M2445.5,1688.7c-2.815-.387-3.768-3.409-3.978-5.839-.013-.153-.255-.16-.242,0,.223,2.581,1.252,5.678,4.215,6.085C2445.652,1688.962,2445.655,1688.72,2445.5,1688.7Z" transform="translate(-2400.143 -1607.13)" fill="#1f2144"/>
        <path id="Trazado_113891" data-name="Trazado 113891" d="M2455.982,1864.771l-3.031,7.193c-.061.144.172.21.232.069l3.031-7.193C2456.274,1864.7,2456.042,1864.629,2455.982,1864.771Z" transform="translate(-2408.985 -1745.126)" fill="#1f2144"/>
        <path id="Trazado_113892" data-name="Trazado 113892" d="M2454.736,1895.238l-1.4,3.6c-.057.145.176.212.232.069l1.4-3.6C2455.024,1895.161,2454.792,1895.094,2454.736,1895.238Z" transform="translate(-2409.278 -1768.232)" fill="#1f2144"/>
        <path id="Trazado_113893" data-name="Trazado 113893" d="M2396.917,1513.635l-.987-.525c-.069.043-.139.087-.212.124-2.066,1.041-3.819,2.486-6.067,3.182-.039.012-.077.019-.116.029a13.067,13.067,0,0,1-13.738,5.863c-4.419-.746-7.533-10.892-11.518-15.127a10.471,10.471,0,0,0-6.89-3.2,16.246,16.246,0,0,0-2.3-.3,5.628,5.628,0,0,0-.515-1.908c-.371-.933-.954-.689-1.807-.365a10.78,10.78,0,0,0-2.683,1.5,7.39,7.39,0,0,0-4.105-1.56c-1.346-.123-1.385,1.768-1.629,2.78l-.146.026c.092-.067.117-.106.047-.105a11.488,11.488,0,0,0-4.964,1.095c-.606,3.057-1.318,6.1-2.1,9.15-1.295,5.062-3.6,3.277-3.883,4.745.094,1.757.322,20.475.337,21.175.026,1.234-.328,3.254.417,4.329.762,1.1,2.688,1.482,3.906,1.67,3.845.595,10.708-.443,14.559-.542a48.91,48.91,0,0,1,6.087.272,8.62,8.62,0,0,0,4.369-.352c3.053-1.368,2.806-5.238,2.889-8.028q.1-3.289.2-6.578a14.526,14.526,0,0,0,8.084,2.855c17.231,1.1,21.2-14.41,23-19.668A.487.487,0,0,0,2396.917,1513.635Z" transform="translate(-2318.247 -1469.385)" fill="#fefefe"/>
        <path id="Trazado_113894" data-name="Trazado 113894" d="M2270.985,1601.025c.3,3.536,2.379,17.479,2.442,18.44.034.521-.085,1.2.272,1.622.076.089,24.01.866,26.04.812.516.044.858-.06.823-.374-.707-6.466-1.4-13.392-1.882-19.773a.606.606,0,0,0-.122-.31c-.044-.1-.29-.107-.436-.114-9.372-.448-17.409-.631-26.792-.629A.34.34,0,0,0,2270.985,1601.025Z" transform="translate(-2270.984 -1544.907)" fill="#1f2144"/>
        <path id="Trazado_113895" data-name="Trazado 113895" d="M2326.024,1637.119a1.571,1.571,0,0,0-.26,3.13A1.571,1.571,0,0,0,2326.024,1637.119Z" transform="translate(-2311.479 -1572.523)" fill="#797a8a"/>
        <path id="Trazado_113896" data-name="Trazado 113896" d="M2319.569,1678.431c-.02,0-.038-.005-.057-.007a.944.944,0,0,1-.922-.1c-.729-.408-1.54-1.155-2.268-1.592a4.57,4.57,0,0,1,.876-.2,3.991,3.991,0,0,0,1.417-.3c.359-.218.283-.459-.107-.528a6.028,6.028,0,0,0-2.985.224,3.691,3.691,0,0,0-1.109.578q-.875-.5-1.8-.9l-.009,0h0l-.085-.039c-.3-.131-.521.224-.433.482l-.019,0a.369.369,0,0,0-.454.336c-.108-.021-.214-.042-.323-.061a.376.376,0,0,0-.439.252c-.316.035-.526.5-.175.663l.9.416-.028-.006c-.314-.114-.624-.237-.927-.381-.418-.2-.8.418-.378.619.309.147.625.273.943.39a.4.4,0,0,0,.04.023c.029.013.058.024.087.037h0l.009,0c1.206.536,5.227,1.8,5.87,2.12a1.821,1.821,0,0,0,2.018,0,12.417,12.417,0,0,0,1.981-1.915c.01-.013.014-.025.022-.038C2320.667,1678.473,2320.118,1678.444,2319.569,1678.431Z" transform="translate(-2300.623 -1601.662)" fill="#f79884"/>
        <path id="Trazado_113897" data-name="Trazado 113897" d="M2297.918,1519.957a48.527,48.527,0,0,0-.448-6.4c.529-.212.245-1.133-.406-1.038a24.788,24.788,0,0,0-10.98,4.461,27.612,27.612,0,0,0-7.9,9.4,67.72,67.72,0,0,0-5.25,12.974c-1.181,3.923-2.648,6.417-.681,10.36,2.105,4.221,6.687,6.089,10.835,7.687a.562.562,0,0,0,.689-.374c.3-.942,1.066-4.234,1.338-4.883.39-.931-.086-1.272-.89-1.892-.837-.645-5.672-2.752-2.094-10.43,1.7-3.652,3.68-7.213,6.654-9.121,1.495-.959,3.092-1.743,4.621-2.643a11.13,11.13,0,0,0,3.549-2.791C2298.026,1523.773,2297.919,1521.711,2297.918,1519.957Z" transform="translate(-2271.212 -1478.026)" fill="#fefefe"/>
        <path id="Trazado_113898" data-name="Trazado 113898" d="M2297.641,1545.488a35.383,35.383,0,0,1-5.182-.736q-2.562-.447-5.158-.664-2.347-.2-4.7-.2c-.074.08-.146.162-.218.243,1.211,0,2.422.03,3.632.1q2.857.175,5.687.632c1.675.271,3.336.668,5.029.811.392.033.783.048,1.173.05,0-.08.008-.16.01-.24C2297.822,1545.489,2297.732,1545.49,2297.641,1545.488Zm-26.353,24.359c0,.08,0,.161.008.241,3.189-.273,6.381-.523,9.578-.678-.01-.08-.017-.162-.023-.245C2277.66,1569.321,2274.472,1569.573,2271.288,1569.846Zm4.657-15.064-.1.242a34.736,34.736,0,0,1,8.28,1.678q.888.246,1.782.455c.056-.069.114-.137.171-.206-.375-.086-.75-.176-1.125-.275C2282.04,1555.906,2278.981,1554.873,2275.946,1554.782Z" transform="translate(-2271.215 -1501.82)" fill="#78add9"/>
        <path id="Trazado_113899" data-name="Trazado 113899" d="M2357.474,1543.6c3.454.292,6.814-.707,10.192-1.245a96.873,96.873,0,0,1,10.609-.838c.819-.039,1.639-.083,2.458-.136l-.142-.236c-3.945.249-7.917.287-11.835.809-3.451.459-6.862,1.542-10.369,1.455a35.352,35.352,0,0,1-5.182-.736c-.58-.1-1.162-.19-1.744-.273-.02.078-.04.156-.059.234.348.05.7.1,1.043.155C2354.12,1543.063,2355.781,1543.46,2357.474,1543.6Z" transform="translate(-2331.975 -1499.742)" fill="#78add9"/>
        <path id="Trazado_113900" data-name="Trazado 113900" d="M2395.065,1644.953a45.329,45.329,0,0,1-5.616-.141,1.472,1.472,0,0,1,.038.248c1.241.1,2.484.166,3.73.173,5.177.027,10.23-1.167,15.276-2.2,0-.082,0-.164.008-.246A87.913,87.913,0,0,1,2395.065,1644.953Z" transform="translate(-2360.831 -1576.83)" fill="#78add9"/>
        <path id="Trazado_113901" data-name="Trazado 113901" d="M2372.306,1587.083c-4.52.248-9.059.151-13.566.617-4.391.454-8.694,1.483-13.061,2.106a41.7,41.7,0,0,1-6.736.481,27.014,27.014,0,0,1-5.221-.642c0,.082,0,.165,0,.248a26.434,26.434,0,0,0,3.867.577,35.661,35.661,0,0,0,6.538-.221c4.3-.5,8.527-1.507,12.817-2.092,4.55-.62,9.144-.576,13.723-.756,1.531-.061,3.062-.148,4.587-.3a4.374,4.374,0,0,1-.4-.2C2374.009,1586.977,2373.158,1587.036,2372.306,1587.083Z" transform="translate(-2318.566 -1534.441)" fill="#78add9"/>
        <path id="Trazado_113902" data-name="Trazado 113902" d="M2556.718,1578.592c-1.517.074-3.015-.219-4.531-.188a11.928,11.928,0,0,0-2.277.271q-.27.2-.555.387a11.77,11.77,0,0,1,3.162-.419c1.557.011,3.082.282,4.643.163.586-.045,1.168-.121,1.746-.218.038-.088.074-.175.11-.263A18.663,18.663,0,0,1,2556.718,1578.592Z" transform="translate(-2482.108 -1527.938)" fill="#78add9"/>
        <path id="Trazado_113903" data-name="Trazado 113903" d="M2314.466,1685.59a.363.363,0,0,0,0,.725A.363.363,0,0,0,2314.466,1685.59Z" transform="translate(-2303.697 -1609.29)" fill="#1f2144"/>
        <path id="Trazado_113904" data-name="Trazado 113904" d="M2400.065,1551.754a14.237,14.237,0,0,1-.89-4.706c-.009-1.577.173-3.147.217-4.723.085-3.048-.179-6.09-.33-9.132a35.822,35.822,0,0,1,.685-10.539.121.121,0,0,0-.233-.064c-1.535,6.112-.336,12.4-.347,18.6-.005,3.043-.631,6.167.191,9.154.414,1.5,1.073,2.928,1.422,4.451a13.187,13.187,0,0,1,.176,4.919c-.115.759-.29,1.514-.477,2.268l.25-.016c.146-.586.283-1.172.388-1.758a13.789,13.789,0,0,0,.107-4.319A21.32,21.32,0,0,0,2400.065,1551.754Z" transform="translate(-2367.87 -1485.602)" fill="#dbc6b6"/>
        <path id="Trazado_113905" data-name="Trazado 113905" d="M2427.119,1580.625q-.114-.888-.252-1.775-.334-2.146-.8-4.267a.121.121,0,0,0-.116-.089l-.348,0a.121.121,0,0,0,0,.242c.415,0,.407.726.474,1.057q.152.747.286,1.5.26,1.444.458,2.9a7.969,7.969,0,0,1,.158,1.537,1.837,1.837,0,0,1-.981,1.429,8.413,8.413,0,0,1-2.713.722c-.967.182-1.933.375-2.9.547-.722.128-1.32.094-1.546-.712-.134-.479-.23-.972-.337-1.458q-.308-1.405-.558-2.823-.12-.68-.226-1.363a4.535,4.535,0,0,1-.153-1.528c.156-.739.868-.72,1.477-.807l1.614-.232,3.344-.481c.153-.022.088-.255-.064-.233l-3.689.53c-.615.088-1.232.165-1.845.265a1.291,1.291,0,0,0-.894.408c-.458.6-.09,1.721.014,2.369q.289,1.819.676,3.62c.12.563.246,1.125.383,1.683a1.4,1.4,0,0,0,.48.917c.7.46,1.943-.028,2.667-.165,1.173-.221,2.394-.367,3.541-.7a2.671,2.671,0,0,0,1.828-1.4A3.3,3.3,0,0,0,2427.119,1580.625Z" transform="translate(-2381.938 -1525.033)" fill="#dbc6b6"/>
        <path id="Trazado_113906" data-name="Trazado 113906" d="M2389.185,1511.363c0-.035,0-.073,0-.11-.41.753-.829,1.5-1.27,2.238a3.749,3.749,0,0,1-.486.8c-.259.238-.5-.073-.747-.278a6.418,6.418,0,0,1-1.226-1.381c-.086-.128-.3-.008-.208.122a6.737,6.737,0,0,0,1.417,1.555c.244.193.531.513.838.3a3.035,3.035,0,0,0,.5-.795q.332-.549.652-1.1.38-.66.742-1.329C2389.323,1511.374,2389.254,1511.367,2389.185,1511.363Zm-10.839.368-.1,0c.021.031.041.064.062.095C2378.391,1511.767,2378.413,1511.731,2378.346,1511.731Zm4.8,1.038a17.747,17.747,0,0,1-1.48,1c-.372.223-.817.614-1.287.3a3.152,3.152,0,0,1-.552-.62c-.479-.579-.925-1.182-1.346-1.8-.011.056-.024.112-.036.163l-.132.023c.231.34.469.674.718,1a6.725,6.725,0,0,0,1.262,1.471c.392.276.722.109,1.1-.1a17.377,17.377,0,0,0,1.894-1.241A.121.121,0,0,0,2383.146,1512.769Z" transform="translate(-2352.335 -1477.069)" fill="#dbc6b6"/>
        <path id="Trazado_113907" data-name="Trazado 113907" d="M2341.8,1525.818a10.012,10.012,0,0,1-1.1,5.423q-1.618,3.861-3.473,7.617c.159-.149.321-.294.487-.433,1.242-2.539,2.407-5.116,3.472-7.732a8.944,8.944,0,0,0,.781-5.3,7.377,7.377,0,0,0-2.062-3.756c-.077.037-.154.077-.23.115A7.154,7.154,0,0,1,2341.8,1525.818Z" transform="translate(-2321.224 -1484.946)" fill="#dbc6b6"/>
        <path id="Trazado_113908" data-name="Trazado 113908" d="M2448.34,1541.438c-.045-.109-.089-.219-.135-.328a35.974,35.974,0,0,1-1.321-3.352,17.336,17.336,0,0,1-.629-4.141,47.937,47.937,0,0,0-2.261-13.669,27.227,27.227,0,0,0-2.7-5.547q-.172-.049-.347-.093a30.7,30.7,0,0,1,4.344,11.605,57.25,57.25,0,0,1,.7,7.124,24.009,24.009,0,0,0,.367,3.6,17.3,17.3,0,0,0,1.093,3.3c.176.416.355.832.531,1.25Q2448.156,1541.313,2448.34,1541.438Z" transform="translate(-2399.886 -1479.385)" fill="#dbc6b6"/>
        <path id="Trazado_113909" data-name="Trazado 113909" d="M2403.046,1525.964a14.356,14.356,0,0,0-2.038.3c-2.493,1.818-4.945,4.864-7.612,1.817-1.4-1.6-1.636-4.056-1.666-6.084a28.061,28.061,0,0,1,.863-6.713.253.253,0,0,0,0-.057c.417-.384.837-.765,1.249-1.155.222-.211.537-.432.542-.773s-.307-.612-.521-.859l-1.315-1.526a.226.226,0,0,0-.392-.126c-.338.4-.667.8-.979,1.222-.193.257-.622.672-.639,1.015-.013.267.19.465.339.664.319.427.643.849.966,1.273a31.79,31.79,0,0,0-2.689,11.986,7.7,7.7,0,0,0,1.027,4.812,5.881,5.881,0,0,0,3.687,2.171,6.218,6.218,0,0,0,4.909-1.268c1.508-1.138,2.108-2.693,3.168-4.188a9.021,9.021,0,0,1,2.5-2.03c.067-.048.129-.1.187-.144C2404.358,1525.712,2403.781,1525.91,2403.046,1525.964Z" transform="translate(-2360.604 -1476.657)" fill="#f1bf00"/>
        <g id="Grupo_58841" data-name="Grupo 58841" transform="translate(67.033 33.197)">
          <path id="Trazado_113910" data-name="Trazado 113910" d="M2565.824,1507.165a23.464,23.464,0,0,1-5.537,8.439,24.038,24.038,0,0,1-11.642,6.328,3.874,3.874,0,0,1-.176,1.488,25.368,25.368,0,0,0,12.746-6.778,24.866,24.866,0,0,0,5.919-9.076A3.325,3.325,0,0,1,2565.824,1507.165Z" transform="translate(-2548.469 -1507.165)" fill="#1f2144"/>
        </g>
      </g>
      <path id="Trazado_113911" data-name="Trazado 113911" d="M2543.6,1946.053a1.084,1.084,0,0,0-.11-.47c-.083-.262-.238-.394-.448-.383-3.312.17-13.345.109-16.656-.062-.211-.011-.365.12-.449.383a1.086,1.086,0,0,0-.109.47c-.115,3.412,1.284,21.011,1.976,23.672.6,2.313,1.692,3.747,3.088,4.091a16.726,16.726,0,0,0,5,.23.268.268,0,0,0,.112.034,18.273,18.273,0,0,0,5.46-.2c1.4-.344,2.486-1.778,3.088-4.091C2545.243,1967.064,2543.716,1949.466,2543.6,1946.053Z" transform="translate(-193.276 -436.393)" fill="#1f2144"/>
      <path id="Trazado_113912" data-name="Trazado 113912" d="M2586.321,1830.7c-1.695,3.921-3.813,10.433-.848,12.858,2.57,2.1,11.836-2.144,15.552-5.8,3.154-3.1,5.462-8,4.089-12.453a7.672,7.672,0,0,0-9.819-4.754,12.441,12.441,0,0,0-5.035,3.783A25.225,25.225,0,0,0,2586.321,1830.7Z" transform="translate(-237.392 -341.575)" fill="#339ce9"/>
      <path id="Trazado_113913" data-name="Trazado 113913" d="M2523.67,1786.764c.885,4.179,2.925,10.716,6.746,10.979,3.313.228,8.415-8.6,9.331-13.725.778-4.356-.173-9.687-3.868-12.524a7.672,7.672,0,0,0-10.759,1.8,12.441,12.441,0,0,0-1.919,6A25.213,25.213,0,0,0,2523.67,1786.764Z" transform="translate(-191.215 -303.586)" fill="#339ce9"/>
      <path id="Trazado_113914" data-name="Trazado 113914" d="M2550.628,1783.561c.367-4.012.782-8.019,1.2-12.026.016-.154-.226-.153-.242,0-1.474,14.188-2.952,28.456-2.262,42.739.19,3.94.552,7.871,1.112,11.776.022.153.255.088.233-.064C2548.648,1811.921,2549.34,1797.658,2550.628,1783.561Z" transform="translate(-210.966 -304.639)" fill="#1f2144"/>
      <path id="Trazado_113915" data-name="Trazado 113915" d="M2587.941,1829.456c-9.629,8.978-19.987,18.815-22.768,32.253a58.992,58.992,0,0,0-.975,11.916.121.121,0,0,0,.241,0,62.355,62.355,0,0,1,.752-10.726,36.614,36.614,0,0,1,3.01-9.362,60.574,60.574,0,0,1,11.567-15.856c2.688-2.78,5.517-5.418,8.344-8.054C2588.225,1829.52,2588.054,1829.35,2587.941,1829.456Z" transform="translate(-222.38 -348.631)" fill="#1f2144"/>
    </g>
  </g>
</svg>
