<svg xmlns="http://www.w3.org/2000/svg" width="207.234" height="189.509" viewBox="0 0 207.234 189.509">
  <g id="Grupo_58702" data-name="Grupo 58702" transform="translate(-437.693 -2110.315)">
    <g id="Grupo_57982" data-name="Grupo 57982" transform="translate(416.977 2110.315)">
      <g id="Grupo_57983" data-name="Grupo 57983" transform="translate(0 0)">
        <path id="Trazado_100598" data-name="Trazado 100598" d="M123.468,0c32.157.283,105.341,144.661,77.62,177.259S-7.646,172.151.251,125.582,91.312-.281,123.468,0Z" transform="translate(227.95 189.509) rotate(180)" fill="#bf3976" opacity="0.15" style="isolation: isolate"/>
        <path id="Trazado_100598-2" data-name="Trazado 100598" d="M78.622,0C99.1.181,145.7,92.118,128.049,112.876S-4.869,109.623.16,79.968,58.145-.179,78.622,0Z" transform="matrix(-0.259, -0.966, 0.966, -0.259, 104.871, 182.105)" fill="#bf3976" opacity="0.2" style="isolation: isolate"/>
      </g>
    </g>
    <g id="Grupo_58839" data-name="Grupo 58839" transform="translate(-49.499 2083.646)">
      <path id="Trazado_113819" data-name="Trazado 113819" d="M498.336,187.965c1.579-1.643,6.2-1.7,7.627-1.727,57.089-1.11,114.24.071,171.361.087,3.228,0,14.811-.1,16.794,2.878a1.8,1.8,0,0,1,.039,1.9c-2.082,3.428-16.731,3.3-20.575,3.292-14.813-.012-146.558,1.67-168.4-.866-1.666-.193-4.944-.672-6.5-2.24A2.32,2.32,0,0,1,498.336,187.965Z" transform="translate(-0.817 -10.662)" fill="#efd8c5"/>
      <g id="Grupo_58826" data-name="Grupo 58826" transform="translate(533.748 58.576)">
        <path id="Trazado_113820" data-name="Trazado 113820" d="M615.767,175.9a72.433,72.433,0,0,0-6.827-30.411c-4.148-8.711-8.474-12.916-9.559-13.942a40.442,40.442,0,0,0-14.446-8.735,3.907,3.907,0,0,1-1.152-2.746,3.846,3.846,0,0,1,.886-2.392,45.5,45.5,0,0,0,15.591-10.186c10.47-10.542,12.692-23.572,13.642-29.143a62.555,62.555,0,0,0,.886-10.718,166.558,166.558,0,0,1-36.494,4.282,166.566,166.566,0,0,1-39.332-4.46,66.745,66.745,0,0,0,2.126,15.236,57.528,57.528,0,0,0,11.44,23.191c5.721,6.825,10.932,9.436,12.385,10.126a32.258,32.258,0,0,0,4.875,1.851,3.856,3.856,0,0,1,.793,1.871,4.112,4.112,0,0,1-.969,3.089,45.976,45.976,0,0,0-14.316,8.672c-17.608,15.792-16.431,40.28-16.157,44.566a170.328,170.328,0,0,0,76.63-.15Z" transform="translate(-538.018 -59.32)" fill="#fff"/>
        <path id="Trazado_113821" data-name="Trazado 113821" d="M616.174,182.838a1.427,1.427,0,0,1-.718,1.074c-3.485,2.587-19.335,4.552-38.358,4.552s-34.861-1.965-38.346-4.552a1.428,1.428,0,0,1-.719-1.074c0-3.113,17.491-5.625,39.066-5.625S616.174,179.725,616.174,182.838Z" transform="translate(-537.94 -68.521)" fill="#f9bc80"/>
        <path id="Trazado_113822" data-name="Trazado 113822" d="M605.3,91.961c-1.267-2.476-4.52-3.12-6.859-3.583-8.512-1.684-11.857,3.2-24.275,3.9-4.639.259-6.958.389-9.559-.251-3.728-.919-6.217-2.613-9.81-1.761a5.174,5.174,0,0,0-3.317,1.7c-2.707,3.885,4.968,13.061,5.708,13.94a33.573,33.573,0,0,0,10.907,8.377,15.727,15.727,0,0,1,4.808,3.457c3.417,3.688,4.823,22.381,5.278,28.4a22.171,22.171,0,0,1-1.158,10.05,21.221,21.221,0,0,1-2.734,4.98c-2.4,3.231-3.957,3.357-6.937,6.725-2.261,2.556-4.521,4.869-3.519,6.115,1.273,1.582,5.414,1.647,12.913,1.706,12.534.1,15.014-.246,15.568-1.718.5-1.325-.8-2.963-2.86-5.58-2.914-3.695-5.073-4.26-7.112-7.582a14.975,14.975,0,0,1-1.065-2.089c-.246-.669-.537-1.53-.815-2.541a32.924,32.924,0,0,1-1.1-10.2c.635-19.053-.365-24.471,4.184-28.656a13.142,13.142,0,0,1,4.316-2.617l-.114,0a34.035,34.035,0,0,0,11.843-8.829C601.555,103.567,607.608,96.468,605.3,91.961Z" transform="translate(-539.019 -61.045)" fill="#f5e3cb"/>
        <path id="Trazado_113823" data-name="Trazado 113823" d="M616.145,175.372c0-17.221-5.722-32.606-14.644-42.644-.577-.65-1.16-1.256-1.16-1.256a39.087,39.087,0,0,0-15.095-9.587,2.58,2.58,0,0,1-.913-2.008,2.492,2.492,0,0,1,.73-1.621c6.453-1.879,12.325-5.991,17.2-11.745.344-.408.7-.837,1.031-1.267,7.418-9.4,12.252-22.725,12.816-37.6q.028-1.464.056-2.929l-.945.86a146.458,146.458,0,0,1-38.13,4.768,146.45,146.45,0,0,1-39.148-5.628c0,.387.039,2.367.057,2.956.571,14.906,5.425,28.249,12.88,37.648.333.43.687.859,1.041,1.267,4.917,5.787,10.865,9.909,17.393,11.745a2.224,2.224,0,0,1,.623,1.095,2.66,2.66,0,0,1-.773,2.362,34.948,34.948,0,0,0-15.363,9.62c-.4.408-.783.826-1.17,1.256-8.954,10.028-14.7,25.455-14.7,42.708a.682.682,0,0,1,0,.183c0,3.1,17.511,5.625,39.111,5.625s39.122-2.523,39.122-5.625a.853.853,0,0,0-.031-.183Zm-76.352-.254c.057-17.064,5.839-32.238,14.77-41.854.441-.483.9-.956,1.363-1.406a33.831,33.831,0,0,1,10.78-7.268c.923-.376,1.857-.709,2.8-.988a4.761,4.761,0,0,0,1.857-2.352,4.4,4.4,0,0,0,.236-1.331,3.785,3.785,0,0,0-.16-1.074,4.127,4.127,0,0,0-1.847-2.34,28.907,28.907,0,0,1-3.35-1.213,33.7,33.7,0,0,1-9.974-6.743,40.771,40.771,0,0,1-3.2-3.425c-7.361-8.814-12.288-21.6-13.13-36,5.179,2.236,19.83,3.848,37.108,3.848S609,71.359,614.169,69.12c-.846,14.5-5.833,27.356-13.269,36.178a40.669,40.669,0,0,1-3.3,3.478,33.485,33.485,0,0,1-9.458,6.388,25.436,25.436,0,0,1-3.113,1.181,4.324,4.324,0,0,0-2.223,2.727,3.935,3.935,0,0,0,.15,2.223,4.8,4.8,0,0,0,2.083,2.448c.88.279,1.739.591,2.6.956a33.907,33.907,0,0,1,10.542,7.183c.462.451.924.934,1.374,1.416,8.9,9.617,14.672,24.785,14.727,41.831-5.06,2.261-19.818,3.907-37.242,3.907S544.832,177.384,539.793,175.118Z" transform="translate(-537.932 -59.091)" fill="#bda396"/>
        <path id="Trazado_113824" data-name="Trazado 113824" d="M616.174,64.2a1.414,1.414,0,0,1-.717,1.073,3.99,3.99,0,0,1-.367.239c-4.124,2.471-19.569,4.316-37.99,4.316-18.486,0-33.984-1.861-38.029-4.343-.117-.07-.224-.144-.319-.213a1.416,1.416,0,0,1-.717-1.074c0-3.114,17.486-5.623,39.065-5.623S616.174,61.085,616.174,64.2Z" transform="translate(-537.941 -58.576)" fill="#f9bc80"/>
      </g>
      <g id="Grupo_58836" data-name="Grupo 58836" transform="translate(488.022 91.771)">
        <g id="Grupo_58828" data-name="Grupo 58828">
          <path id="Trazado_113825" data-name="Trazado 113825" d="M506.124,109.787c-.3-1.773-.838-2.592-1.263-5.656-.421-3.033-.645-4.6.21-6.069,1.5-2.575,4.621-3.05,5.351-3.161,7.41-1.126,15.89,8.06,14.547,17.55-.531,3.761-2.372,5.077-2.18,9.548.126,2.961.956,2.912,1.033,5.612.18,6.345-4.942,9.077-4.387,19.943-2.421-2.671-10.3-11.566-12.031-14.719-1.361-2.471-3.784-6.983-3.255-12.466C504.605,115.63,506.887,114.257,506.124,109.787Z" transform="translate(-489.368 -94.808)" fill="#0ac4bf"/>
          <path id="Trazado_113826" data-name="Trazado 113826" d="M489.479,133.533c-2.326,2.6-1.273,6.638-.844,8.283,2.892,11.1,21.119,16.491,25.507,15.925-3.169-10.521-10.176-10.619-13.554-14.2-3.827-4.055-.714-9.613-3.966-11.6C494.561,130.686,491.19,131.624,489.479,133.533Z" transform="translate(-488.022 -97.873)" fill="#0ac4bf"/>
          <g id="Grupo_58827" data-name="Grupo 58827" transform="translate(5.86 8.831)">
            <path id="Trazado_113827" data-name="Trazado 113827" d="M521.155,151.332c-1.817-11.236-6.777-12.919-7.146-22.825-.267-7.193,2.2-9.416,1.2-18.148a38.218,38.218,0,0,0-1.026-5.612.349.349,0,1,0-.669.179,37.952,37.952,0,0,1,1.007,5.509c.979,8.593-1.47,10.812-1.2,18.086.375,10.073,5.376,11.82,7.164,22.869a43.541,43.541,0,0,1-.585,16.643c-.041.185.1.263.286.307s.348.032.39-.155A43.96,43.96,0,0,0,521.155,151.332Z" transform="translate(-496.002 -104.448)" fill="#09aba7"/>
            <path id="Trazado_113828" data-name="Trazado 113828" d="M518.326,171.139c.7-5.224-.69-8.306-1.976-9.973a35.087,35.087,0,0,0-9.034-7.079c-1.3-.738-6.376-3.094-8.826-5.273a15.576,15.576,0,0,1-4.043-5.891.347.347,0,0,1,.643-.259,14.885,14.885,0,0,0,3.861,5.633c2.4,2.132,7.35,4.416,8.707,5.188a35.958,35.958,0,0,1,9.241,7.259c1.367,1.771,2.843,5.027,2.115,10.487A.347.347,0,0,1,518.326,171.139Z" transform="translate(-494.419 -107.633)" fill="#09aba7"/>
          </g>
        </g>
        <g id="Grupo_58830" data-name="Grupo 58830" transform="translate(32.205 14.84)">
          <path id="Trazado_113829" data-name="Trazado 113829" d="M544.926,123.475c.57-1.262,1.128-1.769,2.039-3.97.9-2.178,1.372-3.3,1.022-4.563a5.7,5.7,0,0,0-3.373-3.4c-5.3-2.278-13.405,2.92-14.248,10.254-.333,2.905.781,4.244-.229,7.538-.669,2.182-1.278,1.984-1.859,3.982-1.367,4.693,1.919,7.723-.6,15.713,2.323-1.521,9.918-6.62,11.823-8.632,1.494-1.578,4.176-4.469,4.846-8.658C544.924,128.123,543.491,126.657,544.926,123.475Z" transform="translate(-523.551 -111.006)" fill="#0ac4bf"/>
          <path id="Trazado_113830" data-name="Trazado 113830" d="M552.454,144.433c1.23,2.386-.341,5.194-.979,6.336-4.311,7.709-18.94,8.187-22.1,6.913,4.4-7.225,9.646-5.937,12.857-7.947,3.639-2.278,2.4-7.024,5.207-7.874C549.22,141.324,551.549,142.677,552.454,144.433Z" transform="translate(-523.694 -113.583)" fill="#0ac4bf"/>
          <g id="Grupo_58829" data-name="Grupo 58829" transform="translate(0 6.533)">
            <path id="Trazado_113831" data-name="Trazado 113831" d="M526.014,151.659c3.536-8.019,7.559-8.31,9.757-15.62,1.6-5.308.193-7.444,2.631-13.757a29.55,29.55,0,0,1,1.854-3.983.268.268,0,1,1,.464.263,29.293,29.293,0,0,0-1.82,3.909c-2.4,6.213-1,8.343-2.618,13.711-2.235,7.434-6.3,7.765-9.779,15.65a33.546,33.546,0,0,0-2.8,12.515c0,.147-.126.176-.272.174s-.267-.044-.261-.191A33.852,33.852,0,0,1,526.014,151.659Z" transform="translate(-523.174 -118.137)" fill="#09aba7"/>
            <path id="Trazado_113832" data-name="Trazado 113832" d="M523.716,166.97c.495-4.027,2.127-6.055,3.409-7.047a27.028,27.028,0,0,1,8.106-3.521c1.109-.3,5.352-1.067,7.6-2.215a11.985,11.985,0,0,0,4.157-3.605.267.267,0,0,0-.429-.318,11.463,11.463,0,0,1-3.971,3.448c-2.2,1.123-6.333,1.863-7.5,2.175A27.7,27.7,0,0,0,526.8,159.5c-1.362,1.055-3.094,3.195-3.612,7.4A.267.267,0,0,0,523.716,166.97Z" transform="translate(-523.175 -120.821)" fill="#09aba7"/>
          </g>
        </g>
        <g id="Grupo_58835" data-name="Grupo 58835" transform="translate(20.106 63.753)">
          <path id="Trazado_113833" data-name="Trazado 113833" d="M529.933,183.863c-2.753,2.322-14.61,2.367-17.377.032-1.923-1.621-2.882-4.671-2.509-8.293a15.743,15.743,0,0,1,.3-1.827c.045-.232.1-.463.16-.694a19.435,19.435,0,0,1,.76-2.316c.1-.238.2-.476.3-.721a23.589,23.589,0,0,1,1.454-2.747c.123-.193.245-.386.379-.585a24.352,24.352,0,0,1,1.692-2.284h6.137c0-.032,6.158-.032,6.158-.032a25.006,25.006,0,0,1,1.518,2.02c.264.392.515.785.746,1.177a20.986,20.986,0,0,1,1.075,2.02c.206.431.386.862.547,1.28.219.56.4,1.12.56,1.667.122.4.225.811.309,1.209a17.318,17.318,0,0,1,.3,1.833C532.809,179.2,531.851,182.241,529.933,183.863Z" transform="translate(-509.968 -164.395)" fill="#f1bf00"/>
          <g id="Grupo_58834" data-name="Grupo 58834" transform="translate(0.382 5.096)">
            <g id="Grupo_58833" data-name="Grupo 58833">
              <g id="Grupo_58831" data-name="Grupo 58831" transform="translate(0.92)">
                <path id="Trazado_113834" data-name="Trazado 113834" d="M531.4,171.359c-3.017.045-6.067-.2-9.077-.212-3.642-.027-7.289.154-10.931.083.1-.238.2-.476.3-.721A106.356,106.356,0,0,1,522.963,170c2.606-.026,5.269-.1,7.887.083C531.057,170.509,531.236,170.941,531.4,171.359Z" transform="translate(-511.389 -169.957)" fill="#f1bf00"/>
              </g>
              <g id="Grupo_58832" data-name="Grupo 58832" transform="translate(0 2.902)">
                <path id="Trazado_113835" data-name="Trazado 113835" d="M532.182,174.5c-3.14.193-6.376-.1-9.49-.09-4.066.006-8.247.418-12.307.1.045-.232.1-.463.16-.694a77.589,77.589,0,0,1,11.529-.56,87.437,87.437,0,0,1,9.8.038C531.995,173.7,532.1,174.1,532.182,174.5Z" transform="translate(-510.385 -173.125)" fill="#f1bf00"/>
              </g>
            </g>
          </g>
        </g>
      </g>
      <g id="Grupo_58838" data-name="Grupo 58838" transform="translate(588.757 105.246)">
        <path id="Trazado_113836" data-name="Trazado 113836" d="M706.942,190.173a.668.668,0,0,1-.46.223c-.284.046-1.88.054-3.8.054-3.381,0-7.857-.026-8.645-.044a1.572,1.572,0,0,1-.6-.2,1.9,1.9,0,0,1-.806-.978,1.485,1.485,0,0,0-.326-.461l-.233-.227c-.046-.046-.1-.083-.154-.129a7.691,7.691,0,0,0-.825-.577,21.9,21.9,0,0,0,2.144-2.171,18.987,18.987,0,0,0,1.328-1.722c.33.211.65.394.953.568.156.092.312.183.449.247.7.376,1.319.66,1.823.9,2.547,1.09,4.379,1.878,5.7,2.4.522.211.963.367,1.329.486a6.036,6.036,0,0,0,.945.257c.211.046.953.154,1.182.658A.725.725,0,0,1,706.942,190.173Z" transform="translate(-605.78 -115.754)" fill="#f9b995"/>
        <path id="Trazado_113837" data-name="Trazado 113837" d="M688.021,181.483c-.229.376-.458.724-.687,1.054a18.987,18.987,0,0,1-1.328,1.722,21.9,21.9,0,0,1-2.144,2.171c-.238.211-.486.421-.751.632-.211.165-.385.3-.513.394-4.1-1.365-20.576-6.851-20.7-6.9.155,2.215-.01,5.275-1.925,7.639-1.576,1.951-3.976,2.95-20.211,3.17a154.866,154.866,0,0,1-18.937-1.035c-5.763-.66-7.421-1.64-8.685-2.465-5.689-3.711-6.935-10.93-7.274-13.871a46.978,46.978,0,0,1,4.938-1.319c4.967-1.043,7.1-.65,10.831-1.755a23.981,23.981,0,0,0,5.834-2.642q4.513-.045,9.336-.29c2.716-.14,5.03-.31,6.917-.47,0,0,10.1-.751,16.363.211a24.088,24.088,0,0,1,2.437.5c5.543,1.411,9.171,3.408,14.631,6.514C678.539,176.114,682.231,178.212,688.021,181.483Z" transform="translate(-598.551 -114.355)" fill="#b3bfbf"/>
        <path id="Trazado_113838" data-name="Trazado 113838" d="M626.316,166.087c-3.362,3.243-5.974,3.995-7.778,4.04-.715.018-1.75-.064-3.711.055a31.1,31.1,0,0,0-4.333.476c-3.766.705-4.645,1.8-5.726,1.237-1.448-.742-1.411-3.454-1.411-4.792.027-10.353-1.695-11.04-.467-26.807a8.5,8.5,0,0,1,1.667-4.911c1.732-2.135,4.462-2.629,6.1-2.932a14.941,14.941,0,0,1,6.457.255,7.089,7.089,0,0,1,5.864,3.08c.257.989.5,1.869.716,2.611.266.88.614,2.043,1.072,3.39.128.385.229.65.266.76.953,2.794.632,6.276.458,10.454-.055,1.438-.1,2.968-.064,4.581.027.861.073,1.915.165,3.133A54.023,54.023,0,0,0,626.316,166.087Z" transform="translate(-598.349 -111.419)" fill="#f1bf00"/>
        <path id="Trazado_113839" data-name="Trazado 113839" d="M610.769,121.6a1.869,1.869,0,0,0,2.008,1.251,8.688,8.688,0,0,1,.338,3.944c-.212,1.38-.655,1.795-.942,3.486a7.213,7.213,0,0,0-.08.768q4.5,9.069,5.851,8.622,1.212-.4-.136-8.515c.037-.351.2-2.043.24-2.53a2.683,2.683,0,0,0,1.154.12c2.675-.375,4.592-4.978,4.65-8.746a11.745,11.745,0,0,0-.142-2,14.838,14.838,0,0,1-1.488-2.109,16.3,16.3,0,0,1-.992-2.033.225.225,0,0,1,0,.1,2.493,2.493,0,0,1-.082-.3,14.691,14.691,0,0,1-.933,1.236,18.269,18.269,0,0,1-4.705,4.186,19.471,19.471,0,0,1-2.378,1.24,1.452,1.452,0,0,0-1.67-.464A1.518,1.518,0,0,0,610.769,121.6Z" transform="translate(-599.042 -109.863)" fill="#f9b995"/>
        <path id="Trazado_113840" data-name="Trazado 113840" d="M622.848,121.848c-.06.517.174.968.523,1.009s.68-.346.739-.863-.174-.968-.523-1.009S622.908,121.331,622.848,121.848Z" transform="translate(-600.058 -110.477)" fill="#352f31"/>
        <path id="Trazado_113841" data-name="Trazado 113841" d="M617.534,121.354c-.013.52.262.949.613.957s.646-.406.658-.926-.261-.948-.612-.957S617.547,120.835,617.534,121.354Z" transform="translate(-599.614 -110.431)" fill="#352f31"/>
        <path id="Trazado_113842" data-name="Trazado 113842" d="M616.49,119.329c.041-.417,1.047-.585,1.342-.64s.914-.169,1.1.105a.305.305,0,0,1,.042.257c-.055.148-.267.194-.358.214-1.222.269-1.817.6-2.053.293A.341.341,0,0,1,616.49,119.329Z" transform="translate(-599.526 -110.279)" fill="#504647"/>
        <path id="Trazado_113843" data-name="Trazado 113843" d="M620.281,124.926a.128.128,0,0,1-.012-.254c.335-.067.913-.237,1.02-.628.038-.137,0-.255-.127-.686l-.029-.094c-.159-.524-.279-.952-.355-1.231a.128.128,0,1,1,.247-.068c.077.278.2.7.354,1.225l.028.093c.136.447.188.615.129.828-.142.525-.823.735-1.217.814A.11.11,0,0,1,620.281,124.926Z" transform="translate(-599.834 -110.552)" fill="#f2856b"/>
        <path id="Trazado_113844" data-name="Trazado 113844" d="M624.486,119.937c.019-.4-.907-.7-1.177-.794s-.84-.289-1.052-.056a.291.291,0,0,0-.076.236c.03.147.224.221.308.253,1.116.428,1.632.824,1.9.567A.324.324,0,0,0,624.486,119.937Z" transform="translate(-600.003 -110.309)" fill="#504647"/>
        <path id="Trazado_113845" data-name="Trazado 113845" d="M666.4,181.982l-1.42-.475a13.665,13.665,0,0,0-1.634-.495s-.177-.041-.359-.08a112.279,112.279,0,0,0-18.132-1.665c-1.161-.01-2.127,0-2.785,0a.36.36,0,0,1,0-.72h2.785c.4.052-.264-.052,2.419.094,3.08.169,5.7.4,9.128.668,0,0,3.047.237,6.436.852a6.48,6.48,0,0,1,3.023,1.317A5.624,5.624,0,0,1,666.4,181.982Z" transform="translate(-601.64 -115.303)" fill="#9aafae"/>
        <path id="Trazado_113846" data-name="Trazado 113846" d="M620.528,127.354h-.073a2.89,2.89,0,0,1-1.677-.616.138.138,0,0,1-.023-.192.136.136,0,0,1,.193-.024,2.606,2.606,0,0,0,1.513.558,2.563,2.563,0,0,0,.992-.179.137.137,0,1,1,.1.255A2.75,2.75,0,0,1,620.528,127.354Z" transform="translate(-599.714 -110.939)" fill="#f2856b"/>
        <path id="Trazado_113847" data-name="Trazado 113847" d="M707.031,190.594a.652.652,0,0,1-.46.223c-.279.043-1.88.054-3.8.054-3.375,0-7.861-.033-8.645-.044a1.488,1.488,0,0,1-.6-.2,1.95,1.95,0,0,1-.806-.978,1.471,1.471,0,0,0-.326-.461c-.075-.075-.136-.141-.233-.227H704.9a6.781,6.781,0,0,0,.945.257c.2.043.945.152,1.182.658A.749.749,0,0,1,707.031,190.594Z" transform="translate(-605.869 -116.175)" fill="#504647"/>
        <g id="Grupo_58837" data-name="Grupo 58837" transform="translate(27.959 38.811)">
          <path id="Trazado_113848" data-name="Trazado 113848" d="M667.821,152.032c-.486-.366-1.328.018-1.64.156-2.19.971-13.4,5.561-16.326,6.111a2.812,2.812,0,0,0-1.182.5,3.984,3.984,0,0,0-1.209,2.739c-.119.777-.287,2.054-.5,3.743l-.105-.018a2.571,2.571,0,0,0-.812-.017,2.637,2.637,0,0,0-.972.344c-5.159,2.967-10.716,5.186-16,7.915-.191.1-.564.29-.581.577-.059,1.036,4.623,2.1,9.27,3.14,4.059.906,6.088,1.36,6.949,1.314a9.637,9.637,0,0,0,3-.691,91.63,91.63,0,0,0,15.94-6.237,4.334,4.334,0,0,0,1.42-1.072,4.626,4.626,0,0,0,1.017-2.135c.586-2.6.879-3.9,2.08-14.769C668.206,153.26,668.307,152.38,667.821,152.032Z" transform="translate(-628.491 -151.878)" fill="#504647"/>
          <path id="Trazado_113849" data-name="Trazado 113849" d="M646.991,168.334c-.321,2.639-.715,5.992-1.118,9.886a4.6,4.6,0,0,1-1.6.147c-.183-.009-.028-.009-1.787-.394-3.271-.715-6.477-1.722-9.776-2.29-.412-.064-1.42-.229-1.438-.541-.018-.247.55-.467.742-.541,2.29-.925,7.293-4.049,12.8-6.148a3.114,3.114,0,0,1,1.173-.247A4.106,4.106,0,0,1,646.991,168.334Z" transform="translate(-628.724 -153.247)" fill="#352f31"/>
        </g>
        <path id="Trazado_113850" data-name="Trazado 113850" d="M645.864,164.529a5.241,5.241,0,0,0-2.125-2.546,7.352,7.352,0,0,0-3.262-1.255,7.808,7.808,0,0,0-.841-.075,40.944,40.944,0,0,1-6.08-1.716,13,13,0,0,1-4.489-2.42,10.08,10.08,0,0,1-1.475-1.612c-.055,1.438-.1,2.968-.064,4.581.027.861.073,1.915.165,3.133.976.32,2.008.619,3.1.889a44.056,44.056,0,0,0,9.228,1.261,3.874,3.874,0,0,1,.813.261c1.85.865,2.191,2.869,3.586,2.9a1.815,1.815,0,0,0,1.294-.589C646.524,166.438,645.994,164.905,645.864,164.529Z" transform="translate(-600.45 -113.321)" fill="#f9b995"/>
        <path id="Trazado_113851" data-name="Trazado 113851" d="M634.722,168.14a5.8,5.8,0,0,0-2.78-2.99,8.316,8.316,0,0,0-2.831-.956c-2.735-.5-5.1-1.525-9.834-3.579a24.521,24.521,0,0,1-4.69-2.323c-1.721-1.431-2.137-3.235-3.326-10.249-1.421-8.388-1.755-10.971-3.685-11.92a3.473,3.473,0,0,0-3.321.283c-3.64,2.478-.471,12.663.708,16.454,1.666,5.354,2.333,8.082,4.588,10.011,3.433,2.937,9.061,3.687,12.017,4.106.3.042,2.062.284,4.441.742,1.24.238,1.861.357,2.052.431,2.987,1.134,3.4,4.266,5.135,4.148a2,2,0,0,0,1.317-.761C635.516,170.357,634.844,168.482,634.722,168.14Z" transform="translate(-598.358 -111.721)" fill="#f9b995"/>
        <path id="Trazado_113852" data-name="Trazado 113852" d="M623.25,127.119a7.246,7.246,0,0,0-.543,1.252c-.31,1.4.49,2.08.433,3.581a4.505,4.505,0,0,1-.535,1.933,7.381,7.381,0,0,0-3.851-2.81,6.82,6.82,0,0,0-2.014-.27q.121-1.264.24-2.53a2.863,2.863,0,0,0,1.154.12c2.673-.374,4.59-4.98,4.65-8.746a11.477,11.477,0,0,0-.142-2,16.211,16.211,0,0,1-1.488-2.109,16.94,16.94,0,0,1-.992-2.033.341.341,0,0,1,0,.1,3.086,3.086,0,0,1-.082-.3c-.135.2-.28.4-.437.616a18.8,18.8,0,0,1-5.2,4.806,19.409,19.409,0,0,1-2.378,1.24,1.455,1.455,0,0,0-1.67-.464,1.523,1.523,0,0,0-.7,1.746,1.876,1.876,0,0,0,2.008,1.251,8.77,8.77,0,0,1,.338,3.944c-.205,1.384-.652,1.79-.942,3.486-.04.3-.066.541-.08.768-.1,1.115.1,1.52-.028,2.581a8.712,8.712,0,0,1-3.084,5.23c-.463.377-3.147,2.547-6.081,1.737a5.68,5.68,0,0,1-3.511-3.02,4.859,4.859,0,0,1-.348-1.731,6.759,6.759,0,0,1,.356-2.04,13.212,13.212,0,0,1,.681-1.583c.973-2.007,1.668-1.645,2.7-3.513,1.783-3.246.341-4.884,1.917-6.828.889-1.1,1.766-1.284,2.448-2.785a7.6,7.6,0,0,0,.562-2.629c.537-2.982,3.867-5.707,7.31-6.414a9.676,9.676,0,0,1,5.435.5,7.3,7.3,0,0,1,3.481,2.3,7.136,7.136,0,0,1,1.294,2.48c.361,1.2.087,1.456.449,3.044a25.928,25.928,0,0,1,.709,2.532,8.268,8.268,0,0,1-.562,3.8C624.237,125.61,623.842,125.915,623.25,127.119Z" transform="translate(-597.974 -109.516)" fill="#504647"/>
      </g>
    </g>
  </g>
</svg>
