<svg xmlns="http://www.w3.org/2000/svg" width="207.234" height="189.509" viewBox="0 0 207.234 189.509">
  <g id="Grupo_58692" data-name="Grupo 58692" transform="translate(-437.693 -2110.315)">
    <g id="Grupo_57982" data-name="Grupo 57982" transform="translate(416.977 2110.315)">
      <g id="Grupo_57983" data-name="Grupo 57983" transform="translate(0 0)">
        <path id="Trazado_100598" data-name="Trazado 100598" d="M123.468,0c32.157.283,105.341,144.661,77.62,177.259S-7.646,172.151.251,125.582,91.312-.281,123.468,0Z" transform="translate(227.95 189.509) rotate(180)" fill="#bf3976" opacity="0.15" style="isolation: isolate"/>
        <path id="Trazado_100598-2" data-name="Trazado 100598" d="M78.622,0C99.1.181,145.7,92.118,128.049,112.876S-4.869,109.623.16,79.968,58.145-.179,78.622,0Z" transform="matrix(-0.259, -0.966, 0.966, -0.259, 104.871, 182.105)" fill="#bf3976" opacity="0.2" style="isolation: isolate"/>
      </g>
    </g>
    <g id="Grupo_58771" data-name="Grupo 58771" transform="translate(274.428 1011.173)">
      <path id="Trazado_113619" data-name="Trazado 113619" d="M172.273,1248.563c1.542-1.18,6.056-1.221,7.447-1.24,55.743-.8,111.544.05,167.317.062,3.151,0,14.461-.073,16.4,2.068a1.016,1.016,0,0,1,.039,1.367c-2.033,2.464-16.336,2.368-20.09,2.366-14.464-.009-143.1,1.2-164.425-.622-1.626-.139-4.828-.484-6.35-1.61C171.7,1250.278,171.333,1249.283,172.273,1248.563Z" transform="translate(0.276 18.553)" fill="#efd8c5"/>
      <g id="Grupo_58740" data-name="Grupo 58740" transform="translate(251.803 1160.422)">
        <circle id="Elipse_6315" data-name="Elipse 6315" cx="3.397" cy="3.397" r="3.397" transform="translate(35.77 101.374)" fill="#504647"/>
        <circle id="Elipse_6316" data-name="Elipse 6316" cx="3.397" cy="3.397" r="3.397" transform="translate(3.379 101.374)" fill="#504647"/>
        <path id="Trazado_113620" data-name="Trazado 113620" d="M249.289,1200.715h3.174v-45.833h-3.174a6.656,6.656,0,0,0-6.575,6.726v32.368A6.659,6.659,0,0,0,249.289,1200.715Z" transform="translate(-241.496 -1154.882)" fill="#504647"/>
        <path id="Trazado_113621" data-name="Trazado 113621" d="M287.479,1211.454v-3.174a6.654,6.654,0,0,0-6.726-6.575H248.386a6.657,6.657,0,0,0-6.739,6.575v3.174h21.125v34.13H242.051v3.581h45.024v-3.581H266.354v-34.13Z" transform="translate(-241.647 -1148.266)" fill="#504647"/>
      </g>
      <g id="Grupo_58750" data-name="Grupo 58750" transform="translate(169.765 1163.177)">
        <g id="Grupo_58742" data-name="Grupo 58742">
          <path id="Trazado_113622" data-name="Trazado 113622" d="M188.371,1175.956c-.377-2.209-1.044-3.23-1.573-7.045-.524-3.778-.8-5.727.261-7.56,1.864-3.209,5.757-3.8,6.666-3.939,9.231-1.4,19.795,10.04,18.123,21.864-.663,4.684-2.956,6.324-2.717,11.895.158,3.688,1.19,3.626,1.286,6.99.224,7.9-6.156,11.308-5.464,24.845-3.015-3.328-12.825-14.409-14.987-18.336-1.695-3.079-4.712-8.7-4.055-15.53C186.479,1183.233,189.321,1181.523,188.371,1175.956Z" transform="translate(-167.497 -1157.296)" fill="#0ac4bf"/>
          <path id="Trazado_113623" data-name="Trazado 113623" d="M171.581,1196.551c-2.9,3.233-1.586,8.269-1.052,10.318,3.6,13.826,26.309,20.543,31.775,19.838-3.948-13.107-12.676-13.229-16.883-17.684-4.768-5.05-.89-11.976-4.942-14.45C177.911,1193.005,173.713,1194.173,171.581,1196.551Z" transform="translate(-169.765 -1152.13)" fill="#0ac4bf"/>
          <g id="Grupo_58741" data-name="Grupo 58741" transform="translate(7.301 11.002)">
            <path id="Trazado_113624" data-name="Trazado 113624" d="M204.829,1225.339c-2.263-14-8.442-16.092-8.9-28.433-.332-8.96,2.733-11.73,1.493-22.608a47.637,47.637,0,0,0-1.278-6.992.434.434,0,1,0-.832.223,47.417,47.417,0,0,1,1.253,6.863c1.22,10.7-1.832,13.468-1.5,22.53.467,12.548,6.7,14.725,8.925,28.489a54.257,54.257,0,0,1-.729,20.732c-.051.232.127.328.356.383s.434.04.486-.193A54.767,54.767,0,0,0,204.829,1225.339Z" transform="translate(-173.495 -1166.936)" fill="#00928e"/>
            <path id="Trazado_113625" data-name="Trazado 113625" d="M205.944,1240.676c.867-6.506-.859-10.347-2.462-12.422-1.263-1.639-5.516-5.557-11.254-8.82-1.615-.919-7.942-3.854-10.993-6.568a19.383,19.383,0,0,1-5.037-7.34.432.432,0,0,1,.8-.323,18.527,18.527,0,0,0,4.808,7.017c2.986,2.656,9.155,5.5,10.847,6.464,5.727,3.256,10.139,7.264,11.512,9.042,1.7,2.2,3.54,6.261,2.633,13.063A.432.432,0,0,1,205.944,1240.676Z" transform="translate(-176.163 -1161.567)" fill="#00928e"/>
          </g>
        </g>
        <g id="Grupo_58744" data-name="Grupo 58744" transform="translate(40.118 18.487)">
          <path id="Trazado_113626" data-name="Trazado 113626" d="M230.91,1189.026c.709-1.573,1.4-2.2,2.539-4.944,1.124-2.713,1.711-4.111,1.273-5.685-.765-2.753-3.551-3.949-4.2-4.229-6.606-2.837-16.7,3.637-17.749,12.772-.415,3.619.974,5.286-.285,9.391-.833,2.719-1.591,2.472-2.316,4.96-1.7,5.847,2.391,9.621-.753,19.574,2.893-1.893,12.354-8.246,14.728-10.753,1.861-1.964,5.2-5.566,6.039-10.784C230.905,1194.816,229.12,1192.991,230.91,1189.026Z" transform="translate(-204.281 -1173.494)" fill="#0ac4bf"/>
          <path id="Trazado_113627" data-name="Trazado 113627" d="M239.868,1207.581c1.532,2.973-.425,6.47-1.22,7.893-5.37,9.6-23.594,10.2-27.53,8.612,5.487-9,12.016-7.4,16.016-9.9,4.533-2.837,2.989-8.75,6.488-9.807C235.839,1203.708,238.742,1205.4,239.868,1207.581Z" transform="translate(-204.041 -1169.152)" fill="#0ac4bf"/>
          <g id="Grupo_58743" data-name="Grupo 58743" transform="translate(0 8.137)">
            <path id="Trazado_113628" data-name="Trazado 113628" d="M208.456,1222.383c4.4-9.99,9.416-10.352,12.154-19.458,1.988-6.613.241-9.272,3.278-17.136a36.619,36.619,0,0,1,2.311-4.961.334.334,0,1,1,.576.326,36.44,36.44,0,0,0-2.267,4.871c-2.988,7.739-1.251,10.392-3.261,17.078-2.785,9.26-7.851,9.673-12.183,19.5a41.79,41.79,0,0,0-3.483,15.591c-.006.182-.158.219-.339.216s-.331-.055-.325-.238A42.15,42.15,0,0,1,208.456,1222.383Z" transform="translate(-204.917 -1180.625)" fill="#00928e"/>
            <path id="Trazado_113629" data-name="Trazado 113629" d="M205.59,1233.589c.617-5.017,2.65-7.543,4.247-8.778a33.625,33.625,0,0,1,10.1-4.387c1.382-.371,6.666-1.33,9.467-2.76a14.93,14.93,0,0,0,5.178-4.491.333.333,0,0,0-.534-.4,14.27,14.27,0,0,1-4.946,4.295c-2.74,1.4-7.89,2.321-9.338,2.709a34.5,34.5,0,0,0-10.333,4.5c-1.7,1.313-3.854,3.978-4.5,9.223A.332.332,0,0,0,205.59,1233.589Z" transform="translate(-204.915 -1176.101)" fill="#00928e"/>
          </g>
        </g>
        <g id="Grupo_58749" data-name="Grupo 58749" transform="translate(25.047 79.418)">
          <path id="Trazado_113630" data-name="Trazado 113630" d="M216.583,1251.133c-3.431,2.893-18.2,2.95-21.647.04-2.4-2.019-3.59-5.818-3.126-10.33a19.865,19.865,0,0,1,.377-2.276c.056-.289.12-.577.2-.866a24.134,24.134,0,0,1,.945-2.885c.121-.3.249-.592.377-.9a29.587,29.587,0,0,1,1.811-3.423c.153-.24.3-.48.474-.729a30.248,30.248,0,0,1,2.107-2.845h7.646c0-.04,7.671-.04,7.671-.04a31.354,31.354,0,0,1,1.891,2.517c.329.488.641.978.93,1.466a26.675,26.675,0,0,1,1.338,2.517c.257.537.482,1.074.681,1.6.273.7.506,1.395.7,2.075.153.506.281,1.01.385,1.508a21.571,21.571,0,0,1,.369,2.284C220.166,1245.331,218.971,1249.115,216.583,1251.133Z" transform="translate(-191.711 -1226.882)" fill="#fac991"/>
          <g id="Grupo_58748" data-name="Grupo 58748" transform="translate(0.476 6.349)">
            <g id="Grupo_58747" data-name="Grupo 58747">
              <g id="Grupo_58745" data-name="Grupo 58745" transform="translate(1.146)">
                <path id="Trazado_113631" data-name="Trazado 113631" d="M218.057,1234.191c-3.758.056-7.558-.249-11.308-.265-4.537-.032-9.08.192-13.617.1.121-.3.249-.592.377-.9a132.171,132.171,0,0,1,14.041-.641c3.246-.032,6.564-.128,9.825.1C217.632,1233.133,217.857,1233.67,218.057,1234.191Z" transform="translate(-193.132 -1232.445)" fill="#ce6c4f"/>
              </g>
              <g id="Grupo_58746" data-name="Grupo 58746" transform="translate(0 3.615)">
                <path id="Trazado_113632" data-name="Trazado 113632" d="M219.28,1237.326c-3.911.24-7.942-.121-11.822-.113-5.065.008-10.274.522-15.331.121.056-.289.12-.577.2-.866,4.7-.777,9.633-.633,14.361-.7a108.948,108.948,0,0,1,12.206.048C219.049,1236.324,219.177,1236.829,219.28,1237.326Z" transform="translate(-192.128 -1235.612)" fill="#ce6c4f"/>
              </g>
            </g>
          </g>
        </g>
      </g>
      <g id="Grupo_58752" data-name="Grupo 58752" transform="translate(210.363 1115.671)">
        <circle id="Elipse_6317" data-name="Elipse 6317" cx="13.432" cy="13.432" r="13.432" transform="translate(0 10.28) rotate(-22.5)" fill="#504647"/>
        <circle id="Elipse_6318" data-name="Elipse 6318" cx="12.119" cy="12.119" r="12.119" transform="translate(2.97 26.56) rotate(-76.718)" fill="#fff"/>
        <g id="Grupo_58751" data-name="Grupo 58751" transform="translate(6.538 6.538)">
          <path id="Trazado_113633" data-name="Trazado 113633" d="M220.767,1124.589a.427.427,0,0,1-.428-.428v-2.333a.428.428,0,1,1,.856,0v2.333A.427.427,0,0,1,220.767,1124.589Z" transform="translate(-209.756 -1121.4)" fill="#504647"/>
          <path id="Trazado_113634" data-name="Trazado 113634" d="M213.827,1131.529h-2.333a.428.428,0,0,1,0-.856h2.333a.428.428,0,0,1,0,.856Z" transform="translate(-211.066 -1120.09)" fill="#504647"/>
          <path id="Trazado_113635" data-name="Trazado 113635" d="M220.767,1141.09a.427.427,0,0,1-.428-.428v-2.332a.428.428,0,0,1,.856,0v2.332A.427.427,0,0,1,220.767,1141.09Z" transform="translate(-209.756 -1119.069)" fill="#504647"/>
          <path id="Trazado_113636" data-name="Trazado 113636" d="M230.329,1131.529H228a.428.428,0,0,1,0-.856h2.333a.428.428,0,0,1,0,.856Z" transform="translate(-208.734 -1120.09)" fill="#504647"/>
        </g>
        <path id="Trazado_113637" data-name="Trazado 113637" d="M221.26,1132.8a.571.571,0,0,1-.414-.179l-3.838-4.072a.57.57,0,1,1,.831-.782l3.109,3.3,1.844-7.834a.57.57,0,0,1,1.11.261l-2.086,8.867a.567.567,0,0,1-.407.42A.55.55,0,0,1,221.26,1132.8Z" transform="translate(-203.71 -1114.666)" fill="#504647"/>
      </g>
      <g id="Grupo_58768" data-name="Grupo 58768" transform="translate(316.754 1117.931)">
        <g id="Grupo_58757" data-name="Grupo 58757">
          <g id="Grupo_58753" data-name="Grupo 58753" transform="translate(0 0.146)">
            <rect id="Rectángulo_7003" data-name="Rectángulo 7003" width="11.537" height="11.537" rx="2.127" fill="#f5e3cb"/>
            <path id="Trazado_113638" data-name="Trazado 113638" d="M302.889,1125.842a.753.753,0,0,1-.532-.22l-1.548-1.547a.752.752,0,0,1,1.064-1.063l1.016,1.015,3.317-3.317a.752.752,0,0,1,1.063,1.064l-3.848,3.848A.75.75,0,0,1,302.889,1125.842Z" transform="translate(-298.27 -1117.397)" fill="#ce6c4f"/>
          </g>
          <g id="Grupo_58756" data-name="Grupo 58756" transform="translate(15.146)">
            <rect id="Rectángulo_7004" data-name="Rectángulo 7004" width="24.821" height="11.537" rx="2.127" fill="#f5e3cb"/>
            <g id="Grupo_58755" data-name="Grupo 58755" transform="translate(4.66 3.306)">
              <g id="Grupo_58754" data-name="Grupo 58754">
                <path id="Trazado_113639" data-name="Trazado 113639" d="M318.212,1123.568a2.447,2.447,0,0,1-.719.115,1.561,1.561,0,0,1-1.136-.433,1.452,1.452,0,0,1-.446-1.092,1.63,1.63,0,0,1,.223-.863,1.432,1.432,0,0,1,.622-.557,2.126,2.126,0,0,1,.924-.191,2.4,2.4,0,0,1,.87.147,1.7,1.7,0,0,1,.612.381,1.957,1.957,0,0,1,.378.557,2.567,2.567,0,0,1,.2.644,3.986,3.986,0,0,1,.054.672,3.868,3.868,0,0,1-.082.823,2.429,2.429,0,0,1-.266.7,1.925,1.925,0,0,1-.461.539,1.976,1.976,0,0,1-.682.345,3.2,3.2,0,0,1-.916.123,1.833,1.833,0,0,1-.978-.244.727.727,0,0,1-.4-.633.678.678,0,0,1,.159-.439.5.5,0,0,1,.41-.194.991.991,0,0,1,.388.138,1.059,1.059,0,0,0,.475.136.712.712,0,0,0,.338-.087.833.833,0,0,0,.431-.582Zm-.87-1.367a1.453,1.453,0,0,0,.094.544c.062.155.151.233.266.233a.258.258,0,0,0,.205-.118.808.808,0,0,0,.132-.3,1.534,1.534,0,0,0,.043-.364,1.331,1.331,0,0,0-.1-.531c-.067-.154-.161-.231-.281-.231s-.21.074-.269.224A1.425,1.425,0,0,0,317.342,1122.2Z" transform="translate(-315.911 -1120.548)" fill="#a18b80"/>
                <path id="Trazado_113640" data-name="Trazado 113640" d="M319.946,1121.915a.965.965,0,0,1,.58-.151c.522,0,.783.181.783.547a.456.456,0,0,1-.2.425,1.14,1.14,0,0,1-.582.121,1.1,1.1,0,0,1-.561-.129.446.446,0,0,1-.223-.417A.472.472,0,0,1,319.946,1121.915Zm0,2.438a.965.965,0,0,1,.58-.151q.782,0,.783.546a.454.454,0,0,1-.2.425,1.127,1.127,0,0,1-.582.123,1.1,1.1,0,0,1-.561-.13.447.447,0,0,1-.223-.418A.47.47,0,0,1,319.946,1124.352Z" transform="translate(-315.37 -1120.376)" fill="#a18b80"/>
                <path id="Trazado_113641" data-name="Trazado 113641" d="M323.728,1125.445a2.587,2.587,0,0,1-.83-.125,1.887,1.887,0,0,1-.669-.4,1.762,1.762,0,0,1-.461-.748,3.481,3.481,0,0,1-.161-1.115,3.834,3.834,0,0,1,.159-1.179,1.739,1.739,0,0,1,.452-.762,1.809,1.809,0,0,1,.662-.4,2.7,2.7,0,0,1,.848-.122,2.393,2.393,0,0,1,.842.14,1.811,1.811,0,0,1,.657.428,1.912,1.912,0,0,1,.439.766,3.68,3.68,0,0,1,.154,1.125,3.542,3.542,0,0,1-.159,1.118,1.78,1.78,0,0,1-.448.744,1.84,1.84,0,0,1-.662.4A2.566,2.566,0,0,1,323.728,1125.445Zm.389-1.446a3.071,3.071,0,0,0,.129-.946,3.168,3.168,0,0,0-.137-.974c-.09-.283-.218-.423-.381-.423a.355.355,0,0,0-.3.215,1.633,1.633,0,0,0-.184.528,3.7,3.7,0,0,0-.057.659,2.836,2.836,0,0,0,.14.935c.094.268.226.4.4.4S324.03,1124.263,324.117,1124Z" transform="translate(-315.106 -1120.541)" fill="#a18b80"/>
                <path id="Trazado_113642" data-name="Trazado 113642" d="M327.886,1125.445a2.587,2.587,0,0,1-.83-.125,1.9,1.9,0,0,1-.669-.4,1.76,1.76,0,0,1-.46-.748,3.448,3.448,0,0,1-.162-1.115,3.832,3.832,0,0,1,.159-1.179,1.739,1.739,0,0,1,.452-.762,1.818,1.818,0,0,1,.662-.4,2.7,2.7,0,0,1,.848-.122,2.388,2.388,0,0,1,.842.14,1.811,1.811,0,0,1,.657.428,1.913,1.913,0,0,1,.439.766,3.681,3.681,0,0,1,.154,1.125,3.51,3.51,0,0,1-.159,1.118,1.768,1.768,0,0,1-.449.744,1.84,1.84,0,0,1-.662.4A2.566,2.566,0,0,1,327.886,1125.445Zm.389-1.446a3.071,3.071,0,0,0,.129-.946,3.169,3.169,0,0,0-.137-.974c-.09-.283-.217-.423-.381-.423a.355.355,0,0,0-.3.215,1.633,1.633,0,0,0-.183.528,3.6,3.6,0,0,0-.058.659,2.835,2.835,0,0,0,.14.935c.094.268.227.4.4.4S328.188,1124.263,328.275,1124Z" transform="translate(-314.519 -1120.541)" fill="#a18b80"/>
              </g>
            </g>
          </g>
        </g>
        <g id="Grupo_58762" data-name="Grupo 58762" transform="translate(0 15.576)">
          <g id="Grupo_58758" data-name="Grupo 58758" transform="translate(0 0.154)">
            <rect id="Rectángulo_7005" data-name="Rectángulo 7005" width="11.537" height="11.537" rx="2.127" fill="#f5e3cb"/>
            <path id="Trazado_113643" data-name="Trazado 113643" d="M302.889,1139.5a.753.753,0,0,1-.532-.22l-1.548-1.547a.752.752,0,0,1,1.064-1.063l1.016,1.015,3.317-3.317a.752.752,0,0,1,1.063,1.064l-3.848,3.848A.75.75,0,0,1,302.889,1139.5Z" transform="translate(-298.27 -1131.052)" fill="#ce6c4f"/>
          </g>
          <g id="Grupo_58761" data-name="Grupo 58761" transform="translate(15.146)">
            <rect id="Rectángulo_7006" data-name="Rectángulo 7006" width="24.821" height="11.537" rx="2.127" fill="#f5e3cb"/>
            <g id="Grupo_58760" data-name="Grupo 58760" transform="translate(3.157 3.338)">
              <g id="Grupo_58759" data-name="Grupo 58759">
                <path id="Trazado_113644" data-name="Trazado 113644" d="M317.049,1137.943a1.3,1.3,0,0,1-.2.83.781.781,0,0,1-.633.249,1,1,0,0,1-.452-.087.556.556,0,0,1-.262-.316,1.819,1.819,0,0,1-.105-.619v-2.682a1.179,1.179,0,0,1-.575-.125.447.447,0,0,1-.223-.422.472.472,0,0,1,.2-.39.928.928,0,0,1,.572-.155l.777.008a1.052,1.052,0,0,1,.714.176.828.828,0,0,1,.187.614Z" transform="translate(-314.594 -1134.224)" fill="#a18b80"/>
                <path id="Trazado_113645" data-name="Trazado 113645" d="M319.627,1137.69h.8c.4,0,.6.225.6.676a.679.679,0,0,1-.191.543,1.076,1.076,0,0,1-.68.162h-1.948a1.247,1.247,0,0,1-.687-.133q-.183-.132-.183-.572a.929.929,0,0,1,.029-.248.6.6,0,0,1,.107-.205,1,1,0,0,1,.216-.193q.389-.26.612-.418c.148-.106.293-.217.435-.334a2.311,2.311,0,0,0,.313-.3,1.871,1.871,0,0,0,.184-.284,1.068,1.068,0,0,0,.108-.317,2.524,2.524,0,0,0,.025-.374c0-.268-.084-.4-.252-.4s-.273.158-.273.475a.34.34,0,0,1-.173.345,1.275,1.275,0,0,1-.51.08.771.771,0,0,1-.622-.2,1.077,1.077,0,0,1-.162-.669.928.928,0,0,1,.443-.781,2.111,2.111,0,0,1,1.233-.313q1.957,0,1.956,1.489a2.338,2.338,0,0,1-.079.628,1.914,1.914,0,0,1-.2.476,1.538,1.538,0,0,1-.313.363,2.978,2.978,0,0,1-.37.28A4.583,4.583,0,0,1,319.627,1137.69Z" transform="translate(-314.206 -1134.224)" fill="#a18b80"/>
                <path id="Trazado_113646" data-name="Trazado 113646" d="M321.244,1135.541a.962.962,0,0,1,.579-.151c.523,0,.784.181.784.547a.457.457,0,0,1-.2.424,1.134,1.134,0,0,1-.582.121,1.1,1.1,0,0,1-.562-.129.444.444,0,0,1-.223-.417A.471.471,0,0,1,321.244,1135.541Zm0,2.438a.962.962,0,0,1,.579-.151q.784,0,.784.546a.454.454,0,0,1-.2.424,1.12,1.12,0,0,1-.582.123,1.1,1.1,0,0,1-.562-.13.447.447,0,0,1-.223-.418A.469.469,0,0,1,321.244,1137.978Z" transform="translate(-313.683 -1134.059)" fill="#a18b80"/>
                <path id="Trazado_113647" data-name="Trazado 113647" d="M325.026,1139.071a2.589,2.589,0,0,1-.831-.125,1.878,1.878,0,0,1-.669-.4,1.772,1.772,0,0,1-.46-.748,3.448,3.448,0,0,1-.162-1.115,3.833,3.833,0,0,1,.159-1.179,1.75,1.75,0,0,1,.452-.762,1.819,1.819,0,0,1,.662-.4,2.7,2.7,0,0,1,.849-.122,2.376,2.376,0,0,1,.841.14,1.812,1.812,0,0,1,.659.428,1.91,1.91,0,0,1,.438.766,3.679,3.679,0,0,1,.154,1.125,3.51,3.51,0,0,1-.159,1.118,1.768,1.768,0,0,1-.449.744,1.813,1.813,0,0,1-.662.4A2.564,2.564,0,0,1,325.026,1139.071Zm.388-1.446a3.04,3.04,0,0,0,.129-.946,3.2,3.2,0,0,0-.136-.974c-.091-.283-.218-.423-.381-.423a.356.356,0,0,0-.3.214,1.633,1.633,0,0,0-.183.528,3.6,3.6,0,0,0-.058.659,2.835,2.835,0,0,0,.14.935q.14.4.4.4T325.414,1137.625Z" transform="translate(-313.42 -1134.224)" fill="#a18b80"/>
                <path id="Trazado_113648" data-name="Trazado 113648" d="M329.184,1139.071a2.594,2.594,0,0,1-.831-.125,1.889,1.889,0,0,1-.669-.4,1.772,1.772,0,0,1-.46-.748,3.448,3.448,0,0,1-.162-1.115,3.832,3.832,0,0,1,.159-1.179,1.741,1.741,0,0,1,.453-.762,1.8,1.8,0,0,1,.662-.4,2.694,2.694,0,0,1,.848-.122,2.376,2.376,0,0,1,.841.14,1.812,1.812,0,0,1,.659.428,1.91,1.91,0,0,1,.438.766,3.678,3.678,0,0,1,.154,1.125,3.544,3.544,0,0,1-.158,1.118,1.781,1.781,0,0,1-.45.744,1.808,1.808,0,0,1-.661.4A2.576,2.576,0,0,1,329.184,1139.071Zm.388-1.446a3.038,3.038,0,0,0,.129-.946,3.205,3.205,0,0,0-.136-.974c-.091-.283-.218-.423-.381-.423a.353.353,0,0,0-.3.214,1.607,1.607,0,0,0-.184.528,3.6,3.6,0,0,0-.058.659,2.835,2.835,0,0,0,.14.935q.14.4.4.4T329.572,1137.625Z" transform="translate(-312.832 -1134.224)" fill="#a18b80"/>
              </g>
            </g>
          </g>
        </g>
        <g id="Grupo_58767" data-name="Grupo 58767" transform="translate(0 31.22)">
          <g id="Grupo_58763" data-name="Grupo 58763" transform="translate(0 0.095)">
            <rect id="Rectángulo_7007" data-name="Rectángulo 7007" width="11.537" height="11.537" rx="2.127" fill="#f5e3cb"/>
            <path id="Trazado_113649" data-name="Trazado 113649" d="M302.889,1153.151a.749.749,0,0,1-.532-.22l-1.548-1.547a.752.752,0,1,1,1.064-1.062l1.016,1.015,3.317-3.317a.752.752,0,0,1,1.063,1.064l-3.848,3.847A.746.746,0,0,1,302.889,1153.151Z" transform="translate(-298.27 -1144.707)" fill="#ce6c4f"/>
          </g>
          <g id="Grupo_58766" data-name="Grupo 58766" transform="translate(15.146)">
            <rect id="Rectángulo_7008" data-name="Rectángulo 7008" width="24.821" height="11.537" rx="2.127" fill="#f5e3cb"/>
            <g id="Grupo_58765" data-name="Grupo 58765" transform="translate(3.063 3.298)">
              <g id="Grupo_58764" data-name="Grupo 58764">
                <path id="Trazado_113650" data-name="Trazado 113650" d="M316.967,1151.67a1.306,1.306,0,0,1-.2.831.782.782,0,0,1-.633.249,1,1,0,0,1-.452-.088.55.55,0,0,1-.262-.316,1.812,1.812,0,0,1-.105-.619v-2.681a1.18,1.18,0,0,1-.575-.127.444.444,0,0,1-.223-.421.473.473,0,0,1,.2-.391.936.936,0,0,1,.572-.154l.776.007a1.046,1.046,0,0,1,.716.177.825.825,0,0,1,.187.614Z" transform="translate(-314.512 -1147.888)" fill="#a18b80"/>
                <path id="Trazado_113651" data-name="Trazado 113651" d="M318.84,1149.852a2.429,2.429,0,0,1,.726-.115,1.806,1.806,0,0,1,.813.177,1.381,1.381,0,0,1,.565.489,1.271,1.271,0,0,1,.2.708,1.819,1.819,0,0,1-.226.924,1.508,1.508,0,0,1-.625.6,2,2,0,0,1-.924.205,2.651,2.651,0,0,1-.744-.1,1.674,1.674,0,0,1-.56-.269,1.991,1.991,0,0,1-.389-.388,1.636,1.636,0,0,1-.248-.485,3.415,3.415,0,0,1-.165-1.061,3.759,3.759,0,0,1,.137-1.057,2.355,2.355,0,0,1,.423-.826,1.862,1.862,0,0,1,.774-.557,3.014,3.014,0,0,1,1.147-.2,1.78,1.78,0,0,1,.97.249.732.732,0,0,1,.4.636.666.666,0,0,1-.155.435.5.5,0,0,1-.413.191,1.117,1.117,0,0,1-.385-.114,1.181,1.181,0,0,0-.471-.115.856.856,0,0,0-.546.194A.8.8,0,0,0,318.84,1149.852Zm.834,1.366a1.438,1.438,0,0,0-.094-.542c-.063-.156-.151-.235-.267-.235s-.215.08-.283.237a1.328,1.328,0,0,0-.1.54,1.2,1.2,0,0,0,.1.507.314.314,0,0,0,.284.219.294.294,0,0,0,.273-.216A1.31,1.31,0,0,0,319.674,1151.218Z" transform="translate(-314.123 -1147.896)" fill="#a18b80"/>
                <path id="Trazado_113652" data-name="Trazado 113652" d="M321.325,1149.268a.975.975,0,0,1,.58-.149q.782,0,.783.546a.456.456,0,0,1-.2.425,1.139,1.139,0,0,1-.582.122,1.089,1.089,0,0,1-.562-.13.445.445,0,0,1-.223-.417A.472.472,0,0,1,321.325,1149.268Zm0,2.438a.966.966,0,0,1,.58-.151q.782,0,.783.547a.456.456,0,0,1-.2.425,1.139,1.139,0,0,1-.582.122,1.1,1.1,0,0,1-.562-.13.445.445,0,0,1-.223-.417A.472.472,0,0,1,321.325,1151.706Z" transform="translate(-313.578 -1147.723)" fill="#a18b80"/>
                <path id="Trazado_113653" data-name="Trazado 113653" d="M325.108,1152.8a2.555,2.555,0,0,1-.831-.127,1.882,1.882,0,0,1-.669-.4,1.775,1.775,0,0,1-.46-.749,3.436,3.436,0,0,1-.162-1.114,3.827,3.827,0,0,1,.159-1.179,1.75,1.75,0,0,1,.452-.762,1.786,1.786,0,0,1,.662-.4,2.7,2.7,0,0,1,.849-.122,2.376,2.376,0,0,1,.841.141,1.811,1.811,0,0,1,.659.428,1.9,1.9,0,0,1,.438.765,3.692,3.692,0,0,1,.154,1.127,3.5,3.5,0,0,1-.159,1.117,1.773,1.773,0,0,1-.449.745,1.8,1.8,0,0,1-.662.4A2.53,2.53,0,0,1,325.108,1152.8Zm.388-1.446a3.043,3.043,0,0,0,.129-.946,3.212,3.212,0,0,0-.136-.975c-.091-.283-.218-.423-.381-.423a.358.358,0,0,0-.3.216,1.624,1.624,0,0,0-.183.528,3.589,3.589,0,0,0-.058.659,2.828,2.828,0,0,0,.14.933q.14.4.4.4T325.5,1151.354Z" transform="translate(-313.315 -1147.888)" fill="#a18b80"/>
                <path id="Trazado_113654" data-name="Trazado 113654" d="M329.266,1152.8a2.56,2.56,0,0,1-.831-.127,1.882,1.882,0,0,1-.669-.4,1.776,1.776,0,0,1-.46-.749,3.437,3.437,0,0,1-.162-1.114,3.828,3.828,0,0,1,.159-1.179,1.74,1.74,0,0,1,.453-.762,1.768,1.768,0,0,1,.662-.4,2.693,2.693,0,0,1,.848-.122,2.376,2.376,0,0,1,.841.141,1.81,1.81,0,0,1,.659.428,1.905,1.905,0,0,1,.438.765,3.692,3.692,0,0,1,.154,1.127,3.533,3.533,0,0,1-.158,1.117,1.708,1.708,0,0,1-1.11,1.143A2.537,2.537,0,0,1,329.266,1152.8Zm.388-1.446a3.042,3.042,0,0,0,.129-.946,3.213,3.213,0,0,0-.136-.975c-.091-.283-.218-.423-.381-.423a.355.355,0,0,0-.3.216,1.6,1.6,0,0,0-.184.528,3.589,3.589,0,0,0-.058.659,2.829,2.829,0,0,0,.14.933q.14.4.4.4C329.438,1151.75,329.568,1151.618,329.654,1151.354Z" transform="translate(-312.727 -1147.888)" fill="#a18b80"/>
              </g>
            </g>
          </g>
        </g>
      </g>
      <g id="Grupo_58770" data-name="Grupo 58770" transform="translate(245.242 1120.995)">
        <path id="Trazado_113655" data-name="Trazado 113655" d="M310.85,1250.4a.728.728,0,0,1-.6.3H293.74a1.3,1.3,0,0,1-.486-.252c-.662-.548-.6-1.586-.493-3.093.057-.742.056-.889.079-1.38.046-.753,0-1.552-.011-2.385,0-.274,0-.651.011-1.1a12.546,12.546,0,0,0,3,.365,12.105,12.105,0,0,0,3.515-.5,3,3,0,0,1,.068.445,8.913,8.913,0,0,0,2.043,2.865,10.081,10.081,0,0,0,2.8,1.688,38.465,38.465,0,0,0,5.651,1.793c.2.057.843.226,1,.671A.708.708,0,0,1,310.85,1250.4Z" transform="translate(-227.873 -1103.097)" fill="#f9b995"/>
        <path id="Trazado_113656" data-name="Trazado 113656" d="M293.255,1249.82a1.393,1.393,0,0,0,.486.252h16.507a.745.745,0,0,0,.6-.3.685.685,0,0,0,.067-.586c-.16-.442-.8-.617-1-.671a38.332,38.332,0,0,1-5.651-1.793h-11.5C292.654,1248.24,292.585,1249.271,293.255,1249.82Z" transform="translate(-227.874 -1102.478)" fill="#a25f4c"/>
        <path id="Trazado_113657" data-name="Trazado 113657" d="M290.875,1250.554a.752.752,0,0,1-.6.3H273.758a2.025,2.025,0,0,1-.764-.574,3.343,3.343,0,0,1-.21-2.772c.388-1.837.584-3.193.778-4.357.057-.319.091-.6.137-.867a14.582,14.582,0,0,0,2.728.422,13.832,13.832,0,0,0,3.96-.342,5.28,5.28,0,0,0,1.1,3.458,6.857,6.857,0,0,0,2.8,1.687,38.575,38.575,0,0,0,5.656,1.793c.194.057.833.227,1,.671A.71.71,0,0,1,290.875,1250.554Z" transform="translate(-230.715 -1103.107)" fill="#f9b995"/>
        <path id="Trazado_113658" data-name="Trazado 113658" d="M290.875,1249.907a.748.748,0,0,1-.6.3H273.758a1.964,1.964,0,0,1-.764-.574,3.365,3.365,0,0,1-.21-2.772h11.5a38.487,38.487,0,0,0,5.656,1.793c.2.054.843.229,1,.671A.692.692,0,0,1,290.875,1249.907Z" transform="translate(-230.715 -1102.46)" fill="#a25f4c"/>
        <g id="Grupo_58769" data-name="Grupo 58769" transform="translate(13.557 74.291)">
          <path id="Trazado_113659" data-name="Trazado 113659" d="M306.787,1250.025a8.668,8.668,0,0,1-1.084.365,12.105,12.105,0,0,1-3.515.5,12.546,12.546,0,0,1-3-.365,11.906,11.906,0,0,1-1.609-.5c-.388-11.881-1.234-37.8-1.268-38.886-.422,1.495-7.634,27.37-10.83,38.795a13.324,13.324,0,0,1-1.586.457,13.832,13.832,0,0,1-3.96.342,14.582,14.582,0,0,1-2.728-.422q-.736-.205-1.3-.411c.89-7.11,5.1-37.72,6.289-45.686-12.2.582-21.411.3-24.914-.491a10.382,10.382,0,0,1-3.732-1.552,11.424,11.424,0,0,1-3.4-4.063,22.632,22.632,0,0,1-2.351-11.23,12.462,12.462,0,0,1,1.86-.685,13.862,13.862,0,0,1,6.7-.114c4.093.857,7.2-2.26,22.3.559,14.118,2.636,24.367,4.9,26.238,5.581a8.715,8.715,0,0,1,4.029,2.693,8.093,8.093,0,0,1,1.37,3.013C310.976,1201.018,309.561,1221.732,306.787,1250.025Z" transform="translate(-247.777 -1185.43)" fill="#bf3976"/>
          <path id="Trazado_113660" data-name="Trazado 113660" d="M291.6,1213.639c-.04-1.085-.066-2.154-.106-3.239,2.078-6.824,2.8-11.957,2.57-12.87a6.734,6.734,0,0,0-.929-2.076c-.056-.077-.089-.12-.089-.12a6.545,6.545,0,0,0-2.878-1.875,30.59,30.59,0,0,0-7.834-1.808.5.5,0,1,1,.094-.991,30.711,30.711,0,0,1,8.1,1.875,7.3,7.3,0,0,1,3.281,2.156,6.653,6.653,0,0,1,1.231,2.638C295.307,1198.574,293.982,1205.31,291.6,1213.639Z" transform="translate(-242.96 -1184.691)" fill="#8f2b58"/>
        </g>
        <path id="Trazado_113661" data-name="Trazado 113661" d="M284.738,1170.074c.127,1.681-2.324,3.5-4.405,5.136-.16.126-.331.251-.491.365.011,4.746.257,8.5.5,11.18.2,2.216.5,4.817-.951,5.9-.584.435-1.383.52-2.983.693a21.817,21.817,0,0,1-3.6.009c-.584-.03-1.2-.082-1.923-.169-6.152-.742-8.172.822-17.325.16-2.945-.217-4.428-.331-5.022-.867-3.641-3.31.8-14.871,1.2-19.5.1-1.084.183-2.2.183-2.2.046-.708.08-1.21.171-2.568.183-2.557.457-4.771.776-6.677-4.618,5.1-5.443,7.011-4.965,7.624.361.461,1.6.362,2.089,1.347a1.424,1.424,0,0,1,.171.947,15.283,15.283,0,0,1-.936,3.081,13.31,13.31,0,0,1-1.609,3.412.946.946,0,0,1-.536.4c-.548.137-1.016-.1-2.214-.845-4.306-2.666-5.861-3.321-6.688-5.946a6.32,6.32,0,0,1-.215-.91c-.483-3.077,1.909-5.38,3.148-7.855a63.664,63.664,0,0,1,8.331-13,21.968,21.968,0,0,1,3.766-3.789,16.665,16.665,0,0,1,3.641-2.043,18.749,18.749,0,0,1,3.458-1.062c2.283-.16,4.554-.32,6.836-.491.32,0,.628,0,.924.011a61.394,61.394,0,0,1,6.562.422c3.858.468,4.93.982,5.741,1.666a6.161,6.161,0,0,1,1.769,2.591,12.393,12.393,0,0,1,.536,2.02c1.019,5.436-1.324,14.843,2.568,18.957C283.949,1168.81,284.673,1169.2,284.738,1170.074Z" transform="translate(-235.898 -1117.219)" fill="#f5e3cb"/>
        <path id="Trazado_113662" data-name="Trazado 113662" d="M297.11,1178.723a2.9,2.9,0,0,1-1.974,1.461c-1.221.1-1.609-1.176-3.458-2.351a11.874,11.874,0,0,0-4.85-1.586c-2.134-.388-5.684-1.495-11.995-4.463,2.111-1.632,4.2-3.595,4.405-5.136,1.427.993,2.716,1.769,3.8,2.374a24.52,24.52,0,0,0,5.741,2.522c3.036.81,4.029.251,6.049,1.472a5.286,5.286,0,0,1,2.42,2.773A3.613,3.613,0,0,1,297.11,1178.723Z" transform="translate(-230.397 -1113.793)" fill="#f9b995"/>
        <path id="Trazado_113663" data-name="Trazado 113663" d="M277.414,1130.97c.114,5.181-2.728,11.39-6.323,11.778a3.861,3.861,0,0,1-1.552-.171c-.091.947-.183,1.906-.274,2.865a25,25,0,0,1,.228,6.654,22.277,22.277,0,0,1-.639,3.3c-.4,1.461-1.061,3.846-2.18,3.926-1.3.1-2.522-3.059-3.2-4.8a30.349,30.349,0,0,1-1.153-3.709,32.012,32.012,0,0,1-.787-5.923,24.8,24.8,0,0,0,1.039-10,2.657,2.657,0,0,1-2.808-1.826,2.051,2.051,0,0,1,.947-2.34,1.934,1.934,0,0,1,2.237.628c2.214-1.233,4.451-2.534,6.734-3.9,1.952-1.176,3.835-2.34,5.661-3.515A14.616,14.616,0,0,1,277.414,1130.97Z" transform="translate(-232.534 -1119.829)" fill="#f9b995"/>
        <path id="Trazado_113664" data-name="Trazado 113664" d="M272.788,1131.675c-.106.669.173,1.269.624,1.341s.9-.412,1.01-1.081-.172-1.268-.624-1.34S272.9,1131.006,272.788,1131.675Z" transform="translate(-230.689 -1118.888)" fill="#352f31"/>
        <path id="Trazado_113665" data-name="Trazado 113665" d="M267.262,1130.937c-.046.676.286,1.247.743,1.278s.863-.492.907-1.166-.286-1.249-.742-1.279S267.307,1130.261,267.262,1130.937Z" transform="translate(-231.468 -1119.003)" fill="#352f31"/>
        <path id="Trazado_113666" data-name="Trazado 113666" d="M266.449,1128.739c.078-.54,1.4-.7,1.78-.757s1.2-.169,1.421.2a.393.393,0,0,1,.041.336c-.079.191-.357.237-.477.259-1.6.282-2.4.677-2.687.266A.451.451,0,0,1,266.449,1128.739Z" transform="translate(-231.582 -1119.264)" fill="#a25f4c"/>
        <path id="Trazado_113667" data-name="Trazado 113667" d="M269.988,1135.333c.566-.08,1.463-.315,1.677-.988.089-.275.031-.5-.122-1.087l-.031-.122c-.177-.686-.307-1.245-.393-1.61a.169.169,0,0,0-.2-.125.167.167,0,0,0-.126.2c.084.366.217.929.394,1.618l.033.123c.146.569.183.725.127.9-.16.5-.922.692-1.36.76a.167.167,0,0,0,0,.33Z" transform="translate(-231.102 -1118.773)" fill="#f2856b"/>
        <path id="Trazado_113668" data-name="Trazado 113668" d="M275.253,1129.412c0-.521-1.221-.858-1.577-.963s-1.11-.325-1.371-.01a.375.375,0,0,0-.084.312c.048.191.3.274.414.31,1.477.491,2.171.974,2.5.625A.431.431,0,0,0,275.253,1129.412Z" transform="translate(-230.768 -1119.214)" fill="#a25f4c"/>
        <path id="Trazado_113669" data-name="Trazado 113669" d="M280.308,1140.151c-1.917-9.861,1.244-12.212-1.7-15.99a10.367,10.367,0,0,0-7.761-3.823,10.53,10.53,0,0,0-6.825,2.465c-3.629,3.116-1.586,5.718-5.8,11.755-.673.97-1.187,1.723-1.575,2.363-3.39,3.561-4.7,7.578-4.132,10.146a3.638,3.638,0,0,0,.719,1.541,7.064,7.064,0,0,0,3.321,1.986,5.83,5.83,0,0,0,3.709.046c2.179-.851,2.946-3.383,3.47-5.113a15.167,15.167,0,0,0-.017-8.445c-.034-.559-.074-1.13-.108-1.689a2.657,2.657,0,0,1-2.808-1.826,2.051,2.051,0,0,1,.947-2.34,1.934,1.934,0,0,1,2.237.628c2.214-1.233,4.451-2.534,6.734-3.9,1.952-1.176,3.835-2.34,5.661-3.515a14.616,14.616,0,0,1,2.066,7.042c.114,5.181-2.728,11.39-6.323,11.778a3.861,3.861,0,0,1-1.552-.171c-.091.947-.183,1.906-.274,2.865,3.858.468,4.93.982,5.741,1.666a6.161,6.161,0,0,1,1.769,2.591,10.168,10.168,0,0,0,2.362-3.355A11.219,11.219,0,0,0,280.308,1140.151Z" transform="translate(-233.568 -1120.336)" fill="#a25f4c"/>
        <path id="Trazado_113670" data-name="Trazado 113670" d="M270.513,1137.5c-.058,0-.118,0-.177,0a3.586,3.586,0,0,1-2.068-.821.171.171,0,1,1,.219-.262,3.113,3.113,0,0,0,3.108.55.171.171,0,0,1,.12.321A3.461,3.461,0,0,1,270.513,1137.5Z" transform="translate(-231.334 -1118.071)" fill="#f2856b"/>
        <path id="Trazado_113671" data-name="Trazado 113671" d="M253.474,1181.537h10.051a3.049,3.049,0,0,0,.661-2.343c-.284-1.421-1.8-2.034-2.321-2.244a6.462,6.462,0,0,0-6.606,1.574A6.833,6.833,0,0,0,253.474,1181.537Z" transform="translate(-233.415 -1112.389)" fill="#bda396"/>
        <path id="Trazado_113672" data-name="Trazado 113672" d="M266.587,1181.235a2.868,2.868,0,0,1-1.974,1.461c-1.221.091-1.609-1.176-3.458-2.351a11.834,11.834,0,0,0-4.839-1.586c-2.134-.377-5.661-1.484-11.9-4.417a13.31,13.31,0,0,0,1.609-3.412,15.283,15.283,0,0,0,.936-3.081,42.288,42.288,0,0,0,5.558,3.686,25.058,25.058,0,0,0,5.752,2.522c3.036.81,4.029.24,6.037,1.472a5.24,5.24,0,0,1,2.42,2.773A3.519,3.519,0,0,1,266.587,1181.235Z" transform="translate(-234.696 -1113.623)" fill="#f9b995"/>
      </g>
      <path id="Trazado_113673" data-name="Trazado 113673" d="M340.325,1180.924H219.692v5.022h7.585l-6.576,72.465h2.317l8.777-72.465h96.429L337,1258.411h2.317l-6.576-72.465h7.586Z" transform="translate(7.054 9.22)" fill="#504647"/>
      <path id="Trazado_113674" data-name="Trazado 113674" d="M326.333,1161.13a1.992,1.992,0,0,0-1.7-.949H296.9a1.992,1.992,0,0,0-1.778,1.093l-9.966,19.688a1.848,1.848,0,0,0-.162.489h-14.8a1.025,1.025,0,0,0-1.025,1.025v.355a1.025,1.025,0,0,0,1.025,1.025h44.48a1.989,1.989,0,0,0,1.778-1.093l9.966-19.688A1.989,1.989,0,0,0,326.333,1161.13Z" transform="translate(14.044 6.289)" fill="#bda396"/>
    </g>
  </g>
</svg>
